<?xml version="1.0" encoding="utf-8"?>
<!-- Generator: Adobe Illustrator 27.2.0, SVG Export Plug-In . SVG Version: 6.00 Build 0)  -->
<svg version="1.1" id="Layer_1" xmlns="http://www.w3.org/2000/svg" xmlns:xlink="http://www.w3.org/1999/xlink" x="0px" y="0px"
	 viewBox="0 0 483.4 386.8" style="enable-background:new 0 0 483.4 386.8;" xml:space="preserve">
<style type="text/css">
	.Arched_x0020_Green{fill:url(#SVGID_1_);stroke:#FFFFFF;stroke-width:0.25;stroke-miterlimit:1;}
	.st0{fill:#152443;}
	.st1{fill:#ECD8DC;}
	.st2{fill:#B3C3E1;}
	.st3{fill-rule:evenodd;clip-rule:evenodd;fill:#3F517B;}
	.st4{fill-rule:evenodd;clip-rule:evenodd;fill:#6E7496;}
	.st5{fill-rule:evenodd;clip-rule:evenodd;fill:#9D9EB7;}
	.st6{fill-rule:evenodd;clip-rule:evenodd;fill:#B3C3E1;}
	.st7{fill-rule:evenodd;clip-rule:evenodd;fill:#A46B82;}
	.st8{fill-rule:evenodd;clip-rule:evenodd;fill:#152443;}
	.st9{fill-rule:evenodd;clip-rule:evenodd;fill:#ECD8DC;}
</style>
<linearGradient id="SVGID_1_" gradientUnits="userSpaceOnUse" x1="0" y1="595.2803" x2="0.7071" y2="594.5732">
	<stop  offset="0" style="stop-color:#259E2E"/>
	<stop  offset="0.9831" style="stop-color:#1C381D"/>
</linearGradient>
<g id="XMLID_1_">
	<path class="st0" d="M78.5,118.4c-4.4,5.1-10.3,6.9-16.6,9.5l0.3,0.7c1.6-0.6,3.7-0.6,6.2-1.6c2.3-0.9,5.7-2.8,8.3-4.7
		c2.8-2.1,5.7-7.3,7.9-7.9c3.4-0.9,6.3,1.8,9,2.9c2.3,0.9,5.3,1.9,7.6,2.2c1.3,0.2,3.3-0.1,5.2-0.3l-0.1-0.9c-1.6,0.1-3.3,0-5.1-0.3
		c-5.4-0.9-8.6-5.8-13.7-5.8C82.3,112.3,80.8,115.8,78.5,118.4z"/>
	<path class="st0" d="M134.5,167c-0.9-9.7-3-19-5.9-26.7c-3.4-8.9-10-14.5-15.8-22.3c3.9-1.6,6.3-6.7,7.2-10.1
		c-2.3,5.6-6.8,9.8-13.6,10.3l0.1,0.9c1.4-0.1,2.7-0.2,3.5,0c2.9,0.7,6.9,7,8.6,9.4c5.6,7.5,8.7,13.5,11.5,24.1
		c1.3,4.9,3,9.8,3.6,14c0,0.2,0,0.3,0.1,0.5L134.5,167z"/>
	<path class="st1" d="M183.3,244.7c-0.1-2.3,0.9-4.9,1.1-7.6c0.2-3.4-0.3-7.1,0-10.4c0.7-6.2,1.6-12.1,7.2-13.3
		c9.5-1.2,18.5,0.8,26.6,0c3.9-0.4,8.9-2.2,13.7-0.4c8.3-0.1,19.1-0.6,28.8-0.7c3.3,0,6.8,1.3,10.4,1.8c8.6,1.2,18.2,0.3,24.8,2.9
		c5.4,2.1,6.2,8,7.3,13.5c0.3,1.4,0.6,2.9,1,4.2c1.9,6.2,5.8,11,8.3,15.8c3.6,7,5.4,16.9,3.2,27.7c-2.1,10.7-5.7,23.4-4.3,37.8
		c0.6,6.2,3.1,12.6,4,19.4c0.6-0.1,1.2-0.2,1.9-0.3c2.3-0.3,4.5-0.2,6.8,0.3c1.8-16.3-3.1-36-1.8-52.9c0.8-9.3,8.4-15.4,13.3-23
		c4.1-6.4,7.1-15.6,9-23.8c1-4.2-0.3-10.3,3.6-14c9.7,1.3,12.7,15.2,9.7,27c-3.2,12.8-10.5,25.9-12.6,41.4c-0.8,6.4-2,12.6-2.3,19.2
		c-0.2,3.7-0.2,7.6,0.2,11.7c0.5,5,1.9,10,2.9,15.8c2.3,0.5,5-1.7,8.3-1.4c-2.8-11.1-2.4-24.9-0.7-37.4c0.6-4.3,2-8.8,3.2-13.4
		c0.3-1.1,0.5-2.1,0.8-3.2c1.2-5.5,2.5-11,4.7-15.5c2.8-5.6,5.9-10.8,8.3-16.9c3.6-9.2,5.8-17,4.7-28.4c-1.8-19.4-7.9-33.7-22-41
		c-6.5-3.4-16.1-5.7-25.6-6.1c-5.1-0.2-10.6,1-16.2,1.1c-11.9,0.2-23.8,5.6-37.4,6.8c-2.5,0.2-5.1,0-7.6,0.4
		c-8.3,1.3-19.7,2.6-29.2,1.4c-9.7-1.2-18.8-1.2-27-3.6c-8.6-2.5-19.5-8.6-24.5-15.1c-0.8-1-1.3-2.8-2.2-4c-3.3-4.6-6.6-10.5-8.3-18
		c-0.5,7.4-5.6,15.3-1.4,22c-4.6-1.1-7.2-4.1-7.9-9c-1.7,1.7-0.2,7-0.3,8.3c-5.5-1.6-5.7-9.9-5.8-14.8c-1.1,1.8-1.2,4.3-1.4,6.1
		c-2.9-0.8-4.2-3.3-4-7.2c-0.8-0.9-1.2,1.1-2.2,0c-3.5-5.1,1.2-15.2-2.5-19.1c0.7,1.9-0.2,4.7-1.8,5.4c-3-3.5-4.5-8.5-5-14.4
		c-1,2.2-0.3,5.8,0,8.6c-5.9-0.9-7.1-9.3-5.4-15.5c-1.8,1.7-1.8,5.1-2.5,7.9c-1.9-1-2.6-2.6-4.7-4.3c-1.7-1.4-4.8-3.3-5.8-5.8
		c-2.2-5.7-6.1-9.8-3.2-17.3c-1-2.8-2.7-4.9-5-6.5c-0.5,3.5-1.7,10-4.7,9.7c-3.3-0.3-1.7-9.6-6.5-10.1c-0.5,2.6-1.2,5-3.2,6.1
		c-2.1-1.8-3-4.9-5.4-6.5c-1.5,2.6-3.1,5.1-5.8,6.5c-1.9-2.5,0.1-7.3,0.4-10.8c-1.6-1.2-3.3,3.6-6.1,3.6c-1-1.9,0.9-4.2,0-6.1
		c-2.2,1.2-1.8,5.1-5,5.4c-1.8-2.1,0.1-5.9-0.4-9c-1.8,0.3-4.2,2.9-6.5,4c-0.9-1.9,0.8-6.5-0.7-9.4c-1.7,0.4-2.6,1.7-5,1.4
		c-0.5,2.2-1.7,3.8-2.5,5.8c4.8,2.4,7,7.4,9.4,12.2c-4.5,1.7-10.2,1.5-14.4-0.4c-8,5.6-10.8,17.6-17.3,25.9c-2.8,3.6-7.1,6-9.4,9.4
		c-2,2.9-4,7.9-0.4,10.8c6.1,0,8.5-13.2,14.4-9.4c6,3.9-7.1,10.7-2.2,16.2c8.3-0.4,10.7-6.9,13.3-13c1.2-0.6,2.4-1.1,3.6-1.6
		c6.3-2.7,12.2-4.5,16.6-9.5c2.3-2.6,3.8-6.1,9-6.1c5,0,8.2,4.9,13.7,5.8c1.8,0.3,3.5,0.4,5.1,0.3c6.9-0.5,11.3-4.8,13.6-10.3
		c-0.9,3.4-3.3,8.5-7.2,10.1c5.8,7.8,12.4,13.4,15.8,22.3c2.9,7.7,5,17,5.9,26.7c0.9,9.5,0.7,19.4-0.9,28.4
		c-2.2,12.4-3.3,24.5-1.8,36.7c0.5,3.8,2.4,7,3.2,10.8c3.9,17-0.6,37.2-1.4,55.1c-0.6,12.6-0.6,22,0.4,35.6c1.9-0.3,4.3-0.6,6.1,0
		c-1.1-24.9,0.4-52.7,1.8-77.4c0.7-12.8-0.6-26.2,5.4-34.9c7.2-5,17.6-0.4,26.6,0c2,2.2,3.6,2.7,4.3,6.1c0.9,4.1,2,11,2.2,15.1
		c0,0.7,0.1,1.5,0.1,2.2L183.3,244.7z"/>
	<path class="st1" d="M184.4,249.8c-0.2-1.8-1-3.4-1.1-5l-2.8,0c0.2,8.6-1.1,18.3-1.2,27.3c0,3.9-1.5,7.7-1.8,11.5
		c-0.2,3,0.7,6,0.7,9c0,13.7-2.5,27.3-1.4,41.4c2.8-0.3,4.9,0.2,6.9,0.7c0.6,0.1,1.1,0.3,1.7,0.4
		C187.8,311.1,187.8,277.4,184.4,249.8z"/>
	<path class="st0" d="M137.6,347.7c0.6-3.5-1.4-9.6,1.4-10.8c0.1,0.4,0.6,0.4,1.1,0.4C140.1,341,141.2,346.6,137.6,347.7z
		 M134,336.2c1.1-0.3,1.1,0.6,2.2,0.4c-0.7,4.5,0.4,7-0.4,11.2C132.6,345.2,134,341,134,336.2z M183.7,334.7c-2-0.5-4.1-1-6.9-0.7
		c-1-14.1,1.4-27.7,1.4-41.4c0-3-1-6-0.7-9c0.3-3.8,1.8-7.6,1.8-11.5c0-9,1.3-18.7,1.2-27.3c0-0.7,0-1.5-0.1-2.2
		c-0.2-4.2-1.3-11-2.2-15.1c-0.7-3.5-2.3-4-4.3-6.1c-9-0.4-19.5-5-26.6,0c-6,8.8-4.7,22.2-5.4,34.9c-1.4,24.7-2.9,52.5-1.8,77.4
		c-1.9-0.6-4.2-0.3-6.1,0c-0.9-13.6-0.9-23-0.4-35.6c0.8-17.9,5.3-38.1,1.4-55.1c-0.9-3.8-2.8-7.1-3.2-10.8
		c-1.5-12.2-0.4-24.3,1.8-36.7c1.6-9,1.8-18.9,0.9-28.4l-0.9,0.1c0.3,3.2-0.6,6.4-0.8,10.3c-0.2,3.8,0.3,7.9,0,11.5
		c-0.4,5-2.2,9.5-2.9,14c-2.4,16.5-1.3,31.6,4.3,45.4c-1.4,3,0.3,4.7,0.4,7.6c0.3,8.3-2.4,16.1-2.5,25.2c0,1.2,0.4,2.3,0.4,3.6
		c0.1,10-1.7,20.6-1.4,30.2c0.1,2.5,0.7,4.8,0.7,7.2c0.1,9.6-2.1,19.3,1.4,27.4c4.2,1.5,6.6-1.8,9.4-2.9c0.5-9.6-1.1-19.3-0.4-28.8
		c0.2-3.4,1.1-6.8,1.1-10.1c0-3-0.9-5.8-1.1-8.6c-0.4-5.2-0.1-10.3,0-15.1c0.1-4.5,1.6-8.5,1.8-13c0.4-8.3-0.1-17.5,0.7-25.6
		c0.8-8.2,0.9-17.1,6.5-23c5.9,1.4,16.7,0.1,20.9,3.6c2.8,2.3,5.1,13.1,5.4,19.1c0.4,7,0.2,15.8-0.7,22.7c-0.4,2.8-0.1,5.6-0.4,7.6
		c-0.2,1.5-2,5.4-2.2,6.8c-1.2,9.8,0,19.2,0.7,28.4c0.5,6.1-1.6,12-1.4,17.6c0,2,0.9,3.8,1.1,5.8c0.1,1,0.1,2.1,0.1,3.1l1.3,0
		c0-0.2,0-0.4,0-0.6c1.4,0,2.9,0,4.3,0c-0.2,1.5,0,2.8,0.1,4l1.6,0c-0.2-1.6-0.2-3.1,0.8-4c0.1,0,0.2,0.1,0.4,0.1L183.7,334.7z"/>
	<path class="st2" d="M409.4,32.3c-7.6,7.2-16.3,13.3-27.7,17.3c-3.6,1.3-7.8,2.1-11.9,3.2c-11.8,3.4-23.6,4.6-36.4,4
		c-5.6-0.3-11.4-0.9-17.3-1.1c-3.2,0.1-6.4,0.2-9.4,0.3c0,0,0,0,0,0c-0.8,0.2-1.8,0.4-2.7,0.5c-10.4,0.8-22.2-1.9-33.8-2.9
		c-11.6-1-23.8-3.5-33.1-1.1c-3.4,0.9-7.4,3.7-10.8,5.8c-7.6,4.6-15.6,7-19.8,14c9.2,1.3,14.7-4.4,23-7.2c8.1-2.7,18.1-4.6,28.1-5.8
		c15.2-1.7,28.9,3.2,41.4,5c8,1.2,16.1-0.7,24.5-0.4c5.5,0.2,11.1,1.6,16.6,1.8c17.4,0.7,32.9-3.9,46.1-9c4.4-1.7,10.6-2.8,13.3-5
		c1.6-1.3,5.9-7.7,6.8-9.7C407.6,39,407.6,35.3,409.4,32.3z"/>
	<path class="st0" d="M191.2,217.4c13-0.6,26.6-2.5,40.7-2.6l0-1.7c-4.8-1.9-9.8,0-13.7,0.4c-8.1,0.8-17.1-1.2-26.6,0
		c-5.6,1.2-6.5,7.1-7.2,13.3c-0.3,3.3,0.2,7,0,10.4c-0.2,2.6-1.2,5.3-1.1,7.6c0.1,1.6,0.9,3.3,1.1,5c3.4,27.6,3.4,61.3,1.1,85.3
		c-0.6-0.1-1.1-0.3-1.7-0.4l-0.5,1.9c3.2,1.1,1.9,5.6,1.8,7.8c-1.1-0.3-1,0.6-2.2,0.4c-0.1-1.2-0.6-2.8-0.8-4.3l-1.6,0
		c0.2,1.3,0.5,2.5,0.6,3.9c-4.1-0.3-5-3.6-5-7.3l-1.3,0c0,3.6-0.1,7.1,1.7,9.8c3.3,2.9,6.7,1.3,11.9,1.1c-2-22.4,4.9-45.6,3.2-69.8
		c-0.5-8.1-1.5-16.6-2.5-25.2C187.6,241.6,187.8,228,191.2,217.4z"/>
	<path class="st2" d="M370.5,69.1c-4.1,1-9.2,0.9-14,1.4c-25.6,2.8-53.8,4.5-83.9,3.2l-0.4-0.4c-11.1,2.1-25.8-2.3-37.1,0.4
		c-8.3,1.9-14.3,8.2-21.2,10.4c2.5-0.5,6.7,0.9,9.4,0.7c2.6-0.1,5.8-2,9-2.9c7.5-2,14-0.8,21.6-1.4c7.1-0.6,16.4-1.5,24.8-0.4
		c6.7,0.9,12.5,1.5,19.1,1.4c27.5-0.3,53.1-4.2,77.1-8.3c9.4-1.6,15.4-6.5,19.4-13.7C387.3,61.5,377.9,67.2,370.5,69.1z"/>
	<path class="st2" d="M268.6,114.8c-7.8,0.5-15.5,1-21.3,3.6c0.5,1.3,1.6,2,1.4,4c5.1-2.5,11.6-3.6,18.4-4.3
		C267.6,116.9,268.4,116.1,268.6,114.8z"/>
	<path class="st2" d="M256.4,126.7c1.1,3.1,3.7,4.7,4.3,8.3c1.1-4.5,3.2-8.1,4.3-12.6C261.5,123.1,258.3,124.2,256.4,126.7z"/>
	<path class="st2" d="M255.6,124.9c2.6-2.2,5.9-3.7,10.1-4.3c-5.3-0.8-11.6,1.3-16.2,3.2c0,2,0,4.1,0,6.1c1.5-1.7,1.8-4.7,3.6-6.1
		C254.4,123.7,254.4,124.9,255.6,124.9z"/>
	<path class="st2" d="M297.8,105.4c-16.5,0.3-40.7-0.6-52.6,8.3c0.4,0.9,0.4,2.2,0.4,3.6c5.5-3.8,15.4-3.3,24.1-4
		C272.9,104.6,287.6,107.2,297.8,105.4z"/>
	<path class="st2" d="M284.8,136.7c-3.4-0.2-4.6,0.4-6.5,1.1c-2.5,5-2.1,13.9,0,19.1c0.8,0.8,4-2.9,4.7-4.7
		C284.7,148.1,284.6,142,284.8,136.7z"/>
	<path class="st2" d="M285.5,154.4c-2.8,1.6-4.5,4.4-6.5,6.8c1.1,2.8,0.7,5,0.7,8.6c2-2.1,4.3-3.9,6.1-6.1
		C285.5,160.8,286.4,157.5,285.5,154.4z"/>
	<path class="st2" d="M279,136.4c4.1-0.2,5.2-2.6,7.2-5c2-2.4,6.1-3.9,6.5-7.2C284.6,124.6,282.6,131.3,279,136.4z"/>
	<path class="st2" d="M292.4,133.5c-1.6,0.9-2.9,2.1-4.7,2.9c-0.6,4.1-0.8,8.5-1.5,12.6C289,144.5,293,141.3,292.4,133.5z"/>
	<path class="st2" d="M288,161.2c2.1-2.7,5-4.6,7.2-7.2c-0.2-3.2-1.1-5.6-1.8-8.3C288.7,148.5,287.7,154,288,161.2z"/>
	<path class="st2" d="M290.9,170.2c1.7-5.1,4.5-9.2,5.4-15.1C289.8,158.1,286.1,163.8,290.9,170.2z"/>
	<path class="st2" d="M303.5,137.5c-2.7-0.7-5.5,1.5-8.3,1.8c0,0.7,0,1.4,0,2.2C297.9,140,300.5,138.6,303.5,137.5z"/>
	<path class="st0" d="M301,228.9c0.2,0.6,0.3,1.3,0.5,2l1.8-0.4c-1.1-5.5-2-11.4-7.3-13.5c-6.6-2.6-16.2-1.7-24.8-2.9
		c-3.7-0.5-7.1-1.8-10.4-1.8c-9.7,0.2-20.5,0.7-28.8,0.7l0,1.7c2.4,0,4.8,0,7.2,0.1c4.8,0.2,9.7,2.4,14.8,2.9
		c4.1,0.4,8.2-0.5,12.2-0.4c2.3,0.1,4.5,0.9,6.8,1.1c4.5,0.4,9.4,0.5,14.8,1.1C295.1,220.4,299,221.3,301,228.9z"/>
	<path class="st2" d="M302.4,144.7c-3.5,4.6-5.2,8.9-6.5,15.8c2.7-2.5,4.8-5.6,7.9-7.6c0-2.1-1.3-2.7,0-4.3
		C302.1,147.8,303,146.5,302.4,144.7z"/>
	<path class="st2" d="M300.3,171.7c2.3-4.4,5.1-10,4-16.6C297.8,157.3,295.8,165.9,300.3,171.7z"/>
	<path class="st2" d="M307.1,136.7c-4.2,1.4-7.9,3.4-11.5,5.4c1.7,1.6,1.5,5.2,2.1,7.9c2.4-1.3,2.5-4.9,4.3-6.8
		c1.4-0.1,0.5,2.2,1.8,2.2C304.8,142.3,306.7,140.3,307.1,136.7z"/>
	<path class="st0" d="M311.3,55.6c-1.2,0-2.3,0-3.5,0.1c-0.4,0-0.8,0.1-1.2,0.2c3-0.1,6.2-0.2,9.4-0.3
		C314.5,55.6,312.9,55.6,311.3,55.6z"/>
	<path class="st2" d="M307.8,55.7c1.1-0.1,2.3-0.1,3.5-0.1l0-2.3c-3,0.1-6,0.1-8.8-0.1C284.4,52,267.5,46.1,252,46
		c-7.7,0-17.5,0.9-23.4,3.2c-2.8,1.1-5.9,3.9-9.4,6.1c-5.7,3.7-9.5,6.6-13.7,11.5c-1.3,1.5-3.3,3.5-2.9,5.4c2.4-0.4,3.1-3.3,5-4.7
		c3.8-2.7,9-5.2,14-7.9c5.8-3.2,11-7.6,18-8.3c18.9-1.9,40.8,4.6,58.3,4.7c2.6,0,5.5-0.1,8.5-0.1c0,0,0,0,0,0
		C307.1,55.8,307.5,55.8,307.8,55.7z"/>
	<path class="st2" d="M310.4,153.3c5.7-1,12.3-2.2,18.7-2.5c26-1.1,53.6-5,73.4-14c-29,7.1-68.6,5-97.2,14c0.1,2.9,1,5,1.1,7.9
		c1.7,0.8,3.6-4.3,6.5-4.7c-2-1-4.3,0.7-6.5,0.7C306.1,152.4,309.2,153.5,310.4,153.3z"/>
	<path class="st0" d="M316.8,347.7c3.3,1.1,6.9-0.2,9-1.4c0.2-1.4,0.4-2.8,0.5-4.2l-1.3-0.1c-0.2,1.8-1.2,3.3-2.8,3.2
		c0.1-2,0-3.8-0.2-5.6l-1.9,0.2c0.2,1.6,0,3.7-0.1,5.4c-4-0.2-4-4.3-4.7-7.9c0.8-0.4,1.5-0.5,2.1-0.6l-0.2-1.5
		c-0.6,0.1-1.2,0.2-1.9,0.3c-0.9-6.8-3.4-13.2-4-19.4c-1.4-14.4,2.2-27.1,4.3-37.8c2.1-10.8,0.4-20.7-3.2-27.7
		c-2.5-4.8-6.4-9.6-8.3-15.8c-0.4-1.3-0.7-2.7-1-4.2l-1.8,0.4c1,4.6,1.3,9.3,3.1,13.9c2.9,7.1,7.2,12.5,7.9,21.2
		c0.7,8.5-2.6,16.3-3.6,23c-1.3,8.2-1.5,20.8,0,30.6c0.8,5,2.1,10.1,2.9,15.1C312.5,339.4,313.8,344.2,316.8,347.7z"/>
	<path class="st2" d="M324,98.2c-1.7,0.1-7.4,1.2-10.1,1.4c-27.1,2.2-59.7-4.1-81.4,4.7c0.7,2.2,0.1,6,0.4,7.6
		c3.1-0.6,7.4-3.1,11.2-4.3c1.2,0.5,0.4,2.9,1.1,4C263.4,99,303.6,108.4,324,98.2z"/>
	<path class="st2" d="M324.3,98.2c-0.1,0-0.2,0-0.3,0C324.1,98.2,324.2,98.2,324.3,98.2z"/>
	<path class="st2" d="M350,152.2c-11.2,1.2-21.2,3.8-32.4,4.7c17.6,2.1,42.5-1.1,58-7.6C368.3,151,359.2,151.2,350,152.2z"/>
	<path class="st0" d="M272.6,73.7c30.1,1.3,58.3-0.5,83.9-3.2c-10.9,1.1-22.5,1-34.2,2.2C305.9,74.3,288.9,73.7,272.6,73.7z"/>
	<path class="st0" d="M345.3,290.1c2.1-15.5,9.4-28.6,12.6-41.4c3-11.8,0-25.7-9.7-27c-3.9,3.7-2.6,9.9-3.6,14
		c-1.9,8.2-4.9,17.3-9,23.8c-4.9,7.7-12.6,13.8-13.3,23c-1.3,17,3.6,36.6,1.8,52.9c-2.3-0.5-4.5-0.6-6.8-0.3l0.2,1.5
		c1.8-0.1,2.5,1.2,2.7,3.1l1.9-0.2c-0.1-0.8-0.1-1.5-0.2-2.3c2.5-0.2,3.4,2.4,3.2,4.7l1.3,0.1c0.5-6.1,0.4-12.2,0.6-18.8
		c0.2-8.4-1.8-17.1-2.1-25.6c-0.2-4.3-0.6-9.2,0-13.3c1.8-13.5,13.3-20.6,18.4-31.7c3.7-8.2,4.3-16.1,7.2-25.2
		c8.4,6.6,5.2,16.8,2.5,27c-2.2,8.5-5.8,16.5-8.3,24.8c-1.4,4.6-1.4,9.4-2.2,14.4c-0.8,4.8-1.4,10.1-1.7,15.5l2.2,0.1
		C343.3,302.7,344.4,296.5,345.3,290.1z"/>
	<path class="st0" d="M353.6,343c-0.7-1.3-0.9-3.2-1.1-5c0.5-0.5,1.7-0.2,2.2-0.7c0.3,1.5,1.4,2.2,1.4,4
		C355.4,342,355.1,343.1,353.6,343z M348.5,343.7c-0.2-1.8-1.4-2.7-1.4-4.7c1.6,0.2,2-0.6,3.6-0.4c0.2,1.8,0.9,3.2,1.1,5
		C350.1,343.6,349.7,344.4,348.5,343.7z M347.4,346.2c4.2,0.1,7.4,1.1,10.1-1.4c3.9-3.7-0.3-12.3-0.7-17.6c-0.2-2.6,0.4-5.5,0.4-7.9
		c0-8-1.7-16-1.1-24.1c0.3-3.6,0.9-7,1.7-10.2l-1-0.3c-1.2,4.6-2.6,9.1-3.2,13.4c-1.7,12.5-2,26.3,0.7,37.4c-3.3-0.3-6,1.9-8.3,1.4
		c-1-5.8-2.4-10.8-2.9-15.8c-0.4-4.1-0.4-8-0.2-11.7l-2.2-0.1C339.9,322.6,341.2,336.7,347.4,346.2z"/>
	<path class="st2" d="M356.8,127.8c-4.3,0.2-8.6,0-13,0.3c-2.8,0.2-5.8,1-8.6,1.1c-11.4,0.3-25.9-1.1-34.6,2.9c-2.3,1.1-6,2.1-5,5.8
		c3-0.2,7.9-1.4,11.1-2.5c15.8-1.2,32.5-5.2,50.1-6.6L356.8,127.8z"/>
	<path class="st2" d="M342.4,142.9c7-0.6,14.4-1.4,21.9-2.2l-0.2-2c-18.6,2-38.6,2.2-58,3.9c-0.5,1.6-2.2,4-1.4,5.8
		c4.3,0.5,8.1-2,12.6-2.9C324.8,143.8,333,143.6,342.4,142.9z"/>
	<path class="st2" d="M363.6,82.4c-16.6,3.3-35.4,7.2-55.4,9c-25.7,2.4-50.1-4.1-69.5,4c-3.1,1.3-8.3,2.8-7.2,6.8
		c5.6,0.4,11.4-1.1,17.3-1.8c5.7-0.7,11.6-1.7,17.6-1.8c21.5-0.3,42.8,2.2,61.9-2.5c4.6-1.1,8-3.1,12.2-4.7
		c8.5-3.2,16.2-4.3,23.4-8.6C364.1,82.4,363.9,82.4,363.6,82.4z"/>
	<path class="st2" d="M364.3,140.6c6.2-0.7,12.5-1.3,18.5-1.7c11-0.8,23.3-4.8,28.8-11.9c-5.9,2.9-13,4.5-19.8,6.5
		c-8.6,2.5-18,4.1-27.7,5.1L364.3,140.6z"/>
	<path class="st0" d="M378.3,128.6c-2.9,0.1-5.8,0.1-8.8,0.1c1.2,0.1,2.4,0.1,3.5,0.1C374.8,128.8,376.5,128.7,378.3,128.6z"/>
	<path class="st2" d="M375.5,76.6c-3.2-0.6-8.8,1.4-13.3,1.8c-6,0.6-12.4-0.2-18.7,1.1c-8,1.6-14.2,2.3-23,2.5
		c-10.1,0.3-20.9,2-31.7,1.4c-10.4-0.6-20.3-2.9-30.2-2.2c-12.6,1-23.8,0.2-33.1,4.7c0,2.9-4.7,4.9-5,7.2c4.9-0.6,12.6-2,11.5,3.6
		c12.1-8.8,34.2-7.7,52.6-6.5c8.4,0.5,16.6-0.3,25.2-1.4c6.1-0.8,12.5-0.7,18.7-1.4c6.7-0.8,13.6-2.7,20.5-4.3
		C358.3,80.9,368.6,81.1,375.5,76.6z"/>
	<path class="st2" d="M381.3,145.4c2.7,1.7,4.7-1.8,7.6-2.2c-14.9,1.7-30.9,6.9-48.2,7.9c-7.9,0.5-16.3,0-24.1,1.8
		c0.4,3.4,4.3,2.6,6.5,2.5c8.3-0.3,15.7-2.3,23.8-3.2C359.5,150.7,374.2,151.1,381.3,145.4z"/>
	<path class="st0" d="M400.7,125.6c-7.3,0.6-14.8,2.3-22.4,3C386.1,128.4,393.5,127.9,400.7,125.6z"/>
	<path class="st2" d="M378.3,128.6c7.6-0.7,15.1-2.4,22.4-3h0.4c5.1-2.7,15.1-2.4,15.8-8.3c-13.3,6.3-31.8,7.2-50.4,9
		c-2.7,0.3-5.5,1.2-8.3,1.4c-0.5,0-1,0.1-1.4,0.1l0.1,0.9c1.2-0.1,2.3-0.2,3.5-0.2c3-0.2,6,0.1,9.1,0.2
		C372.4,128.7,375.4,128.6,378.3,128.6C378.3,128.6,378.3,128.6,378.3,128.6z"/>
	<path class="st2" d="M398.6,52.9c-17.7,6.7-36.9,14.8-61.2,13.3c-2.8-0.2-6.5-1.6-9,0c-4.4-1.4-8.4-0.5-14,0
		c-18.8,1.5-38.6-6.6-57.2-5c-16.6,1.4-30.5,6.3-42.9,12.6c0.4,3.7-1.6,7.9-3.2,10.8c7.4-2,14.8-9.1,22.7-11.2
		c12.1-3.1,24.1,1,38.5,0l0.4,0.4c16.4-0.1,33.3,0.6,49.7-1.1c11.7-1.2,23.3-1.1,34.2-2.2c4.7-0.5,9.3-1.1,13.7-2.2
		c8.9-2.1,17.1-7.3,25.2-9.4C396.3,56.9,398,55.4,398.6,52.9z"/>
	<path class="st2" d="M400.4,38.8c0.3-0.3,2.1-0.9,1.1-1.8c-9.9,3.7-19.1,8.4-29.1,10.8c-2.9,0.7-6.1,0.5-9,1.4
		c-4.5,1.4-8.4,3.8-13.7,4.3c-7,0.7-15.5,0-23.4-0.4c-5-0.2-10,0-14.9,0.1l0,2.3c1.6,0,3.2,0,4.8,0.1c3.9-0.1,7.9-0.1,11.9,0.1
		c7.5,0.3,14.9,0.8,22,0.4c10.7-0.6,20.9-3.8,29.5-6.5C386.6,47.4,395.2,43.4,400.4,38.8z"/>
	<path class="st0" d="M401.4,267.1c3.1-5.7,3.4-13.4,4-22c0.4,1.8,0.5,3.5,0.5,5.3l1.3,0c0-3.8-0.1-7.6-0.4-11.1
		c-0.2-2,0.8-5.2-1.8-5.8c-2.3,10.9-0.8,27.4-7.2,35.3c1.2-7.9,3.2-16.6,4-24.5c0.2-2.6,0.9-7.1-1.1-9c-2.2,10.1-1,21.4-5.8,29
		l0.9,0.6c0.4-0.6,0.8-1.1,1.2-1.6c-0.4,2.6-2,5.9-1.1,8.6C398.4,272.1,400.4,269,401.4,267.1z"/>
	<path class="st2" d="M414.8,122c-4.6,1.1-8.6,2.9-13.7,3.6h-0.4c-7.2,2.3-14.7,2.8-22.4,3c0,0,0,0,0,0c-1.8,0.1-3.5,0.2-5.3,0.2
		c-1.2,0-2.4,0-3.5-0.1c-3.9,0.1-7.9,0.2-11.9,0.5c-17.3,1.3-34.2,4.9-49.7,7.2c-0.1,1.9-0.9,2.9-1.1,4.7c10.2-1,19.2-0.2,30.6-0.7
		c28.4-1.2,55.2-5.6,75.2-14.4C412.8,124.1,414.5,123.7,414.8,122z"/>
	<path class="st0" d="M413.7,248c-0.5-0.8-0.7-3.9,0-4.7C413.8,244.5,414.6,246.9,413.7,248z M419.1,250.9c1.4-7.7,2.8-14.4,1.1-23
		c-0.9-4.5-3-9.9-4.7-14.4c-3.1-8.1-10.2-15.8-15.5-18.4c-6.9-3.3-16-4.7-24.7-3.2l0.2,1.5c9.9-1.6,22.2,1.9,28,6.4
		c7.2,5.5,11.1,15.8,13.7,25.6c1.6,6.2,0.1,13.1-0.4,20.2c-0.6,8.9-1.4,17.6-5.8,24.1c1.1-7.6,4.8-15.4,4.7-23.8
		c-0.1-3-1.4-5.6-0.7-8.6c-1.3-0.5-1.3-2.3-3.2-2.2c-0.3,12.4-1.4,27.4-7.2,36.4c1.8-6.2,2.5-13.7,2.6-21l-1.3,0
		c0,8.7-3.6,17.7-2.7,25.3c7.6-3.7,6.9-15.7,9.7-24.1c0.5,6.9-4,14.9-4,23.8C416.1,271.8,417.2,261.1,419.1,250.9z"/>
	<path class="st2" d="M417.6,114.8c1.4-4.6,2.9-9.1,2.9-15.1c-1.5-0.4-2.3,1.6-3.2,2.5c-8,7.4-18.9,13.7-33.1,15.5
		c-1.7-0.1,0.5,1.4-1.1,1.4c-11.5,0.3-22.9,3.8-34.6,3.6c-19.8-0.3-38.1-0.6-54,5.4c0.4,1.5,1.8,2.1,1.4,4.3
		c4.1-2.4,9.4-4.5,15.1-4.7c10.3-0.4,21.2-1.4,31.7-1.1c10.5,0.3,20.5-2.5,29.9-2.5c7.4,0,17.5-1.2,25.6-2.9
		C405.3,119.8,412.3,118.3,417.6,114.8z"/>
	<path class="st2" d="M420.9,96.8c-0.2-1.8,0.4-4.2-0.4-5.4c-4.4,8.6-12.5,13.4-20.5,18.4c-30,12.7-79.5-4.1-107.3,11.9
		c0,1.5,2.4,0.5,2.5,1.8c0.1,1.7-1.3,1.8-1.8,2.9c8.7-3.4,20.5-4.1,32-5c3.5-0.3,6.8-1.2,10.4-1.4c7.3-0.4,14.8,0.5,22,0
		C384.7,117.9,409.2,115.2,420.9,96.8z"/>
	<path class="st0" d="M73.1,89.2c-2.6,1-8.5,2-10.8,0c4.7-0.1,6.5-4.9,5.4-8.6C70,82.9,71.6,86,73.1,89.2z M61.6,88.5
		c-0.1-2.9,2-6.6,3.6-9C69,82.2,67.2,89.1,61.6,88.5z M76.7,62.2c-1.6-4.4-3-12.8-1.4-18c4.5,3.5,6.9,9.2,8.3,15.8
		C81.3,60.8,79.2,61.7,76.7,62.2z M112.4,93.9c-2.3-4.8-4.9-9.3-8.6-12.6c-0.1,0.1-0.1,0.2-0.2,0.3c-0.9,1.4-0.4,5.1-1.6,6.9
		c-2.2-2.4-2.7-6.4-6.1-7.6c-1.1,0.6-1.3,2-2.2,2.9c0.4-2,0.7-4.7-1.1-5.4c-1.5,0.8-3.9,2.6-5.4,2.2c0.9-3.5,0-8.4-3.2-9
		c-2,0.9-0.5,3.5-1.8,4.7c-0.5-2.8-1.2-5.6-3.2-6.8c-1.6,0.4-1.6,2.5-2.9,3.2c0-1.6-0.5-2.8-1.1-4c-1.9-1.3-4.2,1.1-5.4,0.4
		c8.2-4.9,17.9-8.6,30.6-7.2c0.5,0.1,0.6,0.6,1.1,0.7c-0.3,5-3.6,12.9-0.4,16.9c1,0.1,2,0.4,3.1,0.8c3,1,6.3,2.4,8.8,0.3
		c0.4-4.7,1.3-10.2,0.4-15.1c7.2,1.4,13.5,3.8,18,7.9c0.5,5.9-2.3,14.6-7.9,17.6c-1.8-1.1-3.6-6.9-5.8-7.2
		C112.7,83.2,115.1,90.9,112.4,93.9z M103,75.9c-0.6-8.3,0.7-16.2,4.7-22.3c2.4,2.5,3.6,9.1,4,14.4c0.2,3.6,0.9,9.7-3.2,10.1
		c-0.5-1.4,1.1-2.5,0-3.2c0.3,1.3-0.6,1.5-0.4,2.9c-8.1-0.5-1.5-12.3-2.2-16.2C104.5,65.8,103.8,70.9,103,75.9z M137.9,79.5
		c2.8,15.8-9.2,18.6-7.2,32.4c-3.6-2.5-4.2-9.2-2.9-13.3c0.8-2.3,3.8-4,5.8-6.5C136.9,88,136.6,83.8,137.9,79.5z M127.1,91.4
		c3.2-4.7,5.6-8.4,6.8-14.4c3,11-6.7,17.4-11.2,24.5C121.4,96,124.9,94.6,127.1,91.4z M141.2,79.5c7.8,5.4,5.7,19.7-0.4,27.4
		c-2.4,3.1-5.7,5.3-6.5,8.3c-3.7-12.4,6.3-20.1,6.8-30.2C141.3,83.2,140.2,80.4,141.2,79.5z M147.6,127.7c-1.5-3.2-3.5-7-2.9-10.4
		c0.4-2.4,3.8-5.2,5.4-8.3c1.8-3.6,2.7-8.3,3.6-10.8c4.2,6.8-1.7,11.1-3.6,16.6C148.6,119.3,149.3,123.3,147.6,127.7z M141.2,109
		c0.7-1.6,2.7-2.5,3.6-4c3.2-4.9,4-10,4-17.6c0.3,3,2.6,4.5,2.9,7.2c0.8,6.9-4.8,13.2-7.6,19.1c-1.2,2.5-1.5,6-3.6,5.4
		C140.8,115.3,139.9,111.9,141.2,109z M173.2,136.7c2.4,9.1-3.3,13.7-2.9,23C162.9,153.2,171.5,144.5,173.2,136.7z M155.9,120.5
		c2-4.4,6.4-7.3,7.2-12.2c1.5,4.3,3.1,7,2.2,12.6c-1.1,7.2-3.4,10.4-6.8,14.4c-2,2.3-3.5,4.8-5.4,5.8
		C155.1,133.5,153.4,126.1,155.9,120.5z M158.4,100.4c2.1,1.9,2.6,5.5,2.2,8.6c-0.8,5.2-5.7,8.1-7.6,13.3c-1.1,2.9,0,5.4-1.4,8.6
		c-0.6-2.2-1.4-3.5-1.5-5.8C150,114,158.6,110.7,158.4,100.4z M163.8,157.6c-1.9-3-3.3-7.5-2.5-11.5c0.4-1.8,2.8-4.1,4.7-7.2
		c2-3.3,3.1-7.6,4.7-8.6C174.2,141.2,163.7,146.5,163.8,157.6z M157,150.1c-2.6-7.8,0.1-10.6,3.6-15.1c3.8-4.9,5.3-9.2,6.8-16.6
		C170.9,133.3,159.8,139.2,157,150.1z M204.5,101.1c-1.3-4.7-1.9-10.1-1.8-16.2c2.3,0,4.3,0.2,5.8,1.1
		C208.5,92.3,207.3,97.6,204.5,101.1z M200.6,75.5c2.2-0.8,8-1.7,11.9-0.7c-0.6,5.9-2.6,11.7-9.7,9
		C202.5,80.6,199.7,79.9,200.6,75.5z M216.4,95c0.4,9-1.8,15.5-9.4,16.6c-0.6-2.7-1.4-5.3-1.8-8.3C208.3,99.8,212,97.1,216.4,95z
		 M217.1,159.8c2.3,4.8,5.1,11,3.6,18.4c-2.4,0-3.8-1-6.1-1.1c-0.1-1.4,0.6-2,0.3-3.6c1.3-0.2,3.7,0.6,4-0.7
		c-0.7-0.6-2.4-0.3-3.6-0.4c-0.4-1.7,1.3-3.9-0.4-4.7c-0.5,3.5-0.9,5.4-1.4,8.3c-2.1,1-3.6-0.7-5.4-1.1
		C210.1,168.8,212.9,163.6,217.1,159.8z M218.9,133.1c-1.5,0.7-2.4,1.9-4,2.5c-1.5-7.8,1.2-16.6,1.1-21.2c-1.3,0.6-0.2,3-1.1,4.7
		c-1.6-0.1-2.3-2.5-3.6-1.8c0.4,2.1,3.3,1.8,3.2,4.3c-0.8,0.9-1.2-1.1-2.2,0c2.8,1,0.9,5.9,1.4,8.3c-2.5-5.2-4.7-10.7-6.5-16.6
		c3-1.7,5.3-4.1,8.6-5.4C218.2,115.1,218.9,123.8,218.9,133.1z M221.8,86.7c-2.1,6.6-9.6,7.7-14.4,11.5c1.3-3.5,1.8-7.8,2.2-12.2
		C213.9,86,218.5,85.7,221.8,86.7z M227.2,163c-2.3,3.2-3.1,8-5.4,11.2c-0.5-6.1-2.2-11-4.3-15.5c-1.5,0.3-2.1,1.5-3.2,2.2
		c0.7-4.8,0.7-10.3,5-11.5c1.8,4.3,5.2,7,5.8,12.6C226.5,161,226.4,162.4,227.2,163z M229.4,95.3c0.8,2-1.3,2.3-0.7,5
		c-3.7,1.6-7.4,3.2-11.2,4.7c0.6-3,0.4-6.8,1.1-9.7C221.5,94.3,226.3,94.5,229.4,95.3z M218.6,106.5c3.3-1.1,6.2-2.7,9.7-3.6
		c2.2,11.1-3.5,18.6-7.5,25.6C220.6,120.6,219.8,113.3,218.6,106.5z M220.7,134.9c2.6,2,7.3,5.7,7.5,9.4c-1.6,3.8-1.9,8.9-3.2,13
		c-2.4-3-2.8-8-6.1-10.1c-1.4-0.1-2.7,3.4-3.2,1.8c-0.3-3.5-0.6-7.1-1.1-10.4C215.7,137.3,219.5,133.9,220.7,134.9z M234.8,152.2
		c-1.1,0-1-1.1-2.5-0.7c-1.8,3.2-2.4,7.7-5,10.1c-1.5-6.2,0.8-14.1,4-18.7C233,145.4,233.4,149.3,234.8,152.2z M229.4,114.1
		c0.7,6.2,3.7,9.9,4.7,15.8c-3.5,1.5-3.4,6.7-5.4,9.7c-0.6-2.2-1-4.7-1.1-7.6c1.8-0.2,3-1.1,3.6-2.5c-1.8-0.4-2.8,2.5-3.6,0.7
		c0.6-1.9,2.7-2.3,3.2-4.3c-1.4-0.3-1.9,2.1-2.9,1.1c0.2-1,1.5-4.1,0-4.3c-1.2,6.1-0.7,11.5-0.7,16.6c-1.4-2.3-3.8-3.7-5-6.1
		C224.4,126.6,225.8,119.3,229.4,114.1z M238,145.4c-0.9,0.3-1.5-1.6-2.2-0.4c0.2,1.4,1.4,1.7,2.5,2.2c-0.6,0.2-2.1-0.4-2.2,0.4
		c0.1,0.9,1.2,0.7,2.2,0.7c0,2,0.2,4.3-0.7,5.4c0-0.5,0-1,0-1.4c-2.4-3.6-3.2-8.8-6.8-11.2c0.7-3.2,1.3-6.4,3.2-8.3
		C235.4,137.3,238.1,140.3,238,145.4z M242,180.7c-3.8,0.6-8.2,0.6-10.4-1.4c0.6-1.1,0.6-2.8,0.7-4.3c0.9,0,1.9-0.1,1.8-1.1
		c0.3-1-1.7,0.3-1.4-0.7c0.6-0.5,0.4-1.8,1.1-2.2c1.7-0.2,3.5,2.3,4.3,0.7c-1-1-2.9-1.2-4.3-1.8c0.6-2.4,2.2-5.7,2.2-7.6
		c-1.8,0.7-1.3,4.9-2.5,7.2c-2.2-0.4-1.9-3.4-3.6-4.3c0.6,2.3,1.1,4.7,2.9,5.8c-0.1,1.1-0.4,2-0.7,2.9c-2.4,0.8-4.2-1.9-5-0.4
		c1,1,3.2,0.8,4.7,1.4c-0.1,2.2-0.7,3.9-1.8,5c-2.2-0.5-4.5-1-7.2-1.1c3.1-8.5,6.2-17.1,11.5-23.4c0.8,2.2,1.6,4.4,2.4,6.6
		C238.7,167.8,241,173.6,242,180.7z M239.4,146.5c0.5,2.6,1.1,5.2,2.2,7.2c-1,1.2-1.8,2.5-2.9,3.6
		C239.7,154.4,238.5,149.3,239.4,146.5z M242,110.5c0.4,3.9,1.7,6.9,1.8,10.1c-2.5,3.1-5.5,5.8-7.2,9.7c-1.3-4.8-2.2-10.1-4.3-14
		C234.6,113.4,238.5,112.1,242,110.5z M248.1,160.5c-0.8-3.7-2.4-10.2-5.4-9.4c0.9-4.8,2.5-9,6.1-11.2c0.3,4.1,1.4,7.5,2.2,11.2
		C248.7,153,249.7,158.1,248.1,160.5z M243.4,151.5c6.1,4.7,4.2,15.6,0,20.9c-0.9-5.3-3.5-9-5-13.7c1.4-1.4,2.7-3.1,3.6-5
		C244.5,153.5,242.9,153.4,243.4,151.5z M243.4,134.9c-0.4-1.7,2.2-0.5,1.8-2.2c-0.6,0-1.2,0-1.8,0c-0.3-1.7,0.4-4.4,0-5
		c-1.5,1.5-0.1,5.9-1.8,7.2c0.5,0,0.8-0.2,1.1-0.4c0,3.2-0.5,6.3-0.7,10.1c-2.2-2.2-2.6-6.3-4.3-9c3-4.3,4.8-9.8,8.6-13.3
		c0.9,4.4,1.3,10,1.8,13.7c-2,2-3.2,4.8-5,6.8c-0.1-3.9,0.1-5.5,2.2-7.6C244.3,134.9,243.3,136.5,243.4,134.9z M253.8,151.9
		c-0.1-4.9,2.4-7.2,5.4-9c-0.8,3.5-1.8,6.8-2.1,10.8C256.2,152.8,255,152.4,253.8,151.9z M253.1,155.1c5.1,1.9,3.5,8.4,5.4,13.3
		c-0.9,0.5-0.7,1.9-1.4,2.5C254.3,167.7,250.1,161.2,253.1,155.1z M259.6,142.5c-3.6-0.7-4.1,4.5-6.5,6.1c-1-4.4-0.7-10.1-3.2-13
		c0.5-3.7,1.8-6.6,4-8.6C256.6,131.3,261.6,135.6,259.6,142.5z M258.2,178.9c1.8,0.6,2-2.9,2.5-0.4c-3.1,1.1-11.4,2-15.8,1.8
		c1.6-4.5,1.2-11.1,5-13.3C253,170.6,255.8,174.5,258.2,178.9z M267.2,118c-6.8,0.8-13.3,1.8-18.4,4.3c0.1-1.9-1-2.6-1.4-4
		c5.7-2.6,13.4-3.1,21.3-3.6C268.4,116.1,267.6,116.9,267.2,118z M256.4,126.7c1.9-2.4,5.1-3.5,8.6-4.3c-1.1,4.5-3.2,8.1-4.3,12.6
		C260,131.4,257.4,129.8,256.4,126.7z M265.7,120.5c-4.2,0.6-7.5,2.1-10.1,4.3c-1.2,0-1.2-1.2-2.5-1.1c-1.8,1.5-2.1,4.4-3.6,6.1
		c0-2,0-4.1,0-6.1C254.2,121.8,260.4,119.7,265.7,120.5z M279,161.2c2-2.5,3.6-5.2,6.5-6.8c0.9,3.1,0,6.4,0.4,9.4
		c-1.8,2.2-4.1,4-6.1,6.1C279.8,166.2,280.2,164,279,161.2z M284.8,136.7c-0.2,5.3-0.1,11.4-1.8,15.5c-0.7,1.7-3.9,5.4-4.7,4.7
		c-2.1-5.1-2.5-14.1,0-19.1C280.2,137.1,281.4,136.5,284.8,136.7z M286.2,149c0.6-4.1,0.9-8.5,1.5-12.6c1.8-0.7,3-2,4.7-2.9
		C293,141.3,289,144.5,286.2,149z M292.7,124.1c-0.3,3.3-4.4,4.8-6.5,7.2c-2,2.4-3.1,4.8-7.2,5C282.6,131.3,284.6,124.6,292.7,124.1
		z M287,166.6c2,1.5,2.3,4.7,2.2,8.3c-3.7,0.4-7.2,1-11.2,1.1C279.7,171.6,282.8,168.6,287,166.6z M295.2,154
		c-2.2,2.6-5.1,4.5-7.2,7.2c-0.4-7.2,0.6-12.7,5.4-15.5C294.1,148.4,295.1,150.8,295.2,154z M245.2,113.7c11.8-8.9,36.1-8,52.6-8.3
		c-10.2,1.8-24.8-0.8-28.1,7.9c-8.7,0.6-18.6,0.1-24.1,4C245.6,115.9,245.6,114.6,245.2,113.7z M296.3,155.1c-0.9,6-3.7,10-5.4,15.1
		C286.1,163.8,289.8,158.1,296.3,155.1z M298.8,173.8c-2.8,0.8-3.4,0.5-6.8,0.7c0.4-3.5,1.3-6.6,2.9-9
		C297.6,166.9,297.4,171.2,298.8,173.8z M303.9,148.6c-1.3,1.6,0,2.2,0,4.3c-3.1,2-5.2,5.1-7.9,7.6c1.3-6.9,3-11.2,6.5-15.8
		C303,146.5,302.1,147.8,303.9,148.6z M304.2,155.1c1.1,6.6-1.6,12.2-4,16.6C295.8,165.9,297.8,157.3,304.2,155.1z M295.2,139.3
		c2.8-0.3,5.6-2.5,8.3-1.8c-3,1.1-5.6,2.6-8.3,4C295.2,140.7,295.2,140,295.2,139.3z M295.6,142.1c3.6-2,7.3-4,11.5-5.4
		c-0.4,3.6-2.3,5.6-3.2,8.6c-1.3,0-0.4-2.2-1.8-2.2c-1.8,1.9-1.9,5.5-4.3,6.8C297.1,147.3,297.3,143.8,295.6,142.1z M306,167
		c2,2.1,4.8,3.4,6.1,6.1c-3.6-0.2-6.3,0.4-9.4,0.7C303.2,170.9,304.2,168.5,306,167z M306.4,164.8c2.9-2.7,5.3-7.9,9-8.6
		c-2.1,3.9-5,7.9-3.6,13.3C310.6,167.4,307.8,166.8,306.4,164.8z M314,99.7c2.6-0.2,8.4-1.4,10.1-1.4c0.1,0,0.2,0,0.3,0
		c-0.1,0-0.2,0-0.3,0c-20.5,10.2-60.6,0.8-78.8,13.3c-0.6-1,0.1-3.4-1.1-4c-3.8,1.2-8,3.7-11.2,4.3c-0.3-1.6,0.3-5.4-0.4-7.6
		C254.2,95.5,286.9,101.8,314,99.7z M308.2,91.4c20.1-1.8,38.8-5.7,55.4-9c0.2,0,0.4,0.1,0.4,0.4c-7.2,4.4-14.9,5.5-23.4,8.6
		c-4.3,1.6-7.7,3.6-12.2,4.7c-19.2,4.7-40.5,2.2-61.9,2.5c-6,0.1-12,1.1-17.6,1.8c-5.9,0.7-11.6,2.2-17.3,1.8
		c-1.1-4.1,4.1-5.6,7.2-6.8C258.1,87.3,282.5,93.7,308.2,91.4z M362.2,78.4c4.5-0.4,10.1-2.4,13.3-1.8c-6.9,4.5-17.2,4.2-26.6,6.5
		c-6.9,1.6-13.8,3.5-20.5,4.3c-6.2,0.8-12.6,0.6-18.7,1.4c-8.6,1.1-16.8,2-25.2,1.4c-18.3-1.2-40.4-2.3-52.6,6.5
		c1.1-5.6-6.6-4.2-11.5-3.6c0.4-2.3,5.1-4.3,5-7.2c9.3-4.5,20.5-3.7,33.1-4.7c9.9-0.8,19.9,1.6,30.2,2.2c10.7,0.6,21.6-1.1,31.7-1.4
		c8.9-0.2,15-0.9,23-2.5C349.8,78.3,356.2,79,362.2,78.4z M375.5,149.3c-15.5,6.5-40.3,9.6-58,7.6c11.2-0.9,21.2-3.4,32.4-4.7
		C359.2,151.2,368.3,151,375.5,149.3z M388.8,143.2c-2.9,0.3-4.9,3.9-7.6,2.2c-7.1,5.8-21.8,5.3-34.6,6.8c-8,1-15.5,3-23.8,3.2
		c-2.2,0.1-6.1,0.9-6.5-2.5c7.8-1.8,16.2-1.3,24.1-1.8C358,150.1,374,144.9,388.8,143.2z M337.4,66.2c24.3,1.5,43.5-6.6,61.2-13.3
		c-0.6,2.6-2.2,4-3.2,6.1c-8.1,2.1-16.3,7.2-25.2,9.4c-4.4,1-9,1.7-13.7,2.2c4.8-0.5,10-0.4,14-1.4c7.5-1.8,16.8-7.6,23.8-9.4
		c-4,7.2-10.1,12.1-19.4,13.7c-23.9,4-49.6,8-77.1,8.3c-6.6,0.1-12.4-0.5-19.1-1.4c-8.5-1.2-17.8-0.2-24.8,0.4
		c-7.6,0.6-14.1-0.6-21.6,1.4c-3.2,0.9-6.4,2.8-9,2.9c-2.7,0.1-6.9-1.2-9.4-0.7c6.9-2.3,12.9-8.5,21.2-10.4
		c11.3-2.6,26,1.8,37.1-0.4c-14.4,1-26.4-3.1-38.5,0c-7.9,2-15.3,9.2-22.7,11.2c1.6-2.9,3.6-7.1,3.2-10.8
		c12.4-6.3,26.2-11.2,42.9-12.6c18.6-1.6,38.4,6.6,57.2,5c5.6-0.5,9.6-1.4,14,0C330.8,64.5,334.6,66,337.4,66.2z M402.5,136.7
		c-19.9,9-47.4,12.9-73.4,14c-6.5,0.3-13,1.5-18.7,2.5c-1.1,0.2-4.2-0.9-4,1.4c2.1,0,4.5-1.7,6.5-0.7c-2.9,0.4-4.8,5.5-6.5,4.7
		c-0.1-2.9-0.9-5.1-1.1-7.9C334,141.8,373.6,143.8,402.5,136.7z M406.1,42.1c-1,2.1-5.3,8.5-6.8,9.7c-2.7,2.2-8.9,3.3-13.3,5
		c-13.2,5.1-28.7,9.7-46.1,9c-5.5-0.2-11.1-1.6-16.6-1.8c-8.4-0.3-16.5,1.5-24.5,0.4c-12.5-1.8-26.2-6.7-41.4-5
		c-10,1.1-20,3-28.1,5.8c-8.4,2.9-13.9,8.5-23,7.2c4.2-7,12.2-9.4,19.8-14c3.5-2.1,7.4-4.9,10.8-5.8c9.3-2.5,21.6,0.1,33.1,1.1
		c11.6,1,23.5,3.7,33.8,2.9c1-0.1,1.9-0.3,2.7-0.5c-3,0.1-5.8,0.2-8.5,0.1c-17.6-0.1-39.4-6.5-58.3-4.7c-6.9,0.7-12.2,5.1-18,8.3
		c-5,2.7-10.3,5.2-14,7.9c-1.9,1.4-2.6,4.3-5,4.7c-0.5-1.9,1.6-3.9,2.9-5.4c4.2-5,7.9-7.8,13.7-11.5c3.4-2.2,6.5-5,9.4-6.1
		c5.9-2.3,15.7-3.3,23.4-3.2c15.5,0,32.3,6,50.4,7.2c2.9,0.2,5.8,0.2,8.8,0.1c4.9-0.1,10-0.4,14.9-0.1c7.9,0.4,16.4,1,23.4,0.4
		c5.3-0.5,9.2-3,13.7-4.3c2.9-0.9,6.1-0.7,9-1.4c10.1-2.5,19.3-7.1,29.1-10.8c1,0.9-0.8,1.5-1.1,1.8c-5.1,4.6-13.8,8.6-20.9,10.8
		c-8.6,2.7-18.9,5.9-29.5,6.5c-7,0.4-14.5-0.1-22-0.4c-4-0.1-8-0.1-11.9-0.1c5.9,0.2,11.8,0.9,17.3,1.1c12.8,0.6,24.5-0.5,36.4-4
		c4-1.2,8.2-2,11.9-3.2c11.5-4,20.1-10,27.7-17.3C407.6,35.3,407.6,39,406.1,42.1z M391.7,133.5c6.8-2,13.9-3.5,19.8-6.5
		c-5.5,7.1-17.8,11.1-28.8,11.9c-6,0.4-12.2,1.1-18.5,1.7c-7.4,0.8-14.9,1.7-21.9,2.2c-9.4,0.8-17.6,0.9-25.2,2.5
		c-4.5,0.9-8.3,3.4-12.6,2.9c-0.8-1.8,0.9-4.1,1.4-5.8c19.4-1.7,39.4-1.9,58-3.9C373.8,137.5,383.1,136,391.7,133.5z M417.6,114.8
		c-5.3,3.5-12.4,5-19.4,6.5c-8,1.6-18.2,2.9-25.6,2.9c-9.4,0-19.3,2.8-29.9,2.5c-10.5-0.3-21.4,0.7-31.7,1.1
		c-5.7,0.2-11,2.2-15.1,4.7c0.4-2.3-1-2.8-1.4-4.3c15.9-6,34.2-5.7,54-5.4c11.7,0.1,23-3.3,34.6-3.6c1.5,0-0.6-1.5,1.1-1.4
		c14.2-1.8,25.2-8.1,33.1-15.5c0.9-0.9,1.7-2.9,3.2-2.5C420.6,105.7,419.1,110.2,417.6,114.8z M414.8,122c-0.3,1.8-2,2.1-2.2,4
		c-20,8.8-46.8,13.2-75.2,14.4c-11.4,0.5-20.4-0.3-30.6,0.7c0.1-1.8,1-2.8,1.1-4.7c15.5-2.3,32.4-5.9,49.7-7.2c4-0.3,8-0.4,11.9-0.5
		c-3-0.2-6-0.4-9.1-0.2c-1.2,0.1-2.4,0.2-3.5,0.2c-17.6,1.4-34.4,5.4-50.1,6.6c-3.2,1.1-8.2,2.3-11.1,2.5c-1-3.7,2.8-4.7,5-5.8
		c8.7-4,23.2-2.6,34.6-2.9c2.8-0.1,5.8-0.9,8.6-1.1c4.3-0.2,8.7,0,13-0.3c0.5,0,1-0.1,1.4-0.1c2.8-0.2,5.6-1.2,8.3-1.4
		c18.7-1.8,37.1-2.7,50.4-9c-0.7,5.9-10.7,5.6-15.8,8.3C406.1,124.9,410.2,123.1,414.8,122z M420.5,91.4c0.7,1.2,0.2,3.7,0.4,5.4
		c-11.7,18.4-36.2,21.1-63,23c-7.2,0.5-14.7-0.4-22,0c-3.6,0.2-7,1.2-10.4,1.4c-11.5,0.9-23.4,1.6-32,5c0.5-1.1,1.9-1.2,1.8-2.9
		c-0.1-1.3-2.6-0.3-2.5-1.8c27.8-16,77.2,0.8,107.3-11.9C408,104.8,416.2,100,420.5,91.4z M418.7,115.5c0.9-4,3-7.9,3.6-12.6
		c0.6-4.7,0.6-9.5-0.4-14.8c-4.9,2.5-5.5,7.8-9,11.2c-9.9,9.5-26,13.5-44.3,13.7c-11.4,0.1-22.6-1.2-33.9-2.2
		c-17.9-1.6-32.4,3.8-46.1,10.8c-7.2,5.8-14.2,13.7-14,25.9c0.1,8.3,6.6,19.4,1.4,28.4c-2.7,0.4-6.6,2.7-9.4,1.8
		c-1-0.3-2.1-2.9-3.2-4.7c-7-10.9-2.4-30,2.1-43.9c1.6-4.7,3.6-8.3,5.8-11.5c12.3-7.9,28-6.3,41.8-11.5c3.4-1.3,6.5-2.9,10.1-4
		c3.6-1,6.4-2.6,9.7-4c4.1-1.7,8.6-2.5,12.6-4.3c3.9-1.8,7.4-4.3,11.2-5.8c6.5-2.5,12.9-3.7,18.4-6.8c3.4-2,7.1-5.3,10.4-7.9
		c3.5-2.7,7.1-5.4,9.7-8.3c8.7-9.8,12.4-23.5,17.6-36.7c-4.5-2.3-6.4,4.2-10.1,5.8c-2.1,0.9-4.7,0.6-7.2,1.4c-2.7,0.9-5.5,2.7-8.6,4
		c-3,1.2-6.2,2.1-9.7,2.9c-6.9,1.6-12.8,5.2-18.4,6.5c-2.1,0.5-4.5,0-7.2,0c-7.6,0-16.1,2.8-24.9,2.5c-15.9-0.5-31.8-2.3-46.8-5
		c-16.8-3-31.3-6.1-45.7-3.6c-10.1,1.8-18.8,7.9-25.2,14c-2,1.9-3.5,5-5.8,7.6c-3.1,3.6-7.6,6.4-7.2,14c0.5,8.8,5,17.1,6.8,26.3
		c1,5.1,1.8,9.8,3.2,14.8c2.8,9.8,5.6,21,5,33.5c-0.1,2.9-0.6,5.9-1.1,8.3c-0.8,4.3-3.5,7.4-5,12.2c-7-2.8-13.6-8.1-18-14
		c-5.4-7.3-7.6-18.4-10.8-28.1c-3.2-9.8-7.4-19.3-11.2-27.4c-4.2-9-10.8-15.9-16.9-22c-6.4-6.4-13.6-11.4-21.6-16.9
		c-5.7-0.6-8.4-4-14-4.7c0.2-4.1-2.4-8-3.6-11.9c-3,2.7-4.4,6.9-6.5,10.4c-4-0.2-10,0.1-15.1,0c-0.7-1.3-1.4-3.4-1.1-4.7
		c-2.5-2.2-2.8-5.5-5-9c-0.9-1.4-4.7-7.6-6.1-7.6c-1.9,0-4,6.6-4.3,7.9c-1.4,6.4,0.5,14.1,2.2,18.4c-3,2.2-6.1,3.6-8.3,6.1
		c-2.7,3.1-2.5,6.7-4,11.5c-1.5,4.7-7.5,10.6-11.2,16.2c-1.8,2.8-4,5.4-5.4,8.3c-1.9,4-3.1,7.5-5.4,10.4c-2.3,3.1-7.4,5.4-9,8.3
		c-2,3.6-2,11.6,2.5,12.6c7.2,1.5,7.5-7.8,13.3-9c2.5,4.3-5.1,6.4-5,10.8c0,7.8,11.2,3.5,14.4,0.4c2.7-2.6,3.4-8.4,6.1-10.4
		c0.3-0.2,0.6-0.4,1-0.5l-0.3-0.7c-1.2,0.5-2.4,1-3.6,1.6c-2.7,6.1-5,12.5-13.3,13c-4.9-5.5,8.2-12.3,2.2-16.2
		c-5.9-3.9-8.3,9.4-14.4,9.4c-3.7-2.9-1.6-7.9,0.4-10.8c2.3-3.4,6.6-5.8,9.4-9.4c6.5-8.3,9.3-20.3,17.3-25.9
		c4.2,1.9,9.9,2.1,14.4,0.4c-2.3-4.8-4.6-9.8-9.4-12.2c0.8-1.9,2-3.5,2.5-5.8c2.5,0.3,3.3-1,5-1.4c1.5,2.9-0.2,7.5,0.7,9.4
		c2.2-1.1,4.7-3.7,6.5-4c0.5,3.1-1.4,6.9,0.4,9c3.2-0.3,2.8-4.2,5-5.4c0.9,1.9-1,4.2,0,6.1c2.8,0,4.5-4.8,6.1-3.6
		c-0.3,3.5-2.3,8.3-0.4,10.8c2.7-1.4,4.3-3.9,5.8-6.5c2.4,1.6,3.3,4.6,5.4,6.5c2-1.1,2.7-3.6,3.2-6.1c4.8,0.5,3.1,9.8,6.5,10.1
		c3,0.3,4.1-6.2,4.7-9.7c2.3,1.6,4,3.7,5,6.5c-2.9,7.4,1.1,11.6,3.2,17.3c0.9,2.4,4.1,4.4,5.8,5.8c2.1,1.7,2.8,3.3,4.7,4.3
		c0.7-2.8,0.8-6.2,2.5-7.9c-1.7,6.2-0.5,14.6,5.4,15.5c-0.3-2.9-1-6.4,0-8.6c0.6,5.9,2.1,10.9,5,14.4c1.6-0.7,2.5-3.5,1.8-5.4
		c3.8,3.9-1,13.9,2.5,19.1c1,1.1,1.4-0.9,2.2,0c-0.2,3.9,1.1,6.4,4,7.2c0.3-1.8,0.3-4.3,1.4-6.1c0.1,4.9,0.2,13.2,5.8,14.8
		c0.2-1.3-1.3-6.6,0.3-8.3c0.8,4.9,3.4,7.9,7.9,9c-4.2-6.7,0.9-14.6,1.4-22c1.7,7.5,5,13.4,8.3,18c0.8,1.2,1.3,2.9,2.2,4
		c5,6.5,15.8,12.6,24.5,15.1c8.2,2.4,17.3,2.4,27,3.6c9.4,1.1,20.9-0.2,29.2-1.4c2.5-0.4,5-0.1,7.6-0.4c13.7-1.3,25.6-6.7,37.4-6.8
		c5.6-0.1,11.1-1.3,16.2-1.1c9.5,0.4,19,2.7,25.6,6.1c14.1,7.4,20.1,21.6,22,41c1.1,11.4-1.1,19.2-4.7,28.4
		c-2.4,6.1-5.5,11.3-8.3,16.9c-2.2,4.4-3.5,10-4.7,15.5c-0.2,1.1-0.5,2.1-0.8,3.2l1,0.3c3.6-14.1,11.7-25.6,17-38.8
		c5.6-14,4.6-31.4-0.4-46.4c12,0,16.8,9.5,19.1,20.5c0.8,3.5,1.9,7.1,1.8,9.7c-0.1,1.7-0.8,2.9-1.1,4.7c-0.8,5.7-0.4,12.1-1.1,17.6
		c-0.9,6.7-4.4,12.9-2.9,19.1c2.7-0.1,3.9-3.8,5.6-6.3l-0.9-0.6c-0.8,1.4-1.9,2.6-3.2,3.7c0.2-11.1,6.9-22.4,5.8-36.4
		c-1.4-16.3-5.8-34.2-23.8-33.8c0.1-1.8-1.1-2.3-1.1-4c1-0.3,1.9-0.5,2.9-0.7l-0.2-1.5c-1.1,0.2-2.3,0.4-3.4,0.7
		c-5.2-10.6-15.2-17.2-29.5-20.2c-8.5-1.8-17.7-2.4-24.8-0.7c-2.8-0.9-4-5.1-3.6-7.9c8.7-6.4,27-3.5,40.3-5.8
		c17.9-3,31.3-11,46.1-18c3.6-1.7,6.1-5.1,9.7-6.5c0.6-2,2.2-3.1,3.6-4.3c-0.7-3.8,3.4-6,4.7-9.7
		C418.8,118.2,418.4,116.8,418.7,115.5z"/>
</g>
<path class="st3" d="M75.3,44.2c-1.6,5.2-0.2,13.6,1.4,18c2.4-0.6,4.5-1.5,6.8-2.2C82.2,53.4,79.8,47.7,75.3,44.2z"/>
<path class="st4" d="M108.4,74.8c1.1,0.8-0.5,1.9,0,3.2c4.2-0.4,3.5-6.5,3.2-10.1c-0.4-5.3-1.6-11.9-4-14.4
	c-4,6.1-5.3,14.1-4.7,22.3c0.8-5,1.5-10.1,2.9-14.4c0.7,3.9-5.9,15.7,2.2,16.2C107.8,76.4,108.7,76.1,108.4,74.8z M106.2,61.1
	c0.7-1.7,0.8-4,2.2-5c0.5,1.4,1.4,4.4,0.7,5.8c-0.5-1.3-0.2-3.4-1.1-4.3C107,58.3,107.4,60.5,106.2,61.1z M109.1,73.7
	c0-2.6,0-7.4,0.4-11.5C109.9,65.3,110.1,70.2,109.1,73.7z"/>
<path class="st5" d="M69.5,69.1c1.2,0.7,3.5-1.6,5.4-0.4c0.5,1.2,1,2.3,1.1,4c1.3-0.8,1.3-2.8,2.9-3.2c2.1,1.3,2.7,4,3.2,6.8
	c1.3-1.1-0.2-3.8,1.8-4.7c3.3,0.6,4.1,5.5,3.2,9c1.5,0.4,3.9-1.4,5.4-2.2c1.8,0.7,1.5,3.4,1.1,5.4c0.8-0.9,1.1-2.3,2.2-2.9
	c3.4,1.2,3.9,5.2,6.1,7.6c1.3-2,0.6-6,1.8-7.2c3.8,3.3,6.4,7.8,8.6,12.6c2.7-3,0.3-10.7,5-10.1c2.2,0.3,3.9,6.1,5.8,7.2
	c5.6-3,8.4-11.8,7.9-17.6c-4.5-4.1-10.8-6.5-18-7.9c0.9,4.9,0,10.4-0.4,15.1c-3.4,2.9-8.2-0.8-11.9-1.1c-3.3-4.1,0.1-11.9,0.4-16.9
	c-0.5-0.1-0.6-0.6-1.1-0.7C87.4,60.4,77.7,64.2,69.5,69.1z"/>
<path class="st6" d="M200.6,75.5c-0.9,4.4,1.9,5,2.2,8.3c7.1,2.7,9.2-3.1,9.7-9C208.5,73.9,202.7,74.8,200.6,75.5z"/>
<path class="st4" d="M134,77c-1.2,6-3.6,9.7-6.8,14.4c-2.2,3.2-5.7,4.6-4.3,10.1C127.3,94.4,136.9,88,134,77z"/>
<path class="st4" d="M141.2,79.5c-1,1,0.1,3.7,0,5.4c-0.6,10.1-10.6,17.8-6.8,30.2c0.8-3,4-5.2,6.5-8.3
	C146.9,99.2,148.9,84.9,141.2,79.5z"/>
<path class="st5" d="M137.9,79.5c-1.3,4.3-1.1,8.5-4.3,12.6c-1.9,2.4-5,4.2-5.8,6.5c-1.4,4.1-0.7,10.8,2.9,13.3
	C128.7,98.1,140.7,95.3,137.9,79.5z"/>
<path class="st7" d="M65.2,79.5c-1.6,2.4-3.7,6.1-3.6,9C67.2,89.1,69,82.2,65.2,79.5z M65.2,85.3c-1.7,0.4-1.5-1.2-1.4-2.5
	c0.5,0,0.8-0.2,1.1-0.4C65.1,83.2,66,84.4,65.2,85.3z"/>
<path class="st6" d="M67.7,80.6c1.1,3.8-0.7,8.5-5.4,8.6c2.3,2,8.2,1,10.8,0C71.6,86,70,82.9,67.7,80.6z"/>
<path class="st8" d="M64.8,82.4c-0.3,0.2-0.6,0.4-1.1,0.4c0,1.3-0.3,2.9,1.4,2.5C66,84.4,65.1,83.2,64.8,82.4z"/>
<path class="st6" d="M202.7,84.9c-0.1,6.1,0.5,11.5,1.8,16.2c2.8-3.5,3.9-8.8,4-15.1C207,85.1,205,84.9,202.7,84.9z"/>
<path class="st6" d="M209.6,86c-0.4,4.4-0.9,8.7-2.2,12.2c4.8-3.8,12.3-5,14.4-11.5C218.5,85.7,213.8,86,209.6,86z"/>
<path class="st5" d="M148.7,87.4c0.1,7.6-0.8,12.7-4,17.6c-0.9,1.4-2.9,2.3-3.6,4c-1.3,2.9-0.4,6.3-0.7,10.1
	c2.1,0.6,2.4-2.9,3.6-5.4c2.7-5.9,8.4-12.2,7.6-19.1C151.3,91.9,149,90.4,148.7,87.4z"/>
<path class="st8" d="M77.1,91c-2.6,10,6.1,16.3,15.8,15.1C89.6,98.3,87.9,90.9,77.1,91z M84.6,93.9c-7.1,0.3-4.6,12,2.2,7.6
	c0-1.6,1.7-2.8,1.1-4c2.2,1.5,2.7,4.7,3.2,7.9c-9,0.4-15.1-5.2-13.3-13.3C80.6,92.1,83.5,92.1,84.6,93.9z M81,96.8
	c3.4-4,8.7-0.6,5,4c-1.2,0.5-2.8,1.2-4,0.7C81.4,100,80.5,98.5,81,96.8z"/>
<path class="st6" d="M77.8,92.1c-1.8,8.1,4.3,13.7,13.3,13.3c-0.5-3.2-1.1-6.4-3.2-7.9c0.7,1.1-1.1,2.3-1.1,4
	c-6.8,4.5-9.3-7.3-2.2-7.6C83.5,92.1,80.6,92.1,77.8,92.1z"/>
<path class="st6" d="M218.6,95.3c-0.7,2.9-0.5,6.7-1.1,9.7c3.8-1.5,7.5-3.1,11.2-4.7c-0.6-2.8,1.6-3,0.7-5
	C226.3,94.5,221.5,94.3,218.6,95.3z"/>
<path class="st7" d="M82.1,101.5c1.2,0.5,2.7-0.2,4-0.7c3.6-4.5-1.6-8-5-4C80.5,98.5,81.4,100,82.1,101.5z M85.4,99.3
	c-1,0.9-4,1.3-3.6-1.1c2.4,0.7,2-1.3,3.6-1.4C85.4,97.6,85.4,98.5,85.4,99.3z"/>
<path class="st6" d="M216.4,95c-4.4,2.1-8.1,4.8-11.2,8.3c0.4,3,1.2,5.6,1.8,8.3C214.6,110.5,216.8,104,216.4,95z"/>
<path class="st8" d="M85.4,96.8c-1.6,0.1-1.2,2.1-3.6,1.4c-0.4,2.3,2.6,2,3.6,1.1C85.4,98.5,85.4,97.6,85.4,96.8z"/>
<path class="st4" d="M153.8,98.2c-0.9,2.5-1.8,7.2-3.6,10.8c-1.6,3.1-5,5.9-5.4,8.3c-0.6,3.4,1.4,7.2,2.9,10.4c1.7-4.4,1-8.4,2.5-13
	C152,109.3,158,105,153.8,98.2z"/>
<path class="st5" d="M158.4,100.4c0.2,10.3-8.4,13.6-8.3,24.8c0,2.2,0.8,3.5,1.4,5.8c1.4-3.2,0.4-5.7,1.4-8.6
	c1.9-5.2,6.8-8.1,7.6-13.3C161,105.9,160.5,102.3,158.4,100.4z"/>
<path class="st6" d="M228.3,102.9c-3.5,0.9-6.4,2.5-9.7,3.6c1.2,6.8,2,14.1,2.2,22C224.8,121.5,230.5,114,228.3,102.9z"/>
<path class="st6" d="M216,107.9c-3.3,1.3-5.6,3.7-8.6,5.4c1.8,5.9,4,11.4,6.5,16.6c-0.5-2.4,1.4-7.3-1.4-8.3c1-1.1,1.4,0.9,2.2,0
	c0-2.5-2.8-2.2-3.2-4.3c1.3-0.7,2,1.7,3.6,1.8c0.9-1.7-0.2-4.1,1.1-4.7c0.2,4.6-2.6,13.5-1.1,21.2c1.5-0.6,2.5-1.8,4-2.5
	C218.9,123.7,218.2,115.1,216,107.9z"/>
<path class="st4" d="M163.1,108.3c-0.8,5-5.2,7.8-7.2,12.2c-2.5,5.6-0.9,13-2.9,20.5c1.8-1,3.4-3.4,5.4-5.8c3.5-4,5.7-7.2,6.8-14.4
	C166.2,115.3,164.6,112.6,163.1,108.3z"/>
<path class="st6" d="M242,110.5c-3.5,1.7-7.3,3-9.7,5.8c2.1,4,3,9.2,4.3,14c1.7-4,4.7-6.6,7.2-9.7
	C243.6,117.3,242.4,114.3,242,110.5z"/>
<path class="st6" d="M229.4,114.1c-3.5,5.2-4.9,12.6-7.2,19.1c1.3,2.5,3.7,3.8,5,6.1c0.1-5.1-0.5-10.4,0.7-16.6
	c1.4,0.2,0.2,3.4,0,4.3c0.9,1,1.5-1.4,2.9-1.1c-0.5,2-2.6,2.4-3.2,4.3c0.8,1.8,1.8-1.2,3.6-0.7c-0.6,1.4-1.8,2.3-3.6,2.5
	c0.1,2.8,0.5,5.3,1.1,7.6c2-3,1.9-8.2,5.4-9.7C233.1,124,230,120.2,229.4,114.1z"/>
<path class="st5" d="M167.4,118.4c-1.5,7.4-3,11.7-6.8,16.6c-3.6,4.6-6.2,7.4-3.6,15.1C159.8,139.2,170.9,133.3,167.4,118.4z"/>
<path class="st6" d="M246.3,122.3c-3.8,3.5-5.6,9-8.6,13.3c1.8,2.7,2.1,6.7,4.3,9c0.3-3.7,0.8-6.9,0.7-10.1
	c-0.3,0.2-0.6,0.4-1.1,0.4c1.7-1.3,0.3-5.7,1.8-7.2c0.4,0.7-0.3,3.3,0,5c0.6,0,1.2,0,1.8,0c0.4,1.7-2.2,0.5-1.8,2.2
	c-0.1,1.6,0.9,0,1.8,0.4c-2,2-2.3,3.6-2.2,7.6c1.9-2.1,3.1-4.8,5-6.8C247.6,132.3,247.1,126.7,246.3,122.3z"/>
<path class="st6" d="M259.6,142.5c2-6.9-3-11.1-5.8-15.5c-2.2,2-3.5,4.9-4,8.6c2.5,2.9,2.3,8.5,3.2,13
	C255.5,147,256,141.8,259.6,142.5z"/>
<path class="st4" d="M170.7,130.3c-1.5,1-2.7,5.3-4.7,8.6c-1.9,3.1-4.3,5.4-4.7,7.2c-0.8,4,0.6,8.5,2.5,11.5
	C163.7,146.5,174.2,141.2,170.7,130.3z"/>
<path class="st6" d="M234,132.8c-2,1.9-2.6,5.1-3.2,8.3c3.6,2.4,4.5,7.5,6.8,11.2c0,0.5,0,1,0,1.4c0.9-1.1,0.7-3.4,0.7-5.4
	c-1,0-2.1,0.2-2.2-0.7c0-0.8,1.5-0.2,2.2-0.4c-1.1-0.5-2.3-0.8-2.5-2.2c0.7-1.2,1.3,0.6,2.2,0.4C238.1,140.3,235.4,137.3,234,132.8z
	"/>
<path class="st6" d="M214.6,138.5c0.5,3.3,0.7,6.9,1.1,10.4c0.5,1.6,1.8-1.9,3.2-1.8c3.3,2.1,3.7,7.1,6.1,10.1
	c1.3-4.1,1.6-9.2,3.2-13c-0.2-3.7-5-7.3-7.6-9.4C219.5,133.9,215.7,137.3,214.6,138.5z"/>
<path class="st5" d="M173.2,136.7c-1.7,7.8-10.3,16.5-2.9,23C169.9,150.5,175.5,145.9,173.2,136.7z"/>
<path class="st6" d="M248.8,140c-3.6,2.1-5.2,6.3-6.1,11.2c3-0.8,4.6,5.7,5.4,9.4c1.7-2.4,0.6-7.5,2.9-9.4
	C250.2,147.4,249.1,144.1,248.8,140z"/>
<path class="st6" d="M253.8,151.9c1.2,0.5,2.4,1,3.2,1.8c0.3-4,1.4-7.3,2.2-10.8C256.3,144.7,253.8,147,253.8,151.9z"/>
<path class="st6" d="M231.2,142.9c-3.2,4.6-5.5,12.5-4,18.7c2.7-2.4,3.2-6.9,5-10.1c1.5-0.4,1.4,0.8,2.5,0.7
	C233.3,149.3,232.9,145.4,231.2,142.9z"/>
<path class="st6" d="M239.4,146.5c-1,2.9,0.2,7.9-0.7,10.8c1.1-1.1,1.9-2.4,2.9-3.6C240.5,151.6,239.9,149.1,239.4,146.5z"/>
<path class="st6" d="M219.3,149.3c-4.3,1.2-4.3,6.7-5,11.5c1.1-0.7,1.7-1.9,3.2-2.2c2.1,4.5,3.9,9.3,4.3,15.5
	c2.3-3.2,3.1-8,5.4-11.2c-0.8-0.6-0.7-2-2.2-1.1C224.5,156.3,221.1,153.6,219.3,149.3z"/>
<path class="st6" d="M238.4,158.7c1.6,4.7,4.2,8.3,5,13.7c4.2-5.3,6.1-16.2,0-20.9c-0.5,1.9,1.1,2-1.4,2.2
	C241.1,155.6,239.8,157.2,238.4,158.7z"/>
<path class="st6" d="M257.1,170.9c0.7-0.6,0.6-2.1,1.4-2.5c-1.9-4.9-0.3-11.4-5.4-13.3C250.1,161.2,254.3,167.7,257.1,170.9z"/>
<path class="st6" d="M234,155.5c-5.4,6.3-8.4,14.9-11.5,23.4c2.7,0.1,5,0.6,7.2,1.1c1.1-1.2,1.7-2.9,1.8-5c-1.4-0.6-3.7-0.4-4.7-1.4
	c0.8-1.5,2.7,1.1,5,0.4c0.4-0.8,0.6-1.8,0.7-2.9c-1.8-1.1-2.3-3.4-2.9-5.8c1.7,0.9,1.4,3.9,3.6,4.3c1.2-2.3,0.7-6.5,2.5-7.2
	c0,1.8-1.6,5.2-2.2,7.6c1.4,0.6,3.3,0.8,4.3,1.8c-0.9,1.6-2.6-0.9-4.3-0.7c-0.7,0.4-0.5,1.7-1.1,2.2c-0.3,1,1.7-0.3,1.4,0.7
	c0.1,1-0.9,1-1.8,1.1c-0.1,1.5-0.2,3.2-0.7,4.3c2.2,2,6.7,2,10.4,1.4C240.6,171,236.9,163.7,234,155.5z"/>
<path class="st6" d="M306.4,164.8c1.4,2,4.2,2.6,5.4,4.7c-1.4-5.5,1.5-9.4,3.6-13.3C311.7,156.9,309.3,162.1,306.4,164.8z"/>
<path class="st6" d="M217.1,159.8c-4.2,3.9-7,9.1-9,15.1c1.8,0.4,3.3,2.1,5.4,1.1c0.6-2.9,1-4.8,1.4-8.3c1.7,0.8,0,2.9,0.4,4.7
	c1.2,0.1,2.9-0.3,3.6,0.4c-0.3,1.3-2.6,0.5-4,0.7c0.3,1.6-0.5,2.2-0.4,3.6c2.3,0.1,3.8,1,6.1,1.1
	C222.2,170.8,219.4,164.6,217.1,159.8z"/>
<path class="st6" d="M294.9,165.5c-1.6,2.4-2.4,5.5-2.9,9c3.4-0.2,4,0.1,6.8-0.7C297.4,171.2,297.6,166.9,294.9,165.5z"/>
<path class="st6" d="M278,176c4-0.1,7.4-0.7,11.2-1.1c0.1-3.6-0.2-6.8-2.2-8.3C282.8,168.6,279.7,171.6,278,176z"/>
<path class="st6" d="M306,167c-1.8,1.5-2.8,3.9-3.2,6.8c3-0.3,5.8-0.9,9.4-0.7C310.8,170.3,308,169.1,306,167z"/>
<path class="st6" d="M249.9,167c-3.9,2.3-3.4,8.8-5,13.3c4.4,0.2,12.7-0.7,15.8-1.8c-0.5-2.5-0.8,1-2.5,0.4
	C255.8,174.5,253,170.6,249.9,167z"/>
<path class="st9" d="M372.6,194c0,1.7,1.2,2.2,1.1,4c17.9-0.4,22.4,17.5,23.8,33.8c1.2,14-5.5,25.3-5.8,36.4
	c8.5-7.1,6.3-20.9,9-32.8c2,1.8,1.3,6.4,1.1,9c-0.7,7.8-2.7,16.6-4,24.5c6.4-7.9,4.9-24.4,7.2-35.3c2.6,0.5,1.6,3.8,1.8,5.8
	c0.9,10.2,0.6,22.5-2.2,32c5.8-9,6.9-24,7.2-36.4c1.9-0.1,1.9,1.7,3.2,2.2c-0.6,3,0.7,5.7,0.7,8.6c0.1,8.3-3.6,16.2-4.7,23.8
	c4.3-6.5,5.1-15.3,5.8-24.1c0.5-7.1,2-14,0.4-20.2c-2.6-9.8-6.5-20-13.7-25.6C397.1,194.8,382.9,191,372.6,194z"/>
<path class="st6" d="M413.7,243.3c-0.7,0.8-0.5,3.8,0,4.7C414.6,246.9,413.8,244.5,413.7,243.3z"/>
<path class="st6" d="M134,336.2c0.1,4.8-1.3,9,1.8,11.5c0.7-4.2-0.3-6.7,0.4-11.2C135,336.8,135.1,335.9,134,336.2z"/>
<path class="st6" d="M182.9,344.8c1.1,0.3,1.1-0.6,2.2-0.4c0.1-2.3,1.5-7.1-2.2-7.9C180.9,338.2,182.7,342.3,182.9,344.8z"/>
<path class="st6" d="M180.4,336.5c-1.4,0-2.9,0-4.3,0c-0.1,3.9,0.7,7.6,5,7.9C180.9,341.8,180,339.8,180.4,336.5z"/>
<path class="st6" d="M315.4,337.3c0.6,3.6,0.6,7.8,4.7,7.9C320.2,340.8,321.2,334.7,315.4,337.3z"/>
<path class="st6" d="M139,336.9c-2.8,1.2-0.8,7.3-1.4,10.8c3.6-1.1,2.5-6.7,2.5-10.4C139.6,337.3,139.1,337.3,139,336.9z"/>
<path class="st6" d="M354.6,337.3c-0.5,0.5-1.7,0.2-2.2,0.7c0.2,1.8,0.4,3.7,1.1,5c1.5,0.1,1.8-1,2.5-1.8
	C356,339.5,355,338.7,354.6,337.3z"/>
<path class="st6" d="M321.9,337.3c0.2,2.6,0.5,5,0.4,7.9C326,345.3,326.2,336.8,321.9,337.3z"/>
<path class="st6" d="M350.7,338.7c-1.6-0.3-2,0.6-3.6,0.4c0.1,2,1.2,2.9,1.4,4.7c1.2,0.6,1.6-0.2,3.2,0
	C351.6,341.9,350.9,340.5,350.7,338.7z"/>
<path class="st8" d="M108,57.5c0.8,1,0.6,3,1.1,4.3c0.6-1.4-0.2-4.3-0.7-5.8c-1.4,1-1.4,3.4-2.2,5C107.4,60.5,107,58.3,108,57.5z"/>
<path class="st8" d="M109.5,62.2c-0.4,4.1-0.4,9-0.4,11.5C110.1,70.2,109.9,65.3,109.5,62.2z"/>
<path class="st8" d="M35,131.3c2.3-0.3,4.4-3,4-4.7C38.1,123.1,33,127.5,35,131.3z"/>
</svg>
