<?xml version="1.0" encoding="utf-8"?>
<!-- Generator: Adobe Illustrator 27.2.0, SVG Export Plug-In . SVG Version: 6.00 Build 0)  -->
<svg version="1.1" id="Layer_1" xmlns="http://www.w3.org/2000/svg" xmlns:xlink="http://www.w3.org/1999/xlink" x="0px" y="0px"
	 viewBox="0 0 292.7 317.3" style="enable-background:new 0 0 292.7 317.3;" xml:space="preserve">
<style type="text/css">
	.Arched_x0020_Green{fill:url(#SVGID_1_);stroke:#FFFFFF;stroke-width:0.25;stroke-miterlimit:1;}
	.st0{fill-rule:evenodd;clip-rule:evenodd;fill:#633E19;}
	.st1{fill-rule:evenodd;clip-rule:evenodd;fill:#C7B29A;}
	.st2{fill-rule:evenodd;clip-rule:evenodd;fill:#152443;}
	.st3{fill-rule:evenodd;clip-rule:evenodd;fill:#AFBEBE;}
	.st4{fill-rule:evenodd;clip-rule:evenodd;fill:#5991AF;}
	.st5{fill-rule:evenodd;clip-rule:evenodd;fill:#E2001A;}
	.st6{fill-rule:evenodd;clip-rule:evenodd;fill:#5D7A52;}
	.st7{fill-rule:evenodd;clip-rule:evenodd;fill:#7E906E;}
	.st8{fill-rule:evenodd;clip-rule:evenodd;fill:#BE0A26;}
	.st9{fill-rule:evenodd;clip-rule:evenodd;fill:#9EA98F;}
	.st10{fill-rule:evenodd;clip-rule:evenodd;fill:#999A99;}
	.st11{fill-rule:evenodd;clip-rule:evenodd;fill:#BEC4B2;}
	.st12{fill-rule:evenodd;clip-rule:evenodd;fill:#CBBB9D;}
	.st13{fill-rule:evenodd;clip-rule:evenodd;fill:#A99B8B;}
</style>
<linearGradient id="SVGID_1_" gradientUnits="userSpaceOnUse" x1="-282.9762" y1="454.6294" x2="-282.2691" y2="453.9223">
	<stop  offset="0" style="stop-color:#259E2E"/>
	<stop  offset="0.9831" style="stop-color:#1C381D"/>
</linearGradient>
<path class="st0" d="M212,51.5c-1.1,0.5-2.8-0.9-4.3-1.1c-3.1-3.3-2.3-9.3-6.5-12.2c-4.4-3-14.4-3.5-18.4,0.7
	c-0.7,3.4,8.8,8.6,8.6,11.9c-0.1,1-2.3,3.2-2.9,3.2c-3.3,0.2-4.1-5-6.1-8.6c-4.3-7.8-13.7-10.1-21.6-5c-4.1,2.6-6.1,8.6-9,13.7
	c-1.2,2.2-3.5,8.3-7.9,7.9c-2.7-0.2-3.1-2.7-4.7-4.7c0.2-6.5,1.3-14.5,6.1-19.8c0.9-1,2.7-1.7,4-2.9c3-2.8,5-6.4,8.6-8.3
	c2.5-1.3,6.2-2.8,8.6-3.2c3.8-0.6,6.9,1,10.1,1.4c5.3,0.7,9.5-0.6,13.3,0.4c3,0.7,6.7,2.9,9.4,5.8c1.4,1.5,1.4,3.1,2.9,4.7
	C205.8,39.1,214.9,42.5,212,51.5z"/>
<path class="st1" d="M205.2,63c-1.3,0.6-2.8,1.1-4,0c0-0.5,0.1-1-0.4-1.1c5.5-6.9-1.5-15.5-6.8-18.4c-1.7,0-2.3,1-4.3,0.7
	c-1.6-4.4,3-4.6,5-4c4.8,1.6,7.9,10.8,10.4,14.4c0.3,1.2,0.3,0.7-0.4,1.4c-0.3,1.2,1.5,0.5,1.1,1.8C206,59.9,205.5,61.4,205.2,63z"
	/>
<path class="st2" d="M177.5,46.4c2.7,7.2-2.9,17.4-9.4,20.9c-2.5,1.4-10.6,4.6-12.2,1.1c-1-2.1,2.7-11.3,4-13.3
	C163.4,49,172.6,46.8,177.5,46.4z M167.7,50.8c4,0.3,6,2.7,6.5,6.5c1.1-2,2.1-5.7,1.1-8.6C172.3,48.8,169.7,49.5,167.7,50.8z
	 M168.5,61.9c9.4-1.3-1.1-17.4-5.8-6.5c0.9,1.3,0.9,3.7,1.4,5.4C165.9,61.4,166.5,62.2,168.5,61.9z M158.7,67.7
	c4.1-0.3,8.8-2,9.7-4.3c-4.2,1.1-7.3-2.1-7.2-6.5C159.8,60.7,159.5,63.6,158.7,67.7z"/>
<path class="st3" d="M175.3,48.6c1,2.9,0,6.7-1.1,8.6c-0.5-3.8-2.5-6.1-6.5-6.5C169.7,49.5,172.3,48.8,175.3,48.6z"/>
<path class="st4" d="M164.1,60.8c-0.6-1.7-0.5-4.1-1.4-5.4c4.7-10.9,15.1,5.2,5.8,6.5C166.5,62.2,165.9,61.4,164.1,60.8z
	 M164.5,55.4c-0.5,4.1,3.5,5.2,6.1,3.2c0.1-1.7,0.1-3.4-0.7-4.3C167.6,55.6,167.1,55.4,164.5,55.4z"/>
<path class="st2" d="M169.9,54.4c0.8,0.9,0.8,2.6,0.7,4.3c-2.6,2-6.6,0.9-6.1-3.2C167.1,55.4,167.6,55.6,169.9,54.4z"/>
<path class="st3" d="M161.3,56.9c-0.1,4.4,3,7.6,7.2,6.5c-0.9,2.4-5.6,4-9.7,4.3C159.5,63.6,159.8,60.7,161.3,56.9z"/>
<path class="st2" d="M207.3,77.8c6.9,2,10.5,8.3,9.4,17.3c-1.8-0.6-0.8-2.6-1.1-4c-0.7-3.4-2.5-8-5-10.4
	C209.4,79.6,207.7,79.8,207.3,77.8z"/>
<path class="st2" d="M210.6,110.5c-1-1.9-0.2-6.2-0.4-8.6c-0.9-11.2-8.1-18.8-16.6-22.7C206.2,78.8,217.8,94.8,210.6,110.5z"/>
<path class="st5" d="M199.8,93.3c0.9,0.5-0.9,2.4-1.4,2.9c-1.4,1.2-4,2.3-6.1,3.6c-2.1,1.3-4.2,3.4-6.1,2.9
	C186.6,95.7,194.7,94.4,199.8,93.3z"/>
<path class="st5" d="M200.1,95c0.4-0.1,0.6,0.1,0.7,0.4c-1.8,3.1-5.2,12.3-9,11.9c-1.4-0.2-2.3-1.7-2.2-2.9c0.2-1.4,3.4-2.3,4.7-3.2
	C196.8,99.4,198.8,97.1,200.1,95z"/>
<path class="st1" d="M227.9,112c3.9,8.2,6,20.2,5.8,31.3c-3.2,1.1-8.1,1.2-11.9,0.7c-1.5-6.1-1.7-15.9-4-22.3
	C221.5,118.8,225.1,115.8,227.9,112z"/>
<path class="st6" d="M235.8,135.7c4.4,0.1,6.9,5.6,6.5,10.8c-0.7,8.9-7.8,17.4-15.1,18.4c0.7-4.8,0.8-13.8-2.5-16.9
	c2.4-1.5,5.5-2.2,9-2.5C236,143.9,237.5,139.1,235.8,135.7z"/>
<path class="st6" d="M217.8,136.5c1.8,2,0.7,7,2.5,9c-5,1.6-7,6.2-10.8,9C207.8,146.1,212.6,140,217.8,136.5z"/>
<path class="st6" d="M221.7,147.6c0.7,0,0.5,1,1.4,0.7c-2.5,5.7-6.8,9.6-7.6,16.9c-1.3-0.3-1.7-1.7-3.2-1.8
	C214.2,156.9,219.1,153.4,221.7,147.6z"/>
<path class="st7" d="M244.4,148c12.3,12.5,18.1,35.6,19.1,59c0.3,7.6,0.8,14.4,0.7,22.3c-0.2,18.1,2.7,33.5,2.5,51.1
	c-9.9,2.8-22.8,3.9-35.3,2.9c-1.6-0.1-10.1-3.1-10.4-1.8c0-0.1,1.2,0.2,0.4,0.4c-1.2,0.3-3.3-0.9-4.7-0.4
	c-0.8-9.8-1.8-22.9-2.2-35.3c12.7-10.1,24.9-20.7,33.5-34.9c2.2-14.5,7.8-33.4,0.7-46.1c-3.5,0.9-8.3,0.3-9.4,3.6
	c-7.3-4.1-12.6,7.8-15.1,15.8c-2.4,7.5-3.5,16.5-5.8,22c-1.2,2.7-3.2,5.9-5,6.8c0.4-15.3,2.4-29.3,3.6-43.6c0.6-7.4,4.3-13,7.2-18.4
	c1.4,4.2,1.6,11,1.1,15.1C235.8,166,242,157.9,244.4,148z M221.4,174.3c0.7-1.5,2-5.7,0.4-7.2C220.7,168.2,219.9,172.9,221.4,174.3z
	 M255.6,182.2c-1.1,3.1-0.9,10.4-1.1,13.3c-0.2,4-0.9,9,1.1,11.2c1.8-6.6,1.3-17.3,1.1-24.5C256.3,182.2,255.9,182.2,255.6,182.2z
	 M217.8,194.8c2-2.5,2.4-6.7,3.2-10.4c-0.5,0-0.5-0.5-1.1-0.4C218.1,186.5,216.8,191.6,217.8,194.8z M249.5,214.6c0.6,0,1.2,0,1.8,0
	c0.4-2.2-0.1-3.1,0.7-5c-0.7-0.2-0.9-0.8-1.8-0.7C249.6,210.4,249.8,212.7,249.5,214.6z M255.9,233.3c0.6-2.9,0.4-8.4,0.4-10.8
	c-0.4,0-0.7,0-1.1,0C254.8,224.3,253.1,231.9,255.9,233.3z M240.5,233.3c2.8,0.2,4.2-3.8,5.4-6.5c1.1-0.5,1.6-1.5,1.8-2.9
	C242.8,224.6,242.5,229.8,240.5,233.3z M222.8,242.6c-0.4,14.1,1.2,21.6,2.2,35.6c9.8,1.9,24.5,0.8,34.2-0.7
	c2.3-11.6-3-24.8,0.7-36.4C247.3,241.4,234.1,242.1,222.8,242.6z M261.3,264.3c0.5,0.6,2,0.1,2.5,0.7c-0.5-3.4,1.2-6,0.7-8.3
	C261.3,257,262.2,261.5,261.3,264.3z M217.8,270c1.4-1.8,0.4-6.1,1.8-7.9c-0.5,0-0.5-0.5-1.1-0.4C217.2,262.9,215.4,268.5,217.8,270
	z"/>
<path class="st8" d="M74.9,148.3c2.5-0.1,1.9,2.9,3.6,3.6c1-0.2,0.7-1.7,1.1-2.5c1.3,0.4,1.6,1.8,2.5,2.5c1.6,0.1,0.9-1.9,2.2-2.2
	c2.3-0.2,1.6,2.4,3.2,2.9c0.7-1.1,0.3-3.3,2.2-3.2c0.7,1.3,0.5,3.6,2.2,4c1.9-0.9,2.1-3.4,4.3-4c-0.7,8-14.3,5.5-20.9,3.6
	C74.1,152.1,73.7,149.5,74.9,148.3z"/>
<path class="st9" d="M209.1,157.7c0.4,0.4,0.7,1,1.8,0.7c-7.8,17.4-11.6,40.8-10.4,64.1c-4.7-0.2-5.6,0.8-10.1,0
	c0.8-4.3,0.3-8.5,0.4-13c0.1-14.2,4.9-29.7,10.4-39.6c2.7-4.8,4.6-9,7.6-12.2C208.9,157.7,209,157.7,209.1,157.7z M201.6,172.1
	c0.3,1,1.8,0.8,2.9,1.1C205.1,171,201.7,170.3,201.6,172.1z M203,181.4c-0.9-0.7-2.6-0.8-4.3-0.7C197.9,183,203,183.3,203,181.4z
	 M199.4,198.7c-0.7-3-1.8-5.6-4.3-6.8C196,194.6,196.6,199.1,199.4,198.7z M196.9,216.4c1.5-2.2-1.9-4.8-2.2-7.6c-0.4,0-0.7,0-1.1,0
	C193.6,211.1,194.5,215.3,196.9,216.4z"/>
<path class="st9" d="M76.3,165.6c-2.9-0.1-4.9,0.7-7.2,1.1c-0.2-1.1-0.8-1.8-2.2-1.8c-0.9,0.4,0.5,1.4,0.7,1.8
	c-1.4,0.6-3.3-1.3-5-1.4c0.3,1.4,1.6,1.7,2.9,2.2c-0.3,0.9-1.3,1.1-1.8,1.8c-1.3-0.4-1.8-1.5-3.2-1.8c-1.3,0.9,2.1,1.9,1.1,2.5
	c-1.8,0.3-2.6-0.5-4.3-0.4c2.1,1.8,6.1,0.8,7.6,2.5c1.3-0.4,0.8-2.6,1.4-3.6c1.8-0.6,0.8,1.6,2.2,1.4c1.1-0.6-0.5-2.2,0.4-2.5
	c0.4,0,0.7,0,1.1,0c1.2,0,0.7,1.7,1.4,2.2c1,0,0.7-1.5,0.7-2.5c1.3-0.5,3.3-0.3,4.7-0.7c-2.6,6.9-16.2,8.3-23,4.7
	C55.3,162.4,70.1,161.9,76.3,165.6z"/>
<path class="st2" d="M221.7,167.1c1.6,1.5,0.4,5.7-0.4,7.2C219.9,172.9,220.7,168.2,221.7,167.1z"/>
<path class="st6" d="M209.5,168.9c0.9,1.1,1.8,2.2,4.3,1.8c-0.7,6.7-2.3,12.6-2.5,19.8c-1.5-3.4-6.8-2.9-7.2,0.4
	c-0.4,3.2,3.8,5.1,7.2,3.6c-0.8,4.7-0.1,10.9-0.4,16.2c-1.5-1.1-2-3.3-4-4c-7.8,1.2-0.4,13.7,3.6,6.5c0.9,0.9-0.5,2.6,0,4.3
	c-3.1,1.3-5.3,3.4-8.6,4.3C201.4,202.5,203.4,183.4,209.5,168.9z"/>
<path class="st9" d="M133.9,226.8c2.6-5.2,6.2-9.4,6.8-16.6c2-0.2,4.2,2.7,6.8,4c4.7,2.4,11.7,4.8,19.1,6.5
	c8.3,1.9,14.6,7.1,24.8,6.1c5.9-0.5,13.9-2.2,18-5c0.7-0.5,1.5-1.6,2.2-2.2c3.3-2.5,5.9-5,8.3-9.7c3-6.1,4.9-12.8,6.8-19.8
	c1-3.5,1.6-7.7,2.9-10.4c2.1-4.4,7.1-5.6,9.7-10.1c0.3,0.2,0.6,0.4,1.1,0.4c0.2-0.5,0.6-0.9,1.1-1.1c1.5,0.8,3.1,1.5,5,1.8
	c2.4,3.7,3.6,9.9,3.2,16.9c-1.3,22.3-11.7,34.2-23.8,46.1c-4.7,4.6-15.7,13.4-21.6,13.3c-0.8,0-1.7-0.7-2.5-0.7
	c-0.9,0-1.6,0.8-2.5,0.7c-13.4-0.5-26.9-6-40.3-9.7c-1.7-0.5-3.4-0.3-5-0.7C146.5,234.3,140,229.4,133.9,226.8z M239.7,180.4
	c0.4,0.1,0.6,0.4,0.7,0.7c2.3-0.5,3.4-2.1,4.7-3.6C243.3,176,240.1,178.1,239.7,180.4z M235.1,190.4c0-1.5-0.2-5.7-1.8-6.8
	C232.1,185.2,232.6,190.2,235.1,190.4z M242.6,194.4c0.6-1.2,1.8-4.2,0-4.7C241.8,190.3,241.3,194,242.6,194.4z M234,202
	c-1.8,0.6-7.3,7.3-7.6,8.3c-0.2,0.7,0.3,1.9,0.4,2.5c3.6-3,6.5-6.6,9.4-10.4C235.7,202.1,234.9,201.7,234,202z M222.1,217.8
	c2.5-1.2,0.9-4.9,1.1-6.5C221.8,212.3,221.2,215.7,222.1,217.8z M229.3,218.5c-0.9,3.5-5.9,6.1-5,9c3.4-2.3,4.6-6.7,7.2-9.7
	C230.3,217.6,230.1,218.3,229.3,218.5z M146.9,223.9c2.3,0.3,1.8-3.8,1.8-4.7c-0.4,0-0.7,0-1.1,0
	C147.2,220.7,146.6,221.9,146.9,223.9z M171.7,226.1c-2.9-0.9-6-0.6-9-0.7C163.8,228.2,170.2,228.3,171.7,226.1z M208.4,228.6
	c1.6,2.4,7.2,0.2,7.9-1.8C213.3,225.6,211.8,229,208.4,228.6z M187.5,231.1c-1.2-0.9-3-1.3-4.3-2.2
	C181.8,230.8,186.6,233.9,187.5,231.1z M197.3,234.4c-1-1.6-1.2-4.1-3.2-4.7C192.8,230.9,194.8,235.7,197.3,234.4z M177.5,233.3
	c-0.6-1.5-1.3-3-3.2-3.2C174.2,232.1,175.4,234.5,177.5,233.3z M159.5,235.8c0-1.8-0.6-3-0.4-5c-0.4,0-0.7,0-1.1,0
	C157.6,232.3,157,236.1,159.5,235.8z M176.4,240.5c-1.6-2.4-2.8-5.2-5.4-6.5C171.3,236.1,173.2,241.3,176.4,240.5z M184.7,239.8
	c0.1-0.4,0.4-0.6,0.7-0.7c-1.2-1.6-1.6-4.2-4.3-4.3C181.7,236.9,182.5,239.1,184.7,239.8z M207.3,240.1c-1.2-1.7-2.7-3-5-3.6
	C202.8,238.7,205.2,241.9,207.3,240.1z"/>
<path class="st2" d="M204.5,173.2c-1.1-0.3-2.5-0.1-2.9-1.1C201.7,170.3,205.1,171,204.5,173.2z"/>
<path class="st2" d="M245.1,177.5c-1.3,1.5-2.4,3.1-4.7,3.6c-0.2-0.3-0.3-0.6-0.7-0.7C240.1,178.1,243.3,176,245.1,177.5z"/>
<path class="st10" d="M91.4,177.5c0.5,0.1,0.3,0.9,0.4,1.4c-1.3,0.7-2-0.1-2.9-0.7C89,177.2,91.4,178.5,91.4,177.5z"/>
<path class="st1" d="M89.3,180.7c0.4,0.7,4.4-1.1,4.3-3.2c7.2,1.4,14.1,2.1,17.6,6.5c4.8,5.8,7,14.8,12.2,19.8
	c-1.5,3.4-4.5,5.4-6.5,8.3c-3.3-1.7-7.1-3.5-11.5-2.2c-2.9,0.9-5.2,3.7-9.7,4c-6.3,0.4-11.2-2.5-16.2-6.5c2.2-3.1-1.1-4.5-2.2-6.5
	c4.4,1.5,5.4,10.1,12.2,6.8c-0.9-3.8-5.1-4.3-6.1-7.9c2.2,2,4.5,5.8,8.3,5c-2.7-4.4-8.9-5.3-8.6-12.6c2.4,5.4,6,9.6,13,10.4
	c-1.3-3.4-5.3-3-7.6-5.4c-2-2.2-2.7-5.1-4-8.3c1.6-1,2-3.7,1.8-5.4c4.1,3,2.1,6.2,4.7,10.1c1.4,2,4,3.3,6.1,3.2
	c4.3-0.1,9.7-5.7,9.4-9.7c-0.4-3.8-6.7-7.3-12.6-6.8c-2.5,0.2-7.1,2.8-7.6-1.4C87.7,177.7,89.7,180.3,89.3,180.7z"/>
<path class="st2" d="M198.7,180.7c1.7,0,3.4,0,4.3,0.7C203,183.3,197.9,183,198.7,180.7z"/>
<path class="st2" d="M256.7,182.2c0.2,7.2,0.7,17.9-1.1,24.5c-2-2.2-1.3-7.2-1.1-11.2c0.1-2.9,0-10.2,1.1-13.3
	C255.9,182.2,256.3,182.2,256.7,182.2z"/>
<path class="st10" d="M83.9,183.6c1.5,0,1.7,2.7,1.1,3.6C83.4,187.2,84,185,83.9,183.6z"/>
<path class="st2" d="M233.3,183.6c1.6,1.1,1.8,5.3,1.8,6.8C232.6,190.2,232.1,185.2,233.3,183.6z"/>
<path class="st2" d="M219.9,184c0.6-0.1,0.6,0.3,1.1,0.4c-0.8,3.7-1.2,7.9-3.2,10.4C216.8,191.6,218.1,186.5,219.9,184z"/>
<path class="st2" d="M242.6,189.7c1.8,0.4,0.6,3.5,0,4.7C241.3,194,241.8,190.3,242.6,189.7z"/>
<path class="st2" d="M195.1,191.9c2.5,1.2,3.6,3.8,4.3,6.8C196.6,199.1,196,194.6,195.1,191.9z"/>
<path class="st6" d="M129.2,226.8c-4.1-2.3-8.7-4.1-11.9-7.2c1.3-2.7,2.7-5.2,4-7.9c6.2-1.6,6.7-10.4,13.7-10.1
	C142.8,209.1,136.1,222,129.2,226.8z M135,211c-1-2.2-2-4.4-4.3-5.4C130,207.9,133,211.3,135,211z M124.5,210.6
	c1.4,1.2,2.7,2.6,5.4,2.5C129.5,211.3,126.1,209.1,124.5,210.6z M129.6,214.2c-8.5-3.9-7.9,12.3,1.8,7.9
	C133.2,219.5,131.8,215.2,129.6,214.2z"/>
<path class="st11" d="M188.6,201.6c0.4,6-2.4,12.3-1.8,20.5c-2.1-0.3-4.1-0.7-6.5-0.7C182.6,215.4,186.2,208.5,188.6,201.6z"/>
<path class="st2" d="M236.1,202.3c-2.8,3.8-5.8,7.4-9.4,10.4c0-0.6-0.6-1.8-0.4-2.5c0.3-1,5.8-7.7,7.6-8.3
	C234.9,201.7,235.7,202.1,236.1,202.3z"/>
<path class="st10" d="M77.7,203.4c0.7,0.5,1.6,0.8,1.4,2.2C78,205.6,77.8,204.5,77.7,203.4z"/>
<path class="st2" d="M130.7,205.6c2.3,1,3.3,3.2,4.3,5.4C133,211.3,130,207.9,130.7,205.6z"/>
<path class="st2" d="M193.7,208.8c0.4,0,0.7,0,1.1,0c0.3,2.7,3.6,5.4,2.2,7.6C194.5,215.3,193.6,211.1,193.7,208.8z"/>
<path class="st2" d="M250.2,208.8c0.9-0.1,1.1,0.6,1.8,0.7c-0.8,1.9-0.3,2.9-0.7,5c-0.6,0-1.2,0-1.8,0
	C249.8,212.7,249.6,210.4,250.2,208.8z"/>
<path class="st2" d="M129.9,213.1c-2.7,0-4-1.3-5.4-2.5C126.1,209.1,129.5,211.3,129.9,213.1z"/>
<path class="st2" d="M223.2,211.3c-0.1,1.6,1.4,5.3-1.1,6.5C221.2,215.7,221.8,212.3,223.2,211.3z"/>
<path class="st2" d="M131.4,222.1c-9.7,4.4-10.3-11.9-1.8-7.9C131.8,215.2,133.2,219.5,131.4,222.1z M129.6,220.3
	c1-1.5-0.2-3.3-0.7-4.3C123.5,214.7,125.8,222.9,129.6,220.3z"/>
<path class="st12" d="M128.9,216c0.6,1,1.7,2.9,0.7,4.3C125.8,222.9,123.5,214.7,128.9,216z M128.5,219.6c0.8-1,0.2-2.9-1.4-2.5
	C126.7,218,126.7,219.8,128.5,219.6z"/>
<path class="st2" d="M127.1,217.1c1.6-0.3,2.3,1.5,1.4,2.5C126.7,219.8,126.7,218,127.1,217.1z"/>
<path class="st2" d="M231.5,217.8c-2.6,3.1-3.8,7.5-7.2,9.7c-0.8-2.9,4.1-5.5,5-9C230.1,218.3,230.3,217.6,231.5,217.8z"/>
<path class="st2" d="M147.6,219.3c0.4,0,0.7,0,1.1,0c0,0.9,0.5,5-1.8,4.7C146.6,221.9,147.2,220.7,147.6,219.3z"/>
<path class="st2" d="M255.2,222.5c0.4,0,0.7,0,1.1,0c0,2.4,0.3,7.9-0.4,10.8C253.1,231.9,254.8,224.3,255.2,222.5z"/>
<path class="st2" d="M247.7,223.9c-0.2,1.4-0.7,2.4-1.8,2.9c-1.2,2.7-2.6,6.6-5.4,6.5C242.5,229.8,242.8,224.6,247.7,223.9z"/>
<path class="st2" d="M162.7,225.4c3,0.2,6.1-0.2,9,0.7C170.2,228.3,163.8,228.2,162.7,225.4z"/>
<path class="st2" d="M216.3,226.8c-0.8,2-6.3,4.2-7.9,1.8C211.8,229,213.3,225.6,216.3,226.8z"/>
<path class="st2" d="M183.2,229c1.3,0.9,3.1,1.2,4.3,2.2C186.6,233.9,181.8,230.8,183.2,229z"/>
<path class="st2" d="M194,229.7c2.1,0.6,2.2,3.1,3.2,4.7C194.8,235.7,192.8,230.9,194,229.7z"/>
<path class="st2" d="M174.2,230.1c1.9,0.2,2.6,1.7,3.2,3.2C175.4,234.5,174.2,232.1,174.2,230.1z"/>
<path class="st2" d="M158,230.8c0.4,0,0.7,0,1.1,0c-0.3,2.1,0.4,3.2,0.4,5C157,236.1,157.6,232.3,158,230.8z"/>
<path class="st2" d="M171,234c2.6,1.3,3.8,4.1,5.4,6.5C173.2,241.3,171.3,236.1,171,234z"/>
<path class="st2" d="M45,234.7c1.7-0.3,1.3,2.7,0,2.5c2.8,1.3-1,5.2-2.2,2.2c0.7,0,1.4,0,2.2,0c0.1-1.3-0.5-1.9-1.8-1.8
	C43.3,235.7,46.3,237.1,45,234.7z"/>
<path class="st2" d="M181.1,234.7c2.7,0.1,3.1,2.7,4.3,4.3c-0.3,0.2-0.6,0.3-0.7,0.7C182.5,239.1,181.7,236.9,181.1,234.7z"/>
<path class="st13" d="M89.3,236.2c5.4,1.9-0.2,7.3-2.2,9.4C86.9,242.9,88.6,239.1,89.3,236.2z"/>
<path class="st2" d="M63,236.5c0.8,1,1.6,2,2.2,3.2C63.8,239.2,61.5,237.8,63,236.5z"/>
<path class="st2" d="M70.9,236.5c0.9,1,1.8,2,2.2,3.6C71.6,239.7,70.8,238.5,70.9,236.5z"/>
<path class="st2" d="M202.3,236.5c2.3,0.6,3.8,1.9,5,3.6C205.2,241.9,202.8,238.7,202.3,236.5z"/>
<path class="st13" d="M51.8,240.5c1.6-0.2,2,0.6,2.9,1.1C54.5,242.8,51.8,241.8,51.8,240.5z"/>
<path class="st11" d="M185.7,247.3c0,1.9,0,3.8,0,5.8c-15.1,9.6-36.7,10.6-59.4,12.2c2.6-4.2,5.4-13.1,2.9-18
	c10.4-0.6,23.4-2.6,31.3-5.8C167.1,239,177.2,247.1,185.7,247.3z M172.1,249.1c-0.4-1.7-2.8-1.5-4.7-1.8
	C166.8,249.9,170.6,249.8,172.1,249.1z M149.4,248.4c0.6,2.4,2,4,4.3,4.7C154.1,251.3,151.6,247.7,149.4,248.4z M142.5,255.6
	c-1.7-0.9-2.3-3-4.7-3.2C137.9,254.6,141.3,258.1,142.5,255.6z M158.4,257.4c3-0.9,7-0.9,8.3-3.6
	C164.1,253.8,159.3,254.6,158.4,257.4z"/>
<path class="st2" d="M259.9,241.2c-3.7,11.6,1.6,24.8-0.7,36.4c-9.7,1.6-24.4,2.7-34.2,0.7c-1-14-2.6-21.5-2.2-35.6
	C234.1,242.1,247.3,241.4,259.9,241.2z M226.1,244.5c2.7,8.2,9.4,12.4,13.7,19.1c1.3-0.5,2.4-1.2,3.2-2.2c-6-0.1-7.6-5-7.2-10.4
	c2.3-2.2,5.1-0.6,9-0.7c2,1.6,1.9,5.1,2.5,7.2c2.4-4.7,5.6-8.6,7.6-13.7C245.2,243.2,236.7,245.4,226.1,244.5z M240.5,266.4
	c-6.1-4.4-9.4-11.5-14.8-16.6c1,8.1,0.9,17.4,1.4,25.9c9,1.8,19.8,0.5,29.5,0c2-7.6,0.8-19.2-0.7-26.6
	C252.1,256.2,246.7,261.7,240.5,266.4z M243,258.5c6.3-1.9-3.6-12.1-5-3.6c0.7,0.1,0.3,1.3,1.1,1.4c0.3-1.6-1.1-2.9,0.7-3.2
	c1.2,0.4,2.4,2.9,1.4,4.3c-1.1,0.5-1.8-1.2-2.2-0.4C240.3,257.8,241.2,259.1,243,258.5z"/>
<path class="st13" d="M49.7,241.9c1,0,1.7,0.8,1.1,1.4C49.8,243.5,49.6,242.9,49.7,241.9z"/>
<path class="st2" d="M71.6,242.6c0.5,1,0.5,2.4,1.8,2.5c0.3,1.6-1.2,1.5-1.4,2.5c-0.2,1.1,0.9,1,1.4,1.4c-0.2,1.4-2.5,0.9-2.5,2.5
	c0.6,0.7,2.2,0.5,2.5,1.4c-0.7,0.9-2.1,1-2.5,2.2c0,1.8,2.5,1.1,2.5,2.9c-0.5,0.8-1.7,0.9-2.5,1.4c0.1,1.9,2.7,1.4,2.2,4
	c-0.9,0.7-1.9,1.2-3.6,1.1c-0.1-1.7,2.3-0.9,2.9-1.8c-0.5-0.9-1.2-1.6-2.5-1.8c-0.3-2.1,1.1-2.5,2.5-2.9c-0.4-0.9-1.5-1.2-2.5-1.4
	c0-1.8,0.7-2.9,2.2-3.2c-0.5-0.7-2-0.4-2.2-1.4c0-1.4,0.7-2.1,2.2-2.2c-1.3-0.5-1.6-3.5,0.4-3.6c-0.3-1.2-0.8,0-1.4-0.7
	C70.7,244.1,71.2,243.4,71.6,242.6z"/>
<path class="st6" d="M254.9,243.7c-2,5.1-5.2,9-7.6,13.7c-0.6-2.1-0.5-5.6-2.5-7.2c-3.9,0.1-6.7-1.5-9,0.7
	c-0.4,5.4,1.2,10.4,7.2,10.4c-0.8,1-1.9,1.7-3.2,2.2c-4.3-6.7-11-10.8-13.7-19.1C236.7,245.4,245.2,243.2,254.9,243.7z"/>
<path class="st6" d="M213.8,281.5c-4-0.1-6.5,1.2-10.4,1.1c-1.3-7.5,0.6-14.9,0-23c1.3,0.7,3.2,0.9,5.4,0.7c4.2-4-1.2-8.8-5.8-8.6
	c0-0.6,0-1.2,0-1.8c2.5-1.4,6.4-1.5,9-2.9C212.4,259.8,213,270.1,213.8,281.5z M204.5,272.9c-0.1,3.1,0.6,5.4,2.2,6.8
	C215.4,280.4,209.1,268.6,204.5,272.9z"/>
<path class="st2" d="M167.4,247.3c1.9,0.3,4.3,0.1,4.7,1.8C170.6,249.8,166.8,249.9,167.4,247.3z"/>
<path class="st6" d="M125.6,258.9c-1.9-1.7-2.2-4.2-4.7-4.7c-8.3-1.5-9.9,11.6,0.7,9.7c-0.5,3.3-4.1,1.5-7.2,1.8
	c-2.4-4.2-4-11.1-1.8-16.9c4,0,8.1-2,11.5-0.7C128.3,249.6,127.5,255.4,125.6,258.9z"/>
<path class="st2" d="M153.7,253.1c-2.3-0.7-3.7-2.3-4.3-4.7C151.6,247.7,154.1,251.3,153.7,253.1z"/>
<path class="st9" d="M200.5,249.1c0.3,12.7-0.3,20.6,0.4,33.5c-3.1,0.7-6.8,0.9-9.7,0c-0.4-12.3-2.7-21.6-2.2-34.2
	C192.8,248,195.9,249.1,200.5,249.1z M196.5,254.2c0.2-2.2-2.5-4.4-4.7-5.4C191.9,250.8,193.2,254.2,196.5,254.2z M192.6,261
	c-0.4,2-0.4,4.4-0.4,6.8c1.4,0.2,1.7-0.7,2.5-1.1c-0.4-2.7,1.4-5,0.4-7.2c-0.4,0-0.7,0-1.1,0C194.2,261.1,193.7,261.6,192.6,261z"/>
<path class="st2" d="M191.9,248.8c2.2,1,4.8,3.2,4.7,5.4C193.2,254.2,191.9,250.8,191.9,248.8z"/>
<path class="st6" d="M255.9,249.1c1.5,7.4,2.7,19.1,0.7,26.6c-9.7,0.5-20.5,1.8-29.5,0c-0.6-8.6-0.4-17.8-1.4-25.9
	c5.4,5.1,8.7,12.2,14.8,16.6C246.7,261.7,252.1,256.2,255.9,249.1z"/>
<path class="st12" d="M61.5,250.6c0.5-0.7,3.1-0.5,2.9,0.7C63.5,252.1,62.8,250.5,61.5,250.6z"/>
<path class="st2" d="M137.9,252.4c2.4,0.3,2.9,2.3,4.7,3.2C141.3,258.1,137.9,254.6,137.9,252.4z"/>
<path class="st2" d="M166.7,253.8c-1.3,2.7-5.2,2.7-8.3,3.6C159.3,254.6,164.1,253.8,166.7,253.8z"/>
<path class="st2" d="M242.6,254.5c1.8-0.7,1.9,2.4,0.7,2.5C242.2,257,242.1,255.1,242.6,254.5z"/>
<path class="st12" d="M116.6,261c-0.3-0.8-0.7-2.5,0-3.2c0.8,0.3,0.1,2,0.4,2.9c0.6,0,0.8,0.4,1.4,0.4c1.4-0.9,0.6-3.6-0.7-4
	c2.6-2.1,5.4-0.4,4.7,3.6C121,262.2,118.3,262.2,116.6,261z M120.6,260.6c1.9-0.2,1.4-4.5-1.1-3.6
	C119.6,258.5,119,260.6,120.6,260.6z"/>
<path class="st2" d="M264.6,256.7c0.5,2.3-1.2,4.9-0.7,8.3c-0.5-0.6-2-0.1-2.5-0.7C262.2,261.5,261.3,257,264.6,256.7z"/>
<path class="st2" d="M119.5,257.1c2.5-0.9,2.9,3.3,1.1,3.6C119,260.6,119.6,258.5,119.5,257.1z"/>
<path class="st13" d="M39.9,258.1c0.4-1,1.9,0,2.5,0C41.9,259.8,41.1,258.6,39.9,258.1z"/>
<path class="st13" d="M95.7,258.1c-3,5.9-7.8,10-14.4,12.2C85.2,265.3,89.1,260.4,95.7,258.1z"/>
<path class="st2" d="M218.5,261.7c0.6-0.1,0.6,0.3,1.1,0.4c-1.4,1.8-0.4,6.1-1.8,7.9C215.4,268.5,217.2,262.9,218.5,261.7z"/>
<path class="st13" d="M39.9,268.6c0.1,1-0.9,1-1.8,1.1C38,268.6,39.3,268.9,39.9,268.6z"/>
<path class="st2" d="M206.6,279.7c-1.6-1.4-2.2-3.8-2.2-6.8C209.1,268.6,215.4,280.4,206.6,279.7z"/>
<path class="st2" d="M60.5,275.4c-0.7,1.1-0.7,1.4-0.4,2.9c-0.4,0.3-1,0.5-1.8,0.4c1.7,2.9-1.6,3.9,0,6.8c-1.6,0-3.8,1.1-5,0.4
	c0.2-1.3,2-1.1,3.6-1.1c-1.7-1.8-2.7-2.5-3.2-5c0.7-0.3,1.3-0.6,2.2-0.7c0.1-1.3-1.5-0.9-1.1-2.5c1.1-0.6,2.1,0,1.4-1.8
	c1.4-0.2,1.4,1,2.9,0.7c-0.4-0.8-1.8-0.6-1.8-1.8C58.6,272.7,59.6,274.7,60.5,275.4z M56.5,281.2c0.6-0.2,1.5-0.2,1.8-0.7
	C57.8,279.9,56.3,279.9,56.5,281.2z"/>
<path class="st13" d="M58.3,280.5c-0.3,0.5-1.2,0.5-1.8,0.7C56.3,279.9,57.8,279.9,58.3,280.5z"/>
<path class="st1" d="M189.3,45.4c0.8,0,3.5,0,4.3-1.1c3.8,3,10,7.3,8.6,13.7c-0.3,1.5-2.3,2.3-2.2,4c0.1,1.6,1.9,2.8,2.9,2.9
	c2.7,0.1,4.1-3.7,3.6-7.9c-0.6-4.7-8.2-18.4-14.8-17.6c-1.9,0.2-4.5,1.6-3.6,4.7c-1-1.7-2.9-2.6-3.2-5c3.1-1.4,6.6-1.6,10.8-1.1
	c7.3,3.4,6.6,16.6,16.6,16.2c5.2,10.1,15.6,24.7,16.9,40c1,12.1-5.3,26.1-18.7,27c-11.1,0.7-8.9-9.5-15.8-13.7
	c3.3-4.1,7.5-7.4,7.6-14.8c-6.6-1-14.4,2.8-17.6,7.6c-1.5-2.8-1.3-7.4-4-9c5.7-2.9,7.4-13.3-1.8-12.2c1.4,3,5.9,5.8,1.8,9.4
	c-1.1-1.6-5-2.8-6.1-0.4c-0.2,2.1,1.3,2.5,2.5,3.2c-1.8,1.6-3.3,3.5-6.1,4c-3.9-14.8-15.1-22.3-23.8-32.4c6.5-2.3,7.1-12.5,11.2-18
	c2-2.7,7.1-5.8,11.5-5.8c10.1,0.2,11.3,11.3,16.9,16.9c1.9-0.1,2.1,0.4,3.6,0c1.5-1.1,1.8-3.4,3.2-4.7
	C192.9,48.6,190.9,47.2,189.3,45.4z M159.8,55.1c-1.2,2.1-4.9,11.2-4,13.3c1.6,3.5,9.7,0.3,12.2-1.1c6.5-3.5,12.1-13.6,9.4-20.9
	C172.6,46.8,163.4,49,159.8,55.1z M210.6,80.6c2.6,2.4,4.3,7,5,10.4c0.3,1.4-0.7,3.3,1.1,4c1.1-8.9-2.4-15.3-9.4-17.3
	C207.7,79.8,209.4,79.6,210.6,80.6z M193.7,79.2c8.4,3.9,15.7,11.5,16.6,22.7c0.2,2.5-0.6,6.7,0.4,8.6
	C217.8,94.8,206.2,78.8,193.7,79.2z"/>
<path class="st2" d="M212.7,52.9c7.2,8.9,17.3,26.1,18.4,42.1c0.3,5.1,0.7,10.9-1.8,14c3.2,6.4,4.3,14.9,5.8,23
	c2.6,2.2,5.2,3.2,7.2,5.8c1.6,2,1.2,4.4,2.2,6.8c1.1,2.9,4.7,4.1,6.8,6.8c2.9,3.7,7.2,12.2,9,17.3c1.5,4.1,2.6,9.5,3.2,13.7
	c2.4,15.6,2.3,33.6,3.6,50c1.3,17,4.4,34.4,2.5,50.8c-13.8,1.2-27,2.9-40.7,2.9c-2.6,0-5-0.9-7.6-1.1c-3.3-0.2-6.7,0.6-10.1,0.7
	c-2.8,0.1-5.4-0.6-8.3-0.4c-4.3,0.4-9.8,2.7-15.1,1.8c-0.8-7.8-1.8-20.2-1.8-31c-11.4,6-31.5,8.9-49.7,10.4c-3.8,0.3-7.1,2-10.4,2.2
	c-5.4,0.3-9.9,0.6-14.4-1.1c-4.4,4.6-5.1,10.9-5.4,18.7c-1.8,2.4-4.8,2-7.6,2.5c-6.6,1.4-12.7,3.1-21.2,3.2c-4.1,0.1-8.5-0.8-13-1.1
	c-12.4-0.6-23.3-0.9-33.1-3.6c-4.3-17.1,2.7-37.9,7.2-54.4c2.8-2.6,7.1-1.9,12.6-2.2c10.3-0.5,22.4-2.8,33.8-1.4
	c0.6-2.6,6.2-4.2,5,1.1c5.5-1,11.8,0.2,15.8,1.8c1.2,4.8,0.3,8.8,0,14.8c1.6,0.7,4.1,0.9,5-0.7c14.9-1.7,33.8-1.5,49-6.1
	c-9.3-3.6-19-6.7-26.3-12.2c-3.2,2.4-8.2-1-12.2-3.2c-5-2.8-8.9-5.8-5.4-11.5c-2.3-1.5-5.2-2.7-8.6-2.2c-3.4,0.5-6.3,3.8-9.7,4.3
	c-7.8,1.2-14.8-2-18.7-6.5c-1.7-1.9-4.6-6.8-2.9-10.1c6.1-1.5,5.5,6.5,10.4,7.2c-2.5-2.9-5.1-6-5-12.6c0-1.4,0.9-2.6,1.1-4.3
	c0.4-3.1-0.8-6.5,1.1-8.3c-2.6-3.3-5.7-6.1-6.1-11.5c-5.5,5.1-18.4,8.2-25.2,2.2c1.8-3.6,2.6-8.4,6.1-10.1
	c4.5-2.2,14.5,1.2,19.1,2.5c-0.1-2.9-0.1-5.9,0.7-7.9c-3.1-1.2-7.3-5.5-4.3-9.4c2.8-0.5,2.9,1.7,4.3,2.5c2.4-2.9,4.7,2,6.5-1.4
	c1.3,0.1,1.6,1.2,2.2,2.2c1.2-0.5,1-2.4,2.9-2.2c1.6-0.3,1.2,1.4,2.2,1.8c2.1-0.5,3.8-2.7,5.8-2.2c1.7,10.5-8.7,9.3-18,8.6
	c-2.3,8.6-1.4,17.9,4,23c3.9-5.5,19.3-3.6,25.2-0.4c8.2,4.5,9.9,17,15.5,22.3c4.2-6.3,17.6-2.5,16.6,5.8c9.4,7.5,22.3,11.6,36.7,14
	c2-4,4.7-8.4,6.8-13c2-4.2,4.7-9.2,5.8-13.7c0.7-2.9,0.6-5.9,1.1-8.6c1.4-7.5,3.4-16.3,7.9-22.3c2.6-3.5,5.6-5.9,8.3-9.7
	c-2.4-10.4,4.2-16.2,10.8-19.8c-0.2-4.6-0.8-8.8-2.5-11.9c-4.3,2-10.8,2.3-13.7-0.4c-3.7-3.5-4.1-11-7.9-13.7c-1.7,0.6-3,0.1-4.3,0
	c-1.1-0.6-1-2.4-1.4-3.6c-7.4,0.6-5.2-8.2-8.3-11.9c-2.5,0.5-4.3,4.8-9,4.3c-4.5-4.9-5.7-11.1-9.4-16.2
	c-4.6-6.5-12.3-10.2-16.2-17.3c-1.6,0.2-2.7-0.2-4-0.4c-1.3-1.5-2.7-2.9-3.6-4.7c0-6.5-0.1-12.8,2.5-17.6c2-3.7,5.9-5.8,9.4-9
	c2.2-2,3.7-5.4,5.8-6.8c4.6-3.2,11.6-3.9,18.7-3.2c9.4,0.9,20.1,0.1,25.9,5.8c1,0.9,1.1,2.6,2.2,4c2.3,3,6.8,5,8.6,7.6
	C213.4,42.3,216.1,48.8,212.7,52.9z M202.3,35.3c-1.4-1.6-1.5-3.2-2.9-4.7c-2.6-2.9-6.3-5-9.4-5.8c-3.8-0.9-8,0.3-13.3-0.4
	c-3.2-0.4-6.3-2-10.1-1.4c-2.5,0.4-6.2,1.9-8.6,3.2c-3.7,1.9-5.6,5.5-8.6,8.3c-1.3,1.2-3,1.9-4,2.9c-4.8,5.3-5.9,13.3-6.1,19.8
	c1.6,2,2,4.4,4.7,4.7c4.4,0.4,6.7-5.8,7.9-7.9c2.9-5.1,4.9-11,9-13.7c7.9-5,17.3-2.7,21.6,5c2,3.6,2.9,8.8,6.1,8.6
	c0.6,0,2.8-2.2,2.9-3.2c0.2-3.2-9.4-8.5-8.6-11.9c4-4.2,14-3.8,18.4-0.7c4.2,2.9,3.4,9,6.5,12.2c1.5,0.2,3.3,1.6,4.3,1.1
	C214.9,42.5,205.8,39.1,202.3,35.3z M193.7,51.1c-1.4,1.2-1.7,3.6-3.2,4.7c-1.5,0.4-1.7-0.1-3.6,0c-5.6-5.6-6.9-16.7-16.9-16.9
	c-4.4-0.1-9.5,3-11.5,5.8c-4,5.5-4.7,15.7-11.2,18c8.6,10.1,19.8,17.6,23.8,32.4c2.9-0.5,4.4-2.4,6.1-4c-1.2-0.7-2.7-1.1-2.5-3.2
	c1.1-2.5,5-1.2,6.1,0.4c4.1-3.5-0.4-6.3-1.8-9.4c9.2-1.1,7.5,9.4,1.8,12.2c2.7,1.6,2.5,6.2,4,9c3.3-4.7,11.1-8.5,17.6-7.6
	c-0.1,7.3-4.2,10.6-7.6,14.8c7,4.2,4.8,14.4,15.8,13.7c13.4-0.9,19.8-14.9,18.7-27c-1.3-15.2-11.7-29.8-16.9-40
	c-9.9,0.4-9.2-12.8-16.6-16.2c-4.2-0.5-7.7-0.3-10.8,1.1c0.3,2.4,2.2,3.3,3.2,5c-0.9-3.1,1.7-4.5,3.6-4.7c6.6-0.8,14.2,13,14.8,17.6
	c0.5,4.2-0.9,8-3.6,7.9c-1,0-2.7-1.3-2.9-2.9c-0.1-1.6,1.9-2.5,2.2-4c1.3-6.3-4.9-10.7-8.6-13.7c-0.8,1.1-3.5,1-4.3,1.1
	C190.9,47.2,192.9,48.6,193.7,51.1z M205.9,58c0.4-1.3-1.3-0.6-1.1-1.8c0.7-0.7,0.7-0.3,0.4-1.4c-2.6-3.6-5.6-12.8-10.4-14.4
	c-2.1-0.7-6.7-0.4-5,4c2,0.3,2.7-0.7,4.3-0.7c5.3,2.8,12.3,11.4,6.8,18.4c0.4,0.1,0.4,0.6,0.4,1.1c1.1,1.1,2.7,0.6,4,0
	C205.5,61.4,206,59.9,205.9,58z M186.1,102.6c1.9,0.5,4-1.5,6.1-2.9c2.1-1.3,4.8-2.4,6.1-3.6c0.5-0.5,2.3-2.4,1.4-2.9
	C194.7,94.4,186.6,95.7,186.1,102.6z M194.4,101.2c-1.3,0.9-4.5,1.9-4.7,3.2c-0.2,1.2,0.7,2.7,2.2,2.9c3.8,0.5,7.2-8.7,9-11.9
	c-0.1-0.3-0.3-0.4-0.7-0.4C198.8,97.1,196.8,99.4,194.4,101.2z M217.8,121.7c2.3,6.4,2.4,16.2,4,22.3c3.7,0.5,8.7,0.4,11.9-0.7
	c0.2-11.1-1.8-23.1-5.8-31.3C225.1,115.8,221.5,118.8,217.8,121.7z M233.6,145.5c-3.5,0.3-6.6,1.1-9,2.5c3.3,3.1,3.2,12.1,2.5,16.9
	c7.3-1,14.5-9.4,15.1-18.4c0.4-5.2-2.1-10.7-6.5-10.8C237.5,139.1,236,143.9,233.6,145.5z M209.5,154.5c3.8-2.8,5.8-7.4,10.8-9
	c-1.8-2-0.7-7-2.5-9C212.6,140,207.8,146.1,209.5,154.5z M212.4,163.4c1.6,0.1,1.9,1.5,3.2,1.8c0.8-7.4,5.1-11.3,7.6-16.9
	c-1,0.3-0.7-0.7-1.4-0.7C219.1,153.4,214.2,156.9,212.4,163.4z M225.3,166.7c0.5-4.1,0.3-10.9-1.1-15.1c-2.9,5.3-6.6,11-7.2,18.4
	c-1.2,14.3-3.2,28.3-3.6,43.6c1.8-1,3.9-4.1,5-6.8c2.3-5.5,3.4-14.4,5.8-22c2.6-8.1,7.9-19.9,15.1-15.8c1.1-3.3,5.9-2.7,9.4-3.6
	c7.1,12.7,1.5,31.6-0.7,46.1c-8.6,14.2-20.7,24.9-33.5,34.9c0.3,12.3,1.4,25.4,2.2,35.3c1.4-0.5,3.4,0.6,4.7,0.4
	c0.8-0.2-0.3-0.4-0.4-0.4c0.4-1.3,8.9,1.7,10.4,1.8c12.4,1,25.3-0.1,35.3-2.9c0.1-17.6-2.8-33.1-2.5-51.1c0.1-8-0.4-14.7-0.7-22.3
	c-1-23.4-6.8-46.5-19.1-59C242,157.9,235.8,166,225.3,166.7z M75.2,153c6.6,1.9,20.2,4.4,20.9-3.6c-2.2,0.6-2.4,3.1-4.3,4
	c-1.7-0.4-1.4-2.7-2.2-4c-1.8,0-1.4,2.2-2.2,3.2c-1.6-0.4-1-3.1-3.2-2.9c-1.2,0.2-0.6,2.3-2.2,2.2c-0.9-0.7-1.3-2.1-2.5-2.5
	c-0.4,0.8-0.1,2.3-1.1,2.5c-1.7-0.7-1.1-3.7-3.6-3.6C73.7,149.5,74.1,152.1,75.2,153z M208.8,157.7c-3,3.2-4.8,7.4-7.6,12.2
	c-5.6,9.9-10.4,25.4-10.4,39.6c0,4.4,0.5,8.6-0.4,13c4.5,0.8,5.4-0.2,10.1,0c-1.2-23.3,2.7-46.7,10.4-64.1c-1.1,0.3-1.4-0.3-1.8-0.7
	C209,157.7,208.9,157.7,208.8,157.7z M53.6,171c6.8,3.7,20.4,2.2,23-4.7c-1.4,0.4-3.4,0.2-4.7,0.7c-0.1,1,0.3,2.5-0.7,2.5
	c-0.7-0.5-0.2-2.2-1.4-2.2c-0.4,0-0.7,0-1.1,0c-0.8,0.4,0.8,2-0.4,2.5c-1.3,0.1-0.3-2.1-2.2-1.4c-0.7,1-0.2,3.2-1.4,3.6
	c-1.5-1.7-5.4-0.7-7.6-2.5c1.7-0.1,2.5,0.6,4.3,0.4c1-0.6-2.4-1.6-1.1-2.5c1.4,0.3,2,1.4,3.2,1.8c0.5-0.7,1.5-0.9,1.8-1.8
	c-1.3-0.4-2.6-0.8-2.9-2.2c1.7,0.2,3.7,2.1,5,1.4c-0.2-0.4-1.7-1.4-0.7-1.8c1.4,0,1.9,0.7,2.2,1.8c2.3-0.4,4.3-1.2,7.2-1.1
	C70.1,161.9,55.3,162.4,53.6,171z M201.9,221.8c3.4-1,5.6-3.1,8.6-4.3c-0.5-1.7,0.9-3.4,0-4.3c-4,7.3-11.4-5.3-3.6-6.5
	c2,0.6,2.5,2.8,4,4c0.2-5.3-0.4-11.5,0.4-16.2c-3.4,1.5-7.6-0.4-7.2-3.6c0.4-3.2,5.7-3.8,7.2-0.4c0.2-7.2,1.8-13.1,2.5-19.8
	c-2.5,0.4-3.4-0.7-4.3-1.8C203.4,183.4,201.4,202.5,201.9,221.8z M154.1,236.5c1.6,0.5,3.4,0.3,5,0.7c13.4,3.7,26.9,9.2,40.3,9.7
	c0.9,0,1.7-0.7,2.5-0.7c0.8,0,1.7,0.7,2.5,0.7c5.9,0,16.9-8.7,21.6-13.3c12.1-11.9,22.5-23.7,23.8-46.1c0.4-7-0.9-13.2-3.2-16.9
	c-2-0.3-3.6-1-5-1.8c-0.5,0.2-0.9,0.6-1.1,1.1c-0.5,0-0.8-0.2-1.1-0.4c-2.6,4.5-7.7,5.7-9.7,10.1c-1.3,2.8-1.9,6.9-2.9,10.4
	c-2,7-3.8,13.7-6.8,19.8c-2.4,4.7-4.9,7.3-8.3,9.7c-0.7,0.5-1.4,1.7-2.2,2.2c-4.1,2.9-12.1,4.5-18,5c-10.2,0.9-16.5-4.2-24.8-6.1
	c-7.4-1.7-14.4-4.1-19.1-6.5c-2.6-1.3-4.8-4.2-6.8-4c-0.6,7.2-4.2,11.4-6.8,16.6C140,229.4,146.5,234.3,154.1,236.5z M88.9,178.2
	c0.9,0.6,1.6,1.4,2.9,0.7c-0.1-0.5,0.1-1.3-0.4-1.4C91.4,178.5,89,177.2,88.9,178.2z M86.4,178.9c0.5,4.2,5.1,1.6,7.6,1.4
	c5.9-0.5,12.2,3,12.6,6.8c0.4,4-5.1,9.6-9.4,9.7c-2.1,0-4.8-1.2-6.1-3.2c-2.6-3.8-0.6-7.1-4.7-10.1c0.2,1.7-0.2,4.4-1.8,5.4
	c1.2,3.2,1.9,6.1,4,8.3c2.2,2.4,6.3,2,7.6,5.4c-7-0.8-10.6-5-13-10.4c-0.3,7.3,5.9,8.2,8.6,12.6c-3.8,0.7-6.1-3-8.3-5
	c1,3.7,5.2,4.2,6.1,7.9c-6.8,3.3-7.8-5.4-12.2-6.8c1.1,1.9,4.3,3.4,2.2,6.5c5,4,9.9,6.9,16.2,6.5c4.5-0.3,6.8-3.1,9.7-4
	c4.4-1.3,8.2,0.5,11.5,2.2c2-2.9,5-4.9,6.5-8.3c-5.3-5-7.5-14-12.2-19.8c-3.6-4.4-10.4-5-17.6-6.5c0.1,2.2-3.9,4-4.3,3.2
	C89.7,180.3,87.7,177.7,86.4,178.9z M97.2,192.3c-2.9-1.9-2.9-6.7-6.8-7.6c1.4,3.7,1.5,9.3,5.4,9.7c2.7,0.3,8.9-4,8.6-6.8
	c-2.3-3.4-8.8-4.4-13.3-4.3C93.8,185.2,98.4,188.7,97.2,192.3z M84.9,187.2c0.6-0.9,0.4-3.6-1.1-3.6C84,185,83.4,187.2,84.9,187.2z
	 M135,201.6c-7-0.3-7.5,8.5-13.7,10.1c-1.3,2.7-2.7,5.2-4,7.9c3.2,3.1,7.8,4.9,11.9,7.2C136.1,222,142.8,209.1,135,201.6z
	 M180.3,221.4c2.4,0,4.3,0.5,6.5,0.7c-0.6-8.2,2.2-14.5,1.8-20.5C186.2,208.5,182.6,215.4,180.3,221.4z M79.2,205.6
	c0.2-1.4-0.8-1.6-1.4-2.2C77.8,204.5,78,205.6,79.2,205.6z M70.5,231.1c-9.3-0.3-22.8,2.4-31,3.6c-3.6,15.8-10.8,32.3-6.8,51.5
	c23.1,4.3,51.1,6.8,72-0.4c-0.2-2.3,0.5-5.5-0.4-7.2c-2.6,2.2-6.8,7.4-11.2,4.3c-1.1-2.6,3.4-3.2,1.8-4c-2.8,1.2-5.2,2.7-8.3,2.2
	c-3-0.5-4.4-3.9-7.2-4c-1.5,4.3-2.5,9.2-6.5,11.2c-0.2-4-0.7-8.1,0.4-11.5c-7.4,0.6-2.3-6.1,2.2-5c3.4-13.1,6.1-28.7,9.7-40.3
	C81.8,233,75.7,231.3,70.5,231.1z M85.3,252c0.3,2.2-0.6,3.2-0.7,5c4.6-5,10.2-9,19.4-9.4c-0.3-4.8,0.6-8.5,0.4-13.3
	c-3.7-2.5-10.5-1.9-14.8-2.2c0.6,3.2,3.7,2.3,4.3,5c1,4.7-4.4,9.3-6.8,11.9c0.1,1.6,2.6,2.3,1.8,3.6C87.4,252.8,87,251.8,85.3,252z
	 M87.1,245.5c2-2,7.5-7.4,2.2-9.4C88.6,239.1,86.9,242.9,87.1,245.5z M160.5,241.6c-7.9,3.1-20.9,5.1-31.3,5.8
	c2.5,4.9-0.2,13.8-2.9,18c22.7-1.6,44.3-2.7,59.4-12.2c0-1.9,0-3.8,0-5.8C177.2,247.1,167.1,239,160.5,241.6z M212,247
	c-2.6,1.4-6.5,1.5-9,2.9c0,0.6,0,1.2,0,1.8c4.5-0.1,9.9,4.6,5.8,8.6c-2.2,0.1-4.1,0-5.4-0.7c0.6,8.1-1.3,15.5,0,23
	c4,0.1,6.5-1.2,10.4-1.1C213,270.1,212.4,259.8,212,247z M124.2,248.1c-3.4-1.2-7.5,0.7-11.5,0.7c-2.2,5.8-0.6,12.7,1.8,16.9
	c3.1-0.3,6.7,1.5,7.2-1.8c-10.7,1.9-9-11.2-0.7-9.7c2.5,0.4,2.8,2.9,4.7,4.7C127.5,255.4,128.3,249.6,124.2,248.1z M189,248.4
	c-0.5,12.6,1.7,21.9,2.2,34.2c2.9,0.9,6.6,0.7,9.7,0c-0.7-12.9-0.1-20.8-0.4-33.5C195.9,249.1,192.8,248,189,248.4z M111.2,267.1
	c-2.8-3.7-1.6-11.6-1.4-17.3c-14.6-1.9-24.4,6.1-27,16.2c2.7-3,11.6-13.7,15.1-8.3c-3.7,7.6-10.2,12.4-18.4,15.5
	c-2.8-0.4-6.6-0.7-7.9,1.4c6.7,0.5,14.8-0.8,18-5c4.6,1,6.8-5.2,10.1-5.4c-2.4,6.9-10.3,8.2-16.2,11.5c9.8,1.2,12.1-7.1,17.6-9
	c0.6,2.6-2.5,3.5-4.3,5c-3.6,3.1-5.9,6.6-12.2,6.5c8.6,2.9,13.1-4,18.7-6.5c0.4,5.2-5.7,7-8.3,10.4c4.5-0.2,9.1-5.3,10.4-8.6
	c-0.3,0.6-0.8,1.1-1.4,1.4C106.6,272.6,108.3,269.2,111.2,267.1z M122.4,260.6c0.7-4-2.1-5.7-4.7-3.6c1.3,0.3,2.1,3.1,0.7,4
	c-0.7,0.1-0.8-0.4-1.4-0.4c-0.2-0.9,0.5-2.6-0.4-2.9c-0.7,0.8-0.3,2.4,0,3.2C118.3,262.2,121,262.2,122.4,260.6z M81.3,270.4
	c6.6-2.2,11.4-6.4,14.4-12.2C89.1,260.4,85.2,265.3,81.3,270.4z"/>
<path class="st13" d="M88.9,252.7c0.8-1.3-1.7-2-1.8-3.6c2.5-2.6,7.8-7.2,6.8-11.9c-0.6-2.8-3.7-1.9-4.3-5
	c4.3,0.2,11.1-0.3,14.8,2.2c0.2,4.8-0.6,8.5-0.4,13.3c-9.2,0.4-14.8,4.4-19.4,9.4c0.1-1.8,1-2.8,0.7-5
	C87,251.8,87.4,252.8,88.9,252.7z"/>
<path class="st13" d="M85.3,231.5c-3.6,11.6-6.3,27.3-9.7,40.3c-4.4-1-9.6,5.6-2.2,5c-1.1,3.4-0.6,7.6-0.4,11.5
	c4-1.9,4.9-6.8,6.5-11.2c2.8,0.1,4.2,3.5,7.2,4c3.1,0.5,5.5-0.9,8.3-2.2c1.6,0.8-2.9,1.3-1.8,4c4.3,3.1,8.6-2.1,11.2-4.3
	c0.8,1.7,0.1,4.9,0.4,7.2c-20.9,7.1-48.9,4.7-72,0.4c-4-19.2,3.2-35.7,6.8-51.5c8.2-1.2,21.6-3.9,31-3.6
	C75.7,231.3,81.8,233,85.3,231.5z M43.2,237.6c1.3-0.1,1.9,0.5,1.8,1.8c-0.7,0-1.4,0-2.2,0c1.1,3,5-0.8,2.2-2.2
	c1.3,0.2,1.7-2.8,0-2.5C46.3,237.1,43.3,235.7,43.2,237.6z M54.3,237.3c-1.3-0.4-2.2-1.1-4-1.1c-0.3,1.8-1.2,0.7-1.8,2.2
	c0.5,0.4,1.5,0.4,1.8,1.1c-0.9,0-1.9,0.1-1.8,1.1c1,1.9,0.5,3.5,0.4,5c2.8-0.8,4.4,1.2,6.1,2.5c-1.4,0.6-4.1,0-5.4,0.7
	c-0.4,1.8,1.5,1.4,1.8,2.5c-1-0.3-0.9,0.5-1.8,0.4c0.4,1.7-0.5,2.2-0.7,3.2c0.4,0.5,1,0.9,1.1,1.8c-0.7-0.1-0.8,0.4-1.4,0.4
	c-0.5,2.3,1.2,2.4,1.4,4c-1.1-0.3-1.1,0.6-2.2,0.4c-0.4,1.7,0.6,2,1.1,2.9c-1.7,0.5-2.8,1.5-2.9,3.6c1.2,0.9,2.8,1.5,3.2,3.2
	c-0.8-0.1-1.5-0.7-2.2,0c-0.3,1.1,1,0.7,0.7,1.8c1.3-0.6,3.2-0.7,4.3-1.4c-0.2-1.5-1.7-1.7-2.2-2.9c1.1,0.2,1-0.9,1.4-1.4
	c-0.5-0.4-1.3-0.3-1.4-1.1c0.9-0.2,1.9-0.3,1.8-1.4c-0.2-1-1.5-0.9-1.4-2.2c1.1,0,1.4-0.8,2.2-1.1c-0.4-1-0.8-1.8-1.1-2.9
	c0.7,0.1,0.8-0.4,1.4-0.4c-0.9-4,2.1-5.2,0-8.3c0.4-1.3,2.3-1,3.2-1.8c-3.3-2.7-6.2-4.2-0.4-5.8c-0.5-1.7-1.8-1.4-1.1-3.6
	c-1.2-0.6-3.6,0-4-1.4c1.3-0.8,2.6,1.1,4.7,0.7c0.2-1.7-1.4-3.4-2.5-2.5C53.5,235.9,54.3,236.2,54.3,237.3z M65.1,239.8
	c-0.5-1.3-1.4-2.2-2.2-3.2C61.5,237.8,63.8,239.2,65.1,239.8z M73.1,240.1c-0.3-1.6-1.3-2.6-2.2-3.6
	C70.8,238.5,71.6,239.7,73.1,240.1z M60.8,241.6c0.5,1.3,2.1,1.5,2.5,2.9c-0.6,1.2-2.5,1.1-3.2,2.2c-0.4,1.3,0.9,1,0.7,2.2
	c-0.9,0-1.4,0.5-1.4,1.4c0.2,0.8,1.2,1,1.4,1.8c-1.2,0-1.3,1.1-1.8,1.8c0.4,1.2,2,1.1,2.2,2.5c-1.1-0.3-1.1,0.6-2.2,0.4
	c-0.3,1.4,0.9,1.3,1.1,2.2c-1.1-0.2-1.5,0.4-1.8,1.1c0.7,1.4,1.7,2.7,2.2,4.3c-0.4-0.3-1-0.5-1.8-0.4c-0.4,0.8-0.8,3.6,1.4,3.6
	c0.5-0.9-1.4-1.1-0.4-1.4c1,0,1.9,0,2.9,0c1.6-2-1.4-4-1.1-4.7c1.2-0.1,3.1,0.5,2.9-1.1c-0.3-0.6-1.3-0.6-1.4-1.4
	c1.1-0.5,1.3-1.8,1.8-2.9c-1.1-0.7-2.7-0.9-2.9-2.5c0.8,0,1.7,0,2.5,0c1.6-2.9,0-5-2.2-6.1c1.4-0.4,1.3-2.3,1.8-3.6
	c-2-1.1-2.3-2.8-2.5-4C61.4,240.5,60.5,240.4,60.8,241.6z M70.9,245.5c0.6,0.7,1.1-0.5,1.4,0.7c-1.9,0.1-1.7,3.1-0.4,3.6
	c-1.4,0-2.1,0.7-2.2,2.2c0.1,1.1,1.7,0.7,2.2,1.4c-1.4,0.4-2.2,1.4-2.2,3.2c1,0.3,2.1,0.6,2.5,1.4c-1.5,0.3-2.8,0.8-2.5,2.9
	c1.3,0.2,2,0.9,2.5,1.8c-0.6,0.9-3,0.1-2.9,1.8c1.7,0.2,2.7-0.4,3.6-1.1c0.5-2.5-2-2.1-2.2-4c0.8-0.5,2-0.6,2.5-1.4
	c0-1.8-2.5-1.1-2.5-2.9c0.4-1.1,1.9-1.3,2.5-2.2c-0.4-1-1.9-0.7-2.5-1.4c0-1.7,2.3-1.1,2.5-2.5c-0.5-0.4-1.6-0.3-1.4-1.4
	c0.3-1,1.7-0.9,1.4-2.5c-1.3-0.1-1.3-1.5-1.8-2.5C71.2,243.4,70.7,244.1,70.9,245.5z M35.6,283c1,1,4,1,4.7-0.4
	c-2.4-0.9-4.3-2.4-5.4-4.7c3.2,0.5,5.8-1.9,4-4.3c1.2-0.4,1.4-2.5,0.4-3.2c3.2-0.7,1.9-4,2.5-6.8c-0.5-0.9-1.6-1.2-1.8-2.5
	c3.5-0.2,4-4.6,1.1-5.8c1.6,0.1,1.1-1.5,1.4-1.8c1.4,0.1,1.8-0.8,3.2-0.7c0.4-2.2-1.6-2-2.2-3.2c1.7-0.7-0.4-3.8-1.4-2.9
	c1,1.6,0.3,1.5-0.7,2.5c1.5,0.6,2.5,1.8,3.6,2.9c-0.8,0.6-2,0.9-3.6,0.7c0.1-0.8-0.3-1.1-1.1-1.1c-1.3,0.1-2.3,0.6-2.5,1.8
	c0.1,1.4,1.4,1.5,1.4,2.9c-0.9-0.1-1.1,0.6-1.8,0.7c0,1.1,0.9,1.2,1.1,2.2c-0.7-0.1-0.8,0.4-1.4,0.4c-0.2,1.8,0.5,2.8,1.4,4.3
	c-0.9-0.1-1.1,0.6-1.4,1.1c0.9,0.6,1.6,1.3,2.2,2.2c-1,0.6-2.9,0.5-4,1.1c-0.5,1.7,2.2,2,1.4,2.9c-1,0-2.1-0.1-2.5,0.4
	c-0.1,1.6,1.9,0.9,2.2,2.2c-1.1,0.2-0.5,1-0.4,1.8c-0.9-0.1-1.5,0.1-1.4,1.1c0.3,0.8,2.3-0.1,2.5,0.7c-1.2,0-2.4,0-3.6,0
	c0.3,2.4,3.9,3.5,3.6,5.4C37,281.8,35.5,282.4,35.6,283z M57.2,273.6c0,1.2,1.4,1,1.8,1.8c-1.4,0.2-1.4-1-2.9-0.7
	c0.7,1.8-0.3,1.2-1.4,1.8c-0.4,1.6,1.2,1.2,1.1,2.5c-0.8,0.1-1.5,0.4-2.2,0.7c0.5,2.6,1.5,3.2,3.2,5c-1.6,0-3.4-0.3-3.6,1.1
	c1.2,0.7,3.4-0.3,5-0.4c-1.6-2.9,1.7-3.9,0-6.8c0.8,0.1,1.4-0.1,1.8-0.4c-0.4-1.5-0.3-1.8,0.4-2.9C59.6,274.7,58.6,272.7,57.2,273.6
	z"/>
<path class="st1" d="M104,275.1c0.6-0.3,1.1-0.8,1.4-1.4c-1.3,3.4-5.9,8.5-10.4,8.6c2.6-3.5,8.6-5.2,8.3-10.4
	c-5.6,2.5-10.1,9.4-18.7,6.5c6.3,0.1,8.6-3.4,12.2-6.5c1.8-1.6,5-2.5,4.3-5c-5.6,1.9-7.8,10.2-17.6,9c5.9-3.3,13.8-4.7,16.2-11.5
	c-3.3,0.2-5.5,6.4-10.1,5.4c-3.2,4.2-11.3,5.5-18,5c1.3-2.1,5.1-1.8,7.9-1.4c8.2-3.1,14.7-7.9,18.4-15.5c-3.6-5.4-12.4,5.3-15.1,8.3
	c2.6-10.1,12.4-18.1,27-16.2c-0.2,5.7-1.4,13.6,1.4,17.3C108.3,269.2,106.6,272.6,104,275.1z"/>
<path class="st7" d="M239,257.1c0.3-0.9,1.1,0.8,2.2,0.4c0.9-1.4-0.2-3.9-1.4-4.3c-1.8,0.3-0.5,1.7-0.7,3.2
	c-0.7-0.1-0.3-1.3-1.1-1.4c1.5-8.5,11.3,1.7,5,3.6C241.2,259.1,240.3,257.8,239,257.1z M243.3,257.1c1.2-0.1,1.1-3.2-0.7-2.5
	C242.1,255.1,242.2,257,243.3,257.1z"/>
<path class="st2" d="M194,259.6c0.4,0,0.7,0,1.1,0c1,2.2-0.7,4.5-0.4,7.2c-0.8,0.4-1.2,1.2-2.5,1.1c-0.1-2.5,0-4.8,0.4-6.8
	C193.7,261.6,194.2,261.1,194,259.6z"/>
<path class="st2" d="M37.1,282.6c0.3-1.9-3.3-3-3.6-5.4c1.2,0,2.4,0,3.6,0c-0.2-0.9-2.2,0.1-2.5-0.7c-0.1-0.9,0.5-1.2,1.4-1.1
	c-0.1-0.8-0.8-1.6,0.4-1.8c-0.2-1.2-2.3-0.6-2.2-2.2c0.5-0.5,1.6-0.4,2.5-0.4c0.8-0.8-1.9-1.2-1.4-2.9c1.1-0.6,2.9-0.4,4-1.1
	c-0.6-0.9-1.3-1.6-2.2-2.2c0.3-0.5,0.5-1.1,1.4-1.1c-0.9-1.5-1.7-2.6-1.4-4.3c0.6,0,0.8-0.4,1.4-0.4c-0.1-0.9-1.1-1.1-1.1-2.2
	c0.7-0.2,0.9-0.8,1.8-0.7c-0.1-1.4-1.4-1.5-1.4-2.9c0.2-1.2,1.2-1.7,2.5-1.8c0.8-0.1,1.1,0.3,1.1,1.1c1.6,0.1,2.8-0.1,3.6-0.7
	c-1.1-1.1-2.1-2.2-3.6-2.9c1.1-1,1.8-0.9,0.7-2.5c1-0.9,3.1,2.1,1.4,2.9c0.6,1.2,2.6,1,2.2,3.2c-1.4-0.1-1.8,0.8-3.2,0.7
	c-0.3,0.3,0.2,1.9-1.4,1.8c2.9,1.1,2.4,5.5-1.1,5.8c0.2,1.3,1.3,1.6,1.8,2.5c-0.6,2.8,0.6,6.1-2.5,6.8c1,0.7,0.9,2.9-0.4,3.2
	c1.8,2.4-0.7,4.8-4,4.3c1.1,2.2,3,3.7,5.4,4.7c-0.6,1.4-3.7,1.3-4.7,0.4C35.5,282.4,37,281.8,37.1,282.6z M42.5,258.1
	c-0.6,0-2.1-1-2.5,0C41.1,258.6,41.9,259.8,42.5,258.1z M38.1,269.6c0.9,0,1.9-0.1,1.8-1.1C39.3,268.9,38,268.6,38.1,269.6z"/>
<path class="st2" d="M52.9,235.5c1.1-0.8,2.8,0.8,2.5,2.5c-2.1,0.4-3.4-1.5-4.7-0.7c0.4,1.4,2.7,0.9,4,1.4c-0.7,2.2,0.6,1.9,1.1,3.6
	c-5.9,1.5-2.9,3.1,0.4,5.8c-0.9,0.8-2.8,0.5-3.2,1.8c2.1,3.1-0.9,4.3,0,8.3c-0.6,0-0.8,0.4-1.4,0.4c0.3,1,0.7,1.9,1.1,2.9
	c-0.8,0.3-1.1,1.1-2.2,1.1c-0.1,1.3,1.2,1.2,1.4,2.2c0.1,1.1-0.9,1.2-1.8,1.4c0.1,0.7,1,0.7,1.4,1.1c-0.4,0.5-0.3,1.6-1.4,1.4
	c0.5,1.2,2,1.4,2.2,2.9c-1.2,0.8-3,0.8-4.3,1.4c0.3-1.1-1-0.7-0.7-1.8c0.7-0.7,1.3-0.1,2.2,0c-0.4-1.7-2-2.3-3.2-3.2
	c0.1-2.1,1.2-3.1,2.9-3.6c-0.5-0.8-1.4-1.2-1.1-2.9c1.1,0.3,1.1-0.6,2.2-0.4c-0.3-1.5-1.9-1.7-1.4-4c0.6,0,0.8-0.4,1.4-0.4
	c0-0.9-0.7-1.3-1.1-1.8c0.3-1.1,1.1-1.6,0.7-3.2c0.9,0.1,0.8-0.7,1.8-0.4c-0.3-1.1-2.2-0.7-1.8-2.5c1.3-0.7,4-0.1,5.4-0.7
	c-1.7-1.3-3.3-3.3-6.1-2.5c0.2-1.6,0.7-3.2-0.4-5c-0.1-1,0.9-1,1.8-1.1c-0.3-0.6-1.3-0.7-1.8-1.1c0.6-1.4,1.5-0.4,1.8-2.2
	c1.7,0,2.7,0.7,4,1.1C54.3,236.2,53.5,235.9,52.9,235.5z M54.7,241.6c-0.9-0.5-1.3-1.3-2.9-1.1C51.8,241.8,54.5,242.8,54.7,241.6z
	 M50.7,243.4c0.7-0.6-0.1-1.4-1.1-1.4C49.6,242.9,49.8,243.5,50.7,243.4z"/>
<path class="st13" d="M61.5,239.8c0.3,1.2,0.5,2.9,2.5,4c-0.5,1.3-0.4,3.2-1.8,3.6c2.2,1.2,3.8,3.2,2.2,6.1c-0.8,0-1.7,0-2.5,0
	c0.2,1.6,1.8,1.8,2.9,2.5c-0.5,1.1-0.7,2.4-1.8,2.9c0.1,0.8,1.1,0.8,1.4,1.4c0.2,1.6-1.7,1-2.9,1.1c-0.3,0.7,2.7,2.7,1.1,4.7
	c-1,0-1.9,0-2.9,0c-1.1,0.3,0.8,0.5,0.4,1.4c-2.2,0-1.8-2.8-1.4-3.6c0.8-0.1,1.4,0.1,1.8,0.4c-0.5-1.7-1.4-2.9-2.2-4.3
	c0.3-0.6,0.7-1.3,1.8-1.1c-0.2-0.9-1.4-0.8-1.1-2.2c1.1,0.3,1.1-0.6,2.2-0.4c-0.2-1.4-1.8-1.4-2.2-2.5c0.5-0.7,0.6-1.8,1.8-1.8
	c-0.2-0.8-1.2-1-1.4-1.8c0-0.9,0.5-1.4,1.4-1.4c0.2-1.1-1.1-0.8-0.7-2.2c0.7-1.1,2.6-1,3.2-2.2c-0.5-1.3-2-1.6-2.5-2.9
	C60.5,240.4,61.4,240.5,61.5,239.8z"/>
</svg>
