<?xml version="1.0" encoding="utf-8"?>
<!-- Generator: Adobe Illustrator 27.2.0, SVG Export Plug-In . SVG Version: 6.00 Build 0)  -->
<svg version="1.1" id="Layer_1" xmlns="http://www.w3.org/2000/svg" xmlns:xlink="http://www.w3.org/1999/xlink" x="0px" y="0px"
	 viewBox="0 0 106.3 100.6" style="enable-background:new 0 0 106.3 100.6;" xml:space="preserve">
<style type="text/css">
	.st0{fill:#E3DACF;}
	.st1{fill:#1F2146;}
</style>
<g id="XMLID_1_">
	<path class="st0" d="M42,59.5c-8.2,6.5-13.3,16.3-20.9,23.4c-1.1-11.2-5.6-27.8-3.6-40.7C26.9,45.3,35.2,52.7,42,59.5z"/>
	<path class="st0" d="M54.6,61.3c10.5,6.6,20,14.3,31.3,20.2c-3.1,2.4-9.6,1-15.5,1.4c-14.7,1-31.5,1.4-47.2,1.1
		c8.6-8.1,12.6-17.1,20.5-23.8c3.2,0.8,5.7,4,8.6,5.2C53.8,65,53.5,62.1,54.6,61.3z"/>
	<path class="st0" d="M79.9,34c-1.6,3.2-7,6.4-9.6,8.6C62.5,48.9,58,53.9,52.1,62.1c-8.7-2.6-12.6-9.1-19.5-13.7
		c-3.5-2.3-5.7-4.3-9.3-6.8C41.9,36.1,58.9,31.3,79.9,34z"/>
	<path class="st0" d="M85.2,35.8c3.8,12.1-0.4,30.4,2.5,44.6c-11.9-5.6-19.8-13.2-30.3-20.2c6.1-8.7,15.1-17.6,23.8-24.1
		C82,35.6,83.4,35,85.2,35.8z"/>
	<path class="st1" d="M42,59.5c-6.8-6.9-15.1-14.2-24.5-17.3c-2,12.8,2.5,29.5,3.6,40.7C28.7,75.8,33.8,66.1,42,59.5z M70.4,82.9
		c5.9-0.4,12.4,0.9,15.5-1.4C74.6,75.7,65.1,68,54.6,61.3c-1.1,0.7-0.8,3.7-2.2,4.1c-2.9-1.2-5.4-4.3-8.6-5.2
		C35.9,66.9,31.9,75.9,23.3,84C39,84.4,55.8,83.9,70.4,82.9z M70.2,42.5c2.6-2.2,8-5.4,9.6-8.6c-21-2.7-38,2.1-56.7,7.6
		c3.7,2.5,5.8,4.5,9.3,6.8c7,4.6,10.8,11.1,19.5,13.7C58,53.9,62.5,48.9,70.2,42.5z M87.7,80.4c-2.9-14.2,1.2-32.5-2.5-44.6
		c-1.8-0.8-3.2-0.2-4,0.4c-8.8,6.5-17.8,15.4-23.8,24.1C67.9,67.2,75.9,74.9,87.7,80.4z M87,35.1c2.5,12.5,2.4,32.6,2.5,47.9
		c-5.8,2.2-11.6,1-18.4,1.4c-16.5,1-35.5,1.7-50.8,0.7c-4-8-4.4-19.9-4.7-32c-0.1-5.1-1.4-10.4,1.1-13.7c1.9-0.6,1.3,1.4,2.9,1.1
		c13.8-5.2,32.2-7.9,49.3-8.6C75.4,31.5,81.9,32,87,35.1z"/>
</g>
</svg>
