<?xml version="1.0" encoding="utf-8"?>
<!-- Generator: Adobe Illustrator 27.2.0, SVG Export Plug-In . SVG Version: 6.00 Build 0)  -->
<svg version="1.1" id="Layer_1" xmlns="http://www.w3.org/2000/svg" xmlns:xlink="http://www.w3.org/1999/xlink" x="0px" y="0px"
	 viewBox="0 0 106.3 100.6" style="enable-background:new 0 0 106.3 100.6;" xml:space="preserve">
<style type="text/css">
	.st0{fill-rule:evenodd;clip-rule:evenodd;fill:#1F2146;}
	.st1{fill-rule:evenodd;clip-rule:evenodd;fill:#E3DACF;}
	.st2{fill-rule:evenodd;clip-rule:evenodd;fill:#B0A69B;}
</style>
<g>
	<path class="st0" d="M84.5,47.3c-1.1,14.2-0.1,31.7-1.8,44.6c-5.4,1.3-10.7,0.2-16.6,0.4c-7.3,0.2-14.5,2.7-21.6,2.2
		c-7.8-0.6-15.5-1.9-22.7-4c-3.6-13.1-0.3-32.4-0.7-45c2-4.1,4.8-7.2,8.3-11.5c2.1-2.6,3.7-6,5.8-8.3c3.1-3.4,7-6.5,10.4-9.7
		c3.7-3.5,10.8-10.3,16.2-8.3c2.2,0.8,3.3,4.3,4.7,6.1c4.8,6.3,11.1,13.4,16.9,21.6C86.2,39.4,91,44.6,84.5,47.3z M79.4,47.7
		c0.4-2.2,5.7-1.9,6.1-4.7c0.2-1-2.6-5.1-3.6-6.8c-1.5-2.6-3.5-4.4-4.7-5.8c-6.2-7.2-10.5-15.8-18.4-19.8c-4.6,2.3-8.1,4.8-11.5,7.6
		c-6,4.9-9.9,9.2-14.8,15.1c-3.4,4.1-7.5,7.9-9,13c1.7,1.9,3.4,3.8,6.1,4.7c1.5-6.4,2-13.8,5.8-18c9.9-1,19.6,0.4,28.4,2.5
		c5.8,1.4,11.8,2,16.2,4.7C81.5,42.7,78.9,45.9,79.4,47.7z M36.2,34.7c-2.8,4.3-4.4,11.7-5,16.9c4.4,3,8.2,6.5,13,9
		c3.8-5,7.5-5.5,11.9-1.4c6.8-3.9,14.5-6.9,21.2-10.8c0.2-2.7,1.6-4.1,1.4-7.2C66.4,37.3,51.4,33.4,36.2,34.7z M81.9,47.7
		c-7.4,4.9-16.7,8-24.5,12.6c8.3,9,14.5,20,23.4,28.4C80.8,73,82.9,61.2,81.9,47.7z M22.5,85.8c6.8-7.8,11.7-17.6,19.8-24.1
		c-6.2-4.8-13.2-8.6-19.4-13.3C21.4,60.2,23.5,74.4,22.5,85.8z M65,77.2c-5.9-5-9-14.8-14.4-19.1c-0.4,0-0.7,0-1.1,0
		c-1.2,2-3.5,2.7-4.3,5C40,65.7,36.3,70.3,33,74.7c-3.4,4.5-6.3,9.6-9,14.8c11.4,4.8,24.6-0.2,36.7,0.4c5.9,0.2,12,2.2,18,0.7
		C75.3,84.5,69.8,81.2,65,77.2z"/>
	<path class="st0" d="M49.9,38.7c0.4,0,0.7,0,1.1,0c0.6,1.3,0.2,1.9,0,3.2C49.8,41.4,49.2,40,49.9,38.7z"/>
	<path class="st0" d="M52.8,39.7c1.4-0.1,0,2.5-0.7,2.5C52,41.1,52.5,40.5,52.8,39.7z"/>
	<path class="st0" d="M56,39.7c0.6-0.1,0.6,0.3,1.1,0.4c0.2,1.7-0.7,2.3,0,3.6C55.4,43.8,55.3,40.9,56,39.7z"/>
	<path class="st0" d="M66.5,45.1c-1.1-0.3-1.3,0.4-2.2,0.4c-0.3-0.4-0.5-1-0.4-1.8c-0.9,0.4-1.2,1.4-2.5,1.4c0-1.5-0.6-2.5-0.4-4.3
		c1.7-0.4,1.5,1.2,1.4,2.5c2.1,0.3,1-2.6,3.2-2.2C65,43,66.3,43.3,66.5,45.1z"/>
	<path class="st0" d="M66.5,42.3c0.4-0.4,1.3-0.4,2.2-0.4c-0.3,0.4-0.5,1-0.4,1.8c0.5-0.7,0.7-1.7,2.2-1.4c-0.2,0.8,0.2,1,0.4,1.4
		c0.6-1,3.6-1.3,2.9,1.1c-0.5-0.1-0.6-0.6-1.1-0.7c0.2,1.2-0.2,1.7-0.4,2.5c-1.4,0.2-1-1.4-1.1-2.5c-0.7,0.1-0.1,1.6-0.7,1.8
		c-0.3-0.8-1.4-0.8-1.4-1.8c-0.9,0.3-1.1,1.3-2.2,1.4C67,44.1,66.2,43.7,66.5,42.3z"/>
	<path class="st0" d="M75.8,43c0.3,0.2,0.6,0.4,1.1,0.4c-0.1,1.1-0.3,2.1-1.4,2.2C74.7,44.7,75.3,43.5,75.8,43z"/>
	<path class="st0" d="M34.8,44.8c0.5,0,1,0,1.4,0c-0.5,1.8,1.1,3.5,0,4.7C34.8,49,34.3,46.1,34.8,44.8z"/>
	<path class="st0" d="M37.7,46.2c0.4,0,0.7,0,1.1,0c-0.4,2,0.3,3,1.1,4C37.5,51.9,36.6,47.8,37.7,46.2z"/>
	<path class="st0" d="M40.9,46.6c0.6,0,1.2,0,1.8,0c-1.1,1.8-0.2,3.2-0.4,4.7C40.2,51.1,40.4,48.4,40.9,46.6z"/>
	<path class="st0" d="M50.3,46.9c0.8,0.6,1.3,1.6,1.1,3.2c-1,0.8-1.5-0.2-2.5,0.4C49.3,49.3,49.6,47.9,50.3,46.9z"/>
	<path class="st0" d="M45.9,47.7c-0.8,0.6-1.1,1.8-1.4,2.9c-1.3,0-1-1.6-1.1-2.9C43.7,47.3,45.7,46.9,45.9,47.7z"/>
	<path class="st0" d="M47.7,48c-1,0.1-0.4,1.7-1.8,1.4c0-1.1,0.8-1.4,1.1-2.2c1.1,0.3,1.1,0.3,2.2,0c-0.6,1-1.3,1.8-1.8,2.9
		C45.9,49.8,47.7,48.9,47.7,48z"/>
	<path class="st0" d="M55.7,47.7c0.4,0,0.7,0,1.1,0c0.8,0.8-0.3,1.2,0,2.5C55.4,50.3,54.9,48.5,55.7,47.7z"/>
	<path class="st0" d="M60,47.7c1.3,0.3,0.2,2.6,0,3.6c-0.9-0.5-1.6-1.3-1.4-2.9C58.8,47.9,59.9,48.3,60,47.7z"/>
	<path class="st0" d="M67.5,47.7c0.5,0,1,0,1.4,0c0,0.8,0,1.7,0,2.5c-1.2-0.1-1.8-0.3-2.2,1.8C65.8,50.7,67.8,49.4,67.5,47.7z"/>
	<path class="st1" d="M80.9,88.7C72,80.3,65.7,69.3,57.5,60.3c7.8-4.6,17.1-7.7,24.5-12.6C82.9,61.2,80.8,73,80.9,88.7z"/>
	<path class="st0" d="M71.5,48c0.3,0.2,0.6,0.4,1.1,0.4c-0.2,0.6-0.2,1.5-0.7,1.8C70.5,50.5,71.2,48.3,71.5,48z"/>
	<path class="st1" d="M22.9,48.4c6.2,4.7,13.3,8.6,19.4,13.3c-8.1,6.5-13,16.3-19.8,24.1C23.5,74.4,21.4,60.2,22.9,48.4z"/>
	<path class="st0" d="M64.7,49.1c-0.5,0.5-0.2,1.7-0.7,2.2c-0.4-1-0.7-1.9-1.8-0.7c-0.5-0.3-1.1-0.5-1.1-1.4
		C62.1,48.2,63.3,49.3,64.7,49.1z"/>
	<path class="st0" d="M38.4,52.7c1,0.3,1.8,2,1.1,2.9C38.3,55.4,37.7,53.6,38.4,52.7z"/>
	<path class="st0" d="M42,53.4c0.4,0,0.7,0,1.1,0c-0.1,1.6-0.3,1.4,0,2.9c-0.5,0-1,0-1.4,0C41.7,55.3,41.4,53.9,42,53.4z"/>
	<path class="st0" d="M45.6,54.1c0,0.6,0,1.2,0,1.8c-1.3,0.4-1.2-0.8-1.8-1.1C43.8,54.1,44.7,54.1,45.6,54.1z"/>
	<path class="st0" d="M47,54.1c1.1,0,1,2.1-0.4,1.8C45.9,55.2,46.7,54.8,47,54.1z"/>
	<path class="st0" d="M57.8,54.9c-0.2,1.1,0.7,1.1,0,1.8c-0.9,0-1.4-0.5-1.4-1.4C56.7,54.9,57.2,54.8,57.8,54.9z"/>
	<path class="st1" d="M78.7,90.5c-6,1.5-12.1-0.5-18-0.7c-12.1-0.5-25.4,4.4-36.7-0.4c2.7-5.1,5.6-10.2,9-14.8
		c3.3-4.4,7.1-9,12.2-11.5c0.8-2.3,3.2-3.1,4.3-5c0.4,0,0.7,0,1.1,0C56,62.4,59.1,72.2,65,77.2C69.8,81.2,75.3,84.5,78.7,90.5z"/>
	<path class="st1" d="M80.1,40.1c-4.4-2.7-10.4-3.3-16.2-4.7c-8.9-2.1-18.5-3.5-28.4-2.5c-3.7,4.2-4.3,11.6-5.8,18
		c-2.7-0.9-4.4-2.8-6.1-4.7c1.5-5.1,5.6-8.9,9-13c4.9-5.9,8.8-10.2,14.8-15.1c3.4-2.8,6.9-5.3,11.5-7.6c7.8,4,12.2,12.6,18.4,19.8
		c1.2,1.4,3.2,3.2,4.7,5.8c1,1.7,3.8,5.8,3.6,6.8c-0.4,2.8-5.8,2.5-6.1,4.7C78.9,45.9,81.5,42.7,80.1,40.1z"/>
	<path class="st2" d="M78.7,41.2c0.2,3.1-1.2,4.5-1.4,7.2c-6.8,3.9-14.5,6.9-21.2,10.8c-4.3-4.1-8.1-3.6-11.9,1.4
		c-4.8-2.5-8.6-6-13-9c0.7-5.2,2.2-12.7,5-16.9C51.4,33.4,66.4,37.3,78.7,41.2z M37.7,39.4c1.2,1.1,2.7-0.2,4,0
		c0.8,0.1,1.8,2.8,2.9,0.7c-0.3,1.4,0.8,1.4,1.4,1.8c0.5-1.5,0.6-0.6,1.8-0.4c0.6-0.5,0.1-2,0.7-2.5c-0.8-1.2-2.4,0.4-2.2-1.4
		c-1.7-0.3-1.5,1.2-2.2,1.8c-1.3,0.2-1.1-1.1-1.1-2.2c-2-0.6-0.8,2.1-2.5,1.8c-0.1-1.1,1-1.2,0.7-2.5c-1.2-0.3-0.6,1.3-1.4,1.4
		c0-0.5,0-1,0-1.4C37.8,36.2,37.6,37.6,37.7,39.4z M51,41.9c0.2-1.4,0.6-1.9,0-3.2c-0.4,0-0.7,0-1.1,0C49.2,40,49.8,41.4,51,41.9z
		 M52.1,42.3c0.8-0.1,2.1-2.6,0.7-2.5C52.5,40.5,52,41.1,52.1,42.3z M57.1,43.7c-0.7-1.3,0.2-1.9,0-3.6c-0.5,0-0.5-0.5-1.1-0.4
		C55.3,40.9,55.4,43.8,57.1,43.7z M66.8,45.5c1.1-0.1,1.2-1.2,2.2-1.4c0.1,1,1.1,1,1.4,1.8c0.6-0.2,0-1.7,0.7-1.8
		c0,1.2-0.4,2.8,1.1,2.5c0.1-0.8,0.6-1.4,0.4-2.5c0.5,0.1,0.6,0.6,1.1,0.7c0.7-2.4-2.2-2.1-2.9-1.1c-0.1-0.5-0.5-0.7-0.4-1.4
		C69,42,68.8,43,68.3,43.7c-0.1-0.8,0.1-1.4,0.4-1.8c-0.9,0-1.7-0.1-2.2,0.4C66.2,43.7,67,44.1,66.8,45.5z M65.7,41.2
		c-2.2-0.4-1.2,2.4-3.2,2.2c0-1.3,0.3-2.9-1.4-2.5c-0.2,1.8,0.3,2.8,0.4,4.3c1.3,0,1.6-1,2.5-1.4c-0.1,0.8,0.1,1.4,0.4,1.8
		c0.8,0,1.1-0.6,2.2-0.4C66.3,43.3,65,43,65.7,41.2z M75.5,45.5c1.2,0,1.4-1,1.4-2.2c-0.5,0-0.8-0.2-1.1-0.4
		C75.3,43.5,74.7,44.7,75.5,45.5z M36.2,49.5c1.1-1.2-0.5-2.9,0-4.7c-0.5,0-1,0-1.4,0C34.3,46.1,34.8,49,36.2,49.5z M39.8,50.2
		c-0.7-0.9-1.4-1.9-1.1-4c-0.4,0-0.7,0-1.1,0C36.6,47.8,37.5,51.9,39.8,50.2z M42.3,51.3c0.1-1.4-0.7-2.9,0.4-4.7
		c-0.6,0-1.2,0-1.8,0C40.4,48.4,40.2,51.1,42.3,51.3z M48.8,50.5c1-0.6,1.5,0.4,2.5-0.4c0.2-1.7-0.3-2.6-1.1-3.2
		C49.6,47.9,49.3,49.3,48.8,50.5z M43.4,47.7c0,1.3-0.3,2.9,1.1,2.9c0.3-1.1,0.6-2.2,1.4-2.9C45.7,46.9,43.7,47.3,43.4,47.7z
		 M47.4,50.2c0.5-1.1,1.2-1.9,1.8-2.9c-1.1,0.3-1.1,0.3-2.2,0c-0.3,0.8-1.1,1.1-1.1,2.2c1.4,0.3,0.8-1.4,1.8-1.4
		C47.7,48.9,45.9,49.8,47.4,50.2z M56.7,50.2c-0.3-1.3,0.8-1.7,0-2.5c-0.4,0-0.7,0-1.1,0C54.9,48.5,55.4,50.3,56.7,50.2z M58.5,48.4
		c-0.1,1.6,0.5,2.4,1.4,2.9c0.2-1,1.3-3.3,0-3.6C59.9,48.3,58.8,47.9,58.5,48.4z M66.8,52c0.4-2.1,0.9-1.9,2.2-1.8
		c0-0.8,0-1.7,0-2.5c-0.5,0-1,0-1.4,0C67.8,49.4,65.8,50.7,66.8,52z M71.9,50.2c0.5-0.3,0.5-1.2,0.7-1.8c-0.5,0-0.8-0.2-1.1-0.4
		C71.2,48.3,70.5,50.5,71.9,50.2z M61.1,49.1c-0.1,0.9,0.6,1.1,1.1,1.4c1.1-1.2,1.4-0.3,1.8,0.7c0.5-0.5,0.2-1.7,0.7-2.2
		C63.3,49.3,62.1,48.2,61.1,49.1z M39.5,55.6c0.7-0.9-0.1-2.5-1.1-2.9C37.7,53.6,38.3,55.4,39.5,55.6z M41.6,56.3c0.5,0,1,0,1.4,0
		c-0.3-1.5-0.1-1.2,0-2.9c-0.4,0-0.7,0-1.1,0C41.4,53.9,41.7,55.3,41.6,56.3z M43.8,54.9c0.6,0.3,0.5,1.5,1.8,1.1c0-0.6,0-1.2,0-1.8
		C44.7,54.1,43.8,54.1,43.8,54.9z M46.7,55.9c1.3,0.3,1.4-1.8,0.4-1.8C46.7,54.8,45.9,55.2,46.7,55.9z M56.4,55.2
		c0,0.9,0.5,1.4,1.4,1.4c0.7-0.7-0.2-0.7,0-1.8C57.2,54.8,56.7,54.9,56.4,55.2z"/>
	<path class="st0" d="M39.8,36.5c0,0.5,0,1,0,1.4c0.8-0.1,0.2-1.7,1.4-1.4c0.2,1.3-0.8,1.4-0.7,2.5c1.7,0.3,0.5-2.4,2.5-1.8
		c0,1.1-0.2,2.4,1.1,2.2c0.7-0.6,0.5-2.1,2.2-1.8c-0.3,1.8,1.4,0.2,2.2,1.4c-0.6,0.5-0.1,2-0.7,2.5c-1.2-0.2-1.3-1.2-1.8,0.4
		c-0.7-0.4-1.7-0.4-1.4-1.8c-1.1,2.1-2.1-0.6-2.9-0.7c-1.3-0.2-2.8,1.1-4,0C37.6,37.6,37.8,36.2,39.8,36.5z"/>
</g>
</svg>
