<?xml version="1.0" encoding="UTF-8"?>
<svg width="37.46px" height="79.61px" enable-background="new 0 0 101.6 84.7" version="1.1" viewBox="32.42 3.2 37.53 79.38" xml:space="preserve" xmlns="http://www.w3.org/2000/svg">
<style type="text/css">
	.st0{fill-rule:evenodd;clip-rule:evenodd;fill:#08202A;}
	.st1{fill:#08202A;}
	.st2{fill-rule:evenodd;clip-rule:evenodd;fill:#FFFFFF;}
	.st3{fill-rule:evenodd;clip-rule:evenodd;fill:#878687;}
</style>
	<path class="st0" d="m68.3 3.9c0 0.1 0 0.3 0.1 0.3-0.1 0.2-0.3 0.2-0.6 0.2-0.1-0.4 0.2-0.5 0.5-0.5"/>
	<path class="st0" d="m67 4.1c0.3-0.1 0.4 0.1 0.6 0.2-0.1 0.1-0.3 0.2-0.3 0.4-0.3-0.1-0.4-0.3-0.3-0.6"/>
	<path class="st0" d="m69.2 4.1c0.1 0.3-0.3 0.1-0.2 0.4-0.2-0.2-0.4 0.1-0.6-0.1 0-0.4 0.5-0.3 0.8-0.3"/>
	<path class="st0" d="M68.2,5c0.1,0.3-0.7,0.4-0.7,0.1C67.7,4.9,67.9,5,68.2,5"/>
	<path class="st0" d="m66.7 6.2c-0.3 0.2-0.5 0.6-0.3 0.9-0.3-0.1-0.4-0.4-0.4-0.9 0.3-0.1 0.5-0.2 0.7 0"/>
	<path class="st0" d="m68.9 6.1c0 0.3-0.3 0.4 0 0.6-0.2 0.2-0.5-0.2-0.6-0.5 0.3 0 0.4-0.2 0.6-0.1"/>
	<path class="st0" d="m64.8 6.3c0 0.3-0.2 0.5 0.2 0.5-0.1 0.2-0.6 0.2-0.7 0 0-0.3 0.2-0.4 0.5-0.5"/>
	<path class="st0" d="m68 6.3v0.4c-0.1 0.1-0.3 0.1-0.5 0.1 0-0.4 0.3-0.4 0.5-0.5"/>
	<path class="st0" d="M67.6,7.9c0,0.3-0.5,0.7-0.1,0.8c0,0.2-0.4,0-0.6,0.1C67,8.4,67.3,8,67.6,7.9"/>
	<path class="st0" d="m64.7 8.1c0 0.4-0.5 0.4-0.7 0.3v-0.3c0.4-0.1 0.4-0.2 0.7 0"/>
	<path class="st0" d="m66.1 8.2c0 0.4-0.4 0.4-0.2 0.8-0.4 0-0.3-0.4-0.4-0.7 0.2-0.2 0.4-0.2 0.6-0.1"/>
	<path class="st0" d="m68.8 9c-0.3 0.3-0.3 0.7-0.2 1-0.3-0.2-0.5-0.4-0.5-0.8 0.2-0.1 0.4-0.2 0.7-0.2"/>
	<path class="st0" d="m64.4 9.3c-0.1 0.2-0.1 0.5 0 0.8-0.2 0-0.4 0-0.6-0.1 0.1-0.4 0.2-0.7 0.6-0.7"/>
	<path class="st0" d="m61.4 9.5c0.2 0 0 0.3 0.1 0.5h-0.4c-0.1-0.4 0.2-0.3 0.3-0.5"/>
	<path class="st0" d="m62.1 9.8h0.6c0 0.2-0.1 0.2-0.1 0.4-0.3 0-0.6 0-0.5-0.4"/>
	<path class="st0" d="m67.1 10.1c0.3-0.1 0.1 0.4 0.2 0.6h-0.4c-0.1-0.4 0.2-0.3 0.2-0.6"/>
	<path class="st0" d="m65.7 10.5c-0.1 0.3-0.3 0.5-0.5 0.8 0.1 0.3 0.2 0.4 0.3 0.7-0.4-0.1-0.6-0.5-0.5-0.9s0.3-0.6 0.7-0.6"/>
	<path class="st0" d="m60 11.1c-0.1 0.2-0.2 0.3-0.5 0.3 0.1-0.3 0.3-0.5 0.5-0.3"/>
	<path class="st0" d="m61 11c0.1 0.2-0.3 0.3 0 0.4-0.1 0.2-0.3 0.2-0.5 0.1-0.1-0.4 0.2-0.5 0.5-0.5"/>
	<path class="st0" d="m63.9 11.2c0.3 0.2-0.2 0.6 0.1 0.9-0.4 0-0.3 0.1-0.6-0.1 0.1-0.3 0.3-0.6 0.5-0.8"/>
	<path class="st0" d="m59.2 11.9c0.3-0.1 0.1 0.3 0.2 0.5-0.2 0-0.3 0.2-0.6 0.1-0.1-0.5 0.3-0.4 0.4-0.6"/>
	<path class="st0" d="m66.6 12c0.1 0.4-0.4 0.6 0 0.8-0.1 0.2-0.4 0.1-0.6 0.2-0.1-0.5 0.2-0.9 0.6-1"/>
	<path class="st0" d="m62.3 12.3c-0.1 0.2-0.4 0.5-0.1 0.7-0.2 0.2-0.4-0.2-0.6-0.3 0.2-0.3 0.4-0.4 0.7-0.4"/>
	<path class="st0" d="m68.3 12.3c-0.1 0.2-0.7 0.4-0.3 0.7-0.2 0.2-0.6-0.1-0.6-0.5 0.4-0.1 0.5-0.3 0.9-0.2"/>
	<path class="st0" d="m60.3 12.7c0.3 0.1 0 0.4 0.2 0.7-0.2 0-0.4 0.2-0.6 0 0-0.5 0.3-0.5 0.4-0.7"/>
	<path class="st0" d="m59.2 13.2c-0.1 0.2-0.8 0.5-0.8 0 0.3-0.2 0.4 0.1 0.8 0"/>
	<path class="st0" d="m53.3 13.5c0.4-0.1 0.4 0.1 0.6 0.3-0.2 0.2-0.7 0-0.6-0.3"/>
	<path class="st0" d="m63.6 13.5c0.1 0.2-0.4 0.5 0 0.5-0.1 0.2-0.2 0.2-0.5 0.3-0.2-0.4 0.1-0.8 0.5-0.8"/>
	<path class="st0" d="m65.1 13.7c0 0.2-0.6 0.4-0.3 0.7-0.1 0.3-0.5 0-0.6-0.1 0.2-0.4 0.6-0.6 0.9-0.6"/>
	<path class="st0" d="m52.4 13.8c0 0.2-0.1 0.4-0.2 0.6-0.1-0.1-0.2-0.1-0.3-0.1 0-0.3 0.1-0.6 0.5-0.5"/>
	<path class="st0" d="m58.8 14.4c0 0.4-0.6 0.5-0.8 0.3 0-0.3 0.6-0.1 0.8-0.3"/>
	<path class="st0" d="m65.9 14.6c0.3 0.2-0.4 0.6 0.1 0.8 0 0.2-0.3 0.2-0.6 0.2 0-0.5 0.3-0.7 0.5-1"/>
	<path class="st0" d="m60.2 14.7c-0.2 0.2-0.2 0.6-0.7 0.6-0.1-0.3 0.3-0.6 0.7-0.6"/>
	<path class="st0" d="m67.4 15c-0.2 0.4 0 0.4-0.1 0.7-0.2-0.2-0.6-0.1-0.6-0.5 0.3 0 0.4-0.2 0.7-0.2"/>
	<path class="st0" d="m54 15.3c0.2 0 0.3 0 0.5 0.1v0.4c-0.2-0.1-0.4-0.3-0.5-0.5"/>
	<path class="st0" d="m50.6 15.4v0.5h-0.5c0-0.4 0.1-0.5 0.5-0.5"/>
	<path class="st0" d="m58.4 15.4c0 0.4-0.6 0.5-0.6 0.1 0.3-0.1 0.5-0.2 0.6-0.1"/>
	<path class="st0" d="m51.9 15.6v0.4c-0.4 0-0.4 0.1-0.7-0.1 0.2-0.1 0.3-0.4 0.7-0.3"/>
	<path class="st0" d="m61.7 15.6c0 0.4-0.3 0.3-0.2 0.7-0.2 0-0.3-0.1-0.4-0.3 0.1-0.3 0.4-0.3 0.6-0.4"/>
	<path class="st0" d="m62.9 16.1c-0.3 0.4 0 0.8-0.7 0.8 0.1-0.5 0.3-0.8 0.7-0.8"/>
	<path class="st0" d="m59.9 16.3c-0.3 0.2-0.3 0.8-0.8 0.8-0.3-0.4 0.3-0.7 0.8-0.8"/>
	<path class="st0" d="m64.4 16.3c-0.1 0.2-0.4 0.2-0.3 0.7-0.3 0-0.4-0.2-0.4-0.5 0.3 0 0.3-0.3 0.7-0.2"/>
	<path class="st0" d="m49.8 16.5c-0.2 0.3-0.3 0.4-0.1 0.7-0.5 0-0.1 0.2-0.3 0.5-0.2 0-0.4-0.1-0.4-0.3 0.4-0.3 0-1.1 0.8-0.9"/>
	<path class="st0" d="m58.2 16.5c0.1 0.4-0.8 0.6-0.8 0.1 0.3 0 0.4-0.2 0.8-0.1"/>
	<path class="st0" d="m53.4 16.8c0 0.3-0.6 0.3-0.8 0.2 0.2-0.2 0.5-0.3 0.8-0.2"/>
	<path class="st0" d="m51.6 17.2c0 0.3-0.6 0.5-0.8 0.3 0.1-0.4 0.5-0.3 0.8-0.3"/>
	<path class="st0" d="m57.5 17.3c0.1 0.3-0.1 0.4-0.5 0.4 0-0.3 0.2-0.4 0.5-0.4"/>
	<path class="st0" d="m65.4 17.5c-0.2 0.5 0 1.2-0.7 0.8 0.2-0.3 0.3-0.7 0.7-0.8"/>
	<path class="st0" d="m54.5 17.7c0 0.3-0.3 0.2-0.2 0.6-0.2-0.1-0.4-0.2-0.4-0.5 0.3 0.1 0.3-0.2 0.6-0.1"/>
	<path class="st0" d="m53.5 18.2c-0.2 0.1-0.8 0.2-0.8-0.2 0.3-0.2 0.6 0.1 0.8 0.2"/>
	<path class="st0" d="m66.7 18c0.3 0.2-0.6 0.5 0 0.8-0.1 0.2-0.5-0.1-0.6-0.2 0-0.5 0.5-0.3 0.6-0.6"/>
	<path class="st0" d="m49.3 18.3c0.1 0.3-0.6 0.2-0.7 0.1 0-0.3 0.7-0.3 0.7-0.1"/>
	<path class="st0" d="m62.2 18.3c-0.2 0.2 0.1 0.3-0.1 0.5-0.2 0-0.3 0-0.5-0.1 0-0.4 0.3-0.4 0.6-0.4"/>
	<path class="st0" d="m57.7 18.4c0 0.4-0.8 0.6-0.8 0.1 0.4 0 0.4-0.2 0.8-0.1"/>
	<path class="st0" d="m61.1 18.5c0 0.3-0.2 0.3-0.2 0.6-0.1-0.1-0.4-0.1-0.4-0.4 0.3 0 0.2-0.3 0.6-0.2"/>
	<path class="st0" d="m51 18.6c0.3 0.2-0.1 0.6-0.5 0.6 0-0.5 0.4-0.5 0.5-0.6"/>
	<path class="st0" d="m59.3 18.7c-0.1 0.3-0.4 0.4-0.7 0.6-0.2-0.2 0-0.3 0.1-0.5 0.3 0.1 0.3-0.1 0.6-0.1"/>
	<path class="st0" d="m48.7 18.9h0.4c0 0.1 0 0.2-0.1 0.3-0.1 0-0.2 0-0.3-0.1v-0.2"/>
	<path class="st0" d="m56.9 18.9c0.3 0 0.5 0 0.5 0.3-0.3 0-0.6 0-0.5-0.3"/>
	<path class="st0" d="m63.8 19c-0.1 0.3-0.6 0.6-0.3 1-0.3 0-0.5-0.3-0.5-0.7 0.3 0 0.5-0.2 0.8-0.3"/>
	<path class="st0" d="m51.3 19.1c0.3-0.1 0.1 0.4 0.2 0.6h-0.4c0.1-0.2 0.1-0.4 0.2-0.6"/>
	<path class="st0" d="m54.3 19.3c0 0.2-0.2 0.2-0.1 0.5-0.3 0-0.4-0.1-0.4-0.4 0.2-0.1 0.4-0.1 0.5-0.1"/>
	<path class="st0" d="m52.7 19.5c-0.3 0.2-0.1 0.4 0.2 0.6-0.2 0.2-0.9-0.1-0.8-0.5 0.3 0.1 0.3-0.1 0.6-0.1"/>
	<path class="st0" d="m48.2 19.6h0.8c0 0.3-0.8 0.5-0.8 0"/>
	<path class="st0" d="m57 20c0.1 0.4-0.5 0.3-0.7 0.2 0.1-0.3 0.5-0.2 0.7-0.2"/>
	<path class="st0" d="m61.7 20.1c0 0.2-0.7 0.5-0.2 0.7 0 0.2-0.2 0.2-0.5 0.2 0-0.6 0.2-0.9 0.7-0.9"/>
	<path class="st0" d="m54.5 20.2c0 0.3-0.6 0.5-0.7 0.1 0.2-0.1 0.5-0.1 0.7-0.1"/>
	<path class="st0" d="m64.7 20.3c-0.2 0.3 0 0.5-0.1 0.7h-0.4c0.1-0.3 0.2-0.6 0.5-0.7"/>
	<path class="st0" d="m48.8 20.4c0.1 0.3-0.3 0.3-0.5 0.2 0-0.2 0.3-0.2 0.5-0.2"/>
	<path class="st0" d="m50.8 20.5c0.2 0.3-0.7 0.9-1 0.7 0.1-0.4 0.6-0.4 1-0.7"/>
	<path class="st0" d="m66.3 20.6c0 0.2-0.4 0.1-0.3 0.5-0.2 0-0.4 0-0.6-0.1 0.1-0.4 0.5-0.4 0.9-0.4"/>
	<path class="st0" d="m60.4 20.7c0 0.2-0.5 0.3-0.2 0.5-0.1 0.2-0.4 0-0.5-0.1 0.1-0.3 0.4-0.3 0.7-0.4"/>
	<path class="st0" d="M48.8,21c-0.2,0.2-1,0.7-1.1,0.1C48,21,48.4,21,48.8,21"/>
	<path class="st0" d="m58.6 21.1c-0.2 0.2-0.2 0.7-0.8 0.6 0.1-0.5 0.5-0.5 0.8-0.6"/>
	<path class="st0" d="m53.9 21.2c-0.1 0.2-0.1 0.4-0.1 0.6-0.2 0-0.4-0.2-0.5-0.5 0.3 0 0.4-0.2 0.6-0.1"/>
	<path class="st0" d="m52.4 21.5c-0.6 0.1-1 0.3-1.6 0.5 0.1-0.7 0.9-0.6 1.6-0.5"/>
	<path class="st0" d="m56.9 21.5c-0.2 0.3-0.6 0.3-0.9 0.2 0.1-0.3 0.8-0.3 0.9-0.2"/>
	<path class="st0" d="m48.3 21.9c0.1 0.4-0.1 0.5-0.4 0.5-0.1-0.2 0.2-0.4 0.4-0.5"/>
	<path class="st0" d="m62.9 22.2c0.2 0.2-0.4 0.4-0.1 0.8-0.2 0-0.4-0.1-0.5-0.3 0-0.3 0.5-0.2 0.6-0.5"/>
	<path class="st0" d="m53.9 22.3c-0.1 0.1-0.1 0.2-0.1 0.4h-0.4c0.1-0.3 0.2-0.4 0.5-0.4"/>
	<path class="st0" d="m56.1 22.3c0.3 0 0.5 0 0.5 0.3-0.3 0-0.5 0-0.5-0.3"/>
	<path class="st0" d="m61.4 22.3c-0.2 0.3-0.4 1-0.8 0.8 0-0.4 0.4-0.7 0.8-0.8"/>
	<path class="st0" d="m50.1 22.6c-0.1 0.4-0.4 0.3-0.4 0.7h-0.6c0.1-0.5 0.6-0.6 1-0.7"/>
	<path class="st0" d="m48.4 23.1c-0.5-0.1-0.9 0.1-1.3-0.1 0.1-0.4 1.3-0.3 1.3 0.1"/>
	<path class="st0" d="m52.3 23.1c-0.1 0.1-0.6 0.3-0.8 0.1-0.1-0.4 0.7-0.2 0.8-0.1"/>
	<path class="st0" d="m63.9 23.1c0.4 0 0 0.5 0 0.7h-0.4c0-0.5 0.4-0.4 0.4-0.7"/>
	<path class="st0" d="m53.5 23.2c0.2 0.2-0.2 0.8-0.5 0.5 0-0.4 0.4-0.3 0.5-0.5"/>
	<path class="st0" d="m59.9 23.2c-0.1 0.3-0.4 0.5-0.2 0.8-0.3 0.1-0.4-0.1-0.6-0.2 0.1-0.4 0.4-0.5 0.8-0.6"/>
	<path class="st0" d="m65.5 23.3c-0.2 0.4-0.3 0.4-0.1 0.8-0.2-0.1-0.5-0.2-0.6-0.6 0.2 0 0.3-0.2 0.7-0.2"/>
	<path class="st0" d="m56.7 23.4c-0.1 0.4-0.5 0.4-0.9 0.4-0.1-0.5 0.6-0.2 0.9-0.4"/>
	<path class="st0" d="m58.4 23.4c-0.3 0.3-0.5 0.6-0.9 0.7 0.1-0.5 0.5-0.6 0.9-0.7"/>
	<path class="st0" d="m47.8 23.7v0.4c-0.3 0.1-0.2-0.2-0.4-0.2 0-0.2 0.1-0.2 0.4-0.2"/>
	<path class="st0" d="m50.9 23.7c0 0.4-0.5 0.5-0.6 0.1 0.3-0.1 0.5-0.1 0.6-0.1"/>
	<path class="st0" d="m49.7 24v0.3c-0.2 0-0.5 0.1-0.4-0.2 0.2-0.1 0.3-0.1 0.4-0.1"/>
	<path class="st0" d="m60.7 24.4c0.1 0.2-0.2 0.4 0 0.4-0.1 0.1-0.4 0.2-0.6 0.1 0.1-0.4 0.3-0.4 0.6-0.5"/>
	<path class="st0" d="m55.6 24.5c0.3 0 0.4 0.1 0.6 0.2 0 0.2-0.7 0.1-0.6-0.2"/>
	<path class="st0" d="m53.5 24.6c-0.1 0.2-0.4 0.3-0.6 0.2h-0.1c0-0.3 0.4-0.2 0.7-0.2"/>
	<path class="st0" d="m48 24.7c-0.1 0.4-0.8 0.4-1.1 0.3 0.3-0.3 0.7-0.4 1.1-0.3"/>
	<path class="st0" d="m51.6 24.7c0.3 0.1 0.3 0.6 0.7 0.7-0.2 0.1-0.8-0.2-1-0.4-0.2-0.4 0.3-0.1 0.3-0.3"/>
	<path class="st0" d="m62.3 24.7c0.2 0.4-0.5 0.7-0.2 1.2-0.4 0.1-0.2-0.5-0.3-0.8 0.2-0.1 0.4-0.1 0.5-0.4"/>
	<path class="st0" d="m49.6 25.1c0 0.3-0.8 0.5-0.8 0.1 0.1-0.1 0.5-0.1 0.8-0.1"/>
	<path class="st0" d="m53.1 25.2c0 0.1 0 0.4 0.1 0.4-0.1 0.2-0.5 0-0.6-0.1 0-0.3 0.3-0.3 0.5-0.3"/>
	<path class="st0" d="m50.5 25.6c0.1 0.3-0.3 0.3-0.5 0.2 0-0.2 0.2-0.2 0.5-0.2"/>
	<path class="st0" d="m56.2 25.6c-0.1 0.2-0.9 0.6-0.9 0.1 0.4 0.1 0.5-0.1 0.9-0.1"/>
	<path class="st0" d="m47.6 26c-0.2 0-0.2 0.1-0.4 0.1-0.1-0.1-0.1-0.2-0.1-0.3 0.1-0.2 0.5-0.1 0.5 0.2"/>
	<path class="st0" d="m57.8 25.9c-0.1 0.2-0.7 0.3-0.9 0.1 0-0.3 0.7-0.3 0.9-0.1"/>
	<path class="st0" d="m62.9 25.8c0.1 0 0.4 0 0.4 0.1 0.1 0.3-0.6 0.2-0.4-0.1"/>
	<path class="st0" d="m59.3 25.9c0 0.3-0.2 0.3-0.1 0.7-0.3 0.1-0.2-0.1-0.5-0.1 0.1-0.4 0.3-0.6 0.6-0.6"/>
	<path class="st0" d="m64.4 26.1c0.2 0.2-0.3 0.7-0.6 0.4 0.2-0.3 0.5-0.2 0.6-0.4"/>
	<path class="st0" d="m55.4 26.2c0.2 0.1 0.2 0.5 0.6 0.5 0 0.3-0.5 0.2-0.7 0.1 0-0.2 0-0.4 0.1-0.6"/>
	<path class="st0" d="m49.3 26.3c0.3 0.1 0.1 0.4-0.3 0.4v-0.3c0.1 0 0.2 0.1 0.3-0.1"/>
	<path class="st0" d="m60.6 26.3c0.1 0.4-0.4 0.6-0.7 0.4 0.2-0.2 0.4-0.4 0.7-0.4"/>
	<path class="st0" d="m47.6 26.5c0.1 0.4-0.5 0.6-0.7 0.4 0.1-0.3 0.4-0.3 0.7-0.4"/>
	<path class="st0" d="m51.6 27c-0.4-0.1-0.6 0.1-0.8 0 0-0.3 0.8-0.4 0.8 0"/>
	<path class="st0" d="m52.7 27.1c0.2 0 0.4 0 0.6 0.1-0.2 0.3-0.7 0.3-0.7 0.8-0.3 0-0.5 0-0.5-0.3 0.5 0 0.6-0.3 0.6-0.6"/>
	<path class="st0" d="m57.7 27.3c0 0.3-1 0.5-1.1 0.1 0.2-0.2 0.7-0.1 1.1-0.1"/>
	<path class="st0" d="m49.6 27.4c-0.3 0.2-0.7 0.4-1.1 0.4 0-0.5 0.6-0.4 1.1-0.4"/>
	<path class="st0" d="m49.8 27.7c0 0.1 0 0.2-0.1 0.3-0.1 0-0.2 0-0.3-0.1v-0.1c0.3-0.1 0.2-0.3 0.4-0.1"/>
	<path class="st0" d="m63.7 27.7c0.3 0.1-0.4 0.5 0 0.7-0.1 0.2-0.4-0.2-0.4-0.5 0.1-0.2 0.4-0.1 0.4-0.2"/>
	<path class="st0" d="m55.9 27.7c-0.2 0.4-0.5 0.6-0.9 0.6 0-0.4 0.5-0.4 0.9-0.6"/>
	<path class="st0" d="m47.1 27.8c0.1 0.1 0.2 0.1 0.3 0.1 0 0.6-0.5 0.6-1 0.6 0-0.4 0.6-0.2 0.7-0.7"/>
	<path class="st0" d="m51.1 28.2c-0.1 0.4 0.3 0.2 0.2 0.5-0.3 0-0.3-0.2-0.7-0.1 0-0.3 0.3-0.4 0.5-0.4"/>
	<path class="st0" d="m58.6 28.3c0.2 0.2-0.3 0.4 0 0.8-0.1-0.1-0.3-0.1-0.5-0.2 0.1-0.4 0.4-0.4 0.5-0.6"/>
	<path class="st0" d="m62.5 28.4c0 0.3-0.1 0.6-0.4 0.6-0.2-0.3 0.1-0.6 0.4-0.6"/>
	<path class="st0" d="m57.2 28.9c-0.1 0.3-0.5 0.3-0.8 0.4-0.1-0.5 0.6-0.2 0.8-0.4"/>
	<path class="st0" d="m53.1 29c0 0.3-0.5 0.3-0.7 0.2 0.1-0.3 0.4-0.2 0.7-0.2"/>
	<path class="st0" d="m60.3 29.1c-0.3 0.3-0.3 0.9-0.9 0.8 0.1-0.4 0.5-0.8 0.9-0.8"/>
	<path class="st0" d="m50.6 29.6c-0.3 0.1-0.2-0.2-0.4-0.2 0.1-0.4 0.7 0 0.4 0.2"/>
	<path class="st0" d="m49 29.6c-0.3-0.1-0.7 0.1-0.8-0.1-0.1-0.3 0.8-0.1 0.8 0.1"/>
	<path class="st0" d="m63 29.4c0.2 0.3-0.2 0.7-0.6 0.8 0-0.1 0-0.2-0.1-0.2 0.1-0.3 0.7-0.2 0.7-0.6"/>
	<path class="st0" d="m47.3 29.8c-0.2 0.2-1.4 0.5-1.4 0h1.4"/>
	<path class="st0" d="m52.2 29.7c0.1 0.3-0.2 0.5-0.1 0.8-0.3 0-0.3-0.2-0.5-0.3 0-0.3 0.5-0.2 0.6-0.5"/>
	<path class="st0" d="m55.4 29.7c-0.2 0.3-0.6 0.4-0.9 0.4 0-0.4 0.6-0.3 0.9-0.4"/>
	<path class="st0" d="m61.2 29.8c-0.1 0.3-0.5 0.5-0.3 0.8-0.2-0.1-0.3-0.2-0.5-0.3 0.2-0.2 0.5-0.4 0.8-0.5"/>
	<path class="st0" d="m48.3 29.9c0.2 0 0.1 0.4 0.4 0.4-0.2 0.3-0.6 0-0.6-0.3 0.1 0 0.2 0 0.2-0.1"/>
	<path class="st0" d="m50.9 30.4c-0.2 0.3-0.6 0.4-0.9 0.3 0.1-0.3 0.5-0.3 0.9-0.3"/>
	<path class="st0" d="m54.5 30.5c0.2-0.1 0.5 0 0.7 0.2-0.1 0.1-0.8 0.1-0.7-0.2"/>
	<path class="st0" d="m52.4 30.7h0.3c0 0.3-0.1 0.4-0.5 0.4 0.1-0.3 0.3-0.2 0.2-0.4"/>
	<path class="st0" d="m58.2 30.7c0.3 0.1-0.1 0.4 0 0.7-0.2 0-0.4 0-0.5-0.2 0-0.3 0.4-0.2 0.5-0.5"/>
	<path class="st0" d="m56.7 30.9c-0.1 0.3-0.4 0.5-0.7 0.4-0.1 0-0.1 0-0.2-0.1 0.2-0.2 0.6-0.1 0.9-0.3"/>
	<path class="st0" d="m49.3 31c0 0.4-0.1 0.6-0.5 0.7-0.1-0.3 0.1-0.6 0.5-0.7-0.1 0-0.1 0 0 0"/>
	<path class="st0" d="m48.7 31.3c-0.3 0.3-0.9 0.5-1.1 0 0.5-0.1 0.5 0 1.1 0"/>
	<path class="st0" d="m47.2 31.4c-0.1 0.3-0.9 0.2-1 0.2 0-0.4 0.7-0.1 1-0.2"/>
	<path class="st0" d="m50.5 31.5c0.1 0.3-0.1 0.4-0.5 0.4-0.1-0.4 0.3-0.3 0.5-0.4"/>
	<path class="st0" d="m61.7 31.5c0.2 0.2 0 0.7-0.3 0.7-0.2-0.3 0.2-0.5 0.3-0.7"/>
	<path class="st0" d="m59.8 31.7c0 0.3-0.4 0.3-0.8 0.3-0.1-0.4 0.4-0.3 0.8-0.3"/>
	<path class="st0" d="m60.4 31.7c0.4 0.1-0.1 0.4-0.1 0.7-0.1-0.1-0.2-0.1-0.3-0.1 0-0.4 0.4-0.4 0.4-0.6"/>
	<path class="st0" d="m50.6 32.1c0.3 0.1 0 0.4 0.2 0.7-0.1 0-0.2 0-0.2 0.1-0.3-0.3-0.6-0.2-1-0.3 0.1-0.6 0.9-0.1 1-0.5"/>
	<path class="st0" d="m54.8 32.1c0.3 0.3-0.6 0.4-0.8 0.3 0.2-0.4 0.7-0.2 0.8-0.3"/>
	<path class="st0" d="m51.8 32.2c-0.1 0.2-0.2 0.3-0.2 0.7-0.2 0-0.4 0-0.5-0.2 0.1-0.4 0.4-0.4 0.7-0.5"/>
	<path class="st0" d="m48.3 32.2c0 0.2-0.1 0.3-0.4 0.3 0-0.2 0.2-0.3 0.4-0.3"/>
	<path class="st0" d="m46.9 32.8c0.2 0.4-0.6 0.3-0.8 0.4 0-0.1 0-0.2-0.1-0.2 0.1-0.4 0.9-0.1 0.9-0.2"/>
	<path class="st0" d="m51.7 32.9c0.4 0 0.1 0.7-0.2 0.6-0.2-0.3 0.2-0.3 0.2-0.6"/>
	<path class="st0" d="m50.4 33c0.3 0.3-0.4 0.7-0.6 0.5 0-0.4 0.5-0.2 0.6-0.5"/>
	<path class="st0" d="m54.5 33.4c-0.2 0-0.3 0-0.5-0.1 0-0.3 0.6-0.3 0.5 0.1"/>
	<path class="st0" d="m59.1 33.2c0.1 0.3-0.6 0.4-0.7 0.2 0-0.4 0.5-0.1 0.7-0.2"/>
	<path class="st0" d="m56.2 33.4c-0.2 0.3-0.5 0.5-0.8 0.5 0-0.5 0.5-0.4 0.8-0.5"/>
	<path class="st0" d="m47.5 33.6c0.3 0 0.8-0.1 0.9 0.1-0.1 0.1-1 0.3-0.9-0.1"/>
	<path class="st0" d="m57.4 33.7c0.1 0.3-0.2 0.3-0.2 0.6-0.2 0-0.2-0.1-0.4-0.1 0.2-0.2 0.3-0.4 0.6-0.5"/>
	<path class="st0" d="m54.3 34.2c0.1 0 0.1 0.2 0.1 0.3-0.3 0.1-0.6 0.1-0.8 0.1 0-0.4 0.5-0.2 0.7-0.4"/>
	<path class="st0" d="m46 34.3c0.5 0 0.9 0.2 1.3 0-0.1 0.5-0.8 0.3-1.3 0.4v-0.4z"/>
	<path class="st0" d="m49.3 34.5c0.4 0 0 0.1 0 0.3 0.3 0.4 0.4-0.2 0.8-0.1 0.1 0.4-0.3 0.2-0.2 0.5-0.5-0.1-1.2 0-1.3-0.5 0.2 0 0.5-0.1 0.7-0.2"/>
	<path class="st0" d="m51.1 34.5v0.5c-0.4 0-0.3 0.1-0.6-0.1 0.3-0.1 0.3-0.4 0.6-0.4"/>
	<path class="st0" d="m58.5 35.2c0 0.4-0.3 0.8-0.8 0.7 0.2-0.4 0.5-0.6 0.8-0.7"/>
	<path class="st0" d="m53.9 35.2v0.4h-0.5c0.1-0.3 0.3-0.3 0.5-0.4"/>
	<path class="st0" d="m47.6 35.3c0.3 0 0.7 0 0.8 0.4-0.5 0-0.8 0-0.8-0.4"/>
	<path class="st0" d="m55.4 35.3c-0.1 0.3-0.4 0.5-0.7 0.4-0.1 0-0.1 0-0.2-0.1 0.4-0.1 0.6-0.2 0.9-0.3"/>
	<path class="st0" d="m46.7 35.8c0 0.6-0.9 0.1-1.1 0 0.3-0.5 0.6 0.2 1.1 0"/>
	<path class="st0" d="m50.8 35.7c0.3 0.1-0.1 0.3 0 0.6-0.2 0-0.4 0-0.4-0.2-0.1-0.3 0.3-0.2 0.4-0.4"/>
	<path class="st0" d="m56.8 36.2c0.2 0.1-0.1 0.5-0.1 0.7-0.2 0-0.3 0-0.5-0.1 0.1-0.3 0.5-0.3 0.6-0.6"/>
	<rect class="st1" x="53.4" y="36.3" width=".6" height=".2"/>
	<path class="st0" d="m49.7 36.5c-0.3 0.3 0.1 0.2 0.1 0.5h-0.7c0-0.4 0.3-0.5 0.6-0.5"/>
	<path class="st0" d="m48.1 36.9c0 0.3-1 0.3-0.8-0.1 0.4-0.2 0.6 0.1 0.8 0.1"/>
	<path class="st0" d="m47 37.6c-0.4-0.1-1.2 0.1-1.3-0.4 0.3-0.1 1.1 0 1.3 0.4"/>
	<path class="st0" d="m54.6 37.4c0.3 0.2-0.2 0.5-0.5 0.4-0.1-0.4 0.4-0.2 0.5-0.4"/>
	<path class="st0" d="m50.4 37.6c0 0.2-0.3 0.3-0.2 0.7-0.3 0-0.4-0.2-0.4-0.5 0.3 0 0.3-0.2 0.6-0.2"/>
	<path class="st0" d="m49.4 37.8c0.4 0.1-0.4 0.5 0.1 0.5-0.2 0.3-0.6 0.2-0.8 0 0-0.3 0.5-0.3 0.7-0.5"/>
	<path class="st0" d="m53.1 37.9c0.3 0 0.2 0.3 0.6 0.2-0.1 0.3-0.8 0.2-0.6-0.2"/>
	<path class="st0" d="m57.2 38c-0.1 0.1-0.3 0.2-0.4 0.1h-0.1c0.1-0.3 0.4-0.3 0.5-0.1"/>
	<path class="st0" d="m56 38c0.3 0.2-0.3 0.4-0.2 0.8-0.1 0-0.3-0.1-0.4-0.2 0.1-0.4 0.5-0.3 0.6-0.6"/>
	<path class="st0" d="m47.2 38.5c0.4 0 0.6 0.1 0.8 0.4-0.4 0-0.9 0.1-0.8-0.4"/>
	<path class="st0" d="m46.9 38.9c0 0.5-1.1 0.3-1.2 0.1 0.2-0.4 0.7 0 1.2-0.1"/>
	<path class="st0" d="m49.3 39.2c-0.1 0.2-0.3 0.3-0.3 0.7-0.2 0-0.4-0.1-0.4-0.3 0.3-0.2 0.5-0.4 0.7-0.4"/>
	<path class="st0" d="m49.7 39.3c0.3 0.3-0.3 0.6-0.2 1-0.7-0.2 0.2-0.7 0.2-1"/>
	<path class="st0" d="m53.4 39.4c0.1 0.3-0.5 0.4-0.6 0.2-0.1-0.4 0.4-0.2 0.6-0.2"/>
	<path class="st0" d="m54.4 39.6c0 0.3-0.2 0.3-0.5 0.3 0-0.1-0.1-0.2-0.2-0.2 0.1-0.4 0.4 0 0.7-0.1"/>
	<path class="st0" d="m55.4 39.8c0.2 0.2 0 0.8-0.3 0.8 0-0.4 0.1-0.6 0.3-0.8"/>
	<path class="st0" d="m47 40c-0.3 0.5-0.9 0.2-1.3 0 0.3-0.5 0.7 0.2 1.3 0"/>
	<path class="st0" d="m49.1 40.2c-0.1 0.4-0.4 0.7-0.8 0.4 0.1-0.3 0.5-0.3 0.8-0.4"/>
	<path class="st0" d="m52.6 40.6c0.2 0 0.2 0.1 0.4 0.1 0 0.3-0.2 0.5-0.4 0.5h-0.1c-0.1-0.3 0.1-0.4 0.1-0.6"/>
	<path class="st0" d="m46.6 41c0 0.3-1 0.3-0.9-0.1 0.4-0.3 0.4 0.2 0.9 0.1"/>
	<path class="st0" d="m47.9 41.3c0.1 0 0.1 0.2 0.1 0.4-0.2 0.1-0.6 0.2-0.6-0.2 0.2 0 0.4 0 0.5-0.2"/>
	<path class="st0" d="m53.8 41.4c0.2 0 0.5 0 0.5 0.3-0.3 0-0.6 0-0.5-0.3"/>
	<path class="st0" d="m55 41.4c0.3 0.2-0.1 0.7-0.4 0.4 0-0.2 0.3-0.2 0.4-0.4"/>
	<path class="st0" d="m46.7 41.9c0 0.3-0.4 0.3-0.7 0.3 0-0.6 0.3-0.3 0.7-0.3"/>
	<path class="st0" d="m52.6 41.9c0.2 0.1 0.3 0.4 0.5 0.6-0.4 0-0.5-0.2-0.5-0.6"/>
	<path class="st2" d="m40.3 44.1c-1.5-1.6 1.6-2.3 1.5-0.8-0.1 0.7-0.7 0.8-1.5 0.8"/>
	<path class="st0" d="m47.8 42.8c0.4 0-0.2 0.6-0.6 0.5 0-0.4 0.4-0.4 0.6-0.5"/>
	<path class="st0" d="m52.4 43.2c0.4 0 0.5 0.2 0.8 0 0.1 0.5-0.9 0.4-0.8 0"/>
	<path class="st2" d="m43.4 43.9c-0.1 0.3-0.3 0.4-0.2 0.8-0.5 0-0.2-0.9 0.2-0.8"/>
	<path class="st2" d="m45.4 44.1h0.4c-0.1 0.3-0.2 0.6-0.5 0.8 0-0.3 0-0.6 0.1-0.8"/>
	<path class="st2" d="m47.1 44.1c0 0.2-0.3 0.2-0.4 0.4-0.3-0.2 0.1-0.6 0.4-0.4"/>
	<path class="st2" d="m44.4 44.3c0.4 0-0.1 0.3 0.1 0.7-0.3-0.1-0.2-0.5-0.1-0.7"/>
	<path class="st2" d="m49.4 44.3c0.2 0.2-0.4 0.5-0.1 0.8-0.3 0-0.4-0.3-0.4-0.6 0.2-0.1 0.4-0.1 0.5-0.2"/>
	<path class="st2" d="m47.8 44.3c0.4 0-0.2 0.5 0 0.8-0.2 0-0.2-0.1-0.4-0.1-0.1-0.4 0.2-0.5 0.4-0.7"/>
	<path class="st2" d="m42 45.4c-0.5 0.5-1.3 0.5-1.7 0-0.2-1.5 1.9-1.1 1.7 0"/>
	<path class="st2" d="m43.4 44.4c0.1 0.1 0.4 0.5 0.3 0.6-0.3 0-0.2-0.3-0.3-0.6"/>
	<path class="st2" d="m50.8 44.4c-0.1 0.2-0.4 0.2-0.3 0.6-0.2 0-0.2-0.1-0.4-0.1 0.2-0.2 0.2-0.6 0.7-0.5"/>
	<path class="st2" d="m51.6 44.5c-0.1 0.1-0.1 0.4-0.1 0.7-0.2 0-0.5 0-0.7-0.1 0-0.5 0.3-0.6 0.8-0.6"/>
	<path class="st2" d="m53.2 45c-0.3 0.2-0.5 0.7-0.8 0.5-0.1-0.5 0.5-0.7 0.8-0.5"/>
	<path class="st2" d="m54.2 45.2c-0.3 0.4-0.7 1-1.2 0.6 0.1-0.5 0.6-0.7 1-0.6 0.1-0.1 0.2 0 0.2 0"/>
	<path class="st2" d="m55.4 45.7c-0.4 0.2-1 0.2-1 0.7-0.2 0-0.2-0.1-0.4-0.1 0-0.5 0.4-0.8 0.9-0.8 0.1-0.1 0.3 0 0.5 0.2"/>
	<path class="st2" d="m56.6 46.2c-0.2 0.2-0.8 0.4-0.5 0.8-0.2 0.3-0.7-0.1-0.8-0.2 0.1-0.6 0.7-1.2 1.3-0.6"/>
	<path class="st2" d="m55.4 46c-0.2 0.2-0.3 0.4-0.6 0.5 0-0.1 0-0.2-0.1-0.2 0.1-0.2 0.3-0.3 0.7-0.3"/>
	<path class="st2" d="m57.9 47.1c-0.2 0.2-0.6 0.2-0.8 0.6-0.8-0.7 0.4-1.4 0.8-0.6"/>
	<path class="st2" d="m58.4 47.4c0.1 0.4-0.5 0.2-0.8 0.4 0-0.3 0.2-0.5 0.5-0.5 0.1 0.1 0.2 0.1 0.3 0.1"/>
	<path class="st2" d="m58.9 48c-0.1 0.2-0.6 0.5-0.8 0.3-0.1-0.5 0.6-0.6 0.8-0.3"/>
	<path class="st2" d="m58.7 48.5c1.2-0.7 0.4 1.2 0 0"/>
	<path class="st2" d="m59.6 48.8c0.2 0 0.2 0.1 0.3 0.1 0.1 0.3-0.2 0.2-0.3 0.4-0.3 0-0.1-0.4 0-0.5"/>
	<path class="st2" d="m59.9 49.3c0.1 0.1 0.2 0.2 0.2 0.4-0.1 0-0.2 0.1-0.2 0.2-0.1-0.1-0.1-0.4 0-0.6v0"/>
	<path class="st2" d="m60.2 50.1c0.5 0.1-0.3 0.8-0.3 0.2 0.2 0 0.3-0.1 0.3-0.2"/>
	<path class="st2" d="m60.1 50.7c0.2 0.1 0.4 0.1 0.6 0.1 0 0.3-0.1 0.5 0.1 0.8-0.3 0.1-0.6-0.5-0.7-0.9"/>
	<path class="st3" d="m61.2 79.2c-1 2-4.1 1.7-7.3 1.9-3.4 0.2-6.9 0.2-10.3 0-1.7-0.1-5-0.2-6.1-0.9-0.5-0.3-1-1.5-1.3-2.2-1.2-1.7-2-3.6-2.5-5.6-0.1-1.6 0.1-3.2 0.7-4.7 0.3-0.7 0.8-1.6 1.2-2.3 1-2 2.2-4.2 3.8-5.5 0.3-0.3 0.9-0.5 1.4-0.8 0.5-0.4 0.9-0.8 1.3-0.9 0.7-0.1 1.4-0.2 2.2-0.2 3 0.1 5.8 1.1 8.2 2.9 1.6 1.2 2.8 3.2 4.1 5.2 1.1 1.7 3.2 3.5 3.8 4.9 0.5 1.3 0.7 2.7 0.8 4-0.1 1.2-0.1 2.7 0 4.2m-20.4-5c3.5 1 6.5 3 10 3.7-0.5-0.9-1.6-1.1-2.6-1.4-0.2-0.1-0.4-0.3-0.6-0.4-0.3-0.1-0.8 0-1.1-0.1s-0.6-0.5-1-0.7c-0.9-0.3-1.8-0.8-2.5-1.3-1-0.8-1.9-1.7-2.7-2.7-1.1-1.7-1.3-4-2.5-5.8h-0.3c-0.3 3.2 0.9 6.4 3.3 8.7m-4.2-0.9c0.7 1.6 0.9 2.3 1.9 2.9 0.8 0.4 1.7 0.7 2.5 0.9 0.6 0.3 1.3 0.9 2 1.1 1.4 0.5 2.8 0.7 4 1-0.7-1.5-2.8-1.4-4.3-2-0.9-0.4-1.5-1.2-2.4-1.2-0.6-0.8-1.6-1.2-2.2-2.1-0.2-0.5-0.4-0.9-0.5-1.4-0.6-1.5-1.8-2.9-1.5-4.6 0-0.1-0.1-0.1-0.2-0.1-0.4 2-0.2 3.9 0.7 5.5m4.5-3.3c0.3 0.4 0.5 0.9 0.7 1.4 1.1 1.4 2.7 2.3 4.4 2.5 0.3 0.1 1 0.5 1.1 0-0.7-0.4-1.6-0.4-2.2-0.9v-0.5c-1.6-1.2-2.6-2.9-4.1-4-0.2 0.5 0.2 0.9 0.1 1.5m5.9 7.8c-0.5-1-1.9-0.8-2.9-1.3-1.4-0.7-2.8-1.8-4.3-2.3-0.3-0.2-0.3-0.9-0.8-0.8 1 3 4.9 3.7 8 4.4m-4.1 1.6c-0.5-0.5-1.2-0.5-1.8-0.8-1.5-0.7-2.4-2.2-4.1-2.5 0-0.1-0.1-0.1-0.2 0 1.2 2.3 4.7 4.1 8.1 3.9-0.2-0.6-1.2-0.5-2-0.6"/>
	<path class="st0" d="m37.4 65.4h0.3c1.2 1.8 1.4 4.2 2.5 5.8 0.8 1 1.7 1.9 2.7 2.7 0.8 0.6 1.6 1 2.5 1.3 0.4 0.2 0.7 0.5 1 0.7 0.4 0.1 0.8 0 1.1 0.1 0.2 0.1 0.4 0.3 0.6 0.4 1 0.3 2.1 0.5 2.6 1.4-3.5-0.7-6.6-2.6-10-3.7-2.3-2.2-3.5-5.4-3.3-8.7"/>
	<path class="st0" d="m35.9 68c0.1 0 0.2 0 0.2 0.1-0.3 1.7 0.9 3.1 1.5 4.6 0.1 0.5 0.3 1 0.5 1.4 0.6 0.8 1.6 1.3 2.2 2.1 0.9 0 1.5 0.9 2.4 1.2 1.6 0.6 3.6 0.4 4.3 2-1.2-0.3-2.6-0.5-4-1-0.7-0.3-1.3-0.9-2-1.1-0.9-0.2-1.7-0.5-2.5-0.9-1-0.6-1.2-1.3-1.9-2.9-0.9-1.8-1.1-3.7-0.7-5.5"/>
	<path class="st0" d="m41 68.5c1.5 1.2 2.6 2.9 4.1 4v0.5c0.5 0.5 1.5 0.6 2.2 0.9-0.1 0.5-0.8 0.1-1.1 0-1.7-0.2-3.3-1.1-4.4-2.5-0.1-0.5-0.3-1-0.7-1.4 0.1-0.6-0.3-1-0.1-1.5"/>
	<path class="st0" d="m38.9 73.3c0.6 0 0.5 0.6 0.8 0.8 1.5 0.6 2.9 1.7 4.3 2.3 1 0.5 2.4 0.3 2.9 1.3-3-0.6-6.9-1.3-8-4.4"/>
	<path class="st0" d="m44.8 80.1c-3.4 0.2-6.9-1.6-8.1-3.9 0.1-0.1 0.2-0.1 0.2 0 1.7 0.4 2.7 1.9 4.1 2.5 0.6 0.3 1.3 0.3 1.8 0.8 0.9 0 1.9-0.1 2 0.6"/>
	<path class="st2" d="m51.9 44.2c-0.3-5.8 1.6-12 2.5-17.3 0.3-1.7 0.9-3.1 1.1-4.6 0.7-4.6 1.9-8.7 4.1-12.1 0.3-0.2 0.4 0.1 0.7-0.1s-0.3-0.3 0.1-0.5c0.3-0.5 0.8-0.9 1.4-1.1 0.3-0.9 0.9-1.4 1.6-1.1 0.1-0.4-0.5-0.1-0.4-0.5 0.9-0.5 1.7-1.1 2.4-1.7 0.8-0.6 1.7-1.9 2.7-1.9 1.2 0 1.7 2.2 1.5 4.2-0.4 3.6-1.1 7.1-2.2 10.6-0.5 1.7-1 3.3-1.4 5-0.5 1.6-1.1 3.1-1.9 4.5-0.7 1.5-1.1 3.2-1.9 4.5s-1.7 2.5-2.8 3.6c-2.1 2.3-3 5.7-5.1 7.6-0.6 0.6-1.4 0.9-2.2 1.1 0.4 0.1-0.2-0.4-0.2-0.2m16.6-39.8c0.2 0.2 0.4-0.1 0.6 0.1-0.1-0.3 0.3-0.1 0.2-0.4-0.4 0.1-0.9-0.1-0.8 0.3m-0.7 0c0.3 0 0.5 0 0.6-0.2-0.1 0-0.1-0.1-0.1-0.3-0.3 0-0.6 0.1-0.5 0.5m-0.5 0.3c0-0.2 0.2-0.2 0.3-0.4-0.2-0.1-0.3-0.3-0.6-0.2-0.1 0.3 0 0.5 0.3 0.6m0.2 0.4c-0.1 0.3 0.8 0.3 0.7-0.1-0.3 0-0.5-0.1-0.7 0.1m-1.5 1.1c0 0.5 0.1 0.8 0.4 0.9-0.2-0.3-0.1-0.8 0.3-0.9-0.2-0.2-0.4-0.1-0.7 0m2.4 0c0 0.2 0.4 0.7 0.6 0.5-0.3-0.2 0-0.3 0-0.6-0.3-0.1-0.4 0.1-0.6 0.1m-4.1 0.6c0.1 0.2 0.6 0.2 0.7-0.1-0.4 0-0.2-0.2-0.2-0.5-0.3 0.2-0.5 0.3-0.5 0.6m3.2-0.1c0.2 0 0.3 0 0.5-0.1v-0.3c-0.2 0.1-0.5 0.1-0.5 0.4m-0.5 2.1c0.2-0.1 0.6 0.1 0.6-0.1-0.4-0.2 0.1-0.5 0.1-0.8-0.4 0.1-0.7 0.5-0.7 0.9m-2.9-0.7v0.3c0.1 0.1 0.7 0.1 0.7-0.3-0.4-0.2-0.4-0.1-0.7 0m1.5 0.1c0.1 0.3 0 0.7 0.4 0.7-0.2-0.4 0.1-0.4 0.2-0.8-0.3 0-0.5 0-0.6 0.1m2.5 1.1c0 0.3 0.2 0.6 0.5 0.8-0.1-0.4-0.1-0.8 0.2-1-0.3-0.1-0.5 0-0.7 0.2m-4.3 0.6c0.2 0.1 0.4 0.1 0.6 0.1-0.1-0.2-0.1-0.5 0-0.8-0.4 0.1-0.5 0.4-0.6 0.7m-2.7 0h0.4c-0.1-0.1 0.1-0.5-0.1-0.5-0.1 0.3-0.5 0.2-0.3 0.5m1.5 0.3c0-0.2 0.1-0.2 0.1-0.4h-0.6c-0.1 0.4 0.2 0.4 0.5 0.4m4.3 0.5h0.4c-0.1-0.2 0.2-0.7-0.2-0.6 0 0.3-0.3 0.2-0.2 0.6m-1.4 1.2c0-0.3-0.2-0.4-0.3-0.7 0.2-0.2 0.3-0.5 0.5-0.8-0.4 0-0.7 0.3-0.7 0.7s0.2 0.7 0.5 0.8m-5.9-0.6c0.3 0 0.4-0.1 0.5-0.3-0.3-0.1-0.5 0.1-0.5 0.3m0.8 0.1c0.2 0.1 0.4 0.1 0.5-0.1-0.3-0.1 0.1-0.2 0-0.4-0.2 0.1-0.5 0.2-0.5 0.5m3 0.6c0.2 0.2 0.2 0.1 0.6 0.1-0.3-0.3 0.2-0.7-0.1-0.9-0.2 0.2-0.4 0.5-0.5 0.8m-4.6 0.5c0.3 0.1 0.3-0.1 0.6-0.1 0-0.2 0.1-0.6-0.2-0.5-0.1 0.2-0.5 0.1-0.4 0.6m7.2 0.4c0.2-0.1 0.5 0 0.6-0.2-0.4-0.1 0.1-0.4 0-0.8-0.4 0.2-0.7 0.6-0.6 1m-4.4-0.2c0.1 0.1 0.4 0.5 0.6 0.3-0.3-0.2 0-0.4 0.1-0.7-0.3 0-0.5 0.1-0.7 0.4m5.8-0.2c-0.1 0.3 0.3 0.7 0.6 0.5-0.4-0.3 0.2-0.4 0.3-0.7-0.4-0.1-0.5 0.1-0.9 0.2m-7.5 0.8c0.2 0.2 0.3 0 0.6 0-0.2-0.3 0.1-0.6-0.2-0.7 0 0.3-0.4 0.3-0.4 0.7m-1.5-0.1c-0.1 0.5 0.7 0.2 0.8 0-0.4 0.1-0.5-0.2-0.8 0m4.7 1c0.2 0 0.4-0.1 0.5-0.3-0.4 0 0.1-0.2 0-0.5-0.4 0.1-0.7 0.5-0.5 0.8m1.2 0c0.1 0.1 0.4 0.4 0.6 0.1-0.3-0.3 0.2-0.4 0.3-0.7-0.4 0.1-0.7 0.4-0.9 0.6m-6.3 0.5c0.2 0.2 0.9 0.1 0.8-0.3-0.2 0.2-0.8 0-0.8 0.3m7.4 0.9c0.2 0 0.6 0.1 0.6-0.2-0.5-0.1 0.2-0.6-0.1-0.8-0.2 0.3-0.5 0.5-0.5 1m-5.8-0.3c0.5 0.1 0.5-0.4 0.7-0.6-0.5 0-0.9 0.3-0.7 0.6m7.1-0.1c0 0.4 0.4 0.3 0.6 0.5 0.1-0.3-0.2-0.3 0.1-0.7-0.3 0-0.4 0.2-0.7 0.2m-8.8 0.3c0 0.4 0.6 0.3 0.6-0.1-0.2-0.1-0.4 0-0.6 0.1m3.3 0.5c0.1 0.1 0.1 0.3 0.4 0.3-0.1-0.5 0.2-0.4 0.2-0.8-0.3 0.2-0.6 0.2-0.6 0.5m1.1 0.9c0.6 0 0.3-0.4 0.7-0.8-0.5 0-0.7 0.3-0.7 0.8m-3.2 0.3c0.5 0 0.5-0.6 0.8-0.8-0.5 0-1.1 0.3-0.8 0.8m4.6-0.7c0 0.3 0.1 0.5 0.4 0.5-0.1-0.4 0.2-0.4 0.3-0.7-0.4-0.1-0.4 0.2-0.7 0.2m-6.3 0.1c0 0.5 0.9 0.3 0.8-0.1-0.4-0.1-0.5 0.1-0.8 0.1m-0.4 1.1c0.3 0 0.5 0 0.5-0.4-0.3 0-0.5 0.1-0.5 0.4m7.7 0.6c0.7 0.4 0.4-0.2 0.7-0.8-0.4 0.1-0.5 0.5-0.7 0.8m1.4 0.3c0.1 0.1 0.5 0.4 0.6 0.2-0.6-0.2 0.3-0.5 0-0.8-0.1 0.3-0.6 0.1-0.6 0.6m-4.5 0.1c0.1 0.1 0.3 0.1 0.5 0.1 0.2-0.2-0.1-0.3 0.1-0.5-0.3 0-0.6 0-0.6 0.4m-4.7-0.2c0 0.5 0.8 0.3 0.8-0.1-0.4-0.1-0.4 0.1-0.8 0.1m3.6 0.2c0 0.3 0.2 0.3 0.4 0.4 0-0.3 0.2-0.3 0.2-0.6-0.4-0.1-0.3 0.2-0.6 0.2m-1.8 0.1c-0.1 0.2-0.3 0.3-0.1 0.5 0.2-0.2 0.5-0.3 0.7-0.6-0.3 0-0.3 0.2-0.6 0.1m-1.4 0.4c0-0.3-0.2-0.3-0.5-0.3 0 0.3 0.2 0.3 0.5 0.3m5.7 0.2c0 0.4 0.1 0.6 0.5 0.7-0.3-0.5 0.2-0.7 0.3-1-0.3 0-0.5 0.2-0.8 0.3m-6.6 0.8c0.1 0.1 0.7 0.2 0.7-0.2-0.3 0-0.7-0.1-0.7 0.2m4.7 0.7c0.2 0 0.5 0 0.5-0.2-0.5-0.2 0.2-0.4 0.2-0.7-0.6 0.1-0.8 0.4-0.7 0.9m3.2 0.1h0.4c0.1-0.2-0.1-0.4 0.1-0.7-0.4 0.1-0.5 0.4-0.5 0.7m1.2 0c0.2 0.1 0.4 0.1 0.6 0.1-0.1-0.4 0.3-0.2 0.3-0.5-0.5 0-0.9 0-0.9 0.4m-5.7 0.1c0 0.1 0.4 0.3 0.5 0.1-0.3-0.2 0.2-0.3 0.2-0.5-0.4 0.1-0.7 0.1-0.7 0.4m-1.9 0.6c0.5 0.1 0.5-0.4 0.8-0.6-0.4 0.1-0.8 0.1-0.8 0.6m-1.9 0c0.3 0.2 0.7 0.1 0.9-0.2-0.1-0.1-0.8-0.1-0.9 0.2m6.3 1.1c0.1 0.2 0.2 0.2 0.5 0.3-0.3-0.4 0.3-0.6 0.1-0.8-0.1 0.2-0.6 0.1-0.6 0.5m-5.7-0.2c0-0.3-0.2-0.3-0.5-0.3 0 0.3 0.2 0.3 0.5 0.3m3.9 0.5c0.5 0.3 0.6-0.5 0.8-0.8-0.3 0.1-0.7 0.4-0.8 0.8m3 0.6h0.4c0-0.2 0.4-0.7 0-0.7 0 0.4-0.4 0.3-0.4 0.7m-4.4 0.1c0.2 0.1 0.2 0.3 0.6 0.2-0.2-0.4 0.1-0.5 0.2-0.8-0.4 0.1-0.7 0.2-0.8 0.6m5.7-0.2c0 0.3 0.3 0.4 0.6 0.6-0.2-0.4-0.1-0.4 0.1-0.8-0.4-0.1-0.5 0.1-0.7 0.2m-9.1 0.2c0.4 0 0.9 0 0.9-0.4-0.2 0.2-0.9-0.1-0.9 0.4m1.8 0.3c0.5-0.1 0.7-0.4 0.9-0.7-0.4 0.1-0.8 0.2-0.9 0.7m2.6 0.7c0.1 0.2 0.4 0 0.6-0.1-0.2 0 0.1-0.2 0-0.4-0.3 0.2-0.5 0.2-0.6 0.5m-3.9-0.1c-0.2-0.1-0.3-0.2-0.6-0.2-0.1 0.3 0.6 0.4 0.6 0.2m5.6 0.4c0 0.3-0.2 0.9 0.3 0.8-0.3-0.5 0.4-0.8 0.2-1.2-0.1 0.3-0.3 0.3-0.5 0.4m-6.5 0.6c0 0.5 0.8 0.1 0.9-0.1-0.4 0-0.5 0.2-0.9 0.1m1.6 0.3c0.2 0.2 0.8 0.1 0.9-0.1-0.2-0.2-0.9-0.2-0.9 0.1m6.4-0.1c0-0.1-0.2-0.1-0.4-0.1-0.2 0.3 0.5 0.4 0.4 0.1m-4.6 0.5c0.2 0 0.2 0.2 0.5 0.1-0.1-0.3 0.1-0.4 0.1-0.7-0.3 0.1-0.5 0.3-0.6 0.6m5.2 0c0.2 0.3 0.8-0.2 0.6-0.4-0.2 0.3-0.5 0.2-0.6 0.4m-8.5 0.4c0.1 0.1 0.7 0.2 0.7-0.1-0.3 0-0.3-0.3-0.6-0.5-0.2 0.2-0.2 0.4-0.1 0.6m4.5-0.1c0.2 0.2 0.7 0 0.7-0.4-0.3 0-0.5 0.2-0.7 0.4m-3.3 0.7c0.1 0.4 1.1 0.2 1.1-0.1-0.4 0-0.9-0.1-1.1 0.1m4.5 0.4c0 0.3 0.1 0.5 0.4 0.5-0.2-0.4 0.4-0.6 0.2-0.8-0.2 0.2-0.5 0.2-0.6 0.3m2.2 0c0 0.3 0.2 0.7 0.4 0.5-0.4-0.2 0.3-0.5 0-0.7 0 0.2-0.3 0.1-0.4 0.2m-8.3 0.5c0.4 0 0.8-0.2 0.9-0.6-0.4 0.2-0.9 0.2-0.9 0.6m3.2 0.6c0.1 0.1 0.3 0.1 0.5 0.2-0.3-0.3 0.2-0.6 0-0.8-0.2 0.2-0.5 0.2-0.5 0.6m3.9 0.1c0.3 0 0.4-0.3 0.4-0.6-0.3 0-0.6 0.3-0.4 0.6m-5.7 0.3c0.4 0 0.8 0 0.8-0.4-0.2 0.2-0.9-0.1-0.8 0.4m3 0.6c0.6 0 0.6-0.6 0.9-0.8-0.4 0-0.8 0.4-0.9 0.8m3 0.1c0.1 0 0.1 0.1 0.1 0.2 0.3 0 0.8-0.5 0.6-0.8-0.1 0.4-0.7 0.3-0.7 0.6m-7.9 0.1c0.4 0.1 0.7-0.1 0.9-0.4-0.3 0.1-0.9 0-0.9 0.4m5.9 0.3c0.2 0.1 0.3 0.2 0.5 0.3-0.2-0.4 0.2-0.5 0.3-0.8-0.3 0-0.6 0.2-0.8 0.5m-5.2 0.3c-0.2-0.2-0.4-0.2-0.7-0.2-0.1 0.3 0.6 0.3 0.7 0.2m2.5 0.5c0.1 0.2 0.3 0.2 0.5 0.2-0.1-0.3 0.3-0.5 0-0.7-0.1 0.3-0.5 0.2-0.5 0.5m-1.9 0.1c0.3 0.2 0.6 0.1 0.8-0.2 0-0.1 0.1-0.1 0.1-0.2-0.3 0.2-0.7 0.1-0.9 0.4m5.6 0.9c0.3 0.1 0.5-0.5 0.3-0.7-0.1 0.2-0.5 0.4-0.3 0.7m-2.4-0.2c0.3 0 0.8 0.1 0.8-0.3-0.4 0-0.9-0.1-0.8 0.3m1 0.3c0.1 0 0.2 0 0.3 0.1 0-0.3 0.5-0.6 0.1-0.7 0 0.2-0.4 0.2-0.4 0.6m-6 0c0.1 0.1 1.1 0 0.8-0.3-0.1 0.2-0.6 0-0.8 0.3m0 1c0.1 0.1 0.3 0.1 0.5 0.1 0.1-0.4-0.5-0.4-0.5-0.1m4.4 0.1c0.1 0.2 0.8 0.2 0.7-0.2-0.2 0.1-0.7-0.2-0.7 0.2m-3 0.4c0.4 0 0.7-0.1 0.8-0.5-0.3 0.2-0.8 0.1-0.8 0.5m3.9 0.4c0 0.2 0.1 0.4 0.3 0.4-0.1-0.4 0.5-0.7 0.3-0.9-0.1 0.2-0.3 0.5-0.6 0.5m-2.5 0c0.2 0 0.2 0.1 0.4 0.1 0-0.3 0.3-0.2 0.2-0.6-0.3 0.1-0.4 0.3-0.6 0.5m-3.2 0.4c0.3 0 0.6 0 0.8-0.1 0-0.1 0-0.3-0.1-0.3-0.2 0.2-0.7 0-0.7 0.4m4.2 1.2c0.4 0.2 0.7-0.2 0.8-0.7-0.4 0.2-0.7 0.4-0.8 0.7m-4.3-0.2h0.5v-0.4c-0.3 0.1-0.5 0.1-0.5 0.4m1.1 0.1c0.3 0.2 0.6 0.1 0.8-0.2 0-0.1 0.1-0.1 0.1-0.2-0.4 0.1-0.6 0.2-0.9 0.4m1.6 1c0.1 0.1 0.3 0.1 0.5 0.1 0-0.2 0.3-0.6 0.1-0.7-0.1 0.4-0.5 0.4-0.6 0.6m-2.8-0.2h0.6v-0.2h-0.6v0.2zm0.7 1.3c0.3 0.1 0.8-0.2 0.5-0.4-0.1 0.2-0.6 0-0.5 0.4m-0.4 0.3c-0.3 0.1-0.3-0.2-0.6-0.2-0.2 0.4 0.5 0.5 0.6 0.2m3.1 0c0.1 0.1 0.3 0.1 0.4 0v-0.1c-0.1-0.2-0.4-0.2-0.4 0.1m-1.4 0.4c0.1 0.1 0.2 0.2 0.4 0.2-0.1-0.4 0.5-0.5 0.2-0.8-0.1 0.4-0.5 0.3-0.6 0.6m-2.6 1.1c0.1 0.2 0.7 0.1 0.6-0.2-0.2 0-0.7-0.2-0.6 0.2m1 0.1c0.1 0 0.1 0.1 0.2 0.2 0.2 0 0.5 0 0.5-0.3-0.4 0.1-0.7-0.3-0.7 0.1m1.3 0.8c0.3 0 0.5-0.6 0.3-0.8-0.2 0.3-0.3 0.5-0.3 0.8m-2.7 0.7c0.3 0.1 0.5-0.1 0.6-0.4v-0.1c-0.2 0-0.2-0.1-0.4-0.1 0 0.2-0.2 0.3-0.2 0.6m1.8 0.5c0-0.3-0.2-0.3-0.5-0.3 0 0.3 0.3 0.3 0.5 0.3m0.4 0.1c0.2 0.3 0.7-0.2 0.4-0.4-0.1 0.2-0.4 0.2-0.4 0.4m-1.5 0.7c-0.1-0.2-0.2-0.5-0.5-0.6 0 0.4 0.1 0.6 0.5 0.6m0.1 0.7c-0.3 0.2-0.5 0-0.8 0-0.1 0.4 0.9 0.5 0.8 0"/>
	<path class="st2" d="m45.9 42.9c0.1-0.1 0.8 0.6 1.1 0.1-0.5 0-0.9-0.4-1.4-0.7-1.3-3.2-0.3-7.8-0.1-12 0-3.1 0.5-6.2 1.4-9.2 0.3-0.9 0.8-1.8 1.1-2.6 0.5-1.4 0.9-2.8 1.8-3.7 0.7-0.6 1.4-1.1 2.2-1.6 0.5-0.3 1-0.4 1.6-0.5 0.9 0.1 1.7 2 1.9 3.2 0.3 2.4-0.6 4.8-0.8 6.5-0.5 3.1-0.8 6.1-1.5 9.2-0.6 2.2-1.4 4.3-2.3 6.4-0.7 1.9-1.7 5-3 5.6-0.1 0-0.7-0.3-0.8 0.1-0.6-0.1-1-0.4-1.2-0.8m7.9-29.1c-0.1-0.1-0.2-0.4-0.6-0.3 0 0.3 0.5 0.5 0.6 0.3m-1.9 0.4c0.1 0 0.2 0 0.3 0.1 0.1-0.2 0.2-0.4 0.2-0.6-0.4 0-0.5 0.3-0.5 0.5m2.6 1.5v-0.4c-0.1-0.1-0.3-0.1-0.5-0.1 0.1 0.3 0.3 0.5 0.5 0.5m-4.4 0.1h0.5v-0.5c-0.4 0.1-0.5 0.2-0.5 0.5m1.1 0.1c0.2 0.2 0.3 0.1 0.7 0.1v-0.5c-0.4 0-0.5 0.3-0.7 0.4m-2.1 1.3c0 0.2 0.1 0.4 0.3 0.4 0.2-0.2-0.2-0.5 0.3-0.5-0.2-0.3-0.1-0.4 0.1-0.7-0.8-0.1-0.4 0.7-0.7 0.8m3.5-0.2c0.2 0.2 0.8 0.2 0.8-0.2-0.3-0.1-0.6 0-0.8 0.2m-1.8 0.4c0.2 0.2 0.8 0.1 0.8-0.3-0.3 0.1-0.7 0-0.8 0.3m3.1 0.4c0 0.3 0.2 0.3 0.4 0.5-0.1-0.4 0.2-0.3 0.2-0.6-0.3-0.1-0.3 0.2-0.6 0.1m-1.2 0.2c0 0.4 0.5 0.3 0.8 0.2-0.2-0.1-0.5-0.4-0.8-0.2m-4 0.4c0 0.1 0.8 0.2 0.7-0.1-0.1-0.2-0.8-0.2-0.7 0.1m1.9 0.7c0.4 0.1 0.7-0.3 0.5-0.6-0.2 0.2-0.6 0.2-0.5 0.6m-1.5-0.2h-0.4c0 0.1 0 0.2 0.1 0.3 0.1 0 0.2 0 0.3-0.1v-0.2m2 0.8h0.4c-0.1-0.2 0.2-0.7-0.2-0.6-0.1 0.2-0.1 0.4-0.2 0.6m2.7-0.3c0 0.3 0.1 0.4 0.4 0.4-0.1-0.3 0.1-0.2 0.1-0.5-0.1 0-0.3 0-0.5 0.1m-1.7 0.2c0 0.4 0.6 0.6 0.8 0.5-0.3-0.1-0.5-0.3-0.2-0.6-0.3 0-0.3 0.2-0.6 0.1m-3 0h-0.8c-0.1 0.5 0.7 0.3 0.8 0m4.7 0.7c0 0.4 0.6 0.2 0.7-0.1-0.2 0-0.5 0-0.7 0.1m-5.5 0.3c0.1 0.1 0.5 0.1 0.5-0.2-0.2 0-0.5 0-0.5 0.2m1.4 0.6c0.4 0.2 1.2-0.4 1-0.7-0.3 0.3-0.8 0.3-1 0.7m-2-0.1c0.1 0.6 1 0.1 1.1-0.1-0.4 0-0.8 0-1.1 0.1m5.7 0.2c0 0.3 0.2 0.4 0.5 0.5 0-0.2 0-0.4 0.1-0.6-0.3-0.1-0.4 0.1-0.6 0.1m-2.6 0.6c0.6-0.1 1-0.3 1.6-0.5-0.7 0-1.5-0.1-1.6 0.5m-2.9 0.5c0.3 0 0.4-0.1 0.4-0.5-0.2 0.1-0.5 0.3-0.4 0.5m5.6 0.3h0.4c0-0.1 0-0.3 0.1-0.4-0.4 0-0.5 0.1-0.5 0.4m-4.3 0.6h0.6c-0.1-0.3 0.3-0.3 0.4-0.7-0.5 0.1-1 0.2-1 0.7m-2.1-0.3c0.4 0.2 0.8 0 1.3 0.1 0-0.4-1.2-0.5-1.3-0.1m4.4 0.2c0.1 0.2 0.6 0 0.8-0.1-0.1-0.1-0.9-0.3-0.8 0.1m1.5 0.4c0.3 0.3 0.7-0.3 0.5-0.5-0.1 0.3-0.5 0.2-0.5 0.5m-5.6 0.3c0.2 0 0.1 0.3 0.4 0.2v-0.4c-0.3 0-0.4 0-0.4 0.2m3-0.1c0 0.4 0.6 0.3 0.6-0.1-0.3 0-0.5 0-0.6 0.1m-1.1 0.3c-0.1 0.3 0.2 0.2 0.4 0.2v-0.3c-0.1 0-0.2 0-0.4 0.1m3.5 0.6c0.2 0.1 0.5 0.1 0.6-0.1v-0.1c-0.2 0.1-0.6 0-0.6 0.2m-5.9 0.2c0.3 0.1 1 0.1 1.1-0.3-0.4 0-0.8 0.1-1.1 0.3m4.3 0c0.3 0.1 0.8 0.5 1 0.4-0.3-0.1-0.3-0.5-0.7-0.7 0.1 0.3-0.4 0-0.3 0.3m-2.4 0.3c0 0.4 0.9 0.2 0.8-0.1-0.3 0-0.7 0-0.8 0.1m3.8 0.3c0 0.1 0.5 0.3 0.6 0.1-0.1 0-0.1-0.2-0.1-0.4-0.2 0-0.5 0-0.5 0.3m-2.6 0.3c0.1 0.1 0.5 0.1 0.5-0.2-0.3 0-0.5 0-0.5 0.2m-2.9 0c0 0.1 0 0.2 0.1 0.3 0.2 0 0.2-0.1 0.4-0.1 0-0.3-0.4-0.4-0.5-0.2m1.9 0.6v0.3c0.3 0.1 0.6-0.3 0.3-0.4-0.1 0.1-0.2 0.1-0.3 0.1m-2.1 0.5c0.2 0.2 0.8 0 0.7-0.4-0.3 0.1-0.6 0.1-0.7 0.4m3.9 0.1c0.3 0.1 0.4-0.1 0.8 0 0-0.4-0.8-0.3-0.8 0m1.4 0.7c0 0.3 0.2 0.3 0.5 0.3 0-0.5 0.4-0.6 0.7-0.8-0.2-0.1-0.4-0.1-0.6-0.1-0.1 0.3-0.2 0.6-0.6 0.6m-3.7 0c0.4 0 0.8-0.1 1.1-0.4-0.5 0.1-1.1 0-1.1 0.4m0.9 0c0 0.1 0 0.2 0.1 0.3 0.1 0 0.2 0 0.3-0.1v-0.1c-0.2-0.3-0.1-0.1-0.4-0.1m-3.1 0.8c0.5 0 1.1 0 1-0.6-0.1 0-0.2 0-0.3-0.1 0.1 0.5-0.6 0.3-0.7 0.7m4.4 0.1c0.3-0.1 0.4 0.1 0.7 0.1 0.1-0.3-0.3-0.1-0.2-0.5-0.3 0-0.6 0.1-0.5 0.4m1.7 0.6c0.2 0.2 0.7 0.1 0.7-0.2-0.3 0-0.6-0.1-0.7 0.2m-2.2 0.2c0.2 0 0.1 0.3 0.4 0.2 0.3-0.2-0.3-0.6-0.4-0.2m-2.1 0.1c0.1 0.2 0.6 0 0.8 0.1 0.1-0.2-0.8-0.4-0.8-0.1m-2.2 0.3c0 0.5 1.2 0.2 1.4 0h-1.4m5.7 0.4c0.1 0.1 0.2 0.3 0.5 0.3-0.1-0.3 0.2-0.5 0.1-0.8-0.1 0.3-0.6 0.2-0.6 0.5m-3.5-0.2c-0.1 0.3 0.4 0.5 0.6 0.3-0.2 0-0.1-0.4-0.4-0.4 0 0.1-0.1 0.1-0.2 0.1m1.9 0.7c0.3 0.1 0.7 0 0.9-0.3-0.4 0-0.8 0-0.9 0.3m2.3 0.3c0.4 0.1 0.5-0.1 0.5-0.4h-0.3c0 0.3-0.2 0.2-0.2 0.4m-3.5 0.7c0.3 0 0.5-0.3 0.5-0.7-0.3 0.1-0.5 0.3-0.5 0.7v0m-1.2-0.4c0.2 0.5 0.8 0.3 1.1 0-0.6 0-0.6-0.1-1.1 0m-1.4 0.3c0.1 0.1 1 0.1 1-0.2-0.3 0.1-1-0.2-1 0.2m3.8 0.3c0.3 0 0.5 0 0.5-0.4-0.2 0.1-0.6 0-0.5 0.4m-0.5 0.6c0.4 0.1 0.7 0 1 0.3 0-0.1 0.1-0.1 0.2-0.1-0.2-0.3 0.1-0.6-0.2-0.7 0 0.5-0.8 0-1 0.5m1.6 0.1c0.1 0.2 0.3 0.2 0.5 0.2-0.1-0.3 0.1-0.5 0.2-0.7-0.3 0.2-0.6 0.2-0.7 0.5m-3.2-0.1c0.2 0 0.4 0 0.4-0.3-0.2 0-0.4 0.1-0.4 0.3m-1.9 0.5c0.1 0 0.1 0.1 0.1 0.2 0.3-0.1 1 0 0.8-0.4 0 0.1-0.8-0.2-0.9 0.2m5.5 0.5c0.3 0.1 0.6-0.5 0.2-0.6 0 0.3-0.4 0.3-0.2 0.6m-1.7 0c0.2 0.2 0.9-0.2 0.6-0.5-0.1 0.3-0.6 0.1-0.6 0.5m-1.4 0.2c-0.2-0.2-0.6-0.1-0.9-0.1-0.1 0.4 0.8 0.2 0.9 0.1m-2.4 1c0.5 0 1.2 0.1 1.3-0.4-0.4 0.2-0.8 0-1.3 0v0.4zm2.6 0c0.1 0.5 0.8 0.4 1.3 0.5-0.1-0.3 0.3-0.1 0.2-0.5-0.5-0.1-0.6 0.5-0.8 0.1 0-0.1 0.4-0.3 0-0.3-0.2 0.1-0.5 0.2-0.7 0.2m2 0.2c0.2 0.2 0.2 0.1 0.6 0.1v-0.5c-0.4 0-0.4 0.3-0.6 0.4m-2.3 0.8c0-0.4-0.4-0.3-0.8-0.4 0.1 0.4 0.4 0.4 0.8 0.4m-2.7 0.1c0.2 0.1 1.1 0.5 1.1 0-0.5 0.2-0.8-0.5-1.1 0m4.8 0.3c0 0.2 0.2 0.2 0.4 0.2-0.1-0.2 0.3-0.4 0-0.6-0.1 0.2-0.5 0.1-0.4 0.4m-1.2 0.8h0.7c0-0.3-0.4-0.2-0.1-0.5-0.4 0.1-0.6 0.2-0.6 0.5m-1.9-0.1c-0.1 0.4 0.8 0.4 0.8 0.1-0.2 0-0.4-0.2-0.8-0.1m-1.6 0.4c0.1 0.5 0.9 0.2 1.3 0.4-0.2-0.4-1-0.5-1.3-0.4m4.1 0.6c0 0.3 0.1 0.5 0.4 0.5-0.1-0.4 0.2-0.4 0.2-0.7-0.3 0-0.3 0.2-0.6 0.2m-1.2 0.5c0.2 0.2 0.7 0.3 0.8 0-0.5 0 0.3-0.4-0.1-0.5-0.1 0.2-0.6 0.2-0.7 0.5m-0.7 0.6c-0.1-0.3-0.4-0.4-0.8-0.4 0 0.5 0.5 0.4 0.8 0.4m-2.2 0.1c0.1 0.2 1.2 0.4 1.2-0.1-0.5 0.1-1-0.3-1.2 0.1m3 0.5c0 0.2 0.1 0.4 0.3 0.4 0-0.4 0.2-0.4 0.3-0.7-0.2 0-0.4 0.2-0.6 0.3m0.8 0.8c-0.1-0.4 0.5-0.7 0.2-1 0 0.3-0.8 0.8-0.2 1m-3.8-0.3c0.4 0.2 1 0.5 1.3 0-0.6 0.2-1-0.5-1.3 0m2.6 0.6c0.3 0.3 0.7 0 0.8-0.4-0.3 0.1-0.7 0.1-0.8 0.4m-2.6 0.3c-0.1 0.4 0.9 0.4 0.9 0.1-0.5 0.1-0.5-0.4-0.9-0.1m1.7 0.5c0 0.4 0.3 0.3 0.6 0.2 0-0.1 0-0.3-0.1-0.4-0.1 0.2-0.3 0.2-0.5 0.2m0.9 1c0.6 0.1 0.7-0.7 0.7-0.8-0.2 0.2-0.5 0.5-0.7 0.8m-2.2-0.2c0.3 0 0.6 0 0.7-0.3-0.4 0-0.8-0.3-0.7 0.3m1.1 1c0.4 0.1 0.9-0.4 0.6-0.5-0.2 0.2-0.6 0.2-0.6 0.5"/>
	<path class="st0" d="m61.6 27.6c0.2 0.2-0.3 0.3-0.2 0.8-0.3 0-0.4-0.2-0.4-0.5 0.2-0.2 0.5-0.2 0.6-0.3"/>
	<path class="st0" d="m59.9 33.7c0.2 0.2-0.3 0.5-0.3 0.9-0.2 0-0.4-0.1-0.4-0.3 0.4-0.1 0.6-0.4 0.7-0.6"/>
	<path class="st0" d="m49 41.5c0 0.2-0.1 1-0.7 0.8 0.2-0.2 0.5-0.5 0.7-0.8"/>
	<path class="st2" d="m44.7 43.8c-0.2 0.3-0.7 0.3-0.8 0.8-0.1-0.3 0.3-0.8 0.8-0.8"/>
	<path class="st0" d="m53.1 44.7c1.2 0.3 2.4 0.7 3.6 1.3 1.9 1.1 4.4 3.3 4.3 5.9-1-0.1-1-1.1-1.4-1.7-0.9-1.5-2.5-2.3-4.5-3-0.4-0.2-0.9-0.6-1.3-0.8-0.6-0.2-1.4-0.3-2.2-0.5-1.1-0.2-2.3-0.3-3.5-0.3-0.3 0-0.9-0.5-1.3-0.4-0.8 0.2-1.2 2.9-1.2 3.8 0 0.5 0.3 1.2 0.3 2 0 1.3-0.5 3 0.1 4.4 0.1 0.4 0.4 0.8 0.8 1v0.7c2.3 0.4 4.5 1.2 6.4 2.5 1.8 1.1 3 2.8 4.5 4.4 1.5 1.5 2.8 3.2 4 4.9 1.4 1.8 2.3 3.9 2.6 6.1 0.2 1.8 0.3 3.1-0.5 4.4-1.6 1-2.7 2.2-4.5 2.6-2.1 0.3-4.2 0.5-6.3 0.5-3.9 0.2-7.7 0-11.5-0.5-2.8-0.3-5.4-0.5-6.9-2.1-2.9-3-2-8.9-1.4-13.1 0.2-1.3 0.7-2.6 1.3-3.8 0.7-1.2 1.5-2.4 2.5-3.4l1.5-1.5c1-0.9 2.3-1.4 3.7-1.4 0-1.4-0.5-3.5-0.1-5.1 0.1-0.3-0.2-0.3-0.3-0.5 0-0.3 0.5-0.2 0.5-0.5 0.1-1.8 0.5-3.7 1-5.4-1-0.6-1.5 0.7-2.4 0.6-0.7-0.1-0.8-0.8-1.2-1.5-0.4-0.1-0.2 0.4-0.5 0.4s-0.2-0.4-0.5-0.4c-1 0.5-2.1 0.4-3.1 0.8-1.3 0.5-2 1.6-3.1 2.2-0.3-0.2 0.3-0.7 0.5-0.8 0.9-0.9 2.1-1.5 3.3-1.8 0.5-0.9 1.5-0.3 2.2-0.9 0.4-0.1-0.1 0.3 0.2 0.3 0.4 0 0.1-0.6 0.7-0.5 0.5 0-0.2 0.4 0.1 0.4 0.6-0.3-0.2-1.1 0.3-1.7 0.6-0.5 1.5-0.3 2 0.3 0.2 0.3 0.3 0.7 0.2 1.1 1.3-0.3 2.6-0.4 3.9-0.2-2-3-1.1-8.6-0.8-13.1 0.1-0.8-0.1-1.6 0-2.4 0.2-2.5 0.8-4.9 1.6-7.2s1.6-5 2.6-6.1c0.9-0.9 2-1.6 3.1-2.2 3.1-0.9 3.6 4.4 2.9 7.2 1.7-3.7 2.1-7.5 4.7-10.1 0.8-0.8 1.6-1.8 2.4-2.5 0.6-0.6 1.6-1 2.4-1.7 1.1-0.9 1.9-2.1 3.5-2.2 1.6 0.3 1.7 2.5 1.5 4.6-0.1 1.7-0.7 3.6-0.9 5.4s-0.6 3.5-1.1 5.3c-0.9 3.2-2 6.4-3.3 9.5-0.7 1.5-1.2 3.1-2 4.4s-1.7 2.5-2.7 3.7c-2.5 2.8-3.5 6.9-6.7 8.6m-0.7-0.3c0.8-0.2 1.5-0.6 2.2-1.1 2.1-1.9 3-5.3 5.1-7.6 1.1-1.1 2-2.3 2.8-3.6 0.7-1.3 1.2-3 1.9-4.5 0.8-1.4 1.4-2.9 1.9-4.5 0.4-1.6 0.9-3.3 1.4-5 1-3.5 1.8-7 2.2-10.6 0.2-2-0.3-4.2-1.5-4.2-1 0-1.9 1.2-2.7 1.9-0.8 0.6-1.6 1.2-2.4 1.7-0.1 0.4 0.4 0.1 0.4 0.5-0.7-0.3-1.3 0.2-1.6 1.1-0.6 0.2-1.1 0.6-1.4 1.1-0.4 0.1 0.2 0.2-0.1 0.5-0.3 0.1-0.4-0.1-0.7 0.1-2.3 3.3-3.4 7.5-4.1 12.1-0.2 1.5-0.8 2.9-1.1 4.6-0.9 5.2-2.8 11.4-2.5 17.3-0.3-0.2 0.3 0.3 0.2 0.2m-5.5-0.6c0.2-0.4 0.8-0.1 0.8-0.1 1.3-0.6 2.3-3.7 3-5.6 0.9-2.1 1.7-4.2 2.3-6.4 0.7-3.1 1-6.1 1.5-9.2 0.2-1.6 1.1-4.1 0.8-6.5-0.1-1.2-1-3.1-1.9-3.2-0.6 0-1.1 0.2-1.6 0.5-0.8 0.5-1.5 1-2.2 1.6-0.9 0.9-1.2 2.3-1.8 3.7-0.3 0.8-0.8 1.8-1.1 2.6-0.9 3-1.4 6.1-1.4 9.2-0.2 4.2-1.2 8.9 0.1 12 0.5 0.2 0.9 0.7 1.4 0.7-0.3 0.5-1-0.2-1.1-0.1 0.4 0.3 0.8 0.6 1.2 0.8m8-20.4c0.3-0.7 0.4-1.4 0.3-2.2-0.2 0.8-0.3 1.5-0.3 2.2m-7 20.6c1.2 0.1 2.7 0.2 3.7 0.3-0.3-2.9 0.6-6.7 0.8-9.5-1.5 3-2.1 7-4.5 9.2m-6.1-0.7c0.1-1.5-3-0.9-1.5 0.8 0.8 0 1.4-0.1 1.5-0.8m2.1 1.3c0-0.5 0.5-0.5 0.8-0.8-0.5 0-0.9 0.5-0.8 0.8m-0.6 0.1c-0.1-0.4 0.1-0.6 0.2-0.8-0.5-0.1-0.8 0.8-0.2 0.8m2 0.2c0.2-0.2 0.4-0.5 0.5-0.8h-0.4c-0.1 0.2-0.1 0.5-0.1 0.8m1.4-0.5c0.1-0.2 0.3-0.2 0.4-0.4-0.3-0.1-0.7 0.3-0.4 0.4m-2.2 0.5c-0.2-0.3 0.3-0.7-0.1-0.7-0.1 0.3-0.2 0.7 0.1 0.7m4.5-0.4c0 0.3 0.1 0.6 0.4 0.6-0.3-0.4 0.3-0.6 0.1-0.8-0.2 0.1-0.4 0.1-0.5 0.2m-1.6 0.6c0.2 0 0.2 0.1 0.4 0.1-0.2-0.4 0.4-0.8 0-0.8-0.2 0.1-0.5 0.2-0.4 0.7m2.4 0.1c-0.1-0.5 0.2-0.6 0.3-0.8-0.4 0-0.6 0.6-0.3 0.8m-9.5 0.2c0.5 0.5 1.3 0.5 1.7 0 0.2-1.1-2-1.5-1.7 0m3.4-0.4c0.1-0.1-0.2-0.4-0.3-0.6 0.1 0.3 0 0.6 0.3 0.6m6.4-0.1c0.2 0 0.2 0.1 0.4 0.1-0.1-0.4 0.2-0.3 0.3-0.6-0.5-0.1-0.5 0.3-0.7 0.5m0.7 0.2c0.1 0.1 0.4 0.1 0.7 0.1 0-0.2 0-0.5 0.1-0.7-0.5 0-0.8 0.1-0.8 0.6m1.5 0.4c0.4 0.2 0.6-0.3 0.8-0.5-0.2-0.2-0.8 0-0.8 0.5m0.7 0.2c0.6 0.4 0.9-0.2 1.2-0.6-0.4-0.2-0.9 0-1.1 0.4-0.1 0.1-0.1 0.2-0.1 0.2m0.9 0.5c0.2 0 0.2 0.1 0.4 0.1 0.1-0.5 0.7-0.5 1-0.7-0.3-0.3-0.8-0.3-1.2 0-0.1 0.2-0.2 0.4-0.2 0.6m-10.9 2.9c-0.2 0.6-0.3 1.2-0.3 1.9 0 0.3 0.3 0 0.3 0.2-0.2 0.2-0.5 0.3-0.6 0.7-0.1 1.7 0 3.4 0.3 5.1 0.5 0.2 1.1 0.2 1.6-0.1-0.4-1.5-0.3-3.5-0.6-5.2-0.2 0-0.4 0.2-0.5-0.1 0-0.3 0.7 0 0.6-0.5-0.1-2.1 0-4.1 0.9-5.5-1.7-0.3-1.4 1.8-1.7 3.5m1.3 2.2c-0.4 1.5 0 4.2 0.5 5.7 0.5 0 1 0.1 1.5 0.2-0.6-1.7-1.3-3.3-0.8-5.5 0-0.2-0.4 0-0.4-0.3s0.5-0.1 0.4-0.6c-0.2-1.8 0-3.6 0.7-5.3-2.4 0.2-2.2 4-1.9 5.8m11-4.5c0.2 0.1 0.6 0.4 0.8 0.2-0.4-0.4 0.3-0.6 0.5-0.8-0.6-0.6-1.1 0-1.3 0.6m-0.6-0.5c0.1 0 0.1 0.1 0.1 0.2 0.3 0 0.4-0.3 0.6-0.5-0.4 0-0.6 0.1-0.7 0.3m2.4 1.3c0.1-0.3 0.6-0.3 0.8-0.6-0.4-0.7-1.6 0-0.8 0.6m0.5 0.2c0.2-0.2 0.8 0 0.8-0.4-0.2-0.1-0.5-0.1-0.7 0.1-0.1 0.1-0.1 0.2-0.1 0.3m0.5 0.5c0.3 0.2 0.7-0.1 0.8-0.3-0.2-0.3-0.9-0.2-0.8 0.3m0.6 0.2c0.4 1.2 1.2-0.7 0 0m0.9 0.8c0-0.2 0.4-0.1 0.3-0.4-0.1 0-0.1-0.1-0.3-0.1-0.1 0.1-0.2 0.5 0 0.5m0.3 0.6c0-0.1 0.1-0.1 0.2-0.2 0-0.1-0.1-0.3-0.2-0.4-0.1 0.1-0.1 0.3 0 0.6v0m0 0.4c0 0.6 0.8-0.1 0.3-0.2 0 0.1-0.1 0.2-0.3 0.2m0.9 1.3c-0.2-0.2-0.1-0.4-0.1-0.8-0.2 0-0.4 0-0.6-0.1 0.1 0.4 0.4 1 0.7 0.9m0.2 23.2c0-1.4-0.3-2.7-0.8-4-0.7-1.4-2.7-3.2-3.8-4.9-1.3-1.9-2.5-4-4.1-5.2-2.4-1.8-5.2-2.8-8.2-2.9-0.7 0-1.4 0-2.2 0.2-0.4 0.1-0.8 0.6-1.3 0.9s-1.1 0.6-1.4 0.8c-1.6 1.3-2.7 3.6-3.8 5.5-0.4 0.8-0.9 1.6-1.2 2.3-0.6 1.5-0.8 3.1-0.7 4.7 0.5 2 1.4 3.9 2.5 5.6 0.4 0.6 0.8 1.8 1.3 2.2 1.1 0.7 4.4 0.8 6.1 0.9 3.4 0.2 6.9 0.2 10.3 0 3.2-0.2 6.3 0.2 7.3-1.9 0.1-1.3 0.1-2.8 0-4.2"/>
	<path class="st2" d="m50.1 44.3c-0.1 0.3-0.4 0.3-0.3 0.8-0.3-0.1-0.1-0.7 0.3-0.8"/>
</svg>
