<?xml version="1.0" encoding="utf-8"?>
<!-- Generator: Adobe Illustrator 27.3.1, SVG Export Plug-In . SVG Version: 6.00 Build 0)  -->
<svg version="1.1" id="Layer_1" xmlns="http://www.w3.org/2000/svg" xmlns:xlink="http://www.w3.org/1999/xlink" x="0px" y="0px"
	 viewBox="0 0 595.3 841.9" style="enable-background:new 0 0 595.3 841.9;" xml:space="preserve">
<style type="text/css">
	.st0{fill:#FEFEFF;}
	.st1{fill:#00BEF3;}
	.st2{fill:#67D8F7;}
	.st3{fill:#009BBB;}
	.st4{fill:#00A4C8;}
	.st5{fill:#0590AA;}
</style>
<g>
	<g>
		<path class="st0" d="M267,482.9c-28,0-56,0-84,0c-0.8,0-1-0.1-1-1c0-40.3,0-80.6,0-120.9c0-1,0.3-1.1,1.1-1.1
			c76.3,0,152.5,0,228.8,0c0.8,0,1.1,0.1,1.1,1.1c0,40.3,0,80.6,0,120.9c0,0.9-0.2,1-1,1c-25.6,0-51.1,0-76.7,0
			c-0.1-0.7,0.1-1.2,0.9-1.2c1.4,0,2.8-0.4,4.2-0.6c1.4-0.2,2.9,0,4.3-0.3c2.5-0.6,5-1.1,7.5-1.7c1.6-0.4,3.3-0.6,4.8-1.3
			c1.9-0.9,4-1.3,5.8-2.4c1.4-0.9,3.2-1.2,4.7-1.9c2.6-1.3,5-2.9,7.6-4.2c1.3-0.6,2.6-1.4,3.8-2.4c0.9-0.8,1.7-1.7,2.8-2.4
			c3.3-2.1,5.9-5.1,8.4-8c1.9-2.2,3.6-4.6,4.9-7.3c1.4-2.9,3.4-5.4,4.5-8.5c1-2.8,1.9-5.5,2.7-8.3c0.5-1.6,0.8-3.4,0.4-5.1
			c0-0.7,0.1-1.5,0.1-2.2c0.8-0.6,1.4-0.8,1.6,0.7c0.8-2.5,0.5-4.8,0.7-7c0.2-2.5,0.1-5.1,0.1-7.6c0-3.7,0.1-7.3-0.6-11
			c0-0.2,0.1-0.5-0.3-0.6c-0.5-0.1-0.4,0.3-0.4,0.6c-0.1,0.5-0.2,1.1-0.4,1.6c-0.2,0.6-0.4,0-0.6,0c-0.1-0.7-0.1-1.5-0.2-2.2
			c0.3-0.2,0.2-0.5,0.2-0.8c-0.3-1.8-0.5-3.6-1.2-5.3c-1.1-2.8-2.6-5.2-4.7-7.2c-2.4-2.5-5.3-4.5-8.7-5.6c-0.4-0.1-0.8-0.4-1.2-0.7
			c-1.6-1.3-3.4-1.6-5.3-1.2c-0.2,0-0.3,0-0.5,0c-0.3-0.3-0.5-0.3-0.8,0c-1.2,0.2-2.3-0.4-3.5-0.3c-0.6-0.4-1.2-0.4-1.8,0
			c-1.1,0-2.3,0-3.4,0c-0.1-0.2-0.2-0.2-0.3,0c-0.7,0-1.3,0-2,0c-0.2,0-0.3-0.1-0.5-0.1c-2.1,0-4.2,0.4-6.3,0.4
			c-2.1,0-4,0.5-5.9,1.1c-0.7,0.2-1.5,0.1-2.1-0.5c-1-1.1-2.1-2-2.9-3.2c-1.9-2.8-4.7-4.4-7.3-6.5l0,0c-0.1-0.4-0.4-0.6-0.8-0.5
			c-1.2-1.1-2.8-1.5-4.1-2.4c-1.2-0.9-2.6-1.1-3.8-1.7c-0.1-0.3-0.4-0.4-0.7-0.5c-1.6-0.8-3.6-0.9-5.2-1.7c-1.5-0.8-2.9-1-4.5-1
			c-6.4,0-12.8,0-19.2,0c-0.4,0-0.9-0.2-1.3,0.2c-0.8,0.2-1.7,0.3-2.5,0.3c-0.9-0.5-1.8-0.2-2.5,0.4c-0.6,0.5-1.1,0.8-1.9,0.8
			c-1.3,0-2.6,0.3-3.8,0.9c-1.7,0.7-3.2,1.8-5.1,1.9c-0.5,0-1,0.4-1.2,0.9c-1.7,0.7-3.5,1.4-5,2.5c-0.4,0-0.8,0-1,0.5l0,0
			c-1.2,0-2,0.7-2.6,1.7c-0.1,0.1-0.2,0.2-0.3,0.2c-0.6,0-1.4-0.1-1.8,0.3c-1,1-2.3,1.6-3.3,2.5c-1.8,1.7-3.6,3.2-5.2,5.1
			c-1.8,2.2-3.9,4-4.8,6.8c-0.3,1-1.5,1.2-2.2,0.5c-1.9-1.8-3.7-3.6-5.6-5.4c-3.2-3.1-6.4-6.2-10.5-8.1c0,0,0-0.1-0.1-0.1
			c-0.1-0.3-0.3-0.4-0.6-0.4c-1.8-0.9-3.5-2.2-5.5-2.8c-1.7-0.5-3.3-1.4-5.1-1.7c0-0.4-0.4-0.5-0.7-0.6c-1.3-0.2-2.7-0.3-4-0.2
			c-0.3,0-0.6,0-1-0.1c-0.1-0.2-0.2-0.2-0.3,0c-1.4,0-2.8,0-4.2,0.1c-2.1-0.6-3.3-0.3-4.2,1c-1.5,0.2-2.8,1-4.2,1.5
			c-0.3-0.1-0.6,0.1-0.8,0.2c-3.7,1.8-6.8,4.5-10,7c-2.3,1.8-3.8,4.4-5.8,6.5c-1.2,1.3-1.9,2.9-2.9,4.4c-0.6,1-1.4,2-1.7,3
			c-1.1,3.2-2.5,6.4-2.5,9.9c0,0.6-0.2,1.1-1,0.9c-0.8-0.2-0.7,0.3-0.7,0.8c-0.5,6.4-0.3,12.8,0.1,19.2c0,0.4,0,1,0.6,1.3
			c0.1-0.8-0.1-1.9,1.3-1.6c0,0.3,0,0.6,0,0.9c-0.4,0.3-0.2,0.8-0.2,1.2c0.1,2.2,0.8,4.3,1.5,6.5c1.2,3.6,2.8,6.9,4.5,10.3
			c0.3,0.6,0.4,1.2,0.8,1.7c1.9,2.6,3.6,5.3,5.7,7.6c2.3,2.6,4.9,4.9,7.4,7.4c1.4,1.4,3.2,2,4.7,3.2c1.3,1,2.6,2.1,4,2.9
			c1.8,1,3.6,2,5.3,3.2c1.5,1.1,3.4,1.7,4.7,3.1c0.1,0.1,0.1,0.1,0.2,0.1c2.3,0.4,4.2,1.7,6.2,2.6c2,0.8,4,1.6,6,2.5
			c3.2,1.4,6.5,2.8,10.1,3.3c0.6,0.1,1.2,0.1,1.8,0.5c1.5,0.9,3.2,1.3,5,1.2c2.1-0.1,4,0.4,6,0.7C266.8,481.7,267.2,482,267,482.9z"
			/>
		<path class="st1" d="M402.6,399.4c0.1,0.7,0.1,1.5,0.2,2.2c0,4.5,0,9.1,0,13.6c0,0.9,0,1.8-0.1,2.6c-0.3,2.4-0.2,4.7-0.1,7.1
			c0,0.7-0.1,1.5-0.1,2.2c-0.5,0.3-0.2,0.9-0.4,1.3c-1.1,1.9-1.7,4-1.9,6.2c-0.1,0.7-0.3,1.4-0.8,2c-0.7,0.9-1.3,2-1.3,3.2
			c-0.1,1-0.6,1.8-1.1,2.6c-0.4,0.5-0.6,1-0.8,1.5c-1,2-1.7,4.3-3.1,6c-1.5,1.8-2.8,3.7-4.3,5.5c-2.6,3.1-5.4,5.8-8.5,8.3
			c-3.3,2.6-6.8,4.9-10.5,6.8c-2.4,1.2-4.5,2.9-7.1,3.6c-2.3,0.6-4.2,2-6.6,2.3c-1.1,0.1-2.3,0.2-3.4,0.7c-1.6,0.8-3.3,1.2-5.1,1.3
			c-1.7,0.1-3.4,0.2-5,0.8c-1.4,0.6-3,1-4.6,1.1c-4.7,0.2-9.5,0.3-14.2,0.3c-3.4,0-6.8,0.5-10.1,0.9c-1,0.1-1.3,0.4-1,1.3
			c-11.3,0-22.7,0-34,0c-0.1-0.5,0.6-0.5,0.6-1c-0.3-0.3-0.7-0.4-1.1-0.4c-3.8,0.3-7.5-0.9-11.3-0.8c-1.3,0-2.6,0-3.9,0
			c-0.8,0-1.6-0.1-2.3-0.6c-1.2-1-2.6-1.5-4.1-1.5c-1.9,0-3.6-0.6-5.2-1.5c-0.9-0.5-1.9-0.8-2.8-0.7c-0.8,0-1.5-0.2-2.2-0.5
			c-1.3-0.5-2.3-1.8-3.8-1.5c-1.2,0.2-2-0.2-2.8-1c-0.8-0.8-1.7-1.1-2.7-1.1c-1,0-1.8-0.4-2.5-1c-0.3-0.3-0.7-0.6-1-0.7
			c-2.2-0.4-3.7-2.2-5.8-2.8c-0.2,0-0.3-0.2-0.4-0.3c-1.6-1.2-3.4-2.1-5-3.4c-0.8-0.7-1.7-1.5-2.7-1.9c-2.8-1.1-4.9-3.2-7.1-5
			c-1.4-1.1-2.6-2.6-3.9-3.8c-1.2-1-2.2-2.2-3-3.4c-0.8-1.3-1.7-2.6-2.6-3.7c-1.4-1.6-2.3-3.5-3.6-5.2c-1.5-1.9-2.4-4.1-3.3-6.4
			c-1.4-3.4-2.6-6.8-3.3-10.4c-0.1-0.4-0.1-0.7-0.5-0.7c0-0.3,0-0.6,0-0.9c0.1-0.7,0.3-1.4,0.3-2.2c0-5.7,0-11.3,0-17
			c0-1.3,0.2-2.7,0.6-3.9c0.7-1.6,1.1-3.4,1.8-5c0.9-2.2,2.2-4.2,3.4-6.3c0.2-0.4,0.6-0.7,0.8-1.1c0.5-1.6,1.7-2.8,2.7-4.1
			c1.4-1.8,3.1-3.4,4.9-4.8c2.5-2,4.9-4.2,7.8-5.6c0.7-0.3,1.1-1,1.1-1.8c1.4-0.6,2.7-1.3,4.2-1.5c1.6,0.3,2.9-0.3,4.2-1
			c1.4,0,2.8,0,4.2-0.1c0.1,0,0.2,0,0.3,0c0.3,0,0.6,0,1,0.1c1.5,0.5,3.2,0.2,4.7,0.8c1.8,0.3,3.4,1.2,5.1,1.7
			c2,0.6,3.6,1.8,5.5,2.8c0,0.4,0.1,0.7,0.6,0.4c0,0,0.1,0,0.1,0.1c0.1,0.9,0.8,1.5,1.4,1.9c2.8,2,5.4,4.1,7.8,6.6
			c1.9,2,4.1,3.9,6,6c1,1.1,2,1.3,3.1,1c1.1-0.3,1.8-1.3,1.8-2.6c0-0.4,0-0.8,0.2-1.2c1.7-2.3,3.4-4.7,5.4-6.7
			c1.7-1.6,3.8-2.7,5.5-4.3c0.8-0.8,1.8-1.4,2.3-2.4c0.1-0.1,0.2-0.2,0.3-0.2c1.2,0,1.9-0.9,2.6-1.7c0,0,0,0,0,0
			c0.5,0.1,0.8,0,1-0.5c1.5-1.1,3.3-1.8,5-2.5c0.9,0.2,1.8-0.1,2.7-0.3c1.6-0.4,3.4-0.6,4.9-1.3c1.7-0.8,3.5-1.4,5.1-2.2
			c0.7-0.3,1.4-0.5,1.8-1.2c0.8,0,1.7-0.1,2.5-0.3c0.7,0.6,1.5,0.8,2.4,0.8c4.7,0,9.4-0.1,14.1,0c2.8,0.1,5.7-0.4,8.5,1.3
			c1.5,0.9,3.9,0.9,5.9,0.8c1.3,0.6,2.7,0.9,3.8,1.7c1.3,0.9,2.9,1.4,4.1,2.4c0.1,0.5,0.4,0.5,0.8,0.5c0,0,0,0,0,0
			c0,1.1,1,1.8,1.6,2.3c3,2.6,5.6,5.6,8.4,8.5c0.5,0.5,0.9,0.6,1.5,0.7c1.4,0.2,2.5-0.7,3.8-0.7c3.3-0.1,6.4-1.5,9.6-1.9
			c0,0,0.1-0.1,0.1-0.1c0.7,0,1.3,0,2,0c0.1,0,0.2,0,0.3,0c1.1,0,2.3,0,3.4,0c0.6,0.2,1.2,0.2,1.8,0c1.2-0.1,2.3,0.5,3.5,0.3
			c0.3,0,0.5,0,0.8,0c0.2,0,0.3,0,0.5,0c0.3,0.6,0.9,0.8,1.5,1.1c1.1,0.5,2.4,0.4,3.5,0.9c1.8,0.8,3.5,1.8,5.1,2.8
			c2.5,1.5,4.6,3.5,6.3,5.9c1,1.5,1.9,3.1,2.4,5C401,396,402,397.7,402.6,399.4z M286.5,387.6L286.5,387.6c-0.9,0.3-1.4,1.1-2.1,1.6
			c-1.9,1.6-3.6,3.4-5.8,4.7c-1.3,0.8-2.6,1.6-3.5,2.9c-1.8,2.4-3.9,4.5-6.5,6.1c-0.4,0.2-0.8,0.7-1.2,0.4c-1.5-1.4-3.6-2.2-4.7-4.1
			c-1.8-3.2-4.8-4.9-7.7-6.9c-1.5-1.6-3.1-3.1-5.3-3.7c-2.2-2.4-5-2.3-7.8-1.8c-1.9,0.4-3.7,1.2-5.7,0.4c-1.2-0.4-2-1.6-1.7-2.8
			c0.2-0.5,0.5-0.9,0.8-1.4c0.5-0.8,0.3-2.1-0.4-2.7c-1.1,0-2.2-0.2-3.2,0.2c-2.1,0.2-3.8,1.3-5.3,2.7c-0.8,0.7-1.5,1.5-2.4,2
			c-2.1,1-3.7,2.7-5.4,4.1c-1.5,1.2-2.8,2.9-4.9,3.2c-0.3,0-0.4,0.2-0.6,0.4c-0.8,0.8-1.6,1.7-2.4,2.5c-0.7,0.7-1.1,1.4-1.3,2.3
			c-0.4,1.7-1.4,3-3.3,3.3c-1.2,0.2-1.9,0.8-2.3,1.8c-0.5,1.4-1,2.9-1,4.4c0,1.8,0.5,3.5,0,5.3c-0.1,0.4,0,0.8,0.2,1.2
			c0.5,0.7,0.5,1.5,0.5,2.4c0,1.4-0.4,2.8,0.2,4.1c0.8,1.6,1.1,3.5,2.4,4.9c0.3,0.3,0.5,0.7,0.4,1.2c-0.3,1.2,0.5,1.9,1.4,2.4
			c0.9,0.6,1.7,1.2,2.7,1.7c2,0.9,2.4,1.7,2.3,4c0,0.9,0,1.7,0.7,2.5c0.6,0.6,1.3,1.2,1.9,1.8c0.5,0.5,0.6,1,0.3,1.6
			c-0.8,1.9,0.2,4.5,2.2,5.2c1.1,0.4,1.9,1.1,2.6,2c1.2,1.6,2.4,3.3,4.9,2.9c0.8-0.1,1.6,0.4,2.2,1c1,1,2,2,3,3
			c0.3,0.3,0.5,0.6,0.9,0.6c1.6-0.1,2.6,0.9,3.6,1.9c0.7,0.7,1.4,1,2.5,0.7c0.6-0.2,1.2-0.4,1.8,0c1,0.8,2.2,1.1,3.4,1.3
			c4.3,0.7,8.5,1.9,12.9,2.3c2.1,0.2,4.2,0.6,6.3,0.1c0.8-0.2,1.8-0.1,2.6,0.4c1.1,0.6,2.3,1.1,3.6,0.8c2.2-0.6,4.2,0.2,6.3,0.5
			c4.2,0.5,8.3,1.7,12.4,2.7c3,0.7,6,1.2,9.1,1.1c1.8-0.1,3.5,0.3,5.2,1.2c1.3,0.7,2.8,0.7,4.1,0.4c1.9-0.4,3.7-0.4,5.5,0.3
			c0.5,0.2,1.2,0.5,1.7,0.2c1.6-1,3.4-0.6,5.1-0.7c0.6,0,1.1-0.1,1.5-0.5c1.2-1.5,2.9-1.6,4.5-1.4c1.8,0.2,3.3,0.1,4.9-0.9
			c0.8-0.5,1.8-0.2,2.7-0.2c1.4,0,2.6-0.4,3.8-1.1c0.7-0.5,1.6-0.7,2.4-0.9c2.5-0.7,5.1-1,7.3-2.3c0.9-0.6,1.9-0.8,2.9-0.9
			c0.6,0,1.2-0.2,1.8-0.5c1.2-0.5,2-1.7,3.3-2c2.4-0.5,4.4-1.6,6.5-2.8c0.9-0.5,1.9-1,3-1.1c1-0.1,2-0.3,2.9-0.8
			c1.9-0.9,3.4-2.3,5.3-3.2c2.3-1.1,4.3-2.4,5.9-4.3c1.4-1.7,3.5-3,3.7-5.5c0-0.3,0.3-0.6,0.6-0.7c1.8-0.8,2.8-2.7,4.5-3.6
			c0.5-0.3,0.7-0.8,1-1.2c0.8-1.2,0.9-2.7,1.8-3.8c1.2-1.3,2.1-2.7,3.1-4.2c0.6-0.9,1.1-1.7,0.9-2.9c-0.1-0.7,0.3-1.2,0.8-1.8
			c1.3-1.5,2-3.2,2-5.2c0.1-3.8-0.4-7.5-0.3-11.3c0-0.6-0.2-1.1-0.6-1.6c-1.1-1.2-2.2-2.4-3.7-3.2c-0.6-0.3-0.9-0.9-1.3-1.4
			c-1.2-1.8-2.5-3.4-5.1-3.2c-1.1,0.1-2.2,0.7-3.4,0.3c-1.6-0.5-3.1-0.4-4.7,0.3c-1.5,0.6-3.2,0.9-4.7-0.6c-0.8-0.8-2.1-0.7-2.9,0
			c-2,1.8-4.7,1.5-6.9,2.9c-1.5,0.9-3.3,0.3-4.9,0.5c-1.6,0.1-2.9-0.5-4.2-1.4c-0.9-0.7-1.6-1.5-1.6-2.8c0-1.2-0.4-2.3-1.7-2.8
			c-1.7-0.8-3.1-1.8-4.2-3.5c-1.5-2.2-3.7-3.9-6.3-4.8c-1.5-1.6-3-3.2-4.5-4.7c-1.2-1.4-2.5-2.6-4.5-2.8c-0.5,0-1,0-1.5,0
			c-3.6-0.2-7.1,0.3-10.7,0c-2.4-0.2-4.7,0-7.1,0c-2.1,0-4,0.5-5.6,2c-0.6,0.5-1.2,1.1-2.1,1c-1.7-0.1-3.2,0.6-4.4,1.5
			c-2.7,1.9-5.9,2.9-8.5,4.9C288.5,386.5,287.1,386.5,286.5,387.6z"/>
		<path class="st2" d="M312.5,482.9c-0.3-0.9-0.1-1.2,1-1.3c3.4-0.4,6.7-0.9,10.1-0.9c4.7,0,9.5-0.1,14.2-0.3
			c1.5-0.1,3.1-0.5,4.6-1.1c1.6-0.7,3.3-0.7,5-0.8c1.8-0.1,3.5-0.5,5.1-1.3c1.1-0.6,2.3-0.6,3.4-0.7c2.4-0.3,4.3-1.7,6.6-2.3
			c2.6-0.7,4.8-2.4,7.1-3.6c3.7-1.9,7.2-4.2,10.5-6.8c3.1-2.5,5.9-5.2,8.5-8.3c1.5-1.8,2.8-3.7,4.3-5.5c1.4-1.7,2.1-4,3.1-6
			c0.3-0.5,0.5-1,0.8-1.5c0.6-0.7,1.1-1.6,1.1-2.6c0.1-1.2,0.6-2.3,1.3-3.2c0.5-0.6,0.8-1.3,0.8-2c0.2-2.2,0.8-4.3,1.9-6.2
			c0.2-0.4,0-0.9,0.4-1.3c0.4,1.7,0.1,3.5-0.4,5.1c-0.9,2.8-1.7,5.6-2.7,8.3c-1.1,3.1-3.1,5.6-4.5,8.5c-1.3,2.7-3,5.1-4.9,7.3
			c-2.5,2.9-5.1,5.9-8.4,8c-1.1,0.7-1.9,1.6-2.8,2.4c-1.1,1-2.4,1.7-3.8,2.4c-2.6,1.3-5,2.9-7.6,4.2c-1.6,0.8-3.3,1.1-4.7,1.9
			c-1.8,1.1-3.9,1.4-5.8,2.4c-1.5,0.7-3.2,0.9-4.8,1.3c-2.5,0.7-5,1.1-7.5,1.7c-1.4,0.3-2.9,0.2-4.3,0.3c-1.4,0.2-2.7,0.6-4.2,0.6
			c-0.7,0-1,0.5-0.9,1.2C327.7,482.9,320.1,482.9,312.5,482.9z"/>
		<path class="st2" d="M192.3,423.6c0.5,0,0.5,0.3,0.5,0.7c0.7,3.6,2,7,3.3,10.4c0.9,2.2,1.8,4.5,3.3,6.4c1.3,1.7,2.2,3.5,3.6,5.2
			c0.9,1.1,1.8,2.4,2.6,3.7c0.8,1.3,1.9,2.4,3,3.4c1.4,1.2,2.5,2.6,3.9,3.8c2.3,1.8,4.4,3.9,7.1,5c1,0.4,1.8,1.3,2.7,1.9
			c1.6,1.2,3.4,2.1,5,3.4c0.1,0.1,0.3,0.2,0.4,0.3c2.1,0.6,3.6,2.4,5.8,2.8c0.4,0.1,0.7,0.4,1,0.7c0.7,0.6,1.5,1,2.5,1
			c1,0,1.9,0.4,2.7,1.1c0.7,0.8,1.6,1.2,2.8,1c1.5-0.2,2.6,1,3.8,1.5c0.7,0.3,1.4,0.5,2.2,0.5c1,0,1.9,0.2,2.8,0.7
			c1.6,0.9,3.3,1.4,5.2,1.5c1.4,0,2.9,0.5,4.1,1.5c0.6,0.5,1.5,0.6,2.3,0.6c1.3,0,2.6,0,3.9,0c3.8-0.1,7.5,1.1,11.3,0.8
			c0.4,0,0.8,0.1,1.1,0.4c0,0.5-0.7,0.5-0.6,1c-3.8,0-7.7,0-11.5,0c0.1-0.9-0.2-1.2-1.1-1.3c-2-0.3-4-0.8-6-0.7
			c-1.8,0.1-3.5-0.3-5-1.2c-0.6-0.3-1.2-0.4-1.8-0.5c-3.5-0.5-6.8-1.9-10.1-3.3c-2-0.9-4-1.7-6-2.5c-2.1-0.8-4-2.2-6.2-2.6
			c-0.1,0-0.2,0-0.2-0.1c-1.3-1.5-3.2-2-4.7-3.1c-1.7-1.2-3.4-2.3-5.3-3.2c-1.4-0.8-2.7-1.9-4-2.9c-1.5-1.2-3.3-1.9-4.7-3.2
			c-2.5-2.4-5.1-4.8-7.4-7.4c-2.1-2.4-3.8-5.1-5.7-7.6c-0.4-0.5-0.5-1.1-0.8-1.7c-1.7-3.3-3.3-6.7-4.5-10.3
			c-0.7-2.1-1.4-4.2-1.5-6.5C192,424.4,191.9,424,192.3,423.6z"/>
		<path class="st2" d="M215.8,370.9c0,0.8-0.5,1.5-1.1,1.8c-3,1.4-5.3,3.5-7.8,5.6c-1.8,1.5-3.5,3-4.9,4.8c-1,1.3-2.2,2.5-2.7,4.1
			c-0.1,0.4-0.5,0.7-0.8,1.1c-1.2,2.1-2.5,4.1-3.4,6.3c-0.7,1.6-1.1,3.4-1.8,5c-0.5,1.2-0.6,2.6-0.6,3.9c-0.1,5.7,0,11.3,0,17
			c0,0.8-0.2,1.5-0.3,2.2c-1.4-0.4-1.1,0.7-1.3,1.6c-0.6-0.3-0.5-0.9-0.6-1.3c-0.4-6.4-0.6-12.8-0.1-19.2c0-0.5,0-0.9,0.7-0.8
			c0.7,0.2,1-0.4,1-0.9c0-3.5,1.4-6.7,2.5-9.9c0.4-1.1,1.1-2.1,1.7-3c1-1.5,1.7-3.1,2.9-4.4c2-2.1,3.5-4.7,5.8-6.5
			c3.2-2.5,6.3-5.2,10-7C215.2,371,215.5,370.8,215.8,370.9z"/>
		<path class="st2" d="M279.2,372.4c-0.6,1-1.5,1.7-2.3,2.4c-1.7,1.6-3.8,2.6-5.5,4.3c-2.1,2-3.7,4.4-5.4,6.7
			c-0.3,0.4-0.3,0.8-0.2,1.2c0,1.3-0.6,2.3-1.8,2.6c-1.1,0.3-2.1,0.2-3.1-1c-1.8-2.1-4-3.9-6-6c-2.4-2.5-5-4.6-7.8-6.6
			c-0.6-0.5-1.4-1-1.4-1.9c4.1,1.9,7.3,5,10.5,8.1c1.9,1.8,3.7,3.6,5.6,5.4c0.7,0.7,1.9,0.5,2.2-0.5c0.9-2.8,3-4.7,4.8-6.8
			c1.6-1.9,3.5-3.4,5.2-5.1c1-1,2.3-1.5,3.3-2.5C277.9,372.2,278.6,372.4,279.2,372.4z"/>
		<path class="st2" d="M402.5,425c-0.1-2.4-0.2-4.7,0.1-7.1c0.1-0.9,0.1-1.7,0.1-2.6c0-4.5,0-9.1,0-13.6c0.2,0,0.4,0.6,0.6,0
			c0.1-0.5,0.2-1,0.4-1.6c0.1-0.3-0.1-0.7,0.4-0.6c0.3,0,0.2,0.3,0.3,0.6c0.7,3.6,0.7,7.3,0.6,11c0,2.5,0.2,5.1-0.1,7.6
			c-0.2,2.3,0.1,4.6-0.7,7C404,424.1,403.3,424.4,402.5,425z"/>
		<path class="st2" d="M402.6,399.4c-0.6-1.7-1.5-3.4-2-5.1c-0.6-1.8-1.4-3.4-2.4-5c-1.7-2.4-3.7-4.4-6.3-5.9
			c-1.7-1-3.3-2.1-5.1-2.8c-1.1-0.5-2.4-0.4-3.5-0.9c-0.6-0.2-1.2-0.4-1.5-1.1c2-0.4,3.8-0.2,5.3,1.2c0.3,0.3,0.8,0.5,1.2,0.7
			c3.4,1.1,6.2,3.1,8.7,5.6c2,2,3.6,4.4,4.7,7.2c0.7,1.7,0.9,3.5,1.2,5.3C402.8,398.9,402.8,399.2,402.6,399.4z"/>
		<path class="st2" d="M335.8,365.1c-2,0.1-4.4,0.1-5.9-0.8c-2.8-1.7-5.6-1.3-8.5-1.3c-4.7-0.1-9.4,0-14.1,0c-0.9,0-1.7-0.2-2.4-0.8
			c0.4-0.4,0.9-0.2,1.3-0.2c6.4,0,12.8,0,19.2,0c1.6,0,3.1,0.2,4.5,1c1.6,0.9,3.5,0.9,5.2,1.7C335.4,364.7,335.7,364.8,335.8,365.1z
			"/>
		<path class="st2" d="M369.5,378.4C369.5,378.4,369.4,378.5,369.5,378.4c-3.3,0.5-6.4,1.9-9.7,2c-1.3,0-2.5,0.9-3.8,0.7
			c-0.6-0.1-1-0.2-1.5-0.7c-2.7-2.9-5.4-5.9-8.4-8.5c-0.7-0.6-1.6-1.2-1.6-2.3c2.5,2,5.4,3.7,7.3,6.5c0.8,1.2,1.9,2.2,2.9,3.2
			c0.6,0.6,1.3,0.7,2.1,0.5c1.9-0.6,3.8-1.1,5.9-1.1c2.1,0,4.2-0.4,6.3-0.4C369.2,378.3,369.3,378.4,369.5,378.4z"/>
		<path class="st2" d="M302.5,362.5c-0.4,0.6-1.1,0.8-1.8,1.2c-1.7,0.8-3.5,1.4-5.1,2.2c-1.5,0.7-3.2,0.9-4.9,1.3
			c-0.9,0.2-1.8,0.4-2.7,0.3c0.3-0.5,0.7-0.9,1.2-0.9c1.9-0.1,3.4-1.2,5.1-1.9c1.2-0.5,2.5-0.8,3.8-0.9c0.8,0,1.3-0.3,1.9-0.8
			C300.7,362.3,301.6,362,302.5,362.5z"/>
		<path class="st2" d="M224.3,368.4c-1.3,0.7-2.7,1.4-4.2,1C220.9,368.1,222.1,367.8,224.3,368.4z"/>
		<path class="st2" d="M234.5,369.2c-1.5-0.5-3.2-0.3-4.7-0.8c1.3-0.1,2.7,0,4,0.2C234.1,368.7,234.5,368.7,234.5,369.2z"/>
		<path class="st2" d="M282,370.4c-0.7,0.8-1.3,1.7-2.6,1.7C280,371.1,280.8,370.4,282,370.4z"/>
		<path class="st2" d="M377,378.4c-0.6,0.1-1.2,0.2-1.8,0C375.8,378,376.4,378,377,378.4z"/>
		<path class="st2" d="M283,369.9c-0.2,0.5-0.5,0.6-1,0.5C282.2,369.9,282.6,369.9,283,369.9z"/>
		<path class="st2" d="M344.5,369.7c-0.4,0-0.7,0-0.8-0.5C344.1,369.1,344.4,369.3,344.5,369.7z"/>
		<path class="st2" d="M245.6,374c-0.5,0.3-0.5,0-0.6-0.4C245.3,373.6,245.5,373.7,245.6,374z"/>
		<path class="st2" d="M381.3,378.6c-0.3,0-0.5,0-0.8,0C380.7,378.4,381,378.4,381.3,378.6z"/>
		<path class="st2" d="M228.8,368.3c-0.1,0-0.2,0-0.3,0C228.6,368.2,228.7,368.2,228.8,368.3z"/>
		<path class="st2" d="M371.8,378.3c-0.1,0-0.2,0-0.3,0C371.5,378.2,371.6,378.1,371.8,378.3z"/>
		<path class="st3" d="M249.8,388.7c2.2,0.6,3.8,2.1,5.3,3.7c0,0.9,0.4,1.6,1,2.2c0.9,0.9,2.1,1.6,2.5,2.7c0.4,1.2,1.2,1.8,2.2,2.3
			c0.6,0.3,1.1,0.7,1.6,1.2c1.4,1.3,2.3,3,3.6,4.4c1.5,1.6,2.1,3.2,1.9,5.2c-0.1,0.5,0,0.9,0.5,1.2c0.8,0.5,1.6,1,2.4,1.5
			c0.5,0.3,0.9,0.2,0.8-0.5c-0.3-1.5,0.1-3.2-1.1-4.5c-0.6-0.7-0.8-1.5-0.3-2.3c0.8-1.3,1.4-2.7,2.6-3.8c1.3-1.2,2.6-2.4,3.1-4.1
			c0.1-0.5,0.6-0.8,1-1.1c0,0.5-0.1,0.9,0,1.4c0.5,1.6,0.2,2.7-1.5,3.4c-0.9,0.3-0.7,1.2-0.3,1.8c0.7,1.1,2.7,1.6,3.9,1.2
			c1.2-0.4,2.1-1.3,3.2-1.9c1.1-0.6,1.1-1.5,0.8-2.5c-0.4-1.4-0.2-2.3,0.9-3.2c0.9-0.8,0.9-1.4-0.3-1.8c-1.4-0.5-2.8-0.5-4.2,0.1
			c0.3-1.1,1.5-1.2,2.1-1.9c1.1-1.3,2.4-2.5,3.8-3.7c0.7-0.6,1.2-1.2,1.4-2.1c0,0,0,0,0,0c0.3,0,0.7,0,1,0c-0.4,1.3-0.8,2.5-1.9,3.3
			c-0.8,0.6-0.8,1.3-0.1,2c0.4,0.4,0.7,0.8,0.8,1.4c0.2,0.9,0.9,1.4,1.8,1.5c0.8,0.1,1.4-0.6,1.6-1.2c0.6-1.5,1.6-2,3.1-1.8
			c1.2,0.1,2-0.5,2.2-1.7c0.3-1.3,1-1.8,2.3-1.8c1.7,0,3.3,0.3,4.9,0.5c1.7,0.2,3.4,0.6,5.1-0.4c1.1-0.7,2.1,0,2.6,0.9
			c0.6,1.1,1.5,1.2,2.5,0.9c0.7-0.2,1.4-0.3,2.1,0c1.6,0.8,1.8,2.7,0.4,4c-1.1,1-1.4,2.1-1,3.4c0.1,0.3,0.1,0.7,0.1,1
			c0.1,1.4,0.9,1.9,2.6,1.9c1.5,0,1.8-0.3,1.9-1.8c0-1.6,0.5-2.3,2-2.7c1.9-0.6,3.5,0.2,4.5,1.8c1.5,2.4,3.2,4.7,6.7,4.3
			c0.8-0.1,1.6,0.1,2.1,0.9c0.5,0.7,1.1,1,1.9,0.9c0.5,0,1-0.1,1.2,0.5c0.4,1.2,0.8,2.3,1.6,3.4c0.3,0.5,0.4,1.1,0,1.5
			c-0.3,0.5-0.9,0.5-1.4,0.4c-0.8-0.2-1.5,0.1-2.1,0.8c-0.6,0.7-0.3,1.5-0.3,2.3c0,1.1-0.4,1.5-1.5,1.4c-0.7-0.1-1.4,0-2.1,0.3
			c-0.6,0.3-1.2,0.7-1.2,1.4c0,0.7,0.7,0.8,1.2,1c2.2,0.8,3.9,1.8,4.8,4.2c0.7,1.9,0.9,2.1-0.6,3.6c-0.8,0.8-1,1.6-0.5,2.7
			c0.7,1.5,0.4,2.2-1,3.1c-1.2,0.8-2.3,0.6-3.3-0.5c-0.1-0.2-0.3-0.3-0.5-0.3c-1,0-2.2,1.7-1.7,2.7c0.3,0.6,0.3,1.2,0,1.8
			c-0.1,0.3-0.4,0.5-0.7,0.4c-0.4,0-0.4-0.4-0.4-0.7c0-0.4,0.1-0.7,0.2-1.1c0.1-0.3,0.1-0.5-0.2-0.6c-0.6-0.3-2.5,0.1-2.8,0.7
			c-0.4,1,0.6,1.2,1.1,1.7c0.2,0.2,0.5,0.4,0.7,0.5c0.8,0.2,0.8,0.6,0.6,1.3c-0.2,0.7,0.1,1.3,0.6,1.8c0.6,0.5,1.2,0.3,1.7-0.1
			c0.7-0.6,1.5-0.7,2.3-0.6c2.4,0,4.7,0,7.1,0.2c0.9,0.1,1.3-0.4,1-1.2c-0.3-1,0-1.9,0.4-2.7c0.5-1.1,1.1-2.3,0.4-3.4
			c-1.2-2-0.4-3.9,0.3-5.7c1-2.7,1.8-3,4.2-1.5c1,0.6,3.3,0,3.8-1c0.2-0.4,0.2-0.8,0-1.2c-0.8-1.6-1.7-3-3.8-2.7
			c-0.4,0.1-0.8-0.1-1.1-0.5c-0.3-0.5,0-0.8,0.3-1.1c1.1-1.2,1.9-2.5,1.1-4.2c-0.3-0.5,0.1-1,0.5-1.4c0.4-0.4,0.8-0.2,1.3,0
			c0.9,0.5,2,0.8,2.5,1.8c0.2,0.3,0.5,0.4,0.9,0.4c1.2,0.1,1.9-0.5,2.5-1.5c0.9-1.6,2.5-2.4,4.2-2.4c2.8,0,2.8,0.1,1.9-2.7
			c-0.5-1.4-1.4-1.9-2.9-1.7c-0.4,0.1-0.8,0.1-1.2-0.2c-1.2-0.8-2.3-1.6-2.7-3.1c-0.3-1-0.9-1.5-2-0.9c-1.7,0.8-3.2,0.4-4.6-0.6
			c-0.8-0.6-1.3-1.4-2.1-1.9c-1.6-1.1-3.1-2.2-4.2-3.9c-1.3-2.1-1.1-2.9,1.3-3.3c0.7-0.1,1.2-0.4,1.4-1.1c0.2-0.7-0.4-1.1-0.8-1.4
			c-0.6-0.4-1-0.8-1.3-1.5c-1-2.4-2.8-4.1-4.7-5.8c-0.3-0.3-0.7-0.3-1-0.2c-0.5,0.2-0.4,0.6-0.3,1c0.1,1.7,0.7,3.3,1.1,4.9
			c0.5,1.8,0.5,1.8-1.2,2.7c-0.8,0.4-1,0.9-0.7,1.7c0.5,1.1,1.2,2,2.2,2.6c0.8,0.5,1.7,1,1.7,2.1c-1.1-1.3-2.8-1.9-3.9-3.3
			c-1.4-1.8-3.2-3.2-4.5-5.1c-0.8-1.2-2.1-1.1-2.8-0.3c-0.7,0.8-0.5,2.1,0.7,2.7c2.4,1.2,2.8,3.6,3.5,5.8c0.6,1.9,1.5,2.9,3.6,2.9
			c1.2,0,2.2,0.5,2.9,1.4c0.3,0.4,0.4,1.1,0.6,1.6c0.3,0.9,1.1,1.1,1.9,1c0.9-0.1,1.5-0.4,1.7-1.3c0.3-1.1-0.2-2.3-1.7-3.4
			c-0.6-0.4-1.2-0.8-1.3-1.5c0.8,0.3,1.5,0.7,2.2,1c0.8,0.4,1.6,1.1,1.7,2c0.2,1.5,0.9,2.6,2,3.6c0.9,0.8,0.8,1.5-0.2,2.3
			c-0.8,0.6-1.6,0.5-2.2-0.4c-0.5-0.8-1.2-1.1-2.1-1c-0.6,0-1.2,0.1-1.7-0.1c-0.6-0.2-0.9-0.5-1-1.1c-0.5-2.9-1.6-3.7-3.9-3.5
			c-1.3,0.1-2.3-0.6-2.6-1.6c-0.6-1.7-1.6-3.3-2.1-5c-0.5-1.6-2.4-2.8-4-2.4c-1.5,0.4-2.6,0.1-3.5-1.3c-0.6-0.9-1.4-1.4-2.6-1
			c-1.4,0.6-2.8-0.2-3.1-1.8c-0.2-1.2-0.7-2.4-1.1-3.6c-0.7-2.3-2.9-2.9-4.8-1.5c-0.5,0.4-0.6,0.8-0.2,1.2c0.4,0.4,0.8,0.9,1.2,1.5
			c0.4,0.7,0.3,1.3-0.3,1.8c-0.6,0.4-1.2,0.5-1.9,0c-0.9-0.7-0.7-1.7-0.7-2.6c0.1-1.5-0.1-1.9-1.6-2.2c-1.4-0.2-1.9,0.2-1.7,1.6
			c0.2,1.3-0.5,2.2-1.7,2c-0.8-0.1-1.7-0.3-2.5-0.3c-1.5-0.1-3.1-0.9-4.5-0.1c-1.2,0.6-2.5,0.8-3.8,0.7c0.1-0.5,0.5-0.6,0.9-0.7
			c1.1-0.5,2.4-0.8,3.4-1.5c2.1-1.7,4.5-2.5,7-2.8c1.6-0.2,3.1-1.3,4.9-0.7c1.1,0.4,2-0.1,2.5-1.1c0.7-1.2,2-1.8,3.3-1.5
			c2.4,0.6,5.1,0,7.4,1.4c0.4,0.2,1.1,0.1,1.6-0.1c1.4-0.5,2.8-0.9,4.1-1.5c0.5-0.2,1.3,0.2,1.4-0.7c0.5,0,1,0,1.5,0
			c1.1,1.5,2.8,2.2,4.5,2.8c1.5,1.6,3,3.2,4.5,4.7c0,0.5,0.4,0.8,0.7,1.1c1.3,1.4,2.7,2.7,3.9,4.2c1.6,2,1.6,3.1-0.3,4.8
			c-0.8,0.7-0.8,1.2,0.1,1.8c1.1,0.7,1.9,2,3.3,2.3c0.4,0.1,0.6,0.5,0.8,0.9c0.7,1.6,1.2,1.8,2.9,1.3c0.9-0.3,1.8-0.8,2.6-0.2
			c1.3,0.9,2.5,0.6,3.7,0.1c0.4-0.2,0.8-0.2,1.2-0.3c0,0.5-0.4,0.5-0.7,0.8c-0.2,0.2-0.3,0.4-0.1,0.8c0.4,0.6,1.8,1,2.6,0.8
			c1.1-0.3,0.9-1,0.7-1.8c1.1,0,2.2,0.3,3.2,0c1.5-0.4,3.1-0.9,4.4-1.9c0.7-0.5,1.4-0.9,2.2-0.1c0.4,0.3,0.9,0.4,1.4,0.2
			c0.8-0.3,1.5-0.2,2.3-0.2c-0.1,0.6-0.6,0.4-1,0.5c-0.9,0.4-1.4,1.1-1.3,2.1c0.1,0.8,0.6,1.5,1.5,1.6c1,0.1,1.5-0.6,1.7-1.4
			c0.1-0.4,0.2-0.7,0.4-1c0.5-0.8,0.3-1.3-0.4-1.7c0.2-0.6,0.8-0.4,1.1-0.6c2.1-1,3.5-0.9,4.8,0.8c1.2,1.6,2.8,2.2,4.5,2.5
			c2.4,0.5,4.5,1.6,6.8,2.3c0.8,0.2,1.2,0.9,1.3,1.7c0.1,0.5-0.3,1-0.7,1.2c-0.7,0.4-1.3-0.1-1.8-0.5c-0.2-0.2-0.4-0.3-0.6-0.4
			c-0.8-0.4-1.5-0.3-2.1,0.3c-0.6,0.6-0.1,1.3,0.3,1.7c1.2,0.9,2.2,2.2,3.9,2.1c1.5-0.1,2.3,1.1,2.2,2.5c-0.1,0.9-0.2,1.8-0.1,2.7
			c0.2,2-0.8,3.3-2.4,4.4c-1.6,1.2-3.5,2.1-4.9,3.6c-0.3,0.4-0.7,0.5-1.2,0.3c-0.7-0.3-1.6-0.3-1.7,0.6c-0.1,1,0.8,1,1.5,1
			c0.7,0,1.1,0.3,1.4,0.8c0.7,1.5,0,4.4-1.2,5.4c-0.7,0.5-1.1,0.6-1.5-0.3c-0.6-1.5-2.8-2.7-4.4-2.3c-1,0.3-1.4-0.1-1.5-1.1
			c0-0.4-0.2-0.8-0.3-1.2c-0.5-1.7-1.8-2.3-3.4-1.6c-1,0.4-1.9,0.4-2.7-0.2c-0.6-0.4-1.2-0.7-1.9-0.4c-1.2,0.4-2.2,0-3.2-0.4
			c-0.9-0.4-1.7-0.6-2.6-0.1c-1.1,0.7-0.9,1.9-1.1,2.9c-0.1,0.4,0.3,0.6,0.7,0.5c1.8-0.5,3.7-0.2,5.4-0.8c1-0.3,1.4,0,1.6,0.9
			c0.1,0.4,0.2,0.7,0.3,1.1c0.3,1.9,1.3,2.5,3.2,2.1c0.9-0.2,1.7-0.6,2.6-0.9c0.6-0.3,1.2-0.3,1.2,0.7c0.1,2,0.7,3.8,2.2,5.2
			c0.1,0.1,0.1,0.1,0.2,0.2c0.1,0.3,0.4,0.6,0.2,0.9c-0.2,0.3-0.6,0.3-0.9,0.3c-0.4,0-0.7-0.2-1.1-0.2c-0.9-0.1-2.2-0.3-2.5,0.9
			c-0.6,2-1.7,2.4-3.6,2.2c-1.4-0.1-2.8-0.2-3.9-1.1c-0.3-0.2-0.5-0.5-0.9-0.4c-2.1,0.2-4-0.9-6.1-1.2c-2.1-0.3-3,0-3.8,2
			c-0.2,0.4-0.6,0.8-0.1,1.3c0.5,0.5,0.8-0.1,1.2-0.2c0.8-0.3,1.5-0.7,2.4-0.4c0.9,0.4,1.3,1.2,1.3,2.1c0,1-0.8,1.6-1.8,1.8
			c-0.6,0.2-1.3,0.3-1.3,1.1c0,0.8,0.6,1,1.2,1.3c0.8,0.3,1.4,0.9,1.9,1.6c0.6,0.7,0.5,1.3-0.5,1.6c-0.7,0.2-1.4,0.5-2.1,0.8
			c-0.8,0.3-1.7,0.8-2.6,0.5c-1-0.3-1.9,0-2.8,0.3c-0.5,0.2-1.1,0.4-1.4,0c-1.2-1.5-2.7-1.1-4.2-1.1c-1.4,0-2.9,2.1-2.5,3.4
			c0.1,0.4,0.4,0.3,0.7,0.3c0.9,0,1.6,0.2,1.9,1.1c0.3,1,0,1.9-0.8,2.6c-1,0.8-2,1.4-3.2,1.8c-0.9,0.3-1.8,0.8-2.4,1.5
			c-0.9,1.1-2.1,1.4-3.3,1.6c-0.8,0.1-1.9-0.1-2.3-1c-0.3-0.8,0.4-1.4,0.8-2c0.3-0.4,0.8-0.7,1.3-0.9c0.6-0.4,1.3-0.8,1.2-1.6
			c-0.1-0.9,0.4-1.5,0.9-2.1c1.9-2.5,1.4-4.8-1.3-6.2c-0.4-0.2-0.9-0.4-1.3-0.1c-0.4,0.3-0.3,0.8-0.2,1.2c0.5,1.9,0.1,2.4-1.8,2.4
			c-1.2,0-1.9,0.5-2,1.7c-0.1,0.6-0.2,1.1-0.4,1.7c-0.8,2.4-2.8,3.2-4.9,1.8c-0.5-0.3-1.1-0.7-1.6-0.5c-1.5,0.7-2.5-0.1-3.6-0.8
			c-1.1-0.7-2.1-0.1-2.2,1.1c-0.1,1.2,0.1,2.4,0.5,3.5c0.3,0.9,0.8,1,1.5,0.2c0.8-1,1.8-1.4,2.9-0.7c1.7,1.1,3.3,1.2,5.2,0.6
			c0.9-0.3,1.7,0.3,2.2,0.9c0.5,0.7,0.1,1.3-0.4,1.9c-0.9,1.1-2.1,1.4-3.5,1.2c-1.8-0.2-3.6-1.1-5.5,0c-0.7,0.4-1.7,0.3-2.4-0.3
			c-0.6-0.5-0.2-1.1,0-1.7c0.1-0.3,0-0.6-0.4-0.6c-1,0-2-0.2-3,0.1c-0.4,0.1-0.8,0.3-0.8,0.8c0,0.5,0.3,0.7,0.7,0.9
			c0.5,0.2,0.9,0.3,1.4,0.6c1.1,0.6,1.1,1.1,0.3,2c-1.7,2-3.6,2.8-5.9,0.9c-0.1-0.1-0.3-0.1-0.5-0.2c-0.7-0.2-1-0.6-1.1-1.4
			c0-1.7-0.7-3.1-2.5-3.8c-0.7-0.3-1.5-0.5-2.2-0.1c-0.7,0.4-0.4,1.2-0.2,1.8c0.2,0.7,0,1.2-0.7,1.4c-0.7,0.2-0.8-0.4-1-0.9
			c-0.4-1.6-1.6-2.5-3.3-2.5c-0.8,0-1.7,0.2-2.5-0.2c-1.1-0.6-2.2-0.6-3.4-0.5c-0.5,0-1,0.1-1.5,0c-2.5-0.5-4.4,0.4-5.9,2.4
			c-0.8,1.1-2.3,1.1-3.1,0c-0.3-0.4-0.7-0.9-1-1.2c-1-1-1.6-1-2.4,0.3c-0.8,1.3-1.6,1.6-3.3,1.2c-0.8-0.2-1.7-0.5-2.6-0.4
			c-2.1,0.1-4-0.7-5.9-1.4c-1.1-0.4-1.9-0.4-2.7,0.4c-0.5,0.5-2.8,0.8-3.2,0.4c-1.4-1.6-3-1.6-5-1.4c-3.8,0.4-7.5-0.3-11.2-1
			c-1-0.2-2.2-0.2-3-0.9c1-0.5,1.9,0,2.9,0.2c1.9,0.3,3.8,1,5.7,0.8c0.3,0,0.7,0,1,0.1c1.9,0.7,3.9,0.6,5.7,0.1
			c1.4-0.4,2.4,0,3.4,0.9c1.5,1.4,2.4,1.2,3.2-0.6c0.8-2,1.3-2.2,3.3-1.2c0.7,0.3,1.2,0.3,1.8-0.3c0.9-1,2-1.6,3.1-2.3
			c0.8-0.5,1.6-0.6,2.3,0.3c0.4,0.6,0.8,0.6,1.3,0.1c0.2-0.3,0.6-0.4,0.9-0.6c1.7-1,2.2-0.7,2.8,1.1c0.9,2.9,2.4,5.2,6.5,3.5
			c1.3-0.5,2.5-1.3,3.7-2c0.4-0.3,0.9-0.4,1.2-0.1c1.5,1.4,3.2,1.1,4.9,0.7c0.3-0.1,0.9-0.1,0.9-0.5c0-0.5-0.4-0.6-0.8-0.8
			c-1.2-0.5-2.2-1.2-2.4-2.6c-0.1-0.8-0.6-1.2-1.2-1.7c-0.9-0.8-1.3-0.8-1.8,0.4c-0.7,1.6-1.5,1.8-3,0.8c-1.1-0.7-2.1-1.5-3.5-1.5
			c-1,0-1.9-0.5-1.9-1.7c-0.1-0.8-0.2-1.7-1-1.8c-0.8-0.1-1.6,0.3-2,1c-0.9,1.3-2,1.6-3.5,1.4c-1-0.1-1.5-0.6-1.5-1.6
			c0-0.9,0-1.8,0-2.7c0-0.7,0.1-1.6-0.8-1.8c-0.9-0.2-2-0.5-2.8,0.2c-0.8,0.7-1.6,1.3-2.5,1.9c-0.5,0.3-0.9,0.8-1.5,0.2
			c-0.7-0.6,0-1,0.3-1.5c0.9-1.9,2.7-3.4,1.9-5.9c-0.3-0.9-0.8-1.3-1.7-0.8c-1.2,0.7-2.1,1.9-2.8,3.1c-1,1.7-1,1.7-2.9,1.4
			c-0.6-0.1-1.2-0.2-1.8-0.3c-1-0.2-1.3-0.7-1.2-1.8c0.1-1.1,1.1-1.9,0.9-3.1c-0.1-0.7,0.1-1.4,0.6-2c0.9-1.1,1.1-2.4,0.1-3.2
			c-0.8-0.7-1.5-2-2.9-2c-1.1,0-2.2-0.3-3.3,0.4c-0.5,0.3-1,0-1.4-0.4c-1.6-1.6-3.4-2.9-5.8-3.1c-1-0.1-1.9-0.6-2.8-1.1
			c-1.5-0.8-3.1-1.3-4.8-0.4c-0.7,0.4-1.4,0.6-2,0.9c-0.8,0.3-1.1-0.2-1.6-0.6c-0.3-0.3-0.6-0.8-0.2-1.1c1.4-1.1,2.5-2.8,4.6-2.6
			c1.3,0.1,2.1-0.4,2.5-1.6c0.4-1,1.2-1.4,2.2-1.1c0.9,0.3,1.8,0.5,2.7,0.9c0.9,0.4,1.3,1,0.9,2c-0.4,0.9-0.4,1.8-0.2,2.7
			c0.2,1.4,0.8,1.6,2,0.8c0.6-0.4,1-1,1-1.8c-0.1-1.5-0.3-3-1.7-4c-0.4-0.3-0.7-0.8-0.9-1.3c-0.7-2.1-1.5-4.2-3-6
			c-0.6-0.7-1.2-1-2-1c-2.7,0-5.4,2.7-5.5,5.5c0,0.7,0,1.6-0.9,1.7c-1.4,0.1-2.5,0.6-3.5,1.6c-0.8,0.7-1.8,0.8-2.7-0.2
			c-0.8-0.9-0.2-1.5,0.2-2.2c0.4-0.7,1-1.3,1.4-2.1c0.6-1.2,0.1-2-1.2-2.4c-0.9-0.3-1.5,0.4-2.2,0.6c-0.9,0.3-1.7,0.1-2.3-0.5
			c-0.5-0.5-0.6-1.5,0-1.9c1.9-1.6,1-3.3,0.2-4.9c-0.3-0.7-0.8-0.9-1.6-0.3c-1.4,1.1-0.9,2.4-0.7,3.8c0.2,1.4-0.6,2.7-1.7,2.5
			c-1.7-0.3-3.5-0.4-5-1.4c-0.8-0.5-1.7-0.6-2.4-0.2c-1.5,0.8-2.3-0.1-3.1-1c-0.7-0.7-1-1.8-0.6-2.8c0.3-0.9,1.1-1.4,2.2-1.4
			c1.7,0,2.6-0.9,2.7-2c0.1-1.1,0.2-2.3-0.4-3.3c-0.6-1.2-0.2-2.1,0.4-3c0.2-0.3,0.6-0.6,0.7-1c1.1-3.2,4.9-2.9,6.7-1.4
			c1,0.9,2,1.1,3.3,1.1c1.2,0,1.5,0.5,1.1,1.7c-0.1,0.4-0.3,0.8-0.6,1.1c-1.2,1.5-1.1,3.1-0.2,4.7c0.5,0.9,1.4,1.1,2.2,1.1
			c0.8,0,1.1-0.7,1.2-1.5c0.2-1.1,0.7-2,1.9-2.3c0.5-0.1,1.1-0.5,1.6-0.8c1.3-0.8,1.6-1.8,0.7-3c-0.7-1.1-1.1-2.2-1.2-3.4
			c-0.1-0.4-0.2-0.9-0.4-1.3c-0.4-1-1.2-1.5-2.2-1.2c-1.6,0.5-3.4,0.7-4.9,1.6c-0.9,0.5-1.6,0.4-2.3-0.3c-1-1-2-1.9-2.9-2.9
			c-0.6-0.6-1.2-0.7-1.9-0.5c-1,0.2-1.8,0.6-2.4,1.4c-1.5,1.8-3.7,3.1-4.5,5.5c-0.1,0.4-0.5,0.7-0.9,1c-0.3,0.2-0.6,0.6-0.6,0.9
			c-0.2,1.7-1.2,3.3-0.7,5.1c0.2,0.7,0,1.1-1,1c-1.6-0.2-3.2-0.5-4.7-0.8c-1.3-0.2-2.4,1.1-2,2.4c0.1,0.5,0.3,1,0.5,1.5
			c0.4,0.9,0.2,1.5-0.5,2.1c-0.7,0.6-1.2,1.4-1,2.3c0.2,0.8,0.1,1.5-0.2,2.3c-0.1,0.4-0.1,0.7,0.2,0.9c0.4,0.2,0.7,0.2,1-0.1
			c0.4-0.4,0.8-0.8,1.2-1.3c0.6-0.7,1.2-1,2-0.3c0.3,0.2,0.5,0.4,0.8,0.6c2.1,1.6,2.1,1.6,0.7,3.9c-0.5,0.8-0.8,1.6-0.4,2.6
			c1,2.3,0.8,2.7-1.3,4c-0.4,0.2-0.7,0.4-0.5,0.9c0.7,1.3,3.2,1.7,4.1,0.5c0.4-0.6,0.4-1.4,0.5-2.1c0.3-1.1,0.9-2.1,2-2.3
			c1.1-0.2,1.3,1,1.8,1.8c0.1,0.2,0.1,0.5,0.3,0.7c0.7,1.5,1.4,2.9,3.3,3.4c2,0.5,2.2,1.8,1,3.3c-0.6,0.8-1.1,1.7-0.7,2.6
			c0.4,0.8,1.3,0.5,2,0.5c0,0,0.1,0,0.1,0c1.9,0,2.6,0.6,3,2.4c0.3,1.3,0.7,2.5,0.9,3.7c0.2,0.7,0.6,1,1.3,1.2c1.4,0.3,2,1,1.8,2.5
			c-0.2,1.2,0.4,1.8,1.5,2.1c0.3,0.1,0.6,0.2,0.8,0.3c1.9,0.9,2.7,0.5,3.5-1.4c0.3-0.7,0.4-1.4,0.1-2.2c-0.1-0.3-0.3-0.7,0.2-0.8
			c0.3-0.1,0.6,0.3,0.7,0.6c0.2,1,0.4,2,0.3,3.1c-0.1,0.8-0.4,1.7-1.3,1.8c-1,0.1-1.7,0.6-2.3,1.2c-0.9,0.8-1.7,0.7-2.6,0.3
			c-0.3-0.2-0.7-0.3-1-0.5c-0.7-0.6-0.7-0.1-0.8,0.5c-0.2,0.9,0.5,1.6,0.5,2.4c-1.2-1.2-1.9-2.8-2.9-4.1c-0.4-0.6-0.4-1.2-0.1-1.9
			c0.4-0.7,0.2-1.2-0.3-1.8c-0.5-0.6-1-1.2-0.9-2.1c0.2-1.4-0.3-1.8-1.6-1.5c-2.9,0.8-4.8-0.3-5.5-3.3c-0.2-0.7-0.4-1.5-1.3-1.7
			c-2.3-0.5-3.1-2.1-3.5-4.2c-0.3-1.5-1.2-2.5-2.8-2.8c-0.5-0.1-1-0.3-1.6-0.4c-1.7-0.4-2.8-2-3.1-3.7c-0.1-0.8-0.4-1.4-0.7-2.1
			c-0.9-2.3-1.9-4.6-1.4-7.2c0.1-0.7,0.1-1.4-0.2-2.1c-0.5-1.1-0.2-2.1,0.5-2.9c0.8-0.9,0.9-1.9,0.3-3c-0.8-1.5-0.6-1.9,0.5-3.2
			c0.7-0.7,1.6-1.1,2.1-1.9c0.7-1.1,1.5-2,3-1.4c0.6,0.2,0.9-0.1,1-0.8c0-0.5-0.1-1-0.2-1.5c-0.5-1.6-0.3-2,1.1-2.9
			c0.5-0.3,1.2-0.5,1.4-1.2c0.5-2.1,2.5-2.6,4-3.1c2.6-0.9,4-3.1,6-4.6c0.1,0,0.1-0.1,0.1-0.2c0.8-2.2,2.5-3.4,4.5-4.3
			c1.2-0.6,2.3-1.5,2.6-2.9c1.1-0.4,2.1-0.3,3.2-0.2c0.2,1.4-0.3,2.4-1.4,3.2c-0.3,0.3-0.7,0.5-0.8,0.9c-0.4,2.1-1.7,3.7-3,5.2
			c-0.5,0.6-1,1.2-0.6,2.1c0.6,1.9,2.8,2.5,4.5,0.9c1.3-1.2,2.4-1.3,3.8-0.3c0.7,0.5,1.5,0.6,1.6-0.7c0.1-1.3,1.1-1.4,2-1.2
			c1,0.3,1.9,0,2.8-0.2c1.5-0.2,2.5-1.5,4-1.6C248.5,388.9,249.2,389.2,249.8,388.7z M248.3,407.4c1.5,0.7,3,1.3,4.5,2
			c0.6,0.3,1,1,1.6,1.3c0.3,0.1,0.6,0.2,0.8,0c0.3-0.2,0.3-0.5,0.2-0.8c-0.8-1.6-0.7-3.7-2.8-4.7c-1.5-0.7-1.5-1.6-0.5-2.9
			c0.6-0.8,0.4-1.7,0.2-2.5c-0.2-0.7-1-0.4-1.5-0.4c-1-0.1-2,0.2-2.8-0.6c-0.2-0.2-0.5-0.2-0.7,0c-1.1,1-2,2.1-2.7,3.3
			c-0.2,0.4-0.1,1,0.1,1.4c0.5,1,1.1,1.7,2.1,2.2C247.5,406.2,248.1,406.6,248.3,407.4c-0.2,0-0.5,0-0.7-0.1
			c-0.6-0.3-1.1-0.6-1.6,0.1c-0.6,0.7-0.4,1.4,0.2,1.9c1.1,1,2.4,1.9,3.6,2.8c0.3,0.2,0.8,0.2,1.2-0.1c0.3-0.3,0.3-0.6,0.3-1
			c-0.2-1.1-1-1.6-1.8-2.3C248.9,408.3,248.3,408.1,248.3,407.4z M321.8,432.4c1.3,0,2.7,0,3.6-0.7c0.8-0.7,1.7-1.3,2.6-1.8
			c1.2-0.6,1.4-1.7,0.4-2.1c-1.4-0.6-1.6-1.5-1.5-2.7c0.1-0.5-0.3-0.9-0.5-1.4c-0.5-1.5-1-2.9,0.1-4.4c0.3-0.4,0.4-0.9,0.1-1.5
			c-0.5-1.2-1.4-1.3-2.5-1c-1.5,0.4-2.8,0.1-3.1-0.9c-0.3-1.2-0.8-2.5,0-3.8c0.9-1.6,0.6-2.7-0.8-3.9c-0.2-0.1-0.3-0.2-0.5-0.3
			c-0.5-0.3-0.7-0.8-0.5-1.3c0.2-0.6,0.7-0.6,1.3-0.6c0.3,0,0.6,0.2,0.8,0.2c0.8,0.1,1.4-0.3,1.5-1.1c0.1-0.9-0.5-1.1-1.3-1.1
			c-1,0-2,0.2-2.9,0.5c-1.9,0.6-2,0.8-1.4,2.6c0.4,1.2,0.5,2.3-0.4,3.3c-0.7,0.8-1.4,0.9-2.2,0.2c-0.4-0.4-0.8-0.9-1-1.4
			c-0.4-0.7-0.9-1.2-1.7-1.3c-1-0.1-2.4,0.8-2.9,2.1c-0.4,1.2,0.1,1.9,1.2,2.3c0.6,0.2,0.8,0.8,0.8,1.4c0,0.3-0.2,0.8-0.6,0.8
			c-0.9,0.1-1.8,0.2-2.3-0.8c-0.2-0.4-0.4-0.8-0.7-1c-0.7-0.5-1.3-0.3-1.9,0.2c-0.6,0.6,0.2,0.8,0.4,1.2c0.1,0.3,0.5,0.5,0.7,0.7
			c0.9,0.7,1,1.7,0.4,2.6c-0.3,0.5-0.8,1.1-0.8,1.7c-0.3,1.9-1.5,3.1-2.7,4.5c-1.2,1.4-1.2,1.6-0.1,3c0.7,0.8,0.3,1.8-0.8,2
			c-0.4,0.1-0.9,0-1.4,0c-2.3,0-3.6,1.8-2.9,3.9c0.5,1.5,2,2.6,3.1,2.2c1.5-0.6,2.8-0.5,4.2,0.2c1.1,0.6,2.1,0.2,2.8-0.6
			c0.9-1.1,2-1.2,3.2-1c1.9,0.3,3.7,0.2,5.2-1.3c0.6-0.6,1.3-0.8,2.1-0.3C320,432.2,320.9,432.5,321.8,432.4z M285.5,413.4
			c-0.6-0.1-1.3,0-1.8,0.4c-0.6,0.4-0.9,0.9-0.3,1.5c0.8,1,2.1,1.3,3.2,0.8c0.8-0.4,1.3-0.1,1.7,0.5c0.4,0.6,0.9,1.1,1.4,1.6
			c0.8,0.9,0.7,1.4-0.3,1.9c-0.4,0.2-0.8,0.5-1.2,0.7c-1,0.6-1.2,1.5-0.7,2.5c0.4,0.8,2.2,1.7,2.9,1.6c0.3-0.1,0.4-0.2,0.6-0.5
			c0.5-1,1.3-1.7,1.5-2.8c0.1-0.5,0.5-1,0.9-1.1c1.4-0.3,1.9-1.3,2.2-2.6c0.2-0.7,0.4-1.5,1.2-1.8c1.1-0.4,2.3-0.8,3.4-0.9
			c1.7-0.2,2.4-0.9,2.5-2.6c0-1,0.4-1.6,1.3-2c2-0.9,3-2.6,3.4-4.6c0.3-1.3,0.8-2.3,1.8-3.2c0.6-0.5,1.2-0.9,1.7-1.5
			c1.2-1.2,1.1-2.8-0.1-4.1c-1-1.1-2.4-1-3.6,0.1c-0.8,0.8-1.6,1.4-2.8,0.9c-1.4-0.6-2.2-1.7-2.4-3.1c-0.1-1.1-0.4-2.2-0.3-3.3
			c0-0.3,0-0.6-0.3-0.8c-1.3-1.3-4.3-0.9-5.2,0.6c-0.7,1-1.3,2.4-2.7,2.4c-1.9,0-2.8,0.9-3.3,2.6c-0.3,1-0.9,1.5-2.1,1
			c-1.2-0.5-2.2,0.2-2.4,1.5c0,0.3,0,0.7,0,1c0,1.5-0.6,2.8-2.1,3.3c-1.5,0.5-2.5,1.8-3.7,2.7c-0.5,0.4-0.9,0.9-0.9,1.6
			c-0.1,0.8-0.5,1.5-1,2.1c-0.3,0.3-0.7,0.7-0.3,1.2c0.4,0.4,0.9,0.2,1.3,0c1.3-0.8,2.7-1.1,4.2-0.6c0.6,0.2,1.4,0.4,1.1-0.9
			c-0.2-0.6,0.2-1.2,0.5-1.7c0.4-0.7,0.9-1.4,1.2-2.2c0.7-1.4,2.2-1.6,3.2-0.3c0.8,1,1,2.2,1.2,3.4c0.1,0.8-0.4,1-1.1,1.1
			c-1,0.1-1.7,0.6-2.3,1.3c-0.3,0.3-0.4,0.7-0.2,1.1c0.6,1.4,0.6,1.4-0.9,1.3C285.8,413.4,285.7,413.4,285.5,413.4z M330.5,446.7
			c0-0.9,0-1.7-0.3-2.6c-0.6-1.7-2-2.4-3.4-3c-0.8-0.4-1.3-0.8-1.3-1.8c0-0.6-0.2-1.2-0.6-1.7c-0.6-0.8-1.4-0.6-2.2-0.4
			c-0.6,0.2-0.4,0.7-0.3,1.2c0.5,1.5,0.3,1.7-1.3,1.7c-1.4,0-1-1-1.1-1.8c0-0.5,0-0.9-0.5-1.1c-0.6-0.2-1.1-0.2-1.5,0.2
			c-1,0.8-1,2.3,0.2,2.8c1.6,0.8,1.6,2.2,1.9,3.5c0.1,0.6-0.2,1-0.7,1.3c-0.6,0.3-1,0.2-1.5-0.1c-0.6-0.4-1-1-1.3-1.6
			c-0.2-0.5-0.4-1.2-1.1-1.2c-0.8,0-1,0.7-1.3,1.3c-0.5,1.6-1.8,2.2-3.4,1.7c-0.8-0.2-1.2-1-1.9-1.4c-0.4-0.2-0.7-0.7-1.2-0.3
			c-0.4,0.3-0.4,0.9-0.2,1.3c0.4,1.1,0.7,2.2-0.2,3.3c-0.2,0.2-0.1,0.8,0,1.1c0.3,0.8,0.2,1.6,0.2,2.4c0,1.2-0.7,1.8-1.6,1
			c-2-1.7-4.6-2.3-6.3-4.3c-0.3-0.4-0.9-0.5-1.3,0c-0.4,0.5,0.1,0.6,0.5,0.8c0.9,0.5,0.7,1.1,0.2,1.7c-0.7,0.9-0.6,1.6-0.1,2.6
			c1,2,2.6,3,4.5,3.9c2.2,1.1,2.9,1,4.8-0.7c0.5-0.5,1.1-1.1,1.8-0.7c1.1,0.6,2.3,1.1,2.8,2.4c0.3,0.6,0.6,1.3,1.2,1.7
			c0.4,0.2,0.7,0.3,1.1,0c0.4-0.3,0.3-0.7,0.1-1c-0.1-0.3-0.3-0.5-0.4-0.8c-0.9-1.3-0.6-2.8,1-3c1.9-0.3,3.6-1.1,5.4-1.4
			c0.8-0.1,1.6,0.1,2.3-0.4c1.2-0.8,2.5-1.1,3.8-1.3c2.8-0.6,3.1-0.9,3.6-3.6C330.5,447.8,330.5,447.3,330.5,446.7z M358.1,427.9
			c-0.6-0.1-1.5,0.1-2.3,0.3c-1.3,0.3-2,1.5-1.4,2.6c0.5,0.9,0.6,2,1.1,2.9c0.1,0.3,0.4,0.7,0.1,1c-0.4,0.3-0.8,0.3-1.2,0.1
			c-0.9-0.4-1.5-1.1-2-2c-0.6-1.1-2.5-1.7-3.2-0.9c-0.8,0.9-1.7,1-2.8,0.9c-0.7,0-1.1,0.2-1.3,0.9c-0.5,2.1,0.8,3.9,3,3.8
			c1.1,0,1.4,0.4,1.5,1.3c0,0.3,0,0.6,0.1,0.9c0.2,0.6,0.3,1.2-0.3,1.6c-0.6,0.4-1.2,0.3-1.8,0c-0.4-0.2-0.7-0.4-1.1-0.6
			c-0.5-0.4-0.9-0.5-1.4-0.1c-0.6,0.4-1.2,0.7-1.9,0.9c-0.7,0.2-0.7,0.7-0.7,1.3c0.1,0.5,0.2,1.1,0.7,1.2c0.5,0.1,1-0.2,1.2-0.7
			c0.1-0.1,0.1-0.3,0.2-0.4c0.7-1.1,1.8-1.1,2.4,0c0.5,0.9,1.2,1.7,2,2.4c1.1,0.9,2.3,0.6,2.9-0.7c0.6-1.4,1.1-1.6,2.7-1.3
			c1.5,0.3,2.1-0.2,1.7-1.7c-0.4-1.3-0.3-2.5,0-3.8c0.1-0.6,0.1-1.3,0-2c-0.3-1.7,0.4-2.5,2.1-2.8c0.6-0.1,1.5,0,1.8-0.6
			c0.7-1.1,0.9-2.4,0.5-3.7C360.4,427.6,359.3,427.9,358.1,427.9z M271.2,419.4c0-1.3-1.2-3.3-2.3-3.9c-0.7-0.3-1.5-0.3-1.8,0.4
			c-0.6,1.2-1.6,2.3-1.9,3.6c-0.4,1.3-1,2.3-2.4,2.8c-0.6,0.2-1.1,0.8-0.9,1.5c0.1,0.8,0.9,0.8,1.5,0.8c0.2,0,0.4,0,0.6,0
			c1.5,0.1,2.7,0.8,3.4,2.1c0.8,1.3,0.6,2.4-0.4,3.5c-0.6,0.7-0.3,2.2,0.5,2.8c1.5,1.2,1.5,1.2,0.6,2.6c-0.1,0.1-0.2,0.2-0.2,0.3
			c-0.2,0.5-0.3,1.2,0.4,1.3c0.6,0.2,1.3-0.1,1.4-0.8c0.1-0.4,0.1-0.8-0.2-1.2c-0.4-0.8,0.1-1.1,0.7-1.3c1.3-0.5,2.9,0.2,3.6,1.6
			c0.1,0.3,0.4,0.5,0.6,0.8c0.5,0.7,1.1,1.2,2,0.6c0.7-0.5,0.7-1.7,0.1-2.5c-0.4-0.5-0.9-0.7-1.5-0.9c-1.5-0.8-1.8-1.8-1.1-3.3
			c0.5-0.9,0.7-1.9,0.9-3c0.1-0.9-0.1-1.6-1.2-1.8c-0.7-0.1-1.3-0.6-1.4-1.3C271.8,422.5,270.3,421.1,271.2,419.4z M356.7,427.1
			c1,0.1,2.2,0,3.3-0.5c0.8-0.4,0.9-0.9,0.3-1.4c-0.9-0.7-1.7-1.5-3-1.3c-0.9,0.1-1.6-0.3-2-1.1c-0.7-1.4-2.1-2.2-2.9-3.5
			c-0.4-0.7-1.1-0.4-1.7,0c-0.6,0.4-0.5,0.8-0.2,1.4c0.4,0.7,1,1.2,1.5,1.8c0.6,0.7,0.8,1.5,0.5,2.3c-0.3,0.7-1.1,0.3-1.7,0.4
			c-0.2,0-0.4,0-0.6,0c-2-0.3-2.9,0.3-3.4,2.2c-0.3,1.3-0.7,1.6-2,0.9c-0.4-0.2-0.9-0.3-1.3-0.4c-0.7-0.2-1.4-0.4-1.8,0.4
			c-0.5,1.1,0,2,0.6,2.9c0.5,0.6,1,0.5,1.8,0.2c0.9-0.4,1.6-1.3,2.7-1.3c1.4,0,2.9-0.2,4.3,0.4c0.6,0.3,1.1,0.1,1.4-0.6
			C353.6,427.4,354,427.1,356.7,427.1z M379.6,414.4c-0.8,0-1.8,0.1-2,0.9c-0.3,0.8,0.6,1.2,1.2,1.7c1.9,1.5,1.9,3.7,0,5
			c-0.4,0.3-0.8,0.4-0.8,1c-0.2,1.7,1.2,3.6,2.9,4c0.6,0.1,1.3,0.4,1.7-0.2c0.4-0.6-0.2-1-0.4-1.5c-0.8-2.4-1-4,1.8-4.7
			c0.7-0.2,1.3-0.7,1.9-1.1c1.1-0.8,1.1-1.2,0.2-2.1c-1.6-1.5-4.1-1.4-5.7-3C380.3,414.3,379.9,414.4,379.6,414.4z M285.4,421.2
			c1-0.3,1.9-0.6,2.3-1.6c0.3-0.7,0.2-1.4-0.8-1.5c-1.8-0.1-2.9-1.4-4.2-2.3c-0.8-0.5-1.3-1.4-0.6-2.4c0.3-0.5,0.6-1,0.2-1.5
			c-0.5-0.5-1.1-0.8-1.9-0.4c-1.3,0.5-2.6,1.2-4.2,1.1c-0.6,0-1.1,0.4-1.1,1c-0.1,0.6,0.2,1.1,0.9,1.3c0.4,0.1,0.7,0.2,1.1,0.2
			c1.4-0.1,2.3,0.6,2.6,1.9C280.3,420.3,283.3,420.1,285.4,421.2z M305.2,436.2c0-0.8-1.2-1.5-2.1-1.2c-0.6,0.3-1.2,0.6-1.8,0.9
			c-1,0.4-1.5,1.1-1.4,2.2c0.1,1.1,0,2.3-0.5,3.3c-0.9,1.9-1,2.1,0.4,3.7c0.2,0.2,0.5,0.5,0.6,0.8c1.2,2.7,1.9,1.6,3.2,0.2
			c0.1-0.1,0.2-0.3,0.3-0.4c1.1-1.6,1-2.5-0.2-4c-0.4-0.5-0.7-1.1-0.6-1.7c0.1-1.1,0.5-2.2,1.4-3
			C304.9,436.9,305.2,436.7,305.2,436.2z M331.7,381.7c0-1.2-2.3-2.9-3.3-2.5c-0.4,0.2-0.6,0.5-0.7,0.9c-0.1,0.8-0.3,1.6-0.3,2.5
			c0,1.3-0.8,2-2,2c-0.4,0-0.8,0-1.2,0c-1.3,0.2-1.8,1.4-1.1,2.5c0.7,0.9,1.3,1,2.2,0c0.9-1,1.8-1,2.7-0.2c0.7,0.6,1.4,1.1,2,1.7
			c0.4,0.4,0.9,0.7,1.4,0.4c0.6-0.3,0.5-0.9,0.3-1.6c-0.3-0.7-0.4-1.5-0.6-2.3C330.9,383.9,331.5,382.8,331.7,381.7z M260.5,408.1
			c0.2,0,0.3,0,0.5,0c0.5-0.1,1-0.2,1.2-0.7c0.2-0.6-0.4-0.7-0.8-1c-0.5-0.3-1-0.6-1.4-1c-1.1-1-1-1.7,0.2-2.4
			c0.4-0.3,0.9-0.5,0.8-1.1c-0.1-0.6-0.6-0.9-1-1c-1.2-0.3-1.7-1.2-2-2.3c-0.2-0.7-0.5-1.3-1-1.9c-0.8-0.9-1.6-0.9-2.2,0.2
			c-0.4,0.6-0.7,1.2-0.9,1.9c-0.7,1.7,0.2,3.4,2,3.8c0.8,0.2,1.3,0.7,1.5,1.5c0.1,0.5,0.2,1.1,0.3,1.6
			C258.1,407.2,259.1,408.1,260.5,408.1z M245.4,390.9c-1.2,0-2.1,0.5-3.1,0.6c-0.4,0.1-1,0.2-1.1,0.9c0,0.6,0.4,0.8,0.9,1
			c0.8,0.5,1.6,1,1.6,2.2c0,1.3,0.6,1.7,2,1.4c1-0.2,2-0.2,2.9,0.3c0.6,0.3,1.3,0.6,1.9,0.8c1.3,0.3,2.2-0.7,1.8-2
			c-0.4-1.6-1.9-1.8-3.1-2.1c-1.1-0.3-1.8-0.8-2.1-1.9C246.9,391.1,246.2,390.9,245.4,390.9z M331.4,412.9c1.3,0,2.2-0.5,2.4-1.5
			c0.2-0.9,1-1.9,0-2.8c-1.2-1.1-3.7-0.8-4.6,0.6c-0.5,0.8-1.1,1-2,0.8c-0.7-0.2-1.5-0.4-2.2-0.4c-1.2,0-1.5,0.7-0.9,1.7
			c0.4,0.7,0.8,1.3,1.2,2c0.7,1.1,1.9,1.4,2.9,0.6C329.2,413,330,411.9,331.4,412.9z M277.8,441.9c0,1.5,0.5,2.1,2,2
			c1.2-0.1,2.3,0.1,3.3,0.8c0.7,0.4,1.5,0.5,2.2,0.7c0.6,0.2,1.2,0.4,1.7,0.9c1,1,2.4,0.5,3.5,0.8c0.1,0,0.4-0.1,0.5-0.3
			c0.4-0.4,0.4-2.6,0-3.1c-0.7-0.7-1.3-0.2-1.9,0.1c-0.4,0.2-0.8,0.4-1.3,0.5c-0.5,0.2-1,0.2-1.3-0.3c-0.4-0.7-1.1-0.8-1.8-0.9
			c-1.7-0.2-3.6-0.2-3.8-2.6c0-0.4-0.4-0.7-0.9-0.8C279.1,439.6,277.8,440.9,277.8,441.9z M366.9,401.8c-0.5,0.3-1,0.4-1.4,0.8
			c-0.7,0.6-1.5,0.9-2.3,1.3c-1.1,0.4-1.8,1.5-1.6,2.5c0.2,0.8,2.4,2.8,3,2.7c0.2,0,0.3-0.1,0.5-0.2c1.2-0.9,2.5-1.6,3.5-2.7
			c0.5-0.6,1.1-1.1,0.7-2.1C368.9,402.9,367.9,402.4,366.9,401.8z M293.6,441.1c1.1,0,1.8-0.7,1.9-2.2c0.1-0.8,0.4-1.4,1-1.9
			c0.8-0.7,1.6-1.8,1.4-2.8c-0.5-2.7-3.3-4.3-6-3.6c-0.6,0.2-1.1,0.3-1.6-0.2c-0.5-0.5-1.1-0.6-1.7-0.1c-0.4,0.4-0.5,0.9-0.2,1.4
			c0.5,0.6,1.1,0.4,1.7,0.1c0.6-0.4,1.1-0.3,1.7,0.1c1.5,1.3,2.4,2.9,3.2,4.7c0.3,0.8,0.2,1.3-0.6,1.7c-0.6,0.3-1.2,0.8-1.5,1.4
			c-0.2,0.3-0.5,0.6-0.2,1C292.9,441.2,293.3,441.1,293.6,441.1z M274.4,417.4c1.6,0.7,3.2,1.4,4,3.1c0.4,0.8,0.8,1.5,1.4,2.2
			c0.8,0.9,0.6,1.6-0.4,2.2c-0.4,0.2-0.7,0.5-0.8,0.9c-0.3,1.2-0.8,2.2-1.7,2.9c-0.2,0.2-0.3,0.5-0.4,0.8c-0.1,0.7,0.1,1.1,0.9,0.7
			c1.1-0.4,2-0.9,1.8-2.3c0-0.3,0.1-0.7,0.3-0.9c1.1-0.9,1.6-2.3,2.7-3.3c1.6-1.5,1.5-1.9-0.4-3.1c-0.2-0.1-0.4-0.2-0.5-0.3
			c-1.3-0.4-2.2-1.2-2.4-2.7c-0.1-0.9-0.9-1.6-1.7-1.2C276.3,417,275.4,417.1,274.4,417.4z M333,423.3c0-2-1.7-3.5-3.6-3.4
			c-1.4,0.1-1.9,1-1.6,3c0,0.1,0,0.2,0,0.2c-0.4,2.8,1.1,3.1,3.1,3.6c0.7,0.2,1-0.1,1.2-0.5C332.4,425.2,332.7,424.1,333,423.3z
			 M369.8,437.1c0.6,0,1.1-0.1,1.7-0.2c0.6-0.1,1.2,0,1.9-0.1c0.5-0.1,1.1-0.3,1.3-0.9c0.2-0.5-0.3-0.8-0.6-1.1
			c-0.6-0.6-1.2-1.3-1.4-2.1c-0.3-0.9-1.1-1.2-2-1.3c-0.8-0.1-1.3,0.4-1.7,1c-0.4,0.7-0.8,1.3-1.3,2c-0.8,0.9-0.5,1.9,0.6,2.5
			C368.7,437.2,369.3,437.1,369.8,437.1z M223.5,403c-0.7,0-1.2,0.3-1.4,0.9c-0.7,2,0.4,4.6,2.2,5.6c1,0.5,1.8,0.3,2.5-0.5
			c0.6-0.8,1.1-1.6,0.3-2.5c-0.4-0.4-0.7-0.9-0.9-1.4C225.6,403.8,224.8,403.2,223.5,403z M240.1,416.4c1.1,0,1.4-0.1,1.8-0.7
			c0.8-1.1,0.6-1.7-1.1-2.6c-1.3-0.7-1.7-1.7-1.8-3c0-0.3,0-0.6,0-0.9c-0.1-0.4-0.2-0.8-0.6-0.9c-0.4-0.1-0.6,0.1-0.9,0.4
			c-0.8,0.9-0.9,2-0.6,3.1c0.2,0.8,0.6,1.6,0.8,2.5C238.1,416.1,238.4,416.4,240.1,416.4z M372.2,416.7c0.2-0.8-0.2-1.5-1.2-1.5
			c-1.3-0.1-2.6,0-3.5,0.9c-1.6,1.6-2,2.5,0.4,3.8C370,420.9,372.2,419.4,372.2,416.7z M226.3,390.1c1.7,0,3.1-0.9,4.2-2.9
			c0.2-0.4,0.9-0.8,0.3-1.4c-0.5-0.6-1.1-1-1.9-0.9c-2,0.3-3.4,2-3.6,4C225.2,389.8,225.5,390.2,226.3,390.1z M372.7,411.6
			c0.3-0.1,0.6-0.2,0.8-0.2c0.7,0,1.2-0.4,1.4-1c0.1-0.6-0.4-1-0.9-1.4c-0.9-0.6-2-0.6-2.9-1.3c-1.3-1.1-2.5-0.7-3.2,0.8
			c-0.5,1-0.2,1.4,0.9,1.4c1.2-0.1,2.2,0.1,2.9,1.1C372,411.4,372.4,411.5,372.7,411.6z M283.6,429.9c1.6,0,2.5-1.1,3.3-2.3
			c0.8-1.3,0.1-2.4-1.4-2.5c-1.3-0.1-2.7,1.1-3.4,2.7C281.7,429,282.3,429.9,283.6,429.9z M293,436.1c0-1.3-1-2.4-2.3-2.4
			c-1.6,0-2.7,0.6-2.7,1.6c0,1.3,1.4,2.8,2.8,2.9C292,438.2,293,437.3,293,436.1z M356.2,445.6c0,2.4,2,3.7,4,2.7
			c1.2-0.6,1.3-1.5,0.2-2.2c-0.7-0.5-1.5-0.9-2.2-1.4c-0.5-0.3-1-0.8-1.6-0.5C356,444.5,356.3,445.2,356.2,445.6z M294.1,429.6
			c1-0.1,1.7-0.6,1.9-1.6c0.2-0.9-0.6-1-1.2-1.2c-0.8-0.2-1.6-0.5-2.4-0.7c-0.7-0.1-1.3-0.1-1.6,0.7c-0.3,0.8-0.1,1.3,0.6,1.8
			C292.2,429.3,293.2,429.4,294.1,429.6z M244,408.6c0-0.6-0.1-1.2-0.6-1.5c-0.6-0.3-1.2-0.2-1.8,0.2c-0.4,0.3-0.9,0.7-1.2,1.1
			c-0.5,0.8-0.4,1.6,0.2,2.3c0.3,0.4,0.7,0.8,1.4,0.6C242.9,410.9,244,409.5,244,408.6z M375.7,405.7c0.1-0.8-0.1-1.5-1.2-1.5
			c-1.1,0-2.7,1.2-2.8,2.1c0,0.8,1,1.6,2,1.6C375,407.9,375.7,407.1,375.7,405.7z M289.2,407.6c0-1.1-0.6-1.9-1.5-1.9
			c-0.8,0-2.2,1.7-2.2,2.8c0,0.8,0.7,1.1,1.3,1.2C287.9,409.8,289.2,408.6,289.2,407.6z M341.7,435.9c0.1,0.7,0.2,1.4,0.2,2.1
			c0,0.8,0.4,1.5,1.1,1.5c0.7,0,1.3-0.7,1.4-1.5c0.1-1-0.4-1.8-0.9-2.6c-0.3-0.4-0.5-1.2-1.2-1C341.7,434.7,341.8,435.4,341.7,435.9
			z M361.5,418.6c-1.7,0-2,0.2-2,1.1c0,1.1,0.9,1.9,2.1,1.9c1.3,0,1.9-0.6,1.8-1.9C363.2,418.6,362.3,418.6,361.5,418.6z
			 M262.1,410.1c-0.8,0.1-1.8,0.1-2,1.1c-0.2,1,0.8,1.2,1.5,1.5c0,0,0.1,0,0.1,0c1,0.4,1.9,0.1,2.7-0.4c0.4-0.3,0.2-0.7,0-1
			C264,410.4,263.1,410.2,262.1,410.1z M282.5,446.1c-0.8,0.1-1.3,0.6-1.3,1.5c0,0.9,0.5,1.7,1.4,1.9c0.9,0.1,2.2-1,2.2-1.7
			C285,447.2,283.6,446.1,282.5,446.1z M293.5,451.4c0.9,0,1.5-0.4,1.5-1.1c0-0.8-1.2-1.9-2.2-1.9c-0.8,0-1.3,0.3-1.3,1.1
			C291.5,450.5,292.4,451.4,293.5,451.4z M306,438.4c-0.9,0-1.5,0.5-1.5,1.2c0,0.8,1.7,1.9,2.8,1.8c0.5,0,0.9-0.2,0.9-0.8
			C308.3,439.5,307.1,438.4,306,438.4z M299.2,439.6c-0.2-0.6,0.1-1.6-1-1.7c-0.8-0.1-1.7,1.3-1.7,2.4c0,0.7,0.2,1.3,1,1.3
			C298.5,441.6,299.3,440.7,299.2,439.6z M258.8,414.6c0.1-1.1-0.5-1.4-1.5-1.5c-0.9-0.1-1.2,0.5-1.2,1.2c-0.1,0.8,0.9,1.8,1.6,1.8
			C258.6,416.1,258.8,415.5,258.8,414.6z M323.2,400.2c0.1-1-0.3-1.5-1.3-1.5c-0.8,0-1.4,0.2-1.4,1.2c0,0.8,0.9,1.6,1.8,1.6
			C323,401.3,323.3,400.9,323.2,400.2z M310.3,393.5c0-0.4,0-0.8-0.7-0.8c-0.9,0-2,0.8-1.9,1.5c0.1,0.5,0.3,0.9,0.9,1
			C309.5,395.2,310.2,394.5,310.3,393.5z M252.5,393.5c0,0.6,0.1,1.1,0.9,1.1c0.6,0,0.9-0.3,0.9-0.9c-0.1-0.6-0.2-1.3-1-1.3
			C252.5,392.4,252.5,393,252.5,393.5z"/>
		<path class="st4" d="M231.8,380.7c-0.3,1.4-1.4,2.4-2.6,2.9c-2,1-3.7,2.1-4.5,4.3c0,0.1-0.1,0.2-0.1,0.2c-2,1.6-3.3,3.8-6,4.6
			c-1.6,0.5-3.5,1-4,3.1c-0.2,0.7-0.9,0.8-1.4,1.2c-1.4,0.9-1.6,1.3-1.1,2.9c0.2,0.5,0.2,1,0.2,1.5c0,0.6-0.4,1-1,0.8
			c-1.5-0.6-2.3,0.3-3,1.4c-0.5,0.8-1.4,1.2-2.1,1.9c-1.2,1.2-1.3,1.7-0.5,3.2c0.6,1.1,0.5,2-0.3,3c-0.7,0.8-1,1.8-0.5,2.9
			c0.3,0.7,0.3,1.4,0.2,2.1c-0.5,2.6,0.5,4.9,1.4,7.2c0.3,0.7,0.5,1.3,0.7,2.1c0.3,1.7,1.3,3.2,3.1,3.7c0.5,0.1,1,0.3,1.6,0.4
			c1.6,0.2,2.5,1.3,2.8,2.8c0.4,2.1,1.2,3.7,3.5,4.2c0.8,0.2,1.1,1,1.3,1.7c0.7,3,2.6,4.1,5.5,3.3c1.3-0.4,1.8,0.1,1.6,1.5
			c-0.1,0.9,0.3,1.5,0.9,2.1c0.5,0.6,0.7,1.1,0.3,1.8c-0.4,0.6-0.4,1.3,0.1,1.9c1,1.4,1.7,2.9,2.9,4.1c0.5,0.7,1.3,0.8,2,1
			c1.6,0.2,3.2,0.7,4.6,1.5c0.2,0.1,0.4,0,0.6,0c0.8-0.1,1.6,0.1,2.2,0.7c1.7,1.7,4,1.5,6.1,2c0.2,0,0.5,0,0.7,0
			c0.9,0.7,2,0.7,3,0.9c3.7,0.7,7.4,1.4,11.2,1c1.9-0.2,3.6-0.2,5,1.4c0.4,0.5,2.7,0.1,3.2-0.4c0.8-0.8,1.6-0.8,2.7-0.4
			c1.9,0.7,3.8,1.5,5.9,1.4c0.9-0.1,1.7,0.2,2.6,0.4c1.7,0.4,2.5,0.1,3.3-1.2c0.8-1.2,1.4-1.3,2.4-0.3c0.4,0.4,0.7,0.8,1,1.2
			c0.8,1,2.3,1,3.1,0c1.5-2,3.4-2.9,5.9-2.4c0.5,0.1,1,0.1,1.5,0c1.2,0,2.3,0,3.4,0.5c0.8,0.4,1.6,0.2,2.5,0.2
			c1.7,0,2.8,0.9,3.3,2.5c0.1,0.5,0.2,1.2,1,0.9c0.6-0.2,0.8-0.8,0.7-1.4c-0.2-0.6-0.4-1.4,0.2-1.8c0.6-0.4,1.4-0.2,2.2,0.1
			c1.8,0.7,2.4,2.1,2.5,3.8c0,0.8,0.3,1.2,1.1,1.4c0.2,0,0.3,0.1,0.5,0.2c2.3,1.8,4.1,1,5.9-0.9c0.8-0.9,0.8-1.4-0.3-2
			c-0.4-0.2-0.9-0.4-1.4-0.6c-0.4-0.2-0.7-0.4-0.7-0.9c0-0.5,0.4-0.7,0.8-0.8c1-0.2,2-0.1,3-0.1c0.4,0,0.5,0.3,0.4,0.6
			c-0.1,0.6-0.5,1.3,0,1.7c0.7,0.5,1.7,0.6,2.4,0.3c1.9-1.1,3.7-0.2,5.5,0c1.3,0.2,2.6-0.2,3.5-1.2c0.5-0.6,0.9-1.2,0.4-1.9
			c-0.5-0.7-1.3-1.2-2.2-0.9c-1.9,0.7-3.5,0.5-5.2-0.6c-1.1-0.7-2.1-0.4-2.9,0.7c-0.7,0.8-1.1,0.7-1.5-0.2c-0.4-1.1-0.6-2.3-0.5-3.5
			c0.1-1.3,1.1-1.8,2.2-1.1c1.1,0.7,2.1,1.6,3.6,0.8c0.5-0.2,1.1,0.2,1.6,0.5c2.1,1.4,4.1,0.6,4.9-1.8c0.2-0.5,0.3-1.1,0.4-1.7
			c0.2-1.2,0.8-1.7,2-1.7c2,0.1,2.3-0.4,1.8-2.4c-0.1-0.4-0.2-0.8,0.2-1.2c0.4-0.4,0.9-0.2,1.3,0.1c2.8,1.5,3.3,3.8,1.3,6.2
			c-0.5,0.6-0.9,1.2-0.9,2.1c0.1,0.8-0.6,1.2-1.2,1.6c-0.5,0.3-1,0.5-1.3,0.9c-0.5,0.6-1.1,1.2-0.8,2c0.4,0.9,1.4,1.1,2.3,1
			c1.2-0.2,2.4-0.5,3.3-1.6c0.6-0.7,1.5-1.2,2.4-1.5c1.2-0.4,2.3-1.1,3.2-1.8c0.8-0.6,1.1-1.6,0.8-2.6c-0.2-0.9-1-1.1-1.9-1.1
			c-0.3,0-0.6,0.1-0.7-0.3c-0.4-1.4,1.1-3.4,2.5-3.4c1.5-0.1,3-0.4,4.2,1.1c0.3,0.4,0.9,0.2,1.4,0c0.9-0.4,1.8-0.6,2.8-0.3
			c0.9,0.3,1.8-0.2,2.6-0.5c0.7-0.3,1.4-0.5,2.1-0.8c0.9-0.3,1-0.9,0.5-1.6c-0.5-0.7-1.1-1.2-1.9-1.6c-0.6-0.2-1.2-0.5-1.2-1.3
			c0-0.8,0.7-0.9,1.3-1.1c1-0.3,1.8-0.8,1.8-1.8c0-0.8-0.4-1.7-1.3-2.1c-0.9-0.3-1.6,0.1-2.4,0.4c-0.4,0.1-0.7,0.7-1.2,0.2
			c-0.4-0.4,0-0.9,0.1-1.3c0.8-2,1.7-2.3,3.8-2c2,0.3,3.9,1.4,6.1,1.2c0.4,0,0.6,0.2,0.9,0.4c1.2,0.9,2.5,1,3.9,1.1
			c1.9,0.2,3-0.2,3.6-2.2c0.3-1.2,1.5-0.9,2.5-0.9c0.4,0,0.7,0.2,1.1,0.2c0.3,0,0.7,0,0.9-0.3c0.2-0.4-0.1-0.6-0.2-0.9
			c0-0.1-0.1-0.1-0.2-0.2c-1.5-1.4-2.1-3.2-2.2-5.2c0-1-0.6-1-1.2-0.7c-0.8,0.4-1.7,0.7-2.6,0.9c-1.9,0.4-2.9-0.2-3.2-2.1
			c-0.1-0.4-0.2-0.7-0.3-1.1c-0.2-0.9-0.6-1.2-1.6-0.9c-1.7,0.5-3.6,0.3-5.4,0.8c-0.3,0.1-0.8-0.2-0.7-0.5c0.2-1,0-2.3,1.1-2.9
			c0.9-0.5,1.7-0.3,2.6,0.1c1,0.5,2.1,0.9,3.2,0.4c0.7-0.2,1.3,0,1.9,0.4c0.8,0.7,1.7,0.7,2.7,0.2c1.6-0.7,2.9-0.1,3.4,1.6
			c0.1,0.4,0.2,0.8,0.3,1.2c0.1,0.9,0.4,1.3,1.5,1.1c1.5-0.4,3.8,0.9,4.4,2.3c0.4,0.9,0.8,0.9,1.5,0.3c1.3-1,2-3.9,1.2-5.4
			c-0.3-0.6-0.7-0.8-1.4-0.8c-0.7,0-1.7,0-1.5-1c0.1-0.9,0.9-0.9,1.7-0.6c0.5,0.2,0.9,0.1,1.2-0.3c1.4-1.5,3.2-2.4,4.9-3.6
			c1.6-1.1,2.6-2.4,2.4-4.4c-0.1-0.9,0-1.8,0.1-2.7c0.1-1.5-0.7-2.6-2.2-2.5c-1.7,0.1-2.7-1.2-3.9-2.1c-0.4-0.3-0.8-1.1-0.3-1.7
			c0.6-0.6,1.3-0.7,2.1-0.3c0.2,0.1,0.4,0.2,0.6,0.4c0.5,0.5,1,0.9,1.8,0.5c0.5-0.2,0.8-0.8,0.7-1.2c-0.2-0.7-0.5-1.4-1.3-1.7
			c-2.3-0.6-4.5-1.8-6.8-2.3c-1.7-0.4-3.3-1-4.5-2.5c-1.3-1.7-2.8-1.8-4.8-0.8c-0.4,0.2-0.9,0-1.1,0.6c-0.3,0-0.7,0-1,0
			c-0.8,0-1.6-0.1-2.3,0.2c-0.5,0.2-1,0.1-1.4-0.2c-0.8-0.7-1.5-0.4-2.2,0.1c-1.3,1-2.9,1.5-4.4,1.9c-1,0.3-2.1,0-3.2,0
			c-0.2,0-0.5,0-0.7,0c-0.1-0.7-0.6-0.4-1-0.5c-0.2,0-0.5,0-0.7,0c-0.4,0.1-0.8,0.1-1.2,0.3c-1.3,0.6-2.5,0.8-3.7-0.1
			c-0.8-0.6-1.8-0.1-2.6,0.2c-1.7,0.6-2.2,0.3-2.9-1.3c-0.2-0.4-0.4-0.8-0.8-0.9c-1.4-0.4-2.2-1.6-3.3-2.3c-0.9-0.6-0.9-1.1-0.1-1.8
			c1.9-1.7,1.9-2.8,0.3-4.8c-1.2-1.5-2.6-2.8-3.9-4.2c-0.3-0.3-0.7-0.6-0.7-1.1c2.6,1,4.8,2.6,6.3,4.8c1.1,1.6,2.5,2.7,4.2,3.5
			c1.2,0.6,1.6,1.6,1.7,2.8c0,1.3,0.7,2.1,1.6,2.8c1.2,0.9,2.6,1.5,4.2,1.4c1.6-0.1,3.4,0.4,4.9-0.5c2.1-1.4,4.9-1.1,6.9-2.9
			c0.8-0.7,2.1-0.8,2.9,0c1.5,1.5,3.2,1.3,4.7,0.6c1.6-0.7,3.2-0.8,4.7-0.3c1.2,0.4,2.3-0.2,3.4-0.3c2.6-0.2,3.9,1.4,5.1,3.2
			c0.4,0.6,0.7,1.1,1.3,1.4c1.4,0.8,2.5,2,3.7,3.2c0.4,0.4,0.6,1,0.6,1.6c-0.1,3.8,0.4,7.5,0.3,11.3c-0.1,2-0.8,3.7-2,5.2
			c-0.4,0.5-0.8,1.1-0.8,1.8c0.1,1.1-0.4,1.9-0.9,2.9c-0.9,1.5-1.9,2.9-3.1,4.2c-1,1.1-1,2.6-1.8,3.8c-0.3,0.4-0.6,1-1,1.2
			c-1.7,1-2.7,2.8-4.5,3.6c-0.3,0.1-0.6,0.4-0.6,0.7c-0.3,2.5-2.3,3.8-3.7,5.5c-1.6,1.9-3.6,3.2-5.9,4.3c-1.9,0.9-3.4,2.3-5.3,3.2
			c-1,0.5-2,0.7-2.9,0.8c-1.1,0.2-2.1,0.6-3,1.1c-2.1,1.2-4.1,2.3-6.5,2.8c-1.3,0.2-2.1,1.5-3.3,2c-0.6,0.2-1.1,0.4-1.8,0.5
			c-1,0-2,0.3-2.9,0.9c-2.2,1.4-4.8,1.6-7.3,2.3c-0.8,0.2-1.7,0.5-2.4,0.9c-1.2,0.7-2.4,1.1-3.8,1.1c-0.9,0-1.9-0.3-2.7,0.2
			c-1.5,1-3.1,1.1-4.9,0.9c-1.6-0.2-3.3,0-4.5,1.4c-0.3,0.4-0.9,0.5-1.5,0.5c-1.7,0.1-3.5-0.3-5.1,0.7c-0.5,0.3-1.1,0-1.7-0.2
			c-1.8-0.8-3.6-0.8-5.5-0.3c-1.4,0.3-2.8,0.3-4.1-0.4c-1.6-0.9-3.4-1.2-5.2-1.2c-3.1,0.1-6.1-0.4-9.1-1.1c-4.1-1-8.2-2.2-12.4-2.7
			c-2.1-0.3-4.1-1-6.3-0.5c-1.2,0.3-2.5-0.2-3.6-0.8c-0.9-0.5-1.8-0.6-2.6-0.4c-2.1,0.5-4.2,0.1-6.3-0.1c-4.3-0.4-8.6-1.6-12.9-2.3
			c-1.3-0.2-2.4-0.5-3.4-1.3c-0.6-0.5-1.2-0.2-1.8,0c-1,0.4-1.8,0-2.5-0.7c-1-1-2-2-3.6-1.9c-0.4,0-0.6-0.4-0.9-0.6c-1-1-2-2-3-3
			c-0.6-0.6-1.4-1.2-2.2-1c-2.5,0.4-3.7-1.3-4.9-2.9c-0.7-0.9-1.5-1.5-2.6-2c-1.9-0.8-3-3.3-2.2-5.2c0.3-0.6,0.1-1.1-0.3-1.6
			c-0.6-0.6-1.3-1.1-1.9-1.8c-0.7-0.8-0.8-1.7-0.7-2.5c0.1-2.3-0.3-3.1-2.3-4c-1-0.4-1.9-1.1-2.7-1.7c-0.8-0.6-1.6-1.2-1.4-2.4
			c0.1-0.4-0.1-0.9-0.4-1.2c-1.4-1.3-1.7-3.2-2.4-4.9c-0.6-1.2-0.1-2.7-0.2-4.1c0-0.8,0-1.7-0.5-2.4c-0.2-0.4-0.3-0.8-0.2-1.2
			c0.5-1.8-0.1-3.5,0-5.3c0-1.5,0.5-3,1-4.4c0.4-1,1.2-1.6,2.3-1.8c1.9-0.3,2.9-1.6,3.3-3.3c0.2-1,0.6-1.7,1.3-2.3
			c0.8-0.8,1.6-1.7,2.4-2.5c0.2-0.2,0.3-0.4,0.6-0.4c2.1-0.3,3.3-2,4.9-3.2c1.8-1.4,3.3-3.2,5.4-4.1c0.9-0.4,1.6-1.3,2.4-2
			C228,382,229.6,380.8,231.8,380.7z M364,449.4c0,1.2,0.4,1.7,1.1,1.7c1.2,0,2.4-1.1,2.4-2.3c0-1-0.5-1.5-1.4-1.5
			C364.9,447.4,364,448.3,364,449.4z"/>
		<path class="st4" d="M249.8,388.7c-0.6,0.5-1.3,0.3-1.9,0.3c-1.5,0.1-2.5,1.4-4,1.6c-0.9,0.1-1.8,0.4-2.8,0.2
			c-0.9-0.3-1.9-0.1-2,1.2c-0.1,1.3-0.9,1.2-1.6,0.7c-1.4-1-2.4-0.9-3.8,0.3c-1.7,1.6-3.9,0.9-4.5-0.9c-0.3-0.9,0.1-1.6,0.6-2.1
			c1.4-1.5,2.6-3.1,3-5.2c0.1-0.4,0.4-0.7,0.8-0.9c1.1-0.8,1.6-1.9,1.4-3.2c0.7,0.6,0.9,1.9,0.4,2.7c-0.3,0.5-0.7,0.9-0.8,1.4
			c-0.4,1.2,0.4,2.3,1.7,2.8c2,0.7,3.8-0.1,5.7-0.4C244.7,386.3,247.6,386.2,249.8,388.7z"/>
		<path class="st4" d="M286.5,387.6c-0.2,0.9-0.7,1.5-1.4,2.1c-1.3,1.2-2.6,2.4-3.8,3.7c-0.6,0.8-1.8,0.9-2.1,1.9
			c-1.1,0-1.8,0.9-2.5,1.5c-0.4,0.2-0.9,0.6-1,1.1c-0.5,1.8-1.8,3-3.1,4.1c-1.2,1.1-1.8,2.5-2.6,3.8c-0.5,0.8-0.3,1.6,0.3,2.3
			c1.2,1.3,0.8,3,1.1,4.5c0.1,0.7-0.3,0.8-0.8,0.5c-0.8-0.5-1.6-1-2.4-1.5c-0.5-0.3-0.5-0.7-0.5-1.2c0.3-2.1-0.4-3.6-1.9-5.2
			c-1.2-1.4-2.2-3.1-3.6-4.4c-0.5-0.5-1-0.9-1.6-1.2c-1-0.5-1.8-1.1-2.2-2.3c-0.4-1.2-1.6-1.9-2.5-2.7c-0.6-0.6-1-1.3-1-2.2
			c2.9,1.9,5.9,3.7,7.7,6.9c1,1.9,3.1,2.7,4.7,4.1c0.4,0.3,0.8-0.1,1.2-0.4c2.6-1.6,4.7-3.6,6.5-6.1c0.9-1.3,2.2-2.1,3.5-2.9
			c2.2-1.3,3.9-3.1,5.8-4.7C285.1,388.7,285.6,388,286.5,387.6z"/>
		<path class="st4" d="M327.7,376.4c-0.2,0.9-1,0.5-1.4,0.7c-1.3,0.6-2.7,1-4.1,1.5c-0.5,0.2-1.2,0.3-1.6,0.1
			c-2.3-1.3-5-0.8-7.4-1.4c-1.3-0.3-2.6,0.3-3.3,1.5c-0.6,1.1-1.4,1.6-2.5,1.1c-1.8-0.7-3.3,0.4-4.9,0.7c-2.6,0.4-4.9,1.2-7,2.8
			c-0.9,0.7-2.2,1.1-3.4,1.5c-0.4,0.2-0.8,0.2-0.9,0.7c-1.4,0.5-2.3,1.7-3.7,2c-0.3,0-0.7,0-1,0c0.6-1.1,2-1.1,2.9-1.9
			c2.6-2,5.8-3,8.5-4.9c1.2-0.8,2.7-1.6,4.4-1.5c0.8,0.1,1.5-0.5,2.1-1c1.6-1.5,3.5-2,5.6-2c2.4,0,4.8-0.2,7.1,0
			C320.6,376.8,324.2,376.2,327.7,376.4z"/>
		<path class="st4" d="M333.7,379.2c-1.7-0.5-3.4-1.2-4.5-2.8C331.2,376.6,332.5,377.8,333.7,379.2z"/>
		<path class="st5" d="M232.5,454.1c-0.7-0.2-1.5-0.3-2-1c0-0.8-0.7-1.5-0.5-2.4c0.1-0.6,0.1-1.1,0.8-0.5c0.3,0.2,0.7,0.4,1,0.5
			c0.9,0.4,1.8,0.5,2.6-0.3c0.6-0.6,1.3-1.1,2.3-1.2c0.9-0.1,1.1-1,1.3-1.8c0.2-1-0.1-2.1-0.3-3.1c-0.1-0.3-0.3-0.7-0.7-0.6
			c-0.5,0.1-0.3,0.5-0.2,0.8c0.3,0.8,0.2,1.5-0.1,2.2c-0.7,1.9-1.6,2.2-3.5,1.4c-0.3-0.1-0.5-0.2-0.8-0.3c-1-0.3-1.6-1-1.5-2.1
			c0.2-1.4-0.4-2.2-1.8-2.5c-0.7-0.1-1.1-0.5-1.3-1.2c-0.3-1.2-0.7-2.5-0.9-3.7c-0.4-1.8-1.1-2.4-3-2.4c0,0-0.1,0-0.1,0
			c-0.7-0.1-1.7,0.3-2-0.5c-0.4-0.9,0.1-1.9,0.7-2.6c1.3-1.5,1-2.8-1-3.3c-1.9-0.5-2.6-1.9-3.3-3.4c-0.1-0.2-0.1-0.5-0.3-0.7
			c-0.4-0.8-0.6-2-1.8-1.8c-1.1,0.2-1.7,1.2-2,2.3c-0.2,0.7-0.1,1.5-0.5,2.1c-0.8,1.2-3.4,0.9-4.1-0.5c-0.3-0.6,0.1-0.7,0.5-0.9
			c2.1-1.3,2.3-1.7,1.3-4c-0.4-1-0.1-1.8,0.4-2.6c1.4-2.2,1.4-2.2-0.7-3.9c-0.3-0.2-0.5-0.4-0.8-0.6c-0.8-0.7-1.4-0.3-2,0.3
			c-0.4,0.4-0.8,0.9-1.2,1.3c-0.3,0.3-0.7,0.3-1,0.1c-0.3-0.2-0.3-0.5-0.2-0.9c0.2-0.7,0.3-1.5,0.2-2.3c-0.2-0.9,0.2-1.7,1-2.3
			c0.7-0.6,0.9-1.2,0.5-2.1c-0.2-0.5-0.4-1-0.5-1.5c-0.4-1.3,0.7-2.6,2-2.4c1.6,0.3,3.2,0.6,4.7,0.8c1,0.1,1.2-0.3,1-1
			c-0.5-1.8,0.4-3.4,0.7-5.1c0-0.3,0.3-0.7,0.6-0.9c0.4-0.3,0.7-0.6,0.9-1c0.8-2.4,3-3.7,4.5-5.5c0.7-0.8,1.5-1.2,2.4-1.4
			c0.8-0.2,1.4-0.1,1.9,0.5c0.9,1,1.9,1.9,2.9,2.9c0.7,0.7,1.4,0.9,2.3,0.3c1.5-0.9,3.3-1.1,4.9-1.6c1-0.3,1.8,0.2,2.2,1.2
			c0.2,0.4,0.3,0.9,0.4,1.3c0.2,1.2,0.5,2.4,1.2,3.4c0.9,1.2,0.6,2.2-0.7,3c-0.5,0.3-1,0.7-1.6,0.8c-1.3,0.3-1.8,1.2-1.9,2.3
			c-0.1,0.8-0.4,1.5-1.2,1.5c-0.8,0-1.7-0.2-2.2-1.1c-0.9-1.7-1-3.2,0.2-4.7c0.3-0.3,0.4-0.7,0.6-1.1c0.4-1.1,0-1.7-1.1-1.7
			c-1.2,0-2.3-0.2-3.3-1.1c-1.7-1.5-5.6-1.7-6.7,1.4c-0.1,0.4-0.5,0.7-0.7,1c-0.6,0.9-1.1,1.8-0.4,3c0.5,1,0.5,2.2,0.4,3.3
			c-0.1,1.2-1.1,2-2.7,2c-1.1,0-1.9,0.4-2.2,1.4c-0.3,1,0,2.1,0.6,2.8c0.8,0.9,1.6,1.8,3.1,1c0.7-0.4,1.6-0.3,2.4,0.2
			c1.5,1,3.3,1,5,1.4c1.1,0.2,1.9-1.1,1.7-2.5c-0.2-1.3-0.6-2.7,0.7-3.8c0.8-0.6,1.2-0.4,1.6,0.3c0.8,1.6,1.7,3.3-0.2,4.9
			c-0.5,0.5-0.5,1.4,0,1.9c0.6,0.6,1.4,0.8,2.3,0.5c0.7-0.3,1.2-0.9,2.2-0.6c1.2,0.4,1.8,1.2,1.2,2.4c-0.4,0.7-0.9,1.4-1.4,2.1
			c-0.4,0.7-1,1.3-0.2,2.2c0.9,0.9,1.9,0.9,2.7,0.2c1-0.9,2.1-1.5,3.5-1.6c0.9-0.1,0.9-0.9,0.9-1.7c0.1-2.8,2.8-5.5,5.5-5.5
			c0.9,0,1.5,0.3,2,1c1.5,1.8,2.3,3.8,3,6c0.2,0.5,0.4,1,0.9,1.3c1.4,1,1.6,2.4,1.7,4c0,0.8-0.3,1.3-1,1.8c-1.1,0.8-1.8,0.6-2-0.8
			c-0.2-0.9-0.1-1.8,0.2-2.7c0.4-1,0-1.6-0.9-2c-0.9-0.4-1.8-0.7-2.7-0.9c-1-0.3-1.8,0-2.2,1.1c-0.4,1.2-1.2,1.7-2.5,1.6
			c-2.1-0.1-3.2,1.5-4.6,2.6c-0.4,0.3-0.2,0.8,0.2,1.1c0.4,0.4,0.8,1,1.6,0.6c0.7-0.3,1.4-0.6,2-0.9c1.7-0.9,3.3-0.4,4.8,0.4
			c0.9,0.5,1.8,1,2.8,1.1c2.4,0.2,4.2,1.5,5.8,3.1c0.4,0.4,1,0.7,1.4,0.4c1.1-0.7,2.2-0.3,3.3-0.4c1.4,0,2,1.2,2.9,2
			c0.9,0.8,0.7,2.1-0.1,3.2c-0.4,0.6-0.7,1.2-0.6,2c0.2,1.2-0.7,2-0.9,3.1c-0.1,1.1,0.1,1.6,1.2,1.8c0.6,0.1,1.2,0.2,1.8,0.3
			c1.9,0.4,2,0.4,2.9-1.4c0.7-1.3,1.6-2.4,2.8-3.1c0.9-0.5,1.4-0.1,1.7,0.8c0.8,2.5-1,4-1.9,5.9c-0.2,0.5-0.9,0.9-0.3,1.5
			c0.6,0.6,1.1,0.1,1.5-0.2c0.8-0.6,1.7-1.2,2.5-1.9c0.8-0.7,1.9-0.4,2.8-0.2c0.9,0.2,0.8,1.1,0.8,1.8c0,0.9,0,1.8,0,2.7
			c0,1,0.5,1.5,1.5,1.6c1.4,0.1,2.6-0.1,3.5-1.4c0.4-0.7,1.3-1.1,2-1c0.8,0.2,1,1,1,1.8c0.1,1.2,1,1.7,1.9,1.7
			c1.4,0,2.4,0.8,3.5,1.5c1.5,1,2.3,0.8,3-0.8c0.5-1.2,0.8-1.3,1.8-0.4c0.5,0.5,1.1,1,1.2,1.7c0.2,1.4,1.2,2.1,2.4,2.6
			c0.4,0.2,0.9,0.3,0.8,0.8c0,0.4-0.6,0.4-0.9,0.5c-1.7,0.4-3.4,0.7-4.9-0.7c-0.4-0.4-0.8-0.2-1.2,0.1c-1.2,0.7-2.4,1.5-3.7,2
			c-4.2,1.7-5.7-0.6-6.5-3.5c-0.6-1.9-1.1-2.2-2.8-1.1c-0.3,0.2-0.7,0.4-0.9,0.6c-0.5,0.6-0.9,0.5-1.3-0.1c-0.7-0.9-1.5-0.8-2.3-0.3
			c-1.1,0.6-2.2,1.3-3.1,2.3c-0.5,0.6-1.1,0.6-1.8,0.3c-2-0.9-2.5-0.8-3.3,1.2c-0.8,1.9-1.7,2.1-3.2,0.6c-1-0.9-2-1.3-3.4-0.9
			c-1.9,0.5-3.8,0.7-5.7-0.1c-0.3-0.1-0.7-0.1-1-0.1c-2,0.1-3.8-0.5-5.7-0.8c-0.9-0.1-1.9-0.6-2.9-0.2c-0.2,0-0.5,0-0.7,0
			c-0.5-0.9-1.3-1.2-2.3-1.2c-1.2-0.1-2.2-0.3-3.1-1.2c-0.5-0.5-1-1.1-1.9-1.1c-0.9,0.1-1.8-0.3-2.6-0.5
			C234.9,453.9,233.7,453.5,232.5,454.1z M249.2,440.8c-0.9,0-1.7,0.5-2.5,0.7c-1,0.2-1.8,0.7-1.7,2c0,0.4-0.3,0.9-0.5,1.4
			c-1,2.4-1.1,3.7,1.5,4.3c0.8,0.2,1.5,0.4,2.2,0.7c0.4,0.2,0.8,0.1,0.9-0.3c0.6-2,2-3.5,3.3-5.1c0.4-0.5,0.6-1.1,0.2-1.6
			C251.6,442,250.6,441.1,249.2,440.8z M264.5,456.4c1.5,0.1,2.3-0.9,1.6-1.6c-1.1-1.2-1.9-2.8-3.8-2.9c-0.7,0-1.2-0.4-1.5-1
			c-1-1.9-2.8-3-4.5-4.2c-0.7-0.6-1.5-0.4-1.8,0.5c-0.6,1.8-1.7,3.2-3,4.5c-0.3,0.4-0.4,0.7,0.1,1c0.9,0.6,2.2,0.2,2.6-0.8
			c0.2-0.4,0.4-0.8,0.6-1.2c0.2-0.4,0.7-0.4,1.1-0.4c0.5,0.1,0.6,0.4,0.6,0.8c0,0.3,0,0.7,0,1c0,2.2,1.4,3.9,3.6,3.8
			C261.7,456,263.2,455.9,264.5,456.4z M227,425.1c0.2,1.3,0.3,3.1,1.7,4.3c0.6,0.5,1.1,0.5,1.7,0.2c0.6-0.3,0.9-1,0.7-1.6
			c-0.5-1.2-0.5-2.4-0.6-3.6c-0.1-1.3-0.9-1.9-1.9-1.8C227.4,422.7,227,423.3,227,425.1z M219.3,419.9c0.7,0.2,1.4-0.2,2.1-0.5
			c0.9-0.5,1-1.2,0.9-2.1c-0.1-0.9-0.7-1.1-1.4-1.3c-0.3-0.1-0.6-0.2-1-0.3c-0.7-0.2-1.4-0.5-1.9,0.2c-0.5,0.9-1,1.9-0.7,2.9
			C217.5,419.7,218.3,420,219.3,419.9z"/>
		<path class="st5" d="M287.5,387.7c1.4-0.3,2.4-1.6,3.7-2c1.3,0.1,2.6-0.1,3.8-0.7c1.5-0.8,3,0.1,4.5,0.1c0.8,0,1.6,0.1,2.5,0.3
			c1.2,0.2,1.8-0.7,1.7-2c-0.2-1.4,0.3-1.9,1.7-1.6c1.5,0.3,1.8,0.6,1.6,2.2c-0.1,0.9-0.3,1.9,0.7,2.6c0.7,0.6,1.3,0.5,1.9,0
			c0.6-0.4,0.7-1,0.3-1.8c-0.3-0.6-0.7-1-1.2-1.5c-0.5-0.5-0.3-0.9,0.2-1.2c1.9-1.4,4.1-0.8,4.8,1.5c0.4,1.2,0.9,2.3,1.1,3.6
			c0.3,1.5,1.7,2.3,3.1,1.8c1.3-0.5,2,0.1,2.6,1c0.9,1.3,2,1.7,3.5,1.3c1.6-0.4,3.5,0.8,4,2.4c0.5,1.8,1.5,3.3,2.1,5
			c0.3,1,1.3,1.7,2.6,1.6c2.3-0.2,3.4,0.6,3.9,3.5c0.1,0.6,0.4,1,1,1.1c0.6,0.2,1.2,0.2,1.7,0.1c0.9-0.1,1.6,0.2,2.1,1
			c0.6,0.9,1.4,1,2.2,0.4c1-0.8,1.1-1.5,0.2-2.3c-1.1-1-1.8-2.1-2-3.6c-0.1-0.9-0.9-1.6-1.7-2c-0.7-0.3-1.4-0.7-2.2-1
			c-0.4,0-0.6-0.2-0.7-0.5c-0.1-1.1-0.9-1.6-1.7-2.1c-1.1-0.6-1.8-1.5-2.2-2.6c-0.3-0.8-0.1-1.3,0.7-1.7c1.7-0.9,1.6-0.9,1.2-2.7
			c-0.4-1.6-1-3.2-1.1-4.9c0-0.3-0.2-0.8,0.3-1c0.4-0.1,0.7-0.1,1,0.2c1.9,1.7,3.7,3.4,4.7,5.8c0.3,0.6,0.7,1.1,1.3,1.5
			c0.5,0.3,1.1,0.7,0.8,1.4c-0.2,0.6-0.7,1-1.4,1.1c-2.4,0.4-2.6,1.2-1.3,3.3c1.1,1.7,2.6,2.8,4.2,3.9c0.8,0.5,1.4,1.3,2.1,1.9
			c1.4,1.1,3,1.5,4.6,0.6c1.1-0.6,1.7-0.1,2,0.9c0.4,1.5,1.5,2.3,2.7,3.1c0.4,0.3,0.8,0.2,1.2,0.2c1.5-0.3,2.4,0.3,2.9,1.7
			c1,2.8,1,2.7-1.9,2.7c-1.8,0-3.3,0.8-4.2,2.4c-0.6,1-1.3,1.6-2.5,1.5c-0.4,0-0.7-0.1-0.9-0.4c-0.5-1-1.6-1.3-2.5-1.8
			c-0.4-0.2-0.8-0.4-1.3,0c-0.4,0.4-0.8,0.9-0.5,1.4c0.9,1.7,0.1,3-1.1,4.2c-0.3,0.3-0.6,0.6-0.3,1.1c0.2,0.4,0.6,0.6,1.1,0.5
			c2.2-0.4,3,1.1,3.8,2.7c0.2,0.4,0.2,0.8,0,1.2c-0.6,1-2.8,1.6-3.8,1c-2.5-1.4-3.2-1.2-4.2,1.5c-0.7,1.8-1.5,3.7-0.3,5.7
			c0.7,1.1,0.1,2.4-0.4,3.4c-0.5,0.9-0.7,1.8-0.4,2.7c0.2,0.9-0.2,1.3-1,1.2c-2.4-0.3-4.7-0.2-7.1-0.2c-0.9,0-1.6,0.1-2.3,0.6
			c-0.5,0.4-1.1,0.6-1.7,0.1c-0.6-0.4-0.8-1.1-0.6-1.8c0.2-0.7,0.2-1.1-0.6-1.3c-0.3-0.1-0.5-0.3-0.7-0.5c-0.5-0.5-1.5-0.7-1.1-1.7
			c0.2-0.6,2.2-1,2.8-0.7c0.3,0.1,0.3,0.4,0.2,0.6c-0.1,0.4-0.1,0.7-0.2,1.1c0,0.3,0,0.6,0.4,0.7c0.3,0,0.6-0.2,0.7-0.4
			c0.3-0.6,0.3-1.2,0-1.8c-0.4-0.9,0.7-2.7,1.7-2.7c0.2,0,0.4,0.1,0.5,0.3c1,1.1,2,1.2,3.3,0.5c1.5-0.9,1.7-1.6,1-3.1
			c-0.5-1.1-0.3-1.9,0.5-2.7c1.5-1.5,1.3-1.7,0.6-3.6c-0.9-2.4-2.7-3.5-4.8-4.2c-0.5-0.2-1.2-0.4-1.2-1c0-0.7,0.6-1,1.2-1.4
			c0.7-0.4,1.4-0.4,2.1-0.3c1.1,0.1,1.5-0.3,1.5-1.4c0-0.8-0.3-1.6,0.3-2.3c0.6-0.7,1.3-1,2.1-0.8c0.6,0.2,1.1,0.2,1.4-0.4
			c0.3-0.5,0.3-1.1,0-1.5c-0.7-1-1.2-2.2-1.6-3.4c-0.2-0.7-0.8-0.6-1.2-0.5c-0.8,0.1-1.4-0.2-1.9-0.9c-0.5-0.7-1.3-0.9-2.1-0.9
			c-3.4,0.4-5.1-1.9-6.7-4.3c-1.1-1.6-2.6-2.4-4.5-1.8c-1.5,0.5-2,1.2-2,2.7c0,1.5-0.3,1.8-1.9,1.8c-1.8,0.1-2.6-0.5-2.6-1.9
			c0-0.3,0-0.7-0.1-1c-0.4-1.4-0.1-2.4,1-3.4c1.5-1.3,1.2-3.2-0.4-4c-0.7-0.3-1.4-0.2-2.1,0c-1,0.3-1.9,0.2-2.5-0.9
			c-0.5-0.9-1.5-1.6-2.6-0.9c-1.7,1-3.4,0.6-5.1,0.4c-1.6-0.2-3.3-0.4-4.9-0.5c-1.3,0-2.1,0.5-2.3,1.8c-0.2,1.2-1,1.8-2.2,1.7
			c-1.5-0.2-2.5,0.3-3.1,1.8c-0.2,0.6-0.7,1.3-1.6,1.2c-0.9-0.1-1.6-0.5-1.8-1.5c-0.1-0.5-0.5-1-0.8-1.4c-0.7-0.7-0.7-1.5,0.1-2
			C286.7,390.1,287.1,388.9,287.5,387.7z"/>
		<path class="st4" d="M321.8,432.4c-0.9,0.1-1.8-0.2-2.6-0.7c-0.8-0.5-1.5-0.4-2.1,0.3c-1.5,1.5-3.3,1.6-5.2,1.3
			c-1.3-0.2-2.3-0.1-3.2,1c-0.7,0.8-1.7,1.2-2.8,0.6c-1.4-0.7-2.7-0.8-4.2-0.2c-1.1,0.5-2.6-0.6-3.1-2.2c-0.7-2.1,0.6-3.9,2.9-3.9
			c0.5,0,0.9,0.1,1.4,0c1.1-0.2,1.5-1.2,0.8-2c-1.2-1.4-1.2-1.6,0.1-3c1.1-1.3,2.4-2.6,2.7-4.5c0.1-0.6,0.5-1.1,0.8-1.7
			c0.6-0.9,0.5-1.9-0.4-2.6c-0.3-0.2-0.6-0.4-0.7-0.7c-0.2-0.4-1-0.6-0.4-1.2c0.6-0.6,1.2-0.7,1.9-0.2c0.4,0.3,0.5,0.6,0.7,1
			c0.5,1,1.4,0.9,2.3,0.8c0.4-0.1,0.6-0.5,0.6-0.8c0-0.6-0.3-1.2-0.8-1.4c-1.1-0.4-1.6-1.1-1.2-2.3c0.5-1.3,1.9-2.3,2.9-2.1
			c0.8,0.1,1.4,0.6,1.7,1.3c0.3,0.5,0.6,1,1,1.4c0.8,0.7,1.5,0.6,2.2-0.2c0.9-1.1,0.8-2.1,0.4-3.3c-0.6-1.9-0.5-2,1.4-2.6
			c1-0.3,1.9-0.5,2.9-0.5c0.8,0,1.4,0.3,1.3,1.1c-0.1,0.8-0.7,1.2-1.5,1.1c-0.3,0-0.6-0.2-0.8-0.2c-0.5,0-1,0-1.3,0.6
			c-0.2,0.5,0,1,0.5,1.3c0.2,0.1,0.4,0.2,0.5,0.3c1.4,1.2,1.8,2.3,0.8,3.9c-0.8,1.3-0.3,2.6,0,3.8c0.2,1,1.6,1.3,3.1,0.9
			c1.1-0.3,1.9-0.1,2.5,1c0.3,0.6,0.2,1.1-0.1,1.5c-1.1,1.5-0.6,2.9-0.1,4.4c0.2,0.5,0.5,0.9,0.5,1.4c-0.2,1.3,0.1,2.2,1.5,2.7
			c0.9,0.4,0.7,1.5-0.4,2.1c-1,0.5-1.8,1.1-2.6,1.8C324.5,432.4,323.1,432.4,321.8,432.4z M316,425.6c1.6,0,1.6,0.1,2.8-1.8
			c1.6-2.5,1.7-3.4-1.1-4.6c0,0-0.1,0-0.1-0.1c-1-0.7-1.7-0.2-2.3,0.7c-0.6,0.9-1.2,1.8-1.8,2.7c-0.9,1.4-0.2,2.9,1.5,3
			C315.4,425.7,315.7,425.6,316,425.6z"/>
		<path class="st4" d="M285.5,413.4c0.2,0,0.3,0,0.5,0c1.5,0.1,1.5,0.1,0.9-1.3c-0.2-0.4-0.1-0.8,0.2-1.1c0.6-0.7,1.4-1.2,2.3-1.3
			c0.7-0.1,1.2-0.3,1.1-1.1c-0.2-1.2-0.5-2.4-1.2-3.4c-1-1.3-2.5-1.1-3.2,0.3c-0.4,0.7-0.8,1.4-1.2,2.2c-0.3,0.5-0.7,1.1-0.5,1.7
			c0.3,1.3-0.5,1.1-1.1,0.9c-1.5-0.6-2.9-0.3-4.2,0.6c-0.4,0.2-0.9,0.4-1.3,0c-0.5-0.5,0-0.8,0.3-1.2c0.5-0.6,0.9-1.3,1-2.1
			c0.1-0.7,0.5-1.2,0.9-1.6c1.2-0.9,2.2-2.2,3.7-2.7c1.6-0.5,2.1-1.8,2.1-3.3c0-0.3,0-0.7,0-1c0.2-1.3,1.2-2,2.4-1.5
			c1.2,0.5,1.8,0,2.1-1c0.5-1.6,1.4-2.6,3.3-2.6c1.4,0,2-1.4,2.7-2.4c1-1.6,3.9-1.9,5.2-0.6c0.2,0.2,0.3,0.5,0.3,0.8
			c-0.1,1.1,0.2,2.2,0.3,3.3c0.2,1.4,1,2.5,2.4,3.1c1.2,0.5,2-0.1,2.8-0.9c1.2-1.2,2.6-1.2,3.6-0.1c1.2,1.3,1.3,2.9,0.1,4.1
			c-0.5,0.5-1.1,1-1.7,1.5c-1,0.8-1.5,1.9-1.8,3.2c-0.4,2-1.4,3.7-3.4,4.6c-1,0.4-1.3,1-1.3,2c-0.1,1.7-0.8,2.4-2.5,2.6
			c-1.2,0.2-2.3,0.6-3.4,0.9c-0.8,0.3-1,1.1-1.2,1.8c-0.3,1.2-0.8,2.2-2.2,2.6c-0.5,0.1-0.8,0.6-0.9,1.1c-0.2,1.1-1,1.9-1.5,2.8
			c-0.1,0.2-0.3,0.4-0.6,0.5c-0.7,0.2-2.6-0.8-2.9-1.6c-0.5-1-0.3-1.9,0.7-2.5c0.4-0.2,0.8-0.5,1.2-0.7c1-0.6,1.1-1.1,0.3-1.9
			c-0.5-0.5-1-1-1.4-1.6c-0.4-0.6-0.9-0.8-1.7-0.5c-1.2,0.5-2.4,0.2-3.2-0.8c-0.5-0.6-0.3-1.2,0.3-1.5
			C284.2,413.4,284.9,413.3,285.5,413.4z M302.6,401.9c-1.7,0.4-3.6,1.9-4.9,3.8c-1,1.5-1.8,3.1-2.2,5c-0.3,1.4,0.3,2.7,1.7,3.1
			c1.5,0.5,3.3-0.3,3.4-1.7c0.2-2.4,1.8-3.5,3.8-4.3c0.8-0.4,1.5-0.9,1.5-1.9c0-0.7-0.2-1.5-0.4-2.2
			C305.1,402,305,401.9,302.6,401.9z M297.2,402.7c1.5,0.1,2.3-0.8,3-1.9c0.6-0.9,0.2-1.8-0.9-1.9c-1.7-0.1-3.4,0-5-0.5
			c-0.6-0.2-1.2,0.3-1.5,0.9c-0.3,0.4-0.4,0.9,0,1.1C294.2,401.3,295.4,402.5,297.2,402.7z"/>
		<path class="st4" d="M330.5,446.7c0,0.5,0.1,1.1,0,1.6c-0.5,2.7-0.8,3-3.6,3.6c-1.3,0.3-2.7,0.5-3.8,1.3c-0.7,0.5-1.5,0.2-2.3,0.4
			c-1.8,0.3-3.5,1.1-5.4,1.4c-1.6,0.2-2,1.7-1,3c0.2,0.2,0.3,0.5,0.4,0.8c0.2,0.3,0.3,0.7-0.1,1c-0.4,0.4-0.7,0.3-1.1,0
			c-0.6-0.4-1-1-1.2-1.7c-0.5-1.3-1.7-1.8-2.8-2.4c-0.7-0.4-1.3,0.3-1.8,0.7c-1.9,1.7-2.5,1.8-4.8,0.7c-1.8-0.9-3.5-2-4.5-3.9
			c-0.5-1-0.6-1.8,0.1-2.6c0.5-0.6,0.7-1.2-0.2-1.7c-0.3-0.2-0.8-0.3-0.5-0.8c0.4-0.5,1-0.3,1.3,0c1.7,2,4.4,2.6,6.3,4.3
			c0.9,0.8,1.6,0.3,1.6-1c0-0.8,0.1-1.6-0.2-2.4c-0.1-0.3-0.2-0.9,0-1.1c0.9-1.1,0.6-2.1,0.2-3.3c-0.1-0.4-0.2-0.9,0.2-1.3
			c0.5-0.4,0.8,0.2,1.2,0.3c0.7,0.3,1.1,1.1,1.9,1.4c1.6,0.4,2.9-0.1,3.4-1.7c0.2-0.7,0.5-1.3,1.3-1.3c0.7,0,0.9,0.7,1.1,1.2
			c0.3,0.7,0.7,1.2,1.3,1.6c0.5,0.3,0.9,0.5,1.5,0.1c0.5-0.3,0.9-0.7,0.7-1.3c-0.3-1.3-0.3-2.8-1.9-3.5c-1.2-0.5-1.2-2-0.2-2.8
			c0.5-0.4,1-0.4,1.5-0.2c0.6,0.2,0.5,0.7,0.5,1.1c0,0.8-0.3,1.7,1.1,1.8c1.6,0,1.8-0.2,1.3-1.7c-0.2-0.5-0.3-1,0.3-1.2
			c0.7-0.2,1.6-0.4,2.2,0.4c0.4,0.5,0.6,1.1,0.6,1.7c0,1,0.5,1.4,1.3,1.8c1.4,0.7,2.8,1.3,3.4,3C330.5,445,330.4,445.9,330.5,446.7z
			"/>
		<path class="st5" d="M358.1,427.9c1.2,0.1,2.3-0.3,2.7,1c0.4,1.3,0.2,2.6-0.5,3.7c-0.3,0.6-1.2,0.5-1.8,0.6
			c-1.7,0.2-2.3,1.1-2.1,2.8c0.1,0.6,0.1,1.3,0,2c-0.3,1.3-0.4,2.5,0,3.8c0.5,1.5-0.1,2-1.7,1.7c-1.6-0.3-2.1-0.1-2.7,1.3
			c-0.6,1.3-1.8,1.6-2.9,0.7c-0.8-0.7-1.4-1.5-2-2.4c-0.7-1.1-1.7-1.1-2.4,0c-0.1,0.1-0.1,0.3-0.2,0.4c-0.3,0.5-0.7,0.8-1.2,0.7
			c-0.6-0.1-0.7-0.7-0.7-1.2c-0.1-0.5,0-1,0.7-1.3c0.7-0.2,1.3-0.6,1.9-0.9c0.6-0.4,1-0.3,1.4,0.1c0.3,0.3,0.7,0.5,1.1,0.6
			c0.6,0.3,1.2,0.4,1.8,0c0.6-0.4,0.5-1,0.3-1.6c-0.1-0.3-0.1-0.6-0.1-0.9c-0.1-0.9-0.4-1.4-1.5-1.3c-2.2,0.1-3.5-1.7-3-3.8
			c0.2-0.7,0.6-0.9,1.3-0.9c1.1,0.1,2,0,2.8-0.9c0.7-0.8,2.6-0.2,3.2,0.9c0.5,0.9,1.1,1.6,2,2c0.4,0.2,0.8,0.2,1.2-0.1
			c0.4-0.3,0.1-0.7-0.1-1c-0.5-0.9-0.6-2-1.1-2.9c-0.6-1.1,0.1-2.3,1.4-2.6C356.7,428,357.5,427.8,358.1,427.9z"/>
		<path class="st5" d="M271.2,419.4c-0.9,1.7,0.6,3.1,0.9,4.7c0.2,0.7,0.7,1.1,1.4,1.3c1.1,0.2,1.3,0.9,1.2,1.8c-0.2,1-0.4,2-0.9,3
			c-0.7,1.5-0.4,2.5,1.1,3.3c0.5,0.3,1.1,0.5,1.5,0.9c0.6,0.7,0.6,1.9-0.1,2.5c-0.9,0.6-1.5,0.1-2-0.6c-0.2-0.3-0.4-0.5-0.6-0.8
			c-0.6-1.4-2.2-2.1-3.6-1.6c-0.5,0.2-1.1,0.6-0.7,1.3c0.2,0.4,0.3,0.8,0.2,1.2c-0.2,0.7-0.8,1-1.4,0.8c-0.7-0.2-0.6-0.8-0.4-1.3
			c0-0.1,0.1-0.2,0.2-0.3c0.9-1.4,0.9-1.4-0.6-2.6c-0.8-0.6-1.1-2.1-0.5-2.8c1-1.1,1.2-2.2,0.4-3.5c-0.8-1.3-1.9-2-3.4-2.1
			c-0.2,0-0.4,0-0.6,0c-0.7,0-1.4,0-1.5-0.8c-0.1-0.7,0.3-1.2,0.9-1.5c1.4-0.5,2-1.5,2.4-2.8c0.4-1.3,1.3-2.4,1.9-3.6
			c0.4-0.8,1.2-0.8,1.8-0.4C270,416.1,271.2,418.1,271.2,419.4z"/>
		<path class="st4" d="M356.7,427.1c-2.8,0-3.2,0.3-4,2.5c-0.3,0.7-0.7,0.9-1.4,0.6c-1.4-0.6-2.9-0.4-4.3-0.4
			c-1.1,0-1.8,0.9-2.7,1.3c-0.7,0.3-1.3,0.4-1.8-0.2c-0.7-0.8-1.2-1.8-0.6-2.9c0.4-0.7,1.1-0.6,1.8-0.4c0.4,0.1,0.9,0.2,1.3,0.4
			c1.3,0.6,1.7,0.4,2-0.9c0.4-1.9,1.4-2.5,3.4-2.2c0.2,0,0.4,0.1,0.6,0c0.6-0.1,1.4,0.3,1.7-0.4c0.3-0.8,0.1-1.6-0.5-2.3
			c-0.5-0.6-1.2-1-1.5-1.8c-0.3-0.5-0.4-1,0.2-1.4c0.6-0.3,1.2-0.7,1.7,0c0.8,1.3,2.2,2.1,2.9,3.5c0.3,0.7,1.1,1.2,2,1.1
			c1.3-0.2,2.1,0.6,3,1.3c0.7,0.5,0.5,1.1-0.3,1.4C358.9,427.1,357.7,427.2,356.7,427.1z"/>
		<path class="st4" d="M337.2,396.9c0.1,0.3,0.4,0.5,0.7,0.5c0.1,0.8,0.8,1.1,1.3,1.5c1.5,1.1,2,2.2,1.7,3.4
			c-0.3,0.9-0.9,1.2-1.7,1.3c-0.9,0.1-1.6-0.1-1.9-1c-0.2-0.5-0.3-1.2-0.6-1.6c-0.7-0.9-1.6-1.5-2.9-1.4c-2.1,0-3.1-1-3.6-2.9
			c-0.6-2.2-1-4.6-3.5-5.8c-1.2-0.6-1.3-1.9-0.7-2.7c0.7-0.8,2-0.9,2.8,0.3c1.3,1.9,3.1,3.3,4.5,5.1
			C334.4,395,336.1,395.6,337.2,396.9z"/>
		<path class="st4" d="M248.3,407.4c-0.2-0.8-0.8-1.2-1.5-1.6c-0.9-0.5-1.6-1.3-2.1-2.2c-0.2-0.5-0.4-1-0.1-1.4
			c0.7-1.3,1.6-2.4,2.7-3.3c0.2-0.2,0.5-0.2,0.7,0c0.8,0.8,1.9,0.5,2.8,0.6c0.5,0,1.3-0.3,1.5,0.4c0.2,0.8,0.4,1.7-0.2,2.5
			c-1,1.3-1,2.2,0.5,2.9c2.1,1,2,3.1,2.8,4.7c0.1,0.3,0,0.6-0.2,0.8c-0.3,0.2-0.5,0.1-0.8,0c-0.7-0.3-1-1-1.6-1.3
			C251.3,408.7,249.8,408.1,248.3,407.4L248.3,407.4z"/>
		<path class="st5" d="M276.8,396.9c0.7-0.6,1.4-1.5,2.5-1.5c1.4-0.6,2.8-0.6,4.2-0.1c1.2,0.4,1.2,1,0.3,1.8
			c-1.1,0.9-1.3,1.8-0.9,3.2c0.3,0.9,0.2,1.9-0.8,2.5c-1.1,0.6-2,1.5-3.2,1.9c-1.2,0.4-3.2-0.1-3.9-1.2c-0.4-0.6-0.5-1.5,0.3-1.8
			c1.7-0.7,2-1.8,1.5-3.4C276.7,397.8,276.8,397.4,276.8,396.9z"/>
		<path class="st5" d="M379.6,414.4c0.3,0,0.7-0.1,0.9,0.1c1.6,1.6,4.1,1.5,5.7,3c1,0.9,0.9,1.3-0.2,2.1c-0.6,0.4-1.2,0.9-1.9,1.1
			c-2.8,0.7-2.6,2.3-1.8,4.7c0.2,0.5,0.8,0.9,0.4,1.5c-0.5,0.6-1.1,0.3-1.7,0.2c-1.7-0.4-3.1-2.3-2.9-4c0.1-0.6,0.5-0.7,0.8-1
			c1.9-1.3,1.9-3.6,0-5c-0.6-0.4-1.5-0.8-1.2-1.7C377.9,414.4,378.8,414.4,379.6,414.4z"/>
		<path class="st5" d="M285.4,421.2c-2.1-1.1-5.1-0.9-5.7-4.2c-0.2-1.2-1.1-2-2.6-1.9c-0.4,0-0.7-0.1-1.1-0.2
			c-0.7-0.2-1-0.7-0.9-1.3c0.1-0.6,0.6-1,1.1-1c1.5,0.1,2.8-0.6,4.2-1.1c0.8-0.3,1.4,0,1.9,0.4c0.5,0.4,0.1,1-0.2,1.5
			c-0.7,1-0.2,1.9,0.6,2.4c1.3,0.9,2.4,2.2,4.2,2.3c0.9,0.1,1,0.7,0.8,1.5C287.3,420.6,286.4,420.9,285.4,421.2z"/>
		<path class="st5" d="M305.2,436.2c0,0.4-0.3,0.6-0.6,0.9c-0.8,0.8-1.2,1.9-1.4,3c-0.1,0.7,0.1,1.2,0.6,1.7c1.2,1.4,1.3,2.4,0.2,4
			c-0.1,0.1-0.2,0.3-0.3,0.4c-1.3,1.4-2,2.5-3.2-0.2c-0.1-0.3-0.4-0.5-0.6-0.8c-1.4-1.6-1.4-1.8-0.4-3.7c0.5-1,0.6-2.2,0.5-3.3
			c-0.1-1.1,0.4-1.8,1.4-2.2c0.6-0.3,1.2-0.6,1.8-0.9C304,434.7,305.2,435.4,305.2,436.2z"/>
		<path class="st5" d="M331.7,381.7c-0.3,1.1-0.8,2.2-0.5,3.5c0.2,0.8,0.3,1.5,0.6,2.3c0.2,0.6,0.3,1.2-0.3,1.6
			c-0.5,0.3-1,0-1.4-0.4c-0.6-0.6-1.3-1.1-2-1.7c-1-0.9-1.8-0.9-2.7,0.2c-0.9,1-1.5,1-2.2,0c-0.8-1.1-0.3-2.3,1.1-2.5
			c0.4-0.1,0.8,0,1.2,0c1.3-0.1,2-0.8,2-2c0-0.8,0.2-1.6,0.3-2.5c0.1-0.5,0.3-0.8,0.7-0.9C329.4,378.8,331.8,380.6,331.7,381.7z"/>
		<path class="st5" d="M260.5,408.1c-1.4,0-2.4-0.9-2.7-2.4c-0.1-0.5-0.2-1.1-0.3-1.6c-0.2-0.8-0.7-1.3-1.5-1.5
			c-1.8-0.4-2.7-2.1-2-3.8c0.3-0.7,0.6-1.3,0.9-1.9c0.6-1,1.4-1.1,2.2-0.2c0.5,0.5,0.8,1.2,1,1.9c0.3,1.1,0.8,2,2,2.3
			c0.4,0.1,0.9,0.4,1,1c0.1,0.6-0.4,0.8-0.8,1.1c-1.2,0.7-1.3,1.5-0.2,2.4c0.4,0.4,1,0.6,1.4,1c0.3,0.2,1,0.4,0.8,1
			c-0.2,0.5-0.7,0.6-1.2,0.7C260.8,408.2,260.6,408.1,260.5,408.1z"/>
		<path class="st5" d="M245.4,390.9c0.7,0,1.4,0.2,1.7,1.2c0.3,1,1,1.6,2.1,1.9c1.2,0.3,2.7,0.5,3.1,2.1c0.4,1.3-0.5,2.3-1.8,2
			c-0.7-0.2-1.3-0.5-1.9-0.8c-0.9-0.5-1.9-0.5-2.9-0.3c-1.3,0.3-2-0.2-2-1.4c0-1.2-0.8-1.7-1.6-2.2c-0.5-0.3-0.9-0.5-0.9-1
			c0-0.6,0.7-0.8,1.1-0.9C243.4,391.4,244.3,390.9,245.4,390.9z"/>
		<path class="st4" d="M331.4,412.9c-1.3-1-2.1,0.2-3.1,1.1c-0.9,0.8-2.2,0.5-2.9-0.6c-0.4-0.7-0.8-1.3-1.2-2
			c-0.6-1-0.3-1.7,0.9-1.7c0.7,0,1.5,0.2,2.2,0.4c0.9,0.2,1.5,0,2-0.8c0.9-1.4,3.4-1.7,4.6-0.6c1,0.9,0.2,1.9,0,2.8
			C333.5,412.4,332.7,412.9,331.4,412.9z"/>
		<path class="st5" d="M277.8,441.9c0-1,1.3-2.2,2.3-2.1c0.5,0,0.8,0.3,0.9,0.8c0.3,2.4,2.1,2.5,3.8,2.6c0.7,0.1,1.4,0.1,1.8,0.9
			c0.3,0.5,0.8,0.5,1.3,0.3c0.4-0.1,0.9-0.3,1.3-0.5c0.6-0.3,1.3-0.8,1.9-0.1c0.4,0.4,0.4,2.7,0,3.1c-0.1,0.1-0.4,0.3-0.5,0.3
			c-1.2-0.3-2.5,0.2-3.5-0.8c-0.5-0.5-1.1-0.7-1.7-0.9c-0.8-0.2-1.6-0.3-2.2-0.7c-1-0.7-2.1-0.8-3.3-0.8
			C278.2,443.9,277.7,443.4,277.8,441.9z"/>
		<path class="st5" d="M366.9,401.8c1.1,0.6,2,1.1,2.5,2.2c0.4,0.9-0.2,1.5-0.7,2.1c-1,1.1-2.3,1.9-3.5,2.7
			c-0.1,0.1-0.3,0.2-0.5,0.2c-0.6,0.1-2.8-1.9-3-2.7c-0.2-1,0.5-2,1.6-2.5c0.8-0.3,1.6-0.7,2.3-1.3
			C365.8,402.3,366.4,402.1,366.9,401.8z"/>
		<path class="st5" d="M293.6,441.1c-0.3,0-0.7,0.1-0.9-0.3c-0.3-0.4,0.1-0.7,0.2-1c0.3-0.7,0.9-1.1,1.5-1.4c0.8-0.4,0.9-1,0.6-1.7
			c-0.8-1.8-1.7-3.4-3.2-4.7c-0.6-0.5-1.1-0.5-1.7-0.1c-0.6,0.3-1.2,0.5-1.7-0.1c-0.3-0.4-0.3-1,0.2-1.4c0.6-0.5,1.1-0.4,1.7,0.1
			c0.5,0.5,1,0.4,1.6,0.2c2.7-0.7,5.5,0.9,6,3.6c0.2,1-0.5,2.1-1.4,2.8c-0.6,0.5-1,1.1-1,1.9C295.4,440.5,294.7,441.1,293.6,441.1z"
			/>
		<path class="st4" d="M274.4,417.4c1-0.2,1.9-0.4,2.9-0.9c0.8-0.4,1.5,0.3,1.7,1.2c0.2,1.5,1.1,2.3,2.4,2.7
			c0.2,0.1,0.4,0.2,0.5,0.3c1.9,1.2,2,1.5,0.4,3.1c-1,1-1.6,2.3-2.7,3.3c-0.2,0.2-0.4,0.6-0.3,0.9c0.2,1.4-0.7,1.9-1.8,2.3
			c-0.8,0.3-1-0.1-0.9-0.7c0-0.3,0.2-0.6,0.4-0.8c0.9-0.8,1.4-1.8,1.7-2.9c0.1-0.4,0.4-0.7,0.8-0.9c1-0.6,1.2-1.3,0.4-2.2
			c-0.6-0.7-1-1.4-1.4-2.2C277.6,418.8,276,418.1,274.4,417.4z"/>
		<path class="st5" d="M333,423.3c-0.3,0.8-0.5,1.9-1,2.9c-0.2,0.4-0.5,0.7-1.2,0.5c-2-0.5-3.4-0.8-3.1-3.6c0-0.1,0-0.2,0-0.2
			c-0.2-2,0.3-2.9,1.6-3C331.3,419.8,333,421.3,333,423.3z"/>
		<path class="st5" d="M369.8,437.1c-0.5,0-1.1,0-1.6-0.3c-1.1-0.6-1.3-1.6-0.6-2.5c0.5-0.6,0.9-1.2,1.3-2c0.3-0.7,0.8-1.2,1.7-1
			c0.8,0.1,1.7,0.4,2,1.3c0.3,0.9,0.8,1.5,1.4,2.1c0.3,0.3,0.8,0.6,0.6,1.1c-0.2,0.5-0.7,0.8-1.3,0.9c-0.6,0.1-1.3,0-1.9,0.1
			C370.9,437.1,370.4,437.1,369.8,437.1z"/>
		<path class="st4" d="M223.5,403c1.3,0.2,2.2,0.8,2.6,2c0.2,0.5,0.6,1,0.9,1.4c0.8,1,0.4,1.8-0.3,2.5c-0.7,0.9-1.5,1.1-2.5,0.5
			c-1.9-1-2.9-3.6-2.2-5.6C222.3,403.3,222.8,403,223.5,403z"/>
		<path class="st5" d="M240.1,416.4c-1.7,0-2-0.3-2.4-2c-0.2-0.8-0.6-1.7-0.8-2.5c-0.3-1.1-0.3-2.2,0.6-3.1c0.2-0.3,0.5-0.4,0.9-0.4
			c0.4,0.1,0.5,0.5,0.6,0.9c0,0.3,0,0.6,0,0.9c0.1,1.3,0.4,2.4,1.8,3c1.7,0.8,1.8,1.4,1.1,2.6C241.4,416.3,241.2,416.4,240.1,416.4z
			"/>
		<path class="st4" d="M372.2,416.7c0,2.7-2.2,4.2-4.3,3.1c-2.4-1.2-2-2.2-0.4-3.8c0.9-0.9,2.3-1,3.5-0.9
			C372,415.2,372.4,415.9,372.2,416.7z"/>
		<path class="st5" d="M226.3,390.1c-0.8,0.1-1.1-0.4-1-1.2c0.2-2.1,1.6-3.7,3.6-4c0.8-0.1,1.4,0.3,1.9,0.9c0.5,0.6-0.1,1-0.3,1.4
			C229.4,389.2,228,390.2,226.3,390.1z"/>
		<path class="st4" d="M372.7,411.6c-0.3,0-0.7-0.2-1-0.6c-0.7-1-1.8-1.2-2.9-1.1c-1.1,0.1-1.3-0.4-0.9-1.4c0.7-1.6,1.9-1.9,3.2-0.8
			c0.9,0.7,2,0.7,2.9,1.3c0.5,0.4,1,0.7,0.9,1.4c-0.1,0.6-0.6,1-1.4,1C373.3,411.4,373.1,411.5,372.7,411.6z"/>
		<path class="st5" d="M283.6,429.9c-1.3,0-1.9-0.8-1.4-2c0.6-1.6,2-2.8,3.4-2.7c1.5,0.1,2.2,1.2,1.4,2.5
			C286.1,428.8,285.2,429.9,283.6,429.9z"/>
		<path class="st4" d="M293,436.1c0,1.2-1,2.1-2.2,2c-1.4-0.1-2.8-1.5-2.8-2.9c0-1,1.1-1.6,2.7-1.6C292,433.6,293,434.7,293,436.1z"
			/>
		<path class="st5" d="M356.2,445.6c0.1-0.5-0.2-1.1,0.4-1.4c0.6-0.3,1.1,0.2,1.6,0.5c0.7,0.5,1.5,0.9,2.2,1.4
			c1.1,0.7,1,1.6-0.2,2.2C358.3,449.4,356.2,448,356.2,445.6z"/>
		<path class="st5" d="M248.3,407.4c0.1,0.7,0.6,0.9,1,1.3c0.7,0.6,1.6,1.1,1.8,2.3c0.1,0.4,0.1,0.7-0.3,1c-0.4,0.3-0.8,0.4-1.2,0.1
			c-1.2-0.9-2.4-1.8-3.6-2.8c-0.5-0.5-0.8-1.1-0.2-1.9c0.5-0.7,1.1-0.4,1.6-0.1C247.8,407.4,248,407.4,248.3,407.4
			C248.3,407.4,248.3,407.4,248.3,407.4z"/>
		<path class="st4" d="M294.1,429.6c-0.9-0.3-1.9-0.3-2.7-1c-0.7-0.5-0.8-1-0.6-1.8c0.3-0.8,1-0.9,1.6-0.7c0.8,0.2,1.6,0.4,2.4,0.7
			c0.6,0.2,1.4,0.3,1.2,1.2C295.8,429,295.1,429.6,294.1,429.6z"/>
		<path class="st4" d="M244,408.6c0,0.9-1.1,2.4-1.9,2.7c-0.6,0.2-1-0.2-1.4-0.6c-0.5-0.7-0.7-1.5-0.2-2.3c0.3-0.4,0.7-0.8,1.2-1.1
			c0.5-0.4,1.2-0.5,1.8-0.2C244,407.3,244,408,244,408.6z"/>
		<path class="st5" d="M375.7,405.7c0,1.4-0.8,2.2-2,2.2c-1,0-2-0.8-2-1.6c0-0.9,1.7-2.1,2.8-2.1
			C375.6,404.2,375.8,404.8,375.7,405.7z"/>
		<path class="st5" d="M373.2,398.4c0.3,0,0.7,0,1,0c0.7,0.4,0.9,1,0.4,1.7c-0.2,0.3-0.3,0.7-0.4,1c-0.3,0.9-0.7,1.6-1.7,1.4
			c-0.9-0.1-1.4-0.8-1.5-1.6c-0.1-1,0.4-1.7,1.3-2.1C372.6,398.8,373.2,399,373.2,398.4z"/>
		<path class="st5" d="M289.2,407.6c0,1.1-1.3,2.2-2.4,2c-0.6-0.1-1.2-0.4-1.3-1.2c0-1.1,1.4-2.8,2.2-2.8
			C288.7,405.7,289.3,406.4,289.2,407.6z"/>
		<path class="st4" d="M341.7,435.9c0.1-0.5,0-1.2,0.6-1.5c0.8-0.3,1,0.5,1.2,1c0.5,0.8,1.1,1.6,0.9,2.6c-0.1,0.8-0.7,1.5-1.4,1.5
			c-0.7,0-1.1-0.7-1.1-1.5C342,437.3,341.8,436.6,341.7,435.9z"/>
		<path class="st4" d="M361.5,418.6c0.8,0,1.8,0,1.9,1.1c0.2,1.3-0.4,1.9-1.8,1.9c-1.2,0-2.1-0.8-2.1-1.9
			C359.5,418.8,359.8,418.6,361.5,418.6z"/>
		<path class="st4" d="M262.1,410.1c0.9,0.1,1.8,0.3,2.4,1.2c0.2,0.3,0.4,0.7,0,1c-0.8,0.5-1.7,0.8-2.7,0.4c0,0-0.1,0-0.1,0
			c-0.7-0.3-1.7-0.5-1.5-1.5C260.3,410.2,261.3,410.3,262.1,410.1z"/>
		<path class="st4" d="M282.5,446.1c1.1,0,2.4,1,2.4,1.8c0,0.7-1.4,1.8-2.2,1.7c-1-0.2-1.4-1-1.4-1.9
			C281.2,446.7,281.7,446.2,282.5,446.1z"/>
		<path class="st5" d="M293.5,451.4c-1.1,0-2-0.8-2-1.9c0-0.8,0.5-1.1,1.3-1.1c1,0,2.2,1.1,2.2,1.9C295,451,294.4,451.4,293.5,451.4
			z"/>
		<path class="st4" d="M306,438.4c1.1,0,2.3,1.1,2.2,2.1c0,0.6-0.4,0.8-0.9,0.8c-1.2,0.1-2.8-1-2.8-1.8
			C304.5,438.9,305.1,438.4,306,438.4z"/>
		<path class="st4" d="M299.2,439.6c0,1.1-0.8,2-1.7,2c-0.8,0-1-0.6-1-1.3c0-1.1,0.9-2.5,1.7-2.4C299.3,438,299.1,439,299.2,439.6z"
			/>
		<path class="st4" d="M258.8,414.6c0,0.8-0.2,1.5-1.1,1.5c-0.7,0-1.7-1-1.6-1.8c0.1-0.7,0.4-1.3,1.2-1.2
			C258.2,413.2,258.9,413.5,258.8,414.6z"/>
		<path class="st4" d="M323.2,400.2c0.1,0.7-0.2,1.2-1,1.2c-0.9,0-1.8-0.8-1.8-1.6c0-0.9,0.6-1.2,1.4-1.2
			C322.9,398.6,323.3,399.2,323.2,400.2z"/>
		<path class="st5" d="M357.2,399.9c0.2,0,0.5,0,0.7,0c0.1,0.7,0.6,0.5,1,0.5c0.2,0,0.5,0,0.7,0c0.3,0.8,0.4,1.5-0.7,1.8
			c-0.8,0.3-2.3-0.1-2.6-0.8c-0.2-0.3-0.1-0.5,0.1-0.8C356.8,400.4,357.2,400.4,357.2,399.9z"/>
		<path class="st5" d="M310.3,393.5c0,1.1-0.8,1.7-1.7,1.7c-0.6,0-0.9-0.5-0.9-1c-0.1-0.8,1-1.5,1.9-1.5
			C310.3,392.6,310.3,393.1,310.3,393.5z"/>
		<path class="st5" d="M252.5,393.5c0-0.6,0-1.1,0.7-1.1c0.8,0,0.9,0.7,1,1.3c0.1,0.6-0.2,0.9-0.9,0.9
			C252.6,394.6,252.5,394.1,252.5,393.5z"/>
		<path class="st3" d="M364,449.4c0-1.1,0.9-2,2.1-2c1,0,1.4,0.5,1.4,1.5c0,1.2-1.1,2.3-2.4,2.3C364.3,451.1,364,450.6,364,449.4z"
			/>
		<path class="st3" d="M232.5,454.1c1.2-0.6,2.4-0.2,3.6,0.2c0.9,0.3,1.7,0.6,2.6,0.5c0.9-0.1,1.4,0.6,1.9,1.1
			c0.9,0.9,1.9,1.1,3.1,1.2c0.9,0.1,1.8,0.3,2.3,1.2c-2.1-0.5-4.4-0.4-6.1-2c-0.6-0.6-1.3-0.8-2.2-0.7c-0.2,0-0.5,0.1-0.6,0
			C235.7,454.8,234.1,454.3,232.5,454.1z"/>
		<path class="st3" d="M359,400.4c-0.4,0-0.9,0.2-1-0.5C358.4,399.9,358.9,399.7,359,400.4z"/>
		<path class="st3" d="M249.2,440.8c1.4,0.3,2.4,1.1,3.3,2.1c0.5,0.5,0.2,1.1-0.2,1.6c-1.2,1.6-2.7,3.1-3.3,5.1
			c-0.1,0.4-0.5,0.5-0.9,0.3c-0.7-0.3-1.5-0.6-2.2-0.7c-2.6-0.5-2.5-1.8-1.5-4.3c0.2-0.5,0.6-0.9,0.5-1.4c-0.1-1.3,0.7-1.8,1.7-2
			C247.5,441.4,248.3,440.8,249.2,440.8z"/>
		<path class="st3" d="M264.5,456.4c-1.3-0.5-2.8-0.3-4.4-0.3c-2.2,0.1-3.6-1.6-3.6-3.8c0-0.3,0-0.7,0-1c0-0.4-0.1-0.7-0.6-0.8
			c-0.4-0.1-0.9-0.1-1.1,0.4c-0.2,0.4-0.4,0.8-0.6,1.2c-0.4,1-1.8,1.3-2.6,0.8c-0.5-0.3-0.4-0.7-0.1-1c1.2-1.3,2.3-2.8,3-4.5
			c0.3-0.9,1.1-1.1,1.8-0.5c1.6,1.2,3.4,2.3,4.5,4.2c0.3,0.6,0.8,0.9,1.5,1c2,0,2.8,1.7,3.8,2.9
			C266.8,455.5,265.9,456.4,264.5,456.4z M260,455.1c0.8,0.1,1.5-0.4,2.4-0.5c0.3,0,0.5-0.2,0.5-0.4c0-0.4-0.3-0.5-0.6-0.6
			c-1.2-0.3-2.3-0.9-3.2-1.7c-0.5-0.4-0.8-0.3-1.1,0.3c-0.3,0.5-0.7,1-0.3,1.7C258.3,454.7,258.9,455.2,260,455.1z"/>
		<path class="st3" d="M227,425.1c0-1.8,0.4-2.4,1.5-2.5c1-0.1,1.8,0.6,1.9,1.8c0.1,1.2,0.1,2.4,0.6,3.6c0.2,0.6,0,1.2-0.7,1.6
			c-0.6,0.3-1.2,0.3-1.7-0.2C227.3,428.2,227.2,426.4,227,425.1z"/>
		<path class="st3" d="M219.3,419.9c-1,0.2-1.8-0.2-2-1.1c-0.3-1,0.2-2,0.7-2.9c0.5-0.8,1.2-0.5,1.9-0.2c0.3,0.1,0.6,0.2,1,0.3
			c0.7,0.2,1.4,0.4,1.4,1.3c0.1,0.9,0,1.7-0.9,2.1C220.7,419.7,220,420.1,219.3,419.9z"/>
		<path class="st1" d="M316,425.6c-0.3,0-0.6,0-0.9,0c-1.7-0.1-2.5-1.6-1.5-3c0.6-0.9,1.2-1.8,1.8-2.7c0.6-0.9,1.3-1.3,2.3-0.7
			c0,0,0.1,0,0.1,0.1c2.7,1.2,2.7,2.1,1.1,4.6C317.6,425.7,317.6,425.6,316,425.6z"/>
		<path class="st1" d="M302.6,401.9c2.4,0,2.6,0.1,3,1.8c0.2,0.7,0.4,1.5,0.4,2.2c0,1-0.7,1.6-1.5,1.9c-1.9,0.8-3.5,1.9-3.8,4.3
			c-0.1,1.4-1.9,2.2-3.4,1.7c-1.4-0.4-2-1.7-1.7-3.1c0.4-1.8,1.2-3.5,2.2-5C299,403.8,300.8,402.3,302.6,401.9z"/>
		<path class="st3" d="M297.2,402.7c-1.8-0.2-3-1.4-4.4-2.2c-0.4-0.2-0.3-0.8,0-1.1c0.4-0.5,0.9-1.1,1.5-0.9c1.7,0.5,3.4,0.4,5,0.5
			c1,0.1,1.5,1,0.9,1.9C299.5,401.9,298.7,402.8,297.2,402.7z"/>
		<path class="st4" d="M260,455.1c-1.1,0.1-1.8-0.4-2.3-1.3c-0.4-0.7,0-1.2,0.3-1.7c0.3-0.5,0.6-0.7,1.1-0.3c0.9,0.8,2,1.4,3.2,1.7
			c0.3,0.1,0.6,0.2,0.6,0.6c0,0.3-0.3,0.4-0.5,0.4C261.6,454.7,260.8,455.2,260,455.1z"/>
	</g>
</g>
</svg>
