<?xml version="1.0" encoding="utf-8"?>
<!-- Generator: Adobe Illustrator 27.3.1, SVG Export Plug-In . SVG Version: 6.00 Build 0)  -->
<svg version="1.1" id="Layer_1" xmlns="http://www.w3.org/2000/svg" xmlns:xlink="http://www.w3.org/1999/xlink" x="0px" y="0px"
	 viewBox="0 0 595.3 841.9" style="enable-background:new 0 0 595.3 841.9;" xml:space="preserve">
<style type="text/css">
	.st0{fill:#697AC3;}
	.st1{fill:#586B99;}
	.st2{fill:#5F72A7;}
	.st3{fill:#51648B;}
</style>
<g>
	<path class="st0" d="M246.1,391.2c0,0.1,4.2,0,4.3,0c0.7,0,1.3,0.3,1.9,0.3c0.2,0,0.4,0.1,0.5,0.2c0.2,0.2,0.5,0.3,0.7,0.3
		c0.1,0,0.3,0,0.5,0.1c0.5,0.1,1.1,0,1.6,0.3c0.3,0.1,0.6,0.2,0.9,0.3c0.3,0.1,0.5,0.1,0.8,0.3c0.2,0.1,0.4,0.3,0.7,0.2
		c0.3,0,0.4,0.1,0.5,0.2c0.3,0.6,1,0.7,1.6,0.9c0.4,0.1,0.7,0.4,1,0.5c0.5,0.2,0.9,0.8,1.4,1.1c0.5,0.3,0.8,0.8,1.3,1
		c0.5,0.2,0.8,0.5,1.1,0.8c0.4,0.4,1,0.6,1.3,1.1c0.1,0.1,0.2,0.2,0.3,0.2c0.2,0.1,0.4,0.2,0.5,0.4c0.1,0.3,0.3,0.5,0.6,0.6
		c0.3,0.3,0.7,0.4,0.9,0.8c0.1,0.2,0.4,0.5,0.8,0.4c0.2,0,0.3,0.1,0.3,0.3c0,0.2,0.1,0.4,0.3,0.5c0.1,0.1,0.2,0.1,0.2,0.2
		c0,0.4,0.3,0.8,0.5,1.1c0.2,0.3,0.5,0.5,0.9,0.5c0.4,0,0.7-0.1,1.1,0c0.2,0,0.5,0,0.7-0.1c0.3-0.1,0.6-0.3,0.8-0.4
		c0.7-0.5,1.1-1.2,1.7-1.7c0,0,0-0.1,0-0.1c0.1-0.2,0.2-0.3,0.4-0.4c0.2-0.1,0.4-0.1,0.5-0.3c0.1-0.1,0.2-0.1,0.3,0
		c0.1,0.1,0.2,0.1,0.3,0c0.1-0.4,0.5-0.5,0.8-0.6c0.2-0.1,0.5-0.2,0.5-0.5c-0.1-0.3,0.1-0.4,0.3-0.5c0.3-0.1,0.7-0.2,1-0.6
		c0.1-0.1,0.2,0,0.2,0c0.1,0.1,0.3,0.1,0.3,0c0.1-0.3,0.5-0.3,0.7-0.4c0.4-0.1,0.7-0.4,0.7-0.6c0-0.4,0.2-0.5,0.6-0.6
		c0.4,0,0.8-0.1,1.2-0.3c0.2-0.1,0.4-0.2,0.6-0.2c0.4,0,0.7-0.4,1.1-0.5c0.1,0,0.3-0.1,0.3-0.3c0.3-0.5,0.7-0.6,1.2-0.7
		c0.2-0.1,0.5-0.1,0.7-0.2c0.1,0,0.2-0.2,0.3-0.2c0.3,0.2,0.4,0.1,0.6-0.1c0,0,0.2,0,0.2,0c1.4,0.1,2.8-0.2,4.2-0.4
		c1.1-0.2,2.1-0.6,3.2-0.4c0.5-0.2,1,0.1,1.4-0.1c0.1,0,0.3-0.1,0.4-0.1c0.8,0,1.6,0,2.4,0c1.1,0.1,2.3,0.1,3.4,0.1
		c0.5,0,0.9,0,1.4,0.2c0.1,0,0.2,0.1,0.3,0.1c0.3,0.1,0.7-0.1,1.1,0.2c0.2,0.1,0.4,0.1,0.6,0.2c0.2,0.1,0.3,0.2,0.5,0.2
		c0.3,0,0.6,0,0.9,0c0.5,0,1.1,0.1,1.6,0c0.2,0,0.4,0.1,0.7,0.2c0.3,0.2,0.7,0.4,1.1,0.3c0.2-0.1,0.3,0,0.4,0
		c0.3,0.2,0.6,0.4,0.9,0.7c0.1,0.1,0.3,0.2,0.4,0.2c0.4,0,0.7,0.2,1,0.4c0.4,0.3,0.8,0.6,1.4,0.6c0.4,0,0.9,0.1,0.9,0.7
		c0,0.1,0,0.1,0.1,0.2c0.3,0.2,0.5,0.4,0.8,0.3c0.2,0,0.2,0.1,0.3,0.2c0.2,0.4,0.4,0.6,0.9,0.5c0.1,0,0.2,0,0.2,0.1
		c0.2,0.1,0.3,0.4,0.5,0.5c0.7,0.4,1.2,1,2,1.3c0.2,0.1,0.5,0.3,0.5,0.5c0.1,0.3,0.3,0.5,0.5,0.7c0.3,0.3,0.7,0.5,1.1,0.7
		c0.9,0.4,1.5,1.2,2.2,1.9c0.6,0.7,1.4,1.2,2.4,1.4c0.5,0.1,0.9,0,1.4-0.1c0.3-0.1,0.4-0.3,0.6-0.5c0.3-0.5,0.4-1,0.7-1.5
		c0.1-0.1,0.2-0.2,0.3-0.4c0-0.3,0.2-0.5,0.4-0.6c0.1-0.1,0.2-0.1,0.2-0.2c0.6-0.5,1-1.2,1.4-1.8c0.1-0.2,0.2-0.4,0.5-0.3
		c0.1,0,0.1-0.1,0.2-0.1c0.3-0.2,0.4-0.6,0.8-0.8c0.2-0.1,0.3-0.2,0.3-0.3c0.1-0.3,0.3-0.5,0.5-0.6c0.2-0.1,0.5,0,0.4-0.4
		c0,0,0,0,0,0c0.3-0.1,0.4-0.3,0.7-0.4c0.3,0,0.4-0.2,0.4-0.5c0-0.4,0.1-0.5,0.5-0.5c0.2,0,0.4-0.1,0.6-0.2c0.2-0.1,0.3-0.3,0.5-0.1
		c0,0.1,0.1,0,0.2-0.1c0.1-0.1,0.2-0.2,0.3-0.2c0.2,0,0.3-0.1,0.5-0.1c0.3-0.1,0.6-0.3,1-0.2c0.3,0,0.7-0.1,1-0.3
		c0.3-0.2,0.7-0.5,1-0.6c0.1-0.1,0.2,0,0.4,0c0.3,0.2,0.6,0.3,0.9,0.3c1.3,0,2.7,0,4,0c0.5,0,1,0,1.4,0.2c0.4,0.2,0.8,0.2,1.1,0.5
		c0.2,0.3,0.5,0.3,0.8,0.3c0.5,0,1.1-0.1,1.6,0c0.2,0.1,0.4,0.2,0.6,0.2c0.3-0.1,0.5,0.1,0.8,0.1c0.2,0.1,0.3,0,0.5-0.1
		c0,0,0.1,0.1,0.1,0.1c-0.1,0.2,0.1,0.2,0.2,0.3c0.1,0.1,0.3,0.2,0.4,0.4c0,0.2,0.1,0.3,0.3,0.3c0.2,0,0.3,0.1,0.3,0.3
		c0,0.2,0.1,0.3,0.3,0.3c0.1,0,0.2,0,0.3,0.1c0.3,0.2,0.5,0.4,0.8,0.2c0,0,0.1,0,0.1,0c0.4,0,0.5,0.3,0.6,0.6
		c0.1,0.1,0.1,0.3,0.3,0.3c0.3,0,0.5,0.2,0.6,0.4c0.3,0.4,0.6,0.6,1.1,0.7c0.2,0.1,0.4,0.1,0.5,0.3c0.2,0.5,0.8,0.8,1,1.3
		c0,0,0,0,0.1,0.1c0.2,0.1,0.4,0.3,0.6,0.4c0.2,0.1,0.3,0.2,0.3,0.5c0,0.1,0,0.2,0.1,0.3c0.3,0.4,0.7,0.8,1,1.1
		c0.3,0.3,0.6,0.6,0.9,0.8c0.3,0.3,0.5,0.7,0.8,1c0.3,0.4,0.7,0.7,0.9,1.1c0.2,0.4,0.5,0.6,0.7,0.9c0.3,0.3,0.6,0.6,0.6,1.1
		c0,0.1,0.1,0.1,0.1,0.2c0.2,0.4,0.7,0.6,0.8,1.1c0,0,0.1,0.1,0.1,0.1c0.3,0.1,0.4,0.4,0.6,0.6c0.2,0.3,0.3,0.5,0.3,0.9
		c0,0.4,0.1,0.8,0.4,1.1c0.1,0,0.1,0.1,0.1,0.2c0.2,0.5,0.4,1,0.8,1.5c0.1,0.2,0.2,0.3,0.3,0.5c0.1,0.4,0.3,0.8,0.4,1.3
		c0.1,0.4,0.1,0.8,0.1,1.2c0,0.4,0,0.8,0.3,1c0.4,0.3,0.6,0.7,0.6,1.2c0.1,1.5,0.1,2.9,0.2,4.4c0,0.7,0,1.3-0.1,2
		c-0.1,1-0.1,2-0.3,3c-0.2,0.8-0.3,1.7-0.5,2.6c-0.2,0.7-0.3,1.3-0.3,2c-0.1,1.2-0.5,2.3-1.4,3.1c-0.2,0.2-0.3,0.4-0.4,0.6
		c-0.2,0.6-0.3,1.2-0.7,1.7c-0.2,0.3-0.3,0.6-0.6,0.9c-0.3,0.3-0.6,0.6-0.8,1c-0.2,0.5-0.5,1-1,1.3c-0.6,0.5-1.2,1-1.6,1.7
		c-0.2,0.3-0.4,0.6-0.8,0.8c-0.6,0.4-1.2,0.9-1.7,1.4c-0.5,0.4-1.1,0.9-1.7,1.1c-0.4,0.2-0.8,0.4-1,0.8c-0.2,0.6-0.8,0.8-1.4,1
		c-0.7,0.2-1.3,0.4-1.8,0.9c-0.6,0.6-1.4,1-2.2,1.2c-0.4,0.1-0.8,0.2-1.1,0.4c-0.4,0.3-0.9,0.5-1.3,0.8c-0.4,0.4-1,0.5-1.5,0.7
		c-0.7,0.2-1.5,0.3-2.2,0.4c-0.3,0.1-0.6,0-0.8,0.3c-0.2,0.3-0.5,0.5-0.7,0.7c-0.1,0.1-0.2,0.2-0.3,0.2c-0.5,0.1-1.1,0.4-1.6,0.4
		c-0.7,0.1-1.4,0.2-2.1,0.3c-0.4,0-0.8,0.1-1.1,0.3c-0.5,0.4-1,0.7-1.6,1c-0.1,0.1-0.2,0.2-0.3,0.2c-0.3,0-0.6,0.1-0.9,0.3
		c-0.3,0.1-0.7,0.2-1.1,0.2c-0.4,0-0.8,0-1.2,0c-0.7-0.1-1.4,0.1-2.2,0.1c-0.5,0-1.1,0.2-1.6,0.3c-0.2,0-0.3,0.2-0.4,0.3
		c-0.4,0.4-0.8,0.8-1.4,0.9c-0.6,0.1-1.2,0.2-1.8,0.3c-0.4,0.1-0.9,0.2-1.3,0.2c-0.8,0-1.6,0.1-2.3-0.3c-0.5,0.1-1,0-1.5,0.1
		c-0.5,0.1-1,0-1.5,0.1c-0.5,0.1-1.1,0-1.7,0.1c-0.4,0.1-0.9,0-1.3,0.2c-0.6,0.3-1.3,0.4-1.9,0.6c-0.2,0-0.3,0.1-0.5,0.1
		c-1,0-2,0.1-3,0.1c-0.3,0-0.7,0.1-1,0.1c-0.2,0-22.9,0.1-23.2,0.2c-0.4,0.1-0.7,0-1.1,0c-0.5-0.1-1-0.1-1.5-0.1
		c-1.4,0-2.8,0-4.3-0.2c-0.7-0.1-1.5-0.3-2.2-0.5c-0.6-0.1-1.3-0.4-1.9-0.4c-0.6,0-1.3-0.2-1.9,0c0,0-0.1,0-0.1,0
		c-0.5-0.2-1,0-1.5-0.2c-0.2-0.1-0.5,0-0.8-0.1c-1-0.2-2.1-0.2-3.1-0.3c-0.4,0-0.7-0.1-1-0.3c-0.6-0.3-1.3-0.5-2-0.7
		c-0.8-0.2-1.5-0.3-2.3-0.4c-0.9-0.1-1.8-0.2-2.7-0.4c-0.8-0.2-1.6-0.2-2.3-0.5c-0.6-0.3-1.2-0.4-1.8-0.7c-0.5-0.2-1-0.5-1.6-0.6
		c-0.4-0.1-0.8-0.1-1.1-0.1c-0.8-0.2-1.6-0.2-2.3-0.4c-0.2-0.1-0.5,0-0.6-0.2c-0.1-0.2-0.2-0.2-0.4-0.3c-0.4-0.2-0.9-0.3-1.3-0.6
		c-0.5-0.3-1-0.4-1.5-0.5c-0.8-0.1-1.7-0.1-2.4-0.8c-0.1,0-0.1-0.1-0.2-0.1c-0.4-0.1-0.7-0.4-1-0.6c-0.3-0.2-0.6-0.4-1-0.5
		c-0.7-0.2-1.5-0.4-2-0.9c0,0-0.1-0.1-0.2-0.1c-0.4-0.1-0.7-0.3-1-0.6c-0.4-0.3-0.8-0.5-1.2-0.5c-0.9-0.1-1.7-0.6-2.3-1.2
		c-0.1-0.1-0.1-0.2-0.3-0.3c-0.5-0.3-0.9-0.6-1.5-0.8c-0.3-0.1-0.5-0.2-0.7-0.4c-0.8-0.7-1.8-1.3-2.6-2c-0.3-0.3-0.6-0.6-1-0.8
		c-0.3-0.2-0.5-0.5-0.8-0.7c-0.6-0.5-1.1-1-1.6-1.5c-0.2-0.2-0.5-0.5-0.7-0.7c-0.1-0.1-0.4-0.2-0.4-0.4c0-0.2-0.2-0.3-0.3-0.5
		c-0.2-0.1-0.3-0.3-0.5-0.5c-0.1-0.2-0.3-0.4-0.5-0.6c-0.2-0.1-0.4-0.3-0.5-0.5c-0.3-0.4-0.7-0.8-1.1-1.2c-0.4-0.5-0.9-0.9-1.2-1.4
		c-0.2-0.4-0.3-0.9-0.6-1.3c-0.1-0.2-0.3-0.3-0.4-0.5c-0.2-0.5-0.5-1-0.9-1.4c-0.2-0.2-0.5-0.5-0.6-0.8c-0.1-0.4-0.3-0.7-0.2-1.1
		c0.1-0.3-0.2-0.4-0.3-0.7c-0.1-0.7-0.5-1.2-0.9-1.7c-0.5-0.7-0.8-1.4-0.9-2.2c-0.1-0.7-0.1-1.4-0.1-2.1c0-0.9-0.2-1.8-0.1-2.7
		c0-0.1,0-0.2,0-0.2c-0.1-0.4-0.1-0.9,0-1.3c0.1-0.4,0-0.8,0-1.1c0-0.5,0-1.1,0-1.6c0.1-1.1,0.1-2.3,0.2-3.4c0-0.8,0-1.5,0-2.3
		c0-0.2-0.2-0.4-0.1-0.6c0.1-0.5,0.3-0.9,0.5-1.4c0.2-0.6,0.7-1.1,1.1-1.6c0.3-0.4,0.3-1,0.5-1.4c0.1-0.1,0.1-0.2,0.1-0.4
		c0-0.5,0.2-1,0.5-1.3c0.3-0.3,0.7-0.6,0.9-1c0.2-0.3,0.3-0.7,0.6-1c0.3-0.4,0.5-0.9,0.9-1.1c0.2-0.1,0.3-0.3,0.4-0.5
		c0.1-0.3,0.2-0.6,0.7-0.7c0.1,0,0.2-0.1,0.1-0.2c-0.3-0.2,0-0.3,0.1-0.4c0.1-0.1,0.2-0.2,0.3-0.3c0.2-0.2,0.2-0.5,0.5-0.7
		c0.6-0.3,0.9-0.9,1.4-1.2c0.1,0,0.1-0.1,0.2-0.2c0.4-0.6,0.8-0.9,1.5-1c0.1,0,0.2-0.1,0.3-0.2c0.2-0.2,0.4-0.5,0.7-0.7
		c0.2-0.1,0.4-0.2,0.4-0.4c0-0.4,0.3-0.5,0.6-0.7c0.2-0.1,0.5-0.2,0.7-0.4c0.4-0.3,0.8-0.5,1.2-0.5c0.2,0,0.5-0.2,0.5-0.4
		c0-0.4,0.3-0.5,0.6-0.6c0.3-0.1,0.6-0.3,1-0.2c0.2,0,0.3-0.1,0.4-0.2c0.1-0.2,0.3-0.2,0.5-0.2c0.5,0,0.8-0.3,1.3-0.4
		c0.2-0.1,0.4-0.4,0.7-0.1c0,0,0,0,0.1,0c0.4-0.1,0.7-0.2,1.1-0.3c0.5-0.1,0.9-0.2,1.4-0.3c0.1,0,0.2,0.1,0.3-0.1
		C243,391.3,246.3,391.3,246.1,391.2z M249,445.9c0.1,0,0.2,0,0.4,0c0.5,0,1,0,1.4,0.3c0.3,0.2,0.5,0.3,0.8,0.4
		c0.6,0.1,1,0.7,1.7,0.8c0.2,0,0.4,0,0.5,0.1c0.4,0.3,0.9,0.5,1.4,0.7c0.5,0.1,0.9,0.3,1.4,0.4c0.4,0,0.8,0.2,1.1,0.4
		c0.5,0.4,1.2,0.5,1.7,0.8c0.6,0.2,1.2,0.3,1.7,0.6c0.7,0.4,1.5,0.6,2,1.3c0,0,0.1,0,0.1,0c0.8,0.3,1.7,0.5,2.6,0.5
		c0.5,0,1,0.1,1.5,0.1c0.6,0.1,1.2,0.3,1.8,0.4c0.4,0.1,0.8,0.1,1.3,0.2c0.5,0.1,1.1,0.2,1.6,0.2c1,0,1.9,0,2.8,0.2
		c0.1,0,0.2,0,0.3,0c0.2-0.1,0.4,0,0.5,0c0.3,0.2,0.6,0.2,0.9,0.4c0.2,0.1,0.4,0.1,0.6,0c0.4-0.2,0.7-0.2,1,0.2
		c0.1,0.1,0.7,0.3,0.8,0.2c0.4-0.2,0.8-0.2,1.1-0.5c0.1-0.1,0.2-0.1,0.3,0c0.5,0.1,1,0,1.4-0.2c0.3-0.1,0.7-0.3,1-0.3
		c0.3,0,0.5,0,0.8,0c0.5-0.1,0.9,0,1.3,0.1c0.7,0.2,1.5,0.3,2.3,0.3c0.7,0,1.4-0.1,2.2,0c0.6,0.1,1.2,0.1,1.7,0.2
		c0.6,0.1,1.1,0.4,1.7,0.4c1.1,0.1,2.1-0.2,3.1-0.5c0.7-0.2,1.4-0.2,2.1,0c1,0.2,1.9,0.3,2.9,0c0.8-0.2,1.7-0.2,2.5,0
		c0.4,0.1,0.7,0.4,1.1,0.5c0.6,0.1,1.2,0.3,1.7,0.3c0.7,0,1.3,0.2,2,0c0,0,0.1,0,0.1,0c0.8,0.1,1.6,0.2,2.4,0c0.4-0.1,0.8,0,1.1-0.3
		c0.4-0.4,1-0.4,1.5-0.6c0.7-0.3,1.5-0.4,2.3-0.6c0.4-0.1,0.8-0.3,1.2-0.2c0.5,0.1,0.9,0.1,1.4,0.3c0.8,0.3,1.6,0.3,2.4,0.1
		c0.7-0.2,1.3-0.5,1.9-0.6c1.3-0.2,2.5-0.7,3.4-1.7c0,0,0.1,0,0.1,0c0.3,0.2,0.6,0.2,0.9-0.1c0.1-0.1,0.2-0.2,0.4-0.2
		c0.5,0,1-0.2,1.5-0.3c0.7-0.1,1.5-0.2,2.1-0.6c0.5-0.3,1.1-0.4,1.7-0.5c0.1,0,0.3,0,0.4,0c0.4-0.1,0.9-0.1,1.4-0.1
		c0.6-0.1,1.2,0,1.8-0.2c0.3,0,0.5-0.1,0.8-0.1c0.4-0.1,0.7,0,1.1-0.1c0.4-0.2,0.9-0.2,1.3-0.5c0.4-0.3,0.8-0.5,1.3-0.7
		c0.7-0.3,1.3-0.6,2.1-0.3c0.5,0.2,1,0.4,1.4,0.7c0.1,0.1,0.1,0.1,0.2,0.1c0.6-0.1,1.2-0.1,1.8-0.2c0.5-0.1,1-0.1,1.5-0.2
		c0.4-0.1,0.9-0.2,1.3-0.2c0.3,0,0.6-0.2,0.9-0.1c0.1,0,0.2-0.1,0.3-0.1c0.2-0.2,0.5-0.3,0.8-0.3c0.1,0,0.2,0,0.3-0.1
		c0.2-0.2,0.5-0.2,0.7-0.3c0.5-0.1,0.9-0.3,1.3-0.6c0.3-0.4,0.8-0.5,1.2-0.8c0.1-0.1,0.3-0.3,0.5-0.4c0.5-0.3,1.1-0.3,1.6-0.4
		c0.7-0.1,1.3-0.2,2-0.3c0.5-0.1,0.9-0.5,1.4-0.5c0.1,0,0.1-0.1,0.1-0.1c0.4-0.4,0.9-0.7,1.4-0.9c0.3-0.1,0.5-0.3,0.6-0.6
		c0.2-0.4,0.5-0.7,0.9-1.1c0.5-0.4,1-0.7,1.4-1.3c0.3-0.5,0.8-0.9,1.2-1.4c0.6-0.8,0.9-1.8,1.3-2.7c0.2-0.5,0.5-0.8,1-1
		c0.3-0.1,0.6-0.3,0.8-0.6c0.3-0.3,0.4-0.7,0.5-1.1c0.2-0.6,0.3-1.1,0.7-1.6c0.4-0.5,0.8-1,1-1.5c0.2-0.4,0.4-0.8,0.2-1.2
		c-0.2-0.5,0-1.1-0.2-1.6c0-0.1,0-0.1,0-0.2c0.1-0.6,0.2-1.2,0.2-1.8c0-0.2,0-0.4-0.1-0.5c-0.1-0.2-0.1-0.3,0-0.5
		c0.1-0.5,0.1-1-0.4-1.3c-0.2-0.2-0.4-0.4-0.6-0.6c-0.1-0.1-0.1-0.3-0.3-0.3c-0.5-0.3-0.7-1-1.3-1.2c-0.1,0-0.1-0.1-0.1-0.1
		c-0.4-0.8-1.1-1.2-1.8-1.7c-0.5-0.4-1-0.8-1.4-1.3c-0.2-0.3-0.4-0.5-0.7-0.6c-0.2-0.1-0.4-0.3-0.5-0.5c0-0.1-0.1-0.2-0.2-0.2
		c-0.3-0.2-0.5-0.4-0.8-0.6c-0.7-0.4-1.2-1-1.8-1.6c-0.4-0.4-0.9-0.7-1.3-1.2c-0.2-0.3-0.6-0.5-0.8-0.9c-0.4-0.5-0.8-0.9-1.3-1.3
		c-0.9-0.8-1.7-1.7-2.6-2.5c-0.4-0.3-0.7-0.6-1.2-0.5c-0.5,0-0.9-0.2-1.2-0.5c-0.3-0.3-0.7-0.6-1-0.9c-0.2-0.2-0.4-0.3-0.7-0.4
		c-0.3-0.1-0.6-0.1-0.9-0.1c-0.6,0-1.2,0.1-1.8,0.1c-0.8,0-1.6,0-2.3,0.4c-0.8,0.3-1.6,0.2-2.4,0.3c-0.2,0-0.4-0.1-0.6,0
		c-0.4,0.1-0.7,0-1.1,0c-0.6-0.1-1.2-0.1-1.8,0.2c-0.8,0.3-1.5,0.7-2.2,1c-0.3,0.1-0.6,0-0.9,0.1c-0.3,0.1-0.6,0.1-0.9,0.1
		c-0.6-0.1-1.2,0-1.7,0.1c-0.4,0-0.7,0.3-1.1,0.5c-0.6,0.3-1.3,0.5-1.9,0.7c-0.2,0.1-0.5,0.2-0.7,0.2c-1.1,0-2.1,0.2-3.2,0.4
		c-0.9,0.2-1.6,0.1-2.2-0.7c-0.2-0.3-0.4-0.7-0.7-1c-0.9-0.9-1.8-1.8-2.9-2.6c-0.5-0.3-0.9-0.7-1.3-1.1c-0.2-0.3-0.5-0.6-0.9-0.8
		c-0.5-0.2-1-0.5-1.5-0.5c0,0-0.1,0-0.1,0c-0.4-0.1-0.8-0.2-1.2-0.2c-0.2,0-0.4,0.1-0.6,0c-0.2-0.1-0.5-0.2-0.8-0.1
		c-0.1,0-0.2,0-0.3-0.1c-0.3-0.3-0.8,0-1.1-0.2c0,0-0.1,0-0.1,0c-0.2,0.2-0.3,0.1-0.4-0.1c-0.1-0.3-0.4-0.5-0.7-0.5
		c-0.8-0.1-1.6-0.3-2.4-0.4c-0.1,0-0.3-0.1-0.4,0c-0.3,0.2-0.6,0.1-0.9,0.1c-0.6,0-1.3,0-1.9,0c-0.6,0-1.1-0.1-1.7-0.1
		c-0.5,0-0.9,0-1.4,0.1c-0.6,0-1.2,0-1.8,0c-1.1,0-2.2,0.1-3.2,0.3c-0.8,0.2-1.7,0-2.4,0.4c-0.1,0.1-0.4,0.1-0.5,0
		c-0.3-0.1-0.5,0.1-0.7,0.1c-0.4,0.1-0.8,0.4-1.2,0.5c-0.2,0-0.4,0.1-0.5,0.3c0,0.1-0.1,0.2-0.2,0.2c-0.3,0-0.6,0.1-0.9,0.1
		c-0.8,0.1-1.6,0-2.3,0.1c-0.6,0.1-1.2,0.1-1.7,0.2c-0.7,0.1-1.1,0.6-1.5,1.1c-0.4,0.4-0.7,0.8-1.2,1c-0.6,0.3-1.1,0.7-1.8,0.7
		c-0.4,0-0.8,0-1.2,0.2c-0.6,0.3-1.1,0.6-1.6,1.1c-0.5,0.5-1.1,0.9-1.6,1.3c-0.5,0.4-1.1,0.5-1.7,0.7c-0.8,0.2-1.5,0.5-2.3,0.2
		c-0.1,0-0.2,0-0.3,0c-0.8-0.1-1.5-0.3-2.1-0.7c-0.4-0.4-0.9-0.8-1.3-1.1c-0.3-0.3-0.6-0.6-0.9-0.9c-0.5-0.5-1-0.9-1.6-1.2
		c-0.2-0.1-0.3-0.2-0.4-0.3c-0.1-0.1-0.1-0.2-0.2-0.2c-0.2-0.2-0.4-0.2-0.6-0.2c-0.5-0.2-0.9-0.4-1.4-0.7c-0.5-0.4-1-0.7-1.5-1.1
		c-0.1-0.1-0.3-0.2-0.4-0.4c-0.2-0.4-0.6-0.6-1-1c-0.4-0.3-0.8-0.5-1.1-0.9c-0.1-0.2-0.2-0.4-0.4-0.5c-0.2-0.1-0.4-0.3-0.5-0.5
		c-0.1-0.2-0.3-0.4-0.5-0.6c-0.4-0.3-0.8-0.6-1.3-0.8c-0.3-0.2-0.7-0.4-1-0.7c-0.2-0.2-0.4-0.4-0.7-0.5c-0.3-0.1-0.5-0.2-0.8-0.4
		c-1.2-0.5-2.3-0.9-3.6-0.7c-0.8,0.1-1.7,0.1-2.5,0.4c-0.8,0.2-1.5,0.4-2.2,0.7c-0.1,0-0.1,0.1-0.2,0c-0.1-0.1-0.3,0-0.4-0.1
		c-0.3-0.1-0.4,0.2-0.7,0.2c-0.4,0.1-0.9,0-1.3,0.2c-0.2,0.1-0.4,0.2-0.6,0.3c-0.4,0.1-0.9,0.2-1.3,0.2c-0.2,0-0.3,0-0.5,0.1
		c-0.4,0.3-0.9,0.5-1.3,0.7c-0.5,0.2-1.1,0.4-1.4,0.9c-0.2,0.3-0.4,0.4-0.7,0.5c-0.5,0.1-0.8,0.4-1.1,0.8c-0.1,0.1-0.2,0.1-0.3,0.1
		c-0.4,0.1-0.9,0.1-1.2,0.4c-0.6,0.4-1.2,0.6-1.9,0.7c-0.5,0.1-1,0.2-1.5,0.6c-0.2,0.2-0.6,0.3-0.8,0.5c-0.2,0.3-0.4,0.6-0.6,0.9
		c-0.3,0.3-0.3,0.8-0.6,1.1c-0.2,0.3-0.4,0.5-0.6,0.8c-0.5,1.1-1,2.3-1.5,3.4c-0.2,0.4-0.4,0.7-0.5,1.1c-0.1,0.5-0.3,0.9-0.5,1.3
		c-0.4,0.6-0.8,1.2-1.1,1.9c-0.2,0.4-0.3,0.9-0.6,1.2c-0.6,0.9-1.1,2-1.6,2.9c-0.4,0.8-0.5,1.7-0.6,2.5c0,0.6-0.2,1.3-0.2,1.9
		c0,0.3,0.1,0.5,0,0.8c-0.1,0.7,0.1,1.3,0.2,1.9c0.1,0.7,0.4,1.3,0.7,2c0.3,0.8,0.6,1.5,1,2.3c0.2,0.4,0.3,0.8,0.4,1.2
		c0.2,0.9,0.4,1.8,1,2.6c0.6,0.8,1.3,1.3,2.2,1.8c0.1,0,0.1,0.1,0.2,0.2c0.2,0.4,0.6,0.8,0.8,1.2c0.1,0.1,0.1,0.3,0.3,0.4
		c0.3,0.1,0.4,0.4,0.6,0.6c0.1,0.2,0.2,0.3,0.4,0.4c0.3,0.3,0.6,0.5,0.8,0.8c0.2,0.3,0.4,0.5,0.7,0.6c0.3,0.2,0.7,0.4,1,0.6
		c0.6,0.4,1.2,0.7,1.7,1.3c0,0,0,0,0,0c0.8,0.5,1.4,1.2,2.1,1.7c0.1,0.1,0.1,0.1,0.2,0.2c0.1,0.2,0.3,0.3,0.5,0.4
		c0.5,0.3,0.9,0.5,1.3,0.9c0.4,0.4,0.9,0.5,1.4,0.7c0.3,0.1,0.7,0.1,0.9,0.4c0.6,0.7,1.4,0.9,2.2,1.1c0.9,0.2,1.7,0,2.6,0
		C249,446.1,249,446,249,445.9z"/>
	<path class="st1" d="M249.4,445.9c-0.1,0-0.2,0-0.4,0c-0.3-0.2-0.7-0.2-1-0.2c-0.4,0-0.7,0.1-1-0.3c-0.1-0.2-0.2-0.4-0.4-0.5
		c-0.1-0.1-0.1-0.3-0.2-0.5c-0.2-0.7,0.2-1.3,0.1-2c0-0.5,0.1-0.9,0.1-1.4c0-0.2,0-0.4,0.1-0.6c0.1-0.2,0.1-0.4,0-0.6
		c-0.1-0.1-0.1-0.2,0-0.4c0.1-0.1,0-0.2-0.1-0.3c-0.1,0-0.1-0.1-0.2,0c-0.1,0.1-0.1,0.1-0.1,0.2c0.1,0.2,0,0.2-0.1,0.3
		c-0.2,0.2-0.7,0.1-0.7,0.6c0,0-0.1,0-0.1,0c-0.3-0.3-0.3,0.1-0.5,0.3c-0.1,0.1-0.4,0.3-0.3,0.5c0.1,0.5-0.3,1-0.3,1.5
		c0,0.1-0.1,0.2-0.1,0.3c-0.3,0.4-0.9,0.6-1.3,0.9c-0.1,0.1-0.3,0.1-0.4,0c-0.1-0.1-0.2-0.2-0.4-0.2c-0.5-0.1-0.9-0.4-1.4-0.5
		c0,0-0.1,0-0.1-0.1c-0.2-0.3-0.5-0.6-0.9-0.8c-0.1,0-0.1-0.1-0.2-0.2c-0.5-0.7-1.1-1.2-1.8-1.7c-0.2-0.1-0.3-0.3-0.5-0.5
		c-0.6-0.5-1-1-1.6-1.4c-0.4-0.3-0.7-0.7-1.2-1c-0.4-0.3-0.7-0.6-1-1c-0.4-0.5-0.8-1.1-1.4-1.5c-0.3-0.2-0.6-0.4-0.8-0.7
		c-0.3-0.3-0.6-0.6-0.9-0.8c-0.3-0.2-0.5-0.4-0.6-0.7c-0.1-0.2-0.2-0.4-0.3-0.6c-0.3-0.5-0.7-1.1-0.8-1.7c0-0.1,0-0.2-0.1-0.2
		c-0.2-0.5-0.4-1-0.6-1.6c-0.1-0.1-0.1-0.3-0.1-0.4c0-0.7-0.2-1.3-0.5-1.8c-0.2-0.4-0.3-0.7-0.4-1.1c-0.1-0.7,0-1.5-0.2-2.2
		c0-0.1-0.1-0.2-0.1-0.4c0-0.8,0.1-1.5,0.1-2.3c0-0.6,0.2-1.3,0.5-1.8c0.2-0.3,0.4-0.6,0.6-0.9c0.8-1.2,1-2.6,1.5-4
		c0.2-0.5,0.3-1,0.6-1.4c0.2-0.3,0.4-0.7,0.6-1c0.2-0.6,0.4-1.2,0.8-1.7c0.1-0.1,0.1-0.2,0.1-0.3c0.1-0.7,0.5-1.3,0.8-1.9
		c0.3-0.6,0.8-1.2,1.2-1.8c0.3-0.5,0.7-0.9,1-1.4c0.3-0.6,0.8-0.9,1.4-1.1c0.7-0.3,1.4-0.4,2.1-0.6c0.7-0.2,1.4-0.6,2.1-1
		c0.3-0.2,0.5-0.3,0.8-0.5c0.2-0.1,0.4-0.2,0.5-0.4c0.2-0.4,0.5-0.5,0.9-0.6c0.3-0.1,0.7-0.2,0.9-0.5c0.1-0.2,0.3-0.2,0.5-0.3
		c0.8-0.2,1.6-0.5,2.4-0.8c0.5-0.2,1-0.3,1.6-0.3c0.4,0,0.8,0.1,1.1,0.1c0.5-0.1,1.1-0.1,1.6,0c0.4,0.1,0.6,0.3,0.5,0.7
		c-0.1,0.3-0.2,0.7-0.3,1c-0.1,0.2-0.2,0.4-0.2,0.6c0,0.3-0.1,0.6-0.3,0.8c-0.3,0.3-0.2,0.7-0.2,1c0,0.6,0.4,1.1,0.7,1.6
		c0.1,0.2,0.3,0.3,0.6,0.4c0.6,0.1,1.3,0.1,1.9-0.1c0.7-0.2,1.2-0.7,1.7-1.2c0.3-0.3,0.9-0.4,1.2,0c0.3,0.5,0.8,0.6,1.4,0.6
		c0.3,0,0.6,0,0.9,0c0.4,0,0.7-0.1,0.9-0.4c0.5-0.5,1.2-0.8,1.6-1.5c0.1-0.2,0.3-0.3,0.6-0.3c0.6,0.1,1.1,0.5,1.7,0.8
		c0.9,0.6,1.6,1.3,2.5,1.8c0.8,0.5,1.6,1,2.3,1.5c0.4,0.3,1,0.5,1.3,1c0.1,0.2,0.3,0.3,0.5,0.4c0.5,0.3,1.1,0.5,1.5,0.9
		c0.9,0.6,1.7,1.3,2.5,2c0.2,0.1,0.3,0.2,0.5,0.3c0.6,0.2,1.2,0.5,2,0.6c0.6,0,1.2,0.1,1.8-0.1c0.9-0.3,1.8-0.6,2.8-1
		c0.3-0.1,0.5-0.2,0.8-0.1c0.2,0.1,0.4,0,0.5,0c0.3,0,0.5-0.2,0.7-0.5c0.1-0.2,0.1-0.5,0.2-0.7c0.1-0.1,0.2-0.2,0.1-0.4
		c0-0.2,0.1-0.2,0.2-0.3c0.6-0.2,1.2-0.1,1.8-0.1c0.6,0,1.1-0.3,1.6-0.6c0.5-0.3,1.1-0.7,1.6-1.1c0.1-0.1,0.2,0,0.2-0.1
		c0.3-0.1,0.6,0.2,0.9,0c0,0,0.1,0,0.2,0.1c0.2,0.2,0.5,0.3,0.8,0.2c0.1,0,0.3,0,0.4,0c0.3,0.1,0.5-0.1,0.7-0.2
		c0.3-0.3,0.6-0.8,1.1-0.9c0,0,0.1-0.1,0.1-0.1c0.6-0.6,1.2-1.1,2-1.4c0.6-0.2,1.3-0.3,2-0.1c0.1,0,0.2,0,0.3,0c0.5,0,1,0,1.5,0
		c0.3,0,0.6,0,0.8-0.3c0.2-0.3,0.4-0.6,0.7-0.8c0.4-0.5,0.9-0.9,1.5-1.1c0.5-0.1,1.1-0.2,1.6-0.2c0.1,0,0.2,0,0.4,0
		c0.4-0.1,0.8,0.1,1.2,0.2c0.2,0,0.4,0.2,0.6,0.2c0.2,0,0.4,0.3,0.4,0.5c-0.1,0.5,0.1,0.9,0.2,1.4c0.1,0.2,0.2,0.4,0.4,0.4
		c0.1,0,0.2,0.1,0.2,0.2c0,0.1-0.1,0.2-0.2,0.1c-0.3,0-0.5,0.2-0.6,0.4c-0.1,0.2-0.1,0.3-0.4,0.2c-0.2-0.1-0.2,0.1-0.3,0.2
		c0,0.2,0.1,0.1,0.2,0.1c0.2,0.1,0.4,0.1,0.3,0.4c0,0.2,0.1,0.3,0.2,0.3c0.3,0,0.3,0.4,0.5,0.4c0.1,0,0,0.1,0,0.2
		c-0.1,0.3,0.1,0.6,0.4,0.7c0.2,0.1,0.3,0.1,0.5,0.2c1,0.5,2,0.9,3.2,0.8c0.1,0,0.3,0,0.4,0c0.4-0.1,0.8-0.1,1.2-0.2
		c0.6-0.2,1.1-0.1,1.7,0.2c0.3,0.2,0.4,0.4,0.6,0.6c0.2,0.3,0.6,0.4,0.8,0.7c0.2,0.3,0.5,0.6,0.8,0.8c0.1,0,0.2,0.1,0.2,0.2
		c0.1,0.4,0.4,0.6,0.7,0.9c0.4,0.4,0.9,0.7,1.5,0.6c0.4-0.1,0.7-0.1,1.1-0.2c0.4-0.1,0.7-0.3,1.1-0.4c0.5-0.1,0.6-0.7,0.3-1.1
		c-0.1-0.1-0.2-0.2-0.3-0.4c-0.2-0.4-0.5-0.7-1-0.9c-0.3-0.1-0.6-0.5-0.5-0.7c0.1-0.2,0-0.5,0-0.7c0-0.3,0.1-0.6,0.4-0.8
		c0.1,0,0.1-0.1,0.2-0.2c0.3-0.6,0.7-0.9,1.4-0.7c0.7,0.2,1.3,0.6,1.9,1c0.8,0.5,1.5,1.2,2,2.1c0.4,0.6,0.8,1.2,1.7,1.3
		c0.2,0,0.3,0,0.5,0.1c0.6,0.2,1.2,0.1,1.7,0c0.9-0.1,1.8-0.3,2.7-0.3c1,0,1.9-0.4,2.7-0.9c0.4-0.3,0.8-0.6,1.4-0.6
		c1.2,0,2.4-0.1,3.6-0.4c0.7-0.2,1.4-0.2,2.1-0.5c0.5-0.2,1-0.2,1.4-0.1c0.5,0.1,1,0.2,1.5,0.1c0.3-0.1,0.6,0.1,0.8,0.1
		c0.4-0.1,0.6,0,0.9,0.2c0.1,0.1,0.2,0.2,0.3,0c0-0.1,0.3-0.1,0.3,0.1c-0.1,0.3,0,0.6-0.2,0.8c-0.3,0.4-0.3,0.4,0,0.8c0,0,0,0,0,0
		c0.2,0.6,0.6,0.7,1.2,0.7c0.4,0,0.7-0.3,0.6-0.5c-0.1-0.3-0.1-0.7-0.4-0.9c-0.2-0.1-0.3-0.3-0.2-0.6c0.1-0.3,0.3-0.6,0.7-0.7
		c0.6-0.1,1.2-0.2,1.8-0.2c0.6,0,1.2,0,1.8,0.2c0.4,0.1,0.8,0.1,1,0.5c0.1,0.2,0.3,0.3,0.6,0.3c0.2,0,0.3,0.1,0.3,0.3
		c0,0.1,0.1,0.2,0.2,0.2c0.4,0.1,0.7,0.3,0.9,0.6c0.1,0.3,0.3,0.4,0.6,0.6c0.4,0.3,0.9,0.3,1.3,0.2c0.5-0.1,0.8-0.1,1.2,0.3
		c0.2,0.2,0.4,0.5,0.8,0.6c0.1,0,0.1,0.1,0.1,0.2c0,0.2,0.1,0.3,0.3,0.4c0.4,0.2,0.7,0.5,0.8,1c0,0,0,0,0,0c0.1,0.2,0.2,0.4,0.5,0.3
		c0.1,0,0.3-0.2,0.4,0.1c0.2,0.5,0.6,0.9,0.9,1.4c0.3,0.5,0.8,0.8,1.4,1c0.4,0.2,0.6,0.5,1.1,0.6c0,0,0.1,0.1,0.1,0.1
		c0.1,0.2,0.4,0.4,0.6,0.6c0.2,0.1,0.4,0.3,0.4,0.5c0.1,0.7,0.6,1,1,1.5c0.2,0.2,0.5,0.4,0.7,0.6c0.5,0.4,0.8,1,1.2,1.4
		c0.2,0.1,0.3,0.4,0.2,0.6c-0.1,0.3,0,0.6,0.2,0.8c0.3,0.3,0.4,0.6,0.6,0.9c0.1,0.4,0.2,0.8,0.5,1.1c0,0,0.1,0.1,0.1,0.2
		c-0.1,0.3,0.1,0.7-0.4,0.9c0,0-0.1,0.1,0,0.1c0.1,0.3-0.1,0.6-0.2,0.8c-0.1,0.2-0.2,0.4-0.4,0.5c-0.3,0.1-0.5,0.3-0.6,0.6
		c-0.3,0.5-0.5,1-0.9,1.4c-0.2,0.2-0.4,0.4-0.6,0.6c-0.3,0.6-0.7,1.1-1,1.6c-0.2,0.4-0.6,0.5-0.9,0.7c0,0-0.1,0-0.1,0
		c-0.2-0.2-0.6-0.4-0.7-0.7c-0.1-0.2-0.1-0.4-0.3-0.5c-0.5-0.3-0.9-0.7-1.3-1.1c-0.2-0.2-0.4-0.5-0.5-0.9c-0.1-0.3,0-0.5,0.1-0.8
		c0.1-0.3,0.4-0.6,0.2-1c-0.1-0.3-0.2-0.5-0.5-0.7c-0.3-0.3-0.7-0.5-1.1-0.7c-0.7-0.4-1.5-0.8-2.2-1.3c-0.2-0.1-0.4-0.3-0.5-0.5
		c-0.4-0.6-0.9-1.2-1.4-1.8c-0.1-0.1-0.2-0.2-0.3-0.3c-0.2-0.2-0.6-0.1-0.7-0.4c-0.2-0.3-0.5-0.7-0.7-1c-0.1-0.1-0.1-0.2-0.2-0.3
		c-0.5-0.2-1-0.6-1.5-0.9c-0.6-0.3-1.1-0.8-1.6-1.3c-0.4-0.4-0.7-0.9-1.2-1.1c-0.8-0.4-1.5-0.8-2.3-1c-1.3-0.4-2.5-0.6-3.8-0.7
		c-0.9,0-1.4-0.4-1.7-1.2c-0.2-0.6-0.1-1.2-0.1-1.8c0,0,0-0.1,0.1-0.1c0.3-0.2,0.5-0.4,0.7-0.6c0.4-0.3,0.7-0.6,0.9-0.9
		c0.1-0.2,0.2-0.3,0-0.5c-0.1-0.2-0.1-0.3,0.2-0.4c0.1,0,0.2,0,0.2-0.2c0-0.1-0.2-0.1-0.3-0.1c-0.2,0.1-0.5,0.1-0.7,0
		c-0.2-0.1-0.5-0.1-0.7,0c-0.6,0.4-1,1-1,1.8c0,0.3-0.1,0.5-0.3,0.7c-0.2,0.2-0.4,0.2-0.6,0.4c-0.3,0.3-0.6,0.6-1.1,0.6
		c-0.2,0-0.4,0.1-0.5,0.2c-0.3,0.3-0.8,0.5-1.3,0.4c-0.2,0-0.4-0.2-0.6-0.3c-0.5-0.1-0.9-0.5-1.4-0.5c0,0,0,0-0.1,0
		c-0.3-0.2-1.1,0-1.3,0.2c-0.1,0.1-0.2,0.1-0.3,0.2c-0.3,0.1-0.6,0.2-0.9,0.1c-0.1,0-0.2,0-0.3,0.1c-0.3,0.3-0.6,0.2-0.9,0.2
		c-0.3,0-0.5,0-0.8,0c-0.1,0-0.3,0-0.3,0.1c-0.4,0.4-0.9,0.6-1.4,0.8c-0.4,0.2-0.8,0.3-1.1,0.6c-0.1,0.1-0.2,0.1-0.3,0.1
		c-0.7,0.2-1.4,0.4-2.1,0.5c-0.9,0.1-1.3,1-0.8,1.8c0.3,0.4,0.6,0.7,1,0.9c0.4,0.3,0.9,0.4,1.1,0.9c0,0.1,0.2,0.1,0.2,0.1
		c0.4,0,0.7,0.1,1.1-0.2c0.1-0.1,0.3-0.1,0.5-0.2c0.5-0.1,1-0.2,1.4-0.4c0.6-0.3,1.3-0.2,1.9-0.1c0.7,0.1,1.4,0.4,2.1-0.1
		c0.3-0.2,0.7-0.3,0.9-0.6c0.3-0.5,0.8-0.9,1.1-1.4c0.3-0.4,0.7-0.6,1.1-0.7c0.4,0,0.8-0.2,1.2,0c0.5,0.2,0.6,0.7,0.8,1.2
		c0.1,0.3-0.1,0.5-0.2,0.7c-0.1,0.1-0.1,0.2-0.1,0.3c0,0.6-0.1,1.3,0.1,1.9c0.1,0.4,0.4,0.6,0.8,0.6c0.7,0,1.2-0.3,1.6-0.8
		c0.3-0.4,0.8-0.4,1.1-0.4c0.6,0.1,1.1,0.3,1.6,0.8c0.4,0.3,0.8,0.5,1.3,0.6c0.4,0.1,0.9,0.1,1.3,0.2c0.8,0.2,1.6,0.6,2.2,1.1
		c0.5,0.4,1.1,0.7,1.6,1.1c0.3,0.2,0.7,0.3,1.1,0.4c0.4,0.1,0.7,0.3,0.9,0.6c0.3,0.5,0.7,0.8,1.3,0.9c0.5,0.1,1,0.3,1.5,0.5
		c0.8,0.5,1.6,0.9,2.4,1.3c0.2,0.1,0.4,0.3,0.5,0.5c0.3,0.4,0.7,0.9,1.1,1.3c0.3,0.3,0.4,0.7,0.1,1c-0.2,0.2-0.3,0.5-0.3,0.7
		c-0.2,0.9-0.1,1.5,1,1.8c0.3,0.1,0.5,0.1,0.8,0.2c0.5,0,1,0.1,1.5,0c0.3,0,0.5-0.1,0.8,0c0.7,0.1,0.8,0.1,0.8,0.9
		c0,0.5,0,0.9,0.1,1.3c0.1,0.8,0,1.5-0.5,2.2c-0.1,0.1-0.2,0.3-0.4,0.3c-0.5,0.2-1,0.3-1.6,0.3c-0.3,0-0.7,0.1-0.9,0.3
		c-0.3,0.2-0.5,0.3-0.8,0.5c-0.4,0.2-0.8,0.4-1.1,0.8c-0.5,0.7-1.2,1-2,0.9c-0.3,0-0.5-0.1-0.6-0.4c-0.2-0.5-0.6-0.7-1.1-0.8
		c-0.3-0.1-0.6,0.1-0.7,0.3c-0.1,0.2-0.2,0.3-0.3,0.4c-0.2,0.2-0.6,0.4-0.7,0.7c-0.2,0.2-0.4,0.4-0.6,0.6c-0.2,0.2-0.5,0.4-0.7,0.7
		c-0.3,0.4-0.7,0.8-1.2,1.1c-0.4,0.2-0.8,0.4-1.2,0.7c-0.2,0.2-0.4,0.2-0.7,0.2c-0.5-0.1-0.9,0.1-1.3,0.3c-0.1,0-0.3,0.1-0.4,0.1
		c-0.3,0-0.5,0.1-0.7,0.3c-0.4,0.3-0.7,0.7-1.2,1c-0.6,0.4-1.3,0.6-2,0.4c-0.9-0.3-1.6-0.1-2.3,0.5c-0.2,0.1-0.4,0.3-0.6,0.4
		c-0.5,0.2-1,0.4-1.4,0.7c-0.7,0.5-1.6,0.6-2.4,0.8c-0.6,0.1-1.1,0.1-1.7,0.2c-0.5,0.1-1,0.3-1.6,0.4c-0.4,0-0.8,0.3-1.2,0.2
		c-0.6-0.1-1.1-0.2-1.7,0.1c-0.3,0.2-0.6,0.3-0.9,0.3c-0.7,0.2-1.4,0.1-2,0.1c-0.5,0-0.9,0-1.4,0.2c-0.1,0-0.3,0.1-0.4,0.1
		c-0.5-0.1-0.9,0-1.4,0c-0.1,0-0.2,0-0.2,0.1c-0.2,0.2-0.5,0.3-0.7,0.4c-0.2,0.1-0.5,0.3-0.5,0.7c-0.1,0.7-0.6,1.1-1.3,1.1
		c-0.2,0-0.3,0-0.5,0c-0.1,0-0.3,0.1-0.4-0.1c-0.1-0.1-0.2-0.2-0.3-0.1c-0.5,0-1,0-1.4,0.2c-0.5,0.1-1,0.3-1.6,0.3
		c-0.3,0-0.5,0.2-0.8,0.3c-0.6,0.2-1.2,0.2-1.7,0.3c-0.3,0-0.7,0.1-1.1,0.1c-0.8-0.1-1.6-0.1-2.3,0.4c-0.1,0.1-0.3,0.1-0.4,0.1
		c-0.2-0.1-0.4,0-0.6-0.1c-0.4,0-0.5-0.1-0.5-0.5c0-0.3,0.1-0.6,0.1-1c0-0.4,0.3-0.8,0.4-1.1c0,0,0.1-0.1,0.1-0.1
		c0.4-0.2,0.5-0.5,0.5-0.9c0-0.1,0.1-0.3,0.1-0.4c0.3-0.5,0.6-1,1.1-1.4c0.4-0.4,0.9-0.7,1.4-0.8c0.6-0.1,1.3-0.1,1.9,0
		c0.1,0,0.2,0.1,0.3,0.2c0.1,0.3,0.4,0.6,0.5,0.8c0.1,0.2,0.4,0.3,0.6,0.4c0.5,0.2,1.3-0.3,1.5-0.9c0.2-0.6,0.2-1.1,0.2-1.7
		c0-0.4,0.2-0.7,0.4-1c0.2-0.3,0.5-0.5,0.8-0.6c0.5-0.2,1-0.6,1.5-0.7c0.3-0.1,0.5-0.3,0.5-0.6c0-0.7-0.4-1.2-0.7-1.8
		c-0.3-0.5-0.6-1-0.8-1.6c-0.1-0.5-0.7-1-1.3-1c-0.4,0-0.8,0.1-1.1,0.3c-0.2,0.1-0.4,0.2-0.7,0.3c-0.6,0.1-1.1,0.1-1.7,0
		c-0.8,0-1.3,0.3-1.7,1.1c-0.1,0.3-0.4,0.6-0.7,0.7c-0.8,0.4-1.9,0.2-2.6-0.4c-0.3-0.3-1.2-0.4-1.6-0.2c-0.4,0.2-0.7,0.5-1,0.8
		c-0.1,0.2-0.3,0.4-0.5,0.6c-0.7,0.5-1.1,1.3-1.3,2.1c-0.2,0.6-0.5,1.1-0.8,1.7c-0.2,0.3-0.7,0.5-1.1,0.5c0,0-0.1,0-0.1,0
		c-0.2-0.1-0.5-0.2-0.7-0.3c-0.2-0.1-0.5,0-0.6-0.2c-0.2-0.2-0.4-0.1-0.5,0c-0.2,0.2-0.4,0.6-0.5,0.8c-0.1,0.6-0.3,1.3-0.2,1.9
		c0,0.1,0,0.2-0.1,0.4c-0.2,0.3-0.5,0.4-0.8,0.5c-0.5,0.2-0.7,0.7-1.1,1c-0.5,0.4-0.7,1.1-0.9,1.6c-0.2,0.8-0.8,1.1-1.3,1.2
		c-0.8,0.2-1.6,0.4-2.3,0.7c-1,0.3-2,0.7-3.1,0.2c-0.5-0.2-1.1-0.4-1.6-0.7c-0.7-0.5-1.5-0.6-2.3-0.3c-0.4,0.2-0.8,0.4-1.3,0.5
		c-1.2,0.3-2.3,0-3.2-0.8c-0.7-0.6-2.1-0.9-3-0.4c-0.3,0.2-0.6,0.4-1,0.3c-0.2,0-0.4-0.1-0.6,0c-0.3,0-0.5-0.2-0.5-0.4
		c0-0.5-0.3-1-0.2-1.5c0-0.1,0-0.3-0.2-0.3c-0.4,0-0.8-0.2-1.2-0.2c-0.9,0-1.8,0.1-2.6,0.1c-0.5,0-1,0-1.6,0.1c-0.1,0-0.2,0-0.2,0.1
		c-0.1,0.1-0.2,0.2,0,0.2c0.2,0.1,0.2,0.2,0.1,0.3c-0.2,0.2-0.1,0.3,0.1,0.4c0.2,0.1,0.3,0.1,0.5,0.2c0.2,0.1,0.2,0.2,0.1,0.3
		c-0.2,0.3-0.2,0.6-0.6,0.8c-0.5,0.3-1,0.4-1.6,0.3c-0.3-0.1-0.7-0.2-1-0.3c-0.3-0.1-0.6-0.2-0.9-0.4c-0.2-0.2-0.5-0.3-0.8-0.2
		c-0.2,0.1-0.5,0-0.7-0.1c-0.4-0.2-0.8-0.3-1.2-0.3c-0.1,0-0.2,0-0.3-0.1c-0.4-0.3-0.8-0.4-1.2-0.7c-0.2-0.1-0.4-0.4-0.4-0.6
		c0-0.3-0.1-0.4-0.4-0.6c-0.1-0.1-0.3-0.2-0.3-0.3c-0.1-0.1-0.2-0.2-0.3,0c-0.1,0.1-0.2,0.1-0.3,0c-0.2-0.2-0.4-0.4-0.5-0.7
		c-0.1-0.5-0.6-0.6-0.9-0.7c-0.4-0.1-0.9-0.2-1.4-0.1c-0.1,0-0.2,0.2-0.4,0.1c-0.3-0.1-0.4,0-0.6,0.1c-0.1,0.1-0.1,0.1-0.2,0.1
		c-0.1,0-0.2,0.1-0.3,0.2c-0.3,0.2-0.4,0.4-0.7,0.6c-0.5,0.3-1.1,0.3-1.6,0.6c0,0-0.1,0-0.1,0c-0.3-0.1-0.5-0.3-0.8-0.2
		c-0.2,0-0.4-0.1-0.6-0.1c-0.2,0-0.3-0.1-0.5-0.2c-0.1-0.1-0.3-0.3-0.5-0.3c-0.8-0.2-1.5-0.4-2.1-0.8c-0.8-0.4-1.5-1.1-2.5-0.9
		c0,0-0.1,0-0.1,0C249.7,445.6,249.5,445.6,249.4,445.9z M293.1,423.5c0.3,0,0.3-0.3,0.4-0.4c0.5-0.4,0.9-0.9,1.3-1.3
		c0.3-0.3,0.6-0.7,0.8-1.1c0.3-0.5,0.6-0.9,1-1.3c0.4-0.3,0.8-0.6,0.9-1c0.1-0.5,0-0.8-0.5-0.8c-0.7,0-1.3-0.3-1.9-0.6
		c-0.4-0.2-0.8-0.5-1.2-0.7c-0.8-0.4-1.7,0.2-1.8,1c-0.1,0.6-0.4,1-0.8,1.4c-0.1,0.1-0.3,0.2-0.3,0.4c0,0.6-0.6,0.9-0.8,1.5
		c0,0-0.1,0-0.1,0c-0.3,0.4-0.7,0.7-1.2,1c-0.2,0.1-0.3,0.2-0.5,0.2c-0.4,0.1-0.7,0.3-1.1,0.4c-0.3,0.1-0.4,0.3-0.5,0.6
		c-0.1,0.2-0.1,0.4-0.1,0.6c0,0.2,0.1,0.3,0.2,0.4c0.2,0.2,0.5,0.4,0.8,0.6c0.3,0.2,0.6,0.3,0.9,0.4c0.3,0.1,0.6,0.4,0.7,0.7
		c0.1,0.5,0.2,1.1-0.1,1.6c-0.1,0.1-0.2,0.2-0.3,0.3c-0.1,0.3-0.3,0.5-0.7,0.5c-0.7,0.1-1.3,0.3-1.8,0.8c-0.2,0.2-0.4,0.7-0.1,0.8
		c0.3,0.2,0.5,0.5,0.8,0.7c0.2,0.1,0.4,0.1,0.5,0.3c0.6,0.5,1.1,1.2,1.3,2c0.1,0.2,0.2,0.4,0.4,0.4c0.6,0.2,1.1,0.1,1.7,0.1
		c0.3,0,0.7,0,0.9-0.2c0.3-0.2,0.6-0.2,0.9-0.3c0.3,0,0.5,0,0.8-0.2c0,0,0.1,0,0.1,0c0.3,0.2,0.6,0,0.9,0.1c0.3,0.1,0.5,0,0.7-0.1
		c0.2,0,0.2-0.1,0.2-0.3c-0.1-0.3,0.1-0.3,0.2-0.4c0.2-0.1,0.4-0.1,0.5,0c0.4,0.5,1,0.6,1.5,0.9c0.1,0.1,0.2,0.1,0.3,0.1
		c0.5-0.1,0.9,0.2,1.4,0.2c0.5,0,0.9,0.1,1.4,0.1c0.1,0,0.2,0,0.3-0.1c0.6-0.2,1.2-0.3,1.7-0.6c0.2-0.1,0.5-0.2,0.5-0.4
		c0.1-0.4,0.5-0.7,0.6-1.1c0.1-0.3,0.1-0.6-0.1-0.8c-0.1-0.1-0.1-0.1-0.1-0.2c0-0.6,0-1.3,0.4-1.8c0.3-0.3,0.2-1,0-1.2
		c-0.3-0.4-0.8-0.6-1.3-0.7c-0.7-0.1-1.4,0-2,0c-0.3,0-0.7,0.1-0.9,0.4c-0.1,0.2-0.2,0.4-0.3,0.6c-0.2,0.6-0.8,1-1.5,0.6
		c-0.4-0.3-0.7-0.6-0.9-1c-0.5-0.8-1.2-1.1-2.1-1.3c-0.4-0.1-0.8,0-1.2-0.1c-0.5-0.1-1-0.4-1.5-0.5c-0.2-0.1-0.2-0.2-0.2-0.3
		c0-0.3,0.2-0.5,0.1-0.8c0-0.1,0-0.2,0.1-0.2C293,423.3,293.1,423.4,293.1,423.5c-0.1,0-0.1,0-0.1,0.1c0,0,0,0.1,0.1,0
		C293.1,423.6,293.1,423.6,293.1,423.5z M233.1,411.5c0-0.3,0-0.5,0-0.8c-0.1-0.7-0.4-0.9-1-0.5c0,0-0.1,0-0.1,0.1
		c-0.4,0.3-0.8,0.6-1,1.1c-0.1,0.2-0.2,0.4-0.3,0.6c-0.3,0.5-0.7,0.9-0.8,1.6c0,0.2,0,0.5-0.1,0.7c-0.1,0.7-0.3,1.3-0.4,2
		c-0.1,0.4-0.2,0.8-0.4,1.2c-0.4,0.6-0.8,1.3-0.7,2.1c0,0.3,0,0.5,0.1,0.7c0.1,0.1,0,0.2,0,0.3c0,0.3,0,0.5,0.3,0.7
		c0.2,0.1,0.5,0.2,0.7,0.3c0.8,0.5,1.6,0.4,2.5,0.3c0.2,0,0.5,0,0.7-0.2c0.5-0.5,1.1-0.9,1.7-1.3c0.2-0.2,0.6-0.1,0.7,0
		c0.4,0.6,0.5,1.3,0.8,1.9c0.2,0.5,0.1,1,0.2,1.5c0.1,0.7-0.1,1-0.8,1.3c-0.1,0.1-0.2,0.1-0.3,0.2c-0.2,0.3-0.4,0.5-0.6,0.8
		c-0.1,0.2-0.4,0.4-0.6,0.6c-0.1,0.1-0.3,0.1-0.5,0c-0.6-0.4-1.2-0.7-1.8-1.2c-0.5-0.4-1.1-0.4-1.6-0.4c-0.4,0-0.8,0.1-1,0.5
		c-0.1,0.4-0.2,0.7-0.1,1.1c0,0.2,0.1,0.4,0.2,0.6c0.1,0.6,0.2,1.1,0.5,1.6c0.1,0.2,0.2,0.4,0.2,0.7c0,0.3,0.1,0.5,0.3,0.6
		c0.3,0.3,0.4,0.7,0.6,1.1c0.1,0.1,0,0.3,0,0.4c-0.1,0.5,0,0.9,0.3,1.3c0.5,0.5,1,1,1.5,1.4c0.7,0.6,1.4,1.2,2,1.8
		c0.6,0.6,1.2,1.3,2,1.8c0.7,0.5,1.6,0.9,2.1,1.7c0,0,0,0,0,0c0.3,0.2,0.5,0.5,0.6,0.8c0.1,0.2,0.1,0.5,0.3,0.6
		c0.2,0.2,0.4,0.4,0.6,0.6c0.1,0.2,0.3,0.2,0.4,0.3c0.4,0.1,0.8,0.3,1.1,0.5c0.2,0.1,0.3,0.3,0.6,0.3c0.2,0,0.4,0,0.6,0
		c0.4,0,0.7-0.4,0.6-0.8c-0.1-0.3-0.2-0.7-0.3-1.1c-0.1-0.4-0.2-0.8-0.6-1c-0.4-0.2-0.5-0.5-0.5-0.9c0.1-0.4,0.1-1,0.7-1.2
		c0.6-0.2,1.2-0.4,1.8-0.6c0.5-0.2,1.1-0.2,1.5-0.6c0.1,0,0.2,0,0.2-0.1c0.2-0.1,0.4-0.2,0.5-0.4c0.3-0.7,0.2-1.4,0.1-2.1
		c0-0.2-0.2-0.4-0.4-0.5c-0.6-0.2-1.2-0.5-1.8-0.5c-0.4,0-0.8-0.2-1.1,0.3c-0.1,0.1-0.2,0.1-0.3,0.2c-0.1,0-0.2,0.1-0.3,0.2
		c-0.3,0.4-0.6,0.9-1.2,0.9c0,0-0.1,0-0.1,0.1c-0.2,0.1-0.4,0.1-0.6,0c-0.2-0.1-0.4-0.2-0.6-0.2c-0.2,0-0.4-0.1-0.5-0.3
		c-0.2-0.3,0-0.5,0-0.8c0-0.5,0.3-1,0.8-1.3c0.5-0.4,1-0.5,1.6-0.2c0.4,0.1,1,0,1.2-0.3c0.6-0.6,1.1-1.3,1.4-2.2
		c0.2-0.5,0.4-1.1,0.2-1.6c-0.2-0.5-0.3-0.9-0.2-1.5c0.1-0.6,0.1-1.2,0.3-1.8c0.1-0.5,0.2-1,0-1.6c-0.1-0.4,0.1-1.2,0.5-1.3
		c0.6-0.2,1.3-0.5,2-0.4c0.5,0,1.1,0.4,1.3,0.9c0.4,1,0.6,2,1.1,2.9c0.1,0.3,0.3,0.5,0.5,0.7c0.5,0.5,1.1,0.9,1.6,1.3
		c0.3,0.3,0.6,0.3,0.9,0.2c0.3-0.1,0.4,0,0.5,0.2c0,0.1,0.1,0.1,0.1,0.2c0.3,0.6,0.4,1.1,0.2,1.8c-0.1,0.1-0.1,0.3-0.2,0.4
		c-0.1,0.4-0.1,0.5-0.5,0.3c-0.7-0.3-1.4-0.2-2.1-0.3c-0.9-0.1-1.7,0.3-2.6,0.5c-0.4,0.1-0.6,0.4-0.8,0.7c-0.3,0.6-0.6,1.2-0.8,1.8
		c-0.1,0.4,0.2,0.9,0.6,0.9c0.3,0,0.7,0.1,1,0.2c1,0.2,2,0.4,3.1,0.4c0.8,0,1.3,0.3,1.4,0.9c0.1,0.4,0.3,0.6,0.6,0.8
		c0.2,0.2,0.5,0.4,0.7,0.4c0.4,0,0.8,0,1.2-0.1c1.1-0.2,2,0,2.8,0.8c0.3,0.3,0.6,0.4,1,0.4c0.2,0,0.4,0.1,0.4,0.3
		c0,0.2,0.1,0.3,0.2,0.5c0.1,0.2,0.2,0.4,0.1,0.7c-0.1,0.3-0.2,0.6-0.2,0.9c0,0.2-0.2,0.4,0,0.6c0.2,0.2,0.2,0.3,0.1,0.5
		c0,0.2-0.1,0.3,0,0.5c0.1,0.3,0.2,0.7,0.2,1.1c0,0.4,0.5,1.1,0.8,1.1c0.4,0,0.8,0.2,1.2,0c0.2-0.1,0.5-0.1,0.7-0.1
		c0.4-0.1,0.8,0.1,1.1-0.1c0.5-0.3,0.8-0.1,1.2,0.2c0.1,0.1,0.3,0.1,0.4,0.2c0.6,0.1,1.3,0.1,1.9-0.1c0.5-0.2,0.9-0.4,1.2-0.8
		c0.3-0.4,0.4-0.8,0.5-1.2c0-0.2,0-0.3-0.1-0.4c-0.6-0.5-1.3-0.5-2-0.4c-0.2,0-0.4,0.1-0.5-0.1c-0.2-0.4-0.1-0.9,0.3-1.1
		c0.1,0,0.1-0.1,0.2-0.1c0.2-0.4,0.5-0.6,0.7-0.8c0.1-0.1,0.2-0.1,0.2-0.2c0.1-0.4,0.4-0.7,0.7-0.9c0.3-0.3,0.5-0.7,0.4-1.1
		c0-0.1-0.1-0.3,0.1-0.4c0.2-0.1,0.4-0.3,0.7-0.1c0.4,0.3,0.7,0.7,1.2,0.8c0.1,0,0.1,0.1,0.2,0.2c0,0.4,0.2,0.7,0.1,1.1
		c0,0.1,0,0.2-0.1,0.2c-0.2,0.3-0.4,0.6-0.5,1c-0.2,0.4-0.1,0.8,0,1.2c0,0.2,0.1,0.3,0.4,0.2c0.3-0.1,0.5-0.1,0.8,0
		c0.3,0.1,0.6,0.2,0.8,0.4c0.3,0.3,0.6,0.4,0.9,0.7c0.2,0.2,0.4,0.4,0.6,0.5c0.8,0.4,1.6,0.5,2.4,0.4c0.4,0,0.8-0.1,1.2-0.4
		c0.4-0.2,0.7-0.5,1.2-0.6c0.3-0.1,0.6-0.2,0.8-0.4c0.1-0.1,0.3-0.2,0.5,0c0.3,0.2,0.4,0.1,0.6-0.1c0.2-0.4,0.6-0.5,0.9-0.6
		c0.4-0.1,0.6-0.3,0.6-0.7c0-0.4-0.1-0.7,0-1.1c0-0.1-0.1-0.2-0.2-0.2c-0.4,0-0.7,0-1,0.3c-0.5,0.4-1.2,0.7-1.8,0.9
		c-0.2,0-0.3,0-0.5-0.1c-0.3-0.2-0.4-0.6-0.7-0.8c-0.4-0.3-0.5-0.7-0.7-1.2c-0.3-0.8-0.2-1.6,0.4-2.3c0.6-0.7,1-1.6,0.9-2.6
		c0-0.4-0.4-0.9-0.8-0.9c-0.5,0-1,0-1.4,0.2c-0.2,0.1-0.5,0.1-0.7,0.1c-0.4,0-0.6-0.5-0.4-0.7c0.4-0.4,0.8-0.8,1.3-1.1
		c0.2-0.1,0.4-0.2,0.5-0.4c0.5-0.8,1.3-1.2,2.3-1.4c0.4,0,0.8-0.2,1.2-0.4c0.3-0.2,0.5-0.4,0.8-0.6c0.7-0.4,1.2-1,1.7-1.5
		c0.3-0.3,0.5-0.5,0.8-0.7c0.3-0.1,0.4-0.4,0.3-0.7c-0.1-0.4-0.4-0.7-0.6-1c-0.2-0.3-0.6-0.4-1-0.5c-0.7-0.2-1.4-0.6-2.1-1
		c-0.3-0.2-0.6-0.1-1,0c-0.4,0.2-0.6,0.6-1,0.9c-0.6,0.4-0.8,1-0.9,1.7c0,0.3-0.2,0.6-0.4,0.8c-0.5,0.5-1.1,0.9-1.9,1
		c-0.2,0-0.5,0-0.7,0.1c-0.5,0.1-1,0.3-1.5,0.3c-0.7,0.1-1.5-0.1-2.3,0.1c-0.5,0.1-1.1,0-1.6,0.2c-0.5,0.1-0.9,0.4-1.3,0.6
		c-0.3,0.1-0.5,0.1-0.8,0.2c-0.2,0.1-0.2,0-0.3-0.1c-0.4-0.5-0.6-1.1-1-1.6c-0.3-0.4-0.6-0.9-0.6-1.5c0-0.3,0-0.6,0.3-0.8
		c0.2-0.2,0.5-0.1,0.7,0c0.2,0.1,0.4,0.2,0.6,0.2c0.4,0.1,0.9,0,1.1-0.3c0.3-0.3,0.1-0.7-0.1-1c-0.3-0.5-0.6-1-0.7-1.6
		c-0.3-1-1.3-1.4-2.2-0.6c-0.6,0.6-1.3,0.9-2.2,1.1c-0.4,0.1-0.7-0.1-1.1-0.2c-0.2-0.1-0.3-0.3-0.4-0.6c-0.2-0.3-0.4-0.7-0.6-0.9
		c-0.3-0.3-0.5-0.7-0.4-1.2c0.1-0.4,0-0.8-0.2-1.1c-0.1-0.2-0.4-0.3-0.5-0.1c-0.2,0.3-0.3,0.6-0.1,0.9c0.1,0.1,0.1,0.3,0,0.4
		c-0.3,0.3-0.5,0.6-0.8,0.8c-0.7,0.4-1,1.1-1.2,1.9c-0.1,0.2-0.2,0.4-0.2,0.5c0.1,0.5,0,1,0,1.5c0,0.4-0.1,0.8-0.4,1.1
		c-0.4,0.4-0.9,0.7-1.3,1c-0.6,0.4-1.3,0.6-2,0.6c-0.1,0-0.2,0-0.3-0.1c-0.1-0.2-0.2-0.3-0.3-0.4c-0.1-0.2-0.4-0.3-0.5-0.5
		c-0.2-0.5-0.4-1.1-0.4-1.6c0-0.4,0-0.9,0-1.3c0-0.4-0.1-0.9-0.4-1.3c-0.2-0.3-0.4-0.4-0.7-0.6c-0.3-0.2-0.5-0.5-0.4-0.8
		c0.1-0.3,0.3-0.5,0.6-0.6c0.1,0,0.2-0.1,0.2-0.1c0.7-0.5,1.6-0.6,2.4-0.8c0.4-0.1,0.8-0.2,1.1-0.4c0.4-0.2,0.7-0.8,0.9-1.2
		c0.1-0.3,0.1-0.6,0-0.9c-0.1-0.4-0.2-0.7-0.5-0.8c-0.6-0.2-1.1-0.5-1.5-1c-0.3-0.4-0.3-0.8,0.1-1c0.4-0.3,0.9-0.6,1.3-0.9
		c0.7-0.6,1.1-1,0.6-1.8c-0.6-1.1-1.5-1.7-2.8-1.8c-0.3,0-0.6-0.1-0.8-0.3c-0.4-0.4-0.9-0.4-1.4-0.3c-0.2,0-0.3,0.1-0.5,0.1
		c-0.3,0-0.6,0.1-0.8,0.2c-0.7,0.5-1.3,0.3-2,0.1c-0.1,0-0.3-0.1-0.4-0.2c-0.4-0.4-0.8-0.8-1.3-1.2c-0.3-0.2-0.4-0.6-0.5-0.9
		c-0.1-0.2-0.1-0.4-0.2-0.6c-0.1-0.1-0.1-0.2,0-0.3c0.2-0.1,0.2-0.4,0.5-0.3c0.7,0.2,1.4,0.2,2,0.5c0.2,0.1,0.5,0.1,0.7,0.4
		c0.1,0.1,0.8,0.2,0.9,0.1c0.3-0.2,0.3-0.8,0-1c-0.1-0.1-0.2-0.1-0.3-0.2c-0.2-0.3-0.5-0.5-0.5-1c0-0.6-0.2-1.1-0.9-1.3
		c0,0-0.1,0-0.1-0.1c-0.1-0.3-0.4-0.3-0.6-0.2c-0.3,0.1-0.5,0.2-0.8,0.3c-0.2,0.1-0.5,0.2-0.7,0.5c-0.1,0.2-0.2,0.4-0.4,0.5
		c-0.5,0.2-0.1,0.8-0.4,1.1c0,0,0.1,0.1,0.1,0.1c0.1,0.1,0.2,0.1,0.2,0.2c0,0.1-0.2,0.2-0.3,0.2c-0.4-0.1-0.5,0.2-0.5,0.5
		c0,0.2-0.1,0.4-0.1,0.6c0,0.2-0.1,0.5-0.3,0.6c-0.5,0.4-1,0.8-1.6,1c-0.2,0.1-0.4,0-0.5-0.1c-0.4-0.2-0.5-0.6-0.8-0.9
		c-0.2-0.2-0.4-0.3-0.5-0.6c-0.1-0.3-1.1-0.4-1.4-0.1c0,0,0,0.1,0,0.1c-0.1,0.2-0.1,0.4-0.2,0.5c-0.2,0.4-0.2,0.8-0.4,1.2
		c-0.2,0.3-0.2,0.6-0.3,0.9c-0.1,0.7-0.3,1.3-0.4,1.9c-0.1,0.4-0.2,0.8-0.5,1.1c-0.4,0.3-0.7,0.8-1.1,1.1c-0.3,0.2-0.4,0.5-0.5,0.8
		c-0.2,0.6-0.4,1.2-0.6,1.9c-0.1,0.2-0.2,0.4-0.5,0.4c-0.6,0.2-1.1,0-1.7-0.3c-0.1,0-0.1-0.1-0.1-0.1c0-0.6-0.1-1.2,0.2-1.7
		c0.2-0.4,0.5-0.9,0.6-1.4C233.1,412.1,233,411.8,233.1,411.5z M313.9,419.1c0.3,0,0.5,0,0.7,0c0.8,0,1,0.4,1.1,1.1
		c0.1,0.5-0.1,0.9-0.4,1.2c-0.2,0.2-0.3,0.4-0.2,0.6c0.1,0.2,0.3,0.3,0.6,0.3c0.1,0,0.2,0,0.2,0.1c0.5,0.2,1.1,0.2,1.6,0.2
		c0.1,0,0.3-0.1,0.4,0c0.8,0.1,1.3,0.5,0.9,1.3c-0.1,0.2-0.1,0.3-0.2,0.5c-0.1,0.2-0.2,0.3-0.4,0.3c-0.8,0.3-1.7,0.4-2.4,0.9
		c-0.5,0.3-0.8,0.8-0.4,1.3c0.5,0.6,1.1,1,1.8,1.3c0.5,0.2,1,0.4,1.2,0.8c0.2,0.3,0.2,0.6,0.3,1c0.2,0.7,0.1,1.5-0.2,2.2
		c-0.1,0.3-0.2,0.7-0.2,1c0,0.3,0,0.7,0.4,0.9c0.4,0.2,0.7,0.4,1.1,0.6c0.2,0.1,0.4,0.2,0.6,0.2c0.5,0,0.9,0.1,1.4,0
		c0.6-0.1,1.1-0.2,1.3-0.9c0.1-0.3,0.1-0.7,0.3-1c0.3-0.6,0.5-1.2,0.8-1.7c0.6-1,0.6-2.1,0.7-3.2c0.1-0.7,0.3-1.4,0.6-2
		c0.2-0.4,0.1-0.7-0.3-0.8c-0.2,0-0.3-0.1-0.5-0.1c-0.5,0-0.9-0.3-1.2-0.7c-0.3-0.4-0.4-0.8-0.7-1.2c-0.3-0.5-0.5-1.1-0.6-1.7
		c-0.1-0.5-0.1-0.8,0.3-1.2c0.4-0.3,0.7-0.7,0.9-1.2c0.2-0.4,0.3-0.8,0.1-1.3c-0.2-0.4-0.4-0.8-0.5-1.3c-0.1-0.8-0.1-1.6,0.3-2.4
		c0.3-0.5,0.7-0.9,1.3-1c0.3,0,0.6-0.1,0.9-0.1c0.6-0.2,1.1-0.4,1.3-1c0.1-0.3-0.1-0.7-0.3-0.8c-0.8-0.4-1.7-0.7-2.6-0.9
		c-0.7-0.2-0.7-0.1-0.9,0.5c-0.1,0.4-0.4,0.7-0.8,0.8c-0.4,0.1-0.9,0.2-1.3,0.4c-0.7,0.2-1.4,0.5-1.8,1.1c-0.2,0.2-0.5,0.5-0.8,0.5
		c-0.7,0-1.5-0.2-2.1-0.7c-0.6-0.5-1.3-0.8-2-1.1c-0.1-0.1-0.3-0.1-0.4-0.2c-0.5-0.4-1-0.7-1.3-1.4c-0.1-0.2-0.3-0.3-0.5-0.3
		c-0.4-0.1-0.8,0-1.2-0.1c-0.6-0.1-1.3,0.2-1.6,0.8c0,0.1-0.1,0.1-0.2,0.1c-0.2-0.2-0.5-0.3-0.5-0.6c0-0.5-0.2-0.9-0.5-1.3
		c-0.4-0.5-1-0.7-1.6-0.9c-0.4-0.1-0.8,0-1.2,0c-0.7,0-1.3-0.1-2,0c-0.2,0-0.4,0-0.6,0c-0.5,0-1-0.2-1.5-0.1
		c-0.4,0.1-0.9,0.1-1.2,0.5c-0.1,0.1-0.2,0.3-0.1,0.4c0.1,0.2,0.1,0.3,0.2,0.5c0.2,0.6,0.5,1.2,0.6,1.8c0,0.2,0.1,0.4,0.2,0.6
		c0.1,0.1,0.3-0.1,0.4-0.1c0.1,0,0.3-0.1,0.4-0.1c0.6-0.1,1.2-0.2,1.9-0.2c0.4,0,0.8,0.1,1.2,0.1c0.6,0,1.2-0.1,1.8-0.2
		c0.3-0.1,0.7-0.2,1.1-0.2c0.3,0,0.5,0.2,0.8,0.3c0.3,0,0.5,0.2,0.7,0.4c0.4,0.4,0.8,0.7,1.2,0.9c0.7,0.3,0.9,0.5,0.6,1.4
		c-0.2,0.5-0.4,0.9-0.6,1.4c-0.2,0.5-0.7,0.7-1.2,0.7c-0.2,0-0.4-0.1-0.6-0.1c-0.9-0.2-1.8-0.5-2.8-0.3c-0.5,0.1-1,0.1-1.4,0.1
		c-0.1,0-0.1,0-0.2,0c-0.6,0.1-1.1,0.1-1.6-0.2c-0.6-0.3-1.1-0.6-1.3-1.2c-0.2-0.3-0.2-0.7-0.4-1.1c-0.1-0.2-0.1-0.3-0.1-0.5
		c0.1-0.2,0.1-0.5-0.1-0.7c-0.1-0.1-0.1-0.2-0.2,0c-0.2,0.4-0.5,0.4-0.9,0.5c-0.5,0.1-1.1,0.2-1.6,0.3c-0.5,0.1-1,0-1.4-0.3
		c-0.6-0.3-0.8-0.9-1-1.5c-0.1-0.3-0.1-0.6,0-0.8c0.2-0.4,0.4-0.8,0.8-1.1c0.2-0.1,0.2-0.3,0.1-0.4c-0.1-0.2-0.3-0.4-0.3-0.6
		c0-0.1,0-0.2-0.1-0.2c-0.4-0.3-0.7-0.7-1.1-0.9c-0.5-0.2-0.8-0.2-1.1,0.3c-0.1,0.2-0.1,0.4-0.2,0.5c-0.2,0.3-0.2,0.6-0.1,0.9
		c0.2,0.4,0.3,0.7,0.4,1.1c0.2,0.4,0,0.8-0.3,1.2c-0.3,0.3-0.6,0.6-0.9,1c-0.2,0.4-0.4,0.7-0.7,1c-0.2,0.2-0.1,0.6,0.1,0.8
		c0.5,0.5,1,0.8,1.6,1.1c0.7,0.4,1.6,0.5,2.3,1c0.1,0.1,0.2,0,0.3,0.1c0.6,0.2,1.1,0,1.7-0.2c0.4-0.1,0.8-0.1,1.2,0
		c0.4,0.1,0.7,0.5,1,0.8c0.4,0.5,0.5,1,0.2,1.5c-0.1,0.2-0.2,0.3-0.3,0.5c-0.2,0.6-0.6,0.8-1.1,0.9c-0.9,0.3-1.6,1.2-1.5,2.1
		c0,0.2,0.1,0.3,0.3,0.4c0.3,0.1,0.6,0.1,0.8,0.2c0.7,0.2,1.3,0.1,2,0.1c0.2,0,0.4-0.1,0.5-0.3c0.1-0.2,0.2-0.5,0.3-0.7
		c0-0.2,0.1-0.4,0.3-0.5c0.7-0.2,1.3-0.6,2-0.9c0.4-0.2,0.8-0.1,1.1,0.2c0.1,0.1,0.2,0.2,0.3,0.3c0.5,0.4,0.6,1,0.5,1.6
		c-0.1,0.5-0.3,1-0.2,1.5c0,0.3,0.1,0.4,0.3,0.5c0.3,0.2,0.7,0.2,1,0.4c0.2,0.2,0.3,0.3,0.6,0.4c0.5,0.1,0.9,0.4,1.3,0.7
		c0.6,0.5,0.8,1.6,0.5,2.4c-0.2,0.5-0.6,1-0.7,1.6c-0.1,0.2,0,0.5-0.2,0.7c-0.3,0.4-0.5,0.8-0.7,1.3c-0.2,0.6-0.3,1.2-0.3,1.8
		c0,0.4,0.1,0.8,0.1,1.3c-0.1,0.5-0.3,0.9-0.6,1.2c-0.1,0.1-0.2,0.2-0.4,0.2c-0.3,0-0.5,0-0.7,0.1c-0.8,0.1-1.4,0.4-1.7,1.2
		c-0.1,0.2-0.2,0.5-0.4,0.7c-0.2,0.5-0.6,0.9-0.9,1.3c-0.3,0.3-0.7,0.6-0.9,0.9c0,0-0.1,0-0.1,0c-0.7,0.1-1.4,0-2.1,0.1
		c-0.4,0.1-0.8,0.1-1.2,0.3c-0.6,0.3-1.1,0.9-1.6,1.4c-0.3,0.3-0.7,0.6-0.7,1.1c0,0.2-0.1,0.3-0.1,0.5c-0.1,0.5-0.1,0.9,0.3,1.3
		c0.1,0.1,0.1,0.1,0.1,0.2c0.1,0.7,0.1,1.5,0.2,2.2c0,0.2,0.1,0.4,0.3,0.5c0.2,0,0.3-0.2,0.3-0.4c0,0,0-0.1,0-0.1
		c0-0.2,0.1-0.3,0.2-0.4c0.3-0.3,0.5-0.8,1.1-0.8c0,0,0.1,0,0.1-0.1c0.3-0.3,0.6-0.6,1-0.9c0.5-0.4,0.7-0.9,1-1.4
		c0.3-0.4,0.4-0.9,0.6-1.4c0.2-0.4,0.6-0.7,0.4-1.3c0-0.1,0-0.2,0.1-0.3c0,0,0.1-0.1,0.2-0.1c0.2,0.2,0.6,0.2,0.8,0.5
		c0.4,0.6,1,0.8,1.5,1.2c0.3,0.2,0.6,0.2,0.9,0c0.3-0.2,0.5-0.4,0.5-0.8c0-0.4,0.1-0.8,0.3-1.1c0.7-0.8,1.2-1.7,1.6-2.7
		c0.2-0.5,0.5-0.8,1-1c0.9-0.3,1.1-1,1.2-1.8c0-0.4,0.1-0.7,0.2-1.1c0.1-0.2,0.2-0.5,0.4-0.6c0.3-0.1,0.5-0.4,0.7-0.6
		c0.1-0.1,0.1-0.3,0.3-0.4c0.3-0.2,0.5-0.5,0.6-0.8c0.1-0.4,0.1-0.7,0.1-1.1c0-0.4,0.1-0.8,0.3-1.1c0.2-0.4,0.5-0.7,0.8-1
		c0.5-0.6,1.1-1.3,1.6-1.9c0.1-0.2,0.3-1,0.2-1.1c-0.3-0.2-0.4-0.6-0.4-0.9c-0.1-0.4-0.2-0.9,0-1.4c0.1-0.3,0.1-0.6,0.1-0.9
		c0-0.2-0.3-0.2-0.4-0.3c0,0,0,0-0.1-0.1c-0.3-0.2-0.5-0.4-0.9-0.5c-0.6-0.2-1.2-0.4-1.6-0.8c-0.3-0.2-0.7-0.5-0.5-1
		c0.1-0.4,0.5-0.8,0.8-0.8C312.7,419.2,313.3,419.1,313.9,419.1z M328,424.3c0,0.7,0.2,1.2,0.8,1.3c0.5,0.1,0.9-0.1,1.1-0.4
		c0.3-0.5,0.9-0.4,1.3-0.7c0,0,0.1,0,0.1,0c0.3,0,0.6-0.1,0.9-0.1c0.2,0,0.4-0.1,0.5,0.1c0.4,0.3,0.6,0.8,0.5,1.3
		c-0.1,0.4-0.2,0.7-0.4,1c-0.2,0.4-0.3,0.8-0.5,1.3c-0.2,0.5,0,1,0.2,1.5c0.1,0.5,0,0.9-0.4,1.1c-0.2,0.1-0.4,0.3-0.5,0.5
		c-0.1,0.2-0.3,0.4-0.5,0.6c-0.6,0.4-0.6,1-0.5,1.6c0.1,0.6,0.1,1.1,0.1,1.7c0,0.9-0.4,1.7-0.8,2.5c-0.1,0.3-0.4,0.5-0.3,0.8
		c0,0.4,0,0.8,0.2,1.2c0.2,0.4,0.5,0.8,0.8,1.1c0.4,0.4,1,0.7,1.6,0.9c0.2,0.1,0.4,0.1,0.6,0c0.6-0.1,1-0.5,1.5-0.8
		c0.5-0.3,0.9-0.8,1-1.4c0.1-0.3,0.3-0.6,0.3-1c0-0.1,0.1-0.3,0.1-0.3c0.3-0.3,0.5-0.6,0.6-1.1c0.1-0.6,0.2-1.2,0.2-1.8
		c0-0.1,0-0.3,0.1-0.4c0.1-0.4,0.3-0.7,0.5-1c0.3-0.4,0.6-0.6,1.1-0.8c0.8-0.2,1.6-0.2,2.4-0.3c0.3,0,0.6,0.1,0.8-0.3
		c0.1-0.1,0.1-0.3,0.2-0.4c0.2-0.4,0.8-0.6,1.2-0.4c0.4,0.2,0.8,0.2,1.1,0.3c0.2,0.1,0.4,0.1,0.6,0.1c0.5,0,0.8-0.5,0.7-0.9
		c-0.1-0.3-0.3-0.6-0.5-0.9c-0.4-0.4-0.7-0.8-0.8-1.4c-0.1-0.6-0.1-1.3-0.2-1.9c0-0.4-0.1-0.8-0.3-1.1c-0.7-0.9-1.6-1.6-2.8-1.6
		c-0.5,0-1,0-1.5-0.2c-0.5-0.2-0.9-0.4-1.1-1c-0.1-0.3,0-0.6-0.1-0.9c0-0.2-0.1-0.4-0.2-0.4c-0.4,0-0.7-0.2-1.1,0
		c-0.1,0.1-0.3,0.1-0.5,0.1c-0.4,0-0.8-0.1-1.1-0.1c-0.7,0.1-1.2-0.1-1.7-0.5c-0.4-0.3-0.9-0.2-1.2,0.1c-0.1,0.1-0.2,0.2-0.3,0.3
		c-0.4,0.2-0.7,0.5-1,0.8c-0.2,0.2-0.5,0.5-0.8,0.7c-0.5,0.4-1.1,0.5-1.6,0.7C328.1,424,328,424.1,328,424.3z M351.6,436.4
		c0.1,0,0.3,0,0.4,0c0.2-0.1,0.5,0,0.7-0.2c0.2-0.2,0.5-0.4,0.7-0.7c0.3-0.3,0.3-0.4,0.1-0.8c-0.3-0.4-0.8-0.7-1.2-1
		c-0.6-0.4-1.3-0.6-1.9-0.9c-0.1-0.1-0.2-0.1-0.2-0.3c-0.1-1.2,0.6-1.8,1.8-1.6c0.2,0,0.3,0.1,0.5,0.1c0.6,0,1.2-0.2,1.7-0.5
		c0.4-0.3,0.7-0.6,0.6-1.1c-0.1-0.7-0.1-1.4,0.4-1.9c0.1-0.1,0.1-0.3,0.1-0.5c-0.2-0.6-0.5-1.1-1.1-1.5c-0.4-0.3-0.9-0.4-1.4-0.3
		c-0.4,0.1-0.8,0.2-1.2,0.2c-0.4,0-0.7,0.2-0.7,0.5c0,0.3-0.1,0.6-0.1,0.9c0,0.3-0.2,0.3-0.4,0.4c-0.2,0-0.3-0.1-0.4-0.2
		c-0.2-0.3,0-1,0.3-1.1c0.3-0.2,0.4-0.5,0.4-0.8c-0.1-0.5-0.2-1-0.6-1.3c-0.1-0.1-0.3-0.3-0.4-0.4c-0.6-0.7-1.4-1.1-2.4-1
		c-0.1,0-0.2,0-0.2,0.1c-0.1,0.2-0.3,0.3-0.4,0.5c-0.2,0.2-0.3,0.5-0.6,0.7c-0.3,0.1-0.5,0.3-0.5,0.6c0,0.1-0.1,0.3-0.2,0.3
		c-0.2,0.1-0.2,0.2-0.2,0.4c0,0.4,0,0.9-0.1,1.3c0,0.6-0.2,1.2-0.2,1.8c0,0.4,0.2,0.8,0.5,1.1c0.3,0.3,0.6,0.6,0.9,1
		c0.3,0.4,0.6,0.8,0.7,1.2c0.1,0.3,0.2,0.5,0.4,0.7c0.4,0.5,0.7,1,0.6,1.7c0,0.4-0.2,0.6-0.5,0.8c-0.2,0.1-0.5,0.1-0.7-0.1
		c-0.4-0.3-0.8-0.6-1.4-0.6c-0.3,0-0.6,0-0.8,0.3c-0.1,0.1-0.2,0.2-0.3,0.3c-0.8,0.7-1.6,1.5-2.4,2.3c-0.3,0.4-0.6,0.8-0.5,1.3
		c0.1,0.6,0.1,1.1,0.2,1.7c0,0.4,0.3,0.7,0.7,0.7c0.6,0,1.2-0.3,1.8-0.5c0.9-0.3,1.5-1,2-1.7c0.4-0.6,1-1.1,1.8-1
		c0.2,0,0.4-0.1,0.6-0.2c0.2-0.2,0.5-0.3,0.8-0.3C350,436.6,350.8,436.5,351.6,436.4z M285.3,446.2c0-0.2,0-0.3,0-0.5
		c0-0.4,0.4-0.7,0.8-0.8c0.5,0,0.9,0.1,1.3,0.2c0.4,0.1,0.8,0.3,1.2,0.5c0.8,0.3,1.3,0.8,1.8,1.4c0.2,0.2,0.4,0.2,0.6,0.2
		c0.2,0,0.4-0.1,0.5-0.4c0.1-0.3,0.1-0.6,0-0.9c-0.1-0.3,0-0.4,0.2-0.6c0.1-0.1,0.2-0.1,0.2-0.2c0.4-0.4,0.6-1,0.6-1.5
		c0-0.5,0-1,0.2-1.5c0.1-0.5,0.1-1.1-0.2-1.5c-0.3-0.5-0.7-0.7-1.1-0.3c-0.5,0.6-1.2,0.5-1.9,0.5c-0.2,0-0.3,0-0.5-0.1
		c-0.4-0.2-0.7-0.4-1.1-0.5c-0.5-0.2-0.8-0.7-0.9-1.1c-0.1-0.5-0.5-0.4-0.8-0.4c-0.3,0-0.5,0.1-0.6,0.3c-0.3,0.5-0.7,0.9-1.1,1.2
		c-0.1,0.1-0.3,0.2-0.4,0.3c-0.3,0.5-0.3,1.1-0.3,1.6c0,0.3,0,0.5-0.4,0.7c-0.4,0.1-0.8,0.1-1.1-0.2c-0.2-0.1-0.5-0.3-0.7-0.3
		c-0.3-0.1-0.6,0-0.9-0.1c-0.1,0-0.1,0-0.1,0.1c0,0.3-0.2,0.5-0.3,0.8c-0.1,0.3-0.2,0.6-0.4,0.8c-0.4,0.5-0.3,1.2,0.2,1.6
		c0.1,0.1,0.2,0.2,0.3,0.3c0.2,0.4,0.6,0.7,0.9,1c0.3,0.2,0.4,0.5,0.6,0.8c0.3,0.7,0.7,1.4,1.3,1.9c0.4,0.3,0.8,0.6,1.1,1
		c0.4,0.5,0.8,0.8,1.3,1.1c0.3,0.2,0.7,0.3,1,0.2c0.5,0,1-0.8,0.9-1.3c-0.1-0.6-0.4-1.2-0.9-1.6c-0.2-0.1-0.3-0.3-0.5-0.4
		C285.6,447.8,285.3,447,285.3,446.2z M276.2,416.9c0.5,0,0.8-0.2,0.9-0.7c0.1-0.8,0-1.6-0.5-2.3c-0.1-0.1-0.1-0.2-0.1-0.3
		c-0.1-0.4,0-0.7,0.3-1c0.1-0.2,0.2-0.4,0-0.4c-0.5-0.2-0.9-0.4-1.4-0.5c-0.3,0-0.7,0-1-0.2c-0.4-0.2-0.9-0.5-1.2-0.9
		c-0.3-0.4-0.7-0.8-1.1-1.1c-0.4-0.3-0.8-0.5-1.3-0.4c-0.8,0.2-1.5,0.7-2,1.4c-0.2,0.3-0.2,0.5-0.2,0.9c0.2,1,0.8,1.7,1.2,2.6
		c0.1,0.3,0.3,0.6,0.5,0.9c0.5,0.6,1,1,1.8,0.8c0.4-0.1,0.8-0.1,1.1,0c0.7,0.1,1.1,0.6,1.7,0.9C275.4,416.6,275.8,416.9,276.2,416.9
		z M275.2,422.2c0.4,0.1,0.8-0.1,1.2-0.1c0.7-0.1,1.3-0.4,1.5-1.2c0-0.2,0.1-0.3,0-0.5c-0.1-0.1-0.1-0.3-0.1-0.4
		c0-0.3-0.3-0.8-0.7-0.8c-0.2,0-0.3-0.1-0.4-0.2c-0.7-0.5-1.3-1.1-2-1.5c-0.6-0.3-1.1-0.6-1.8-0.6c-0.8,0-1.5,0.1-2.3,0.5
		c-0.6,0.3-1.1,0.7-1.4,1.3c-0.2,0.4-0.2,0.9-0.4,1.4c-0.1,0.2-0.1,0.5-0.1,0.7c0.1,0.3,0.2,0.5,0.2,0.8c0,0.5,0.3,0.7,0.7,0.7
		c0.1,0,0.3,0,0.4,0c0.1,0,0.2,0,0.2,0c0.2-0.2,0.5-0.1,0.8-0.1c0.2,0,0.5,0,0.7-0.1c0.2-0.2,0.5,0,0.7-0.1c0,0,0.1,0.1,0.1,0.1
		c0,0.3,0.2,0.3,0.4,0.2c0,0,0.1,0,0.2,0.1c0.2,0.1,0.3,0.1,0.5,0c0.2-0.1,0.5-0.2,0.8-0.1C274.8,422.2,275,422.2,275.2,422.2z
		 M247.4,443.5c0,0.6,0.5,1.3,0.9,1.3c0.5,0,1,0,1.5-0.2c0.3-0.2,0.7-0.3,1.1-0.2c0.2,0.1,0.4,0.1,0.6,0.1c0.2,0,0.4,0.1,0.5,0.3
		c0.1,0.1,0.1,0.3,0.2,0.3c0.5,0.2,0.9,0.4,1.3,0.7c0.2,0.2,0.7,0.1,0.8-0.1c0.1-0.3,0.3-0.5,0.5-0.7c0.2-0.1,0.2-0.3,0.2-0.5
		c0-0.6,0.3-1.1,0.5-1.6c0.2-0.5,0.6-1,0.7-1.6c0.1-0.6-0.2-0.8-0.7-0.7c-0.5,0.1-0.8,0.5-1.2,0.7c-0.4,0.3-0.8,0.8-1.4,0.6
		c0,0,0,0-0.1,0c-0.4,0.1-0.6,0-0.8-0.4c-0.1-0.2-0.3-0.4-0.5-0.6c-0.3-0.1-0.4-0.3-0.4-0.6c0-0.4-0.3-0.7-0.7-0.9
		c-0.4-0.2-0.9-0.2-1.1,0.3c0,0.1-0.1,0.1-0.2,0.2c-0.5,0.6-1,1.1-1.2,1.9c-0.1,0.3-0.2,0.6-0.3,0.9
		C247.5,443,247.4,443.3,247.4,443.5z M354.4,414.3c0-0.4-0.2-0.8-0.4-1.2c-0.2-0.4-0.6-0.5-0.9-0.7c-0.4-0.5-0.9-0.5-1.5-0.4
		c-0.4,0.1-0.7,0.1-1.1,0c-0.2,0-0.5-0.1-0.7,0.1c-0.1,0.1-0.4,0.2-0.6,0c-0.4-0.5-1-0.4-1.6-0.6c-0.6-0.2-1.3-0.1-2-0.4
		c-0.3-0.1-0.6-0.2-1-0.1c-0.7,0.1-1.2,0.6-1.3,1.3c-0.1,0.4,0.1,0.7,0.5,0.9c0.8,0.5,1.7,0.5,2.6,0.6c0.8,0.1,1.6-0.2,2.4-0.2
		c0.4,0,0.8,0.1,1.1,0.4c0.4,0.4,0.8,0.7,1.2,0.9c0.4,0.2,0.8,0.6,1,1c0.2,0.4,0.6,0.5,1,0.4c0.1,0,0.1,0,0.2,0
		c0.3,0,0.9-0.4,0.9-0.7C354.3,415.3,354.4,414.9,354.4,414.3z M289.7,415.2c0,0,0-0.1,0-0.2c-0.2-0.5-0.6-0.8-1.2-0.9
		c-0.7-0.1-1.3-0.4-1.7-1c-0.4-0.5-0.8-0.9-0.9-1.5c0-0.1-0.2-0.2-0.3-0.2c-0.9,0.1-1.5,0.5-2.1,1.1c-0.1,0.1,0,0.2,0.1,0.2
		c0.2,0.2,0.4,0.5,0.8,0.6c0.1,0,0.2,0.1,0.3,0.2c0.4,0.4,0.7,0.9,1.1,1.3c0.1,0.1,0.2,0.3,0.2,0.5c0.2,0.6,0,1.2,0,1.8
		c0,0.2,0,0.5-0.1,0.7c-0.2,0.6-0.4,1.3-0.5,2c0,0.3,0.2,0.6,0.5,0.6c0.6-0.1,1.1-0.3,1.4-0.9c0.2-0.3,0.3-0.7,0.4-1
		c0.2-0.6,0.7-0.9,1-1.5c0-0.1,0.1-0.1,0.1-0.1C289.5,416.6,289.7,416,289.7,415.2z M278.6,418.2c0,0.6,0.2,1.1,0.3,1.6
		c0,0.2,0.2,0.5,0.4,0.5c0.4,0,0.7,0.3,1,0.3c0.6,0.1,1.1,0.5,1.7,0.1c0.3-0.2,0.5-0.4,0.5-0.8c0-0.2-0.1-0.4-0.1-0.7
		c0-0.1-0.1-0.3-0.3-0.3c-0.1,0-0.2-0.1-0.2-0.2c-0.2-0.5,0-0.9,0.2-1.3c0.1-0.2,0.2-0.3,0.1-0.5c0-0.1,0-0.2,0-0.2
		c-0.1-0.3,0-0.8-0.3-1c-0.6-0.5-1.2-0.8-2-0.5c-0.8,0.3-1,0.5-1,1.3c0,0.1,0,0.2,0,0.3C278.8,417.4,278.7,417.9,278.6,418.2z
		 M252.8,423.5c0,0.1,0,0.2,0,0.3c0.1,0.5,0.1,1,0.6,1.4c1.2,0.9,2.7-0.1,2.8-1.2c0-0.4,0.1-0.7,0.2-1.1c0.1-0.3,0.1-0.7,0-1
		c-0.1-0.4-0.2-0.8-0.2-1.3c0-0.1-0.1-0.2-0.1-0.3c-0.2-0.3-0.4-0.2-0.7-0.2c-0.4-0.1-0.8,0-1.1,0.2c-0.5,0.3-1,0.7-1.2,1.4
		C253.1,422.3,252.8,422.9,252.8,423.5z M314.5,435.3c0.2,0,0.4,0,0.5-0.2c0.2-0.2,0.5-0.4,0.6-0.6c0.2-0.3,0.5-0.5,0.4-0.9
		c0-0.1,0-0.2,0-0.3c0-0.7,0.2-1.3,0.9-1.7c0.5-0.3,0.9-0.8,0.7-1.5c-0.1-0.5-0.5-0.8-0.9-1c-0.4-0.2-0.8-0.2-1.1-0.1
		c-0.6,0.2-1,0.7-1.5,1.1c-0.1,0.1-0.1,0.3-0.2,0.4c-0.1,0.6,0,1.2-0.1,1.7c-0.1,0.5,0,1.1-0.4,1.6c-0.2,0.2-0.1,0.4-0.2,0.6
		c0,0.1,0,0.1,0.3,0.4c0.1,0,0.1,0.1,0.2,0.1C314.1,435.2,314.2,435.4,314.5,435.3z M283.1,432.7c-0.6-0.1-1.2,0.1-1.7,0.4
		c-0.5,0.2-1,0.6-1.2,1.1c-0.2,0.4-0.2,0.9-0.2,1.4c0,0.4,0.3,0.7,0.7,0.7c1.2,0.1,2.2-0.3,3.1-1c0.1-0.1,0.3-0.2,0.5-0.3
		c0.5-0.5,0.5-1,0.1-1.7C284.1,432.7,283.6,432.5,283.1,432.7z M341.6,441.7c-0.1-0.3-0.1-0.6-0.1-0.9c0-0.2-0.1-0.3-0.2-0.4
		c-0.5-0.4-1-0.4-1.6-0.2c-0.3,0.1-0.5,0.2-0.7,0.3c-0.6,0.3-0.7,0.8-0.9,1.3c0,0,0,0.1,0,0.1c0.2,0.4,0.3,0.8,0.7,1.1
		c0.2,0.1,0.4,0.1,0.5,0.3c0.1,0.1,0.2,0.1,0.3,0c0.3-0.2,0.7-0.3,1-0.4C341.3,442.6,341.6,442.1,341.6,441.7z M335.9,420.6
		c0.4,0.1,0.8-0.1,1.3-0.3c0.1,0,0.2-0.1,0.3-0.3c0.1-0.5,0-1,0-1.5c0-0.4-0.2-0.7-0.3-1c-0.1-0.2-0.3-0.3-0.5-0.2
		c-0.7,0.3-1.3,0.7-1.6,1.4c-0.1,0.3-0.2,0.7-0.2,1C334.8,420.3,334.9,420.7,335.9,420.6z M233.9,409.9c0,0.3,0.1,0.6,0.2,1
		c0.1,0.4,0.3,0.6,0.7,0.6c0.8,0,1.3-0.6,1.5-1.2c0.2-0.6,0.2-1.3,0-1.9c0-0.1-0.1-0.2-0.2-0.3c-0.4-0.2-0.8-0.2-1.1,0.1
		c-0.1,0.1-0.2,0.1-0.3,0.2C234.4,408.7,233.9,409.1,233.9,409.9z M348.7,440.1c0,0.2,0.1,0.3,0.2,0.4c0.2,0.2,0.4,0.1,0.6,0.1
		c0.4,0,1-0.5,1-0.8c0.1-0.4-0.1-0.8-0.5-1c-0.1,0-0.1-0.1-0.2-0.2c-0.1-0.2-0.2-0.2-0.4-0.2c-0.2,0-0.3,0.1-0.3,0.3
		c-0.1,0.2-0.1,0.4-0.2,0.6C348.9,439.6,348.8,439.8,348.7,440.1z M282.8,412.7c0.1,0,0.2,0,0.2-0.1c0-0.1-0.1-0.2-0.1-0.2
		c-0.1,0-0.1,0.1-0.1,0.2C282.6,412.7,282.7,412.7,282.8,412.7z"/>
	<path class="st2" d="M249.4,445.9c0.1-0.3,0.3-0.3,0.5-0.3c0,0,0.1,0,0.1,0c1-0.2,1.7,0.5,2.5,0.9c0.7,0.4,1.4,0.7,2.1,0.8
		c0.2,0,0.4,0.2,0.5,0.3c0.1,0.1,0.3,0.2,0.5,0.2c0.2,0,0.5,0.2,0.6,0.1c0.4-0.1,0.6,0.1,0.8,0.2c0,0,0.1,0,0.1,0
		c0.5-0.3,1.1-0.3,1.6-0.6c0.2-0.2,0.4-0.4,0.7-0.6c0.1-0.1,0.2-0.2,0.3-0.2c0.1,0,0.2,0,0.2-0.1c0.2-0.1,0.4-0.2,0.6-0.1
		c0.1,0.1,0.2-0.1,0.4-0.1c0.5-0.1,1,0,1.4,0.1c0.3,0.1,0.8,0.2,0.9,0.7c0.1,0.3,0.3,0.5,0.5,0.7c0.1,0.1,0.2,0,0.3,0
		c0.1-0.1,0.2-0.1,0.3,0c0.1,0.1,0.2,0.2,0.3,0.3c0.2,0.1,0.4,0.3,0.4,0.6c0,0.2,0.2,0.4,0.4,0.6c0.4,0.3,0.8,0.4,1.2,0.7
		c0.1,0.1,0.2,0.1,0.3,0.1c0.4,0,0.8,0,1.2,0.3c0.2,0.1,0.5,0.2,0.7,0.1c0.3-0.1,0.6,0,0.8,0.2c0.2,0.3,0.5,0.4,0.9,0.4
		c0.3,0.1,0.7,0.2,1,0.3c0.6,0.1,1,0,1.6-0.3c0.4-0.2,0.4-0.6,0.6-0.8c0.1-0.1,0-0.3-0.1-0.3c-0.2-0.1-0.3-0.1-0.5-0.2
		c-0.2-0.1-0.3-0.2-0.1-0.4c0.2-0.2,0.1-0.3-0.1-0.3c-0.2-0.1-0.1-0.2,0-0.2c0.1,0,0.2-0.1,0.2-0.1c0.5,0,1-0.1,1.6-0.1
		c0.9,0,1.8-0.2,2.6-0.1c0.4,0,0.8,0.2,1.2,0.2c0.1,0,0.2,0.2,0.2,0.3c0,0.5,0.3,1,0.2,1.5c0,0.3,0.2,0.4,0.5,0.4c0.2,0,0.4,0,0.6,0
		c0.4,0.1,0.7-0.1,1-0.3c0.9-0.5,2.3-0.2,3,0.4c0.9,0.8,1.9,1.2,3.2,0.8c0.4-0.1,0.9-0.4,1.3-0.5c0.8-0.3,1.6-0.2,2.3,0.3
		c0.5,0.3,1,0.4,1.6,0.7c1.1,0.5,2.1,0.1,3.1-0.2c0.8-0.2,1.6-0.4,2.3-0.7c0.5-0.2,1.1-0.5,1.3-1.2c0.2-0.6,0.4-1.2,0.9-1.6
		c0.4-0.3,0.6-0.8,1.1-1c0.3-0.1,0.6-0.3,0.8-0.5c0.1-0.1,0.2-0.2,0.1-0.4c-0.1-0.7,0.1-1.3,0.2-1.9c0-0.3,0.2-0.6,0.5-0.8
		c0.1-0.2,0.4-0.2,0.5,0c0.2,0.2,0.4,0.1,0.6,0.2c0.2,0.1,0.5,0.2,0.7,0.3c0,0,0.1,0,0.1,0c0.4-0.1,0.9-0.2,1.1-0.5
		c0.3-0.5,0.6-1.1,0.8-1.7c0.2-0.8,0.6-1.6,1.3-2.1c0.2-0.1,0.4-0.4,0.5-0.6c0.2-0.4,0.6-0.6,1-0.8c0.4-0.2,1.3-0.1,1.6,0.2
		c0.6,0.5,1.8,0.8,2.6,0.4c0.3-0.2,0.5-0.4,0.7-0.7c0.3-0.7,0.9-1.1,1.7-1.1c0.6,0,1.1,0.1,1.7,0c0.3,0,0.5-0.2,0.7-0.3
		c0.3-0.2,0.7-0.3,1.1-0.3c0.5,0,1.2,0.5,1.3,1c0.1,0.6,0.4,1.1,0.8,1.6c0.4,0.5,0.8,1.1,0.7,1.8c0,0.3-0.2,0.6-0.5,0.6
		c-0.6,0.1-1,0.5-1.5,0.7c-0.3,0.1-0.6,0.4-0.8,0.6c-0.2,0.3-0.4,0.6-0.4,1c0,0.6,0,1.2-0.2,1.7c-0.2,0.5-1,1-1.5,0.9
		c-0.2-0.1-0.5-0.2-0.6-0.4c-0.2-0.3-0.4-0.5-0.5-0.8c0-0.1-0.1-0.2-0.3-0.2c-0.6-0.1-1.3-0.1-1.9,0c-0.5,0.1-1,0.4-1.4,0.8
		c-0.4,0.4-0.8,0.8-1.1,1.4c-0.1,0.1-0.1,0.3-0.1,0.4c0,0.4-0.2,0.7-0.5,0.9c0,0-0.1,0-0.1,0.1c-0.2,0.4-0.5,0.7-0.4,1.1
		c0,0.3-0.1,0.6-0.1,1c0,0.5,0.1,0.5,0.5,0.5c0.2,0,0.4,0,0.6,0.1c0.1,0,0.3,0,0.4-0.1c0.7-0.4,1.5-0.5,2.3-0.4
		c0.4,0.1,0.7,0,1.1-0.1c0.6-0.1,1.2-0.1,1.7-0.3c0.3-0.1,0.5-0.3,0.8-0.3c0.5-0.1,1.1-0.2,1.6-0.3c0.5-0.1,1-0.1,1.4-0.2
		c0.1,0,0.2,0,0.3,0.1c0.1,0.2,0.3,0.1,0.4,0.1c0.2,0,0.3,0,0.5,0c0.7,0,1.2-0.4,1.3-1.1c0.1-0.3,0.3-0.5,0.5-0.7
		c0.2-0.1,0.5-0.3,0.7-0.4c0.1-0.1,0.1-0.1,0.2-0.1c0.5,0,0.9-0.1,1.4,0c0.1,0,0.3,0,0.4-0.1c0.4-0.1,0.9-0.2,1.4-0.2
		c0.7,0,1.4,0.1,2-0.1c0.3-0.1,0.6-0.2,0.9-0.3c0.5-0.3,1.1-0.3,1.7-0.1c0.5,0.1,0.8-0.1,1.2-0.2c0.5,0,1-0.3,1.6-0.4
		c0.5-0.1,1.1-0.1,1.7-0.2c0.8-0.1,1.7-0.3,2.4-0.8c0.4-0.3,0.9-0.5,1.4-0.7c0.2-0.1,0.4-0.2,0.6-0.4c0.7-0.5,1.5-0.7,2.3-0.5
		c0.7,0.2,1.4,0,2-0.4c0.4-0.3,0.8-0.7,1.2-1c0.2-0.2,0.4-0.3,0.7-0.3c0.2,0,0.3-0.1,0.4-0.1c0.4-0.1,0.8-0.3,1.3-0.3
		c0.3,0,0.5-0.1,0.7-0.2c0.3-0.3,0.8-0.4,1.2-0.7c0.5-0.3,0.9-0.6,1.2-1.1c0.2-0.3,0.4-0.5,0.7-0.7c0.2-0.2,0.4-0.4,0.6-0.6
		c0.2-0.3,0.5-0.5,0.7-0.7c0.1-0.1,0.2-0.3,0.3-0.4c0.1-0.3,0.5-0.4,0.7-0.3c0.5,0.1,0.9,0.3,1.1,0.8c0.1,0.2,0.3,0.3,0.6,0.4
		c0.8,0.1,1.5-0.2,2-0.9c0.3-0.4,0.7-0.6,1.1-0.8c0.3-0.2,0.5-0.3,0.8-0.5c0.3-0.2,0.6-0.3,0.9-0.3c0.5,0,1.1-0.1,1.6-0.3
		c0.2-0.1,0.3-0.2,0.4-0.3c0.4-0.7,0.6-1.4,0.5-2.2c-0.1-0.4-0.1-0.9-0.1-1.3c0-0.8,0-0.8-0.8-0.9c-0.3,0-0.5,0-0.8,0
		c-0.5,0.1-1,0-1.5,0c-0.3,0-0.5-0.1-0.8-0.2c-1-0.3-1.2-0.8-1-1.8c0.1-0.3,0.2-0.5,0.3-0.7c0.3-0.4,0.2-0.7-0.1-1
		c-0.4-0.4-0.7-0.8-1.1-1.3c-0.2-0.2-0.3-0.4-0.5-0.5c-0.8-0.4-1.6-0.8-2.4-1.3c-0.5-0.3-1-0.5-1.5-0.5c-0.6-0.1-1-0.4-1.3-0.9
		c-0.2-0.3-0.6-0.5-0.9-0.6c-0.4-0.1-0.7-0.2-1.1-0.4c-0.5-0.4-1.1-0.6-1.6-1.1c-0.6-0.5-1.4-0.9-2.2-1.1c-0.4-0.1-0.9-0.1-1.3-0.2
		c-0.5-0.1-0.9-0.2-1.3-0.6c-0.5-0.4-1-0.6-1.6-0.8c-0.4-0.1-0.8-0.1-1.1,0.4c-0.4,0.5-1,0.8-1.6,0.8c-0.4,0-0.7-0.2-0.8-0.6
		c-0.2-0.6-0.1-1.3-0.1-1.9c0-0.1,0.1-0.2,0.1-0.3c0.1-0.2,0.3-0.4,0.2-0.7c-0.2-0.5-0.3-1-0.8-1.2c-0.4-0.2-0.8-0.1-1.2,0
		c-0.5,0-0.8,0.2-1.1,0.7c-0.3,0.5-0.8,0.9-1.1,1.4c-0.2,0.3-0.6,0.4-0.9,0.6c-0.7,0.4-1.4,0.2-2.1,0.1c-0.6-0.1-1.3-0.3-1.9,0.1
		c-0.4,0.2-0.9,0.2-1.4,0.4c-0.2,0.1-0.4,0.1-0.5,0.2c-0.3,0.3-0.7,0.2-1.1,0.2c-0.1,0-0.2,0-0.2-0.1c-0.2-0.5-0.7-0.6-1.1-0.9
		c-0.4-0.3-0.8-0.5-1-0.9c-0.5-0.8-0.1-1.6,0.8-1.8c0.7-0.1,1.4-0.3,2.1-0.5c0.1,0,0.2-0.1,0.3-0.1c0.3-0.3,0.7-0.4,1.1-0.6
		c0.5-0.2,1-0.5,1.4-0.8c0.1-0.1,0.2-0.1,0.3-0.1c0.3,0,0.5,0,0.8,0c0.3,0,0.6,0,0.9-0.2c0.1-0.1,0.2-0.1,0.3-0.1
		c0.3,0.1,0.6,0,0.9-0.1c0.1-0.1,0.2-0.1,0.3-0.2c0.2-0.3,1-0.4,1.3-0.2c0,0,0,0,0.1,0c0.5,0,0.9,0.4,1.4,0.5
		c0.2,0.1,0.3,0.2,0.6,0.3c0.5,0,0.9-0.1,1.3-0.4c0.2-0.2,0.3-0.2,0.5-0.2c0.5,0,0.8-0.4,1.1-0.6c0.2-0.2,0.4-0.2,0.6-0.4
		c0.2-0.2,0.3-0.4,0.3-0.7c-0.1-0.8,0.3-1.3,1-1.8c0.2-0.1,0.5-0.1,0.7,0c0.3,0.1,0.5,0.1,0.7,0c0.1-0.1,0.2-0.1,0.3,0.1
		c0,0.1-0.1,0.2-0.2,0.2c-0.3,0-0.3,0.2-0.2,0.4c0.2,0.2,0.1,0.3,0,0.5c-0.3,0.3-0.6,0.6-0.9,0.9c-0.3,0.2-0.5,0.4-0.7,0.6
		c0,0-0.1,0.1-0.1,0.1c0,0.6-0.1,1.2,0.1,1.8c0.3,0.8,0.8,1.2,1.7,1.2c1.3,0.1,2.6,0.3,3.8,0.7c0.8,0.3,1.5,0.7,2.3,1
		c0.5,0.2,0.8,0.7,1.2,1.1c0.5,0.5,1,0.9,1.6,1.3c0.5,0.3,1,0.6,1.5,0.9c0.1,0,0.2,0.2,0.2,0.3c0.2,0.4,0.5,0.7,0.7,1
		c0.2,0.3,0.5,0.2,0.7,0.4c0.1,0.1,0.2,0.2,0.3,0.3c0.5,0.5,1,1.1,1.4,1.8c0.1,0.2,0.3,0.4,0.5,0.5c0.7,0.5,1.4,0.9,2.2,1.3
		c0.4,0.2,0.8,0.4,1.1,0.7c0.2,0.2,0.3,0.5,0.5,0.7c0.1,0.4-0.1,0.7-0.2,1c-0.1,0.3-0.2,0.5-0.1,0.8c0.1,0.3,0.3,0.6,0.5,0.9
		c0.4,0.4,0.8,0.8,1.3,1.1c0.2,0.1,0.2,0.3,0.3,0.5c0.1,0.3,0.5,0.5,0.7,0.7c0,0,0.1,0,0.1,0c0.4-0.2,0.8-0.4,0.9-0.7
		c0.3-0.6,0.7-1.1,1-1.6c0.1-0.2,0.4-0.4,0.6-0.6c0.4-0.4,0.6-0.9,0.9-1.4c0.2-0.3,0.4-0.5,0.6-0.6c0.2-0.1,0.3-0.2,0.4-0.5
		c0.1-0.3,0.2-0.5,0.2-0.8c0,0,0-0.1,0-0.1c0.4-0.2,0.2-0.6,0.4-0.9c0-0.1,0-0.2-0.1-0.2c-0.4-0.3-0.4-0.7-0.5-1.1
		c-0.1-0.4-0.3-0.7-0.6-0.9c-0.2-0.2-0.3-0.5-0.2-0.8c0.1-0.2,0-0.4-0.2-0.6c-0.5-0.4-0.7-1-1.2-1.4c-0.2-0.2-0.5-0.4-0.7-0.6
		c-0.4-0.4-0.9-0.8-1-1.5c0-0.2-0.2-0.4-0.4-0.5c-0.2-0.1-0.4-0.3-0.6-0.6c0,0-0.1-0.1-0.1-0.1c-0.4-0.1-0.7-0.5-1.1-0.6
		c-0.5-0.2-1-0.5-1.4-1c-0.3-0.5-0.7-0.9-0.9-1.4c-0.1-0.2-0.3-0.1-0.4-0.1c-0.3,0.1-0.4-0.1-0.5-0.3c0,0,0,0,0,0
		c-0.1-0.5-0.4-0.8-0.8-1c-0.2-0.1-0.3-0.2-0.3-0.4c0-0.1-0.1-0.2-0.1-0.2c-0.3-0.1-0.5-0.4-0.8-0.6c-0.4-0.4-0.7-0.4-1.2-0.3
		c-0.4,0.1-0.9,0.1-1.3-0.2c-0.2-0.2-0.4-0.3-0.6-0.6c-0.1-0.3-0.5-0.5-0.9-0.6c-0.1,0-0.2-0.1-0.2-0.2c0-0.2-0.1-0.3-0.3-0.3
		c-0.2,0-0.5-0.1-0.6-0.3c-0.2-0.4-0.6-0.4-1-0.5c-0.6-0.1-1.2-0.2-1.8-0.2c-0.6,0-1.2,0.1-1.8,0.2c-0.4,0.1-0.6,0.4-0.7,0.7
		c-0.1,0.2,0.1,0.4,0.2,0.6c0.3,0.2,0.4,0.6,0.4,0.9c0,0.3-0.3,0.5-0.6,0.5c-0.5,0-1-0.1-1.2-0.7c0,0,0,0,0,0
		c-0.3-0.4-0.3-0.4,0-0.8c0.2-0.2,0.1-0.6,0.2-0.8c0-0.1-0.2-0.1-0.3-0.1c-0.1,0.2-0.2,0.1-0.3,0c-0.3-0.2-0.5-0.3-0.9-0.2
		c-0.3,0.1-0.5-0.1-0.8-0.1c-0.5,0.1-1,0-1.5-0.1c-0.5-0.1-1-0.1-1.4,0.1c-0.7,0.3-1.4,0.3-2.1,0.5c-1.2,0.3-2.4,0.4-3.6,0.4
		c-0.5,0-0.9,0.3-1.4,0.6c-0.8,0.5-1.7,0.9-2.7,0.9c-0.9,0-1.8,0.2-2.7,0.3c-0.6,0.1-1.1,0.2-1.7,0c-0.1,0-0.3,0-0.5-0.1
		c-0.8-0.1-1.3-0.7-1.7-1.3c-0.5-0.9-1.1-1.6-2-2.1c-0.6-0.4-1.2-0.8-1.9-1c-0.7-0.2-1.1,0.1-1.4,0.7c0,0.1-0.1,0.1-0.2,0.2
		c-0.3,0.2-0.4,0.4-0.4,0.8c0,0.2,0,0.5,0,0.7c-0.1,0.3,0.2,0.6,0.5,0.7c0.4,0.2,0.8,0.5,1,0.9c0.1,0.1,0.2,0.2,0.3,0.4
		c0.3,0.4,0.2,0.9-0.3,1.1c-0.4,0.1-0.7,0.3-1.1,0.4c-0.3,0.1-0.7,0.2-1.1,0.2c-0.6,0.1-1.1-0.2-1.5-0.6c-0.3-0.3-0.6-0.5-0.7-0.9
		c0-0.1-0.1-0.1-0.2-0.2c-0.4-0.2-0.6-0.5-0.8-0.8c-0.2-0.3-0.6-0.4-0.8-0.7c-0.2-0.2-0.3-0.5-0.6-0.6c-0.5-0.3-1.1-0.5-1.7-0.2
		c-0.4,0.2-0.8,0.1-1.2,0.2c-0.1,0-0.3,0-0.4,0c-1.2,0.1-2.2-0.2-3.2-0.8c-0.2-0.1-0.3-0.1-0.5-0.2c-0.3-0.2-0.4-0.4-0.4-0.7
		c0-0.1,0-0.2,0-0.2c-0.3,0-0.3-0.4-0.5-0.4c-0.1,0-0.2-0.1-0.2-0.3c0.1-0.3-0.1-0.4-0.3-0.4c-0.1,0-0.2,0.1-0.2-0.1
		c0-0.1,0.1-0.3,0.3-0.2c0.2,0.1,0.3,0,0.4-0.2c0.1-0.2,0.3-0.5,0.6-0.4c0.1,0,0.2,0,0.2-0.1c0-0.1-0.1-0.2-0.2-0.2
		c-0.3,0-0.4-0.2-0.4-0.4c-0.2-0.5-0.4-0.9-0.2-1.4c0.1-0.2-0.1-0.5-0.4-0.5c-0.2,0-0.4-0.2-0.6-0.2c-0.4-0.1-0.8-0.3-1.2-0.2
		c-0.1,0-0.2,0-0.4,0c-0.5-0.1-1.1,0-1.6,0.2c-0.7,0.2-1.1,0.6-1.5,1.1c-0.2,0.3-0.5,0.5-0.7,0.8c-0.1,0.3-0.5,0.2-0.8,0.3
		c-0.5,0-1,0-1.5,0c-0.1,0-0.2,0-0.3,0c-0.7-0.2-1.4-0.2-2,0.1c-0.8,0.3-1.4,0.8-2,1.4c0,0-0.1,0.1-0.1,0.1
		c-0.5,0.1-0.8,0.6-1.1,0.9c-0.2,0.2-0.4,0.3-0.7,0.2c-0.1,0-0.3,0-0.4,0c-0.3,0.1-0.6,0-0.8-0.2c0,0-0.1-0.1-0.2-0.1
		c-0.3,0.3-0.6,0-0.9,0c-0.1,0-0.2,0-0.2,0.1c-0.5,0.4-1,0.7-1.6,1.1c-0.5,0.3-1,0.6-1.6,0.6c-0.6,0-1.2-0.1-1.8,0.1
		c-0.2,0.1-0.3,0.1-0.2,0.3c0,0.2,0,0.3-0.1,0.4c-0.2,0.2-0.2,0.5-0.2,0.7c-0.1,0.3-0.4,0.5-0.7,0.5c-0.2,0-0.4,0.1-0.5,0
		c-0.3-0.1-0.5,0-0.8,0.1c-0.9,0.3-1.8,0.7-2.8,1c-0.6,0.2-1.2,0.1-1.8,0.1c-0.7,0-1.3-0.4-2-0.6c-0.2-0.1-0.4-0.2-0.5-0.3
		c-0.8-0.7-1.7-1.4-2.5-2c-0.5-0.3-1.1-0.5-1.5-0.9c-0.2-0.1-0.4-0.2-0.5-0.4c-0.3-0.5-0.9-0.7-1.3-1c-0.7-0.5-1.5-1-2.3-1.5
		c-0.9-0.5-1.6-1.3-2.5-1.8c-0.5-0.3-1-0.7-1.7-0.8c-0.3-0.1-0.5,0.1-0.6,0.3c-0.4,0.6-1.1,1-1.6,1.5c-0.3,0.2-0.5,0.4-0.9,0.4
		c-0.3,0-0.6,0-0.9,0c-0.6,0-1-0.1-1.4-0.6c-0.2-0.4-0.8-0.3-1.2,0c-0.5,0.5-1,0.9-1.7,1.2c-0.7,0.2-1.3,0.2-1.9,0.1
		c-0.2,0-0.4-0.2-0.6-0.4c-0.3-0.5-0.6-1-0.7-1.6c0-0.4-0.1-0.7,0.2-1c0.2-0.2,0.3-0.5,0.3-0.8c0-0.2,0.1-0.4,0.2-0.6
		c0.1-0.3,0.2-0.7,0.3-1c0.1-0.4-0.1-0.6-0.5-0.7c-0.5-0.1-1.1-0.1-1.6,0c-0.4,0.1-0.8-0.1-1.1-0.1c-0.5,0-1,0.1-1.6,0.3
		c-0.8,0.3-1.6,0.6-2.4,0.8c-0.2,0-0.3,0.1-0.5,0.3c-0.2,0.3-0.6,0.4-0.9,0.5c-0.4,0.1-0.7,0.3-0.9,0.6c-0.1,0.2-0.3,0.3-0.5,0.4
		c-0.3,0.1-0.5,0.3-0.8,0.5c-0.6,0.4-1.3,0.7-2.1,1c-0.7,0.2-1.4,0.4-2.1,0.6c-0.5,0.2-1.1,0.5-1.4,1.1c-0.3,0.5-0.7,0.9-1,1.4
		c-0.4,0.6-0.9,1.1-1.2,1.8c-0.3,0.6-0.7,1.2-0.8,1.9c0,0.1-0.1,0.2-0.1,0.3c-0.5,0.5-0.6,1.1-0.8,1.7c-0.2,0.4-0.4,0.7-0.6,1
		c-0.3,0.4-0.5,0.9-0.6,1.4c-0.4,1.3-0.7,2.7-1.5,4c-0.2,0.3-0.4,0.6-0.6,0.9c-0.3,0.6-0.5,1.2-0.5,1.8c0,0.8-0.1,1.5-0.1,2.3
		c0,0.1,0,0.3,0.1,0.4c0.2,0.7,0.1,1.5,0.2,2.2c0.1,0.4,0.2,0.8,0.4,1.1c0.3,0.6,0.5,1.2,0.5,1.8c0,0.2,0.1,0.3,0.1,0.4
		c0.2,0.5,0.4,1,0.6,1.6c0,0.1,0.1,0.2,0.1,0.2c0.1,0.7,0.4,1.2,0.8,1.7c0.1,0.2,0.2,0.4,0.3,0.6c0.1,0.3,0.4,0.5,0.6,0.7
		c0.3,0.2,0.7,0.5,0.9,0.8c0.2,0.3,0.5,0.5,0.8,0.7c0.6,0.4,1,1,1.4,1.5c0.3,0.4,0.6,0.7,1,1c0.4,0.3,0.7,0.7,1.2,1
		c0.6,0.4,1.1,1,1.6,1.4c0.2,0.1,0.3,0.3,0.5,0.5c0.7,0.5,1.3,1,1.8,1.7c0,0.1,0.1,0.1,0.2,0.2c0.4,0.2,0.6,0.5,0.9,0.8
		c0,0,0.1,0.1,0.1,0.1c0.5,0.1,0.9,0.5,1.4,0.5c0.2,0,0.3,0.1,0.4,0.2c0.1,0.1,0.3,0.1,0.4,0c0.4-0.3,0.9-0.5,1.3-0.9
		c0.1-0.1,0.2-0.2,0.1-0.3c0-0.5,0.3-1,0.3-1.5c0-0.2,0.2-0.3,0.3-0.5c0.1-0.1,0.1-0.5,0.5-0.3c0,0,0.1,0,0.1,0
		c0-0.4,0.4-0.4,0.7-0.6c0.1-0.1,0.2-0.2,0.1-0.3c0-0.1,0-0.2,0.1-0.2c0.1-0.1,0.1,0,0.2,0c0.1,0.1,0.2,0.2,0.1,0.3
		c-0.1,0.1,0,0.2,0,0.4c0.1,0.2,0.1,0.4,0,0.6c-0.1,0.2-0.1,0.4-0.1,0.6c0,0.5-0.2,0.9-0.1,1.4c0,0.7-0.3,1.3-0.1,2
		c0,0.2,0.1,0.3,0.2,0.5c0.1,0.2,0.2,0.4,0.4,0.5c0.3,0.3,0.6,0.3,1,0.3c0.4,0,0.7,0,1,0.2c0,0.1,0,0.2-0.1,0.2
		c-0.9,0-1.7,0.2-2.6,0c-0.8-0.2-1.6-0.4-2.2-1.1c-0.2-0.3-0.6-0.3-0.9-0.4c-0.5-0.2-1-0.3-1.4-0.7c-0.4-0.3-0.9-0.6-1.3-0.9
		c-0.2-0.1-0.4-0.2-0.5-0.4c0-0.1-0.1-0.2-0.2-0.2c-0.8-0.5-1.3-1.3-2.1-1.7c0,0,0,0,0,0c-0.5-0.6-1.1-0.8-1.7-1.3
		c-0.3-0.2-0.7-0.4-1-0.6c-0.3-0.2-0.5-0.4-0.7-0.6c-0.2-0.3-0.6-0.5-0.8-0.8c-0.1-0.1-0.3-0.3-0.4-0.4c-0.1-0.3-0.3-0.5-0.6-0.6
		c-0.2-0.1-0.2-0.2-0.3-0.4c-0.3-0.4-0.6-0.7-0.8-1.2c0-0.1-0.1-0.1-0.2-0.2c-0.8-0.5-1.6-1-2.2-1.8c-0.6-0.8-0.8-1.7-1-2.6
		c-0.1-0.4-0.2-0.8-0.4-1.2c-0.3-0.8-0.7-1.5-1-2.3c-0.3-0.6-0.6-1.3-0.7-2c-0.1-0.6-0.3-1.3-0.2-1.9c0-0.3,0-0.5,0-0.8
		c0-0.6,0.1-1.3,0.2-1.9c0-0.9,0.2-1.7,0.6-2.5c0.5-1,1-2,1.6-2.9c0.2-0.4,0.4-0.8,0.6-1.2c0.3-0.7,0.7-1.3,1.1-1.9
		c0.3-0.4,0.5-0.8,0.5-1.3c0-0.4,0.3-0.8,0.5-1.1c0.5-1.1,1-2.3,1.5-3.4c0.1-0.3,0.4-0.6,0.6-0.8c0.3-0.3,0.3-0.8,0.6-1.1
		c0.3-0.3,0.5-0.5,0.6-0.9c0.1-0.3,0.5-0.3,0.8-0.5c0.4-0.4,0.9-0.5,1.5-0.6c0.7-0.1,1.3-0.3,1.9-0.7c0.3-0.3,0.8-0.3,1.2-0.4
		c0.1,0,0.2-0.1,0.3-0.1c0.3-0.4,0.7-0.6,1.1-0.8c0.3-0.1,0.5-0.3,0.7-0.5c0.3-0.5,0.9-0.7,1.4-0.9c0.4-0.2,0.9-0.4,1.3-0.7
		c0.1-0.1,0.3-0.1,0.5-0.1c0.4,0,0.9-0.1,1.3-0.2c0.2-0.1,0.4-0.2,0.6-0.3c0.4-0.2,0.9-0.1,1.3-0.2c0.2,0,0.4-0.3,0.7-0.2
		c0.1,0,0.3-0.1,0.4,0.1c0,0,0.1,0,0.2,0c0.7-0.3,1.5-0.5,2.2-0.7c0.8-0.2,1.7-0.2,2.5-0.4c1.3-0.2,2.4,0.2,3.6,0.7
		c0.3,0.1,0.6,0.2,0.8,0.4c0.3,0.1,0.5,0.3,0.7,0.5c0.3,0.3,0.7,0.5,1,0.7c0.4,0.3,0.9,0.5,1.3,0.8c0.2,0.1,0.4,0.3,0.5,0.6
		c0.1,0.2,0.3,0.4,0.5,0.5c0.2,0.1,0.3,0.3,0.4,0.5c0.3,0.4,0.7,0.6,1.1,0.9c0.3,0.3,0.7,0.6,1,1c0.1,0.2,0.2,0.3,0.4,0.4
		c0.5,0.4,1,0.7,1.5,1.1c0.4,0.3,0.9,0.5,1.4,0.7c0.2,0.1,0.4,0.1,0.6,0.2c0.1,0.1,0.2,0.1,0.2,0.2c0.1,0.2,0.3,0.3,0.4,0.3
		c0.6,0.3,1.2,0.7,1.6,1.2c0.3,0.3,0.6,0.6,0.9,0.9c0.4,0.4,0.9,0.8,1.3,1.1c0.6,0.5,1.4,0.7,2.1,0.7c0.1,0,0.2,0,0.3,0
		c0.8,0.2,1.6,0,2.3-0.2c0.6-0.2,1.2-0.3,1.7-0.7c0.5-0.4,1.1-0.8,1.6-1.3c0.5-0.4,1-0.8,1.6-1.1c0.4-0.2,0.8-0.2,1.2-0.2
		c0.7,0,1.2-0.4,1.8-0.7c0.5-0.3,0.8-0.7,1.2-1c0.4-0.4,0.9-0.9,1.5-1.1c0.6-0.1,1.2-0.2,1.7-0.2c0.8-0.1,1.6,0,2.3-0.1
		c0.3,0,0.6-0.2,0.9-0.1c0.1,0,0.2-0.1,0.2-0.2c0.1-0.3,0.3-0.3,0.5-0.3c0.4-0.1,0.8-0.3,1.2-0.5c0.2-0.1,0.4-0.2,0.7-0.1
		c0.2,0.1,0.4,0.1,0.5,0c0.8-0.4,1.6-0.3,2.4-0.4c1.1-0.2,2.1-0.3,3.2-0.3c0.6,0,1.2,0,1.8,0c0.5,0,0.9,0,1.4-0.1
		c0.6,0,1.1,0.1,1.7,0.1c0.6,0,1.3,0,1.9,0c0.3,0,0.6,0.1,0.9-0.1c0.1-0.1,0.3,0,0.4,0c0.8,0,1.6,0.3,2.4,0.4c0.3,0,0.5,0.2,0.7,0.5
		c0.1,0.2,0.2,0.3,0.4,0.1c0,0,0.1-0.1,0.1,0c0.3,0.2,0.8,0,1.1,0.2c0.1,0.1,0.2,0.1,0.3,0.1c0.3,0,0.5,0,0.8,0.1
		c0.2,0.1,0.4,0,0.6,0c0.4,0,0.8,0.1,1.2,0.2c0,0,0.1,0,0.1,0c0.6-0.1,1,0.3,1.5,0.5c0.4,0.1,0.7,0.5,0.9,0.8
		c0.4,0.5,0.8,0.8,1.3,1.1c1.1,0.7,2,1.7,2.9,2.6c0.3,0.3,0.5,0.6,0.7,1c0.6,0.8,1.3,0.9,2.2,0.7c1-0.2,2.1-0.4,3.2-0.4
		c0.3,0,0.5-0.2,0.7-0.2c0.7-0.2,1.3-0.5,1.9-0.7c0.4-0.2,0.7-0.4,1.1-0.5c0.6-0.1,1.1-0.2,1.7-0.1c0.3,0.1,0.6,0.1,0.9-0.1
		c0.3-0.1,0.6,0,0.9-0.1c0.8-0.3,1.5-0.7,2.2-1c0.6-0.2,1.2-0.3,1.8-0.2c0.4,0.1,0.7,0.2,1.1,0c0.2-0.1,0.4,0.1,0.6,0
		c0.8-0.1,1.7,0,2.4-0.3c0.7-0.3,1.5-0.4,2.3-0.4c0.6,0,1.2-0.1,1.8-0.1c0.3,0,0.6,0,0.9,0.1c0.3,0.1,0.5,0.2,0.7,0.4
		c0.3,0.3,0.7,0.6,1,0.9c0.3,0.3,0.7,0.5,1.2,0.5c0.5,0,0.9,0.2,1.2,0.5c0.9,0.8,1.6,1.7,2.6,2.5c0.5,0.4,0.9,0.8,1.3,1.3
		c0.2,0.3,0.6,0.5,0.8,0.9c0.4,0.5,0.8,0.8,1.3,1.2c0.6,0.5,1.1,1.2,1.8,1.6c0.3,0.2,0.5,0.4,0.8,0.6c0.1,0,0.1,0.1,0.2,0.2
		c0.1,0.2,0.2,0.4,0.5,0.5c0.3,0.2,0.5,0.4,0.7,0.6c0.3,0.5,0.9,0.9,1.4,1.3c0.7,0.5,1.4,0.9,1.8,1.7c0,0.1,0.1,0.1,0.1,0.1
		c0.6,0.2,0.8,0.9,1.3,1.2c0.1,0.1,0.2,0.2,0.3,0.3c0.1,0.2,0.3,0.5,0.6,0.6c0.5,0.3,0.5,0.8,0.4,1.3c0,0.2,0,0.3,0,0.5
		c0.1,0.2,0.1,0.4,0.1,0.5c0,0.6,0,1.2-0.2,1.8c0,0.1,0,0.1,0,0.2c0.2,0.5,0.1,1.1,0.2,1.6c0.1,0.4,0,0.8-0.2,1.2
		c-0.3,0.5-0.7,1-1,1.5c-0.4,0.5-0.6,1.1-0.7,1.6c-0.1,0.4-0.2,0.8-0.5,1.1c-0.2,0.3-0.5,0.4-0.8,0.6c-0.5,0.2-0.8,0.5-1,1
		c-0.4,0.9-0.8,1.9-1.3,2.7c-0.4,0.5-0.8,0.9-1.2,1.4c-0.4,0.5-0.9,0.8-1.4,1.3c-0.3,0.3-0.6,0.7-0.9,1.1c-0.2,0.2-0.4,0.4-0.6,0.6
		c-0.5,0.2-1,0.5-1.4,0.9c0,0-0.1,0.1-0.1,0.1c-0.5,0-0.9,0.4-1.4,0.5c-0.7,0.2-1.3,0.2-2,0.3c-0.5,0.1-1.1,0.2-1.6,0.4
		c-0.2,0.1-0.3,0.2-0.5,0.4c-0.4,0.3-0.9,0.5-1.2,0.8c-0.4,0.4-0.8,0.5-1.3,0.6c-0.3,0.1-0.5,0.1-0.7,0.3c-0.1,0.1-0.2,0.1-0.3,0.1
		c-0.3,0-0.6,0.1-0.8,0.3c-0.1,0.1-0.2,0.2-0.3,0.1c-0.3-0.1-0.6,0.1-0.9,0.1c-0.4,0-0.9,0.1-1.3,0.2c-0.5,0.1-1,0.1-1.5,0.2
		c-0.6,0.2-1.2,0.1-1.8,0.2c-0.1,0-0.2-0.1-0.2-0.1c-0.4-0.4-0.9-0.6-1.4-0.7c-0.7-0.2-1.4,0.1-2.1,0.3c-0.4,0.2-0.9,0.4-1.3,0.7
		c-0.4,0.3-0.8,0.4-1.3,0.5c-0.3,0.1-0.7,0.1-1.1,0.1c-0.3,0.1-0.5,0.1-0.8,0.1c-0.6,0.1-1.2,0.1-1.8,0.2c-0.5,0.1-0.9,0.1-1.4,0.1
		c-0.1,0-0.3,0-0.4,0c-0.6,0.1-1.2,0.1-1.7,0.5c-0.6,0.4-1.4,0.6-2.1,0.6c-0.5,0-1,0.3-1.5,0.3c-0.1,0-0.3,0.1-0.4,0.2
		c-0.3,0.3-0.6,0.3-0.9,0.1c-0.1,0-0.1,0-0.1,0c-0.9,1-2.1,1.5-3.4,1.7c-0.7,0.1-1.3,0.4-1.9,0.6c-0.8,0.2-1.6,0.2-2.4-0.1
		c-0.4-0.1-0.9-0.2-1.4-0.3c-0.4-0.1-0.8,0.1-1.2,0.2c-0.8,0.2-1.6,0.3-2.3,0.6c-0.5,0.2-1,0.3-1.5,0.6c-0.3,0.3-0.7,0.2-1.1,0.3
		c-0.8,0.2-1.6,0.1-2.4,0c0,0-0.1,0-0.1,0c-0.7,0.2-1.3,0-2,0c-0.6,0-1.2-0.2-1.7-0.3c-0.4-0.1-0.7-0.4-1.1-0.5
		c-0.8-0.2-1.7-0.2-2.5,0c-1,0.2-2,0.2-2.9,0c-0.7-0.2-1.4-0.2-2.1,0c-1,0.3-2,0.6-3.1,0.5c-0.6-0.1-1.1-0.3-1.7-0.4
		c-0.6-0.2-1.2-0.2-1.7-0.2c-0.7-0.1-1.4,0-2.2,0c-0.8,0-1.5-0.1-2.3-0.3c-0.4-0.1-0.8-0.2-1.3-0.1c-0.2,0-0.5,0-0.8,0
		c-0.4,0.1-0.7,0.2-1,0.3c-0.5,0.1-0.9,0.3-1.4,0.2c-0.1,0-0.2,0-0.3,0c-0.3,0.3-0.8,0.3-1.1,0.5c-0.1,0.1-0.8-0.1-0.8-0.2
		c-0.3-0.4-0.6-0.4-1-0.2c-0.2,0.1-0.4,0.1-0.6,0c-0.3-0.1-0.6-0.2-0.9-0.4c-0.2-0.1-0.3-0.1-0.5,0c-0.1,0-0.2,0-0.3,0
		c-0.9-0.2-1.9-0.2-2.8-0.2c-0.5,0-1.1,0-1.6-0.2c-0.4-0.1-0.8-0.1-1.3-0.2c-0.6-0.1-1.2-0.3-1.8-0.4c-0.5-0.1-1-0.1-1.5-0.1
		c-0.9,0-1.8-0.2-2.6-0.5c0,0-0.1,0-0.1,0c-0.5-0.7-1.3-0.8-2-1.3c-0.5-0.3-1.1-0.4-1.7-0.6c-0.6-0.2-1.2-0.4-1.7-0.8
		c-0.3-0.2-0.7-0.4-1.1-0.4c-0.5,0-0.9-0.2-1.4-0.4c-0.5-0.2-1-0.4-1.4-0.7c-0.2-0.1-0.4-0.1-0.5-0.1c-0.7,0-1.1-0.6-1.7-0.8
		c-0.3-0.1-0.5-0.2-0.8-0.4C250.4,445.9,249.9,445.9,249.4,445.9z M347.5,418.3c0.2,0,0.3,0,0.5,0c0.3,0,0.4-0.2,0.3-0.4
		c-0.1-0.3-0.2-0.6-0.4-0.8c-0.3-0.3-0.6-0.6-1-0.8c-0.6-0.4-1.3-0.6-2.1-0.5c-0.3,0-0.6,0.2-0.8,0.5c-0.1,0.2,0,0.5,0.1,0.7
		c0.5,0.6,1.1,1.2,2,1.3C346.5,418.3,347,418.3,347.5,418.3z"/>
	<path class="st3" d="M233.1,411.5c0,0.2,0,0.5,0,0.8c-0.1,0.5-0.3,0.9-0.6,1.4c-0.3,0.6-0.2,1.2-0.2,1.7c0,0.1,0,0.1,0.1,0.1
		c0.5,0.3,1.1,0.5,1.7,0.3c0.2-0.1,0.4-0.2,0.5-0.4c0.2-0.6,0.4-1.2,0.6-1.9c0.1-0.3,0.2-0.6,0.5-0.8c0.4-0.3,0.7-0.8,1.1-1.1
		c0.3-0.3,0.4-0.7,0.5-1.1c0.2-0.6,0.4-1.3,0.4-1.9c0-0.3,0.1-0.6,0.3-0.9c0.2-0.4,0.2-0.8,0.4-1.2c0.1-0.2,0.2-0.4,0.2-0.5
		c0,0,0-0.1,0-0.1c0.2-0.2,1.2-0.2,1.4,0.1c0.1,0.3,0.3,0.5,0.5,0.6c0.3,0.2,0.4,0.7,0.8,0.9c0.2,0.1,0.3,0.2,0.5,0.1
		c0.6-0.2,1.1-0.6,1.6-1c0.2-0.1,0.2-0.4,0.3-0.6c0-0.2,0-0.4,0.1-0.6c0-0.3,0.1-0.6,0.5-0.5c0.1,0,0.2,0,0.3-0.2
		c0.1-0.1-0.1-0.2-0.2-0.2c0,0-0.1-0.1-0.1-0.1c0.3-0.3-0.1-0.8,0.4-1.1c0.2-0.1,0.3-0.3,0.4-0.5c0.1-0.3,0.4-0.3,0.7-0.5
		c0.2-0.1,0.5-0.2,0.8-0.3c0.2,0,0.5-0.1,0.6,0.2c0,0,0.1,0.1,0.1,0.1c0.7,0.2,0.8,0.7,0.9,1.3c0,0.5,0.3,0.7,0.5,1
		c0.1,0.1,0.2,0.2,0.3,0.2c0.3,0.2,0.3,0.8,0,1c-0.1,0.1-0.7,0.1-0.9-0.1c-0.2-0.2-0.5-0.3-0.7-0.4c-0.7-0.3-1.4-0.3-2-0.5
		c-0.3-0.1-0.3,0.2-0.5,0.3c-0.1,0.1-0.1,0.2,0,0.3c0.1,0.2,0.2,0.4,0.2,0.6c0.1,0.3,0.3,0.6,0.5,0.9c0.4,0.4,0.8,0.8,1.3,1.2
		c0.1,0.1,0.2,0.2,0.4,0.2c0.7,0.2,1.4,0.4,2-0.1c0.2-0.2,0.5-0.3,0.8-0.2c0.2,0,0.3,0,0.5-0.1c0.5-0.1,1-0.1,1.4,0.3
		c0.2,0.2,0.5,0.3,0.8,0.3c1.3,0.1,2.2,0.7,2.8,1.8c0.5,0.8,0.1,1.2-0.6,1.8c-0.4,0.3-0.9,0.6-1.3,0.9c-0.4,0.3-0.3,0.6-0.1,1
		c0.4,0.5,0.9,0.9,1.5,1c0.4,0.1,0.5,0.4,0.5,0.8c0,0.3,0.1,0.6,0,0.9c-0.2,0.5-0.4,1-0.9,1.2c-0.3,0.2-0.7,0.3-1.1,0.4
		c-0.8,0.2-1.7,0.3-2.4,0.8c-0.1,0-0.1,0.1-0.2,0.1c-0.3,0.1-0.5,0.3-0.6,0.6c-0.1,0.4,0.1,0.6,0.4,0.8c0.2,0.2,0.5,0.3,0.7,0.6
		c0.2,0.4,0.3,0.8,0.4,1.3c0,0.4,0,0.9,0,1.3c0,0.6,0.2,1.1,0.4,1.6c0.1,0.2,0.3,0.3,0.5,0.5c0.1,0.1,0.3,0.2,0.3,0.4
		c0,0.1,0.1,0.1,0.3,0.1c0.7,0.1,1.4-0.1,2-0.6c0.5-0.3,0.9-0.7,1.3-1c0.3-0.3,0.4-0.7,0.4-1.1c0-0.5,0.1-1,0-1.5
		c0-0.1,0.1-0.4,0.2-0.5c0.3-0.7,0.5-1.4,1.2-1.9c0.3-0.2,0.5-0.5,0.8-0.8c0.1-0.1,0.1-0.3,0-0.4c-0.2-0.3-0.1-0.6,0.1-0.9
		c0.1-0.2,0.4-0.1,0.5,0.1c0.2,0.4,0.2,0.7,0.2,1.1c-0.1,0.5,0.1,0.9,0.4,1.2c0.3,0.3,0.4,0.6,0.6,0.9c0.1,0.2,0.2,0.5,0.4,0.6
		c0.3,0.1,0.7,0.2,1.1,0.2c0.8-0.1,1.6-0.5,2.2-1.1c0.9-0.8,1.9-0.4,2.2,0.6c0.2,0.6,0.5,1.1,0.7,1.6c0.2,0.3,0.3,0.7,0.1,1
		c-0.2,0.3-0.8,0.4-1.1,0.3c-0.2-0.1-0.4-0.1-0.6-0.2c-0.2-0.1-0.5-0.2-0.7,0c-0.2,0.2-0.3,0.5-0.3,0.8c0,0.6,0.3,1,0.6,1.5
		c0.4,0.5,0.6,1.1,1,1.6c0.1,0.1,0.2,0.2,0.3,0.1c0.2-0.1,0.5-0.1,0.8-0.2c0.5-0.2,0.9-0.5,1.3-0.6c0.5-0.2,1.1-0.1,1.6-0.2
		c0.7-0.1,1.5,0,2.3-0.1c0.5-0.1,1-0.2,1.5-0.3c0.2-0.1,0.5-0.1,0.7-0.1c0.8-0.1,1.3-0.5,1.9-1c0.2-0.2,0.4-0.5,0.4-0.8
		c0.1-0.7,0.4-1.2,0.9-1.7c0.4-0.3,0.6-0.7,1-0.9c0.3-0.2,0.6-0.2,1,0c0.7,0.3,1.3,0.8,2.1,1c0.4,0.1,0.8,0.2,1,0.5
		c0.2,0.3,0.4,0.7,0.6,1c0.1,0.3-0.1,0.5-0.3,0.7c-0.3,0.2-0.6,0.5-0.8,0.7c-0.5,0.6-1,1.2-1.7,1.5c-0.3,0.1-0.5,0.4-0.8,0.6
		c-0.4,0.2-0.8,0.4-1.2,0.4c-1,0.1-1.7,0.6-2.3,1.4c-0.1,0.2-0.3,0.3-0.5,0.4c-0.5,0.3-0.9,0.7-1.3,1.1c-0.2,0.2,0,0.7,0.4,0.7
		c0.2,0,0.5,0,0.7-0.1c0.5-0.2,0.9-0.2,1.4-0.2c0.4,0,0.8,0.5,0.8,0.9c0,1-0.3,1.9-0.9,2.6c-0.6,0.7-0.7,1.5-0.4,2.3
		c0.1,0.4,0.3,0.8,0.7,1.2c0.2,0.2,0.4,0.6,0.7,0.8c0.2,0.1,0.3,0.1,0.5,0.1c0.7-0.2,1.3-0.5,1.8-0.9c0.3-0.2,0.7-0.2,1-0.3
		c0.1,0,0.3,0.1,0.2,0.2c-0.1,0.4,0.1,0.7,0,1.1c0,0.4-0.2,0.6-0.6,0.7c-0.4,0.1-0.8,0.2-0.9,0.6c-0.1,0.3-0.3,0.3-0.6,0.1
		c-0.2-0.1-0.4-0.1-0.5,0c-0.2,0.3-0.6,0.4-0.8,0.4c-0.5,0.1-0.8,0.3-1.2,0.6c-0.4,0.2-0.7,0.3-1.2,0.4c-0.8,0-1.7,0-2.4-0.4
		c-0.2-0.1-0.4-0.3-0.6-0.5c-0.2-0.3-0.6-0.5-0.9-0.7c-0.2-0.2-0.5-0.3-0.8-0.4c-0.3-0.1-0.5-0.1-0.8,0c-0.2,0.1-0.3,0-0.4-0.2
		c-0.1-0.4-0.2-0.8,0-1.2c0.2-0.3,0.3-0.7,0.5-1c0.1-0.1,0-0.2,0.1-0.2c0-0.4-0.1-0.7-0.1-1.1c0-0.1-0.1-0.2-0.2-0.2
		c-0.5-0.2-0.8-0.6-1.2-0.8c-0.3-0.2-0.5,0-0.7,0.1c-0.2,0.1-0.1,0.3-0.1,0.4c0.1,0.4-0.1,0.8-0.4,1.1c-0.3,0.3-0.6,0.5-0.7,0.9
		c0,0.1-0.1,0.1-0.2,0.2c-0.2,0.3-0.6,0.5-0.7,0.8c0,0.1-0.1,0.1-0.2,0.1c-0.4,0.2-0.5,0.7-0.3,1.1c0.1,0.2,0.3,0.2,0.5,0.1
		c0.7-0.1,1.4,0,2,0.4c0.1,0.1,0.2,0.2,0.1,0.4c-0.1,0.4-0.2,0.8-0.5,1.2c-0.3,0.4-0.7,0.6-1.2,0.8c-0.6,0.2-1.2,0.2-1.9,0.1
		c-0.2,0-0.3-0.1-0.4-0.2c-0.4-0.2-0.7-0.4-1.2-0.2c-0.3,0.2-0.8,0.1-1.1,0.1c-0.2,0-0.5,0-0.7,0.1c-0.4,0.1-0.8,0-1.2,0
		c-0.3,0-0.8-0.7-0.8-1.1c0-0.4-0.1-0.7-0.2-1.1c-0.1-0.2,0-0.3,0-0.5c0.1-0.2,0.1-0.4-0.1-0.5c-0.2-0.2,0-0.4,0-0.6
		c0-0.3,0.1-0.6,0.2-0.9c0.1-0.2,0-0.5-0.1-0.7c-0.1-0.2-0.2-0.3-0.2-0.5c0-0.2-0.2-0.3-0.4-0.3c-0.4,0-0.7-0.2-1-0.4
		c-0.8-0.8-1.7-1-2.8-0.8c-0.4,0.1-0.8,0.1-1.2,0.1c-0.2,0-0.5-0.2-0.7-0.4c-0.3-0.2-0.5-0.4-0.6-0.8c-0.1-0.6-0.6-1-1.4-0.9
		c-1,0-2.1-0.2-3.1-0.4c-0.3-0.1-0.7-0.1-1-0.2c-0.4,0-0.7-0.6-0.6-0.9c0.2-0.6,0.5-1.3,0.8-1.8c0.2-0.3,0.4-0.6,0.8-0.7
		c0.8-0.2,1.7-0.6,2.6-0.5c0.7,0.1,1.4,0,2.1,0.3c0.4,0.2,0.4,0.1,0.5-0.3c0.1-0.1,0.1-0.3,0.2-0.4c0.2-0.6,0.1-1.2-0.2-1.8
		c0-0.1-0.1-0.1-0.1-0.2c-0.1-0.2-0.2-0.3-0.5-0.2c-0.3,0.1-0.6,0.1-0.9-0.2c-0.5-0.5-1.1-0.9-1.6-1.3c-0.2-0.2-0.4-0.4-0.5-0.7
		c-0.5-0.9-0.7-1.9-1.1-2.9c-0.2-0.5-0.8-0.9-1.3-0.9c-0.7-0.1-1.3,0.2-2,0.4c-0.5,0.2-0.6,0.9-0.5,1.3c0.1,0.5,0.1,1,0,1.6
		c-0.1,0.6-0.1,1.2-0.3,1.8c-0.1,0.5,0,1,0.2,1.5c0.2,0.6,0,1.1-0.2,1.6c-0.3,0.8-0.8,1.5-1.4,2.2c-0.3,0.3-0.8,0.4-1.2,0.3
		c-0.6-0.2-1.1-0.1-1.6,0.2c-0.4,0.3-0.7,0.8-0.8,1.3c0,0.2-0.2,0.5,0,0.8c0.1,0.2,0.3,0.3,0.5,0.3c0.2,0,0.4,0.1,0.6,0.2
		c0.2,0.1,0.4,0.1,0.6,0c0,0,0.1-0.1,0.1-0.1c0.6,0,0.8-0.5,1.2-0.9c0.1-0.1,0.2-0.2,0.3-0.2c0.1,0,0.2-0.1,0.3-0.2
		c0.3-0.4,0.7-0.3,1.1-0.3c0.7,0,1.2,0.3,1.8,0.5c0.2,0.1,0.4,0.3,0.4,0.5c0.1,0.7,0.3,1.4-0.1,2.1c-0.1,0.2-0.3,0.3-0.5,0.4
		c-0.1,0-0.2,0-0.2,0.1c-0.4,0.4-1,0.4-1.5,0.6c-0.6,0.3-1.2,0.4-1.8,0.6c-0.6,0.2-0.6,0.7-0.7,1.2c-0.1,0.4,0.1,0.7,0.5,0.9
		c0.4,0.2,0.5,0.6,0.6,1c0.1,0.3,0.2,0.7,0.3,1.1c0.1,0.4-0.2,0.8-0.6,0.8c-0.2,0-0.4,0-0.6,0c-0.2,0-0.4-0.2-0.6-0.3
		c-0.4-0.2-0.7-0.3-1.1-0.5c-0.2-0.1-0.3-0.2-0.4-0.3c-0.2-0.2-0.3-0.5-0.6-0.6c-0.2-0.1-0.2-0.4-0.3-0.6c-0.1-0.3-0.3-0.6-0.6-0.8
		c0,0,0,0,0,0c-0.5-0.8-1.4-1.2-2.1-1.7c-0.8-0.5-1.4-1.2-2-1.8c-0.6-0.7-1.3-1.2-2-1.8c-0.5-0.4-1.1-0.9-1.5-1.4
		c-0.4-0.4-0.4-0.8-0.3-1.3c0-0.1,0.1-0.3,0-0.4c-0.2-0.4-0.4-0.8-0.6-1.1c-0.2-0.2-0.3-0.4-0.3-0.6c0-0.2-0.1-0.5-0.2-0.7
		c-0.2-0.5-0.4-1.1-0.5-1.6c0-0.2-0.1-0.4-0.2-0.6c-0.1-0.4,0-0.8,0.1-1.1c0.1-0.5,0.6-0.5,1-0.5c0.5,0,1.1,0,1.6,0.4
		c0.6,0.4,1.2,0.8,1.8,1.2c0.2,0.1,0.4,0.1,0.5,0c0.2-0.2,0.5-0.3,0.6-0.6c0.2-0.3,0.5-0.5,0.6-0.8c0.1-0.1,0.2-0.2,0.3-0.2
		c0.7-0.3,0.9-0.7,0.8-1.3c-0.1-0.5,0-1-0.2-1.5c-0.3-0.6-0.4-1.3-0.8-1.9c-0.1-0.2-0.5-0.2-0.7,0c-0.5,0.5-1.1,0.9-1.7,1.3
		c-0.2,0.2-0.5,0.2-0.7,0.2c-0.8,0.1-1.7,0.2-2.5-0.3c-0.2-0.1-0.5-0.2-0.7-0.3c-0.3-0.2-0.3-0.4-0.3-0.7c0-0.1,0-0.2,0-0.3
		c-0.1-0.2-0.1-0.5-0.1-0.7c0-0.8,0.3-1.5,0.7-2.1c0.2-0.4,0.3-0.8,0.4-1.2c0.2-0.6,0.3-1.3,0.4-2c0-0.2,0-0.5,0.1-0.7
		c0.1-0.6,0.5-1.1,0.8-1.6c0.1-0.2,0.2-0.4,0.3-0.6c0.1-0.5,0.6-0.8,1-1.1c0,0,0.1,0,0.1-0.1c0.6-0.4,0.9-0.2,1,0.5
		C233.1,411,233.1,411.2,233.1,411.5z M240.2,425.1c0-0.5,0-0.9-0.2-1.3c-0.1-0.1-0.1-0.2-0.2-0.2c-0.4,0-0.8,0-1.2,0.1
		c-0.3,0.1-0.6,0.3-0.9,0.4c-0.4,0.2-0.7,0.4-0.7,0.9c0,0.9,0,1.8,0.6,2.5c0.2,0.2,0.4,0.4,0.5,0.7c0,0.2,0.2,0.2,0.4,0.1
		c0.1-0.1,0.2-0.2,0.3-0.3c0.1-0.3,0.3-0.4,0.5-0.5c0.3-0.2,0.5-0.4,0.6-0.7C240.1,426.2,240.3,425.7,240.2,425.1z M250.2,416.1
		c0.1,0,0.2,0,0.3,0c0.9-0.2,1.5-0.8,2-1.6c0.1-0.1,0.3-0.2,0.2-0.4c-0.1-0.2-0.1-0.4-0.2-0.5c-0.4-0.2-0.7-0.5-1.2-0.6
		c-0.5-0.1-0.8,0-1,0.4c-0.3,0.7-0.6,1.3-0.6,2.1C249.7,415.8,250,416.1,250.2,416.1z M266.3,429.9c0-0.1,0-0.2-0.1-0.3
		c0,0-0.1,0-0.1,0c-0.4,0.3-0.9,0.5-1.3,0.9c-0.3,0.3-0.6,0.5-0.9,0.6c-0.3,0.1-0.4,0.4-0.5,0.6c0,0.2,0,0.3,0,0.5
		c0,0.4,0.2,0.5,0.6,0.6c0.3,0.1,0.5-0.1,0.7-0.3c0.1-0.2,0.2-0.3,0.4-0.5C265.8,431.5,266.1,430.7,266.3,429.9z M238,430.2
		C238,430.1,238,430.1,238,430.2c-0.2-0.1-0.2,0-0.2,0c0,0.1,0,0.1,0.1,0.1C238,430.3,238,430.2,238,430.2z"/>
	<path class="st3" d="M313.9,419.1c-0.6,0-1.3,0.1-1.9,0.1c-0.3,0-0.7,0.4-0.8,0.8c-0.2,0.5,0.2,0.8,0.5,1c0.5,0.4,1,0.6,1.6,0.8
		c0.3,0.1,0.6,0.4,0.9,0.5c0,0,0,0,0.1,0.1c0.1,0.2,0.4,0.1,0.4,0.3c0,0.3,0,0.6-0.1,0.9c-0.3,0.5-0.2,0.9,0,1.4
		c0.1,0.3,0.1,0.7,0.4,0.9c0.1,0.1,0,0.9-0.2,1.1c-0.6,0.6-1.1,1.2-1.6,1.9c-0.3,0.3-0.6,0.7-0.8,1c-0.2,0.3-0.3,0.7-0.3,1.1
		c0,0.4,0,0.7-0.1,1.1c-0.1,0.4-0.3,0.7-0.6,0.8c-0.2,0.1-0.2,0.3-0.3,0.4c-0.2,0.2-0.4,0.5-0.7,0.6c-0.2,0.1-0.4,0.3-0.4,0.6
		c-0.1,0.4-0.2,0.7-0.2,1.1c-0.1,0.8-0.3,1.5-1.2,1.8c-0.5,0.2-0.8,0.5-1,1c-0.4,1-0.9,1.9-1.6,2.7c-0.3,0.3-0.3,0.7-0.3,1.1
		c0,0.4-0.2,0.6-0.5,0.8c-0.3,0.1-0.6,0.2-0.9,0c-0.5-0.4-1.1-0.6-1.5-1.2c-0.2-0.3-0.5-0.3-0.8-0.5c-0.1,0-0.1,0-0.2,0.1
		c-0.1,0.1-0.2,0.2-0.1,0.3c0.2,0.5-0.2,0.9-0.4,1.3c-0.2,0.5-0.4,1-0.6,1.4c-0.3,0.5-0.5,1-1,1.4c-0.3,0.3-0.7,0.5-1,0.9
		c0,0-0.1,0.1-0.1,0.1c-0.5,0-0.8,0.5-1.1,0.8c-0.1,0.1-0.2,0.3-0.2,0.4c0,0,0,0.1,0,0.1c-0.1,0.2-0.1,0.4-0.3,0.4
		c-0.2,0-0.3-0.2-0.3-0.5c-0.1-0.7-0.1-1.5-0.2-2.2c0-0.1,0-0.1-0.1-0.2c-0.4-0.4-0.4-0.9-0.3-1.3c0-0.2,0.1-0.3,0.1-0.5
		c0.1-0.5,0.4-0.8,0.7-1.1c0.5-0.5,0.9-1.1,1.6-1.4c0.4-0.2,0.8-0.2,1.2-0.3c0.7-0.1,1.4,0,2.1-0.1c0,0,0.1,0,0.1,0
		c0.2-0.4,0.6-0.6,0.9-0.9c0.3-0.4,0.7-0.8,0.9-1.3c0.1-0.2,0.3-0.5,0.4-0.7c0.3-0.8,0.9-1.1,1.7-1.2c0.2,0,0.5-0.1,0.7-0.1
		c0.1,0,0.3,0,0.4-0.2c0.3-0.4,0.5-0.8,0.6-1.2c0-0.4,0-0.8-0.1-1.3c-0.1-0.6,0-1.2,0.3-1.8c0.2-0.5,0.4-0.9,0.7-1.3
		c0.1-0.2,0.1-0.5,0.2-0.7c0.1-0.6,0.5-1,0.7-1.6c0.3-0.8,0.1-1.9-0.5-2.4c-0.4-0.3-0.8-0.6-1.3-0.7c-0.2-0.1-0.4-0.2-0.6-0.4
		c-0.2-0.3-0.6-0.3-1-0.4c-0.2-0.1-0.3-0.3-0.3-0.5c0-0.5,0.1-1,0.2-1.5c0.1-0.6,0-1.2-0.5-1.6c-0.1-0.1-0.2-0.2-0.3-0.3
		c-0.3-0.3-0.8-0.4-1.1-0.2c-0.7,0.3-1.3,0.7-2,0.9c-0.3,0.1-0.3,0.3-0.3,0.5c0,0.3-0.1,0.5-0.3,0.7c-0.1,0.2-0.3,0.3-0.5,0.3
		c-0.7,0-1.3,0.2-2-0.1c-0.3-0.1-0.6-0.1-0.8-0.2c-0.2,0-0.3-0.2-0.3-0.4c-0.1-0.9,0.6-1.9,1.5-2.1c0.5-0.1,0.9-0.4,1.1-0.9
		c0.1-0.2,0.2-0.3,0.3-0.5c0.3-0.6,0.2-1.1-0.2-1.5c-0.3-0.3-0.5-0.7-1-0.8c-0.4-0.1-0.8-0.2-1.2,0c-0.5,0.2-1.1,0.4-1.7,0.2
		c-0.1,0-0.2,0-0.3-0.1c-0.7-0.4-1.6-0.6-2.3-1c-0.6-0.3-1.1-0.6-1.6-1.1c-0.2-0.2-0.2-0.6-0.1-0.8c0.3-0.3,0.5-0.7,0.7-1
		c0.2-0.4,0.6-0.6,0.9-1c0.3-0.3,0.4-0.7,0.3-1.2c-0.1-0.4-0.2-0.7-0.4-1.1c-0.2-0.3-0.1-0.6,0.1-0.9c0.1-0.1,0.1-0.3,0.2-0.5
		c0.3-0.5,0.6-0.5,1.1-0.3c0.5,0.2,0.7,0.6,1.1,0.9c0.1,0,0.1,0.1,0.1,0.2c0,0.3,0.2,0.4,0.3,0.6c0.1,0.2,0.1,0.3-0.1,0.4
		c-0.4,0.3-0.6,0.7-0.8,1.1c-0.1,0.3,0,0.6,0,0.8c0.1,0.6,0.4,1.2,1,1.5c0.4,0.3,0.9,0.4,1.4,0.3c0.5-0.1,1.1-0.2,1.6-0.3
		c0.3-0.1,0.7-0.1,0.9-0.5c0.1-0.1,0.1-0.1,0.2,0c0.1,0.2,0.1,0.5,0.1,0.7c0,0.2,0,0.3,0.1,0.5c0.2,0.3,0.3,0.7,0.4,1.1
		c0.3,0.6,0.8,0.9,1.3,1.2c0.5,0.2,1,0.3,1.6,0.2c0.1,0,0.1,0,0.2,0c0.5,0,1,0,1.4-0.1c1-0.2,1.9,0.1,2.8,0.3c0.2,0,0.4,0.1,0.6,0.1
		c0.5,0.1,1-0.2,1.2-0.7c0.2-0.4,0.5-0.9,0.6-1.4c0.3-0.8,0.1-1-0.6-1.4c-0.5-0.2-0.9-0.6-1.2-0.9c-0.2-0.2-0.4-0.4-0.7-0.4
		c-0.3,0-0.5-0.3-0.8-0.3c-0.4,0-0.7,0.1-1.1,0.2c-0.6,0.1-1.2,0.2-1.8,0.2c-0.4,0-0.8-0.1-1.2-0.1c-0.6,0-1.2,0.1-1.9,0.2
		c-0.1,0-0.3,0.1-0.4,0.1c-0.2,0-0.3,0.2-0.4,0.1c-0.1-0.1-0.2-0.4-0.2-0.6c0-0.7-0.3-1.2-0.6-1.8c-0.1-0.2-0.1-0.4-0.2-0.5
		c-0.1-0.1,0-0.3,0.1-0.4c0.3-0.4,0.7-0.5,1.2-0.5c0.5-0.1,1,0.1,1.5,0.1c0.2,0,0.4,0,0.6,0c0.7-0.1,1.3,0,2,0c0.4,0,0.8-0.1,1.2,0
		c0.6,0.2,1.2,0.4,1.6,0.9c0.3,0.4,0.6,0.7,0.5,1.3c0,0.3,0.3,0.4,0.5,0.6c0.1,0.1,0.1,0,0.2-0.1c0.3-0.6,1-0.9,1.6-0.8
		c0.4,0.1,0.8,0,1.2,0.1c0.2,0,0.5,0.1,0.5,0.3c0.3,0.6,0.8,0.9,1.3,1.4c0.1,0.1,0.3,0.1,0.4,0.2c0.7,0.4,1.4,0.6,2,1.1
		c0.6,0.5,1.3,0.6,2.1,0.7c0.4,0,0.6-0.2,0.8-0.5c0.5-0.6,1.2-0.8,1.8-1.1c0.4-0.2,0.9-0.2,1.3-0.4c0.4-0.1,0.7-0.4,0.8-0.8
		c0.2-0.7,0.3-0.7,0.9-0.5c0.9,0.3,1.8,0.5,2.6,0.9c0.3,0.1,0.4,0.5,0.3,0.8c-0.2,0.6-0.7,0.9-1.3,1c-0.3,0.1-0.6,0.1-0.9,0.1
		c-0.6,0.1-1,0.5-1.3,1c-0.4,0.8-0.4,1.6-0.3,2.4c0.1,0.5,0.3,0.9,0.5,1.3c0.2,0.4,0.2,0.8-0.1,1.3c-0.3,0.4-0.6,0.8-0.9,1.2
		c-0.4,0.3-0.4,0.7-0.3,1.2c0.1,0.6,0.3,1.1,0.6,1.7c0.2,0.4,0.4,0.8,0.7,1.2c0.3,0.4,0.7,0.6,1.2,0.7c0.2,0,0.3,0,0.5,0.1
		c0.4,0.1,0.5,0.4,0.3,0.8c-0.3,0.6-0.5,1.3-0.6,2c-0.1,1.1-0.1,2.2-0.7,3.2c-0.3,0.5-0.5,1.1-0.8,1.7c-0.2,0.3-0.2,0.7-0.3,1
		c-0.2,0.7-0.7,0.8-1.3,0.9c-0.5,0.1-0.9,0-1.4,0c-0.2,0-0.4-0.1-0.6-0.2c-0.4-0.2-0.8-0.4-1.1-0.6c-0.3-0.2-0.3-0.6-0.4-0.9
		c0-0.3,0.1-0.7,0.2-1c0.3-0.7,0.3-1.4,0.2-2.2c-0.1-0.3-0.2-0.7-0.3-1c-0.2-0.5-0.7-0.6-1.2-0.8c-0.7-0.3-1.3-0.7-1.8-1.3
		c-0.4-0.5-0.1-1,0.4-1.3c0.8-0.5,1.6-0.6,2.4-0.9c0.2-0.1,0.3-0.2,0.4-0.3c0.1-0.2,0.1-0.3,0.2-0.5c0.4-0.8-0.1-1.3-0.9-1.3
		c-0.1,0-0.3,0.1-0.4,0c-0.6,0-1.1-0.1-1.6-0.2c-0.1,0-0.2-0.1-0.2-0.1c-0.3,0-0.5-0.1-0.6-0.3c-0.1-0.2,0.1-0.4,0.2-0.6
		c0.3-0.3,0.5-0.7,0.4-1.2c-0.1-0.6-0.3-1.1-1.1-1.1C314.5,419.1,314.2,419.1,313.9,419.1z"/>
	<path class="st2" d="M293.1,423.5c0-0.1-0.1-0.2-0.2-0.2c-0.1,0-0.1,0.1-0.1,0.2c0,0.3-0.2,0.5-0.1,0.8c0,0.2,0.1,0.3,0.2,0.3
		c0.5,0.2,1,0.4,1.5,0.5c0.4,0.1,0.8,0,1.2,0.1c0.8,0.2,1.6,0.5,2.1,1.3c0.2,0.4,0.5,0.7,0.9,1c0.7,0.4,1.3,0,1.5-0.6
		c0.1-0.2,0.2-0.4,0.3-0.6c0.2-0.3,0.6-0.3,0.9-0.4c0.7,0,1.4-0.1,2,0c0.5,0,1,0.2,1.3,0.7c0.2,0.2,0.2,0.9,0,1.2
		c-0.4,0.5-0.4,1.2-0.4,1.8c0,0.1,0.1,0.1,0.1,0.2c0.2,0.2,0.2,0.5,0.1,0.8c-0.1,0.4-0.5,0.7-0.6,1.1c-0.1,0.2-0.3,0.3-0.5,0.4
		c-0.6,0.3-1.2,0.3-1.7,0.6c-0.1,0-0.2,0.1-0.3,0.1c-0.5-0.1-0.9-0.1-1.4-0.1c-0.5,0-0.9-0.3-1.4-0.2c-0.1,0-0.2,0-0.3-0.1
		c-0.5-0.3-1.1-0.4-1.5-0.9c-0.1-0.1-0.3-0.1-0.5,0c-0.1,0.1-0.4,0.2-0.2,0.4c0.1,0.2,0,0.3-0.2,0.3c-0.2,0.1-0.5,0.2-0.7,0.1
		c-0.3-0.1-0.6,0.1-0.9-0.1c0,0-0.1,0-0.1,0c-0.2,0.2-0.5,0.1-0.8,0.2c-0.3,0-0.6,0-0.9,0.3c-0.3,0.2-0.6,0.1-0.9,0.2
		c-0.6,0-1.1,0.1-1.7-0.1c-0.2-0.1-0.4-0.2-0.4-0.4c-0.2-0.8-0.7-1.4-1.3-2c-0.2-0.1-0.4-0.2-0.5-0.3c-0.3-0.2-0.5-0.5-0.8-0.7
		c-0.2-0.1-0.1-0.6,0.1-0.8c0.5-0.5,1.2-0.6,1.8-0.8c0.3-0.1,0.6-0.2,0.7-0.5c0.1-0.1,0.2-0.2,0.3-0.3c0.3-0.5,0.1-1.1,0.1-1.6
		c0-0.3-0.4-0.5-0.7-0.7c-0.3-0.1-0.6-0.2-0.9-0.4c-0.3-0.2-0.6-0.4-0.8-0.6c-0.1-0.1-0.2-0.2-0.2-0.4c0-0.2,0-0.4,0.1-0.6
		c0.1-0.2,0.2-0.5,0.5-0.6c0.4-0.1,0.7-0.3,1.1-0.4c0.2,0,0.3-0.1,0.5-0.2c0.5-0.2,0.9-0.6,1.2-1c0,0,0.1,0,0.1,0
		c0.2-0.5,0.7-0.9,0.8-1.5c0-0.2,0.1-0.3,0.3-0.4c0.4-0.4,0.7-0.8,0.8-1.4c0.1-0.7,1-1.3,1.8-1c0.4,0.2,0.8,0.4,1.2,0.7
		c0.6,0.3,1.2,0.6,1.9,0.6c0.5,0,0.7,0.4,0.5,0.8c-0.2,0.5-0.6,0.8-0.9,1c-0.5,0.4-0.8,0.8-1,1.3c-0.2,0.4-0.4,0.8-0.8,1.1
		c-0.4,0.4-0.9,0.9-1.3,1.3C293.3,423.2,293.4,423.5,293.1,423.5L293.1,423.5z"/>
	<path class="st2" d="M328,424.3c0-0.2,0.1-0.4,0.4-0.5c0.6-0.2,1.2-0.3,1.6-0.7c0.3-0.2,0.5-0.4,0.8-0.7c0.3-0.3,0.6-0.6,1-0.8
		c0.1-0.1,0.2-0.2,0.3-0.3c0.3-0.4,0.8-0.4,1.2-0.1c0.5,0.4,1.1,0.6,1.7,0.5c0.4-0.1,0.8,0.1,1.1,0.1c0.2,0,0.3,0,0.5-0.1
		c0.4-0.2,0.7,0,1.1,0c0.2,0,0.2,0.2,0.2,0.4c0.1,0.3,0,0.6,0.1,0.9c0.2,0.6,0.6,0.8,1.1,1c0.5,0.2,1,0.2,1.5,0.2
		c1.2,0,2.1,0.6,2.8,1.6c0.2,0.3,0.3,0.7,0.3,1.1c0.1,0.6,0.1,1.3,0.2,1.9c0.1,0.5,0.4,1,0.8,1.4c0.2,0.2,0.4,0.5,0.5,0.9
		c0.1,0.4-0.2,0.9-0.7,0.9c-0.2,0-0.4,0-0.6-0.1c-0.4-0.1-0.8-0.1-1.1-0.3c-0.3-0.2-1,0-1.2,0.4c-0.1,0.1-0.1,0.3-0.2,0.4
		c-0.2,0.3-0.5,0.2-0.8,0.3c-0.8,0.1-1.6,0.1-2.4,0.3c-0.5,0.1-0.8,0.3-1.1,0.8c-0.2,0.3-0.4,0.7-0.5,1c0,0.1-0.1,0.3-0.1,0.4
		c-0.1,0.6-0.1,1.2-0.2,1.8c-0.1,0.4-0.2,0.8-0.6,1.1c-0.1,0.1-0.1,0.2-0.1,0.3c0,0.3-0.2,0.6-0.3,1c-0.2,0.6-0.5,1-1,1.4
		c-0.5,0.3-0.9,0.7-1.5,0.8c-0.2,0-0.4,0-0.6,0c-0.6-0.2-1.1-0.5-1.6-0.9c-0.3-0.3-0.5-0.7-0.8-1.1c-0.2-0.4-0.1-0.8-0.2-1.2
		c0-0.3,0.2-0.6,0.3-0.8c0.4-0.8,0.8-1.6,0.8-2.5c0-0.6,0-1.1-0.1-1.7c-0.1-0.6-0.1-1.2,0.5-1.6c0.2-0.1,0.4-0.4,0.5-0.6
		c0.1-0.2,0.2-0.4,0.5-0.5c0.4-0.2,0.5-0.7,0.4-1.1c-0.1-0.5-0.3-1-0.2-1.5c0.2-0.4,0.3-0.8,0.5-1.3c0.1-0.3,0.3-0.7,0.4-1
		c0.1-0.5,0-1-0.5-1.3c-0.2-0.1-0.4-0.1-0.5-0.1c-0.3,0.1-0.6,0.1-0.9,0.1c0,0-0.1,0-0.1,0c-0.4,0.3-1,0.2-1.3,0.7
		c-0.3,0.3-0.7,0.5-1.1,0.4C328.2,425.5,328,425,328,424.3z M337.7,425.6c-0.3,0-0.6,0-0.8,0.2c-0.5,0.3-0.9,0.7-1.3,1.2
		c-0.2,0.3-0.5,0.7-0.6,1.1c-0.3,1-0.1,1.9,0.1,2.8c0.2,0.6,0.5,1,1.2,0.9c0.5,0,1-0.2,1.4-0.5c0.3-0.2,0.5-0.5,0.4-0.8
		c0-0.5-0.2-0.9-0.1-1.4c0-0.4,0.1-0.7,0.4-0.9c0.4-0.4,1-0.7,1.4-1.1c0.2-0.2,0.3-0.4,0.2-0.7c-0.1-0.4-0.5-0.5-0.8-0.5
		C338.7,425.6,338.2,425.6,337.7,425.6z"/>
	<path class="st3" d="M351.6,436.4c-0.8,0-1.6,0.1-2.3,0.2c-0.3,0-0.6,0.1-0.8,0.3c-0.2,0.1-0.4,0.2-0.6,0.2c-0.9-0.1-1.4,0.4-1.8,1
		c-0.5,0.7-1.1,1.4-2,1.7c-0.6,0.2-1.2,0.5-1.8,0.5c-0.4,0-0.7-0.3-0.7-0.7c-0.1-0.6-0.1-1.1-0.2-1.7c-0.1-0.5,0.2-0.9,0.5-1.3
		c0.7-0.8,1.5-1.6,2.4-2.3c0.1-0.1,0.2-0.2,0.3-0.3c0.2-0.2,0.5-0.2,0.8-0.3c0.6,0,1,0.3,1.4,0.6c0.2,0.1,0.5,0.2,0.7,0.1
		c0.3-0.2,0.5-0.4,0.5-0.8c0.1-0.7-0.2-1.2-0.6-1.7c-0.2-0.2-0.3-0.5-0.4-0.7c-0.1-0.4-0.4-0.8-0.7-1.2c-0.3-0.3-0.5-0.7-0.9-1
		c-0.3-0.3-0.4-0.7-0.5-1.1c-0.1-0.6,0.1-1.2,0.2-1.8c0-0.4,0.1-0.9,0.1-1.3c0-0.2,0-0.3,0.2-0.4c0.1-0.1,0.2-0.2,0.2-0.3
		c0-0.4,0.3-0.5,0.5-0.6c0.3-0.1,0.4-0.4,0.6-0.7c0.1-0.2,0.3-0.3,0.4-0.5c0-0.1,0.1-0.1,0.2-0.1c1-0.1,1.8,0.3,2.4,1
		c0.1,0.1,0.3,0.3,0.4,0.4c0.3,0.4,0.5,0.8,0.6,1.3c0,0.3-0.1,0.6-0.4,0.8c-0.3,0.2-0.5,0.8-0.3,1.1c0.1,0.2,0.2,0.3,0.4,0.2
		c0.2,0,0.4-0.1,0.4-0.4c0-0.3,0.2-0.6,0.1-0.9c0-0.3,0.3-0.5,0.7-0.5c0.4,0,0.8-0.1,1.2-0.2c0.5-0.1,0.9,0,1.4,0.3
		c0.6,0.4,0.9,0.9,1.1,1.5c0.1,0.2,0.1,0.3-0.1,0.5c-0.5,0.6-0.5,1.2-0.4,1.9c0.1,0.5-0.3,0.8-0.6,1.1c-0.5,0.4-1.1,0.5-1.7,0.5
		c-0.2,0-0.3-0.1-0.5-0.1c-1.2-0.2-1.9,0.4-1.8,1.6c0,0.1,0.1,0.2,0.2,0.3c0.6,0.3,1.3,0.5,1.9,0.9c0.4,0.3,0.9,0.6,1.2,1
		c0.2,0.3,0.2,0.5-0.1,0.8c-0.3,0.2-0.5,0.4-0.7,0.7c-0.2,0.2-0.5,0.1-0.7,0.2C351.8,436.5,351.7,436.4,351.6,436.4z"/>
	<path class="st3" d="M285.3,446.2c0,0.8,0.2,1.5,0.8,2.2c0.1,0.2,0.3,0.3,0.5,0.4c0.5,0.4,0.8,0.9,0.9,1.6c0.1,0.5-0.4,1.3-0.9,1.3
		c-0.3,0-0.7,0-1-0.2c-0.5-0.3-0.9-0.6-1.3-1.1c-0.3-0.4-0.7-0.7-1.1-1c-0.6-0.5-1.1-1.1-1.3-1.9c-0.1-0.3-0.3-0.6-0.6-0.8
		c-0.3-0.3-0.7-0.6-0.9-1c-0.1-0.1-0.2-0.2-0.3-0.3c-0.5-0.4-0.6-1.1-0.2-1.6c0.2-0.2,0.4-0.5,0.4-0.8c0-0.3,0.3-0.5,0.3-0.8
		c0-0.1,0.1-0.1,0.1-0.1c0.3,0.1,0.6,0,0.9,0.1c0.3,0.1,0.5,0.2,0.7,0.3c0.4,0.2,0.7,0.3,1.1,0.2c0.3-0.1,0.4-0.3,0.4-0.7
		c-0.1-0.6-0.1-1.1,0.3-1.6c0.1-0.2,0.2-0.2,0.4-0.3c0.4-0.3,0.8-0.7,1.1-1.2c0.1-0.2,0.3-0.4,0.6-0.3c0.3,0.1,0.6,0,0.8,0.4
		c0.1,0.4,0.4,0.9,0.9,1.1c0.4,0.1,0.8,0.3,1.1,0.5c0.1,0.1,0.3,0.1,0.5,0.1c0.7,0,1.4,0.1,1.9-0.5c0.3-0.4,0.8-0.2,1.1,0.3
		c0.3,0.5,0.3,1,0.2,1.5c-0.1,0.5-0.2,1-0.2,1.5c0,0.6-0.2,1.1-0.6,1.5c-0.1,0.1-0.2,0.1-0.2,0.2c-0.2,0.2-0.3,0.3-0.2,0.6
		c0.1,0.3,0.1,0.6,0,0.9c-0.1,0.3-0.2,0.4-0.5,0.4c-0.2,0-0.4,0-0.6-0.2c-0.5-0.6-1-1.2-1.8-1.4c-0.4-0.1-0.7-0.4-1.2-0.5
		c-0.4-0.1-0.8-0.2-1.3-0.2c-0.4,0-0.8,0.3-0.8,0.8C285.3,445.9,285.3,446,285.3,446.2z"/>
	<path class="st3" d="M276.2,416.9c-0.5,0-0.8-0.3-1.2-0.5c-0.6-0.3-1-0.8-1.7-0.9c-0.4-0.1-0.8-0.1-1.1,0c-0.8,0.2-1.4-0.1-1.8-0.8
		c-0.2-0.3-0.4-0.6-0.5-0.9c-0.4-0.9-1-1.6-1.2-2.6c-0.1-0.3,0-0.6,0.2-0.9c0.5-0.7,1.2-1.2,2-1.4c0.4-0.1,0.9,0.1,1.3,0.4
		c0.4,0.3,0.8,0.6,1.1,1.1c0.3,0.4,0.7,0.7,1.2,0.9c0.3,0.1,0.7,0.1,1,0.2c0.5,0.1,1,0.3,1.4,0.5c0.2,0.1,0.1,0.3,0,0.4
		c-0.3,0.3-0.4,0.6-0.3,1c0,0.1,0.1,0.2,0.1,0.3c0.5,0.7,0.6,1.5,0.5,2.3C277.1,416.7,276.7,416.9,276.2,416.9z"/>
	<path class="st2" d="M275.2,422.2c-0.2,0-0.5,0-0.7-0.1c-0.3-0.1-0.5,0-0.8,0.1c-0.2,0.1-0.3,0.1-0.5,0c-0.1,0-0.1-0.1-0.2-0.1
		c-0.2,0.1-0.4,0.1-0.4-0.2c0,0-0.1-0.1-0.1-0.1c-0.2,0.1-0.5-0.1-0.7,0.1c-0.2,0.2-0.5,0.1-0.7,0.1c-0.3,0-0.5-0.1-0.8,0.1
		c-0.1,0.1-0.2,0-0.2,0c-0.1-0.1-0.3,0-0.4,0c-0.5,0-0.8-0.3-0.7-0.7c0-0.3-0.1-0.5-0.2-0.8c-0.1-0.3,0-0.5,0.1-0.7
		c0.2-0.4,0.2-0.9,0.4-1.4c0.3-0.6,0.8-1,1.4-1.3c0.7-0.3,1.5-0.5,2.3-0.5c0.7,0,1.2,0.3,1.8,0.6c0.7,0.4,1.4,1,2,1.5
		c0.1,0.1,0.3,0.2,0.4,0.2c0.4,0.1,0.7,0.5,0.7,0.8c0,0.2,0,0.3,0.1,0.4c0.1,0.2,0,0.3,0,0.5c-0.2,0.8-0.8,1.1-1.5,1.2
		C276,422.1,275.6,422.3,275.2,422.2z"/>
	<path class="st3" d="M247.4,443.5c0-0.2,0.1-0.5,0.2-0.8c0.1-0.3,0.3-0.6,0.3-0.9c0.1-0.8,0.6-1.4,1.2-1.9c0-0.1,0.1-0.1,0.2-0.2
		c0.3-0.5,0.7-0.4,1.1-0.3c0.4,0.2,0.6,0.5,0.7,0.9c0,0.3,0.1,0.5,0.4,0.6c0.2,0.1,0.3,0.4,0.5,0.6c0.2,0.4,0.4,0.5,0.8,0.4
		c0,0,0,0,0.1,0c0.6,0.2,1-0.3,1.4-0.6c0.4-0.2,0.7-0.6,1.2-0.7c0.5-0.1,0.8,0.1,0.7,0.7c-0.1,0.6-0.4,1.1-0.7,1.6
		c-0.2,0.5-0.4,1-0.5,1.6c0,0.2,0,0.4-0.2,0.5c-0.2,0.2-0.4,0.4-0.5,0.7c-0.1,0.2-0.5,0.3-0.8,0.1c-0.4-0.3-0.8-0.6-1.3-0.7
		c-0.1-0.1-0.2-0.2-0.2-0.3c-0.1-0.2-0.2-0.3-0.5-0.3c-0.2,0-0.4,0-0.6-0.1c-0.4-0.1-0.8,0-1.1,0.2c-0.5,0.3-1,0.3-1.5,0.2
		C247.9,444.8,247.4,444.1,247.4,443.5z"/>
	<path class="st3" d="M354.4,414.3c0,0.5-0.2,1-0.2,1.4c0,0.3-0.6,0.7-0.9,0.7c-0.1,0-0.1,0-0.2,0c-0.4,0.1-0.7,0-1-0.4
		c-0.3-0.4-0.6-0.7-1-1c-0.4-0.2-0.9-0.5-1.2-0.9c-0.3-0.3-0.7-0.4-1.1-0.4c-0.8,0-1.6,0.3-2.4,0.2c-0.9-0.1-1.8-0.2-2.6-0.6
		c-0.4-0.2-0.5-0.5-0.5-0.9c0.1-0.7,0.6-1.2,1.3-1.3c0.3-0.1,0.7,0,1,0.1c0.6,0.2,1.3,0.2,2,0.4c0.5,0.1,1.1,0.1,1.6,0.6
		c0.2,0.2,0.5,0.1,0.6,0c0.2-0.2,0.5-0.2,0.7-0.1c0.4,0.1,0.7,0,1.1,0c0.5-0.1,1-0.1,1.5,0.4c0.3,0.3,0.7,0.4,0.9,0.7
		C354.2,413.6,354.4,414,354.4,414.3z"/>
	<path class="st3" d="M289.7,415.2c-0.1,0.7-0.3,1.3-0.9,1.7c-0.1,0-0.1,0.1-0.1,0.1c-0.3,0.5-0.7,0.9-1,1.5c-0.1,0.3-0.3,0.7-0.4,1
		c-0.3,0.5-0.8,0.8-1.4,0.9c-0.3,0-0.5-0.3-0.5-0.6c0.1-0.7,0.2-1.3,0.5-2c0.1-0.2,0.1-0.5,0.1-0.7c0-0.6,0.2-1.2,0-1.8
		c0-0.2-0.1-0.3-0.2-0.5c-0.4-0.4-0.7-0.8-1.1-1.3c-0.1-0.1-0.2-0.2-0.3-0.2c-0.4,0-0.5-0.3-0.8-0.6c-0.1-0.1-0.1-0.1-0.1-0.2
		c0.6-0.6,1.3-1,2.1-1.1c0.1,0,0.3,0,0.3,0.2c0.1,0.6,0.5,1,0.9,1.5c0.4,0.6,1,0.9,1.7,1c0.5,0.1,0.9,0.4,1.2,0.9
		C289.8,415.1,289.7,415.2,289.7,415.2z"/>
	<path class="st2" d="M278.6,418.2c0.1-0.4,0.1-0.8,0.2-1.3c0-0.1,0-0.2,0-0.3c0-0.8,0.2-1.1,1-1.3c0.8-0.3,1.4,0,2,0.5
		c0.3,0.3,0.2,0.7,0.3,1c0,0.1,0,0.2,0,0.2c0.1,0.2,0.1,0.3-0.1,0.5c-0.2,0.4-0.4,0.8-0.2,1.3c0,0.1,0.1,0.1,0.2,0.2
		c0.2,0.1,0.3,0.2,0.3,0.3c-0.1,0.3,0,0.5,0.1,0.7c0.1,0.4-0.1,0.6-0.5,0.8c-0.6,0.3-1.1,0-1.7-0.1c-0.4-0.1-0.7-0.3-1-0.3
		c-0.2,0-0.4-0.3-0.4-0.5C278.8,419.4,278.6,418.9,278.6,418.2z"/>
	<path class="st2" d="M252.8,423.5c0-0.7,0.2-1.3,0.4-1.9c0.2-0.7,0.6-1.1,1.2-1.4c0.3-0.2,0.7-0.2,1.1-0.2c0.2,0,0.5-0.1,0.7,0.2
		c0.1,0.1,0.1,0.2,0.1,0.3c0,0.4,0,0.8,0.2,1.3c0.1,0.3,0.1,0.7,0,1c-0.1,0.4-0.1,0.7-0.2,1.1c-0.1,1.1-1.6,2-2.8,1.2
		c-0.5-0.3-0.6-0.9-0.6-1.4C252.8,423.8,252.8,423.6,252.8,423.5z"/>
	<path class="st2" d="M314.5,435.3c-0.3,0.1-0.4-0.2-0.6-0.3c-0.1,0-0.1-0.1-0.2-0.1c-0.4-0.3-0.4-0.3-0.3-0.4
		c0.1-0.2,0-0.5,0.2-0.6c0.4-0.4,0.4-1,0.4-1.6c0.1-0.6,0-1.2,0.1-1.7c0-0.2,0.1-0.3,0.2-0.4c0.4-0.5,0.8-1,1.5-1.1
		c0.3-0.1,0.8-0.1,1.1,0.1c0.4,0.2,0.7,0.5,0.9,1c0.2,0.7-0.2,1.2-0.7,1.5c-0.7,0.4-0.9,1-0.9,1.7c0,0.1,0,0.2,0,0.3
		c0.1,0.4-0.2,0.7-0.4,0.9c-0.2,0.2-0.4,0.4-0.6,0.6C314.9,435.3,314.7,435.3,314.5,435.3z"/>
	<path class="st2" d="M283.1,432.7c0.5-0.1,1,0,1.2,0.5c0.4,0.7,0.4,1.3-0.1,1.7c-0.1,0.1-0.3,0.2-0.5,0.3c-0.9,0.7-1.9,1.1-3.1,1
		c-0.4,0-0.7-0.3-0.7-0.7c0-0.5,0-1,0.2-1.4c0.3-0.5,0.7-0.9,1.2-1.1C281.9,432.8,282.5,432.5,283.1,432.7z"/>
	<path class="st3" d="M341.6,441.7c-0.1,0.4-0.4,0.9-0.9,1.1c-0.4,0.1-0.7,0.2-1,0.4c-0.1,0.1-0.2,0.1-0.3,0
		c-0.1-0.2-0.3-0.2-0.5-0.3c-0.4-0.2-0.5-0.7-0.7-1.1c0,0,0-0.1,0-0.1c0.2-0.5,0.3-1,0.9-1.3c0.2-0.1,0.5-0.2,0.7-0.3
		c0.6-0.1,1.1-0.1,1.6,0.2c0.1,0.1,0.2,0.2,0.2,0.4C341.6,441.1,341.5,441.4,341.6,441.7z"/>
	<path class="st3" d="M335.9,420.6c-1,0-1.1-0.3-1.2-0.8c0-0.3,0-0.7,0.2-1c0.3-0.7,0.9-1.1,1.6-1.4c0.2-0.1,0.4,0,0.5,0.2
		c0.2,0.3,0.3,0.6,0.3,1c0.1,0.5,0.2,1,0,1.5c0,0.1-0.1,0.2-0.3,0.3C336.7,420.5,336.3,420.7,335.9,420.6z"/>
	<path class="st2" d="M233.9,409.9c0-0.7,0.4-1.1,0.8-1.5c0.1-0.1,0.2-0.1,0.3-0.2c0.3-0.3,0.7-0.4,1.1-0.1c0.1,0.1,0.2,0.1,0.2,0.3
		c0.2,0.6,0.2,1.3,0,1.9c-0.2,0.6-0.7,1.2-1.5,1.2c-0.4,0-0.6-0.1-0.7-0.6C234,410.5,233.9,410.2,233.9,409.9z"/>
	<path class="st3" d="M348.7,440.1c0-0.3,0.1-0.5,0.2-0.8c0.1-0.2,0.2-0.4,0.2-0.6c0.1-0.2,0.2-0.3,0.3-0.3c0.2,0,0.3,0,0.4,0.2
		c0,0.1,0.1,0.2,0.2,0.2c0.4,0.2,0.6,0.5,0.5,1c-0.1,0.3-0.7,0.8-1,0.8c-0.2,0-0.4,0.1-0.6-0.1C348.8,440.4,348.7,440.3,348.7,440.1
		z"/>
	<path class="st3" d="M282.8,412.7c-0.1,0-0.1,0-0.1-0.1c0-0.1,0.1-0.2,0.1-0.2c0.1,0,0.2,0.1,0.1,0.2
		C282.9,412.7,282.9,412.7,282.8,412.7z"/>
	<path class="st2" d="M293.1,423.5c0,0.1,0,0.1-0.1,0.2c0,0-0.1,0-0.1,0C292.9,423.5,293,423.5,293.1,423.5L293.1,423.5z"/>
	<path class="st0" d="M347.5,418.3c-0.5,0-1,0-1.4-0.1c-0.8-0.2-1.4-0.7-2-1.3c-0.2-0.2-0.2-0.4-0.1-0.7c0.2-0.3,0.4-0.5,0.8-0.5
		c0.8,0,1.4,0.2,2.1,0.5c0.4,0.2,0.7,0.5,1,0.8c0.2,0.2,0.3,0.5,0.4,0.8c0.1,0.2,0,0.4-0.3,0.4C347.8,418.3,347.7,418.3,347.5,418.3
		z"/>
	<path class="st1" d="M240.2,425.1c0.1,0.6-0.1,1.1-0.3,1.7c-0.1,0.3-0.4,0.5-0.6,0.7c-0.2,0.1-0.4,0.3-0.5,0.5
		c0,0.1-0.2,0.2-0.3,0.3c-0.2,0.1-0.4,0.1-0.4-0.1c0-0.3-0.3-0.5-0.5-0.7c-0.7-0.7-0.6-1.6-0.6-2.5c0-0.5,0.3-0.7,0.7-0.9
		c0.3-0.1,0.6-0.3,0.9-0.4c0.4-0.1,0.8-0.1,1.2-0.1c0.1,0,0.2,0.1,0.2,0.2C240.2,424.2,240.2,424.6,240.2,425.1z"/>
	<path class="st1" d="M250.2,416.1c-0.2,0-0.5-0.4-0.5-0.6c0-0.8,0.3-1.4,0.6-2.1c0.2-0.4,0.6-0.5,1-0.4c0.4,0.1,0.8,0.4,1.2,0.6
		c0.1,0.1,0.2,0.3,0.2,0.5c0.1,0.2-0.1,0.3-0.2,0.4c-0.5,0.7-1.1,1.3-2,1.6C250.4,416.1,250.3,416.1,250.2,416.1z"/>
	<path class="st1" d="M266.3,429.9c-0.3,0.8-0.5,1.6-1.1,2.3c-0.1,0.1-0.3,0.3-0.4,0.5c-0.2,0.2-0.4,0.4-0.7,0.3
		c-0.4-0.1-0.6-0.3-0.6-0.6c0-0.2-0.1-0.3,0-0.5c0.1-0.3,0.2-0.5,0.5-0.6c0.3-0.2,0.6-0.4,0.9-0.6c0.4-0.4,0.9-0.6,1.3-0.9
		c0,0,0.1-0.1,0.1,0C266.3,429.7,266.3,429.8,266.3,429.9z"/>
	<path class="st1" d="M238,430.2c0,0.1,0,0.1-0.1,0.1c-0.1,0-0.1,0-0.1-0.1C237.8,430.2,237.8,430.1,238,430.2
		C238,430.1,238,430.1,238,430.2z"/>
	<path class="st0" d="M337.7,425.6c0.5,0,1,0.1,1.5,0.2c0.3,0.1,0.7,0.2,0.8,0.5c0.1,0.3,0,0.5-0.2,0.7c-0.4,0.4-0.9,0.7-1.4,1.1
		c-0.3,0.3-0.3,0.6-0.4,0.9c-0.1,0.5,0.1,0.9,0.1,1.4c0,0.4-0.1,0.7-0.4,0.8c-0.4,0.3-0.9,0.5-1.4,0.5c-0.8,0-1-0.4-1.2-0.9
		c-0.3-0.9-0.4-1.9-0.1-2.8c0.1-0.4,0.3-0.7,0.6-1.1c0.4-0.5,0.8-0.9,1.3-1.2C337.1,425.6,337.4,425.6,337.7,425.6z"/>
</g>
</svg>
