<?xml version="1.0" encoding="utf-8"?>
<!-- Generator: Adobe Illustrator 27.2.0, SVG Export Plug-In . SVG Version: 6.00 Build 0)  -->
<svg version="1.1" id="Layer_1" xmlns="http://www.w3.org/2000/svg" xmlns:xlink="http://www.w3.org/1999/xlink" x="0px" y="0px"
	 viewBox="0 0 63.8 62.7" style="enable-background:new 0 0 63.8 62.7;" xml:space="preserve">
<style type="text/css">
	.st0{fill:#5791AF;}
	.st1{fill:#8BAAD1;}
	.st2{fill:#C7B299;}
	.st3{fill:#092B39;}
</style>
<g>
	<path id="Path_2018" class="st0" d="M57.5,31.6c0,14.1-11.4,25.5-25.5,25.5S6.5,45.7,6.5,31.6S17.9,6.1,32,6.1S57.5,17.5,57.5,31.6
		"/>
</g>
<g>
	<path id="Path_2019" class="st1" d="M46.3,26.5c-0.6,0-1.1,0-1.7-0.1c-0.2,0.2-0.4,0-0.6,0c-1,0.1-1.9,0.2-2.9,0.1
		c-4.1,0.3-8.2,0.6-12.3,0.8c-3.2,0-6.4,0.2-9.6,0.1c-0.4,0-0.8,0-1.2-0.1c-0.3,0-0.2-0.4-0.3-0.6c0.2-1-0.3-2,0-3
		c-0.1-1.2,0.1-2.5,0.1-3.8c0,0,0.1-0.1,0.1-0.2c0.9-0.2,1.9-0.2,2.9-0.3c1.9,0,3.8-0.1,5.7-0.4c2.3-0.1,4.6-0.2,6.9-0.5
		c1.8-0.3,3.7-0.4,5.5-0.6c1.7-0.3,3.3-0.5,5-0.6c1.3,0,1.9,1.2,2.8,1.9c0.3,0.2,0.5,0.5,0.7,0.8c0.3,0.5,1,0.7,1.4,1.2
		c0.7,0.6-0.3,1.4-0.5,2.1c-0.2,0.7-0.6,1.3-0.9,1.9C47,25.8,47,26.5,46.3,26.5"/>
	<path id="Path_2020" class="st1" d="M46.5,33.4c-0.2,1.7-0.2,3.4,0.1,5.1c-0.1,0.6,0.2,1.2,0,1.9c-0.1,0.6,0,0.6-0.7,0.6
		c-1.5,0.2-3,0.5-4.5,0.9c-3.6,0.6-7.2,0.7-10.8,1.2c-2.3,0.2-4.7,0.2-7,0.5c-1.1,0.1-2.2,0.2-3.3,0.2c0,0-0.1,0-0.1,0
		c-0.1-0.2-0.3-0.4-0.5-0.5c-0.9-0.9-1.9-1.9-2.9-2.8c-1.2-0.7-0.9-0.8-0.3-1.9c0.6-0.8,1.1-1.6,1.5-2.5c0.3-0.3,0.5-0.7,1-0.7
		c1.2-0.2,2.4-0.3,3.6-0.2c3.2-0.6,6.4-0.9,9.6-1.1c1.4,0,2.8-0.3,4.2-0.2c1.6,0,3.1-0.1,4.7-0.2C41.7,33.6,46.8,32.5,46.5,33.4"/>
	<path id="Path_2021" class="st2" d="M36.3,50.2c0.2,0.4-0.3,1.5-3.3,1.5c-1.3,0.1-3.2-0.2-2.9-1.2c0.3-1.9,0.3-3.8,0.2-5.7
		c0.4-0.1,2.7-0.2,3.6-0.4c0.6,0,1.2,0,1.8-0.1c0.3,0,0.1,0.4,0.1,0.5c0,0.9,0,1.8,0.1,2.6C35.7,48.5,35.8,49.4,36.3,50.2"/>
	<path id="Path_2022" class="st2" d="M35,31.6c0,0.1,0,0.1,0,0.2c0,0.2-0.3,0.2-0.5,0.2c-0.2,0-0.5-0.1-0.7,0h0c-0.6,0-1.3,0-1.9,0
		c-0.4,0-0.7,0-1.1,0.1l0,0c-0.1,0-0.3,0-0.4,0c-0.1,0-0.2-0.1-0.2-0.2c0,0,0,0,0,0c0-0.1,0-0.3,0-0.5c-0.1-0.7-0.3-1.5-0.3-2.1
		c-0.1-0.1-0.1-0.3-0.1-0.4c0-0.1,0.1-0.2,0.2-0.2c0,0,0,0,0.1,0c0.4,0,0.7-0.1,1.1-0.1c0.4,0,0.9,0,1.3,0c0.6-0.1,1.2-0.1,1.7-0.1
		h0c0.4,0,0.6,0.1,0.7,0.4l0,0l0,0c0.1,0.6,0.2,1.2,0.2,1.9C35,31.1,35,31.4,35,31.6"/>
	<path id="Path_2023" class="st2" d="M33.3,13.3c0.3,1.1,0.4,2.2,0.4,3.4c-0.8,0.1-1.5,0.1-2.3,0.1c-0.9,0.1-1.7,0.1-2.6,0.1
		c-0.1-1.1-0.2-2.2-0.2-3.3c0.7,0.5,1.6,0.7,2.5,0.8C31.9,14.4,32.8,14,33.3,13.3"/>
	<path id="Path_2024" class="st2" d="M32.8,10.7c0,0.4,0.1,1.1-0.3,1.4c-0.5,0.5-1.1,0.7-1.8,0.7c-0.6,0-1.5,0.1-1.8-0.6
		c-0.2-0.5-0.2-1-0.1-1.5c0.1-1.1,1.1-1.9,2.2-1.8c0.1,0,0.2,0,0.2,0C32.1,9.1,32.7,9.8,32.8,10.7"/>
	<path id="Path_2025" class="st3" d="M50.6,22.4c0.3-0.5,0.3-1.1,0.1-1.6c-1.5-1.7-3.2-3.2-5.1-4.4c-2.6-0.1-5.2,0-7.7,0.3
		c-2.9,0.1-2.4,0.5-2.6-2.4c-0.1-1-0.3-1.9-0.5-2.9C34.4,10.6,34.6,9.6,34,9c-0.7-0.9-1.7-1.5-2.8-1.5c-1.3,0-2.5,0.5-3.5,1.3
		c-0.6,0.7-0.9,1.5-0.9,2.4c-0.1,1.6,0.2,3.5,0.1,5.5c-0.8,0.1-1.7,0-2.5,0.2c-1.4,0.1-2.8,0.2-4.2,0.1c-1.5,0.1-5,0.5-5,0.8
		c0,0.5,0,1,0.1,1.5c0,0.8,0.1,1.7,0.2,2.5c0.1,1.5,0.2,3.2,0.2,4.8c0.1,0.5-0.5,3,0.5,2.7c0.7-0.1,1.4-0.1,2.2-0.1
		c1.1-0.1,2.2,0.1,3.3,0c0.1,0,3.1-0.4,4.6-0.4c0.6,0,1.3,0,1.9,0c0.2,0.5,0.2,1,0.2,1.4c0,0.4,0.4,2.1-0.2,2.1
		c-1.3,0.1-2.7,0.3-4,0.4c-1.4,0-2.7,0.1-4,0.4c-0.9,0.1-1.9,0.3-2.8,0.4c-0.4-0.1-0.5,0.3-0.7,0.5c-0.5,1.1-3.7,5.3-2.7,6.1
		c0.5,0.6,1.1,1.2,1.7,1.7c0.9,1.1,2.2,2.5,3,3.6c0.4,0.6,2,0,2.7,0c2.6-0.1,4.8-0.8,7.4-0.6c0.2,1.6,0.2,3.1,0,4.7
		c-0.3,1.3-4.4,1-5.6,1.2c-0.3,0-0.7,0.1-1,0.1c-0.5,0.1-1,0.1-1.5,0.1c-0.4,0.1-0.6,0.4-0.6,0.8c0.1,0.7,0.9,0.7,1.4,0.7
		c0.6,0,1.1-0.1,1.7-0.1c1.3,0,2.6-0.1,3.8-0.3c0.1,0,2.7-0.3,3.1-1.5c0.3-1.9,0.3-3.8,0.2-5.7c0.4-0.1,2.7-0.2,3.6-0.4
		c0.6,0,1.2,0,1.8-0.1c0.3,0,0.1,0.4,0.1,0.5c0,0.9,0,1.8,0.1,2.6c-0.1,0.9,0.1,1.9,0.5,2.7C37,51,38,51.6,39.1,52
		c1.4,0.4,2.9,0.6,4.3,0.8c0.6,0,1.2,0.1,1.3-0.5c0.1-0.9-2.4-1.2-3.4-1.4c-0.2,0-0.9-0.2-1.6-0.5c-0.5-0.2-1-0.3-1.3-0.4
		c-0.4-0.1-0.9-0.5-0.9-1c-0.2-1.5-0.4-4.9,0-4.9c0.2-0.1,0.4-0.1,0.7-0.1c0.7,0,1.3-0.2,2-0.2c1.8-0.2,3.5-0.4,5.3-0.5
		c1-0.2,2-0.3,3.1-0.4c1.4-1.3,0.6-4.1,0.5-5.8c-0.3-1,0.2-5.8-1-5.7c-1.7,0.2-3.4,0-5.1,0.2c-2.1,0.2-4.1,0.2-6.2,0
		c-0.1-0.3-0.3-2.7-0.3-3.3c1.7-0.1,3.3-0.4,5-0.4c0.7,0.1,2.2-0.2,2.4-0.2c0.6,0,3.8-0.1,4-0.1c0.4-0.1,1.2-2.1,1.5-2.7
		C49.6,24.4,50.2,23.1,50.6,22.4 M28.8,10.7c0.1-1.1,1.1-1.9,2.2-1.8c0.1,0,0.2,0,0.2,0c0.9,0.2,1.6,0.9,1.6,1.8
		c0,0.4,0.1,1.1-0.3,1.4c-0.5,0.4-1.1,0.7-1.8,0.7c-0.6,0-1.5,0.1-1.8-0.6C28.7,11.7,28.7,11.2,28.8,10.7 M28.6,13.6
		c0.7,0.5,1.6,0.7,2.5,0.8c0.9,0.1,1.8-0.3,2.3-1c0.3,1.1,0.4,2.2,0.4,3.4c-0.8,0.1-1.5,0.1-2.3,0.1c-0.9,0.1-1.7,0.1-2.6,0.1
		C28.6,15.8,28.5,14.7,28.6,13.6 M36.3,33.8c1.6,0,3.1-0.1,4.7-0.2c0.6,0,5.9-1.1,5.5-0.2c-0.2,1.7-0.2,3.4,0.1,5.1
		c-0.1,0.6,0.2,1.2,0,1.9c-0.1,0.6,0,0.6-0.7,0.6c-1.5,0.2-3,0.5-4.5,0.9c-3.6,0.6-7.2,0.7-10.8,1.2c-2.3,0.2-4.7,0.2-7,0.5
		c-1.1,0.1-2.2,0.2-3.3,0.2c-0.2,0-0.4-0.4-0.7-0.5c-0.9-0.9-1.9-1.9-2.9-2.8c-1.2-0.7-0.9-0.8-0.3-1.9c0.6-0.8,1.1-1.6,1.5-2.5
		c0.3-0.3,0.5-0.7,1-0.7c1.2-0.2,2.4-0.3,3.6-0.2c3.2-0.6,6.4-0.9,9.6-1.1C33.5,34.1,34.9,33.8,36.3,33.8 M29.7,28.9
		c0-0.1,0.1-0.2,0.2-0.2c0,0,0,0,0.1,0c0.4,0,0.7-0.1,1.1-0.1c0.4,0,0.9,0,1.3,0c0.6-0.1,1.2-0.1,1.7-0.1h0c0.4,0,0.6,0.1,0.7,0.4
		l0,0c0,0,0,0,0,0c0.1,0.6,0.2,1.2,0.2,1.9c0,0.2,0,0.5,0.1,0.8c0,0.1,0,0.1,0,0.2c-0.1,0.2-0.3,0.2-0.5,0.2c-0.2,0-0.5-0.1-0.7,0h0
		c-0.6,0-1.3,0-1.9,0c-0.4,0-0.7,0-1.1,0.1l0,0c-0.1,0-0.3,0-0.4,0c-0.1,0-0.2-0.1-0.2-0.2c0,0,0,0,0,0c0-0.1,0-0.3,0-0.5
		c-0.1-0.7-0.3-1.5-0.3-2.1C29.8,29.2,29.8,29.1,29.7,28.9 M48.2,23.4c-0.2,0.7-0.6,1.3-0.9,1.9c-0.3,0.4-0.3,1.2-1,1.2
		c-0.6,0-1.1,0-1.7-0.1c-0.2,0.2-0.4,0-0.6,0c-1,0.1-1.9,0.2-2.9,0.1c-4.1,0.3-8.2,0.6-12.3,0.8c-3.2,0-6.4,0.2-9.6,0.1
		c-0.4,0-0.8,0-1.2-0.1c-0.2,0-0.2-0.4-0.3-0.6c0.2-1-0.3-2,0-3c-0.1-1.2,0.1-2.5,0.1-3.8c0,0,0.1-0.1,0.1-0.2
		c0.9-0.2,1.9-0.2,2.8-0.3c1.9,0,3.8-0.1,5.7-0.4c2.3-0.1,4.6-0.2,6.9-0.5c1.8-0.3,3.7-0.4,5.5-0.6c1.7-0.3,3.3-0.5,5-0.6
		c1.3,0,1.9,1.2,2.8,1.9c0.3,0.2,0.5,0.5,0.7,0.8c0.3,0.5,1,0.7,1.4,1.2C49.4,21.9,48.4,22.8,48.2,23.4"/>
</g>
</svg>
