<?xml version="1.0" encoding="UTF-8"?>
<svg enable-background="new 0 0 63.8 62.7" width='48' height='48' version="1.1" viewBox="6.8 6.3 48 48" xml:space="preserve" xmlns="http://www.w3.org/2000/svg">
<style type="text/css">
	.st0{fill:#5791AF;}
	.st1{fill:#C7B299;}
	.st2{fill:#092B39;}
</style>			
<path class="st0" d="m54.8 30.3c0 13.3-10.7 24-24 24s-24-10.7-24-24 10.7-24 24-24 24 10.7 24 24"/>			
<path class="st1" d="m48.9 27.5c0.1 0.1 0.5 0.5 0.2 0.7-1.1 0.2-2.2 0.2-3.2 0.1-1.6 0-2.2 1-2.1 3.2 0 1.2 0.1 3.3 0.1 4.5v7.5c0 0.2 0.1 0.5-0.2 0.6-1.3 0.2-2.6 0.1-3.9 0-1.8 0-3.9 0.3-4.1 0.1-0.2-1.4-0.2-2.8-0.1-4.2 0-1.5 0-2.8-0.1-3.3-0.1-0.7 0.2-3.1-0.3-3.2-1.1-0.3-2.2-0.3-3.4-0.2-1 0-2.9 0.2-3 0.2-1.3 0.1-2.8-0.3-3.1 0.5-0.4 2.3-0.5 4.6-0.5 6.9 0 1.2 0.2 2.9-0.2 3.2s-3.1 0.2-4.5 0.2c-2.5 0-3.3 0.2-3.3-1.3 0.1-3.9 0.2-7.6 0.2-11.3 0-0.9 0.4-4-0.6-4.7s-3.8-0.3-3.4-0.6c0.5-0.4 3.7-3.1 5-4.4 2.1-1.8 2.8-2.5 4.8-4.4 0.8-0.8 4.3-3.8 5-4.5 0.1-0.1 2.1 1.5 2.3 1.6 1.5 0.9 2.8 1.8 4.2 2.9 0.8 0.7 1.9 0.8 2.7 0.1 0.7-0.4 0.4-1.2 0.4-4 0-0.5 0.1-0.4 0.2-0.4h4.7c0.2 0 0.2 0.1 0.2 0.2 0 1.7-0.1 4.3-0.1 5.1 0 1.1-0.3 3.1 0.6 4.1 1.2 1 4.2 3.7 5.5 4.8"/>
<path class="st2" d="m50.6 26.8c0.7 0.7 1.2 1.3 0.7 2.3-0.8 1.4-3 0.8-4.4 0.9-1.2 0.1-1 1.2-1 2.5 0 3.2 0.1 6.3 0.2 9.4 0.1 1.1 0.1 2.2 0 3.4-0.1 0.6-0.2 0.5-0.7 0.5-3.7 0.1-7.4 0.5-11.1 0.1-0.4 0-0.4-0.6-0.4-0.9-0.1-2.3 0-4.6 0-6.9v-1.6c0-1 0.2-1.3-1.2-1.2-1.3 0-3.8 0-4.7 0.1-0.4 0.1-0.3 0.5-0.3 0.6 0 0.8-0.2 5.6-0.2 7.3 0 1.4-0.1 2.7-1.2 2.6-1.6-0.1-2.5 0-4.1 0-2.1 0.1-4 0.1-6 0-0.6 0-0.4-1.7-0.4-2.6-0.2-3.4 0-6.6 0.1-10.3 0-1 0.4-4.4-0.9-4.5-1.4-0.3-4.7 0.3-4.5-1.9 0.1-0.6 0.6-0.9 1.2-1.4 0.4-0.4 0.9-0.8 1.4-1.2 0.8-0.6 13-12.4 15.2-13.2 0.9 0.5 1.8 1.1 2.7 1.8 1.6 1.1 3.4 2.1 5 3.1 0.2 0.1 0.3 0.1 0.4 0 0.1-0.5 0.1-1.1 0.1-1.6v-1.4c0-0.4 0.1-1 0.8-1h6.3c1.2 0 1.3 0.3 1.3 0.9 0 1.8-0.1 4.1 0 6 0 0.7 0 1.4 0.1 2.1 0.8 1.2 1.8 2.3 2.9 3.2 0.6 0.8 2.5 2.7 2.7 2.9m-1.5 1.4c0.3-0.1-0.1-0.5-0.2-0.7-1.4-1.1-4.4-3.9-5.5-5.1-1-1-0.6-3-0.6-4.1 0-0.7 0.1-3.4 0.1-5.1 0-0.1 0-0.2-0.2-0.2h-4.7c-0.2 0-0.2 0-0.2 0.4 0 2.8 0.3 3.6-0.4 4-0.8 0.6-2 0.6-2.7-0.1-1.3-1.1-2.7-2-4.2-2.9-0.2-0.1-2.1-1.8-2.3-1.6-0.7 0.7-4.3 3.8-5 4.5-2 1.9-2.7 2.6-4.8 4.4-1.3 1.3-4.5 4-5 4.4-0.3 0.3 2.4 0 3.4 0.6 1 0.7 0.6 3.8 0.6 4.7 0 3.7-0.1 7.4-0.2 11.3 0 1.6 0.8 1.3 3.3 1.3 1.4 0 4.2 0.1 4.5-0.2s0.2-2 0.2-3.2c-0.1-2.3 0.1-4.6 0.5-6.9 0.3-0.8 1.8-0.5 3.1-0.5 0.1 0 2-0.2 3-0.2 1.1-0.1 2.3 0 3.4 0.2 0.6 0.2 0.3 2.6 0.3 3.2 0.1 0.5 0.1 1.8 0.1 3.3-0.1 1.4-0.1 2.8 0.1 4.2 0.2 0.2 2.3-0.1 4.1-0.1 1.3 0.2 2.6 0.2 3.9 0 0.3 0.2 0.3-0.1 0.3-0.3 0-2.9-0.1-4.5 0-7.5 0-1.2-0.1-3.3-0.1-4.5-0.1-2.2 0.5-3.2 2.1-3.2 1 0.1 2.1 0.1 3.1-0.1"/>
</svg>
