<svg xmlns="http://www.w3.org/2000/svg" width='51' height='51' xmlns:xlink="http://www.w3.org/1999/xlink" version="1.1" id="Layer_1" x="51px" y="51px" style="enable-background:new 0 0 63.8 62.7;" xml:space="preserve" viewBox="5.2 4.73 51.2 51.2">
<style type="text/css">
	.st0{fill:#5791AF;}
	.st1{fill:#FFFFFF;}
	.st2{fill:#C7B299;}
	.st3{fill:#092B39;}
</style>
<g id="Group_147" transform="translate(0 -0.371)">
	<g id="Group_19">
		<g>
			<g id="Group_18">
				<path id="Path_21" class="st0" d="M56.4,30.7c0,14.1-11.5,25.6-25.6,25.6S5.2,44.8,5.2,30.7c0-14.1,11.5-25.6,25.6-25.6      C44.9,5.1,56.4,16.5,56.4,30.7L56.4,30.7"/>
			</g>
		</g>
	</g>
	<g id="Group_25">
		<g>
			<g id="Group_24">
				<g id="Group_23" transform="translate(4.819 5.56)">
					<g>
						<g id="Group_22">
							<g id="Group_21">
								<g>
									<g id="Group_20">
										<path id="Path_22" class="st1" d="M43,23c-1.9,4.4-4.1,9.6-8.1,12.5c-3.7,2.7-7.8,2.8-12.8,2.2c-3.8-1.3-6.3-2.1-8.3-4.7            c-1.9-2.4-4.1-6.7-4.2-10.3c-0.1-3.2,5.8-8,7.6-9.2C25.9,7.8,39.3,14,43,23 M35.7,27.2c2-7.4-4.2-14.2-12.3-13.7            c-7.7,1.3-12.9,11.4-7.5,17.6C21.7,37.3,33.3,36.4,35.7,27.2"/>
										<path id="Path_23" class="st2" d="M43.1,31.3c-3.1,6.2-8.6,12.1-16,12.2c-7.3-0.3-17.2-4.1-18.2-12.3            C16.8,44.3,34.9,43.4,43.1,31.3"/>
										<path id="Path_24" class="st2" d="M36.4,9c2.8,1.7,6.2,5.1,7.1,8c-4.3-5.4-11.7-7.8-18.8-7.4c-3.9,0.2-7.6,1.3-10.9,3.4            c-1.8,1.1-3.5,2.4-5.1,3.9c1.2-2.5,3-4.7,5.2-6.4c3.3-2.5,7.4-3.9,11.6-4C29.2,6.3,33,7.2,36.4,9"/>
										<path id="Path_25" class="st3" d="M45.3,18.9c1.2,1.5,1.8,3.4,1.7,5.3c-0.4,4.6-2.6,8.7-5.3,12.5            c-3.1,4.3-7.2,7.2-11.4,7.9c-13.2,2.1-23.9-6-25-19c-0.5-6.4,2.1-9.7,4.4-12.7c1.3-1.7,4.1-5.8,12.4-7.4            c4.7-0.8,9.5-0.1,13.8,2C40.7,9.6,44.5,13.3,45.3,18.9 M43.4,16.9c-0.9-2.9-4.3-6.3-7.1-8C33,7.2,29.3,6.3,25.5,6.4            c-4.2,0.1-8.2,1.4-11.6,4c-2.2,1.7-4,3.9-5.2,6.4c1.6-1.5,3.3-2.8,5.1-3.9c3.3-2,7.1-3.2,10.9-3.4            C31.8,9.1,39.2,11.6,43.4,16.9 M34.9,35.5c4-2.9,6.2-8.1,8.1-12.5c-3.7-9-17-15.2-25.8-9.5c-1.8,1.3-7.7,6.1-7.6,9.2            c0.1,3.6,2.3,7.8,4.2,10.3c2,2.6,4.5,3.5,8.3,4.7C27,38.2,31.2,38.2,34.9,35.5 M27,43.5c7.4-0.1,12.9-6,16-12.2            c-8.2,12.1-26.3,13.1-34.3,0C9.9,39.4,19.8,43.2,27,43.5"/>
										<path id="Path_26" class="st3" d="M23.4,13.5c8.1-0.6,14.3,6.3,12.3,13.7c-2.4,9.2-14,10.1-19.8,4            C10.5,24.9,15.7,14.8,23.4,13.5 M33.1,25.8c0.4-3.7-1.7-9.2-5.7-9.7c-5.7-0.8-12,2.8-11.2,9.2c0,0.5,0,2.6,2.9,5.1            C23.8,34.6,32.8,32,33.1,25.8"/>
										<path id="Path_27" class="st3" d="M23.9,22.7c3.4-5.4,5,0.2,3,3.4c-1.2,1.2-3,1.6-4.7,1c-1.6-0.8-2.4-2.5-2.2-4.3            C20.1,19.1,23.2,19.3,23.9,22.7"/>
									</g>
								</g>
							</g>
						</g>
					</g>
				</g>
			</g>
		</g>
	</g>
</g>
</svg>