<?xml version="1.0" encoding="utf-8"?>
<!-- Generator: Adobe Illustrator 27.2.0, SVG Export Plug-In . SVG Version: 6.00 Build 0)  -->
<svg version="1.1" id="Layer_1" width='51' height='51' xmlns="http://www.w3.org/2000/svg" xmlns:xlink="http://www.w3.org/1999/xlink" x="0px" y="0px"
	 viewBox="0 0 63.8 62.7" style="enable-background:new 0 0 63.8 62.7;" xml:space="preserve">
<style type="text/css">
	.st00000{fill:#5791AF;}
	.st11111{fill:#C9BEA6;}
	.st22222{fill:#8BAAD1;}
	.st33333{fill:#092B39;}
</style>
<g>
	<path id="Path_8" class="st00000" d="M56.4,30.3c0,14.1-11.5,25.6-25.6,25.6S5.2,44.4,5.2,30.3c0-14.1,11.5-25.6,25.6-25.6
		S56.4,16.2,56.4,30.3L56.4,30.3"/>
</g>
<g>
	<path id="Path_1760" class="st00000" d="M56.2,30.2c0,14.1-11.4,25.5-25.5,25.5S5.2,44.3,5.2,30.2S16.6,4.7,30.7,4.7
		S56.2,16.1,56.2,30.2"/>
</g>
<g>
	<path id="Path_1761" class="st11111" d="M38.1,17.9c0.4,1.8,1.5,3.3,3.2,4.1c-3.9,0.7-8-0.2-11.9,0.1c-2.1-0.1-4.2,0.2-6.3,0.3
		c-2.5,0.3-3.9-1.7-4.8-3.7c-0.5-1.3-0.7-2.7-0.6-4.1c0.5-1,1.5-1.5,2.6-1.5c1.4,0,2.7,0,4.1-0.1c5.7,0.1,11.5-1.2,17.2-0.2
		C39.3,13.4,37.9,15.6,38.1,17.9"/>
	<path id="Path_1762" class="st22222" d="M45.3,30.4c0.3,4.7,0.1,9.2,0,14c0,1.4-2.1,1.3-3.1,1.4c-4.4,0.3-8.8,0.2-13.1-0.1
		c-1.3-0.2-2.6-0.3-3.9-0.1c-2.6-0.1-4.8,0-7.4-0.1c-1.9,0.2-1-10.7-1.4-12.6c-0.3-5-0.3-10.1,0.1-15.1c0-0.1,0.1-0.1,0.1-0.1
		c0.1,0,0.1,0.1,0.1,0.1c0.3,1.2,0.8,2.4,1.5,3.5c0.5,1,1.5,1.6,2.5,1.9c4.2,1.3,8.6,0.2,12.9,0.5c2.1,0,4.2-0.1,6.4-0.3
		c1.5-0.2,2.6-0.2,4.1-0.2c0.5,0,0.8,0.1,0.9,0.6C45.5,26.2,44.9,28.1,45.3,30.4"/>
	<path id="Path_1763" class="st33333" d="M46.8,28.6c0.3,3.6,0.2,7.3-0.2,10.9c0,1.1,0,2.2,0,3.3c0,1.1,0.5,2.2,0,3.2
		c-0.6,1.4-3.2,1.3-4.4,1.3c-1.7-0.2-3.5,0.2-5.2,0.1c-2.8,0-5.5-0.1-8.3-0.1c-2.5,0.2-5.1,0.3-7.6,0.2c-1.4,0.1-2.9,0-4.3-0.4
		c-1.2-0.4-1.3-1.7-1.4-2.8c-0.1-2-0.4-4.2-0.5-6.2c0.1-2.6-0.2-4.9-0.2-7.4c0.1-2.8,0.1-5.7,0.2-8.5c0-2.7,0.4-5.4,1-8
		c0.2-1.3,3.1-2.2,4.2-2.4C24,10.8,28,11.5,32,11.3c2.9-0.2,5.8-0.2,8.7,0c1.4,0.1,2.8-0.3,4.2,0.1c0.8,0.2,2.5,1.2,1,1.8
		c-1.4,0.4-3.1-0.5-4.4,0.1c-1.2,0.8-2.7,1.7-2.7,3.3c-0.2,1.2,0.1,2.3,0.8,3.3c2.7,3.7,6.9,0.4,6.9,2.6
		C46.2,24.5,46.3,26.6,46.8,28.6 M45.3,44.4c0.1-4.8,0.3-9.2,0-14c-0.4-2.3,0.2-4.2-0.3-6.6c-0.1-0.5-0.4-0.6-0.9-0.6
		c-1.5,0-2.6,0.1-4.1,0.2c-2.1,0.2-4.2,0.3-6.4,0.3c-4.3-0.4-8.7,0.8-12.9-0.5c-1.1-0.2-2-0.9-2.5-1.9c-0.7-1.1-1.2-2.3-1.5-3.5
		c0-0.1-0.1-0.1-0.2-0.1c-0.1,0-0.1,0.1-0.1,0.1c-0.4,5-0.4,10.1-0.1,15.1c0.5,1.9-0.5,12.7,1.4,12.6c2.6,0.1,4.8,0,7.4,0.1
		c1.3-0.1,2.6-0.1,3.9,0.1c4.4,0.3,8.8,0.3,13.1,0.1C43.2,45.7,45.3,45.8,45.3,44.4 M41.2,21.9c-1.6-0.8-2.8-2.3-3.2-4.1
		c-0.2-2.3,1.2-4.4,3.4-5.2C35.8,11.7,30,13,24.3,12.9C23,13,21.6,13,20.3,13c-1.1,0-2.1,0.6-2.6,1.5c-0.1,1.4,0.1,2.8,0.6,4.1
		c0.9,2,2.3,4.1,4.8,3.7c2.1-0.1,4.2-0.4,6.3-0.3C33.3,21.8,37.3,22.7,41.2,21.9"/>
</g>
</svg>
