<?xml version="1.0" encoding="utf-8"?>
<svg  version="1.1" id="Layer_1" xmlns="http://www.w3.org/2000/svg" xmlns:xlink="http://www.w3.org/1999/xlink" x="0px" y="0px"
	 viewBox="0 0 63.8 62.7" style="enable-background:new 0 0 63.8 62.7;" xml:space="preserve">
<style type="text/css">
	.sty0{clip-path:url(#SVGID_00000024697782630989876320000017448266457337866425_);}
	.sty1{fill:#5691AF;}
	.sty2{clip-path:url(#SVGID_00000046299883796854184870000014595374067823142022_);}
	.sty3{fill:#ED1C24;}
	.sty4{fill:#0A2B39;}
</style>
<g id="Group_8">
	<g>
		<defs>
			<rect id="SVGID_1_" x="4.7" y="5" width="51" height="51"/>
		</defs>
		<clipPath id="SVGID_00000036973900771337850880000010519016355556011158_">
			<use xlink:href="#SVGID_1_"  style="overflow:visible;"/>
		</clipPath>
		<g id="Group_7" style="clip-path:url(#SVGID_00000036973900771337850880000010519016355556011158_);">
			<path id="Path_8" class="sty1" d="M55.9,30.6c0,14.1-11.5,25.6-25.6,25.6S4.7,44.7,4.7,30.6C4.7,16.5,16.2,5,30.3,5
				S55.9,16.5,55.9,30.6L55.9,30.6"/>
		</g>
	</g>
</g>
<g id="Group_10">
	<g>
		<defs>
			<rect id="SVGID_00000143609574984316874480000015300136858692818872_" x="4.7" y="5" width="51" height="51"/>
		</defs>
		<clipPath id="SVGID_00000003796350186329228410000011398492109237681338_">
			<use xlink:href="#SVGID_00000143609574984316874480000015300136858692818872_"  style="overflow:visible;"/>
		</clipPath>
		<g id="Group_9" style="clip-path:url(#SVGID_00000003796350186329228410000011398492109237681338_);">
			<path id="Path_9" class="sty3" d="M36.9,33.4c3.3-1.2,10.4-1.3,10.4-1.2c-0.7,3-2.7,5.5-5.4,6.9c-3,1.4-7.7,2.3-11.9,2.5
				c-5.4,0-9.7-0.5-13.6-3.4c-2-1.5-3.3-3.7-3.6-6.2c2.3-0.7,8.3,0.1,10.9,1.1c1.9,0.7,2.5,2,6.3,2.1C34.4,35.2,34.6,34.3,36.9,33.4
				"/>
			<path id="Path_10" class="sty3" d="M44.7,24.2c1.8,1.4,2.8,3.6,2.8,5.9c-2.3-0.3-8,0.4-11.5,1.3c-1.7,0.5-4,1.4-5.8,1.3
				c-2-0.1-3.3-1-5.5-1.6c-5.2-1.5-12.5-1.3-12.5-1.3c-0.3-2.7,1-5.3,3.3-6.7c2.7-2,9.2,0.1,11.2,1.7c2.4,1.7,4.2,0.9,5.9-0.2
				c1.7-1.1,3.4-2.5,5.6-2.2C40.8,22.8,43.2,22.8,44.7,24.2"/>
			<path id="Path_11" class="sty4" d="M49.6,28.8c0.1,2.3-0.2,5.7-1.6,7.6c-2.9,4.5-10.3,7.1-16.7,7.2c-6,0.1-14.1-1-17.7-5.2
				c-1.6-2.2-2.7-4.7-3.2-7.4c-0.7-2.9,0.1-6,2.1-8.2c2.5-2.7,9.9-4.1,14.1-1c4.7,3.5,4.8-1.5,10-1.6c3.4-0.3,8.3,0.9,10.5,3.3
				C48.3,25,49.2,26.8,49.6,28.8 M47.5,30.1c0-2.3-1-4.5-2.8-5.9c-1.6-1.3-4-1.4-6.5-1.9c-2.2-0.4-3.9,1.1-5.6,2.2
				c-1.7,1.1-3.5,1.9-5.9,0.2c-2-1.6-8.4-3.7-11.2-1.7c-2.3,1.4-3.6,4-3.3,6.7c0,0,7.3-0.2,12.5,1.3c2.2,0.7,3.5,1.6,5.5,1.6
				c1.8,0.1,4.1-0.9,5.8-1.3C39.5,30.5,45.2,29.8,47.5,30.1 M47.3,32.2c0,0-7,0-10.4,1.2c-2.3,0.8-2.5,1.8-7,1.7
				c-3.8-0.1-4.4-1.4-6.3-2.1c-2.5-1-8.5-1.8-10.9-1.1c0.3,2.5,1.6,4.8,3.6,6.2c3.9,2.9,8.2,3.4,13.6,3.4c4.2-0.2,8.9-1.1,11.9-2.5
				C44.6,37.7,46.6,35.2,47.3,32.2"/>
		</g>
	</g>
</g>
</svg>
