<?xml version="1.0" encoding="utf-8"?>
<!-- Generator: Adobe Illustrator 27.2.0, SVG Export Plug-In . SVG Version: 6.00 Build 0)  -->
<svg version="1.1" id="Layer_1" xmlns="http://www.w3.org/2000/svg" xmlns:xlink="http://www.w3.org/1999/xlink" x="0px" y="0px"
	 viewBox="0 0 63.8 62.7" style="enable-background:new 0 0 63.8 62.7;" xml:space="preserve">
<style type="text/css">
	.st0{fill:#5791AF;}
	.st1{clip-path:url(#SVGID_00000085950249054080717230000003206748061910661054_);}
	.st2{clip-path:url(#SVGID_00000019667633499678919230000007601687963849998527_);fill:#C9BEA6;}
	.st3{clip-path:url(#SVGID_00000019667633499678919230000007601687963849998527_);fill:#092B39;}
	.st4{clip-path:url(#SVGID_00000121274659687055651720000001504476120903659152_);}
	.st5{clip-path:url(#SVGID_00000116214488702044303830000015225281471678168736_);fill:#5C7A52;}
	.st6{clip-path:url(#SVGID_00000116214488702044303830000015225281471678168736_);fill:#092B39;}
	.st7{fill:#092B39;}
</style>
<g>
	<path id="Path_1764" class="st0" d="M56.3,30.3c0,14.1-11.4,25.5-25.5,25.5S5.3,44.4,5.3,30.3S16.7,4.8,30.8,4.8
		S56.3,16.2,56.3,30.3"/>
</g>
<g>
	<g>
		<defs>
			<rect id="SVGID_1_" x="12" y="13.7" width="28.6" height="32.4"/>
		</defs>
		<clipPath id="SVGID_00000136396072124711505240000003677473853173623217_">
			<use xlink:href="#SVGID_1_"  style="overflow:visible;"/>
		</clipPath>
		<g style="clip-path:url(#SVGID_00000136396072124711505240000003677473853173623217_);">
			<defs>
				<rect id="SVGID_00000013900817791213909780000007607427403180343451_" x="12" y="13.7" width="28.6" height="32.4"/>
			</defs>
			<clipPath id="SVGID_00000138548529950877541450000006347879555325754505_">
				<use xlink:href="#SVGID_00000013900817791213909780000007607427403180343451_"  style="overflow:visible;"/>
			</clipPath>
			<path id="Path_1765" style="clip-path:url(#SVGID_00000138548529950877541450000006347879555325754505_);fill:#C9BEA6;" d="
				M39.3,24.7c0.2,4.6,0.2,10.4,0.1,15c-0.2,6.2,1.8,4.8-4.5,5.3c-5.9-0.1-11.7-0.1-17.6-0.3c-0.9,0-4.1,0.5-4.1-0.3
				c-0.1-2.2-0.1-4.5,0-6.7c-0.1-4.2-0.4-8.4-0.4-12.6c0.2-2.6,0.3-5.3,0.3-7.9c0.2-3-0.2-2,2.6-1.9c4.1,0.1,8.3-0.2,12.4-0.5
				c1.8,0.1,3.6-0.2,5.4-0.2c1.9,0,5.3-0.2,5.6,0.1c0.4,1.1,0,2.1,0.2,3.2C39.3,20.2,39.5,22.5,39.3,24.7"/>
			<path id="Path_1766" style="clip-path:url(#SVGID_00000138548529950877541450000006347879555325754505_);fill:#092B39;" d="
				M40.4,29.8c0.1,4.3,0.1,8.5,0.1,12.5c0.1,4.8,0.8,2.7-4.8,3.5c-6.1,0.5-12.4-0.4-18.5,0c-1.5,0.2-3,0.1-4.5,0.4
				c-1.1,0.3-0.5-3.6-0.6-4.3c0.2-4.7-0.1-9.4-0.1-14.1c0.1-4.3-0.2-8.6,0.4-12.8c0.2-1.3,2.3-0.5,3.1-0.7c1.7,0,3.3-0.2,5-0.3
				c5.3-0.4,10.5-0.1,15.8-0.3c1.1-0.1,2.2,0,3.4,0.1c0.8,0.2,0.6,5.4,0.6,7.3C40.3,24,40.3,26.9,40.4,29.8 M39.4,39.7
				c0.1-4.6,0.1-10.4-0.1-15c0.2-2.3,0-4.5,0-6.8c-0.2-1.2,0.2-2.1-0.2-3.2c-0.3-0.3-3.7,0-5.6-0.1c-1.8,0-3.6,0.3-5.4,0.2
				c-4.1,0.3-8.2,0.6-12.4,0.5c-2.8-0.1-2.4-1.1-2.6,1.9c0,2.6-0.1,5.3-0.3,7.9c0,4.2,0.3,8.4,0.4,12.6c-0.1,2.2-0.1,4.5,0,6.7
				c0.1,0.7,3.3,0.2,4.1,0.3c5.9,0.1,11.7,0.1,17.6,0.3C41.2,44.5,39.2,45.9,39.4,39.7"/>
		</g>
	</g>
	<g>
		<defs>
			<rect id="SVGID_00000106123448597304899920000009291485154072933026_" x="43.2" y="13.7" width="6" height="31.2"/>
		</defs>
		<clipPath id="SVGID_00000101784712569071284290000005481890505191691194_">
			<use xlink:href="#SVGID_00000106123448597304899920000009291485154072933026_"  style="overflow:visible;"/>
		</clipPath>
		<g style="clip-path:url(#SVGID_00000101784712569071284290000005481890505191691194_);">
			<defs>
				<rect id="SVGID_00000032631610870424055430000011905818330498982789_" x="43.2" y="13.7" width="6" height="31.2"/>
			</defs>
			<clipPath id="SVGID_00000106844291036227213940000006835453086811240610_">
				<use xlink:href="#SVGID_00000032631610870424055430000011905818330498982789_"  style="overflow:visible;"/>
			</clipPath>
			<path id="Path_1767" style="clip-path:url(#SVGID_00000106844291036227213940000006835453086811240610_);fill:#5C7A52;" d="
				M47.7,40.7c0,1-0.3,2-0.7,3c-0.6,1.1-1.5-2.5-1.6-2.9c-0.1-0.5,0.6-0.3,0.8-0.3C46.4,40.6,47.6,40.1,47.7,40.7"/>
			<path id="Path_1768" style="clip-path:url(#SVGID_00000106844291036227213940000006835453086811240610_);fill:#5C7A52;" d="
				M48.3,30.6c0.2,2.7,0,5.2,0,7.9c0,0.4-0.1,0.6-0.3,0.6c-0.8,0-2.3,0.4-3,0.2c-0.3-0.1-0.4-0.3-0.4-0.6c-0.1-2.4-0.4-4.7-0.4-7
				c-0.1-4.4,0-8.6,0.1-13c0-1.3,0-2.7,0.1-4.1c4.7-0.4,3.1,0.1,3.5,4.5C47.9,23,48,26.8,48.3,30.6"/>
			<path id="Path_1769" style="clip-path:url(#SVGID_00000106844291036227213940000006835453086811240610_);fill:#092B39;" d="
				M49.1,39.2c0,0.8-0.5,0.7-0.6,1.3c-0.2,1.3-0.5,2.5-0.8,3.8c-1,1.3-1.9,0.4-2.5-0.8c-0.7-1.1-0.6-2.6-1.5-3.6
				c-0.2-0.2-0.3-0.4-0.2-0.7c0.2-2.2,0.2-4.4-0.1-6.5c-0.3-4.2-0.1-8.4-0.1-12.5c0-1.6,0-3.3-0.1-4.9c0.1-0.5-0.4-1.5,0.5-1.3
				c1.5,0.1,3-0.1,4.5-0.1c0.3,0,0.3,0.5,0.3,0.7c0.1,5.1,0.5,10.2,0.5,15.3C49.4,32.9,49,35.9,49.1,39.2 M48.3,38.6
				c0-2.7,0.2-5.2,0-7.9c-0.2-3.8-0.4-7.7-0.5-11.5c-0.5-4.4,1.2-4.8-3.5-4.5c0,1.4,0,2.7-0.1,4.1c-0.1,4.4-0.2,8.6-0.1,13
				c0.1,2.3,0.3,4.6,0.4,7c-0.1,0.3,0.1,0.5,0.4,0.6c0.7,0.3,2.2-0.2,3-0.2C48.2,39.2,48.3,38.9,48.3,38.6 M47,43.6
				c0.5-0.9,0.7-1.9,0.7-3c-0.1-0.5-1.3-0.1-1.5-0.2c-0.2,0-0.9-0.2-0.8,0.3C45.5,41.2,46.4,44.7,47,43.6"/>
		</g>
	</g>
	<path id="Path_1770" class="st7" d="M31.5,29.1C31,28.7,31.1,28,31,27.5c-0.5,0.4-0.4,1-0.8,1.5c-0.5-0.3-0.3-0.8-0.5-1.3
		c-0.4,0.5-0.5,1.2-0.9,1.7c-0.7,0.4-0.4-1.3-0.4-1.7c0.6,0.1,0.1,0.8,0.3,1.2c0.6-0.7,1.1-3.5,1.4-0.9c0.4-0.3,0.4-0.9,0.8-1
		c0.4,0.4,0.3,0.8,0.4,1.4c0.3-0.4,0.5-1.1,1-1c0.3,0.5,0.4,1.1,0.3,1.6c-0.5-0.3-0.2-0.8-0.4-1.2C31.8,28,31.8,28.7,31.5,29.1"/>
	<path id="Path_1771" class="st7" d="M23.2,28c-0.2,0.3-0.1,2-0.6,1.2c-0.1-0.4,0-0.9-0.4-1.1c-0.1,0.4,0.1,1.3-0.5,1.5
		c-0.3,0.1-0.5-2.5-0.3-2.4c0.3,0.3,0.1,0.9,0.3,1.4c0.4-0.9,0.5-2.2,1-0.3c0.3-0.2,0.2-0.6,0.3-0.9c0.7-0.9,0.6,1.3,0.9,1.6
		c0.4-2,1-3.6,1.5-0.5c0.9-2.2,1.6,1.7,0.8,0.6c-0.1-0.3-0.2-0.6-0.3-0.9c-0.9,2.8-0.8,0.2-1.2-0.9c-0.5,0.4-0.3,2.9-1.1,2.5
		C23.5,29.2,23.6,28.2,23.2,28"/>
	<path id="Path_1772" class="st7" d="M23.7,19.9c-0.4,1.3-0.6,0.3-1.1-0.2c-0.4,0.4-0.4,1.6-1.1,1.3c-0.5-0.5-0.1-3.5,0-1.2
		c0.1,0.3,0,0.7,0.2,1c0.8-0.7,0.5-2.3,1.6-0.6c0.5-1.4,0.8,0,1.1,0.6c0.3-0.3,0.2-0.9,0.3-1.3c0.7-1.7,0.9,2.8,1.3,0.2
		c0.7,0,0.7,0.6,0.9,1.1c0.3-0.5,0.1-1.7,0.7-1.8c0.7,1.4,0.6,2.9-0.2,0.4c-0.4,0.8-0.2,3-1,0.9c-0.1-0.1-0.1-0.3-0.3-0.3
		c-0.4,2.6-0.6,0.2-1.2-0.6C24.5,21.1,24.7,22,23.7,19.9"/>
	<path id="Path_1773" class="st7" d="M15.7,28.1c0.1-0.4-0.2-1.4,0.3-1.6c0.9-0.1,2.8-0.2,2.9,0.1c0.1,0.5,0.1,1,0.1,1.5
		c0.1,1,0.2,2.4-0.2,2.6c-0.5,0.1-1,0.2-1.5,0.1c-0.7,0-1.1,0.1-1.3-0.1c-0.1-0.1-0.2-0.3-0.2-1.2C15.8,29.6,15.7,28.1,15.7,28.1
		 M16.1,29c0,0.8-0.1,1.2,0.1,1.5c0.8,0.2,1.7,0.2,2.5,0c0.1-0.8,0.1-1.5,0.1-2.3c0.1-0.4,0-0.9-0.2-1.2c-0.7-0.2-1.4-0.2-2.1-0.1
		C15.6,26.9,16.1,28.2,16.1,29"/>
	<path id="Path_1774" class="st7" d="M15.5,19c0-0.3,0.1-0.6,0.3-0.8c0.3-0.3,0.7-0.2,1.9-0.1c0.4,0,0.5,0,0.7,0.2
		c0.4,0.5,0.1,1.5,0.3,2.4c0.1,0.4,0,0.8-0.1,1.2c-0.1,0.2-0.3,0.4-0.6,0.3c-0.8,0-1.7,0.2-2.1-0.2c-0.2-0.2-0.2-0.6-0.3-1.3
		C15.6,20.8,15.5,19.5,15.5,19 M17.4,21.9c0.4-0.1,1,0.1,0.9-0.4c-0.1-0.9,0.4-2.6-0.2-3.2c-0.1-0.1-0.3-0.1-0.4-0.1
		c-1.2,0-2.1-0.6-1.9,1.2c0.2,0.7-0.2,1.9,0.2,2.4C16.2,22,17.4,21.9,17.4,21.9"/>
</g>
</svg>
