<?xml version="1.0" encoding="utf-8"?>
<!-- Generator: Adobe Illustrator 27.2.0, SVG Export Plug-In . SVG Version: 6.00 Build 0)  -->
<svg version="1.1" id="Layer_1" xmlns="http://www.w3.org/2000/svg" xmlns:xlink="http://www.w3.org/1999/xlink" x="0px" y="0px"
	 viewBox="0 0 63.8 62.7" style="enable-background:new 0 0 63.8 62.7;" xml:space="preserve">
<style type="text/css">
	.st0{fill:#5791AF;}
	.st1{fill:#092B39;}
	.st2{fill:#999999;}
	.st3{fill:#C7B299;}
	.st4{fill:#5C7A52;}
</style>
<g>
	<path id="Path_12" class="st0" d="M56.4,30.3c0,14.1-11.5,25.6-25.6,25.6S5.2,44.4,5.2,30.3c0-14.1,11.5-25.6,25.6-25.6
		S56.4,16.2,56.4,30.3L56.4,30.3"/>
	<g>
		<g>
			<path id="Path_13" class="st1" d="M51.1,22.2c0.5,1.7,2.1,3.5,1,5.2c-0.7,0.8-1.8,1.3-2.9,1.2c-1.5-0.1-2.3-3.3-3.3-3.6
				c0.3,1.1,0.4,2.2,0.2,3.3c-0.1,1.8-0.5,3.6-0.9,5.4c-0.1,0.8-0.2,1.6-0.4,2.3c-0.3,1-1.2,1.7-1.5,2.7c-0.3,1.7-0.3,2.7-0.9,3.3
				s-1.7,0.7-3.6,0.6c0,0,0.3,2.5,0,2.9c-0.2,0.2-0.3,0.5-0.2,0.8c0,1.3-0.1,2.6-0.1,3.8c-0.1,1-0.2,3.4-1.3,3.4
				c-1,0-1.6-1.3-1.9-2.2c-0.6-1.4-1.5-3.4-1.9-4.9c-0.2-0.8-0.5,0.1-0.8-0.8c-0.1-0.4-0.4-1.5-0.4-1.5c-0.9,1.1-2.3,1.8-3.7,1.6
				c-1.9-0.4-3.5-1.6-4.4-3.3c-2.8-4-5-5.6-10-5.4c-1.2-0.1-2.4-0.1-3.6-0.1c-0.5,0.1-1,0-1-0.6c0-3.4,0.2-6.8-0.1-10.2
				c0.1-0.7-0.3-4.7,0.6-4.5c2.4,0.2,4.6,0.2,7,0.3c1.5,0,4.2,0.2,5.5-0.5c1.5-0.7,2.8-1.6,3.9-2.8c0.5-0.5,1.8-2,1.8-2.1
				c-0.2-1.8-0.5-3.1-0.7-4.6c-0.1-0.9-0.2-1.8-0.4-2.7c-0.1-1,1.4-0.9,2.5-1.1c1-0.2,3.5-0.9,3.6,0.5c0.3,1.8,0.5,3.6,0.9,5.4
				c0.1,0.5,0.2,1.4,0.2,1.4c1.7-0.5,3.5-0.6,5.3-0.5C44.4,15.1,48.8,17.9,51.1,22.2 M51.8,26.7c0.1-1.3-0.7-2.5-1.2-3.7
				c0,0,0-0.1-0.1-0.1l0,0c-0.6-1-1.7,0.8-1.5,1.5c0.1,0.4,0.1,0.7,0.2,1.1c0.1,0.2,0.1,0.4,0.3,0.6C50,26.8,51.4,27.7,51.8,26.7
				 M50.2,28c0.2,0,0.3-0.3,0.4-0.4c-0.7-0.6-1.7-1-1.9-2.1c-0.2-1.2-0.4-2.7,0.9-3.3c0.2-0.1,0.3-0.3,0.2-0.5
				c-0.2-0.6-2.7-4.2-3.1-2.7c-0.1,0.4-0.7,0.2-0.6-0.2c0-0.3,0.4-0.7,0.2-1c-0.4-0.2-0.6,0.6-0.8,0.8c-0.2,0.3-0.4,0.1-0.5-0.1
				c-0.2-0.6,0.9-0.9,0.5-1.4c-0.6-0.4-0.9,0.6-1.2,0.9c-0.2,0.3-0.8,0.6-0.8,0.1c0.1-0.6,1-0.8,0.9-1.5c-0.3-0.3-0.7,0.2-1,0.2
				c-0.2-0.1-0.2-0.6-0.5-0.7c-1.5-0.6-3-0.8-4.6-0.7c-1.1,0.1-3.8,0.6-3.8,0.6c0.5,3.5,1.7,9.9,2.3,13.4c0.9,0.9,1.3,0.9,1.6,2.3
				c0.2,0.8-0.3,4.8-0.1,7.6c0.1,1.7,0.3,2.7,1.4,2.3c-0.2-1.5-0.3-4.2,0.4-5.6c0.7-1.3,2.9-0.1,2.8-1.1c-0.2-0.8,0.1-2.8-1.2-2
				c-0.5,0.2-0.5-0.5-0.1-0.7c0.3-0.1,0.6-0.1,0.6-0.5c-0.4-0.4-1.5,0.6-1.8,0c-0.1-0.2,0-0.3,0.1-0.4c0.4-0.2,1.5-0.1,1.6-0.6
				c-0.2-0.5-0.9,0-1.3,0c-0.1,0-0.4,0.1-0.4-0.2c-0.1-0.6,0.7-0.4,1-0.6c1-0.2-0.8-3.2-0.9-3.9s-1.3-1.6-1.2-2.1
				c1-0.9,2.2,2.4,2.5,3.1c0.7,1.7,1.3,3.4,1.6,5.2c0.1,1.4,0.1,2.8,0.3,4.2c1.2-1,0.7-5.7,0.5-7.3c0-0.4-0.3-0.5-0.7-0.4
				c-0.3-0.1-0.5-0.2-0.3-0.5c0-0.3,0.2-0.2,0.4-0.2c0.1,0,0.3-0.1,0.3-0.2c0-0.1,0-0.2-0.1-0.2c-0.1-0.1-0.2-0.1-0.4,0.1
				c-0.2,0.4-0.8,0-0.5-0.3c0.4-0.5,0.9-1.2-0.2-0.9c-0.5,0-0.4-0.7,0.1-0.6c0.2,0,0.3-0.1,0.4-0.3c0,0,0-0.1,0-0.1
				c-0.1-0.4-2-3.8-0.9-3.4c0.9,1.2,1.6,2.6,2.1,4c0.6,1,0.6,2.4,0.9,3.4c0.4-2.4,0.1-4.8-0.8-7c-0.2-0.6,0.1-0.8,0.6-0.5
				c0.7,0.7,1.3,1.6,1.7,2.6C47.5,25.9,48.1,28.3,50.2,28 M42.6,38.5c0-0.9,0.8-2.6-0.7-2.5c-0.8-0.1-1.5,0.4-1.7,1.2
				c0,0.1,0,0.1,0,0.2c0,1.2-0.7,3.6,0.3,4.3C42.3,42,42.3,39.7,42.6,38.5 M37.8,44.9c0.6-0.1-1.5-14.8-2.9-22
				c-0.8-4.4-1.4-8.2-2.3-12.4c0-0.7-0.2-1.4-0.5-2.1c-0.4-0.5-1.7,0.1-3.6,0.3c-0.3,0-0.6,0.1-0.7,0.3c-0.1,0.7,0,1.3,0.1,2
				c0.2,1.1,0.4,2.2,0.5,3.4c0.4,3.8,0.9,7.6,1.4,11.4c0.2,1.1,0.5,3.9,0.6,4.3c0.6,4.4,1.4,8.7,2.4,13.2c0.2,0.9,0.1,2.2,0.7,2.1
				C34.9,45.1,37.1,45,37.8,44.9 M37.7,49c0-1.1,0.3-3.4-0.5-3.3c-0.9,0.1-1.4,0.2-2.3,0.3c-1.4-0.1,0.1,3.1,0.5,3.9
				c0.2,0.4,0.3,0.8,0.5,1.1c0.1,0.2,0.2,0.3,0.4,0.3l1-0.1c0.2,0,0.3-0.2,0.3-0.4C37.7,50.2,37.7,49.6,37.7,49 M37.6,35.9
				c0.1-1.4,0.1-2.8,0-4.3c-0.2-0.4-0.4-0.8-0.8-1.1L37.6,35.9z M31.5,43.5c1.1-1.2,0-3.5-1.1-4.5c-1.6-1.5-5.4-3.8-5.5-5.9
				c-0.1-0.8,0.1-1.5,0.5-2.2c0.5-0.6,1.1-1.2,1.8-1.6c0.7-0.4,1.5-0.6,2.3-0.8c0,0-0.3-2.5-0.4-2.7c-0.5-2.9-0.6-5.3-1-8.2
				c0,0-1.8,2-2.8,2.8c-2.3,2-5.5,2.2-8.5,2.1c-2.9-0.1-6.7-0.4-6.7-0.2c0.2,4.5,0.1,13.8,0.1,13.8c1.8-0.1,3.5,0,5.3,0.2
				c1.4,0,2.7,0.2,4,0.7c0.8,0.5,1,0.6,1.5-0.3c0.1-0.4,0.7-0.6,0.7-0.1c0.2,0.5-1,1.2-0.4,1.5c0.1,0,0.2,0,0.2-0.1
				c0.3-0.6,0.8-1.7,1.6-1.2c-0.1,0.2-0.1,0.5-0.3,0.6c-0.6,0.5-1.6,1.9-0.1,1.8c0.1,0,0.2,0.1,0.2,0.2c0,0.2,0,0.4,0.1,0.6
				c0.4,0.8,0.9,1.6,1.6,2.2c-0.1-1.5,1.1-2.8,2.7-2.9c0.2,0,0.4,0,0.6,0C30,39.6,31.4,41,31.5,43.5 M31.3,38.7
				c-0.3-1.6-0.7-3.9-1-5.5c-0.2-1-0.6-3.7-0.6-3.7c-5.3,1.4-4.5,4.1-1.2,6.6C28.8,36.5,31.3,38.7,31.3,38.7 M28.9,44.8
				c2.4,0,2.3-2,1.2-3.6c0,0-0.1-0.1-0.1-0.1l0,0c-1.3-2.1-5.8-1.4-4.6,1.5c0.1,0.2,0.2,0.4,0.4,0.6C26.5,44.2,27.7,44.9,28.9,44.8"
				/>
			<path id="Path_14" class="st2" d="M50.6,23c0.5,1.1,1.3,2.4,1.2,3.7c-0.4,1.1-1.8,0.2-2.3-0.6c-0.1-0.2-0.2-0.4-0.3-0.6
				c-0.1-0.4-0.2-0.7-0.2-1.1c-0.2-0.7,0.8-2.5,1.5-1.5L50.6,23C50.5,22.9,50.6,23,50.6,23"/>
			<path id="Path_15" class="st3" d="M50.6,27.5c-0.1,0.2-0.1,0.5-0.4,0.4c-2.1,0.3-2.7-2.1-3.6-3.5c-0.4-1-1-1.8-1.7-2.6
				c-0.5-0.3-0.8-0.1-0.6,0.5c1,2.2,1.3,4.6,0.8,7c-0.3-1-0.3-2.4-0.9-3.4c-0.5-1.4-1.2-2.8-2.1-4c-1.1-0.4,0.8,3,0.9,3.4
				c0,0.2-0.1,0.4-0.2,0.4c0,0-0.1,0-0.1,0c-0.4-0.1-0.5,0.6-0.1,0.6c1.1-0.3,0.6,0.4,0.2,0.9c-0.3,0.3,0.3,0.7,0.5,0.3
				c0.1-0.1,0.2-0.2,0.4-0.1c0.1,0.1,0.1,0.3,0,0.4c-0.1,0.1-0.1,0.1-0.2,0.1c-0.2,0-0.4-0.1-0.4,0.2c-0.2,0.3,0.1,0.4,0.3,0.5
				c0.4-0.1,0.7-0.1,0.7,0.4c0.1,1.6,0.7,6.3-0.5,7.4c-0.1-1.4-0.1-2.8-0.3-4.2c-0.3-1.8-0.9-3.5-1.6-5.2c-0.4-0.7-1.5-4-2.5-3.1
				c-0.1,0.5,1,1.4,1.2,2.1s2,3.6,0.9,3.9c-0.4,0.2-1.2,0-1,0.6c0,0.3,0.2,0.2,0.4,0.2c0.4,0,1.1-0.5,1.3,0
				c-0.1,0.5-1.1,0.4-1.6,0.6c-0.2,0-0.2,0.2-0.1,0.4c0.3,0.6,1.4-0.4,1.8,0c0,0.4-0.4,0.4-0.6,0.5C41,32.5,41,33.2,41.5,33
				c1.4-0.8,1,1.2,1.2,2c0.2,1-2-0.3-2.8,1.1c-0.7,1.4-0.6,4.1-0.4,5.6c-1.1,0.4-1.3-0.6-1.4-2.3c-0.2-2.8,0.3-6.8,0.1-7.6
				c-0.3-1.4-0.7-1.4-1.6-2.3c-0.6-3.4-1.9-9.9-2.3-13.4c0,0,2.7-0.6,3.8-0.6c1.6-0.1,3.1,0.1,4.6,0.7c0.3,0,0.3,0.5,0.5,0.7
				c0.3,0,0.7-0.5,1-0.2c0,0.7-0.9,0.9-0.9,1.5c0,0.6,0.6,0.2,0.8-0.1c0.4-0.3,0.6-1.3,1.2-0.9c0.4,0.5-0.7,0.8-0.5,1.4
				c0.1,0.2,0.3,0.4,0.5,0.1c0.2-0.2,0.4-1.1,0.8-0.8c0.3,0.3-0.1,0.7-0.2,1c-0.1,0.4,0.5,0.6,0.6,0.2c0.4-1.6,2.9,2.1,3.1,2.7
				c0.1,0.2,0,0.4-0.2,0.5c-1.3,0.6-1.1,2.2-0.9,3.3C48.9,26.5,49.9,26.9,50.6,27.5"/>
			<path id="Path_16" class="st2" d="M41.9,36c1.5-0.1,0.7,1.6,0.7,2.5c-0.3,1.2-0.3,3.5-2.1,3.2c-1-0.8-0.3-3.2-0.3-4.3
				c0-0.8,0.7-1.4,1.5-1.4C41.8,36,41.8,36,41.9,36"/>
			<path id="Path_17" class="st4" d="M34.9,22.9c1.4,7.3,3.4,22,2.9,22c-0.7,0.1-2.8,0.2-4.2,0.4c-0.6,0.1-0.5-1.2-0.7-2.1
				c-1-4.5-1.9-8.8-2.4-13.2c-0.1-0.4-0.4-3.2-0.6-4.3c-0.5-3.8-0.9-7.6-1.4-11.4c-0.1-1.1-0.3-2.3-0.5-3.4c-0.2-0.6-0.2-1.3-0.1-2
				c0.1-0.2,0.4-0.3,0.7-0.3c1.9-0.2,3.1-0.8,3.6-0.3c0.3,0.7,0.4,1.4,0.5,2.1C33.5,14.7,34.1,18.5,34.9,22.9"/>
			<path id="Path_18" class="st4" d="M37.2,45.7c0.8-0.1,0.6,2.2,0.5,3.3c0,0.6-0.1,1.2-0.1,1.8c0,0.2-0.2,0.4-0.3,0.4l-1,0.1
				c-0.2,0-0.4-0.1-0.4-0.3c-0.2-0.4-0.4-0.7-0.5-1.1c-0.4-0.8-1.9-3.9-0.5-3.9C35.8,45.9,36.3,45.8,37.2,45.7"/>
			<path id="Path_19" class="st3" d="M30.4,39c1,1,2.1,3.3,1.1,4.5c-0.1-2.5-1.5-3.9-3.4-4.3c-1.5-0.3-3,0.7-3.3,2.2
				c0,0.2-0.1,0.4,0,0.7c-0.6-0.7-1.2-1.4-1.6-2.2c-0.1-0.2-0.1-0.4-0.1-0.6c0,0-0.1-0.1-0.2-0.2c-1.5,0.2-0.5-1.3,0.1-1.8
				c0.2-0.1,0.2-0.4,0.3-0.6c-0.8-0.4-1.3,0.7-1.6,1.2c0,0.1-0.1,0.2-0.2,0.1c-0.5-0.3,0.6-1,0.4-1.5c-0.1-0.5-0.6-0.3-0.7,0.1
				c-0.5,1-0.7,0.8-1.5,0.3c-1.3-0.5-2.6-0.7-4-0.7c-1.8-0.2-3.5-0.2-5.3-0.2c0,0,0.1-9.3-0.1-13.8c0-0.2,3.8,0.1,6.7,0.2
				c3,0.1,6.3-0.1,8.5-2.1c1-0.9,2.8-2.8,2.8-2.8c0.3,2.9,0.4,5.3,1,8.2c0,0.2,0.4,2.7,0.4,2.7c-0.8,0.2-1.6,0.5-2.3,0.8
				c-0.7,0.4-1.3,1-1.8,1.6c-0.4,0.6-0.6,1.4-0.5,2.2C25,35.3,28.9,37.6,30.4,39"/>
			<path id="Path_20" class="st2" d="M30.2,41.2c1.1,1.7,1.1,3.6-1.2,3.6c-1.3,0.1-2.5-0.6-3.1-1.7c-0.1-0.2-0.2-0.4-0.4-0.6
				c-1.2-2.9,3.3-3.6,4.6-1.5l0,0C30.1,41.1,30.2,41.1,30.2,41.2"/>
		</g>
	</g>
</g>
</svg>
