<?xml version="1.0" encoding="UTF-8"?>
<svg enable-background="new 0 0 63.8 62.7" version="1.1" viewBox="0 0 63.8 62.7" xml:space="preserve" xmlns="http://www.w3.org/2000/svg" xmlns:xlink="http://www.w3.org/1999/xlink">
<style type="text/css">
	.st00000{fill:#5791AF;}
	.st11111{clip-path:url(#SVGID_00000085950249054080717230000003206748061910661054_);}
	.st22222{clip-path:url(#SVGID_00000019667633499678919230000007601687963849998527_);fill:#C9BEA6;}
	.st33333{clip-path:url(#SVGID_00000019667633499678919230000007601687963849998527_);fill:#092B39;}
	.st44444{clip-path:url(#SVGID_00000121274659687055651720000001504476120903659152_);}
	.st55555{clip-path:url(#SVGID_00000116214488702044303830000015225281471678168736_);fill:#5C7A52;}
	.st66666{clip-path:url(#SVGID_00000116214488702044303830000015225281471678168736_);fill:#092B39;}
	.st77777{fill:#092B39;}
</style>

	<path class="st00000" d="M56.3,30.3c0,14.1-11.4,25.5-25.5,25.5S5.3,44.4,5.3,30.3S16.7,4.8,30.8,4.8   S56.3,16.2,56.3,30.3"/>


	
		<defs>
			<rect id="c" x="12" y="13.7" width="28.6" height="32.4"/>
		</defs>
		<clipPath id="d">
			<use xlink:href="#c"/>
		</clipPath>
		<g clip-path="url(#d)">
			<defs>
				<rect id="h" x="12" y="13.7" width="28.6" height="32.4"/>
			</defs>
			<clipPath id="b">
				<use xlink:href="#h"/>
			</clipPath>
			<path d="m39.3 24.7c0.2 4.6 0.2 10.4 0.1 15-0.2 6.2 1.8 4.8-4.5 5.3-5.9-0.1-11.7-0.1-17.6-0.3-0.9 0-4.1 0.5-4.1-0.3-0.1-2.2-0.1-4.5 0-6.7-0.1-4.2-0.4-8.4-0.4-12.6 0.2-2.6 0.3-5.3 0.3-7.9 0.2-3-0.2-2 2.6-1.9 4.1 0.1 8.3-0.2 12.4-0.5 1.8 0.1 3.6-0.2 5.4-0.2 1.9 0 5.3-0.2 5.6 0.1 0.4 1.1 0 2.1 0.2 3.2 0 2.3 0.2 4.6 0 6.8" clip-path="url(#b)" fill="#C9BEA6"/>
			<path d="m40.4 29.8c0.1 4.3 0.1 8.5 0.1 12.5 0.1 4.8 0.8 2.7-4.8 3.5-6.1 0.5-12.4-0.4-18.5 0-1.5 0.2-3 0.1-4.5 0.4-1.1 0.3-0.5-3.6-0.6-4.3 0.2-4.7-0.1-9.4-0.1-14.1 0.1-4.3-0.2-8.6 0.4-12.8 0.2-1.3 2.3-0.5 3.1-0.7 1.7 0 3.3-0.2 5-0.3 5.3-0.4 10.5-0.1 15.8-0.3 1.1-0.1 2.2 0 3.4 0.1 0.8 0.2 0.6 5.4 0.6 7.3 0 2.9 0 5.8 0.1 8.7m-1 9.9c0.1-4.6 0.1-10.4-0.1-15 0.2-2.3 0-4.5 0-6.8-0.2-1.2 0.2-2.1-0.2-3.2-0.3-0.3-3.7 0-5.6-0.1-1.8 0-3.6 0.3-5.4 0.2-4.1 0.3-8.2 0.6-12.4 0.5-2.8-0.1-2.4-1.1-2.6 1.9 0 2.6-0.1 5.3-0.3 7.9 0 4.2 0.3 8.4 0.4 12.6-0.1 2.2-0.1 4.5 0 6.7 0.1 0.7 3.3 0.2 4.1 0.3 5.9 0.1 11.7 0.1 17.6 0.3 6.3-0.5 4.3 0.9 4.5-5.3" clip-path="url(#b)" fill="#092B39"/>
		</g>
	
	
		<defs>
			<rect id="e" x="43.2" y="13.7" width="6" height="31.2"/>
		</defs>
		<clipPath id="f">
			<use xlink:href="#e"/>
		</clipPath>
		<g clip-path="url(#f)">
			<defs>
				<rect id="g" x="43.2" y="13.7" width="6" height="31.2"/>
			</defs>
			<clipPath id="a">
				<use xlink:href="#g"/>
			</clipPath>
			<path d="m47.7 40.7c0 1-0.3 2-0.7 3-0.6 1.1-1.5-2.5-1.6-2.9-0.1-0.5 0.6-0.3 0.8-0.3 0.2 0.1 1.4-0.4 1.5 0.2" clip-path="url(#a)" fill="#5C7A52"/>
			<path d="m48.3 30.6c0.2 2.7 0 5.2 0 7.9 0 0.4-0.1 0.6-0.3 0.6-0.8 0-2.3 0.4-3 0.2-0.3-0.1-0.4-0.3-0.4-0.6-0.1-2.4-0.4-4.7-0.4-7-0.1-4.4 0-8.6 0.1-13 0-1.3 0-2.7 0.1-4.1 4.7-0.4 3.1 0.1 3.5 4.5 0 3.9 0.1 7.7 0.4 11.5" clip-path="url(#a)" fill="#5C7A52"/>
			<path d="m49.1 39.2c0 0.8-0.5 0.7-0.6 1.3-0.2 1.3-0.5 2.5-0.8 3.8-1 1.3-1.9 0.4-2.5-0.8-0.7-1.1-0.6-2.6-1.5-3.6-0.2-0.2-0.3-0.4-0.2-0.7 0.2-2.2 0.2-4.4-0.1-6.5-0.3-4.2-0.1-8.4-0.1-12.5 0-1.6 0-3.3-0.1-4.9 0.1-0.5-0.4-1.5 0.5-1.3 1.5 0.1 3-0.1 4.5-0.1 0.3 0 0.3 0.5 0.3 0.7 0.1 5.1 0.5 10.2 0.5 15.3 0.4 3 0 6 0.1 9.3m-0.8-0.6c0-2.7 0.2-5.2 0-7.9-0.2-3.8-0.4-7.7-0.5-11.5-0.5-4.4 1.2-4.8-3.5-4.5 0 1.4 0 2.7-0.1 4.1-0.1 4.4-0.2 8.6-0.1 13 0.1 2.3 0.3 4.6 0.4 7-0.1 0.3 0.1 0.5 0.4 0.6 0.7 0.3 2.2-0.2 3-0.2 0.3 0 0.4-0.3 0.4-0.6m-1.3 5c0.5-0.9 0.7-1.9 0.7-3-0.1-0.5-1.3-0.1-1.5-0.2-0.2 0-0.9-0.2-0.8 0.3s1 4 1.6 2.9" clip-path="url(#a)" fill="#092B39"/>
		</g>
	
	<path class="st77777" d="m31.5 29.1c-0.5-0.4-0.4-1.1-0.5-1.6-0.5 0.4-0.4 1-0.8 1.5-0.5-0.3-0.3-0.8-0.5-1.3-0.4 0.5-0.5 1.2-0.9 1.7-0.7 0.4-0.4-1.3-0.4-1.7 0.6 0.1 0.1 0.8 0.3 1.2 0.6-0.7 1.1-3.5 1.4-0.9 0.4-0.3 0.4-0.9 0.8-1 0.4 0.4 0.3 0.8 0.4 1.4 0.3-0.4 0.5-1.1 1-1 0.3 0.5 0.4 1.1 0.3 1.6-0.5-0.3-0.2-0.8-0.4-1.2-0.4 0.2-0.4 0.9-0.7 1.3"/>
	<path class="st77777" d="m23.2 28c-0.2 0.3-0.1 2-0.6 1.2-0.1-0.4 0-0.9-0.4-1.1-0.1 0.4 0.1 1.3-0.5 1.5-0.3 0.1-0.5-2.5-0.3-2.4 0.3 0.3 0.1 0.9 0.3 1.4 0.4-0.9 0.5-2.2 1-0.3 0.3-0.2 0.2-0.6 0.3-0.9 0.7-0.9 0.6 1.3 0.9 1.6 0.4-2 1-3.6 1.5-0.5 0.9-2.2 1.6 1.7 0.8 0.6l-0.3-0.9c-0.9 2.8-0.8 0.2-1.2-0.9-0.5 0.4-0.3 2.9-1.1 2.5-0.1-0.6 0-1.6-0.4-1.8"/>
	<path class="st77777" d="m23.7 19.9c-0.4 1.3-0.6 0.3-1.1-0.2-0.4 0.4-0.4 1.6-1.1 1.3-0.5-0.5-0.1-3.5 0-1.2 0.1 0.3 0 0.7 0.2 1 0.8-0.7 0.5-2.3 1.6-0.6 0.5-1.4 0.8 0 1.1 0.6 0.3-0.3 0.2-0.9 0.3-1.3 0.7-1.7 0.9 2.8 1.3 0.2 0.7 0 0.7 0.6 0.9 1.1 0.3-0.5 0.1-1.7 0.7-1.8 0.7 1.4 0.6 2.9-0.2 0.4-0.4 0.8-0.2 3-1 0.9-0.1-0.1-0.1-0.3-0.3-0.3-0.4 2.6-0.6 0.2-1.2-0.6-0.4 1.7-0.2 2.6-1.2 0.5"/>
	<path class="st77777" d="m15.7 28.1c0.1-0.4-0.2-1.4 0.3-1.6 0.9-0.1 2.8-0.2 2.9 0.1 0.1 0.5 0.1 1 0.1 1.5 0.1 1 0.2 2.4-0.2 2.6-0.5 0.1-1 0.2-1.5 0.1-0.7 0-1.1 0.1-1.3-0.1-0.1-0.1-0.2-0.3-0.2-1.2 0 0.1-0.1-1.4-0.1-1.4m0.4 0.9c0 0.8-0.1 1.2 0.1 1.5 0.8 0.2 1.7 0.2 2.5 0 0.1-0.8 0.1-1.5 0.1-2.3 0.1-0.4 0-0.9-0.2-1.2-0.7-0.2-1.4-0.2-2.1-0.1-0.9 0-0.4 1.3-0.4 2.1"/>
	<path class="st77777" d="m15.5 19c0-0.3 0.1-0.6 0.3-0.8 0.3-0.3 0.7-0.2 1.9-0.1 0.4 0 0.5 0 0.7 0.2 0.4 0.5 0.1 1.5 0.3 2.4 0.1 0.4 0 0.8-0.1 1.2-0.1 0.2-0.3 0.4-0.6 0.3-0.8 0-1.7 0.2-2.1-0.2-0.2-0.2-0.2-0.6-0.3-1.3 0 0.1-0.1-1.2-0.1-1.7m1.9 2.9c0.4-0.1 1 0.1 0.9-0.4-0.1-0.9 0.4-2.6-0.2-3.2-0.1-0.1-0.3-0.1-0.4-0.1-1.2 0-2.1-0.6-1.9 1.2 0.2 0.7-0.2 1.9 0.2 2.4 0.2 0.2 1.4 0.1 1.4 0.1"/>

</svg>
