<?xml version="1.0" encoding="UTF-8"?>
<svg width="48" height="48" enable-background="new 0 0 63.8 62.7" version="1.1" viewBox="6.8 6.3 48 48" xml:space="preserve" xmlns="http://www.w3.org/2000/svg">
<style type="text/css">
	.st0{fill:#5791AF;}
	.st1{fill:#092B39;}
	.st2{fill:#9D9285;}
</style>
	<path class="st0" d="m54.8 30.3c0 13.3-10.7 24-24 24s-24-10.7-24-24 10.7-24 24-24 24 10.7 24 24"/>
	<path class="st1" d="m49.2 25.6c0.2 0.6-0.7 0.9-1.7 1.6-0.7 0.5-2.2 1-2.1 1.3 0.2 2.8 0.2 5.6-0.1 8.5-0.1 0.5 0.9 0.8 1.3 1.1 0.6 0.3 1.2 0.8 1.6 1.3 0.2 0.2-0.7 2.2-2.3 4-1.4 1.5-3 2.9-4.7 4-1 0.4-1.2 0.7-1.5 0.7-0.3-0.1-0.7-0.7-1.2-1.6-0.6-0.8-1.1-1.7-1.6-2.6-2.1 0-8.6 0.1-8.7 0.5-0.8 1.3-1.9 4.5-2.3 4.4-3-1.2-8.1-4.8-9.4-7.8-0.1-0.3 1.7-1.1 2.4-1.8 0.2-0.2 0.9-0.6 0.7-0.9-1.3-2.2-2.3-4.6-2.9-7.2-1.1-0.1-2.2-0.2-3.3-0.4 0-1.3 0.1-2.7 0.4-4 0.5-3 1.5-6 2.8-8.7 2.4 1 3.3 1.3 3.7 1.4 1.3-0.5 2.4-1.3 3.4-2.3l-0.5-1.8c-0.4-1.1-0.5-2.8-0.3-2.6 3.8-0.6 7.7-0.5 11.5 0.2 0.4 0.1 0.2 1.5 0.1 2.3-0.2 1.9-0.4 1.8-0.2 2 0.9 0.5 2 1.2 3.4 2 0.6 0.3 1.9 1.3 2.1 1.1 1.2-1.3 1-2 2.2-2.8 2 0.9 3.6 2.3 4.9 4.1 0.9 0.9 1.8 2.4 2.3 4m-5.4 1.9c0.5-0.4 3.7-2.1 3.5-2.4-1.2-2.3-2.9-4.3-4.9-5.9-0.6-0.4-1.1 1.6-2.5 2.5-0.3 0.2-4.4-2.9-7.2-3.9 0.1-0.9 0.1-1 0.2-2.1 0.1-0.6 0-1.3 0.1-1.7 0-0.3-0.4-0.5-0.7-0.5-0.5-0.1-1.4 0-2.9-0.1-1.9 0-3.8 0.1-4.6 0.2-0.2 0-0.3 0.2-0.3 0.4 0.3 1.4 0.9 3.6 0.9 3.6-1.1 1-3.5 2-4.8 3.4 0 0-1.9-0.8-3.2-1.3 0 0-0.9 1.9-1.2 2.8-0.5 2.1-0.8 4.2-1 6.3l3.2 0.8c0.4 3.6 3.9 9.1 3.5 9.4s-3.2 2.2-3.2 2.2c1.7 2.1 4.3 3.6 6.1 4.9 1.1-2.3 2-3.6 2-3.6 1.3-0.1 2.6-0.2 4-0.2s2.8-0.1 4.2-0.2c1 0 3-0.3 3.2 0.1 0.4 0.8 0.9 1.5 1.3 2.3 0.2 0.4 0.8 1.7 1 1.6 1.8-1.1 3.3-2.6 4.6-4.2 0.8-0.9 1.4-2 1.2-2.2-0.4-0.5-1.6-0.8-2.8-1.5-0.5-0.3 0.3-2 0.3-3.4 0.1-1.4 0.1-2.8 0-4.2 0-1.1-0.4-2.8 0-3.1"/>
	<path class="st2" d="m47.3 25.1c0.2 0.4-3.1 2-3.5 2.4-0.4 0.3 0 2 0 3 0.1 1.4 0.1 2.8 0 4.2-0.1 1.3-0.8 3.1-0.3 3.4 1.1 0.7 2.4 1 2.8 1.5 0.2 0.2-0.4 1.3-1.2 2.2-1.3 1.7-2.9 3.1-4.6 4.2-0.2 0.2-0.8-1.2-1-1.6-0.5-0.8-0.9-1.6-1.3-2.3-0.2-0.4-2.2-0.1-3.2-0.1-1.4 0.1-2.8 0.1-4.2 0.2-1.3 0-2.6 0-4 0.2 0 0-0.8 1.4-2 3.6-1.8-1.4-4.5-2.8-6.1-4.9 0 0 2.8-1.9 3.2-2.2 0.5-0.3-3.1-5.8-3.5-9.4 0 0-3.2-0.7-3.2-0.8 0.2-2.1 0.6-4.2 1-6.3 0.3-0.9 1.2-2.8 1.2-2.8 1.3 0.5 3.2 1.3 3.2 1.3 1.3-1.4 3.8-2.4 4.8-3.4 0 0-0.6-2.2-0.9-3.6 0-0.2 0.1-0.4 0.3-0.4 0.8 0 2.7-0.2 4.6-0.2 1.4 0.1 2.3 0.1 2.9 0.1 0.3 0 0.7 0.3 0.7 0.5 0 0.4 0 1.1-0.1 1.7-0.1 1.2-0.1 1.3-0.2 2.1 2.8 1 6.9 4.2 7.2 3.9 1.4-0.9 1.8-2.9 2.5-2.5 2.1 1.7 3.7 3.7 4.9 6m-9.2 5.7c-0.2-1.8-0.8-3.6-1.8-5.1-2.1-2.1-5.1-2.9-7.9-2.1-2 0.5-4.2 3.4-4.1 5.4 0.1 6.7 3.5 7.8 4.8 8.2 2 0.6 4.1 0.4 6-0.4 1.6-0.9 2.9-3.1 3-6"/>
	<path class="st1" d="m36.3 25.6c1.1 1.5 1.7 3.3 1.8 5.1-0.1 2.9-1.4 5.1-3.2 6-1.9 0.8-4 0.9-6 0.4-1.3-0.4-4.7-1.5-4.8-8.2 0-1.9 2.2-4.9 4.1-5.4 2.9-0.7 6 0 8.1 2.1m-0.2 5.3c-0.2-2.3-0.8-4.6-3.1-5.6-3.7-2.3-6.6 1.4-6.8 4.9-0.1 2.8 1.2 4.7 4.6 5.5 2.8 0.7 5.3-2.2 5.3-4.8"/>

</svg>
