<?xml version="1.0" encoding="UTF-8"?>
<svg enable-background="new 0 0 38 30" width='38' height='30' version="1.1" viewBox="0 0 38 30" xml:space="preserve" xmlns="http://www.w3.org/2000/svg">
<style type="text/css">
	.st0{fill:#5990AE;}
	.st1{fill:#092B39;}
</style>
<rect class="st0" width="38" height="30"/>

	<path class="st1" d="m32.7 18.4c0.1-0.6 0.1-1.3 0.1-1.9-0.2 0-1.5-0.1-1.6 0.1-0.1 0.1-0.2 1.1-0.1 1.4 0 0.6 0 1.1-0.1 1.7-0.5 1.7 0.8 4.6-1.2 5.6-1.1 0.2-4.4 0.1-8 0.2s-4.8 0.1-4.8 0.1c-1.4 0.1-4.1-0.1-5.4 0h-1.8c-0.9 0-1.8-0.1-2.7-0.5-1.2-0.2-0.9-1.1-1.1-2.1 0-1.4-0.2-2.7-0.3-4.1-0.2-0.8 0-2.2-0.1-2.4s-1.4-0.2-1.5 0c0 0.6 0 1.1 0.1 1.7 0 3-0.3 7.7 1.6 8.6 1.2 0.5 2.5 0.7 3.9 0.6 1.9 0 3.6 0.2 5.8 0.1 1.7 0 10.1-0.3 11.8-0.4 1.2 0.2 2.5 0 3.6-0.4 1.6-0.7 1.8-2.7 1.7-4.2 0.2-0.7 0.2-1.4 0.2-2.1-0.2-0.7 0.2-1.3-0.1-2m-27.9 6c0.1 0 0.1 0 0 0"/>
	<path class="st1" d="m20 23.1c-0.3 0.3-0.7 0.5-1.2 0.6s-1 0.2-1.3-0.5c-0.2-0.3-0.6-0.6-0.9-0.8-0.4-0.3-0.7-0.6-1.1-0.9-0.8-0.7-1.6-1.4-2.3-2.2-0.5-0.5-0.9-1-1.4-1.6s-0.9-1.2-1.4-1.7c-0.4-0.4-0.9-0.5-1.2-1-0.4-0.5-0.8-0.7-0.7-1.4 0-0.3 0.2-0.6 0.5-0.9 0.3-0.2 1.6 0.2 2 0.2 1 0 3.2 0.1 4.2 0.1 0.7 0.1 0.2-0.9 0.2-2 0-1.3-0.3-4.3-0.3-4.5-0.1-0.5 0.1-0.9 0.6-1.1 0.3-0.1 4.3-0.1 5.3-0.2 0.6 0 1.2-0.1 1.7-0.2 0.5 0 0.7 0.4 0.6 0.9-0.1 0.7 0 2 0 2.7 0 0.3 0.1 0.6 0.1 0.9v2.6c0 0.3 0 0.6 0.1 0.9s0.4 0.3 0.8 0.2h3.1 0.5c0.5 0 0.7 0.3 0.6 0.7-0.1 0.5-0.2 1-0.7 1.3-0.9 0.5-1.6 2.1-2.4 2.8s-1.6 1.4-2.4 2c-0.7 0.6-1.3 1.1-2 1.7-0.4 0.7-0.7 1-1 1.4m-6.9-6.8c0.4 0.4 2 2.5 2.2 2.6 0.5 0.5 1.1 1 1.7 1.5 0.6 0.6 1.2 1 2 1.3 0.1 0.1 0.3 0 0.4 0 0.8-0.6 1.6-1.3 2.4-1.9 0.7-0.6 1.3-1.1 2-1.7 0.8-0.6 1.5-2.1 2.2-2.7 0.1-0.1 0.2-0.3 0.2-0.3-0.1-0.1-0.2-0.3-0.3-0.3-1.1 0-1.6 0.1-3.1 0.1-0.6-0.1-0.5-0.2-0.6-0.4-0.1-0.5-0.1-1 0-1.6 0.1-1.7 0.1-3.5 0-5.2 0-0.4-0.1-0.9-0.3-1.1-0.3-0.2-0.8 0-1.2 0-0.7 0.2-1.4 0.2-2.1 0.2-0.6-0.1-1.1-0.1-1.7-0.1-0.3 0-0.4 0.1-0.4 0.4 0.1 0.9 0.1 2.5 0.2 3.4 0 0.4 0.1 0.9 0.2 1.3 0.3 1 0.3 2.4-0.7 2.4 0 0-1.4 0.3-1.5 0.3-1.1-0.2-2.3-0.2-3.4 0-0.1 0 0.3 0.6 0.6 0.8 0.4 0.4 0.8 0.5 1.2 1"/>

</svg>
