<?xml version="1.0" encoding="utf-8"?>
<!-- Generator: Adobe Illustrator 27.3.1, SVG Export Plug-In . SVG Version: 6.00 Build 0)  -->
<svg version="1.1" id="Layer_1" xmlns="http://www.w3.org/2000/svg" xmlns:xlink="http://www.w3.org/1999/xlink" x="0px" y="0px"
	 viewBox="0 0 446.5 533.6" style="enable-background:new 0 0 446.5 533.6;" xml:space="preserve">
<style type="text/css">
	.st0{clip-path:url(#SVGID_00000085939592943093471750000012617199727169392565_);}
	.st1{fill-rule:evenodd;clip-rule:evenodd;fill:#FFFFFF;}
	.st2{fill-rule:evenodd;clip-rule:evenodd;fill:#8E7F71;}
	.st3{fill-rule:evenodd;clip-rule:evenodd;fill:#BDA287;}
	.st4{fill-rule:evenodd;clip-rule:evenodd;fill:#08202A;}
</style>
<g id="Group_207" transform="translate(-2 30)">
	<g>
		<defs>
			<rect id="SVGID_1_" x="18.8" y="-14.4" width="413" height="501.5"/>
		</defs>
		<clipPath id="SVGID_00000083076919109138700290000002794985687612964770_">
			<use xlink:href="#SVGID_1_"  style="overflow:visible;"/>
		</clipPath>
		
			<g id="Group_206" transform="translate(2 -30)" style="clip-path:url(#SVGID_00000083076919109138700290000002794985687612964770_);">
			<path id="Path_2768" class="st1" d="M227.8,22.8c21.1,9.5,36.9,21.5,55.3,33c3,1.9,6.5,3.4,9.7,5.2c3.1,1.8,5.9,4.1,9,5.6
				c9.9,4.7,27.8,2.5,40.4,5.6c3.4,0.8,6.8,2.8,9.7,3.1c3.3,0.3,5.6-1.1,7.6-0.9c8.9,0.7,8.8,6.8,13.8,11.7c1.1,1.1,2.9,1.2,4.5,2.8
				c1.3,1.3,1.7,3.4,2.8,5.6c0.9,1.8,2.5,3.5,3.1,4.9c1.3,3.2,1.6,7.5,2.8,11.7c2.6,9.3,3.2,20.7,4.1,31.5c0.4,4.3-0.3,8.6,0,13
				c0.4,5.6,1.5,11.5,2.1,17.3c0.6,5.9,0.7,12.3,2.1,17c2.6,8.5,10,15.7,14.2,23.2c1.5-8.6,0.3-17.3,1.7-26.2
				c0.9-5.4,1.6-11.1,2.1-16.4c0.4-4.9-0.5-9.8,1.4-14.2c1.7-4.1,5.4-7.1,4.8-12c-4.5,3.2-8.2,11.3-15.5,9
				c0.6-8.3,10.9-7.9,11.7-16.1c-6.1,0-8.1,8-14.2,8.6c-2.6,0.3-5.5-0.4-6.2-2.2c-1.8-4.6,4.6-5.8,5.9-8.6c4-1.6,9.7-1.9,13.8-3.4
				c-5.7-1.2-13.2-0.8-15.5-4.9c0.6-1.2,1.4-2.3,2.4-3.1c5.1,0.2,8.5,1.9,13.1,2.5c0.7-1.2-0.8-2-1.4-2.8
				c-7.8-10.9-15-25.2-25.2-34.6c-3.7-3.4-8.1-6-12.4-9.6c-4-3.3-7.3-8.4-12.1-12c-5.1-3.9-11.5-6.4-15.9-10.2
				c-5.2-4.4-7.2-11.4-16.9-9.9c-1.1,2.7-4.5,4.2-5.9,7.4c-1.1,2.4-0.6,5.5-1.7,7.7c-1,1.9-2.9,2.9-4.5,4c-1.1,0-2.9-0.7-4.5,0
				c-5.8-6.3,0.5-15.1,3.5-19.4c-6.8,0.6-8.5,5.8-14.5,7.1c-4.2-7,5.1-9.5,9-12.3c5.2-0.1,8.8,0.2,13.1-0.6
				c-16.8-5.8-38.1-5.8-54.6-11.7c-9.3-3.4-21.3-5.8-30.4-9C235.7,18.6,229.7,20.3,227.8,22.8"/>
			<path id="Path_2769" class="st1" d="M134.5,33.6c-0.1,3.8,1.8,5.8,3.5,8c5.4,1.3,11.6,0.8,17.6,0.3c3.9-2.3,6.2-6,9-9.3
				c0.2-1.6-0.6-2.2-0.3-3.7C154.1,30.3,147,34.4,134.5,33.6"/>
			<path id="Path_2770" class="st2" d="M77.9,96.6c1.5,0.9,2.5,2.3,5.2,2.2C83.5,95.4,78,92.2,77.9,96.6"/>
			<path id="Path_2771" class="st2" d="M77.9,97.8c-1.7-0.1,0.1,3-1,3.4c0.5,1.6,3.2,1.2,5.5,1.2c0.4-0.7,0.6-1.4,0.7-2.2
				C81.2,99.8,79.4,99,77.9,97.8"/>
			<path id="Path_2772" class="st2" d="M40.9,100.6c-5.7-1.2-10.8,10.6-11.4,15.7c-0.1,1.3,0,3,0.7,3.7
				C32.5,112.4,34,104.1,40.9,100.6"/>
			<path id="Path_2773" class="st2" d="M34.3,122.2c-0.1-11,2.9-17.3,12.1-20.1c-2-2.5-5.1,0-7.6,0.6c-3.1,5.4-6.9,10.1-6.9,18.2
				C32.8,121.3,33.2,122.1,34.3,122.2"/>
			<path id="Path_2774" class="st2" d="M35.7,101.2c-1.4-1-2.7,0.7-4.1,0.6c-0.8,1.7-2.5,4.5-3.5,7.1c-1.2,3.2-3.1,7,0.3,9
				C29.4,111,31.7,105.3,35.7,101.2"/>
			<path id="Path_2775" class="st2" d="M76.8,102.7c-0.8,0.7-1.2,1.7-1,2.8c2-0.2,4.8,0.3,6.2-0.3c-0.3-0.9,0.5-0.8,0.3-1.5
				C80.1,103.7,77.8,103.8,76.8,102.7"/>
			<path id="Path_2776" class="st2" d="M40.9,125.9c-2.3-10.4,3-17.5,9-22.2c-2.1-0.5-3,2.6-5.2,3.1c-3.6,4.6-6.8,10.5-6.2,17.9
				C39.4,125,39.6,125.9,40.9,125.9"/>
			<path id="Path_2777" class="st2" d="M47.1,103.7c-5.1-0.5-9.4,4.6-11.1,9.6c-1.1,3.4-1.6,8.2,0.7,10.8
				C37.5,115,40.7,107.7,47.1,103.7"/>
			<path id="Path_2778" class="st2" d="M43.3,124.4c-0.5,1.4-0.2,3.2,1.7,3.4c-1.2-9.8,2.6-17.8,9.3-21.6
				C48,101,38.7,117.5,42.3,124C42.2,125.2,42.6,124.2,43.3,124.4"/>
			<path id="Path_2779" class="st2" d="M74.1,108c2.3-0.1,5.2,0.8,7.6,0.3v-1.2C79.4,107.1,74.1,105.3,74.1,108"/>
			<path id="Path_2780" class="st2" d="M48.8,129.9c0.2-10.5,5.5-16.5,12.1-21.3c-7.4-6-14.4,5.6-15.2,13.3
				C45.4,125.3,45.9,128.9,48.8,129.9"/>
			<path id="Path_2781" class="st2" d="M72.3,109.2c0.1,1.4,1.6,1.6,2.4,2.5c1.8-0.7,4.5-0.5,6.6-0.9
				C79.8,109.1,74.7,109.1,72.3,109.2"/>
			<path id="Path_2782" class="st2" d="M52.6,131.5c0.7-10.2,5.6-16.6,13.1-20.7c-0.3-0.4-2.2-1.4-2.8-1.2
				c-6.9,2.3-13.8,11.3-12.8,21.3C51.5,130.7,51.8,132.2,52.6,131.5"/>
			<path id="Path_2783" class="st2" d="M68.2,110.8c-1.7,0.8-2.8,2.1-4.8,2.5c-3.4,3.3-8,8.1-9.3,14.2c-0.5,2-0.9,5,1.4,6.2
				c2.6-4.8,3.3-9.3,5.9-13.6C63.1,117,67,114.8,68.2,110.8"/>
			<path id="Path_2784" class="st2" d="M78.6,112.6c-12.8-0.1-18.2,13.5-16.9,24.1C64.7,126.4,67,115.3,78.6,112.6"/>
			<path id="Path_2785" class="st2" d="M82.3,112.9c-9.6,1.8-15.4,7-16.9,16.1c3.2-5.9,8.2-10.6,14.2-13.6
				C80.6,114.9,83.3,115.2,82.3,112.9"/>
			<path id="Path_2786" class="st2" d="M82.3,116.6c0-0.3-0.4-0.2-0.7-0.3c-7.4,2.5-15,9.3-16.2,17.3c-0.2,1.1-0.6,4.2,1,4.9
				c1.6-4.7,1.6-9.5,3.8-13.3C72.7,121,77.6,118.7,82.3,116.6"/>
			<path id="Path_2787" class="st2" d="M65.8,116.9c-3.2,2.3-5,6.8-6.9,11.4c-1,2.4-3.1,7,1,7.4C59.9,128.9,61.8,121.3,65.8,116.9"
				/>
			<path id="Path_2788" class="st2" d="M84.1,117.6c-6.6,1.2-13.8,6.7-15.2,14.5c-0.4,2.3-1,6.6,1.7,7.4
				C71.8,129.2,75.9,121.5,84.1,117.6"/>
			<path id="Path_2789" class="st2" d="M72.3,139.8c1.6,0.3,2.9,0.9,4.5,1.2c0.8-8.9,3.2-16.5,10-20.1c-0.7-0.7-1.3-1.6-1.7-2.5
				C77,122,72,129.8,72.3,139.8"/>
			<path id="Path_2790" class="st2" d="M78.2,141.6c1.2,0.2,2.4,0.6,3.5,1.2c0.9-8.7,3.2-14.8,9.3-19.1c-1.1-0.4-2.2-1.1-3.1-1.9
				C80.8,125,78.4,132.3,78.2,141.6"/>
			<path id="Path_2791" class="st1" d="M166.3,122.2h-1c-3.7,5.7-8.4,10.7-13.8,14.8c5.9,5.6,12.3-1.8,16.2-4.6
				c0.7-2.6,0.1-4.6,0.7-7.1C167.7,124.2,166.2,123.9,166.3,122.2"/>
			<path id="Path_2792" class="st2" d="M86.2,145c-0.1-9,4.1-14.1,9.7-17.9c-6.8-7.5-14.1,10-12.4,16.7
				C85.4,143.2,84.2,145.5,86.2,145"/>
			<path id="Path_2793" class="st2" d="M89.3,147.8c0.6-8.6,3.4-15.3,10.4-18.2c-0.7-0.6-1.6-1-2.1-1.9c-3.2,0.8-8.2,6.3-9.7,10.8
				C86.9,141.5,85.9,146.1,89.3,147.8"/>
			<path id="Path_2794" class="st2" d="M91,149.4c1.7-2,2.2-4.6,3.5-6.8c2.3-4.1,5.4-7.8,9-10.8c-1.4-0.2-1.7-1.3-3.5-1.2
				C93.7,133.6,90,140.8,91,149.4"/>
			<path id="Path_2795" class="st2" d="M91.7,160.8c0.7,0.1,0.9,0.7,1.7,0.6c2-2.3,0.7-5.9,1.4-8.6c1.7-7.2,5.7-15.8,12.8-18.2
				c0-1.4-1.9-1-2.4-1.9c-5.6,2.8-13.2,13.1-12.8,20.4C92.5,155.7,94.1,158.2,91.7,160.8"/>
			<path id="Path_2796" class="st2" d="M96.2,161.7c2.7-10.8,6.6-20.4,15.9-25.3c-0.6-0.5-2.2-1.7-2.8-1.2
				C99,138.5,95.5,149.6,96.2,161.7"/>
			<path id="Path_2797" class="st2" d="M101,164.2c2.1-11.5,5-22.3,16.6-25.3c-2.4-2.8-5.9-1.1-8.6,0.3c-5,6.1-10.2,12.1-10.7,22.2
				C98.6,162.8,100.9,162.6,101,164.2"/>
			<path id="Path_2798" class="st2" d="M103.1,166h1.4c2-2.6,1-5.9,1.7-9c1.8-7.4,7-15.4,16.9-15.1c-1.4-3.9-7.7-2.1-10.7,0
				C106.4,146.1,102,157.9,103.1,166"/>
			<path id="Path_2799" class="st2" d="M107.2,166.6c3.7-6.8,5.8-15,11.7-19.8c2.2-1.8,5.3-1.4,7.6-3.4
				C111.8,140.2,105.7,155.3,107.2,166.6"/>
			<path id="Path_2800" class="st2" d="M109.3,166.6c0.5,1.4,2.4,1.6,3.8,2.2c-0.7-13.2,9.8-16.4,18.7-21c-1.2-1.1-2.5-2.1-3.8-3.1
				C116.1,147,112.5,156.7,109.3,166.6"/>
			<path id="Path_2801" class="st3" d="M128.6,159.9c-1.8,5.2-2.9,12.4-1.4,18.2c4.9,0,7.1-0.4,12.4-0.6c4.6-3.7,6.2-12.4,3.5-19.1
				C138.4,156,132.4,158,128.6,159.9"/>
			<path id="Path_2802" class="st2" d="M90.6,163.9c-1.3,0.3-1.2,1.8-1.7,2.8c2.8,0.3,5.5,1.3,7.9,2.8c0.5-0.7,1.2-1.2,1.7-1.9
				C96.9,165.5,93.8,164.7,90.6,163.9"/>
			<path id="Path_2803" class="st2" d="M88.2,168.2c2.3,1,5.5,2.7,7.3,3.1C95.9,169,90.9,167.7,88.2,168.2"/>
			<path id="Path_2804" class="st2" d="M88.2,169.7c-0.8,2,0.6,4.6,2.1,5.6c1.7-0.1,3.2-1.2,3.8-2.8
				C92.7,171.1,90.3,170.6,88.2,169.7"/>
			<path id="Path_2805" class="st1" d="M106.2,242c7.4,1.9,13.3-2.6,19-4.3c3.3-5.6,6.8-9.9,4.5-17.9c-1.9-6.6-7.3-13.6-9.7-18.5
				c-5.5-5.8-22.4-2.1-25.2,4c-1.1,2.4,0.7,6.9,1.7,10.5C99.1,224.4,103.9,234.2,106.2,242"/>
			<path id="Path_2806" class="st4" d="M221.9,19.4c-6.3-4.3-15-2.5-25.2-2.2c-10.1,0.4-17.7,2.1-26.3,4.3c-6,1.6-11.4,4.6-16.9,4.9
				c-6.7,0.4-13.1-2.5-19-1.5c-1.8,0.4-3.6,1.1-5.2,2.2c-0.6,0.5-0.9,1.6-1.7,2.2c-1.5,1-3.6,1.1-4.8,1.9c-2.8,1.7-4.4,4.8-6.9,5.9
				c-1.8,6.8-0.8,23.7,5.2,27.2c6.4,3.8,15.5,4.5,25.2,3.7c12-0.9,28.7-4.8,43.2-5.9c1.8-0.1,3.7,0.1,5.5,0
				c3.6-0.2,7.4-1.2,10.4-0.9s8.2-0.3,11.7,1.5c3,1.4,5.8,3.2,8.5,5.2c2.5,2.1,5.2,4,7.9,5.7c3.1,1.9,7.1,5.3,9.6,7.1
				c8.9,6.7,16.3,11.4,20,21.9c-3.4,1.3-6-0.8-9-1.5c-11.8-2.8-24.8-0.6-37-0.6c-3.3,0-6.6-0.7-10-0.3c-5.1,0.6-11.3,4.8-17.6,7.7
				c-5.8,2.7-12.4,5.9-17.3,7.4c-6.3,2-11.7,4.4-16.6,9c-4.4,3.9-8.1,8.5-11.1,13.6c-1.7,3.1-2.8,8.9-0.7,12.3
				c-6.9-7-14.9-12.8-23.8-17c-4.7-2.3-9.6-4.2-14.2-6.8c-4.3-2.5-9.2-5-12.8-7.7c-1.7-1.3-5-4.7-5.2-6.5c-0.5-4,3.9-8.3,4.1-13
				c0.2-4.8-2.3-7-5.2-10.5c-2.8,0.1-4.9-0.5-7.9-0.3c-5.3,2-7,7.3-8.3,13c-0.4,1.2-1.5-0.2-2.4,0.6c-0.2,1.7-1.7,3.1-0.7,4.9
				c-11-3.6-19.2-13.6-35.2-10.5c-7.3,1.4-10.1,4.5-12.4,10.8c-1.3,3.7-4.4,8.1-2.4,12c0.8,1.6,3.1,3.7,4.8,4.9
				c7.2,5.2,16.6,7.9,25.2,12.7c4.2,2.4,8.8,4.3,13.5,5.6c7.7,2,21.8,4.6,22.5,12.7c0.4,5-5,9.3-5.2,13.6c-0.1,3.3,2.4,7.4,4.1,9
				c7.1,6.3,20.1,0.4,23.1-6.2c6.4,3.1,10.6,8.2,16.2,12c-10.7,0-24,1.7-29.7,7.4c-4.4,4.4-6.3,16.5-4.1,24.4
				c1.2,4.4,3.5,8.7,5.5,13c3.4,7.1,8,15.4,8.6,26.2c0.4,6.4-1,13,0.7,17.6c1.6,4.3,6.8,6.8,9,9.6c2.6,8.6,3.3,18.9,8.6,25
				c1.8,0.8,2.6,2.4,4.5,3.1c4.3,5.7,8.1,11.5,12.8,16.7c1.7,1.9,4.3,3.3,6.2,5.2c1.9,1.9,2.9,4.6,4.8,6.5c3.8,3.8,8.3,5.2,11.4,8
				c2.1,2.1,3.8,4.5,5.2,7.1c3.7,6.9,7.3,16.2,6.6,28.1c-0.3,4.6-0.4,9.2-0.3,13.9c0.2,12.4-4.5,19.9-1.4,32.1
				c0.5,2.1,1.8,3.9,2.4,5.9c2.1,6.9,3.2,13.9,6.2,20.1c2.6,5.2,7.7,10.9,9.7,16.7c1.2,3.5,1.7,8.3,2.8,12.7
				c2.3,9.5,3.7,21.3,1,30.3c7.8,0.4,16.3,3.9,22.8,1.9c-0.2-3.6-2.4-6.8-3.1-9.9c-1.5-6.8-1.7-13.7-3.5-21
				c-4.3-17.4-17.1-30.7-24.5-46c-2.6-5.3-5.6-11.4-5.9-17.3c-0.4-9.3,2.7-18.3,3.1-27.2c0.4-8.4-0.6-15.5-2.1-23.8
				c-1.1-6-1.8-12.5-4.5-17c-2.9-4.9-10.4-10.3-15.2-14.2c-2.7-2.2-4.9-4.9-7.6-7.1c-2.8-2.2-5.9-4.3-8.3-6.5
				c-5-4.7-7.9-11.1-12.8-15.7c-1.6-1.6-3.7-2.7-5.2-4.3c-4.7-5-4.8-13-6.9-20.4c2.7-1.2,7-0.9,9-2.8c0.4-1.5-1.5-2.8-2.8-3.7
				c-3.9,1.1-8.2,3.7-10.7-0.3c3.6-1.4,7.3-2.8,11.1-4c1.9-2.8,3.4-5.8,5.2-8.6c-6.4-5.8-6.4,7.5-13.8,7.4c-0.4-2.4,3.2-3.9,3.5-6.8
				c-1.3-0.1-1.3-1.3-2.4-1.5c-3.5,0.8-7.2,4-9,7.4c-2.2-6.6-1.8-16-2.1-23.5c8.2-1.3,19.3-3.6,25.9-8c1.8-1.2,4.8-4.3,5.2-5.9
				c0.9-3.5-1.1-10.5-2.4-13.9c-0.9-2.4-2.6-4.9-3.8-7.4c-2.7-5.7-4.1-8.3-7.9-12.7c-3.1-3.5-6.2-6.1-12.8-5.9
				c-5.8,0.2-10.9,3.1-15.9,5.6c5.4-16.8,35.7-15,46.3-5.6c6.5,5.8,12.7,17.3,14.9,26.9c0.8,3.4,0.7,7.2,1.4,10.5
				c0.3,1.3,1,2.5,1,3.7c0,4-1.5,7.8-4.1,10.8c-2.6,2.5-8.7,3.1-6.9,8.6c5.5,1,9.2-2.2,12.1-4.6c-1.1,9.2-14.6,9-13.5,19.1
				c10.6,1.7,13.5-8.7,18-14.5c1.7,9.2-6.7,10.8-6.9,19.1c2.1,0.3,3,0.1,5.5,0.3c3.5-3.6,6.1-7.9,7.6-12.7
				c5.8,4.6,10.1,10.7,17.3,16.1c2.9,2.2,6.4,4.7,9.7,7.1c3.5,2.5,7.9,4.9,10,7.7c1.6,2.3,2.9,4.8,3.8,7.4c0.3,0.8,0,1.7,0.3,2.5
				c0.5,1.1,1.9,1.9,2.4,3.1c2.8,6.3,3.7,15.3,15.5,13.3c2-0.4,3.5-1.8,5.2-3.1c5.4-2.9,16.6-3.7,24.2-6.5c2.2-0.8,6.3-1.8,6.2-3.7
				c-0.1-4.7-12.6-1.4-16.6-2.8c3.5-6.9,9.4-11.6,15.5-16.1c10.6-3.4,22.9-3.6,33.2-0.3c6.4,2.1,14,6.5,18.7,1.5
				c0.6-4.3-5.3-6.1-10-6.8c-9.1-1.4-18.4-1.7-27.6-0.9c4.2-3.2,10.9-4.2,14.2-8.3c7-1.2,14.3-7.4,22.1-8.3
				c7.3-0.9,16.4,2.1,22.5,1.9c3.3-0.1,5.8-1.6,5.2-4.6c-0.5-2.6-7.4-4.4-10-4.6c-4.3-0.3-7.5,2.9-12.8,2.5
				c-4.8-6.1-3.2-15.3,0-21.3c1.2-2.3,3.5-4.1,4.8-6.5c3.7-6.5,6.8-14.9,1.7-21.3c-4.6,1.3-5.7,5.8-7.6,9.6
				c-1.9,0.5-3.1,1.5-4.8,2.2c-7.9-8.3-10-18.4-14.9-30.3c-2.9-7.1-5.1-16.8-7.6-25.9c-1.7-6.1-4.5-11,3.1-12.3
				c5.7-1,8.8,0.6,9.3-2.5c1-5.9-11-2.3-14.2-3.1c2.2-6.8,9.1-9.3,10-17.3c-7.8-9.5-12.5,10.4-18,13.3c-2.7-4.6,5-10.7,1-15.7
				c-1-0.1-2-0.5-2.8-1.2c-2.9,0.5-3.2,3.5-4.5,6.2c-1.4,2.9-4.6,5-2.4,9.6c-3.3,2-7.3,3.6-11.4,2.8c-3.8-0.7-6.5-2.6-9.7-3.1
				c-5.4-0.8-10.9-0.8-16.2,0c-1.6,0.2-3.3,1.3-5.2,1.2c-5.1-0.1-10.2-4-15.5-3.4c-3.6-7.8-3.8-18.5-14.9-18.8
				c-7.2,5.5,0.8,16,4.1,20.7c-6,8.1-14.7,13.7-24.5,16.1c-2.6,0.6-5.3,0.4-7.9,0.9c-3.5,0.7-6.9,2.4-11.7,0.9
				c-6-1.9-10.6-8.8-10-16.4c2.9,1.1,5.1,2.9,8.3,2.5c1.5-0.2,2.9-1.7,4.5-2.5c6-3,12.5-6.3,15.5-11.1c-0.1-4.4,2-10.3-0.7-13.3
				c3.8-3,9-4.1,13.5-6.2c4.5-2.1,8.6-4.8,12.8-6.5c2.5-1,6.3-0.6,10-0.6c10.5-0.1,24.6-2.3,34.9-0.3c4.5,0.9,8.6,2.4,13.1,2.8
				c5.1,0.4,10.1,0.4,15.2,0c4.9-0.5,9.8-2,14.2-1.9c6.2,0.2,11.2,0.6,17.3,0.3c-3,4.5-12.9,6.2-11.1,15.1c6.6,6.1,13.6-4.6,17.6-8
				c2.1,4.4-2.5,6.7-4.5,9.6c-1.5,2-2.4,4.7-3.5,6.8c-1.1,2.1-3,4.5-1.7,6.8c3.5,1.8,6.3-1.6,8.3-3.7c3.2-3.4,6-6.9,7.6-11.7
				c2.7,3.1,2.4,6.9,0.7,11.1c-1.4,3.4-4.9,6.5-4.8,8.6c0.1,1.8,2.4,3.8,4.8,3.7c5.7-0.2,5.6-8.6,7.9-12.7c3.9,4.2,5.5,9.8,7.3,14.8
				c5.5,16.3,9.4,33,15.2,50c1.9,5.6,3.7,11,6.2,15.7c2.6,4.8,5.7,9.1,8.3,13.9c2.5,4.7,5.6,9.1,9.3,13c6.5,6.6,10.4,10.4,12.4,20.4
				c1.3,6.8,0.4,23.3-2.4,29.9c-1,2.3-3,4.4-4.5,6.5c-2.6,3.6-4.8,4.8-7.3,8.6c-0.8,1.3-1.7,2.4-1.7,3.1c0,1.6,1.5,4.3,3.1,4.6
				c2.1,0.4,10.1-5.1,12.1-7.1c4.6-4.5,7.6-13.9,11.1-20.4c2.1-4.1,3.7-5.4,2.8-11.4c-0.1-1-1-2-1.4-3.4c-0.7-2.5-0.4-5.7-1-8.3
				c-1-4-2.6-7.8-4.5-11.4c-1.3-2.2-3.3-3.9-4.5-6.2c-3.7-6.8-7.9-13.2-12.8-19.2c-3.3-3.8-5.9-8.2-7.6-13c-1-2.7-1.9-5-2.8-7.7
				c-5.3-16.5-10.1-32.6-16.2-47.5c-2.7-6.6-5.4-13.5-8.6-20.4c-1.5-3.3-3.7-6.4-4.8-9.6c-2.5-6.7-2.8-15.5-5.9-20.1
				c-4.9-7.3-13.5-5.1-23.8-4.9c-7,0.1-25.1-0.8-32-0.6c-2-2.7-3.8-5.6-5.3-8.6c-6.2-6.7-12.8-13-19.9-18.8c-3.1-2.5-9-5.8-12.4-8.4
				c-3.2-2.4-5.7-4.4-8.6-6.9c2.1-4,12.4-5.5,9.5-11.3c-5.5-3.5-13.5,2.6-13.9,8.4c-1.6-0.5-3.1-1.3-4.4-2.2
				c-1.2-6.8,2.3-13.5-4.5-17.3c-1.1-0.5-3.2,0.3-4.5,0.6c-0.8,4.8,4.1,9.6,1.7,16.1c-2-0.9-2.3-3.6-3.5-5.6
				c-2.6-4.3-5.8-5.5-11.4-2.2c-0.5,3.4,2.7,6,4.5,8.3c-7.2,1.9-13.2,4.8-21.4,5.6c-4.8,0.4-10.2,0.6-15.5,1.5
				c-7.6,1.3-22.4,5.9-31.8,2.5c-3.2-1.2-8.5-5.9-9.7-9.3c-2-5.9,0.5-11.5,3.1-16.7c2.1,2.4,2,4.9,3.8,6.8
				c5.5,5.7,18.3,2.1,27.3,2.2c3.7-2.8,12.3-5.8,14.2-10.8c1-2.6-0.2-6.2,1.7-9c6.1-2.8,13.4-2.9,21.1-4c-0.2,2-1.5,4,0.3,5.2
				c5.1,0.4,4.9-5.4,9.7-4.3c0.7,2.6-2.7,6.3,0,9c5.4,1.9,8.1-2.9,8.3-7.7c6.6,0.9,7.6,6.8,10.4,11.1c-2.4,3-1.5,8.2,2.1,8.3
				c5.7,0.2,8-10,3.5-13.6c15.9,5.9,27.6,16.8,41.8,25.3c7.2,4.3,14.3,8.2,21.4,12.3c7.5,4.5,16.1,6.5,26.9,7.1
				c8,0.5,14.8-0.6,21.4,2.2c-2.9,1.1-8.9,2.7-9,6.2c0,1.7,2.4,3.8,4.5,4c3.9,0.3,6.2-3.9,10.4-3.1c1.4-2.5,4.1-3.8,6.9-4.9
				c1.8,0.5,3.4,1.3,4.8,2.5c-6.2,3.5-16.1,6.7-20,12.3c-1.1,1.6-2.6,4.7-1.7,6.8c15.2,4.1,12.5-17.8,29.7-12.7
				c-1.8,2.6-5.4,2.5-7.9,4.3c-2.7,2-3.5,5.2-4.8,8.3c-0.7,1.7-2.4,3.4-1.4,5.2c8.7,0.5,10-8.1,15.2-11.7c4.5,1.6,6.2,5.6,9.3,8.3
				c2.4,6.2,2.6,14.4,4.8,20.7c-0.2,20.8-2.5,37.7,0.7,57.7c1,6.3,4.9,12.4,8.3,17.6c7.1,11,15.5,20.4,22.4,32.1
				c2.1,3.5,5.8,7.5,5.2,13c-0.2,1.5-1.6,3.2-2.1,4.9c-2,6.6-1.3,15-4.1,21c-1.7,3.6-5.3,6.1-6.2,9.6c-2.5,8.8,0.7,16.6,0.7,25.9
				c0,3.4-1.4,7.1-2.4,10.5c-1,3.3-1.3,6.9-3.5,9.6c-9.7,35.3-30.6,63.5-45.2,95.7c-3.6,7.9-6.7,16.4-10,25
				c-1.4,3.5-3.4,6.4-3.8,10.5c-0.2,2.4,0.3,5.2,0,7.7c-0.7,4.8-3.1,9.6-3.8,14.5c-1.8,12.6-2.9,25.3-3.1,38
				c7.2,1.4,16.5,0.1,21.4-2.5c-2.9-13.6-2.5-26.4-2.1-38.3c0.1-4.2-0.8-7.8-0.7-12c0.3-6.2,1.1-12.4,2.4-18.5
				c1-5.5,3.9-10.7,5.5-16.1c3.2-10.6,8.2-20.9,13.1-30.3c7.4-14.1,14.7-28.5,22.1-43.5c6.7-13.7,11.8-28.1,15.2-42.9
				c2.3-10.1,2.9-20.7,4.1-31.8c0.3-2.9,3.4-6.2,5.2-9.6c2-4,5.1-7.7,6.2-12.3c0.4-1.6,0-3.3,0.3-4.9c0.8-4,2.8-8.3,1.7-13
				c-0.5-2.3-2.9-5.1-4.5-7.7c-1.6-2.8-2.7-6.1-4.1-8c-1.7-2.2-4.2-2.6-4.5-6.5c-0.4-4.3,1.3-11.3,1-17.6c-0.4-8.8,1-15.8,2.1-24.7
				c0.8-6.1,0.7-13.2,2.1-17c1.9-5.2,5.5-8.8,6.2-14.2c0.4-4.2,0.1-8.5-1-12.7c-2.8-10.4-8.6-19.8-14.9-27.5
				c-1.7-2.1-4.2-3.4-6.2-5.6c-2.8-3-4.3-6.6-6.9-9.6c-5-5.6-12-10.1-17.6-15.4c-8.3-8-17.8-14.4-25.6-23.8
				c-3.6-4.3-8-7.9-12.8-11.7c-3-2.4-6-5.4-11.1-5.9c-1.9-0.2-3.5,0.4-5.2,0.3c-2.3-0.1-4.6-1-7.3-0.9c-1.7,0.1-2.7,0.9-4.8,0.9
				c-1.5,0-2.8-0.7-4.5-0.9c-9.6-1.2-21.6-2.4-30.7-4.9c-3.2-0.9-6.2-2.4-9.7-3.4c-6.6-1.8-12.9-3.6-20.4-5.6
				c-3.4-0.9-6.9-2.5-10-2.8C232.9,15,227.4,17.1,221.9,19.4 M239.9,20c9.1,3.2,21.1,5.6,30.4,9c16.5,6,37.7,5.9,54.6,11.7
				c-4.3,0.8-7.9,0.5-13.1,0.6c-3.9,2.8-13.2,5.3-9,12.3c6-1.3,7.7-6.5,14.5-7.1c-2.9,4.4-9.3,13.1-3.5,19.5c1.6-0.7,3.4,0,4.5,0
				c1.6-1.1,3.5-2.2,4.5-4c1.2-2.3,0.7-5.3,1.7-7.7c1.4-3.2,4.8-4.7,5.9-7.4c9.7-1.5,11.7,5.5,16.9,9.9c4.4,3.7,10.8,6.3,15.9,10.2
				c4.8,3.7,8.1,8.7,12.1,12c4.4,3.6,8.8,6.2,12.4,9.6c10.2,9.4,17.4,23.7,25.2,34.6c0.5,0.8,2.1,1.6,1.4,2.8
				c-4.7-0.6-8-2.3-13.1-2.5c-1,0.8-1.9,1.9-2.4,3.1c2.4,4.2,9.8,3.8,15.5,4.9c-4.1,1.5-9.8,1.7-13.8,3.4c-1.3,2.8-7.6,4-5.9,8.6
				c0.7,1.8,3.6,2.4,6.2,2.2c6-0.6,8-8.7,14.2-8.6c-0.8,8.1-11.2,7.7-11.7,16.1c7.3,2.3,11.1-5.7,15.5-9c0.6,5-3.1,7.9-4.8,12
				c-1.9,4.4-0.9,9.3-1.4,14.2c-0.5,5.3-1.2,10.9-2.1,16.4c-1.5,8.9-0.2,17.7-1.7,26.2c-4.1-7.5-11.6-14.6-14.2-23.2
				c-1.4-4.6-1.4-11.1-2.1-17c-0.6-5.8-1.7-11.7-2.1-17.3c-0.3-4.4,0.4-8.7,0-13c-0.9-10.8-1.5-22.2-4.1-31.5
				c-1.2-4.2-1.5-8.5-2.8-11.7c-0.6-1.4-2.2-3.2-3.1-4.9c-1.1-2.1-1.5-4.3-2.8-5.6c-1.6-1.5-3.4-1.6-4.5-2.8
				c-5-5-4.9-11.1-13.8-11.7c-2-0.1-4.3,1.3-7.6,0.9c-2.9-0.3-6.3-2.3-9.7-3.1c-12.6-3-30.5-0.9-40.4-5.6c-3.1-1.4-5.9-3.8-9-5.6
				c-3.2-1.8-6.7-3.4-9.7-5.2c-18.4-11.6-34.2-23.5-55.3-33C229.7,20.3,235.7,18.6,239.9,20 M164.2,29c-0.2,1.6,0.6,2.2,0.3,3.7
				c-2.8,3.2-5.1,7-9,9.3c-6,0.5-12.2,1-17.6-0.3c-1.7-2.2-3.5-4.2-3.5-8C147,34.4,154.1,30.3,164.2,29 M83,98.7
				c-2.7,0.1-3.7-1.2-5.2-2.2C78,92.2,83.5,95.4,83,98.7 M83,100.3c-0.1,0.8-0.3,1.5-0.7,2.2c-2.3,0-5,0.3-5.5-1.2
				c1.2-0.4-0.7-3.5,1-3.4C79.4,99,81.2,99.8,83,100.3 M30.2,120c-0.7-0.7-0.8-2.4-0.7-3.7c0.6-5.1,5.7-17,11.4-15.7
				C34,104.1,32.5,112.5,30.2,120 M31.9,121c0-8.1,3.8-12.8,6.9-18.2c2.5-0.6,5.6-3.1,7.6-0.6c-9.2,2.7-12.2,9.1-12.1,20.1
				C33.2,122.1,32.8,121.3,31.9,121 M28.5,117.9c-3.4-1.9-1.5-5.7-0.3-9c1-2.6,2.7-5.4,3.5-7.1c1.4,0,2.8-1.6,4.1-0.6
				C31.7,105.3,29.4,111,28.5,117.9 M82.4,103.7c0.1,0.7-0.6,0.7-0.3,1.5c-1.5,0.7-4.2,0.1-6.2,0.3c-0.2-1,0.2-2.1,1-2.8
				C77.8,103.8,80.1,103.7,82.4,103.7 M38.5,124.7c-0.5-7.4,2.6-13.3,6.2-17.9c2.2-0.5,3-3.6,5.2-3.1c-6,4.7-11.3,11.9-9,22.2
				C39.6,125.9,39.3,125,38.5,124.7 M36.8,124c-2.3-2.6-1.8-7.4-0.7-10.8c1.7-5,6-10,11.1-9.6C40.7,107.7,37.5,115,36.8,124
				 M42.3,124c-3.6-6.6,5.7-23,12.1-17.9c-6.7,3.8-10.5,11.8-9.3,21.6c-1.9-0.2-2.2-2-1.7-3.4C42.6,124.1,42.2,125.2,42.3,124
				 M81.7,107.1v1.2c-2.4,0.5-5.3-0.4-7.6-0.3C74.1,105.3,79.4,107.1,81.7,107.1 M45.7,121.9c0.8-7.7,7.8-19.3,15.2-13.3
				c-6.6,4.8-11.9,10.8-12.1,21.3C45.9,128.9,45.4,125.3,45.7,121.9 M81.3,110.8c-2.1,0.4-4.8,0.2-6.6,0.9c-0.8-0.8-2.3-1.1-2.4-2.5
				C74.7,109.1,79.8,109.1,81.3,110.8 M50.2,130.8c-1-10,5.9-19,12.8-21.3c0.6-0.2,2.5,0.8,2.8,1.2c-7.6,4-12.4,10.5-13.1,20.7
				C51.8,132.2,51.5,130.7,50.2,130.8 M66.1,116.3c1.6-1.7,2.5-3.9,4.1-5.6c0.9,0.3,1.9,0.6,2.8,0.9
				C71.4,113.6,67.7,115.4,66.1,116.3 M61.3,120c-2.6,4.2-3.3,8.8-5.9,13.6c-2.3-1.2-1.8-4.1-1.4-6.2c1.4-6.2,5.9-10.9,9.3-14.2
				c2.1-0.4,3.2-1.7,4.8-2.5C67,114.8,63.1,117,61.3,120 M61.6,136.7c-1.3-10.6,4.1-24.2,16.9-24.1C67,115.3,64.7,126.4,61.6,136.7
				 M79.6,115.4c-6,3-10.9,7.7-14.2,13.6c1.5-9,7.4-14.2,16.9-16.1C83.3,115.2,80.6,114.9,79.6,115.4 M70.3,125.3
				c-2.2,3.7-2.2,8.6-3.8,13.3c-1.6-0.8-1.2-3.8-1-4.9c1.2-8,8.9-14.8,16.2-17.3c0.3,0.1,0.7,0,0.7,0.3
				C77.6,118.7,72.7,121,70.3,125.3 M59.9,135.8c-4.1-0.4-2-5-1-7.4c1.9-4.6,3.7-9.1,6.9-11.4C61.8,121.3,59.9,128.9,59.9,135.8
				 M70.6,139.5c-2.8-0.8-2.2-5.1-1.7-7.4c1.4-7.8,8.6-13.3,15.2-14.5C75.9,121.5,71.8,129.2,70.6,139.5 M85.1,118.5
				c0.4,0.9,1,1.7,1.7,2.5c-6.9,3.5-9.2,11.2-10,20.1c-1.6-0.3-2.9-0.9-4.5-1.2C72,129.8,77,122,85.1,118.5 M87.9,121.9
				c0.9,0.8,2,1.4,3.1,1.9c-6.1,4.4-8.4,10.5-9.3,19.1c-1.1-0.6-2.2-1-3.5-1.2C78.4,132.3,80.8,125,87.9,121.9 M168.4,125.3
				c-0.5,2.5,0,4.5-0.7,7.1c-3.9,2.8-10.3,10.2-16.2,4.6c5.5-4.1,10.1-9.1,13.8-14.8h1C166.2,123.9,167.7,124.3,168.4,125.3
				 M83.4,143.8c-1.7-6.6,5.6-24.2,12.4-16.7c-5.6,3.9-9.8,9-9.7,17.9C84.2,145.5,85.4,143.2,83.4,143.8 M87.9,138.6
				c1.5-4.5,6.4-10,9.7-10.8c0.4,0.8,1.4,1.2,2.1,1.9c-6.9,3-9.7,9.6-10.4,18.2C85.9,146.1,86.9,141.5,87.9,138.6 M100,130.5
				c1.7-0.1,2.1,1,3.5,1.2c-3.6,3-6.7,6.7-9,10.8c-1.3,2.2-1.7,4.8-3.5,6.8C90,140.8,93.7,133.6,100,130.5 M92.4,153.1
				c-0.5-7.3,7.2-17.6,12.8-20.4c0.5,0.9,2.5,0.5,2.4,1.9c-7.1,2.4-11.1,11-12.8,18.2c-0.6,2.8,0.7,6.3-1.4,8.6
				c-0.9,0-1.1-0.5-1.7-0.6C94.1,158.2,92.5,155.7,92.4,153.1 M109.3,135.2c0.5-0.5,2.1,0.8,2.8,1.2c-9.2,4.9-13.2,14.6-15.9,25.3
				C95.5,149.6,99,138.5,109.3,135.2 M98.2,161.4c0.5-10.1,5.7-16.1,10.7-22.2c2.8-1.4,6.2-3.2,8.6-0.3c-11.6,3-14.5,13.8-16.6,25.3
				C100.9,162.6,98.6,162.8,98.2,161.4 M112.4,141.9c3-2.1,9.4-3.9,10.7,0c-9.9-0.2-15.1,7.7-16.9,15.1c-0.7,3,0.3,6.4-1.7,9h-1.4
				C102,157.9,106.4,146.1,112.4,141.9 M126.6,143.5c-2.3,2-5.4,1.6-7.6,3.4c-6,4.8-8,12.9-11.7,19.8
				C105.7,155.3,111.8,140.3,126.6,143.5 M127.9,144.7c1.3,1,2.6,2,3.8,3.1c-8.9,4.6-19.4,7.8-18.7,21c-1.4-0.6-3.3-0.7-3.8-2.2
				C112.5,156.7,116.1,147.1,127.9,144.7 M223.6,148.1c5.6,0,10.9-3.2,16.6-3.1c11.6,0.3,22.7,6,36.3,3.4c3.6,1.9,2.2,4.8,2.8,8.6
				c1.8,12.2,8.1,24.6,11.4,36.4c2.5,9,5.4,17.8,12.1,24.7c1.8,1.8,4.4,2.7,5.9,4.6c2.5,3.1,3.8,10.5,3.1,15.4
				c-0.2,1.6-1.8,3.1-2.1,4.6c-1,5.6,0.4,11,1.7,16.1c-14.1,2.4-24,7.8-34.2,14.2c-17.1,7.1-33.1,15.3-38.7,32.7
				c-3.4,2.3-8.6,5.9-14.9,3.7c-1.1-11-6.1-18.4-11.4-25.6c-3-3-6.8-5.6-10.4-8.3c-10-7.7-22.6-12-31.8-20.4c0.5-4-3.1-5.7-4.5-9.3
				c-2.5-6.6-0.3-15.5,0-22.2c0.4-11.7-5.9-20.5-11.7-27.2c-5.5-2.4-8.9-9.3-15.9-11.4c4.1-1.8,7.8-3.6,10.7-6.5
				c4.3-4.3,4.3-10.9,6.9-17c4,0.6,6.9,3.1,10.7,3.4c9.2,0.8,17.1-5.4,25.2-6.5c8.7-2.8,13.9-8.8,20.4-13.6
				C215.5,146.4,219.5,148.1,223.6,148.1 M120,157.4c-1.7,3.8-1,9.1-1.7,14.8c-1.6-1-3.2-1.6-3.8-3.1c-2.7-6.8,4.8-12.2,6.9-14.8
				c4.6-0.7,9.9-8.8,13.5-2.8C128.5,152.2,121.8,153.2,120,157.4 M143.1,158.3c2.7,6.8,1.2,15.5-3.5,19.1c-5.3,0.2-7.5,0.7-12.4,0.6
				c-1.5-5.8-0.4-13,1.4-18.2C132.4,158,138.4,156,143.1,158.3 M101,166c-0.7,0.1-0.9,0.7-1.7,0.6c-1.5-2.7-6-2.6-8.3-4.6
				C95,163.8,99.4,162.3,101,166 M98.6,167.6c-0.5,0.7-1.2,1.1-1.7,1.9c-2.4-1.5-5.1-2.5-7.9-2.8c0.6-0.9,0.4-2.5,1.7-2.8
				C93.8,164.7,96.9,165.5,98.6,167.6 M95.5,171.3c-1.8-0.4-5-2.1-7.3-3.1C90.9,167.7,95.9,169,95.5,171.3 M94.1,172.5
				c-0.7,1.6-2.1,2.6-3.8,2.8c-1.4-1-2.9-3.6-2.1-5.6C90.3,170.6,92.6,171.1,94.1,172.5 M96.5,215.7c-1-3.6-2.8-8.1-1.7-10.5
				c2.8-6.2,19.7-9.8,25.2-4c2.4,4.9,7.8,11.9,9.7,18.5c2.3,8-1.2,12.3-4.5,17.9c-5.7,1.7-11.6,6.2-19,4.3
				C103.9,234.2,99,224.4,96.5,215.7"/>
			<path id="Path_2807" class="st2" d="M73,111.7c-0.9-0.4-1.8-0.7-2.8-0.9c-1.6,1.6-2.6,3.9-4.1,5.6
				C67.7,115.4,71.4,113.6,73,111.7"/>
			<path id="Path_2808" class="st2" d="M134.9,151.5c-3.6-6.1-8.9,2.1-13.5,2.8c-2.1,2.6-9.6,8-6.9,14.8c0.6,1.5,2.2,2.1,3.8,3.1
				c0.7-5.7,0-11,1.7-14.8C121.8,153.2,128.5,152.2,134.9,151.5"/>
			<path id="Path_2809" class="st2" d="M91,162c2.3,2,6.8,1.9,8.3,4.6c0.9,0,1.1-0.5,1.7-0.6C99.4,162.3,95,163.8,91,162"/>
		</g>
	</g>
</g>
</svg>
