<?xml version="1.0" encoding="utf-8"?>
<!-- Generator: Adobe Illustrator 27.3.1, SVG Export Plug-In . SVG Version: 6.00 Build 0)  -->
<svg version="1.1" id="Layer_1" xmlns="http://www.w3.org/2000/svg" xmlns:xlink="http://www.w3.org/1999/xlink" x="0px" y="0px"
	 viewBox="0 0 595.3 841.9" style="enable-background:new 0 0 595.3 841.9;" xml:space="preserve">
<style type="text/css">
	.st0{clip-path:url(#SVGID_00000163763579721994360160000013838718524547905432_);}
	.st1{fill-rule:evenodd;clip-rule:evenodd;fill:#08202A;}
	.st2{fill:#08202A;}
	.st3{fill-rule:evenodd;clip-rule:evenodd;fill:#FFFFFF;}
	.st4{fill-rule:evenodd;clip-rule:evenodd;fill:#878687;}
</style>
<g>
	<defs>
		<rect id="SVGID_1_" x="224.1" y="261" width="150.5" height="319.8"/>
	</defs>
	<clipPath id="SVGID_00000149354641115305432540000013095631582931959456_">
		<use xlink:href="#SVGID_1_"  style="overflow:visible;"/>
	</clipPath>
	<g id="Group_198" style="clip-path:url(#SVGID_00000149354641115305432540000013095631582931959456_);">
		<path id="Path_2295" class="st1" d="M367.9,264c0,0.5-0.1,1.1,0.4,1.1c-0.3,0.7-1.2,0.8-2.3,0.8C365.7,264.4,366.6,264,367.9,264"
			/>
		<path id="Path_2296" class="st1" d="M362.6,264.8c1.3-0.3,1.6,0.4,2.3,0.8c-0.4,0.5-1,0.7-1.1,1.5
			C362.8,266.7,362.3,265.7,362.6,264.8"/>
		<path id="Path_2297" class="st1" d="M371.6,264.8c0.5,1.2-1.2,0.3-0.8,1.5c-0.8-0.9-1.5,0.5-2.3-0.4
			C368.4,264.3,370.4,264.9,371.6,264.8"/>
		<path id="Path_2298" class="st1" d="M367.5,268.2c0.6,1.4-2.9,1.8-2.6,0.4C365.3,268,366.5,268.2,367.5,268.2"/>
		<path id="Path_2299" class="st1" d="M361.5,273.1c-1.3,0.7-1.8,2-1.1,3.8c-1.2-0.5-1.7-1.8-1.5-3.8
			C359.7,272.9,360.8,272.3,361.5,273.1"/>
		<path id="Path_2300" class="st1" d="M370.5,272.7c-0.1,1.2-1.3,1.5,0,2.3c-0.7,0.8-2.1-0.9-2.3-1.9
			C369.1,273.1,369.4,272.4,370.5,272.7"/>
		<path id="Path_2301" class="st1" d="M353.9,273.4c0.1,1.2-0.9,1.8,0.8,1.9c-0.3,0.9-2.3,1-3,0.4
			C351.8,274.3,352.7,273.7,353.9,273.4"/>
		<path id="Path_2302" class="st1" d="M366.7,273.4v1.5c-0.5,0.4-1.2,0.5-1.9,0.4C364.7,273.9,365.8,273.8,366.7,273.4"/>
		<path id="Path_2303" class="st1" d="M365.2,279.8c0.1,1.3-2.1,2.7-0.4,3.4c0,0.8-1.6,0.2-2.3,0.4
			C362.7,282,363.7,280.5,365.2,279.8"/>
		<path id="Path_2304" class="st1" d="M353.6,280.6c0.2,1.4-2.2,1.5-2.6,1.1v-1.1C352.3,280.5,352.4,280.1,353.6,280.6"/>
		<path id="Path_2305" class="st1" d="M359.2,281c-0.2,1.4-1.6,1.6-0.8,3c-1.4,0-1.3-1.5-1.5-2.6C357.6,281,358.4,280.8,359.2,281"
			/>
		<path id="Path_2306" class="st1" d="M369.8,284.4c-0.8,1.2-1.4,2.3-0.8,4.1c-1.1-0.6-1.8-1.7-1.9-3
			C367.9,284.9,368.8,284.5,369.8,284.4"/>
		<path id="Path_2307" class="st1" d="M352.1,285.5c-0.4,1-0.4,2.1,0,3c-0.8,0.2-1.6,0-2.3-0.4C350.1,286.8,350.7,285.7,352.1,285.5
			"/>
		<path id="Path_2308" class="st1" d="M340,286.3c0.8-0.1,0.2,1.3,0.4,1.9h-1.5C338.4,286.6,340,287.2,340,286.3"/>
		<path id="Path_2309" class="st1" d="M343,287.8h2.3c0,0.7-0.5,0.8-0.4,1.5C343.8,289.2,342.8,289.1,343,287.8"/>
		<path id="Path_2310" class="st1" d="M363,288.9c1.4-0.4,0.5,1.5,0.8,2.3h-1.5C361.7,289.6,363,290,363,288.9"/>
		<path id="Path_2311" class="st1" d="M357.3,290.4c-0.4,1.3-1.3,2-1.9,3c0.2,1,0.9,1.6,1.1,2.6
			C353.3,295.4,354.1,290.4,357.3,290.4"/>
		<path id="Path_2312" class="st1" d="M334.7,292.7c-0.3,0.7-0.7,1.3-1.9,1.1C332.8,292.7,333.9,291.9,334.7,292.7"/>
		<path id="Path_2313" class="st1" d="M338.5,292.3c0.4,0.7-1.1,1.3,0,1.5c-0.4,0.7-1.4,0.9-2.1,0.5c-0.1,0-0.1-0.1-0.2-0.1
			C336.3,292.9,337.4,292.5,338.5,292.3"/>
		<path id="Path_2314" class="st1" d="M350.2,293c1,0.9-0.7,2.6,0.4,3.8c-1.5,0.2-1.3,0.4-2.3-0.4C348.7,295.2,349.3,294,350.2,293"
			/>
		<path id="Path_2315" class="st1" d="M331.3,296c1.3-0.4,0.6,1.2,0.8,1.9c-0.9,0-1.1,0.6-2.3,0.4
			C329.3,296.5,330.9,296.8,331.3,296"/>
		<path id="Path_2316" class="st1" d="M361.1,296.4c0.3,1.4-1.7,2.4,0,3c-0.4,0.6-1.6,0.4-2.3,0.8
			C358.2,298.6,359.6,297,361.1,296.4"/>
		<path id="Path_2317" class="st1" d="M343.8,297.5c-0.5,0.9-1.7,1.9-0.4,2.6c-0.7,1-1.7-0.8-2.3-1.1
			C341.6,298,342.7,297.4,343.8,297.5"/>
		<path id="Path_2318" class="st1" d="M367.9,297.5c-0.5,1-2.9,1.5-1.1,2.6c-0.9,1-2.5-0.5-2.3-1.9
			C365.8,298.2,366.3,297.4,367.9,297.5"/>
		<path id="Path_2319" class="st1" d="M335.9,299.1c1.3,0.3-0.1,1.5,0.8,2.6c-0.9,0.1-1.6,0.7-2.3,0
			C334.1,300,335.6,300.1,335.9,299.1"/>
		<path id="Path_2320" class="st1" d="M331.3,301.3c-0.4,0.8-3.2,1.9-3,0C329.2,300.5,329.9,301.7,331.3,301.3"/>
		<path id="Path_2321" class="st1" d="M307.6,302.4c1.5-0.4,1.7,0.6,2.3,1.1C309.3,304.4,307.4,303.5,307.6,302.4"/>
		<path id="Path_2322" class="st1" d="M349,302.4c0.3,0.9-1.7,1.9,0,1.9c-0.3,0.7-1,1-1.9,1.1C346.2,304.1,347.5,302.4,349,302.4"/>
		<path id="Path_2323" class="st1" d="M355.1,303.2c-0.2,0.9-2.4,1.6-1.1,2.6c-0.5,1.1-1.9-0.1-2.3-0.4
			C352.6,304.5,353.4,303.4,355.1,303.2"/>
		<path id="Path_2324" class="st1" d="M303.8,303.6c-0.1,0.8-0.4,1.5-0.8,2.3c-0.3-0.3-0.7-0.4-1.1-0.4
			C302.2,304.4,302.4,303.3,303.8,303.6"/>
		<path id="Path_2325" class="st1" d="M329.8,306.2c0.2,1.5-2.5,2-3.4,1.1C326.6,306,328.9,306.8,329.8,306.2"/>
		<path id="Path_2326" class="st1" d="M358.1,307c1.4,0.8-1.6,2.6,0.4,3c0,1-1.3,0.7-2.3,0.8C356.2,308.9,357.4,308.1,358.1,307"/>
		<path id="Path_2327" class="st1" d="M335.5,307.3c-0.8,0.8-0.7,2.6-2.6,2.3C332.3,308.7,333.7,307.1,335.5,307.3"/>
		<path id="Path_2328" class="st1" d="M364.1,308.5c-1,1.5,0,1.5-0.4,2.6c-0.7-0.7-2.3-0.4-2.3-1.9
			C362.5,309.2,363,308.5,364.1,308.5"/>
		<path id="Path_2329" class="st1" d="M310.6,309.6c0.7-0.1,1.3,0,1.9,0.4v1.5C311.5,311.4,310.7,310.6,310.6,309.6"/>
		<path id="Path_2330" class="st1" d="M296.7,310v1.9h-1.9C294.7,310.5,295.3,309.9,296.7,310"/>
		<path id="Path_2331" class="st1" d="M328.3,310c0.1,1.5-2.2,2-2.3,0.4C326.7,310,327.6,309.8,328.3,310"/>
		<path id="Path_2332" class="st1" d="M302,310.7v1.9c-1.4,0.2-1.8,0.5-2.6-0.4C300.1,311.6,300.4,310.6,302,310.7"/>
		<path id="Path_2333" class="st1" d="M341.5,310.7c0.2,1.4-1.3,1.2-0.8,3c-0.9,0.1-1.2-0.6-1.5-1.1
			C339.4,311.4,340.5,311.1,341.5,310.7"/>
		<path id="Path_2334" class="st1" d="M346.4,313c-1.3,1.4-0.1,3.1-2.6,3C343.9,314.3,344.6,313.1,346.4,313"/>
		<path id="Path_2335" class="st1" d="M334,313.7c-1.2,1-1,3.2-3,3.4C329.9,315.3,332.3,314.1,334,313.7"/>
		<path id="Path_2336" class="st1" d="M352.1,313.7c-0.4,0.9-1.5,1-1.1,2.6c-1.1-0.1-1.6-0.7-1.5-1.9
			C350.6,314.6,350.7,313.5,352.1,313.7"/>
		<path id="Path_2337" class="st1" d="M293.7,314.5c-0.9,1.1-1.4,1.4-0.4,2.6c-2-0.1-0.4,0.9-1.1,1.9c-0.8,0.1-1.5-0.5-1.5-1.3
			c0-0.1,0-0.1,0-0.2C291.8,317.1,290.5,313.8,293.7,314.5"/>
		<path id="Path_2338" class="st1" d="M327.2,314.5c0.4,1.6-3.2,2.3-3,0.4C325.4,315,325.8,314.2,327.2,314.5"/>
		<path id="Path_2339" class="st1" d="M308,315.6c0.1,1.4-2.3,1.4-3,0.8C305.8,315.7,306.9,315.4,308,315.6"/>
		<path id="Path_2340" class="st1" d="M300.8,317.1c0.2,1.3-2.2,2-3,1.1C297.9,317,299.5,317.2,300.8,317.1"/>
		<path id="Path_2341" class="st1" d="M324.6,317.9c0.3,1.4-0.6,1.7-1.9,1.5C322.4,318,323.5,317.9,324.6,317.9"/>
		<path id="Path_2342" class="st1" d="M356.2,318.6c-1,2,0.1,4.6-2.6,3C354.4,320.6,354.6,318.9,356.2,318.6"/>
		<path id="Path_2343" class="st1" d="M312.5,319.4c0.2,1.2-1.2,0.9-0.8,2.3c-0.6-0.5-1.5-0.8-1.5-1.9
			C311.4,320,311.4,319.1,312.5,319.4"/>
		<path id="Path_2344" class="st1" d="M308.4,321.3c-1,0.4-3,0.7-3-0.8C306.4,319.5,307.6,320.8,308.4,321.3"/>
		<path id="Path_2345" class="st1" d="M361.5,320.5c1.4,0.9-2.4,2.2,0,3c-0.4,0.9-1.9-0.4-2.3-0.8
			C359.1,321.1,361.2,321.8,361.5,320.5"/>
		<path id="Path_2346" class="st1" d="M291.8,321.7c0.5,1.3-2.5,0.9-2.6,0.4C288.7,320.8,291.7,321.1,291.8,321.7"/>
		<path id="Path_2347" class="st1" d="M343.4,321.7c-0.8,0.8,0.3,1.2-0.4,1.9c-0.7,0.1-1.3,0-1.9-0.4
			C341.1,321.9,342.2,321.7,343.4,321.7"/>
		<path id="Path_2348" class="st1" d="M325.3,322c0.2,1.4-3.2,2.3-3,0.4C323.7,322.7,323.9,321.8,325.3,322"/>
		<path id="Path_2349" class="st1" d="M338.9,322.4c0.1,1.1-0.9,1.2-0.8,2.3c-0.6-0.4-1.7-0.3-1.5-1.5
			C337.8,323.3,337.5,322,338.9,322.4"/>
		<path id="Path_2350" class="st1" d="M298.6,322.8c1,0.9-0.4,2.6-1.9,2.3C296.3,323.3,297.9,323.5,298.6,322.8"/>
		<path id="Path_2351" class="st1" d="M331.7,323.5c-0.5,1.2-1.7,1.5-2.6,2.3c-0.7-0.7,0.2-1.1,0.4-1.9
			C330.6,324.2,330.6,323.3,331.7,323.5"/>
		<path id="Path_2352" class="st1" d="M289.2,324.3h1.5c0.1,0.4-0.1,0.9-0.5,1c-0.4,0.1-0.9-0.1-1-0.5
			C289.1,324.7,289.1,324.5,289.2,324.3"/>
		<path id="Path_2353" class="st1" d="M321.9,324.3c1.1-0.1,2.1,0,1.9,1.1C322.7,325.5,321.8,325.5,321.9,324.3"/>
		<path id="Path_2354" class="st1" d="M349.8,324.7c-0.5,1.4-2.3,2.2-1.1,4.1c-1.3-0.2-1.8-1.2-1.9-2.6
			C348,325.8,348.5,324.9,349.8,324.7"/>
		<path id="Path_2355" class="st1" d="M299.7,325c1.4-0.4,0.5,1.5,0.8,2.3h-1.5C299.1,326.5,299.3,325.8,299.7,325"/>
		<path id="Path_2356" class="st1" d="M311.8,325.8c0.2,0.9-0.7,0.8-0.4,1.9c-1.2,0.2-1.7-0.3-1.5-1.5
			C310.4,325.8,311.1,325.7,311.8,325.8"/>
		<path id="Path_2357" class="st1" d="M305.4,326.5c-1.2,0.9-0.3,1.7,0.8,2.3c-0.9,0.6-3.5-0.3-3.4-1.9
			C304,327.2,304.2,326.4,305.4,326.5"/>
		<path id="Path_2358" class="st1" d="M287.3,326.9h3.4C290.5,328,287.1,328.9,287.3,326.9"/>
		<path id="Path_2359" class="st1" d="M322.7,328.4c0.4,1.5-2,1.3-2.6,0.8C320.1,328.1,321.6,328.5,322.7,328.4"/>
		<path id="Path_2360" class="st1" d="M341.5,328.8c0.1,0.9-2.9,2-0.8,2.6c-0.1,0.8-0.9,0.8-1.9,0.8
			C338.7,330,339.5,328.8,341.5,328.8"/>
		<path id="Path_2361" class="st1" d="M312.5,329.6c-0.2,1.2-2.5,2.1-2.6,0.4C310.4,329.4,311.5,329.6,312.5,329.6"/>
		<path id="Path_2362" class="st1" d="M353.6,329.9c-0.7,1.1,0.1,1.9-0.4,2.6h-1.5C351.8,331.2,352.3,330.2,353.6,329.9"/>
		<path id="Path_2363" class="st1" d="M289.5,330.3c0.3,1.3-1.3,1.3-1.9,0.8C287.7,330.2,288.6,330.3,289.5,330.3"/>
		<path id="Path_2364" class="st1" d="M297.4,330.7c0.6,1.2-2.7,3.5-4.1,2.6C293.9,331.6,296.2,331.7,297.4,330.7"/>
		<path id="Path_2365" class="st1" d="M360,331.1c0,1-1.6,0.4-1.1,1.9c-0.8,0.2-1.6,0-2.3-0.4C356.7,331,358.4,331.1,360,331.1"/>
		<path id="Path_2366" class="st1" d="M336.2,331.4c0,0.7-1.9,1.3-0.8,1.9c-0.2,0.9-1.8,0.1-1.9-0.4
			C333.8,331.8,335,331.6,336.2,331.4"/>
		<path id="Path_2367" class="st1" d="M289.5,332.6c-0.6,0.9-4.2,2.7-4.5,0.4C286.5,332.6,288,332.5,289.5,332.6"/>
		<path id="Path_2368" class="st1" d="M329.1,333c-1,0.8-0.9,2.6-3,2.3C326,333.4,327.6,333.2,329.1,333"/>
		<path id="Path_2369" class="st1" d="M310.2,333.3c-0.4,0.7-0.5,1.5-0.4,2.3c-1-0.1-1.8-0.9-1.9-1.9
			C308.9,333.7,309.1,333.1,310.2,333.3"/>
		<path id="Path_2370" class="st1" d="M303.8,334.5c-2.3,0.5-4.1,1.4-6.4,1.9C298,333.8,301.3,334,303.8,334.5"/>
		<path id="Path_2371" class="st1" d="M322.3,334.5c-0.4,0.9-2.9,1.6-3.8,0.8C318.8,334,321.6,334,322.3,334.5"/>
		<path id="Path_2372" class="st1" d="M287.6,336.3c0.3,1.4-0.4,1.8-1.5,1.9C285.4,337.5,286.6,336.5,287.6,336.3"/>
		<path id="Path_2373" class="st1" d="M346,337.5c0.9,0.9-1.8,1.8-0.4,3.4c-0.9-0.1-1.6-0.4-1.9-1.1
			C343.6,338.1,345.8,338.7,346,337.5"/>
		<path id="Path_2374" class="st1" d="M310.2,337.8c-0.3,0.4-0.4,1-0.4,1.5h-1.5C308.4,338.3,309,337.8,310.2,337.8"/>
		<path id="Path_2375" class="st1" d="M318.9,337.8c1.1-0.1,2.1,0,1.9,1.1C319.7,339.1,318.7,339,318.9,337.8"/>
		<path id="Path_2376" class="st1" d="M340,337.8c-0.9,1.1-1.4,4.2-3.4,3C337.3,339.4,338.1,338.1,340,337.8"/>
		<path id="Path_2377" class="st1" d="M294.8,339c-0.4,1.6-1.7,1.3-1.5,2.6H291C291.4,339.8,293.1,339.4,294.8,339"/>
		<path id="Path_2378" class="st1" d="M288,340.9c-2-0.5-3.5,0.6-5.3-0.4C283.2,339.1,287.9,339.4,288,340.9"/>
		<path id="Path_2379" class="st1" d="M303.5,340.9c-0.5,0.4-2.5,1.3-3,0.4C300.2,339.8,303.1,340.5,303.5,340.9"/>
		<path id="Path_2380" class="st1" d="M350.2,340.9c1.7,0,0.1,2,0,2.6h-1.5C348.5,341.9,350.1,342.2,350.2,340.9"/>
		<path id="Path_2381" class="st1" d="M308.4,341.2c1,0.7-0.8,3.2-1.9,1.9C306.3,341.6,308,342.2,308.4,341.2"/>
		<path id="Path_2382" class="st1" d="M334,341.2c-0.2,1.4-1.7,1.8-0.8,3.4c-1.3,0.3-1.6-0.4-2.3-0.8
			C331.3,342.3,332.7,341.9,334,341.2"/>
		<path id="Path_2383" class="st1" d="M356.6,342c-0.7,1.6-1.3,1.6-0.4,3.4c-1-0.5-2.1-0.9-2.3-2.3
			C354.8,342.7,355.2,341.8,356.6,342"/>
		<path id="Path_2384" class="st1" d="M321.2,342.4c-0.3,1.4-2.1,1.4-3.8,1.5C317.2,341.9,320.2,343.2,321.2,342.4"/>
		<path id="Path_2385" class="st1" d="M328.3,342.4c-1.1,1-1.9,2.4-3.8,2.6C324.8,343.1,326.4,342.6,328.3,342.4"/>
		<path id="Path_2386" class="st1" d="M285.4,343.5v1.5c-1,0.3-0.8-0.7-1.5-0.8C284,343.6,284.5,343.4,285.4,343.5"/>
		<path id="Path_2387" class="st1" d="M298.2,343.5c0.1,1.5-2.2,2-2.3,0.4C296.6,343.5,297.4,343.3,298.2,343.5"/>
		<path id="Path_2388" class="st1" d="M293.3,344.6v1.1c-0.7-0.1-1.9,0.4-1.5-0.8C292.2,344.7,292.8,344.6,293.3,344.6"/>
		<path id="Path_2389" class="st1" d="M337.4,346.1c0.5,0.9-1,1.4,0,1.5c-0.5,0.5-1.7,1-2.3,0.4
			C335.2,346.8,336.4,346.5,337.4,346.1"/>
		<path id="Path_2390" class="st1" d="M317,346.5c1.2-0.2,1.5,0.5,2.3,0.8C319.4,348.3,316.6,348,317,346.5"/>
		<path id="Path_2391" class="st1" d="M308.4,346.9c-0.4,0.9-1.4,1.3-2.3,0.9c-0.1,0-0.2-0.1-0.3-0.2
			C305.8,346.6,307.3,347,308.4,346.9"/>
		<path id="Path_2392" class="st1" d="M286.5,347.3c-0.3,1.5-3.4,1.7-4.5,1.1C282.9,347.4,284.5,347.2,286.5,347.3"/>
		<path id="Path_2393" class="st1" d="M300.8,347.3c1.3,0.5,1.2,2.3,2.6,2.6c-1,0.6-3.1-0.9-4.1-1.5
			C298.7,346.9,301,348.3,300.8,347.3"/>
		<path id="Path_2394" class="st1" d="M343.8,347.6c0.9,1.5-1.9,2.9-0.8,4.9c-1.7,0.2-1-2.1-1.1-3.4
			C342.6,348.8,343.5,348.5,343.8,347.6"/>
		<path id="Path_2395" class="st1" d="M292.9,349.1c0.2,1.1-3.3,1.9-3.4,0.4C290.2,348.9,291.7,349.2,292.9,349.1"/>
		<path id="Path_2396" class="st1" d="M306.9,349.5c0,0.6-0.2,1.4,0.4,1.5c-0.3,0.9-2.1,0.2-2.3-0.4
			C304.9,349.6,305.9,349.6,306.9,349.5"/>
		<path id="Path_2397" class="st1" d="M296.3,351c0.3,1.3-1.3,1.4-1.9,0.8C294.5,351,295.4,351,296.3,351"/>
		<path id="Path_2398" class="st1" d="M319.3,351c-0.4,0.9-3.8,2.5-3.8,0.4C317.2,351.7,317.8,350.9,319.3,351"/>
		<path id="Path_2399" class="st1" d="M284.6,352.5c-0.7,0-0.8,0.5-1.5,0.4c-0.3-0.3-0.4-0.7-0.4-1.1
			C283.3,351.2,284.7,351.4,284.6,352.5"/>
		<path id="Path_2400" class="st1" d="M325.7,352.2c-0.4,1-2.9,1-3.8,0.4C322.3,351.6,324.9,351.5,325.7,352.2"/>
		<path id="Path_2401" class="st1" d="M346.4,351.8c0.6,0,1.4-0.2,1.5,0.4C348.3,353.5,345.6,353.2,346.4,351.8"/>
		<path id="Path_2402" class="st1" d="M331.7,352.2c0.2,1.2-0.7,1.3-0.4,2.6c-1.1,0.3-1-0.5-1.9-0.4
			C329.6,353,330.5,352.5,331.7,352.2"/>
		<path id="Path_2403" class="st1" d="M352.4,352.9c1,0.7-1.3,2.7-2.3,1.5C350.6,353.6,352,353.8,352.4,352.9"/>
		<path id="Path_2404" class="st1" d="M316.3,353.7c0.9,0.5,0.9,1.9,2.3,1.9c0,1.1-2.1,0.9-2.6,0.4
			C315.7,355.2,315.9,354.3,316.3,353.7"/>
		<path id="Path_2405" class="st1" d="M291.4,354c1.4,0.3,0.2,1.8-1.1,1.5v-1.1C290.8,354.5,291.4,354.5,291.4,354"/>
		<path id="Path_2406" class="st1" d="M337,354c0.3,1.7-1.7,2.3-2.6,1.5C334.8,354.5,335.9,353.9,337,354"/>
		<path id="Path_2407" class="st1" d="M284.6,354.8c0.4,1.6-1.8,2.4-2.6,1.5C282.2,355.1,283.7,355.3,284.6,354.8"/>
		<path id="Path_2408" class="st1" d="M300.8,356.7c-1.8-0.2-2.3,0.5-3.4,0C297.5,355.3,300.9,355,300.8,356.7"/>
		<path id="Path_2409" class="st1" d="M305.4,357.1c0.8-0.2,1.6,0,2.3,0.4c-0.9,1.1-2.8,1.2-2.6,3.4c-1.1,0.1-2.1,0-1.9-1.1
			C305,359.6,305.3,358.2,305.4,357.1"/>
		<path id="Path_2410" class="st1" d="M325.3,357.8c-0.1,1.2-4.2,1.9-4.5,0.4C321.7,357.5,323.8,357.9,325.3,357.8"/>
		<path id="Path_2411" class="st1" d="M292.9,358.2c-1.3,1-2.9,1.5-4.5,1.5C288.6,357.9,291,358.3,292.9,358.2"/>
		<path id="Path_2412" class="st1" d="M293.7,359.3c0.1,0.4-0.1,0.9-0.5,1c-0.4,0.1-0.9-0.1-1-0.5c-0.1-0.2-0.1-0.4,0-0.5
			C293.2,359.3,292.9,358.7,293.7,359.3"/>
		<path id="Path_2413" class="st1" d="M349.4,359.3c1.3,0.4-1.6,1.9,0,2.6c-0.6,0.9-1.6-0.8-1.5-1.9
			C348.1,359.5,349.4,360,349.4,359.3"/>
		<path id="Path_2414" class="st1" d="M318.2,359.7c-0.7,1.5-2.2,2.4-3.8,2.3C314.6,360.2,316.6,360.2,318.2,359.7"/>
		<path id="Path_2415" class="st1" d="M282.8,360.1c0.3,0.3,0.7,0.4,1.1,0.4c0.1,2.2-2,2.2-4.1,2.3
			C279.9,361,282.6,361.8,282.8,360.1"/>
		<path id="Path_2416" class="st1" d="M298.9,361.6c-0.5,1.4,1,0.7,0.8,1.9c-1.2,0.2-1.3-0.7-2.6-0.4
			C296.8,361.7,297.8,361.6,298.9,361.6"/>
		<path id="Path_2417" class="st1" d="M329.1,362c0.9,0.7-1.2,1.7,0,3c-0.5-0.4-1.4-0.4-1.9-0.8C327.2,362.8,328.5,362.8,329.1,362"
			/>
		<path id="Path_2418" class="st1" d="M344.5,362.3c-0.1,1.2-0.3,2.2-1.5,2.3C342.2,363.6,343.4,362.5,344.5,362.3"/>
		<path id="Path_2419" class="st1" d="M323.4,364.2c-0.3,1.4-1.9,1.4-3.4,1.5C319.8,363.9,322.5,364.9,323.4,364.2"/>
		<path id="Path_2420" class="st1" d="M306.9,364.6c0.1,1.3-2,1.4-2.6,0.8C304.3,364.3,305.8,364.7,306.9,364.6"/>
		<path id="Path_2421" class="st1" d="M335.9,365c-1.3,1.1-1.2,3.5-3.8,3.4C332.6,366.6,334,365.3,335.9,365"/>
		<path id="Path_2422" class="st1" d="M296.7,367.2c-1,0.3-0.8-0.7-1.5-0.8C295.5,364.8,297.8,366.4,296.7,367.2"/>
		<path id="Path_2423" class="st1" d="M290.3,367.2c-1-0.2-3,0.5-3.4-0.4C286.9,365.3,290.3,366.2,290.3,367.2"/>
		<path id="Path_2424" class="st1" d="M346.8,366.5c0.8,1.1-0.9,2.8-2.3,3c0.1-0.4-0.1-0.7-0.4-0.8
			C344.4,367.4,346.5,367.8,346.8,366.5"/>
		<path id="Path_2425" class="st1" d="M283.5,368c-1,0.7-5.5,2.1-5.6,0C279.8,367.6,281,368.1,283.5,368"/>
		<path id="Path_2426" class="st1" d="M303.1,367.6c0.3,1.1-0.8,1.9-0.4,3c-1.1,0.1-1.3-0.7-1.9-1.1
			C300.9,368.2,302.8,368.7,303.1,367.6"/>
		<path id="Path_2427" class="st1" d="M316.3,367.6c-0.9,1.2-2.3,1.7-3.8,1.5C312.6,367.5,314.7,367.8,316.3,367.6"/>
		<path id="Path_2428" class="st1" d="M339.2,368c-0.4,1.3-1.9,1.9-1.1,3.4c-0.8-0.2-1.2-0.8-1.9-1.1
			C336.9,369.1,338,368.3,339.2,368"/>
		<path id="Path_2429" class="st1" d="M287.6,368.4c1,0,0.5,1.5,1.5,1.5c-0.7,1-2.5,0-2.3-1.1C287.3,368.8,287.6,368.6,287.6,368.4"
			/>
		<path id="Path_2430" class="st1" d="M298.2,370.2c-0.5,1.1-2.9,1.6-3.8,1.1C294.8,370.2,296.5,370.2,298.2,370.2"/>
		<path id="Path_2431" class="st1" d="M312.5,370.6c1-0.2,1.9,0.1,2.6,0.8C314.7,372.1,312,372,312.5,370.6"/>
		<path id="Path_2432" class="st1" d="M304.2,371.4h1.1c0,1.1-0.5,1.8-1.9,1.5C303.5,372.1,304.5,372.4,304.2,371.4"/>
		<path id="Path_2433" class="st1" d="M327.2,371.7c1.1,0.5-0.5,1.5,0,2.6c-0.7,0.1-1.5-0.1-1.9-0.8
			C325.3,372.4,326.8,372.6,327.2,371.7"/>
		<path id="Path_2434" class="st1" d="M321.2,372.5c-0.3,1.2-1.5,2-2.7,1.8c-0.2,0-0.4-0.1-0.7-0.2C318.3,372.9,320,373,321.2,372.5
			"/>
		<path id="Path_2435" class="st1" d="M291.4,372.9c-0.1,1.4-0.5,2.5-1.9,2.6c-0.3-1.1,0.4-2.3,1.6-2.6
			C291.2,372.9,291.3,372.9,291.4,372.9"/>
		<path id="Path_2436" class="st1" d="M289.2,374c-1.3,1.2-3.8,1.8-4.5,0C286.9,373.5,286.6,374,289.2,374"/>
		<path id="Path_2437" class="st1" d="M283.1,374.4c-0.3,1.1-3.8,1-4.1,0.8C279,373.5,281.9,374.8,283.1,374.4"/>
		<path id="Path_2438" class="st1" d="M296.3,374.8c0.3,1.4-0.6,1.7-1.9,1.5C294.1,374.8,295.5,375.1,296.3,374.8"/>
		<path id="Path_2439" class="st1" d="M341.5,374.8c1,0.8,0.2,2.9-1.1,2.6C339.5,376.4,341.1,375.7,341.5,374.8"/>
		<path id="Path_2440" class="st1" d="M333.6,375.5c0,1.4-1.7,1.1-3,1.1C330.3,375,332.3,375.6,333.6,375.5"/>
		<path id="Path_2441" class="st1" d="M336.2,375.5c1.5,0.4-0.4,1.5-0.4,2.6c-0.3-0.3-0.7-0.4-1.1-0.4
			C334.7,376.4,336,376.5,336.2,375.5"/>
		<path id="Path_2442" class="st1" d="M296.7,377c1.3,0.3-0.1,1.5,0.8,2.6c-0.4-0.1-0.7,0.1-0.8,0.4c-1.2-1.3-2.6-0.7-4.1-1.1
			C293.3,376.9,296.3,378.9,296.7,377"/>
		<path id="Path_2443" class="st1" d="M313.6,377c1.3,1.1-2.5,1.7-3,1.1C311.1,376.7,313.2,377.7,313.6,377"/>
		<path id="Path_2444" class="st1" d="M301.6,377.4c-0.3,0.8-1,1.3-0.8,2.6c-0.7,0.1-1.5-0.1-1.9-0.8
			C299.3,378.1,300.6,377.9,301.6,377.4"/>
		<path id="Path_2445" class="st1" d="M287.7,377.8c0.1,1-0.5,1.2-1.5,1.1C286,377.9,286.7,377.7,287.7,377.8"/>
		<path id="Path_2446" class="st1" d="M282,380c0.7,1.6-2.2,1.2-3.4,1.5c0.1-0.4-0.1-0.7-0.4-0.8C278.5,379.4,281.8,380.5,282,380"
			/>
		<path id="Path_2447" class="st1" d="M301.2,380.4c1.7,0.1,0.4,2.6-0.8,2.3C299.5,381.7,301.2,381.5,301.2,380.4"/>
		<path id="Path_2448" class="st1" d="M295.9,380.8c1.4,1.2-1.6,2.7-2.3,1.9C293.4,381,295.6,381.9,295.9,380.8"/>
		<path id="Path_2449" class="st1" d="M312.5,382.3c-0.7,0.1-1.3,0-1.9-0.4C310.7,380.8,312.9,380.9,312.5,382.3"/>
		<path id="Path_2450" class="st1" d="M331,381.5c0.5,1.4-2.2,1.5-2.6,0.8C328,380.9,330.1,381.8,331,381.5"/>
		<path id="Path_2451" class="st1" d="M319.3,382.3c-0.6,1.3-2,2-3.4,1.9C316,382.5,318.1,382.9,319.3,382.3"/>
		<path id="Path_2452" class="st1" d="M284.3,383c1.3,0.1,3.1-0.3,3.8,0.4C287.5,384.1,284.1,385,284.3,383"/>
		<path id="Path_2453" class="st1" d="M324.2,383.8c0.4,1.4-0.9,1.1-0.8,2.3c-0.7,0-0.8-0.5-1.5-0.4
			C322.5,384.9,322.9,383.9,324.2,383.8"/>
		<path id="Path_2454" class="st1" d="M311.8,385.7c0.4,0.1,0.3,0.7,0.4,1.1c-1.1,0.4-2.2,0.5-3.4,0.4
			C308.7,385.7,311,386.5,311.8,385.7"/>
		<path id="Path_2455" class="st1" d="M278.2,386.1c2.1-0.2,3.6,0.9,5.3,0c-0.3,1.9-3.2,1.4-5.3,1.5V386.1z"/>
		<path id="Path_2456" class="st1" d="M291.4,386.8c1.6-0.1,0,0.6,0,1.1c1.1,1.7,1.6-0.7,3.4-0.4c0.5,1.4-1,0.7-0.8,1.9
			c-2-0.4-4.9,0.2-5.3-1.9C289.7,387.5,290.6,387.3,291.4,386.8"/>
		<path id="Path_2457" class="st1" d="M298.9,386.8v1.9c-1.5,0.2-1.3,0.4-2.3-0.4C297.5,387.9,297.8,386.9,298.9,386.8"/>
		<path id="Path_2458" class="st1" d="M328.7,389.4c-0.2,1.8-1.4,3.4-3,2.6C326.2,390.7,327.4,390,328.7,389.4"/>
		<path id="Path_2459" class="st1" d="M310.2,389.8v1.5h-1.9C308.3,390.1,309.3,390,310.2,389.8"/>
		<path id="Path_2460" class="st1" d="M284.6,390.2c1.4,0.1,3,0,3,1.5C286.1,391.7,284.7,391.7,284.6,390.2"/>
		<path id="Path_2461" class="st1" d="M316.3,390.2c-0.2,1.2-1.4,2-2.6,1.8c-0.3-0.1-0.5-0.1-0.8-0.3
			C313.7,390.9,315.1,390.6,316.3,390.2"/>
		<path id="Path_2462" class="st1" d="M281.2,392.1c-0.2,2.2-3.7,0.6-4.5,0C277.8,390.1,279,392.9,281.2,392.1"/>
		<path id="Path_2463" class="st1" d="M297.4,391.7c1.1,0.5-0.4,1.3,0,2.3c-0.9,0.1-1.4-0.1-1.5-0.8
			C295.7,391.9,297.3,392.6,297.4,391.7"/>
		<path id="Path_2464" class="st1" d="M321.5,393.6c0.8,0.3-0.2,2-0.4,2.6c-0.7,0.1-1.3,0-1.9-0.4
			C319.8,394.8,321.2,394.8,321.5,393.6"/>
		<rect id="Rectangle_89" x="308" y="394" class="st2" width="2.3" height="0.8"/>
		<path id="Path_2465" class="st1" d="M293.3,394.7c-1,1,0.4,0.8,0.4,1.9H291C291,395.2,292,394.8,293.3,394.7"/>
		<path id="Path_2466" class="st1" d="M286.9,396.6c-0.1,1.1-3.8,1.3-3.4-0.4C285.2,395.4,285.8,396.6,286.9,396.6"/>
		<path id="Path_2467" class="st1" d="M282.4,399.2c-1.7-0.6-5,0.4-5.3-1.5C278.4,397.3,281.7,397.8,282.4,399.2"/>
		<path id="Path_2468" class="st1" d="M312.9,398.5c1.2,0.9-0.7,1.8-1.9,1.5C310.6,398.4,312.6,399.3,312.9,398.5"/>
		<path id="Path_2469" class="st1" d="M295.9,399.2c-0.1,1-1.2,1.1-0.8,2.6c-1.1-0.1-1.6-0.7-1.5-1.9
			C294.8,400.1,294.8,399.1,295.9,399.2"/>
		<path id="Path_2470" class="st1" d="M291.8,400c1.4,0.4-1.8,1.9,0.4,1.9c-0.6,1.2-2.6,0.7-3.4,0C289.2,400.7,291,400.8,291.8,400"
			/>
		<path id="Path_2471" class="st1" d="M306.9,400.4c1.2-0.2,0.9,1.2,2.3,0.8C309,402.4,306.2,402.1,306.9,400.4"/>
		<path id="Path_2472" class="st1" d="M323.4,400.7c-0.3,0.6-1,0.8-1.6,0.6c-0.1,0-0.2-0.1-0.3-0.2
			C321.6,400.2,322.9,400.2,323.4,400.7"/>
		<path id="Path_2473" class="st1" d="M318.5,400.7c1.1,0.9-1.3,1.5-0.8,3c-0.6,0-1.2-0.2-1.5-0.8
			C316.4,401.6,318.2,401.9,318.5,400.7"/>
		<path id="Path_2474" class="st1" d="M283.1,403c1.5,0,2.6,0.4,3,1.5C284.7,404.5,282.7,405,283.1,403"/>
		<path id="Path_2475" class="st1" d="M282,404.5c0.1,2-4.3,1.2-4.9,0.4C277.9,403.1,280.1,405,282,404.5"/>
		<path id="Path_2476" class="st1" d="M291.8,405.6c-0.4,0.9-1.3,1.2-1.1,2.6c-0.8,0.1-1.5-0.5-1.5-1.3c0-0.1,0-0.1,0-0.2
			C290.1,406.5,290.6,405.7,291.8,405.6"/>
		<path id="Path_2477" class="st1" d="M293.3,406c1.1,1.2-1.1,2.4-0.8,4.1C289.8,409.4,293.2,407.4,293.3,406"/>
		<path id="Path_2478" class="st1" d="M308,406.4c0.5,1.3-1.9,1.6-2.3,0.8C305.4,405.8,307.2,406.6,308,406.4"/>
		<path id="Path_2479" class="st1" d="M312.1,407.1c0.1,1.1-0.9,1.1-1.9,1.1c-0.2-0.3-0.3-0.7-0.8-0.8
			C309.8,406.1,310.7,407.6,312.1,407.1"/>
		<path id="Path_2480" class="st1" d="M315.9,407.9c0.8,0.7,0.2,3.2-1.1,3C315,409.9,315.4,408.8,315.9,407.9"/>
		<path id="Path_2481" class="st1" d="M282.4,409c-1.1,1.9-3.7,0.7-5.3,0C278.3,407.1,280,409.8,282.4,409"/>
		<path id="Path_2482" class="st1" d="M290.7,409.8c-0.3,1.7-1.7,2.8-3,1.5C288.2,410.3,289.6,410.2,290.7,409.8"/>
		<path id="Path_2483" class="st1" d="M305,411.3c0.7,0,0.8,0.5,1.5,0.4c0,1-0.8,1.9-1.8,1.9c-0.2,0-0.3,0-0.5,0
			C304,412.4,304.8,412.1,305,411.3"/>
		<path id="Path_2484" class="st1" d="M280.9,412.8c-0.1,1.1-4.2,1.3-3.8-0.4C278.7,411.5,278.8,413.2,280.9,412.8"/>
		<path id="Path_2485" class="st1" d="M285.8,413.9c0.5,0.1,0.3,0.9,0.4,1.5c-0.9,0.3-2.4,0.9-2.3-0.8
			C284.8,414.7,285.7,414.7,285.8,413.9"/>
		<path id="Path_2486" class="st1" d="M309.5,414.7c1,0,1.9,0.1,1.9,1.1C310.3,415.9,309.3,415.9,309.5,414.7"/>
		<path id="Path_2487" class="st1" d="M314.4,414.7c1.2,0.7-0.6,2.8-1.5,1.5C313,415.3,314,415.3,314.4,414.7"/>
		<path id="Path_2488" class="st1" d="M281.2,416.6c-0.1,1.2-1.5,1-2.6,1.1C278.4,415.5,279.7,416.7,281.2,416.6"/>
		<path id="Path_2489" class="st1" d="M305,416.6c1,0.4,1.3,1.4,1.9,2.3C305.4,418.9,304.8,418.1,305,416.6"/>
		<path id="Path_2490" class="st3" d="M255.3,425.2c-5.9-6.4,6.3-9.2,6-3C261.2,424.9,258.8,425.3,255.3,425.2"/>
		<path id="Path_2491" class="st1" d="M285.4,420c1.4,0.1-0.7,2.3-2.3,1.9C283.1,420.4,284.7,420.6,285.4,420"/>
		<path id="Path_2492" class="st1" d="M303.8,421.8c1.6,0,2.1,0.7,3.4,0C307.6,423.6,303.6,423.3,303.8,421.8"/>
		<path id="Path_2493" class="st3" d="M268.1,424.5c-0.3,1.1-1.1,1.6-0.8,3.4C265.2,427.8,266.3,424,268.1,424.5"/>
		<path id="Path_2494" class="st3" d="M276,425.2h1.5c-0.2,1.3-0.9,2.5-1.9,3.4C275.5,427.5,275.6,426.3,276,425.2"/>
		<path id="Path_2495" class="st3" d="M282.8,425.2c-0.1,0.9-1.2,0.8-1.5,1.5C280.1,426.1,281.5,424.7,282.8,425.2"/>
		<path id="Path_2496" class="st3" d="M271.8,426c1.7,0-0.2,1.4,0.4,2.6C270.9,428.4,271.6,426.8,271.8,426"/>
		<path id="Path_2497" class="st3" d="M292.2,426c0.9,0.9-1.7,1.9-0.4,3.4c-1.2,0-1.4-1.1-1.5-2.3
			C290.7,426.5,291.7,426.5,292.2,426"/>
		<path id="Path_2498" class="st3" d="M285.4,426.4c1.6,0.1-0.7,1.8,0,3.4c-0.7,0-0.8-0.5-1.5-0.4
			C283.5,427.5,284.6,427,285.4,426.4"/>
		<path id="Path_2499" class="st3" d="M262.4,430.5c-1.1,2.1-6,2-7.2,0C254.4,424.5,263,426.2,262.4,430.5"/>
		<path id="Path_2500" class="st3" d="M268.1,426.7c0.4,0.5,1.7,2,1.1,2.3C268.1,429,268.3,427.7,268.1,426.7"/>
		<path id="Path_2501" class="st3" d="M297.4,426.7c-0.2,0.9-1.5,0.8-1.1,2.3c-0.7,0-0.8-0.5-1.5-0.4
			C295.5,427.8,295.5,426.3,297.4,426.7"/>
		<path id="Path_2502" class="st3" d="M300.8,427.1c-0.5,0.5-0.4,1.6-0.4,2.6c-1,0-2.1,0.1-2.6-0.4
			C297.5,427.3,298.9,426.9,300.8,427.1"/>
		<path id="Path_2503" class="st3" d="M307.2,429c-1.1,0.8-1.9,2.6-3.4,1.9C303.6,428.9,306.1,428.3,307.2,429"/>
		<path id="Path_2504" class="st3" d="M311.4,429.7c-1.1,1.6-2.7,4-4.9,2.3C307.1,429.9,308.8,428.9,311.4,429.7"/>
		<path id="Path_2505" class="st3" d="M315.9,431.6c-1.5,0.8-3.9,0.6-4.1,2.6c-0.7,0-0.8-0.5-1.5-0.4
			C310.6,431,313.7,429.5,315.9,431.6"/>
		<path id="Path_2506" class="st3" d="M320.8,433.9c-0.7,0.7-3.3,1.5-1.9,3c-0.9,1-2.7-0.3-3.4-0.8
			C316.3,433.9,318.6,431.5,320.8,433.9"/>
		<path id="Path_2507" class="st3" d="M315.9,433.1c-0.6,0.8-1,1.8-2.3,1.9c0.1-0.4-0.1-0.7-0.4-0.8
			C313.6,433.4,314.6,433,315.9,433.1"/>
		<path id="Path_2508" class="st3" d="M326.1,437.3c-0.8,1-2.6,0.9-3,2.3C319.8,437.1,324.4,434.1,326.1,437.3"/>
		<path id="Path_2509" class="st3" d="M327.9,438.8c0.2,1.7-2.1,0.9-3,1.5c0-1.1,0.9-1.9,2-1.8C327.3,438.5,327.7,438.6,327.9,438.8
			"/>
		<path id="Path_2510" class="st3" d="M330.2,441c-0.6,0.9-2.3,2-3.4,1.1C326.5,440.1,329.5,439.9,330.2,441"/>
		<path id="Path_2511" class="st3" d="M329.5,442.9C334.2,440.3,330.8,447.9,329.5,442.9"/>
		<path id="Path_2512" class="st3" d="M332.8,444.4c0.6-0.1,0.6,0.4,1.1,0.4c0.3,1.2-1,0.8-1.1,1.5
			C332,446.2,332.6,444.7,332.8,444.4"/>
		<path id="Path_2513" class="st3" d="M334.3,446.3c0.5,0.3,0.8,0.9,0.8,1.5c-0.3,0.2-0.7,0.3-0.8,0.8c-0.6-0.4-0.8-1.3-0.3-1.9
			C334.1,446.5,334.2,446.4,334.3,446.3"/>
		<path id="Path_2514" class="st3" d="M335.5,449.3c2,0.3-1.3,3.3-1.1,0.8C335.1,450.2,335.5,450,335.5,449.3"/>
		<path id="Path_2515" class="st3" d="M335.1,452c0.7,0.4,1.5,0.5,2.3,0.4c-0.2,1.3-0.6,2.1,0.4,3C336.6,456,335.4,453.4,335.1,452"
			/>
		<path id="Path_2516" class="st4" d="M339.2,566.5c-4.2,8.2-16.3,6.8-29.4,7.5c-12,0.6-28.1,1.1-41.4,0c-6.8-0.6-20-0.9-24.5-3.8
			c-1.9-1.3-3.8-6.1-5.3-8.7c-3.6-6.4-8.7-13.9-10.2-22.6c-1-5.8,1.1-14.8,2.6-18.8c1.1-2.9,3.3-6.3,4.9-9.4
			c4.1-7.9,8.7-17,15.1-22.2c1.4-1.1,3.6-2,5.6-3.4c2.1-1.5,3.6-3.3,5.3-3.8c2.4-0.7,7.1-0.7,8.7-0.8c11.9-0.2,24.8,5.6,32.8,11.7
			c6.4,4.8,11.4,12.9,16.6,20.7c4.6,6.9,12.8,13.9,15.4,19.6c2.1,4.4,2.4,10.7,3,16.2C339.1,554.4,339.2,560.3,339.2,566.5
			 M257.5,546.1c13.9,4.2,26.2,12,40.3,14.7c-2.1-3.8-6.5-4.2-10.5-5.6c-0.8-0.3-1.5-1.3-2.3-1.5c-1.4-0.4-3.1,0.1-4.5-0.4
			c-1.4-0.5-2.6-2-4.1-2.6c-4.4-1.9-6.9-2.6-10.2-5.3c-3.6-3-8.7-7.7-10.9-10.9c-4.6-6.6-5.2-16-10.2-23.4H244
			C243.3,526.4,249,538.7,257.5,546.1 M240.6,542.7c2.8,6.4,3.4,9.2,7.5,11.7c3.2,2,6.4,2.3,10.2,3.8c2.6,1,5,3.5,7.9,4.5
			c5.6,2,11.3,2.9,16.2,4.1c-2.9-6.2-11.1-5.5-17.3-7.9c-3.7-1.4-6-4.7-9.8-4.9c-2.3-3-6.3-4.9-8.7-8.3c-1-1.5-1-3.6-1.9-5.6
			c-2.5-6.1-7.2-11.7-6-18.5c-0.1-0.3-0.3-0.4-0.8-0.4C235.5,528.9,238,536.8,240.6,542.7 M258.7,529.5c1.3,1.7,2.2,3.6,2.6,5.7
			c4.4,5.5,9.7,8.7,17.7,10.2c1.3,0.2,3.9,2.2,4.5,0c-2.7-1.5-6.6-1.7-8.7-3.8v-1.9c-6.3-4.7-10.4-11.5-16.6-16.2
			C257.3,525.3,259.1,527.1,258.7,529.5 M282.4,560.8c-2.1-4-7.5-3.3-11.7-5.3c-5.8-2.7-11.3-7.1-17.3-9.4c-1.4-0.9-1.1-3.5-3.4-3.4
			C254.2,555.1,269.8,558.1,282.4,560.8 M265.8,567.2c-2.1-2-4.7-1.9-7.2-3c-5.9-2.7-9.6-8.7-16.6-10.2c-0.1-0.5-0.4-0.2-0.8,0
			c4.8,9.4,18.8,16.4,32.4,15.8C273,567,269.1,567.5,265.8,567.2"/>
		<path id="Path_2517" class="st1" d="M244,511.1h1.1c5,7.3,5.6,16.7,10.2,23.4c2.3,3.3,7.3,8,10.9,10.9c3.3,2.7,5.8,3.3,10.2,5.3
			c1.5,0.7,2.7,2.2,4.1,2.6c1.4,0.5,3.2,0,4.5,0.4c0.8,0.2,1.5,1.2,2.3,1.5c4.1,1.4,8.4,1.9,10.5,5.6c-14.1-2.7-26.4-10.5-40.3-14.7
			C249,538.7,243.3,526.4,244,511.1"/>
		<path id="Path_2518" class="st1" d="M237.9,521.3c0.4-0.1,0.7,0.1,0.8,0.4c-1.1,6.8,3.5,12.3,6,18.5c0.9,2.1,0.9,4.2,1.9,5.7
			c2.3,3.4,6.3,5.3,8.7,8.3c3.7,0.2,6.1,3.5,9.8,4.9c6.2,2.4,14.4,1.7,17.3,7.9c-4.9-1.3-10.6-2.1-16.2-4.1c-2.9-1-5.3-3.5-7.9-4.5
			c-3.8-1.5-7-1.8-10.2-3.8c-4.1-2.5-4.7-5.2-7.5-11.7C237.9,536.8,235.5,528.9,237.9,521.3"/>
		<path id="Path_2519" class="st1" d="M258.3,523.5c6.2,4.7,10.3,11.5,16.6,16.2v1.9c2.1,2.1,6,2.3,8.7,3.8c-0.6,2.2-3.3,0.2-4.5,0
			c-8-1.5-13.3-4.6-17.7-10.2c-0.5-2-1.4-4-2.6-5.7C259.1,527.1,257.3,525.3,258.3,523.5"/>
		<path id="Path_2520" class="st1" d="M250,542.7c2.3-0.1,2,2.5,3.4,3.4c6,2.3,11.5,6.7,17.3,9.4c4.2,1.9,9.6,1.2,11.7,5.3
			C269.8,558.1,254.2,555.1,250,542.7"/>
		<path id="Path_2521" class="st1" d="M273.7,569.8c-13.6,0.6-27.6-6.4-32.4-15.8c0.3-0.2,0.7-0.5,0.8,0c7,1.5,10.7,7.5,16.6,10.2
			c2.4,1.1,5,1,7.2,3C269.1,567.5,273,567,273.7,569.8"/>
		<path id="Path_2522" class="st3" d="M302,425.6c-1.2-23.4,6.5-48.2,10.2-69.3c1.1-6.7,3.6-12.4,4.5-18.5
			c2.8-18.3,7.5-35.1,16.6-48.6c1-0.8,1.6,0.2,2.6-0.4c1.2-1-1.4-1.4,0.4-1.9c1.4-2,3.3-3.6,5.6-4.5c1.1-3.5,3.5-5.6,6.4-4.5
			c0.3-1.4-2-0.3-1.5-1.9c3.4-2,6.7-4.3,9.8-6.8c3.3-2.6,7-7.6,10.9-7.5c4.9,0.1,6.8,8.8,6,16.9c-1.6,14.4-4.5,28.7-8.7,42.6
			c-2.1,6.8-3.9,13.4-5.6,20c-1.8,6.6-4.8,12.3-7.5,18.1c-2.9,6.1-4.5,12.8-7.5,18.1c-3.2,5.7-7,9.5-11.3,14.3
			c-8.3,9.2-12,22.9-20.3,30.5c-1.8,1.6-6.7,4.8-8.7,4.5C304.3,426.8,302.1,424.8,302,425.6 M368.6,265.9c0.8,0.9,1.5-0.5,2.3,0.4
			c-0.5-1.2,1.2-0.3,0.8-1.5C370.4,264.9,368.4,264.3,368.6,265.9 M366,265.9c1.1,0.1,1.9-0.1,2.3-0.8c-0.4-0.1-0.4-0.6-0.4-1.1
			C366.6,264,365.7,264.4,366,265.9 M363.7,267c0.1-0.8,0.8-1,1.1-1.5c-0.7-0.3-1-1.1-2.3-0.8C362.3,265.7,362.8,266.7,363.7,267
			 M364.9,268.6c-0.2,1.4,3.2,1,2.6-0.4C366.5,268.2,365.3,268,364.9,268.6 M358.8,273.1c-0.2,1.9,0.3,3.2,1.5,3.8
			c-0.6-1.8-0.2-3,1.1-3.8C360.8,272.3,359.7,272.9,358.8,273.1 M368.2,273.1c0.1,1,1.5,2.7,2.3,1.9c-1.3-0.8-0.1-1.1,0-2.3
			C369.4,272.4,369.1,273.1,368.2,273.1 M351.7,275.7c0.7,0.7,2.7,0.5,3-0.4c-1.6-0.1-0.7-0.7-0.8-1.9
			C352.7,273.7,351.8,274.3,351.7,275.7 M364.9,275.3c0.7,0.1,1.3,0,1.9-0.4v-1.5C365.8,273.8,364.7,273.9,364.9,275.3 M362.6,283.6
			c0.7-0.2,2.2,0.5,2.3-0.4c-1.8-0.7,0.5-2.1,0.4-3.4C363.7,280.5,362.7,282,362.6,283.6 M350.9,280.6v1.1c0.4,0.3,2.8,0.3,2.6-1.1
			C352.4,280.1,352.3,280.5,350.9,280.6 M356.9,281.4c0.2,1.2,0.1,2.7,1.5,2.6c-0.8-1.4,0.6-1.6,0.8-3
			C358.4,280.8,357.6,281,356.9,281.4 M367.1,285.5c0.1,1.3,0.8,2.4,1.9,3c-0.7-1.8-0.1-2.9,0.8-4.1
			C368.8,284.5,367.9,284.9,367.1,285.5 M349.8,288.1c0.7,0.4,1.5,0.5,2.3,0.4c-0.4-1-0.4-2.1,0-3
			C350.7,285.7,350.1,286.8,349.8,288.1 M338.9,288.1h1.5c-0.2-0.5,0.4-1.9-0.4-1.9C340,287.2,338.4,286.7,338.9,288.1 M344.9,289.3
			c-0.1-0.7,0.4-0.8,0.4-1.5H343C342.8,289.1,343.8,289.2,344.9,289.3 M362.2,291.1h1.5c-0.2-0.8,0.6-2.6-0.8-2.3
			C363,290,361.7,289.6,362.2,291.1 M356.6,296c-0.2-1.1-0.9-1.6-1.1-2.6c0.6-1,1.5-1.7,1.9-3C354.1,290.4,353.3,295.4,356.6,296
			 M332.8,293.8c1.2,0.2,1.5-0.5,1.9-1.1C333.9,291.9,332.8,292.7,332.8,293.8 M336.2,294.2c0.6,0.5,1.6,0.4,2.1-0.2
			c0-0.1,0.1-0.1,0.1-0.2c-1.1-0.2,0.4-0.8,0-1.5C337.4,292.5,336.3,292.9,336.2,294.2 M348.3,296.4c0.9,0.8,0.8,0.5,2.3,0.4
			c-1-1.2,0.6-2.8-0.4-3.8C349.3,294,348.6,295.2,348.3,296.4 M329.8,298.3c1.1,0.3,1.4-0.4,2.3-0.4c-0.2-0.7,0.5-2.3-0.8-1.9
			C330.9,296.8,329.3,296.5,329.8,298.3 M358.8,300.2c0.7-0.3,1.9-0.1,2.3-0.8c-1.7-0.6,0.3-1.6,0-3
			C359.6,297,358.2,298.6,358.8,300.2 M341.1,299.1c0.6,0.3,1.6,2.1,2.3,1.1c-1.3-0.7-0.2-1.8,0.4-2.6
			C342.7,297.4,341.6,298.1,341.1,299.1 M364.5,298.3c-0.2,1.4,1.4,2.9,2.3,1.9c-1.7-1.1,0.6-1.7,1.1-2.6
			C366.3,297.3,365.8,298.2,364.5,298.3 M334.3,301.7c0.7,0.7,1.4,0.1,2.3,0c-0.8-1.1,0.5-2.3-0.8-2.6
			C335.6,300.1,334.1,300,334.3,301.7 M328.3,301.3c-0.2,1.9,2.7,0.8,3,0C329.9,301.7,329.2,300.5,328.3,301.3 M347.2,305.5
			c0.9-0.1,1.6-0.4,1.9-1.1c-1.7,0.1,0.3-1,0-1.9C347.5,302.4,346.2,304.1,347.2,305.5 M351.7,305.5c0.4,0.3,1.7,1.5,2.3,0.4
			c-1.3-1,1-1.8,1.1-2.6C353.4,303.4,352.6,304.5,351.7,305.5 M326.4,307.3c0.9,0.9,3.6,0.3,3.4-1.1
			C328.9,306.8,326.6,306,326.4,307.3 M356.2,310.7c1,0,2.2,0.2,2.3-0.8c-2-0.4,1-2.2-0.4-3C357.4,308.1,356.2,308.9,356.2,310.7
			 M332.8,309.6c2,0.3,1.8-1.4,2.6-2.3C333.7,307.1,332.3,308.7,332.8,309.6 M361.5,309.2c-0.1,1.4,1.5,1.2,2.3,1.9
			c0.4-1.1-0.6-1.2,0.4-2.6C363,308.5,362.5,309.2,361.5,309.2 M326.1,310.4c0,1.6,2.3,1.1,2.3-0.4
			C327.6,309.8,326.7,310,326.1,310.4 M339.3,312.6c0.3,0.6,0.6,1.2,1.5,1.1c-0.6-1.8,0.9-1.6,0.8-3
			C340.5,311.1,339.4,311.4,339.3,312.6 M343.8,316c2.6,0.1,1.3-1.6,2.6-3C344.6,313.1,343.9,314.3,343.8,316 M331,317.1
			c2-0.1,1.8-2.4,3-3.4C332.3,314.1,329.9,315.3,331,317.1 M349.4,314.5c-0.1,1.2,0.4,1.8,1.5,1.9c-0.4-1.6,0.8-1.7,1.1-2.6
			C350.7,313.5,350.6,314.6,349.4,314.5 M324.2,314.9c-0.2,1.9,3.4,1.3,3-0.4C325.8,314.2,325.4,315,324.2,314.9 M322.7,319.4
			c1.3,0.2,2.1-0.1,1.9-1.5C323.5,317.9,322.4,318,322.7,319.4 M353.6,321.6c2.8,1.6,1.7-1,2.6-3
			C354.6,318.9,354.4,320.6,353.6,321.6 M359.2,322.8c0.4,0.4,1.9,1.6,2.3,0.8c-2.4-0.8,1.4-2.1,0-3
			C361.2,321.8,359.1,321.1,359.2,322.8 M341.1,323.2c0.6,0.4,1.2,0.5,1.9,0.4c0.7-0.7-0.4-1.1,0.4-1.9
			C342.2,321.7,341.1,321.9,341.1,323.2 M322.3,322.4c-0.2,1.9,3.2,1,3-0.4C323.9,321.8,323.7,322.7,322.3,322.4 M336.6,323.2
			c-0.2,1.2,0.9,1.1,1.5,1.5c-0.1-1.1,0.9-1.2,0.8-2.3C337.5,322,337.8,323.3,336.6,323.2 M329.5,323.9c-0.2,0.8-1.1,1.2-0.4,1.9
			c0.9-0.7,2.2-1.1,2.6-2.3C330.6,323.3,330.6,324.2,329.5,323.9 M323.8,325.4c0.2-1.2-0.8-1.2-1.9-1.1
			C321.7,325.5,322.7,325.5,323.8,325.4 M346.8,326.2c0.1,1.4,0.5,2.5,1.9,2.6c-1.1-1.9,0.6-2.8,1.1-4.1
			C348.5,324.9,347.9,325.8,346.8,326.2 M320,329.2c0.6,0.6,3,0.8,2.6-0.8C321.6,328.5,320.1,328.1,320,329.2 M338.9,332.2
			c0.9,0.1,1.8,0.1,1.9-0.8c-2.2-0.6,0.8-1.7,0.8-2.6C339.5,328.8,338.7,330,338.9,332.2 M351.7,332.6h1.5c0.5-0.7-0.3-1.5,0.4-2.6
			C352.3,330.2,351.8,331.2,351.7,332.6 M356.6,332.6c0.7,0.4,1.5,0.5,2.3,0.4c-0.5-1.5,1.1-0.9,1.1-1.9
			C358.4,331.2,356.7,331,356.6,332.6 M333.6,333c0.1,0.4,1.6,1.3,1.9,0.4c-1.2-0.6,0.8-1.2,0.8-1.9
			C335,331.6,333.8,331.8,333.6,333 M326.1,335.2c2.1,0.4,2-1.5,3-2.3C327.6,333.2,326,333.4,326.1,335.2 M318.5,335.2
			c0.8,0.8,3.4,0.1,3.8-0.8C321.6,334,318.8,334.1,318.5,335.2 M343.8,339.7c0.3,0.7,1,1,1.9,1.1c-1.4-1.6,1.3-2.5,0.4-3.4
			C345.8,338.8,343.6,338.1,343.8,339.7 M320.8,339c0.2-1.2-0.8-1.2-1.9-1.1C318.7,339,319.7,339.1,320.8,339 M336.6,340.9
			c2,1.2,2.5-1.9,3.4-3C338.1,338.1,337.3,339.4,336.6,340.9 M348.7,343.5h1.5c0.1-0.6,1.7-2.6,0-2.6
			C350.1,342.2,348.4,341.9,348.7,343.5 M331,343.9c0.7,0.3,1,1.1,2.3,0.8c-0.9-1.5,0.5-2,0.8-3.4
			C332.7,341.9,331.3,342.4,331,343.9 M353.9,343.1c0.1,1.4,1.3,1.7,2.3,2.3c-0.9-1.8-0.3-1.8,0.4-3.4
			C355.1,341.8,354.8,342.7,353.9,343.1 M317.4,343.9c1.7-0.1,3.4-0.1,3.8-1.5C320.2,343.2,317.2,341.9,317.4,343.9 M324.6,345
			c1.9-0.3,2.7-1.6,3.8-2.6C326.4,342.6,324.8,343.1,324.6,345 M335.1,348c0.6,0.6,1.8,0.2,2.3-0.4c-1-0.1,0.5-0.6,0-1.5
			C336.4,346.5,335.2,346.8,335.1,348 M319.3,347.3c-0.8-0.2-1.1-0.9-2.3-0.8C316.6,348,319.4,348.3,319.3,347.3 M341.9,349.2
			c0.2,1.3-0.6,3.6,1.1,3.4c-1.2-2,1.7-3.4,0.8-4.9C343.5,348.5,342.6,348.8,341.9,349.2 M315.5,351.4c0,2.1,3.3,0.5,3.8-0.4
			C317.8,350.9,317.2,351.7,315.5,351.4 M321.9,352.5c0.8,0.6,3.4,0.6,3.8-0.4C324.9,351.5,322.3,351.6,321.9,352.5 M347.9,352.2
			c-0.1-0.6-0.9-0.3-1.5-0.4C345.6,353.2,348.3,353.5,347.9,352.2 M329.5,354.4c0.9-0.2,0.8,0.7,1.9,0.4c-0.3-1.3,0.6-1.4,0.4-2.6
			C330.5,352.5,329.6,353,329.5,354.4 M350.2,354.4c1,1.2,3.3-0.8,2.3-1.5C352,353.8,350.6,353.6,350.2,354.4 M315.9,355.9
			c0.5,0.5,2.6,0.7,2.6-0.4c-1.4,0-1.4-1.4-2.3-1.9C315.9,354.3,315.7,355.2,315.9,355.9 M334.3,355.5c0.9,0.8,3,0.2,2.6-1.5
			C335.9,353.9,334.8,354.5,334.3,355.5 M320.8,358.2c0.3,1.5,4.4,0.8,4.5-0.4C323.8,358,321.7,357.5,320.8,358.2 M338.9,360.1
			c-0.1,1.2,0.4,1.8,1.5,1.9c-0.6-1.6,1.7-2.3,0.8-3C340.6,359.6,339.5,359.5,338.9,360.1 M347.9,360.1c-0.1,1,0.9,2.8,1.5,1.9
			c-1.6-0.8,1.3-2.2,0-2.6C349.4,360,348.1,359.6,347.9,360.1 M314.4,362c1.6,0.1,3.1-0.8,3.8-2.3
			C316.6,360.2,314.6,360.2,314.4,362 M327.2,364.2c0.5,0.4,1.4,0.4,1.9,0.8c-1.2-1.3,0.9-2.3,0-3
			C328.5,362.8,327.2,362.8,327.2,364.2 M343,364.6c1.2,0,1.4-1.1,1.5-2.3C343.4,362.5,342.1,363.6,343,364.6 M320,365.7
			c1.5-0.2,3.1-0.1,3.4-1.5C322.5,364.9,319.8,363.9,320,365.7 M332.1,368.4c2.5,0.2,2.5-2.3,3.8-3.4
			C334,365.3,332.6,366.6,332.1,368.4 M344.1,368.7c0.3,0.1,0.4,0.3,0.4,0.8c1.4-0.2,3.1-1.9,2.3-3
			C346.5,367.8,344.4,367.4,344.1,368.7 M312.5,369.1c1.4,0.2,2.9-0.3,3.8-1.5C314.7,367.8,312.6,367.5,312.5,369.1 M336.2,370.2
			c0.7,0.3,1.1,0.9,1.9,1.1c-0.8-1.5,0.8-2,1.1-3.4C338,368.3,336.9,369.1,336.2,370.2 M315.1,371.4c-0.7-0.7-1.7-1-2.6-0.8
			C312,372,314.7,372.1,315.1,371.4 M325.3,373.6c0.4,0.6,1.2,0.9,1.9,0.8c-0.5-1.2,1.1-2.1,0-2.6
			C326.8,372.6,325.3,372.4,325.3,373.6 M317.8,374c1.1,0.6,2.5,0.2,3.1-0.9c0.1-0.2,0.2-0.4,0.2-0.6C320,373,318.3,372.9,317.8,374
			 M340.4,377.4c1.3,0.3,2.1-1.9,1.1-2.6C341.1,375.7,339.5,376.4,340.4,377.4 M330.6,376.6c1.3,0,3,0.3,3-1.1
			C332.3,375.6,330.3,375,330.6,376.6 M334.7,377.8c0.4,0,0.8,0.1,1.1,0.4c0-1.1,1.9-2.2,0.4-2.6C336,376.5,334.7,376.4,334.7,377.8
			 M310.6,378.1c0.5,0.6,4.3,0,3-1.1C313.2,377.7,311.1,376.7,310.6,378.1 M310.6,381.9c0.5,0.4,1.2,0.5,1.9,0.4
			C312.9,380.9,310.7,380.8,310.6,381.9 M328.3,382.3c0.4,0.7,3.1,0.6,2.6-0.8C330.1,381.8,328,380.9,328.3,382.3 M315.9,384.2
			c1.4,0.2,2.8-0.6,3.4-1.9C318.1,382.9,316,382.5,315.9,384.2 M331.7,385.7c-0.1,0.8,0.5,1.5,1.3,1.5c0.1,0,0.1,0,0.2,0
			c-0.3-1.7,1.8-2.9,1.1-3.8C333.6,384.3,333.1,385.4,331.7,385.7 M321.9,385.7c0.7-0.1,0.8,0.4,1.5,0.4c-0.2-1.2,1.2-0.9,0.8-2.3
			C322.9,383.9,322.5,384.9,321.9,385.7 M308.7,387.2c1.1,0.1,2.3,0,3.4-0.4c-0.1-0.4,0.1-1.1-0.4-1.1
			C311,386.5,308.7,385.7,308.7,387.2 M325.7,392.1c1.6,0.8,2.8-0.8,3-2.6C327.4,390,326.2,390.7,325.7,392.1 M308.4,391.3h1.9v-1.5
			C309.3,390,308.3,390.1,308.4,391.3 M312.9,391.7c1.1,0.7,2.4,0.3,3.1-0.7c0.1-0.2,0.2-0.5,0.3-0.8
			C315.1,390.6,313.7,390.9,312.9,391.7 M319.3,395.8c0.5,0.4,1.2,0.5,1.9,0.4c0.1-0.6,1.1-2.3,0.4-2.6
			C321.2,394.8,319.8,394.8,319.3,395.8 M308,394.7h2.3V394H308L308,394.7z M311,400c1.2,0.3,3.1-0.6,1.9-1.5
			C312.6,399.3,310.6,398.4,311,400 M309.1,401.1c-1.4,0.4-1.1-0.9-2.3-0.8C306.2,402.1,309,402.4,309.1,401.1 M321.5,401.1
			c0.5,0.4,1.3,0.4,1.7-0.1c0.1-0.1,0.1-0.2,0.2-0.3C322.9,400.2,321.6,400.2,321.5,401.1 M316.3,403c0.3,0.5,0.9,0.8,1.5,0.8
			c-0.5-1.6,1.8-2.2,0.8-3C318.2,401.9,316.4,401.6,316.3,403 M305.7,407.1c0.4,0.8,2.7,0.5,2.3-0.8
			C307.2,406.6,305.4,405.8,305.7,407.1 M309.5,407.5c0.4,0.1,0.6,0.4,0.8,0.8c1,0,1.9-0.1,1.9-1.1
			C310.7,407.6,309.8,406.1,309.5,407.5 M314.8,410.9c1.3,0.2,1.9-2.3,1.1-3C315.4,408.8,315,409.9,314.8,410.9 M304.2,413.5
			c1,0.2,2-0.4,2.2-1.4c0-0.1,0-0.3,0-0.5c-0.7,0.1-0.8-0.4-1.5-0.4C304.8,412.1,304.1,412.4,304.2,413.5 M311.4,415.8
			c0.1-1.1-0.9-1.1-1.9-1.1C309.3,415.9,310.3,415.9,311.4,415.8 M312.9,416.2c0.9,1.3,2.7-0.8,1.5-1.5
			C314.1,415.3,313,415.3,312.9,416.2 M306.9,418.8c-0.6-0.8-0.9-1.8-1.9-2.3C304.8,418.1,305.4,418.9,306.9,418.8 M307.2,421.8
			c-1.3,0.7-1.8-0.1-3.4,0C303.6,423.3,307.6,423.6,307.2,421.8"/>
		<path id="Path_2523" class="st3" d="M277.9,420.7c0.5-0.3,3.2,2.4,4.5,0.4c-2.2,0.2-3.5-1.8-5.6-2.6c-5.2-12.7-1.1-31.3-0.4-48.2
			c0.6-14,1.9-25.4,5.6-36.9c1.1-3.5,3.2-7.1,4.5-10.5c2.1-5.4,3.6-11.2,7.2-14.7c2.7-2.4,5.6-4.6,8.7-6.4c1.7-0.9,5.1-2.1,6.4-1.9
			c3.6,0.5,6.9,8.1,7.5,12.8c1.2,9.7-2.4,19.5-3.4,26c-1.9,12.6-3.1,24.5-6,36.9c-2.5,10.5-6.3,16.9-9.4,25.6
			c-2.7,7.6-6.7,20.2-12.1,22.6c-0.3,0.2-2.6-1.1-3.4,0.4C280.3,423.4,278.9,422.2,277.9,420.7 M309.9,303.6
			c-0.6-0.5-0.7-1.5-2.3-1.1C307.4,303.5,309.3,304.4,309.9,303.6 M302,305.5c0.4,0,0.8,0.1,1.1,0.4c0.4-0.7,0.6-1.5,0.8-2.3
			C302.4,303.3,302.2,304.4,302,305.5 M312.5,311.5V310c-0.5-0.4-1.2-0.5-1.9-0.4C310.7,310.6,311.5,311.4,312.5,311.5 M294.8,311.9
			h1.9V310C295.3,309.9,294.7,310.5,294.8,311.9 M299.3,312.2c0.9,0.9,1.2,0.6,2.6,0.4v-1.9C300.4,310.6,300.1,311.6,299.3,312.2
			 M290.7,317.5c-0.1,0.8,0.5,1.5,1.3,1.5c0.1,0,0.1,0,0.2,0c0.7-0.9-0.9-2,1.1-1.9c-1-1.2-0.5-1.6,0.4-2.6
			C290.5,313.8,291.8,317.1,290.7,317.5 M305,316.4c0.7,0.6,3.1,0.6,3-0.8C306.9,315.4,305.8,315.7,305,316.4 M297.8,318.3
			c0.8,0.9,3.2,0.2,3-1.1C299.5,317.2,297.9,317,297.8,318.3 M310.2,319.8c0,1.1,0.9,1.4,1.5,1.9c-0.4-1.4,0.9-1.1,0.8-2.3
			C311.4,319.1,311.4,320,310.2,319.8 M305.3,320.5c0,1.5,2,1.1,3,0.8C307.6,320.8,306.4,319.6,305.3,320.5 M289.2,322
			c0.1,0.5,3.1,0.9,2.6-0.4C291.7,321.1,288.7,320.8,289.2,322 M296.7,325c1.5,0.3,2.9-1.3,1.9-2.3
			C297.9,323.5,296.3,323.3,296.7,325 M290.7,324.3h-1.5c-0.1,0.4,0.1,0.9,0.5,1c0.4,0.1,0.9-0.1,1-0.5
			C290.7,324.7,290.7,324.5,290.7,324.3 M298.9,327.3h1.5c-0.2-0.8,0.6-2.6-0.8-2.3C299.3,325.8,299.1,326.5,298.9,327.3
			 M309.9,326.2c-0.2,1.2,0.3,1.7,1.5,1.5c-0.3-1.1,0.5-1,0.4-1.9C311.1,325.7,310.4,325.8,309.9,326.2 M302.7,326.9
			c-0.1,1.6,2.5,2.5,3.4,1.9c-1-0.6-1.9-1.3-0.8-2.3C304.2,326.4,304,327.2,302.7,326.9 M290.7,326.9h-3.4
			C287.1,328.9,290.5,328,290.7,326.9 M309.9,329.9c0.1,1.8,2.5,0.9,2.6-0.4C311.5,329.6,310.4,329.4,309.9,329.9 M287.6,331.1
			c0.6,0.6,2.1,0.6,1.9-0.8C288.6,330.3,287.7,330.2,287.6,331.1 M293.3,333.3c1.5,0.8,4.8-1.4,4.1-2.6
			C296.2,331.7,293.9,331.6,293.3,333.3 M285,333c0.3,2.4,3.9,0.5,4.5-0.4C288,332.5,286.5,332.6,285,333 M308,333.7
			c0.1,1,0.9,1.8,1.9,1.9c-0.2-0.8,0-1.6,0.4-2.3C309.1,333.1,308.9,333.7,308,333.7 M297.4,336.3c2.3-0.5,4.1-1.4,6.4-1.9
			C301.3,334,298,333.8,297.4,336.3 M286.1,338.2c1.1,0,1.8-0.5,1.5-1.9C286.6,336.5,285.4,337.5,286.1,338.2 M308.4,339.4h1.5
			c-0.1-0.5,0.1-1.1,0.4-1.5C309,337.7,308.4,338.3,308.4,339.4 M291,341.6h2.3c-0.2-1.4,1.1-1.1,1.5-2.6
			C293.1,339.4,291.3,339.8,291,341.6 M282.8,340.5c1.8,0.9,3.3-0.1,5.3,0.4C287.9,339.4,283.2,339.1,282.8,340.5 M300.5,341.2
			c0.5,0.9,2.5,0,3-0.4C303.1,340.5,300.2,339.8,300.5,341.2 M306.5,343.1c1.1,1.3,2.9-1.2,1.9-1.9
			C308,342.2,306.3,341.6,306.5,343.1 M283.9,344.2c0.7,0,0.5,1,1.5,0.8v-1.5C284.5,343.4,284,343.6,283.9,344.2 M295.9,343.9
			c0,1.6,2.3,1.1,2.3-0.4C297.4,343.3,296.6,343.5,295.9,343.9 M291.8,345c-0.4,1.1,0.8,0.7,1.5,0.8v-1.1
			C292.8,344.6,292.2,344.7,291.8,345 M305.7,347.6c0.8,0.6,1.9,0.4,2.5-0.4c0.1-0.1,0.1-0.2,0.2-0.3
			C307.3,347,305.8,346.6,305.7,347.6 M282,348.4c1.1,0.6,4.2,0.3,4.5-1.1C284.5,347.2,282.9,347.4,282,348.4 M299.3,348.4
			c1.1,0.6,3.2,2.1,4.1,1.5c-1.4-0.4-1.4-2.1-2.6-2.6C300.9,348.3,298.7,346.9,299.3,348.4 M289.5,349.5c0,1.5,3.5,0.7,3.4-0.4
			C291.7,349.2,290.2,348.9,289.5,349.5 M305,350.7c0.1,0.5,1.9,1.3,2.3,0.4c-0.6-0.1-0.3-0.9-0.4-1.5
			C305.9,349.6,304.9,349.6,305,350.7 M294.4,351.8c0.6,0.6,2.1,0.6,1.9-0.8C295.4,351,294.5,351,294.4,351.8 M282.7,351.8
			c0,0.4,0.1,0.8,0.4,1.1c0.7,0.1,0.8-0.4,1.5-0.4C284.7,351.4,283.3,351.2,282.7,351.8 M290.3,354.4v1.1c1.3,0.3,2.5-1.2,1.1-1.5
			C291.3,354.5,290.8,354.5,290.3,354.4 M282,356.3c0.8,0.9,3.1,0.1,2.6-1.5C283.7,355.3,282.2,355.1,282,356.3 M297.4,356.7
			c1.1,0.5,1.6-0.2,3.4,0C300.9,355,297.5,355.3,297.4,356.7 M303.1,359.7c-0.2,1.2,0.8,1.2,1.9,1.1c-0.1-2.1,1.7-2.3,2.6-3.4
			c-0.7-0.4-1.5-0.5-2.3-0.4C305.3,358.2,305,359.6,303.1,359.7 M288.4,359.7c1.6,0,3.2-0.6,4.5-1.5
			C291,358.3,288.6,357.9,288.4,359.7 M292.2,359.3c-0.1,0.4,0.1,0.9,0.5,1c0.4,0.1,0.9-0.1,1-0.5c0.1-0.2,0.1-0.4,0-0.5
			C292.9,358.7,293.2,359.3,292.2,359.3 M279.7,362.7c2.1,0,4.2,0,4.1-2.3c-0.4,0-0.8-0.1-1.1-0.4
			C282.6,361.8,279.9,361,279.7,362.7 M297.1,363.1c1.3-0.3,1.4,0.6,2.6,0.4c0.3-1.2-1.3-0.5-0.8-1.9
			C297.8,361.6,296.8,361.7,297.1,363.1 M304.2,365.3c0.7,0.6,2.8,0.5,2.6-0.8C305.8,364.7,304.3,364.3,304.2,365.3 M295.2,366.5
			c0.7,0,0.5,1,1.5,0.8C297.8,366.4,295.5,364.8,295.2,366.5 M286.9,366.8c0.4,0.9,2.4,0.1,3.4,0.4
			C290.3,366.2,286.9,365.3,286.9,366.8 M277.9,368c0.2,2.1,4.7,0.7,5.6,0C281,368.1,279.8,367.6,277.9,368 M300.8,369.5
			c0.6,0.4,0.8,1.2,1.9,1.1c-0.4-1.2,0.6-1.9,0.4-3C302.8,368.7,300.9,368.2,300.8,369.5 M286.9,368.7c-0.2,1.1,1.6,2.1,2.3,1.1
			c-1,0-0.5-1.5-1.5-1.5C287.6,368.6,287.3,368.8,286.9,368.7 M294.4,371.4c0.9,0.5,3.3,0,3.8-1.1
			C296.5,370.2,294.8,370.2,294.4,371.4 M303.5,372.9c1.4,0.3,1.8-0.4,1.9-1.5h-1.1C304.5,372.4,303.5,372.1,303.5,372.9
			 M289.5,375.5c1.3-0.2,1.8-1.2,1.9-2.6c-1.2,0.1-2,1.1-1.9,2.3C289.5,375.3,289.5,375.4,289.5,375.5 M284.6,374
			c0.7,1.8,3.3,1.2,4.5,0C286.6,374,286.9,373.5,284.6,374 M279,375.1c0.4,0.2,3.9,0.4,4.1-0.8C281.9,374.8,279,373.5,279,375.1
			 M294.4,376.3c1.3,0.2,2.1-0.1,1.9-1.5C295.5,375.1,294.1,374.8,294.4,376.3 M292.5,378.9c1.6,0.4,2.9-0.2,4.1,1.1
			c0.1-0.3,0.3-0.4,0.8-0.4c-0.8-1.1,0.5-2.3-0.8-2.6C296.3,378.9,293.3,376.9,292.5,378.9 M298.9,379.3c0.4,0.6,1.2,0.9,1.9,0.8
			c-0.2-1.4,0.4-1.8,0.8-2.6C300.6,377.9,299.3,378.1,298.9,379.3 M286.1,378.9c1,0.1,1.6-0.1,1.5-1.1
			C286.7,377.7,286,377.9,286.1,378.9 M278.2,380.8c0.3,0.1,0.4,0.3,0.4,0.8c1.2-0.3,4.1,0.1,3.4-1.5
			C281.8,380.5,278.5,379.4,278.2,380.8 M300.5,382.7c1.2,0.4,2.4-2.2,0.8-2.3C301.2,381.5,299.5,381.7,300.5,382.7 M293.7,382.7
			c0.7,0.8,3.6-0.7,2.3-1.9C295.6,381.9,293.4,381,293.7,382.7 M288,383.4c-0.7-0.7-2.5-0.3-3.8-0.4
			C284.1,385,287.5,384.1,288,383.4 M278.2,387.6c2.1-0.1,4.9,0.4,5.3-1.5c-1.7,0.9-3.2-0.2-5.3,0V387.6z M288.8,387.6
			c0.3,2.1,3.3,1.5,5.3,1.9c-0.3-1.2,1.3-0.5,0.8-1.9c-1.8-0.3-2.3,2.1-3.4,0.4c0-0.6,1.6-1.2,0-1.1
			C290.6,387.3,289.7,387.5,288.8,387.6 M296.7,388.3c0.9,0.8,0.8,0.5,2.3,0.4v-1.9C297.8,386.9,297.5,387.9,296.7,388.3
			 M287.6,391.7c0-1.5-1.6-1.4-3-1.5C284.7,391.7,286.1,391.7,287.6,391.7 M276.7,392.1c0.8,0.6,4.4,2.2,4.5,0
			C279,392.9,277.8,390.1,276.7,392.1 M295.9,393.2c0.1,0.7,0.6,0.9,1.5,0.8c-0.4-1,1.1-1.8,0-2.3
			C297.3,392.6,295.7,391.9,295.9,393.2 M291,396.6h2.6c0.1-1.1-1.4-0.9-0.4-1.9C292,394.8,291,395.2,291,396.6 M283.5,396.2
			c-0.4,1.7,3.3,1.5,3.4,0.4C285.8,396.6,285.2,395.4,283.5,396.2 M277.1,397.7c0.3,2,3.6,0.9,5.3,1.5
			C281.7,397.8,278.4,397.3,277.1,397.7 M293.7,400c-0.1,1.2,0.4,1.8,1.5,1.9c-0.5-1.6,0.6-1.7,0.8-2.6
			C294.8,399.1,294.8,400.1,293.7,400 M288.8,401.9c0.8,0.7,2.8,1.2,3.4,0c-2.2,0,1.1-1.5-0.4-1.9
			C291,400.8,289.2,400.7,288.8,401.9 M286.1,404.5c-0.4-1.1-1.5-1.5-3-1.5C282.7,405,284.7,404.5,286.1,404.5 M277.1,404.9
			c0.6,0.9,5,1.6,4.9-0.4C280.1,405,277.9,403.1,277.1,404.9 M289.1,406.8c-0.1,0.8,0.5,1.5,1.3,1.5c0.1,0,0.1,0,0.2,0
			c-0.2-1.4,0.7-1.8,1.1-2.6C290.6,405.7,290.1,406.5,289.1,406.8 M292.5,410.2c-0.3-1.7,1.8-2.9,0.8-4.1
			C293.2,407.4,289.8,409.4,292.5,410.2 M277.1,409c1.6,0.7,4.2,1.9,5.3,0C280,409.8,278.3,407.1,277.1,409 M287.6,411.3
			c1.3,1.3,2.7,0.2,3-1.5C289.6,410.2,288.2,410.3,287.6,411.3 M277.1,412.4c-0.4,1.7,3.7,1.5,3.8,0.4
			C278.8,413.2,278.7,411.5,277.1,412.4 M283.9,414.7c-0.1,1.6,1.4,1,2.3,0.8c-0.1-0.6,0.1-1.4-0.4-1.5
			C285.7,414.7,284.8,414.7,283.9,414.7 M287.6,418.4c2.3,0.5,2.8-2.7,2.6-3.4C289.5,416.3,288.5,417.3,287.6,418.4 M278.6,417.7
			c1.1-0.1,2.6,0.1,2.6-1.1C279.7,416.7,278.4,415.5,278.6,417.7 M283.1,421.8c1.5,0.5,3.7-1.8,2.3-1.9
			C284.7,420.6,283.1,420.4,283.1,421.8"/>
		<path id="Path_2524" class="st1" d="M341.1,358.9c0.9,0.7-1.4,1.4-0.8,3c-1.1-0.1-1.6-0.7-1.5-1.9
			C339.5,359.5,340.6,359.6,341.1,358.9"/>
		<path id="Path_2525" class="st1" d="M334.3,383.4c0.7,0.8-1.4,2.1-1.1,3.8c-0.8,0.1-1.5-0.5-1.5-1.3c0-0.1,0-0.1,0-0.2
			C333.1,385.4,333.6,384.3,334.3,383.4"/>
		<path id="Path_2526" class="st1" d="M290.3,415.1c0.2,0.7-0.3,3.9-2.6,3.4C288.5,417.3,289.5,416.3,290.3,415.1"/>
		<path id="Path_2527" class="st3" d="M273,424.1c-0.9,1.2-2.9,1.4-3,3.4C269.3,426.2,271,424,273,424.1"/>
		<path id="Path_2528" class="st1" d="M306.9,427.9c5,1.4,10.2,3,14.3,5.3c7.7,4.3,17.8,13.1,17.3,23.7c-3.9-0.3-4.2-4.3-5.6-6.8
			c-3.7-6.1-10-9.3-18.1-12.1c-1.8-0.6-3.4-2.4-5.3-3c-2.4-0.8-5.7-1.1-8.7-1.9c-5.2-1.4-8.4-0.6-13.9-1.1c-1.1-0.1-3.6-1.9-5.3-1.5
			c-3,0.8-4.8,11.8-4.9,15.4c-0.1,2,1.1,4.8,1.1,7.9c0,5.4-2.1,11.9,0.4,17.7c0.7,1.8,1.9,3.5,3.4,4.1v2.6
			c9.7,1.3,18.3,5.4,25.6,10.2c7.1,4.5,12,11.3,18.1,17.7c5.8,6.1,11.3,12.7,16.2,19.6c5.2,7.3,9.5,15.1,10.5,24.5
			c0.8,7.2,1.1,12.3-1.9,17.7c-6.2,4.1-10.8,8.8-18.1,10.5c-6.6,1.6-16.5,1.3-25.2,1.9c-15,1-31.2,0-46.3-1.9
			c-11.1-1.4-21.8-2-27.9-8.3c-11.6-12-8.2-35.6-5.6-52.7c0.9-6.1,2.9-10.6,5.3-15.4c2.7-5.6,6.1-9.1,10.2-13.6c1.9-2.1,3.9-4.2,6-6
			c3.8-3.1,7.7-5.5,14.7-5.6c-0.1-5.6-2.2-14.1-0.4-20.3c0.3-1.3-0.8-1.2-1.1-1.9c-0.1-1.3,1.9-0.6,1.9-1.9c0.7-8.2,2-16.1,4.1-21.8
			c-3.9-2.3-6.1,2.8-9.8,2.3c-2.9-0.4-3.4-3.2-4.9-6c-1.4-0.3-0.8,1.4-1.9,1.5c-1.2,0.1-0.8-1.5-1.9-1.5c-4,2-8.5,1.6-12.4,3
			c-5.3,1.9-8.2,6.5-12.4,9c-1.1-0.9,1-2.7,1.9-3.4c3.3-2.8,8.1-6.2,13.2-7.2c2.1-3.8,6.2-1.3,9-3.8c1.8-0.3-0.3,1.2,0.8,1.1
			c1.6,0.1,0.6-2.4,2.6-1.9c2.1-0.1-0.8,1.5,0.4,1.5c2.5-1.2-0.7-4.5,1.1-6.8c3.8-2.8,10,0.1,9,5.6c4.1-0.5,10.3-2.3,15.8-0.8
			c-8.2-12.2-4.5-34.5-3-52.7c0.3-3.2-0.2-6.4,0-9.8c0.6-9.2,3.4-20.3,6.4-29c3.2-9.3,6.4-20,10.5-24.5c1.6-1.7,9.6-7.8,12.4-8.7
			c12.3-3.6,14.5,17.7,11.7,29c6.1-15.8,7.7-30.9,18.5-41.4c3.4-3.3,6.4-7.1,9.8-10.2c2.5-2.3,6.6-4.2,9.8-6.8
			c4.5-3.7,7.5-8.5,13.9-8.7c6.5,1.2,6.7,10.1,6,18.5c-0.6,6.9-2.6,14.4-3.8,21.8c-1,7.1-2.5,14.2-4.5,21.1
			c-4.2,12.9-7.4,26.1-13.2,38c-3,6.2-4.8,12.3-7.9,17.7c-3.2,5.2-6.8,10.2-10.9,14.7C323.9,404.4,319.8,421.1,306.9,427.9
			 M303.8,426.7c1.9,0.2,6.9-2.9,8.7-4.5c8.3-7.6,12-21.3,20.3-30.5c4.3-4.8,8.1-8.6,11.3-14.3c3-5.3,4.6-12,7.5-18.1
			c2.7-5.8,5.8-11.4,7.5-18.1c1.8-6.6,3.6-13.2,5.6-20c4.2-13.9,7.1-28.1,8.7-42.6c0.8-8.1-1.1-16.9-6-16.9c-3.9-0.1-7.7,5-10.9,7.5
			c-3.1,2.5-6.3,4.8-9.8,6.8c-0.5,1.6,1.8,0.5,1.5,1.9c-2.9-1.1-5.3,1-6.4,4.5c-2.3,0.9-4.3,2.5-5.6,4.5c-1.7,0.5,0.9,0.9-0.4,1.9
			c-1.1,0.6-1.6-0.4-2.6,0.4c-9.1,13.4-13.8,30.3-16.6,48.6c-0.9,6-3.4,11.8-4.5,18.5c-3.6,21.1-11.4,45.9-10.2,69.3
			C302.1,424.8,304.3,426.8,303.8,426.7 M282,424.1c0.8-1.5,3-0.2,3.4-0.4c5.4-2.4,9.3-15,12.1-22.6c3.1-8.7,6.9-15.1,9.4-25.6
			c2.9-12.4,4.2-24.3,6-36.9c1-6.5,4.6-16.3,3.4-26c-0.6-4.7-3.9-12.3-7.5-12.8c-1.3-0.2-4.7,1-6.4,1.9c-3.1,1.8-6,4-8.7,6.4
			c-3.6,3.5-5,9.2-7.2,14.7c-1.3,3.4-3.4,7.1-4.5,10.5c-3.8,11.5-5,22.9-5.7,36.9c-0.8,16.9-4.8,35.6,0.4,48.2
			c2.2,0.9,3.5,2.8,5.6,2.6c-1.3,2.1-4-0.6-4.5-0.4C278.9,422.2,280.3,423.4,282,424.1 M314,342.4c0.8-2.2,2.2-5.9,1.1-8.7
			C314.7,336.1,313.6,341.6,314,342.4 M286.1,424.8c5,0.3,10.8,0.8,14.7,1.1c-1.3-11.8,2.4-26.9,3-38
			C297.8,400.1,295.7,416.2,286.1,424.8 M261.3,422.2c0.3-6.2-11.9-3.4-6,3C258.8,425.3,261.2,424.9,261.3,422.2 M269.9,427.5
			c0.1-2,2.1-2.2,3-3.4C271,424,269.3,426.2,269.9,427.5 M267.3,427.9c-0.4-1.8,0.5-2.3,0.8-3.4C266.3,424,265.2,427.8,267.3,427.9
			 M275.6,428.6c1-0.9,1.7-2.1,1.9-3.4H276C275.6,426.3,275.5,427.5,275.6,428.6 M281.2,426.7c0.3-0.7,1.4-0.6,1.5-1.5
			C281.5,424.7,280.1,426.1,281.2,426.7 M272.2,428.6c-0.6-1.2,1.3-2.7-0.4-2.6C271.6,426.8,270.9,428.4,272.2,428.6 M290.3,427.1
			c0.1,1.2,0.3,2.2,1.5,2.3c-1.3-1.5,1.3-2.5,0.4-3.4C291.7,426.5,290.7,426.5,290.3,427.1 M283.9,429.4c0.7-0.1,0.8,0.4,1.5,0.4
			c-0.7-1.6,1.6-3.3,0-3.4C284.6,427.1,283.5,427.5,283.9,429.4 M293.7,429.7c-0.5-2,0.7-2.3,1.1-3.4
			C293.3,426.5,292.3,429,293.7,429.7 M255.3,430.5c1.1,2,6,2.1,7.2,0C263,426.2,254.4,424.5,255.3,430.5 M269.2,429
			c0.6-0.2-0.8-1.7-1.1-2.3C268.3,427.7,268.1,429,269.2,429 M294.8,428.6c0.7-0.1,0.8,0.4,1.5,0.4c-0.3-1.5,0.9-1.3,1.1-2.3
			C295.5,426.3,295.5,427.8,294.8,428.6 M297.8,429.4c0.5,0.5,1.6,0.4,2.6,0.4c0-1-0.1-2.2,0.4-2.6
			C298.9,426.9,297.5,427.3,297.8,429.4 M303.8,430.9c1.5,0.7,2.3-1.1,3.4-1.9C306.1,428.3,303.6,428.9,303.8,430.9 M306.5,432
			c2.2,1.7,3.8-0.7,4.9-2.3C308.8,428.9,307.1,429.9,306.5,432 M310.2,433.9c0.7-0.1,0.8,0.4,1.5,0.4c0.3-2,2.7-1.8,4.1-2.6
			C313.7,429.5,310.6,431,310.2,433.9 M266.2,445.6c-0.5,2.7-1.7,5.2-1.1,7.5c0.1,1.3,1,0,1.1,0.8c-0.7,0.9-2.1,1.1-2.3,2.6
			c-0.9,8,0.3,12.9,1.1,20.3c1.7,0.8,4.8,0.9,6.4-0.4c-1.7-6-1.2-14.1-2.3-20.7c-0.9,0.1-1.6,0.8-1.9-0.4c0-1.4,2.7-0.1,2.3-1.9
			c-0.3-8.4,0.1-16.7,3.8-22.2C266.2,430.4,267.5,438.8,266.2,445.6 M271.5,454.2c-1.8,5.9,0.1,17,1.9,23c2.1,0.2,3.8,0,6,0.8
			c-2.3-6.7-5.3-13.3-3.4-22.2c-0.1-0.8-1.7-0.1-1.5-1.1c0.2-1.1,2-0.5,1.5-2.3c-1.3-8.6,0.9-14.3,2.6-21.1
			C269.7,431.9,270.1,447,271.5,454.2 M315.5,436.1c0.7,0.4,2.5,1.8,3.4,0.8c-1.4-1.6,1.2-2.3,1.9-3
			C318.6,431.5,316.3,433.9,315.5,436.1 M313.3,434.3c0.3,0.1,0.4,0.3,0.4,0.8c1.2-0.1,1.6-1.1,2.3-1.9
			C314.6,433,313.6,433.4,313.3,434.3 M323.1,439.5c0.4-1.3,2.3-1.3,3-2.3C324.4,434.1,319.8,437.1,323.1,439.5 M324.9,440.3
			c0.9-0.6,3.2,0.2,3-1.5c-0.9-0.6-2.1-0.4-2.7,0.5C325.1,439.6,325,439.9,324.9,440.3 M326.8,442.2c1.1,0.9,2.8-0.2,3.4-1.1
			C329.5,439.9,326.5,440.1,326.8,442.2 M329.5,442.9C330.8,447.9,334.2,440.3,329.5,442.9 M332.8,446.3c0.2-0.7,1.5-0.3,1.1-1.5
			c-0.5,0-0.5-0.5-1.1-0.4C332.6,444.7,332,446.2,332.8,446.3 M334.3,448.6c0.1-0.4,0.4-0.6,0.8-0.8c0-0.6-0.2-1.2-0.8-1.5
			c-0.6,0.4-0.8,1.3-0.3,1.9C334.1,448.4,334.2,448.5,334.3,448.6 M334.3,450.1c-0.2,2.5,3.1-0.4,1.1-0.8
			C335.5,450,335.1,450.2,334.3,450.1 M337.7,455.4c-1-0.9-0.5-1.7-0.4-3c-0.8,0.2-1.6,0-2.3-0.4C335.4,453.4,336.6,456,337.7,455.4
			 M338.5,548.8c-0.6-5.5-0.9-11.8-3-16.2c-2.7-5.7-10.9-12.7-15.4-19.6c-5.2-7.8-10.2-15.9-16.6-20.7c-8-6.1-20.9-11.9-32.8-11.7
			c-1.6,0-6.2,0-8.7,0.8c-1.7,0.5-3.1,2.3-5.3,3.8c-2,1.4-4.3,2.3-5.6,3.4c-6.3,5.2-11,14.3-15.1,22.2c-1.6,3.1-3.8,6.5-4.9,9.4
			c-1.6,4-3.6,13-2.6,18.8c1.5,8.7,6.5,16.2,10.2,22.6c1.4,2.5,3.3,7.4,5.3,8.7c4.4,2.9,17.7,3.2,24.5,3.8c13.3,1.1,29.4,0.6,41.4,0
			c13.1-0.7,25.2,0.7,29.4-7.5C339.2,560.3,339.1,554.4,338.5,548.8"/>
		<path id="Path_2529" class="st3" d="M294.8,426.4c-0.4,1.1-1.6,1.4-1.1,3.4C292.3,429,293.3,426.5,294.8,426.4"/>
	</g>
</g>
</svg>
