<?xml version="1.0" encoding="UTF-8"?>
<svg width="84" height="70" enable-background="new 0 0 101.6 84.7" version="1.1" viewBox="8.91 7.8 84.55 70.4" xml:space="preserve" xmlns="http://www.w3.org/2000/svg">
<style type="text/css">
	.st0{fill-rule:evenodd;clip-rule:evenodd;fill:#9FBDE3;}
	.st1{fill-rule:evenodd;clip-rule:evenodd;fill:#202944;}
	.st2{fill-rule:evenodd;clip-rule:evenodd;fill:#5990C6;}
	.st3{fill-rule:evenodd;clip-rule:evenodd;fill:#A3A3C7;}
	.st4{fill-rule:evenodd;clip-rule:evenodd;fill:#FCDAD9;}
	.st5{fill-rule:evenodd;clip-rule:evenodd;fill:#646488;}
	.st6{fill-rule:evenodd;clip-rule:evenodd;fill:#AEB8D3;}
	.st7{fill-rule:evenodd;clip-rule:evenodd;fill:#5E70A8;}
	.st8{fill-rule:evenodd;clip-rule:evenodd;fill:#746B5E;}
	.st9{fill-rule:evenodd;clip-rule:evenodd;fill:#EFC5C8;}
	.st10{fill-rule:evenodd;clip-rule:evenodd;fill:#B9B5AF;}
</style>

	<path class="st0" d="m30.2 8.8c2.1 1.6 4.3 1.7 7.5 2.3 1.3 0.3 2.7 0.6 4 0.7 0.5 0 1-0.2 1.5-0.2 1.3 0 2.7 0.2 4.1 0.1 2.5-0.2 5-1 7.3-1.2 1.2 0 2.4 0 3.5 0.1 1.2 0.1 1.9 0.2 2.4 1-3.7-0.7-8.1 0.8-11.7 1-0.8 0.1-1.7-0.1-2.5-0.1-2.5 0-5.1 0.4-7.6-0.1-0.5-0.1-1-0.5-1.5-0.6-2.4-0.6-4.9-0.5-6.9-1.9 0-0.3-0.1-0.6-0.1-1.1"/>
	<path class="st0" d="m30.3 10.3c1.8 0.6 3.6 1.2 5.4 1.5 0.5 0 1 0.1 1.5 0.2 0.9 0.3 1.8 0.5 2.7 0.7 3.1 0.2 6.1 0.2 9.2 0 3.8-0.2 7.5-1.8 11.6-0.8-0.9 0.3-2.2 0.1-2.9 0.6 0.2 0.6 1.8 1.1 1.7 1.5-2.8-0.9-5.8-0.8-9.5-0.4-1.5 0.3-3 0.4-4.6 0.5-5.6-0.1-10.5-0.6-14.9-2.4-0.1-0.5 0-1-0.2-1.4"/>
	<path class="st0" d="m60 10.6c0.9 0.1 1.9 0.4 2.7 0.8-1 0.5-2.1 0.2-2.7-0.8"/>
	<path class="st1" d="m81.6 11h0.3c0.3 1.2 0.2 2.4-0.3 3.5-0.9-0.7-0.3-2.6 0-3.5"/>
	<path class="st2" d="m65.9 14.4c-2.3 0.5-3.5-1.2-4-2.5 2-0.4 3.3 1.1 4 2.5"/>
	<path class="st3" d="m89.5 19.3c-1.2-0.3-0.9-1.9-1.3-2.9 0 1.6-0.7 2.7-0.6 4.7-1.5-0.9 0.9-4.1-0.7-4.7 0.2 1.5-0.9 3.1-0.3 4.7-0.7-0.7-1-1.8-0.8-2.8 0.2-1.1 1.2-2.5-0.1-2.9 0.3 1.2-0.4 2.3-0.3 3.8-1.1-0.8-1.1-2.7-1.3-4.5-0.6 0.5-0.3 2.1-0.2 2.9-0.4-0.1-0.8-0.4-1.1-0.8 0-0.9 0.2-1.7 0.6-2.5 0.5-0.6 1.3-0.9 2-0.9 0.5 0.1 0.9 0.3 1.3 0.6 1.1 0.5 2.2 0.7 2.5 1.9-0.1 1.2 0 2.4 0.3 3.4"/>
	<path class="st0" d="m61.3 14.4c1.2 0.2 2.7 0 3 1-0.3-0.1-0.4 0.1-0.4 0.4-0.3-0.1-0.2-0.5-0.6-0.5-0.2-0.1-0.2 0.2-0.3 0.2 0.4 0.9 1.4 1.2 1.8 2.1-0.3-0.2-0.5-0.3-0.8-0.3-0.7-1.3-2-1.9-2.7-2.9"/>
	<path class="st0" d="m62.4 16.3c-0.7 0.1-1.4-0.6-2.3-0.7-0.1 0.5 0.6 0.2 0.8 0.3 0 0.3-0.3 0.2-0.3 0.5 0.7-0.5 1.7 0.1 2.2 0.5-0.8 0-2.1-0.2-3.2-0.1-0.5-0.8-1.2-1.4-2-1.8 1.8-0.8 3.8 0.3 4.8 1.3"/>
	<path class="st0" d="m66.2 14.9c0.6 1.3 1 2.7 1.2 4.1-1.1-1.2-1.9-2.6-2.6-4.1 0.4-0.1 0.9-0.1 1.4 0"/>
	<path class="st1" d="m50.1 15.2c0.2-0.2 0.7 0 1-0.1-0.1 0.2-0.6 0-1 0.1"/>
	<path class="st0" d="m64.3 15.5c0.2 0.3 0.6 0.9 0.4 1.3-0.3-0.3-0.3-0.8-0.4-1.3"/>
	<path class="st0" d="m64.8 16.8c0.2 0 0.4 0.2 0.4 0.4-0.1-0.1-0.4-0.2-0.4-0.4"/>
	<path class="st4" d="m80.4 17.3c0.1 0 0.1 0 0 0-0.2 2.6-0.9 5.7 0.1 8.2 0.4 1 1.3 2 1.3 3.4 0.1 1.5-0.7 3.1-1 4.6-0.7 3-1.1 6.1-1.2 9.2 0 4.5 2.6 7.6 4.5 10.6 1.2 2 2.3 4.1 3.5 6.3 2.1 4.2 3.2 8.8 2.9 13.5-0.6 0-1.3 0.2-1.9 0.1 0-2.3-0.1-4.6-0.4-6.9-0.8-3.3-2.3-6.3-4.4-9-0.9-1.3-1.7-2.8-2.7-4.1-0.8-1.1-2.3-3.2-3.4-3.4-1 0-1.9 0.5-2.4 1.3-0.2 0.9-0.2 1.9 0.1 2.9 0.5 1.3 1.1 2.5 1.9 3.5 0.5 0.8 1.3 1.5 1.8 2.3 0.2 0.4 0.3 0.9 0.5 1.3 1.1 2.1 2 4.2 2.6 6.5 0.7 2 1.1 4.1 1.3 6.2-0.6 0-1.2 0-1.9 0.1-0.3-2.4-0.9-4.8-1.9-7.1-0.3-0.7-0.7-1.3-1-1.9-1.7-3.6-2.8-7.4-5.6-9.9-0.7-0.5-1.3-1-1.9-1.7-0.5-0.1-1-0.4-1.3-0.8-2.7-0.8-5.5-1.4-8.3-1.6-4.4-0.4-8.8-0.4-13.2 0-1.1 0.1-2.4 0.4-3.5 0.4-1.3 0-2.6 0-4 0.2-1.4 0.3-2.8 0.8-4 1.7-1.4 1.4-2.2 4.2-3.5 5.6-1.8 1.9-4.6 2.2-7.2 3.5-1.1 0.5-2 1.3-2.5 2.4-0.3 0.7-0.3 1.7-0.6 2.6-0.9 2.4-1.5 4.9-1.9 7.5-0.5-0.1-1-0.1-1.5-0.2 0.3-2.2 0.9-4.3 1.7-6.4 0.2-0.6 0.5-1.3 0.7-1.9 0.1-0.3 0-0.8 0.1-1.1 0.3-0.6 0.6-1.1 0.9-1.6 0.9-1.6 1.8-3.2 2.6-4.9 1.1-2.1 2.5-4.1 4.2-5.8-0.7-0.6-1.8-0.1-2.5 0.2-0.8 0.4-1.5 0.8-2.2 1.3-1.4 0.9-2.7 1.9-3.8 3.1-1.8 1.9-3.1 4.1-3.8 6.6-0.2 0.9-0.2 1.9-0.5 2.9-0.1 0.5-0.4 0.9-0.6 1.3-0.5 2.2-0.8 4.5-1 6.7-0.7-0.2-1.5-0.3-2.2-0.3 0.2-3.5 0.1-5.9 1.2-8.5 0.4-0.7 0.7-1.5 1-2.3 0.3-1.2 0.6-2.3 1.1-3.5 2.1-4.2 4.2-8.1 6.6-12.1 1.2-2.2 3-4.1 5.1-5.6 1.1-0.8 2.3-1.3 3.6-1.8 1.4-0.5 2.8-0.9 4.2-1.1 1.9-0.2 3.8-0.2 5.6-0.3 5.7-0.2 11.6 1.4 17.4 1.1 2.1-0.1 4.2-0.6 6.4-0.8l1.8-0.3c0.8-0.2 1.6-0.7 2.4-0.9 1.7-0.6 2.5-1.8 3.3-3.5 0.7-1.2 1.3-2.6 1.5-4 0.7 1.4 1.8 2.8 1.6 4.8 1.2-0.2 1-1.1 1.3-2.3 0.1-0.3 0.3-0.6 0.4-0.9s0.1-0.8 0.2-1.1c0.2-0.7 0.7-1.3 0.8-1.9 0.2-0.8 0-1.7 0.2-2.4 0.3-1.2 0.5-2.4 0.4-3.6-0.1-0.7-0.4-1.4-0.5-2.2 0-1.7 0.5-3.1 1.5-4.2"/>
	<path class="st0" d="m60 19.1c-0.6-0.1-0.7-0.7-1.2-0.8 0.2 0.7 1.8 1.1 1.1 1.9 0.2 0.2 0.2 0 0.5 0 0.2 0.4 0.5 0.7 0.8 1.1-1.6-0.4-2.8-1.9-3.7-3.3 1.1-0.7 3.2-0.5 2.5 1.1"/>
	<path class="st0" d="m32.6 19.3c-0.2-0.6-0.6-1-0.8-1.6 3.2 1 6.6 0.5 10.4 0.7 2.4 0.1 4.7 0.6 7.1 0.8 3.3 0.3 6.7 0.5 9.5 1.7-0.7 0.2-1.3 0.5-1.9 0.8 0.7 1 1.7 1.9 2.8 2.4-4.3-1.4-8.2-3.9-13.9-4.6-4.2-0.3-8.9 0.1-13.2-0.2"/>
	<path class="st2" d="m63.8 17.9c1.3 0.6 2.5 1.2 3.6 2 0.1 0.9 0 1.8-0.3 2.6-0.7-0.7-1-1.8-0.6-2.7-0.2 0.2-0.2 0.5-0.3 0.8-0.3 0-0.2-0.3-0.4-0.4-0.1 0.4 0.1 0.4-0.3 0.6 0.1 0.2 0.5 0 0.7 0.2 0.2 0.5 0.4 0.9 0.6 1.4-0.7-0.3-1.2-0.8-1.9-1.1-0.5-1.1-0.9-2.2-1.1-3.4"/>
	<path class="st5" d="m79.4 17.9c0.2 0.4-0.4 0.6-0.5 1-0.7 2 0.5 3.7 0.2 6.3-1.8-1.4-2.2-6.4 0.3-7.3"/>
	<path class="st0" d="m60.3 18.6c0.7 0.7 1.1 1.7 1.2 2.7-0.6-0.5-0.7-1.3-1.3-1.7-0.1-0.4 0.1-0.6 0.1-1"/>
	<path class="st0" d="m59.6 24.6c-0.8 0.1-2.4-0.2-3 0.3 0.3 0.7 1.3 0.8 1.9 1.3-2.2-0.2-4-1.9-5.8-2.8-0.9-0.4-1.8-0.7-2.8-0.9-2.7-0.9-5.5-1.4-8.3-1.4-2.4 0.1-5 0.2-7.8 0-0.4-0.4-0.8-0.9-1-1.5 2.2 0 5 0.2 7.1 0.1 4.6-0.3 9.2 0.4 13.5 2.2 2 0.8 4.1 1.6 6.2 2.7"/>
	<path class="st2" d="m61.7 20.1c0.9 0.4 1.8 0.9 2.6 1.4 0.1 1.1 0.1 2.2 0.1 3.4-0.9-1.6-2.6-2.5-2.7-4.8"/>
	<path class="st0" d="m59.9 21.4v1.9c-0.3-0.5-0.7-1-1.1-1.4-0.2 0.1 0.1 0.4 0.3 0.5-0.1 0.1-0.3 0.1-0.3 0.3 0.1 0.2 0.3-0.1 0.5-0.1 0.3 0.5 0.7 0.8 0.7 1.5-1.1-0.6-2-1.4-2.8-2.4 0.7-0.5 1.8-0.7 2.7-0.3"/>
	<path class="st0" d="m60.1 21.2c0.6 0.1 0.9 0.7 1.4 0.9 0 0.4 0.1 1.2-0.3 1.5-0.3-0.3-0.4-0.8-0.7-1 0 0.5 0.7 1 0.8 1.7-0.2 0-0.3-0.2-0.5 0 0.8 0.2 1 1.1 1.2 1.9-1.6-1.1-2.3-3.1-1.9-5"/>
	<path class="st0" d="m64.7 21.9c0.9 0.2 1.7 0.8 2.3 1.5-0.5 1-0.1 3.1-0.3 4-0.3-0.9-0.4-2.2-0.8-3 0.2-0.3 0.4-0.6 0.5-0.9-0.4 0-0.4 0.4-0.5 0.7-0.2 0-0.1-0.3-0.3-0.3-0.1 0.5 0 0.9 0.3 1.3-0.3 0.3-0.6-0.4-0.9-0.1 0.2 0.3 0.8 0.3 1 0.6 0.2 0.7 0.3 1.5 0.3 2.3-0.4-0.8-0.9-1.5-1.5-2.2 0-1.1 0-3.1-0.1-3.9"/>
	<path class="st3" d="m77 22c0.4 2 1.7 3.3 1.9 5.3-1.1-1.5-1.8-3.3-1.9-5.3"/>
	<path class="st1" d="m91.1 24.5c-0.7 1.2-1.2 2.7-2.7 3.1-1.3-1.4 0.7-3.5 1.4-4.5 0.3-0.3 0.4-1 0.9-0.8 0.8 0.2 0.3 1.2 0.4 2.2m-1.3-0.8c0.4 0.1 0.6 0.4 0.8 0.8 0.1-0.5 0.2-0.9 0.3-1.4-0.6 0-0.8 0.3-1.1 0.6m0.6 0.8c-0.4-1.7-2.6 1-0.7 1.3 0.3-0.5 0.9-0.7 0.7-1.3m-1.9 2.3c0.5 0.1 0.9-0.6 1.2-0.9-0.5-0.1-0.6-0.5-0.8-0.8-0.3 0.6-0.4 1.2-0.4 1.7"/>
	<path class="st6" d="m90.9 23c0 0.5-0.1 1-0.3 1.4-0.2-0.3-0.3-0.7-0.8-0.8 0.3-0.2 0.5-0.5 1.1-0.6"/>
	<path class="st0" d="m62.2 23.4c0.7 0.7 0.5 2.2 1 3 0.1-0.1-0.1-0.6-0.2-0.8 0.1-0.2 0.5-0.1 0.6-0.3 0-0.2-0.4 0-0.6-0.1 0-0.2 0-0.4 0.2-0.6 0.6 0.2 0.6 1.1 1.2 1.3-0.3 0.9-0.6 1.8-0.8 2.8-0.9-1.2-1.1-3.4-1.4-5.3"/>
	<path class="st5" d="m76.3 23.4c0.7 2.1 2.7 3.6 2 6.3-0.9-1.9-2.4-3.4-2-6.3"/>
	<path class="st0" d="m61.5 23.6c0.3 0.2 0.2 0.7 0.3 1-0.2 0.2-0.5-0.6-0.3-1"/>
	<path class="st0" d="m62.6 23.7c0.2 0.2 0.9 0.7 0.3 0.8 0-0.4-0.3-0.4-0.3-0.8"/>
	<path class="st7" d="m89.8 25.7c-2-0.3 0.3-2.9 0.7-1.3 0.1 0.7-0.5 0.9-0.7 1.3m0.2-0.4c0.1-0.2 0.2-0.4 0.2-0.7-0.4 0.1-0.4 0-0.7-0.1-0.2 0.2-0.1 0.5 0.1 0.7 0.1 0.1 0.3 0.1 0.4 0.1"/>
	<path class="st6" d="m80.5 24.1c0.5 0.1 1 0.2 1.5 0.4-0.5 0.2-0.9 0.7-0.9 1.3-0.3-0.5-0.5-1.1-0.6-1.7"/>
	<path class="st1" d="m89.5 24.6c0.3 0.1 0.3 0.2 0.7 0.1 0 0.2-0.1 0.5-0.2 0.7-0.3 0.1-0.5-0.1-0.6-0.4 0-0.2 0-0.3 0.1-0.4"/>
	<path class="st2" d="m60.3 24.9c0 1 0 1.9 0.2 2.9-0.3-0.3-0.6-0.9-0.3-1.3 0-0.2-0.3 0-0.3 0.1-0.3-0.2-0.3-0.9-0.2-1.3-0.3 0-0.3 0.2-0.3 0.4-0.3-0.1-0.3-0.5-0.7-0.5 0.2 0.7 0.9 0.9 1 1.6-0.8-0.8-2.1-1.1-2.9-2 1.1-0.1 2.3-0.1 3.5 0.1"/>
	<path class="st7" d="m82.1 24.8c1.4 0 1 2.3-0.3 1.9-0.8-0.2-0.8-1.8 0.3-1.9m0.3 1.4c0.2-0.2 0.2-0.4 0.2-0.6-0.1 0-0.3 0-0.4 0.1 0-0.3-0.2-0.5-0.4-0.6-0.3 0.5 0 1.2 0.6 1.1"/>
	<path class="st0" d="m26.7 24.8c0.3 0.1 0.6 0.6 0.9 0.8s0.7 0.4 0.9 0.7c0.3 0.3 0.3 0.7 0.7 1s0.9 0.4 1.3 0.7c0.4 0.2 0.7 0.6 1 0.8 4.2 2.6 9.9 2.4 16.2 2.5 0 0.3 0.6 0.6 0.5 0.8-2.3-1.3-5.2-0.3-7.8-0.2-3 0.1-7.6-1.8-9.6-2.9-1.1-0.7-2.1-1.5-2.9-2.5-0.6-0.4-1.2-1-1.2-1.7"/>
	<path class="st0" d="m36.6 25c3.4 0 6.7 0.6 9.9 1.6 1.4 0.5 2.6 1.3 4 1.8 1.5 0.5 3 0.8 4.6 1.2-0.4 0.1-0.7 0.2-0.7 0.6-1.5-0.4-3-1.3-4.7-1.7-2-0.4-4-0.6-6-0.8-3-0.4-6-0.7-7.1-2.7"/>
	<path class="st0" d="m60.4 25c0.9 0.6 1.5 1.3 1.9 2.3-0.4 0.7-0.6 1.5-0.6 2.3-0.5-0.8-0.3-2.3-0.8-3-0.2 0.3 0.2 0.8 0.3 1.2 0 0.4-0.1-0.1-0.3 0 0.5 0.5 0.5 1.3 0.8 2-0.4 0-0.5-1-0.9-1.2-0.3-1.2-0.4-2.4-0.4-3.6"/>
	<path class="st6" d="m88.8 25.1c0.2 0.3 0.4 0.7 0.8 0.8-0.3 0.3-0.7 1-1.2 0.9 0.1-0.5 0.2-1.1 0.4-1.7"/>
	<path class="st0" d="m64.5 26.1c0.8 1 0.9 2.9 1.1 4.6-0.6-0.4-1.2-0.8-1.8-1.1 0.1-1.3 0.3-2.4 0.7-3.5"/>
	<path class="st2" d="m65 26.2c1.4 1.1 1.7 3.2 0.7 4.7 0.1-1.4-0.5-3.2-0.7-4.7"/>
	<path class="st3" d="m75.8 26.2c0.8 1.6 2.5 3 1.8 5.6-0.5-1.6-2.1-2.8-1.8-5.6"/>
	<path class="st2" d="m58.3 26.6c0 0.7-0.1 1.4-0.2 2-0.6-0.6-1.6-0.8-2.2-1.4 0.8-0.3 1.6-0.5 2.4-0.6"/>
	<path class="st0" d="m58.9 27c0.4 0.4 0.8 0.9 1.2 1.4-0.1 0.5-0.2 1-0.4 1.5-1-0.6-1.3-1.9-0.8-2.9"/>
	<path class="st2" d="m62.5 27.8c0.5 0.4 0.5 1.3 1 1.8-0.2 0.8-0.3 1.6-0.3 2.4-1.5-0.5-1.1-2.9-0.7-4.2"/>
	<path class="st5" d="m74.9 27.8c0.7 2.1 2.9 4 1.9 6.7-0.6-2.1-2.5-3.9-1.9-6.7"/>
	<path class="st1" d="m84.4 28.2c1.3 0.9 2 3.3 2.7 5.1-0.9-1.7-1.3-3.8-2.7-5.1"/>
	<path class="st1" d="m88.7 28.4v0c-0.1 3.2 1.7 5.1 2.6 7.5-0.7 0.2-0.8-0.8-1.1-1.3-0.8-1.6-2.2-3.1-1.7-6 0.1 0 0.1-0.1 0.2-0.2"/>
	<path class="st0" d="m36.8 32.8c-1.4-0.1-2.8-0.3-4.2-0.7-1.5-0.3-3.3-0.5-4.1-1.3-0.6-0.6-0.6-1.5-1.2-2.2 0.4 0 0.6 0.5 0.9 0.8 2.2 1.7 5.6 2.5 8.6 3.4"/>
	<path class="st0" d="m55.9 28.9c0.8-0.1 1.6 0 2.4 0.2-0.1 0.4-0.3 0.9-0.4 1.3-0.3-0.2-0.4-0.8-0.6-1.1-0.7 0-0.9-0.3-1.4-0.4"/>
	<path class="st0" d="m57.3 31.9c-0.3-0.3-0.7-0.6-1.1-0.8 0.2-0.7 0.3-1.4 1-1.5 0.6 0.6 0.6 1.6 0.1 2.3"/>
	<path class="st0" d="m56.5 29.9c-0.1 0.4-0.4 0.6-0.4 1-0.5-0.3-1.3-0.2-1.3-1 0.4-0.2 1.3-0.5 1.7 0"/>
	<path class="st0" d="m58.4 29.7c0.5 0.5 0.8 1.1 1.3 1.5-0.2 0.5-0.4 1.1-0.5 1.6-0.4-0.5 0.1-1.4-0.1-2.2-0.3 0.2-0.1 0.3-0.5 0.3 0.5 0.3 0.3 1 0.3 1.7-0.2-0.5-0.5-1-0.8-1.4 0-0.5 0.1-1 0.3-1.5"/>
	<path class="st0" d="m63.6 29.8c0.4 0.6 0.2 1.3 0.7 1.8-0.1 0.2-0.4 0.2-0.4 0.4 0.1 0.3 0.4-0.1 0.6 0 0 0.2 0.1 0.5 0.3 0.7-0.3 0.1-1-0.2-1.3-0.3-0.2-0.9-0.1-1.8 0.1-2.6"/>
	<path class="st0" d="m64 29.9c0.7 0.3 1.2 0.7 1.7 1.3-0.2 0.6-0.4 1.1-0.7 1.7-0.2-0.3-0.6-0.9-0.2-1 0-0.4-0.5-0.3-0.6-0.6 0-0.3 0.3-0.3 0.3-0.5-0.1-0.3-0.2 0.2-0.4 0.1 0-0.4 0-0.7-0.1-1"/>
	<path class="st2" d="m50.3 31.8c-0.4 0.3-0.1 0.8 0.1 1.1-1-0.3-2.3-0.7-2.4-1.5 0.8-0.1 1.6 0.1 2.3 0.4"/>
	<path class="st0" d="m29.4 31.6c1.8 0.7 4.6 0.9 7.2 1.4 2.9 0.6 5.4 1.3 8.8 1-0.3 0.3-0.9 0.3-1.2 0.6-2.2-0.3-4.4-0.5-6.6-0.6-2.5-0.1-5.4-0.3-6.5-1.9-0.7-0.1-1.4-0.1-1.7-0.5"/>
	<path class="st0" d="m59.8 31.8c0.4 0 0.5 0.3 0.7 0.5-0.4 1 0.2 2.5-0.5 3.1-0.2-0.5-0.3-1.2 0.2-1.4-0.3-0.1-0.3 0.2-0.4 0-0.1-0.3 0.1-0.6 0-0.8-0.5 0.8 0.3 2.2-0.1 3.3-0.6-1.5-0.5-3.2 0.1-4.7"/>
	<path class="st0" d="m62.3 31.9c1.5 0.6 0.3 2.3 0.8 3.8-0.4-0.3-0.7-1.3-1.1-1.9 0.4-0.6-0.1-1.4 0.3-1.9"/>
	<path class="st0" d="m52.5 33.4c-1 0-2.2-0.3-2-1.3 0.9 0 1.6 0.5 2 1.3"/>
	<path class="st0" d="m57.6 32.1c0.3 0.1 0.3 0.4 0.4 0.6-0.2-0.1-0.3-0.3-0.4-0.6"/>
	<path class="st0" d="m46.6 32.5c0.8 0.1 1.9 0 1.9 1-0.6-0.4-1.7-0.2-1.9-1"/>
	<path class="st2" d="m63.4 32.6c0.5 0.1 1 0.2 1.5 0.5-0.3 1.2-1.2 2-1 3.7-0.7 0-0.7-1.1-0.8-1.8 0-0.7 0-1.5 0.3-2.2v-0.2z"/>
	<path class="st0" d="m49 33c1.6 0.2 3 0.7 2.9 2.6-0.3-0.5-1-1-1-1.6-0.6 0.1-0.7-0.3-1.1-0.5 0.3 0.7 1.6 1.1 1.8 2.2-1-0.5-1.4-1.5-2.5-1.9 0.1-0.2-0.2-0.5-0.1-0.8"/>
	<path class="st0" d="m60.8 33c0.9 0.7 1.2 1.9 0.7 2.9-0.9-0.7-0.8-1.9-0.7-2.9"/>
	<path class="st0" d="m37.6 33.2h3c2.1 0.1 4.5 0 5.7 0.9-0.5 0.2-0.9-0.3-1.3-0.3-1.1-0.2-2.3 0.2-3.5 0.1-1.5-0.2-2.7-0.7-3.9-0.7"/>
	<path class="st2" d="m48.9 34.1c-0.3 0.4-0.5 1-0.5 1.5-0.8-0.4-0.9-1.5-1.9-1.7 0.2-1.4 1.9-0.2 2.4 0.2"/>
	<path class="st0" d="m52.9 36.4c-0.5-0.4-0.6-1.2-0.2-1.7-0.3-0.1-0.6-0.4-0.7-0.8 1.7-0.4 1 1.6 0.9 2.5"/>
	<path class="st2" d="m51.8 36.1c-0.2 0.5-0.9 0.6-1.1 1.1-0.2-0.8-0.4-1.6-0.8-2.4-0.1 0.2-0.2-0.1-0.5 0 0 0.3 0.1 0.7 0.3 0.9-0.2 0.3-0.6-0.4-0.8 0.1 0.1 0.3 0.4 0.3 0.6 0.5 0 0.2-0.2 0.1-0.2 0.3-1 0.1-1.2-1.9-0.3-2.5 1.1 0.6 2 1.3 2.8 2"/>
	<path class="st0" d="m46.3 34.3c-0.1 0.5-0.2 1-0.4 1.5-0.4-0.5-0.9-0.8-1.5-1.1 0.4-0.4 1.1-0.4 1.9-0.4"/>
	<path class="st0" d="m35.9 34.5c2.5 0 5 0.2 7.4 0.4 0 0.3-0.1 0.4-0.1 0.7-2.6-0.2-4.9-0.7-7.3-1.1"/>
	<path class="st0" d="m46.8 34.5c0.2 0.1 0.3 0.3 0.5 0.4-0.1 0.2-0.3 0.3-0.7 0.3 0-0.3 0.1-0.5 0.2-0.7"/>
	<path class="st0" d="m61.8 34.6c0.6 0.7 0.4 2.2 0.6 3.2-0.8-0.5-0.9-2.1-0.6-3.2"/>
	<path class="st0" d="m62.3 34.7c0.9 1.1 1 2.7 0.7 4.5-0.7-1.1-0.4-3.1-0.7-4.5"/>
	<path class="st0" d="m47.4 35.1c0.2 0.2 0.5 0.5 0.7 0.8 0 0.6-0.3 1-0.3 1.6-0.3-0.1-0.3-0.6-0.5-0.8-0.1-0.3 0.3-0.2 0.3-0.4-0.2-0.2-0.2 0-0.5 0-0.1-0.3-0.4-0.3-0.3-0.8 0.2-0.2 0.5-0.1 0.6-0.4"/>
	<path class="st0" d="m58.7 35.1h0.3c0.2 0.6 0.4 1.2 0.5 1.8-0.1 0.5-0.7 0.6-0.9 1 0-0.7 0.2-2.1 0.1-2.8"/>
	<path class="st2" d="m43.9 35.2c0.6 0.2 1.2 0.6 1.6 1.1-0.3 0.6-0.9 1-1.1 1.8-0.6-0.9-0.8-1.9-0.5-2.9"/>
	<path class="st0" d="m40.6 35.6c0.8-0.3 1.7 0.2 2.4 0.3 0.2 0 0.1 0.4 0.2 0.8-0.7-0.7-1.6-1.1-2.6-1.1"/>
	<path class="st0" d="m60.3 35.7c0.5 0.4 0.8 1 1 1.6-0.3 0.5-0.5 1-0.5 1.6-0.5-1-1.2-1.9-0.5-3.2"/>
	<path class="st2" d="m48.5 36.1c0.7 0.6 1.7 1.3 1.5 2.4 0 0.1 0.1 0.2 0.3 0.3-0.1 0.2-0.6 0-0.8 0.1-0.1-0.2-0.2-0.4-0.2-0.6 0.2 0 0.3-0.1 0.5-0.2-0.1-0.3-0.3 0-0.7-0.1 0-0.2-0.1-0.5-0.2-0.7-0.4 0.1 0.1 0.4 0 0.8-0.3 0-0.3-0.2-0.6-0.1 0.2 0.3 0.9 0.1 0.8 0.8-0.4 0-0.9 0.1-1.2-0.1 0.1-0.9-0.2-2.1 0.6-2.6"/>
	<path class="st0" d="m47.5 38.8c-0.4-0.1-0.7-0.1-1.1-0.1-0.3-0.5 0.2-0.6 0.3-0.9-0.2-0.3-0.4 0.1-0.6 0.1 0.1-0.3-0.1-0.4-0.2-0.5-0.2 0.1 0.1 0.3 0 0.6-0.2 0-0.4-0.2-0.6-0.2 0.1 0.4 0.8 0.2 0.7 0.9-0.5 0.1-0.8-0.1-1.3-0.1-0.2-1.1 0.8-1.5 1.2-2.3 1 0.5 1.4 1.8 1.6 2.5"/>
	<path class="st1" d="m92 36.5c0.5 1 0.3 3.8-0.8 3.7-1.4-0.1-0.3-3.5 0.4-3.8 0.2 0 0.2 0.2 0.4 0.1"/>
	<path class="st0" d="m52.2 36.6c0.7 0.5 0.2 1.9 0.3 2.4-0.1 0.2-0.2-0.1-0.4 0 0.1-0.5 0-1.1-0.3-1.5-0.2 0.2 0.1 0.6 0.1 0.8-0.4 0-0.5-0.2-0.8-0.2 0.2 0.3 0.5 0.3 0.8 0.4-0.1 0.1-0.1 0.2-0.1 0.3-0.5 0.1-0.8-0.1-1.3-0.1 0.1-0.8 0.8-1.8 1.7-2.1"/>
	<path class="st0" d="m49.6 36.9c0.1 0.1 0.4 0.1 0.5 0.2 0 0.3 0.1 0.5 0.1 0.8-0.3-0.3-0.5-0.6-0.6-1"/>
	<path class="st2" d="m63.4 36.9c0.2 0 0.4 0.1 0.6 0.2 0 1 0.6 1.3 0.8 2-0.7 0-1 0.3-1.7 0.3 0-0.8 0.1-1.6 0.3-2.5"/>
	<path class="st1" d="m89.7 40.3h-0.9c-0.3-0.4-0.7-0.6-0.6-1.3-0.4-0.4-1.2-1.3-0.7-2 1.3 0.5 2.6 1.4 2.2 3.3"/>
	<path class="st2" d="m61.5 37.1c0.7 0.6 1.1 1.4 1.3 2.4-0.7 0.2-1.3 0.3-2 0.3 0.2-0.7 0.1-2.1 0.7-2.7"/>
	<path class="st0" d="m59.6 37.2c0.1 0.2 0.1 0.5 0.4 0.3 0.4 0.7 0.6 1.5 0.6 2.4-0.4 0-0.9-0.1-1.3-0.2v-0.4c0.2 0 0.4-0.1 0.6-0.2-0.1-0.3-0.3 0-0.6-0.1 0.1-0.2 0.1-0.4 0.1-0.7-0.3 0.4-0.4 0.9-0.3 1.3-0.5 0-1 0-1.4-0.1 0.7-0.6 0.9-1.8 1.9-2.3"/>
	<path class="st8" d="m89.3 73.5c0.2 0.6-0.3 1.5-0.1 2.1-0.5 0.3-1.2-2.4 0.1-2.1"/>
	<path class="st8" d="m89.8 73.5c0.3-0.1 0.4 0.1 0.7 0.1v1.9c-0.2 0.2-0.5 0.3-0.8 0.3-0.1-0.7-0.1-1.5 0.1-2.3"/>
	<path class="st8" d="m82.5 74.2c0 0.8-0.1 1.5-0.1 2.4-0.9-0.2-0.8-1.3-0.8-2.4 0.3 0.1 0.5-0.1 0.9 0"/>
	<path class="st8" d="m82.8 74.2c0.3-0.1 0.4 0.1 0.8 0.1 0 0.9-0.1 1.7-0.8 1.9v-2"/>
	<path class="st8" d="m19.7 74.9c0.2 0 0.5 0 0.6 0.1 0 0.4 0 0.8-0.2 1.2-0.5-0.2-0.5-0.7-0.4-1.3"/>
	<path class="st8" d="m20.6 75c0.3-0.1 0.2 0.1 0.5 0.1-0.1 0.4-0.2 0.8-0.6 0.9 0-0.3 0.1-0.6 0.1-1"/>
	<path class="st8" d="m14.3 75.3c-0.2 0.7-0.2 1.5-0.3 2-0.5-0.3-0.5-1.2-0.6-1.9 0.2-0.1 0.7-0.3 0.9-0.1"/>
	<path class="st8" d="m14.7 75.4c0.2 0 0.5 0.1 0.7 0.3-0.1 0.5-0.3 1-0.7 1.3-0.2-0.5 0.1-1 0-1.6"/>
	<path class="st9" d="m88.7 8.3c1.1 0.9 1.9 2.3 2.2 3.7 0.2 1.9-0.6 4.4-0.3 6.2 0.2 0.7 0.5 1.4 0.8 2.1 0.8 2.5 1 5.2 0.7 7.8-0.1 1.5-0.6 2.8-0.3 4.4 0.1 0.5 0.2 1 0.3 1.7 0.3 1.7 1.2 3.4 1.1 4.3-0.2 1-1.2 1.6-1.2 2.6-0.7 0.5-1.4 0.4-2.4 0.7-0.5-0.6-1.2-1-2-1.1-2-1.5-1.3-5.7-2.9-8-0.4-0.6-1.5-1.2-1.9-2.1-0.4-1-0.8-2.1-0.9-3.2 0.8 0.3 1.5 1 2.4 0.5-0.2-2.1-1.9-3.8-4-4-0.1-2.7 1.1-5.2 0.7-7.8-0.2-1.2-0.9-2.2-0.8-3.4 0.1-1.3 0.8-2.2 1.5-3.3 1.1 1 1.6 2.6 1.3 4-0.2 2.2-1.7 4.5 1.1 4.9 0.3 0.7 0.8 1.4 1.4 1.8 0.2 0.8 0.8 1.4 1.6 1.7 0.2-0.1 0.1-0.2 0.1-0.5 0.1-0.4 0.3 0.4 0.6 0.4 0.1-1.2 0.2-2.3 0.4-3.5 0.5 0.6 0.6 1.4 1.5 1.6-0.3-1.5-0.2-2.9 0.1-4.4-1-1.9-2.6-4.9-1.1-7.1m1.4 4.5c-0.1-1-0.3-2.5-1.2-2.9-0.1 1.1 0.3 2.2 1.2 2.9m-8.5 1.7c0.4-1.1 0.5-2.4 0.3-3.5h-0.3c-0.3 0.9-0.9 2.8 0 3.5m9.2 7.8c-0.5-0.1-0.7 0.5-0.9 0.8-0.8 0.9-2.7 3.1-1.4 4.5 1.5-0.4 2-1.9 2.7-3.1-0.2-1 0.4-2-0.4-2.2m-3.7 11c-0.7-1.9-1.4-4.2-2.7-5.1 1.4 1.3 1.8 3.4 2.7 5.1m1.4-4.7c-0.5 2.8 0.9 4.4 1.7 6 0.3 0.6 0.4 1.5 1.1 1.3-0.9-2.4-2.7-4.3-2.5-7.4 0-0.1 0-0.1-0.1-0.1 0 0.1-0.1 0.2-0.2 0.2m3.1 7.8c-0.7 0.3-1.8 3.7-0.4 3.8 1.1 0.1 1.4-2.8 0.8-3.7-0.2 0.1-0.2-0.1-0.4-0.1m-4.1 0.6c-0.5 0.8 0.3 1.6 0.7 2-0.1 0.7 0.3 1 0.6 1.3h0.9c0.4-1.9-0.9-2.8-2.2-3.3"/>
	<path class="st2" d="m62.1 13c-0.2 0 0 0.3-0.1 0.4-0.5-0.1-0.2-1-0.8-0.9-0.4 0.2 0.1 0.4-0.1 0.6-0.3-0.1-0.7-0.4-1.1-0.2 0.8 0.6 1.7 0.9 2.7 1-0.6 0.2-1.7-0.2-2.3 0.2-0.8-0.5-1.5-1-2.3-1.6 1.1-0.4 2.3-0.6 3.5-0.4 0.4 0.6 0.8 1.1 1.3 1.6-0.3 0.1-0.7-0.4-0.8-0.7"/>
	<path class="st1" d="m65.6 39.1c2.5-0.4 4.7-1.2 6.1-2.9 0.9-1.1 1.6-2.3 2.1-3.5 0.1-0.3 0.1-0.8 0.2-1.3 0.1-0.4 0.3-0.7 0.3-1.1 0-0.5-0.3-1.1-0.3-1.7 0.1-0.9 0.4-1.8 0.8-2.6 0.1-0.9 0.3-1.7 0.6-2.5 0-0.1-0.1-0.2 0-0.3s0.3 0 0.3-0.2c0.6-1.3 0.8-2.8 1.5-3.8 0.8-1 2-1.8 3.2-2.2 0-1.9-1.2-3.7-0.8-5.4 0.4-1 1-1.9 1.7-2.7 1.6 0.5 2.2 3 1.9 5.4 1.1-1.1 4.1-1 5.4 0.1-0.8-1.6-1.7-4.5-0.5-6.6 1.8 1.1 2.9 3 2.9 5.1 0 1.7-0.4 3.4-0.1 5.1 0.3 1.9 1.5 3.5 1.7 5.9 0.2 2.6-0.5 5.4-0.5 8 0.1 1 0.2 2 0.5 3 0.2 1 0.6 1.8 0.8 2.7 0.1 0.6 0.1 1.1-0.1 1.7-0.1 0.3-0.5 0.4-0.7 0.8-0.3 0.5-0.2 1.1-0.4 1.3-0.8 0.5-1.7 0.8-2.6 0.7-0.4-0.1-0.7-0.6-1.1-0.8-0.6-0.4-1.2-0.3-1.6-0.8-1.5-1.6-0.9-5.3-2.3-7.4-0.8-1.3-1.5-1.5-2.1-2.7-1.1 2.7-1.9 5.5-2.4 8.3-0.1 1.5-0.1 2.9 0.1 4.3 0.3 2.4 1.1 4.8 2.2 7 0.5 1 1.3 1.8 1.9 2.8s1 2 1.6 3c2.3 4.1 4.3 8 5 13.2 0.3 2.3 0.4 4.6 0.2 6.8-4.1 2.5-3-4.4-3.1-7.2-0.2-2-0.7-3.9-1.6-5.7-1.4-3.2-3.2-6.3-5.3-9.2-0.9-1.2-2.3-3.5-3.8-3.5s-1.8 2.4-1.3 3.9c0.6 1.1 1.2 2.2 1.9 3.2 0.7 1.1 1.6 2 2.1 3 0.8 1.8 1.5 3.6 2.1 5.5 1.4 3.3 2.1 6.9 2 10.5-0.5 0.6-0.9 1.3-1.9 1-1.2-0.3-1-2.1-1-3.5-0.2-2.2-0.7-4.4-1.5-6.5-0.3-0.8-0.7-1.5-1.1-2.2-0.9-1.7-2.3-3.6-3.5-5.6-1.6-2.6-3.3-5.3-5.9-6.3-1.3-0.4-2.7-0.6-4.1-0.7-1.4-0.2-2.8-0.5-4-0.6-2.7-0.2-5.7-0.1-8.3-0.2-1.5-0.1-2.9-0.1-4.4-0.1-1.3 0.1-2.6 0.4-3.9 0.5-2.7 0.3-5.3 0.5-7.3 1.9-1.6 1.9-2.3 4.6-4.3 6.2s-5.7 1.8-7.4 4c-0.9 1.5-1.7 3.1-2.3 4.7-0.7 1.7-1.3 3.5-1.6 5.3-0.1 1.2-0.4 3.6-1.9 2.5-1-0.7 0-4.7 0.3-5.7 0.6-1.8 1.1-3.6 1.3-5.5 2-4.2 4.4-8.1 7.1-11.9-2 0.7-3.8 1.8-5.4 3.1-2.4 1.9-4.1 4.6-4.9 7.6-0.5 1.4-1 2.9-1.3 4.4 0 0.9 0 1.7-0.2 2.6-0.3 0.7-0.6 1.5-0.8 2.3-0.2 1.3 0.2 4.6-1.7 4.6-0.6 0-1.2-1-1.3-1.5-0.5-1.4 0-3.3 0.2-5 0.1-1.8 0.4-3.6 0.8-5.4 0.3-0.8 0.6-1.6 0.8-2.5 1.2-3.8 3.3-6.8 5-10.1 1.4-2.7 2.7-5.2 4-7.7-0.3-1.5-1.5-2.7-3-3-0.9-0.3-1.7-0.4-2.6-0.5-2.3 0-3.4 2.8-3.5 5.1-0.7-0.3-0.7-2-0.6-3.1 0.1-0.5 0.1-1 0.3-1.4-0.8 0.4-1 2.1-1.4 3.1-0.1-1.6-0.3-3.6 0.2-4.9-1.6 1.3-1.4 5.4-0.7 7.8-1.9-1.5-1.5-6-1-8.8-1.8 1.3-1.3 5.6-0.3 7.8-2-0.9-2.7-5.7-1.5-8.2 0.1-0.3 0.4-0.6 0.6-0.9 0.7-1.1 1.6-1.9 2.8-2.4 3-1.5 7.6-1.6 9.5 1.1 1.3 1.8 1.8 4.6 3.8 5.1 3.7-3.6 11.5-4.1 17.7-4-0.2-1.8-2.5-1.8-4.2-2.2-1.9-0.5-3.8-1.1-5.6-1.8-2.9-1.2-6-2.4-7.2-5.4-0.2-0.5-0.4-1.1-0.6-1.7-0.5-1.2-0.5-2.5-0.2-3.8 2.2 1 3.3 3.4 5.7 4.5 0.7 0.3 1.8 0.6 2.9 1 2.5 0.9 5.1 1.4 7.8 1.5 2.6 0.1 5.3-0.5 7.5 0.2 1.4 0.4 3.7 1.8 3.8 3.5 0 0.9-0.5 2.1-0.3 3.1 0.1 0.9 0.6 1.1 1.2 1.8 1.9 0.2 3.3-0.3 3.5-2 0-0.7-0.1-1.4-0.3-2 0-0.7-0.1-1.4-0.3-2-0.2-0.5-0.9-1-1.3-1.3-0.6-0.3-1.1-0.6-1.6-1-4.7-1-9.2-0.9-13.1-2.1-0.9-0.3-1.8-0.8-2.6-1.3-3.1-1.8-5-4.3-6.7-7.8-0.2-0.3-0.3-0.7-0.5-1-0.6-0.9-1-1.9-1.3-2.9-0.4-1.5-0.6-3-0.7-4.6-0.1-1.2-0.5-2.4 0-3.5 1.6 1.4 4.3 1.9 7.1 2.3 1.6 0.2 3.2 0.5 4.8 0.7 6.2 0.5 11.9-1.9 18.4-0.7 0.8 0.2 1.6 0.5 2.4 0.8 1.9 0.6 3.5 1.8 4.5 3.5 0.2 0.8 0.3 1.6 0.4 2.4 0.4 1.8 1.3 2.9 1 5.2-0.1 0.6-0.3 1.1-0.4 1.7-0.2 1.3-0.3 2.6-0.6 3.9-0.2 1.1-0.9 2.4-1.3 3.6-0.7 2.2-3 5.7-0.5 7.7m-7.1-22.5c0.3-0.2-0.5-0.6-0.8-0.8-0.2-0.4-0.8-0.5-1-0.9 0.6-0.2 1.2-0.4 1.9-0.5-3.7-1.7-8.2-0.1-12.4 0.3-1.9 0.1-3.7 0-5.6-0.2-3.4-0.4-6.8-1.1-10-2.3-0.1 0.7 0.2 0.9 0.2 1.6 3.6 1.1 7.3 1.7 11 1.6 2.7-0.1 6.1-0.2 8.3-0.2-3.9 0-7.9 0.6-11.6 0.3-2.6-0.3-5.2-0.8-7.7-1.6 0 0.7 0.2 1.4 0.4 2.1 5.4 0.7 10.8 1 16.3 0.8-5.4 0.2-10.8 0-16.2-0.7 0.1 0.4 0.2 0.8 0.5 1.2 2.7 0.5 5.5 0.7 8.3 0.6 5.6-0.3 11.5 1.1 17 1.5-2.8-1.2-6.2-2.8-9.6-2.6 4.5-0.3 7.7 1.9 10.9 3-0.6-0.7-1.5-1.1-1.8-2.1 0.8-0.3 1.7-0.6 2.5-0.8-2.5-1.1-5.2-1.8-7.9-1.9 2.5 0.1 5 0.7 7.3 1.6m31.3-1.2c-0.3 1.4-0.4 2.9-0.1 4.4-0.9-0.2-1-1-1.5-1.6-0.2 1.1-0.4 2.3-0.4 3.5-0.3 0-0.5-0.8-0.6-0.4 0 0.3 0.2 0.4-0.1 0.5-0.8-0.3-1.4-0.9-1.6-1.7-0.7-0.4-1.2-1-1.4-1.8-2.8-0.4-1.3-2.7-1.1-4.9 0.3-1.5-0.2-3-1.3-4-0.7 1.1-1.5 2-1.5 3.3-0.1 1.2 0.6 2.1 0.8 3.4 0.5 2.6-0.8 5.2-0.7 7.8 2.1 0.2 3.8 1.9 4 4-0.9 0.4-1.6-0.2-2.4-0.5 0.2 1.1 0.5 2.2 0.9 3.2 0.5 0.9 1.5 1.5 1.9 2.1 1.6 2.3 0.9 6.5 2.9 8 0.8 0.1 1.5 0.5 2 1.1 0.9-0.2 1.7-0.2 2.4-0.7 0-1 1.1-1.6 1.2-2.5s-0.8-2.6-1.1-4.3c-0.1-0.7-0.3-1.2-0.3-1.7-0.2-1.6 0.2-2.9 0.3-4.4 0.3-2.6 0.1-5.3-0.7-7.8-0.3-0.7-0.6-1.4-0.8-2.1-0.3-1.8 0.5-4.4 0.3-6.2-0.3-1.5-1-2.8-2.2-3.7-1.5 2.1 0.1 5.1 1.1 7m-59.5-5.4c2 1.3 4.6 1.3 6.9 1.9 0.5 0.1 1 0.5 1.5 0.6 2.4 0.5 5.1 0.1 7.6 0.1 0.9 0 1.7 0.1 2.5 0.1 3.6-0.2 8-1.7 11.7-1-0.5-0.8-1.2-0.9-2.4-1s-2.4-0.1-3.5-0.1c-2.4 0.2-4.8 1-7.3 1.2-1.4 0.1-2.8-0.1-4.1-0.1-0.5 0-1 0.2-1.5 0.2-1.4-0.1-2.7-0.3-4-0.7-3.2-0.6-5.4-0.7-7.5-2.3 0 0.4 0.1 0.7 0.1 1.1m0.3 1.6c4.5 1.9 9.4 2.4 14.9 2.4 1.5-0.1 3-0.2 4.6-0.5 3.7-0.4 6.7-0.5 9.5 0.4 0.1-0.5-1.4-1-1.7-1.5 0.7-0.5 2-0.3 2.9-0.6-4.1-0.9-7.8 0.6-11.6 0.8-3.1 0.2-6.1 0.2-9.2 0-0.9-0.1-1.8-0.4-2.7-0.7-0.5-0.1-1-0.1-1.5-0.2-1.8-0.4-3.6-0.9-5.4-1.5 0.1 0.5 0 1 0.2 1.4m32.1-0.1c-0.8-0.5-1.8-0.7-2.7-0.8 0.6 0.9 1.7 1.2 2.7 0.8m-0.8 0.4c0.5 1.4 1.6 3 4 2.5-0.7-1.4-2-2.9-4-2.5m1.1 1.8c-0.5-0.5-1-1-1.3-1.6-1.2-0.2-2.4 0-3.5 0.4 0.7 0.6 1.5 1.1 2.3 1.6 0.5-0.4 1.7 0 2.3-0.2-1-0.1-1.9-0.4-2.7-1 0.4-0.2 0.8 0.1 1.1 0.2 0.2-0.2-0.3-0.4 0.1-0.6 0.6 0 0.3 0.9 0.8 0.9 0-0.1-0.1-0.4 0.1-0.4 0 0.3 0.4 0.8 0.8 0.7m26.3 2.3c-0.4-1.1-1.4-1.3-2.5-1.9-0.4-0.3-0.9-0.5-1.3-0.6-0.8 0-1.5 0.4-2 0.9-0.4 0.8-0.6 1.7-0.6 2.5 0.3 0.4 0.7 0.6 1.1 0.8-0.1-0.8-0.5-2.4 0.2-2.9 0.2 1.7 0.2 3.6 1.3 4.5 0-1.5 0.6-2.5 0.3-3.8 1.3 0.4 0.2 1.8 0.1 2.9-0.2 1 0 2 0.8 2.8-0.5-1.6 0.5-3.2 0.3-4.7 1.6 0.6-0.8 3.8 0.7 4.7-0.1-2 0.6-3.2 0.6-4.7 0.4 1 0 2.6 1.3 2.9-0.4-1.1-0.4-2.3-0.3-3.4m-25.4 1.2c0.3 0 0.6 0.2 0.8 0.3-0.4-0.9-1.4-1.2-1.8-2.1 0.2 0 0.1-0.2 0.3-0.2 0.4 0 0.3 0.4 0.6 0.5 0-0.3 0.1-0.5 0.4-0.4-0.3-1-1.9-0.8-3-1 0.8 1.1 2.1 1.7 2.7 2.9m-6.3-2.1c0.8 0.4 1.5 1 2 1.8 1.1-0.1 2.4 0.1 3.2 0.1-0.5-0.4-1.5-1-2.2-0.5 0-0.3 0.3-0.2 0.3-0.5-0.2-0.2-0.9 0.1-0.8-0.3 0.9 0.1 1.6 0.7 2.3 0.7-1.1-1.1-3-2.2-4.8-1.3m7.1-0.2c0.7 1.5 1.6 2.9 2.6 4.1-0.2-1.4-0.6-2.8-1.2-4.1-0.4-0.1-0.9-0.1-1.4 0m0 1.8c0.1-0.4-0.2-0.9-0.4-1.3 0.1 0.6 0.1 1.1 0.4 1.3m0.5 0.5c0-0.2-0.2-0.4-0.4-0.4 0 0.2 0.3 0.3 0.4 0.4m-1.4 2.6c-0.2-0.8-0.5-1.5-0.8-2.3-0.9 0-1.8-0.1-2.8-0.2 0.6 1.6 1.9 2.8 3.6 3.2-0.2-0.4-0.5-0.8-0.8-1.1-0.5-0.1-0.5 0.3-0.9 0.2 0-0.1-0.1-0.2-0.2-0.3 0.1-0.2 0.4-0.2 0.5-0.4-0.3-0.2-0.7-0.4-1-0.6 0-0.2 0-0.4 0.2-0.4 1.2-0.1 1.5 1.4 2.2 1.9m15.3 1.5c0.1 0.8 0.4 1.5 0.5 2.2 0.1 1.2-0.1 2.4-0.4 3.6-0.1 0.8 0 1.6-0.2 2.4-0.1 0.6-0.6 1.2-0.8 1.9-0.1 0.3-0.1 0.7-0.2 1.1s-0.3 0.6-0.4 0.9c-0.3 1.2-0.2 2.1-1.3 2.3 0.2-2-0.9-3.4-1.6-4.8-0.3 1.4-0.8 2.8-1.5 4-0.8 1.7-1.6 2.9-3.3 3.5-0.8 0.3-1.6 0.7-2.4 0.9-0.6 0.2-1.2 0.3-1.8 0.3-2.2 0.3-4.3 0.7-6.4 0.8-5.9 0.3-11.7-1.3-17.4-1.1-1.9 0.1-3.7 0.1-5.6 0.3-1.4 0.2-2.8 0.6-4.2 1.1-1.3 0.4-2.5 1-3.6 1.8-2.1 1.4-3.9 3.3-5.1 5.6-2.4 4-4.5 7.9-6.6 12.1-0.5 1.1-0.8 2.3-1.1 3.5-0.3 0.8-0.6 1.5-1 2.3-1.1 2.6-1 5-1.2 8.5 0.7 0 1.5 0.2 2.2 0.3 0.2-2.3 0.5-4.5 1-6.7 0.1-0.5 0.5-0.9 0.6-1.3 0.3-1 0.3-2 0.5-2.9 0.7-2.5 2-4.7 3.8-6.6 1.1-1.2 2.4-2.3 3.8-3.1 0.7-0.5 1.4-0.9 2.2-1.3 0.7-0.3 1.8-0.8 2.5-0.2-1.7 1.7-3.1 3.7-4.2 5.8-0.8 1.7-1.8 3.2-2.6 4.9-0.3 0.5-0.7 1-0.9 1.6-0.1 0.3 0 0.7-0.1 1.1-0.1 0.6-0.5 1.3-0.7 1.9-0.8 2.1-1.3 4.2-1.7 6.4 0.5 0 1 0.1 1.5 0.2 0.4-2.6 1-5.1 1.9-7.5 0.3-0.9 0.3-1.9 0.6-2.6 0.6-1 1.5-1.9 2.5-2.4 2.6-1.3 5.4-1.6 7.2-3.5 1.3-1.4 2.1-4.3 3.5-5.6 1.2-0.8 2.5-1.4 4-1.7 1.3-0.1 2.6-0.2 4-0.2 1.1-0.1 2.4-0.3 3.5-0.4 4.4-0.4 8.8-0.4 13.2 0 2.8 0.2 5.6 0.8 8.3 1.6 0.4 0.4 0.8 0.6 1.3 0.8 0.5 0.6 1.2 1.2 1.9 1.7 2.7 2.4 3.9 6.3 5.6 9.9 0.3 0.7 0.7 1.3 1 1.9 1 2.3 1.6 4.6 1.9 7.1 0.6-0.1 1.2-0.1 1.9-0.1-0.1-2.1-0.6-4.2-1.3-6.2-0.6-2.2-1.5-4.4-2.6-6.5-0.2-0.4-0.3-0.9-0.5-1.3-0.4-0.8-1.2-1.5-1.8-2.3-0.8-1.1-1.5-2.3-1.9-3.5-0.5-0.8-0.5-1.8-0.3-2.8 0.5-0.8 1.5-1.3 2.4-1.3 1.1 0.1 2.6 2.3 3.4 3.4 1 1.3 1.8 2.9 2.7 4.1 2.1 2.7 3.6 5.7 4.4 9 0.3 2.3 0.4 4.6 0.4 6.9 0.5 0.1 1.3-0.1 1.9-0.1 0.2-4.7-0.8-9.3-2.9-13.5-1.1-2.2-2.3-4.4-3.5-6.3-1.8-3-4.5-6.2-4.5-10.6 0-3.1 0.4-6.2 1.2-9.2 0.4-1.5 1.1-3.1 1-4.6-0.1-1.4-0.9-2.4-1.3-3.4-1-2.4-0.3-5.5 0-8.1 0-0.1 0-0.1-0.1-0.1-1 1.2-1.5 2.6-1.3 4.1m-21.6-3.4c0.9 1.4 2.1 2.9 3.7 3.3-0.3-0.4-0.5-0.7-0.8-1.1-0.3 0-0.3 0.2-0.5 0 0.7-0.8-0.9-1.2-1.1-1.9 0.5 0.2 0.6 0.7 1.2 0.8 0.7-1.5-1.5-1.7-2.5-1.1m-4.2 3.9c-4.3-1.8-8.9-2.5-13.5-2.2-2.1 0.1-4.9 0-7.1-0.1 0.2 0.6 0.6 1.1 1 1.5 2.8 0.2 5.4 0.1 7.8 0 2.8 0 5.7 0.5 8.3 1.4 1 0.2 1.9 0.5 2.8 0.9 1.8 0.9 3.6 2.5 5.8 2.8-0.5-0.5-1.5-0.6-1.9-1.3 0.7-0.4 2.3-0.2 3-0.3-2-1-4.1-1.8-6.2-2.7m-7.5-2.1c5.7 0.6 9.6 3.1 13.9 4.6-1.1-0.6-2.1-1.4-2.8-2.4 0.6-0.4 1.3-0.6 1.9-0.8-2.8-1.2-6.3-1.4-9.5-1.7-2.4-0.2-4.7-0.7-7.1-0.8-3.8-0.2-7.2 0.3-10.4-0.7 0.2 0.6 0.6 1 0.8 1.6 4.3 0.1 9-0.3 13.2 0.2m19.1 1.7c0.7 0.3 1.2 0.8 1.9 1.1-0.2-0.5-0.4-1-0.6-1.4-0.2-0.1-0.6 0-0.7-0.2 0.5-0.2 0.3-0.2 0.3-0.6 0.2 0.1 0.1 0.5 0.4 0.4 0.1-0.3 0.1-0.7 0.3-0.8-0.4 0.9-0.1 2 0.6 2.7 0.3-0.8 0.3-1.7 0.3-2.6-1.1-0.8-2.4-1.5-3.6-2 0.2 1.1 0.6 2.3 1.1 3.4m14.2 3.8c0.3-2.6-0.9-4.4-0.2-6.3 0.1-0.4 0.7-0.7 0.5-1-2.5 1-2.1 5.9-0.3 7.3m-18.9-5.6c0.6 0.4 0.7 1.1 1.3 1.7 0-1-0.5-2-1.2-2.7 0 0.4-0.2 0.6-0.1 1m4.2 5.3c0-1.1 0-2.3-0.1-3.4-0.8-0.5-1.7-1-2.6-1.4 0.1 2.3 1.8 3.2 2.7 4.8m-7.3-3.1c0.8 1 1.7 1.8 2.8 2.4 0-0.7-0.4-1-0.7-1.5-0.2-0.1-0.4 0.3-0.5 0.1 0-0.2 0.3-0.2 0.3-0.3-0.1-0.1-0.4-0.4-0.3-0.5 0.4 0.5 0.8 0.9 1.1 1.4v-1.9c-0.8-0.5-1.9-0.3-2.7 0.3m4.9 4.4c-0.2-0.9-0.4-1.7-1.2-1.9 0.2-0.2 0.3 0 0.5 0-0.1-0.7-0.8-1.2-0.8-1.7 0.3 0.2 0.4 0.7 0.7 1 0.3-0.3 0.2-1.1 0.3-1.5-0.5-0.3-0.8-0.8-1.4-0.9-0.4 1.9 0.3 3.9 1.9 5m-14.2-3.9c-1.3-0.4-2.6-0.7-3.9-0.8-2.4-0.2-4.6 0.2-7.3 0-0.1 0-1.5 0-2.4 0.1 0.3 0.6 0.7 1.1 1.2 1.6 2.2-0.3 4.4-0.4 6.7-0.3 6.3 0.5 10.5 4 15.4 5.4-0.5-0.4-1.4-0.5-1.8-1.1 0.6-0.4 1.5-0.4 2.2-0.8-3.4-1.2-6.4-3.2-10.1-4.1m17.1 3.4c0.6 0.7 1.1 1.4 1.5 2.2 0-0.8-0.1-1.5-0.3-2.3-0.2-0.3-0.8-0.3-1-0.6 0.3-0.3 0.6 0.4 0.9 0.1-0.3-0.4-0.4-0.8-0.3-1.3 0.2 0 0.1 0.3 0.3 0.3 0.1-0.3 0.1-0.7 0.5-0.7-0.1 0.3-0.3 0.6-0.5 0.9 0.4 0.9 0.4 2.1 0.8 3 0.2-0.9-0.1-3.1 0.3-4-0.6-0.8-1.4-1.3-2.3-1.5 0 0.9 0 2.9 0.1 3.9m14.1 1.6c-0.2-2-1.5-3.3-1.9-5.3 0 2 0.7 3.8 1.9 5.3m-15.4 1.5c0.2-0.9 0.4-1.9 0.8-2.8-0.6-0.3-0.5-1.1-1.2-1.3-0.2 0.1-0.2 0.3-0.2 0.5 0.2 0 0.6-0.1 0.6 0.1-0.1 0.2-0.5 0.1-0.6 0.3 0.1 0.2 0.3 0.7 0.2 0.8-0.5-0.8-0.3-2.4-1-3 0.3 1.9 0.5 4.1 1.4 5.4m14.7 0.9c0.7-2.7-1.3-4.2-2-6.3-0.4 2.9 1.1 4.4 2 6.3m-24.1-0.7c0.5 0.2 0.9 0.3 1.4 0.3-0.4-0.1-1.1-0.4-1.4-0.3m2.7-0.4c0 0.2 0.5 0 0 0-4.8-1.3-8.2-4.5-13.7-5-2.6-0.1-5.2-0.1-7.8 0 0.2 1.4 1.5 0.8 2.8 0.9 3.4 0.1 6.7 0.9 9.8 2.2 2.7 1.2 5.5 2 8.4 2.6-0.1-0.4-0.8-0.2-0.8-0.8l1.3 0.1zm5-4c-0.2-0.3-0.1-0.8-0.3-1-0.3 0.4 0 1.2 0.3 1m1 0c0.7-0.1 0-0.6-0.3-0.8 0 0.3 0.3 0.3 0.3 0.8m18.2 1.2c0-0.6 0.4-1.1 0.9-1.3-0.5-0.2-1-0.3-1.5-0.4 0.1 0.6 0.3 1.2 0.6 1.7m-24.3-1c0.7 0.9 2.1 1.2 2.9 2-0.1-0.7-0.8-0.9-1-1.6 0.4 0 0.4 0.4 0.7 0.5 0-0.2 0.1-0.4 0.3-0.4-0.2 0.4-0.1 1.1 0.2 1.3 0-0.1 0.2-0.3 0.3-0.1-0.3 0.4 0 1 0.3 1.3-0.2-0.9-0.2-1.9-0.2-2.9-1.2-0.2-2.4-0.2-3.5-0.1m24.9 1.9c1.3 0.4 1.7-1.9 0.3-1.9-1 0.1-1 1.7-0.3 1.9m-53.9-0.1c0.8 1 1.8 1.9 3 2.5 2 1.1 6.7 3 9.6 2.9 2.7-0.1 5.5-1.1 7.8 0.2 0.1-0.2-0.5-0.4-0.5-0.8-6.3-0.1-12 0.1-16.2-2.5-0.4-0.2-0.6-0.6-1-0.8-0.4-0.3-0.9-0.4-1.3-0.7s-0.4-0.7-0.7-1c-0.2-0.2-0.7-0.4-0.9-0.7-0.3-0.3-0.6-0.8-0.9-0.8 0 0.6 0.6 1.2 1.1 1.7m12.7 0.9c3.2 1.6 7.7 2.3 12.3 2.2-3.2-1.6-8.6-2-12.3-2.2m3.2 0.2c2 0.1 4 0.4 6 0.8 1.7 0.4 3.2 1.3 4.7 1.7 0-0.4 0.3-0.5 0.7-0.6-1.6-0.4-3.2-0.7-4.6-1.2s-2.6-1.3-4-1.8c-3.2-1-6.5-1.6-9.9-1.6 1.1 2 4.1 2.3 7.1 2.7m17 0.8c0.5 0.2 0.5 1.2 0.9 1.2-0.2-0.7-0.3-1.6-0.8-2 0.2-0.1 0.3 0.4 0.3 0s-0.4-0.9-0.3-1.2c0.5 0.8 0.3 2.2 0.8 3 0-0.8 0.2-1.6 0.6-2.3-0.4-0.9-1.1-1.7-1.9-2.3 0.1 1.3 0.2 2.5 0.4 3.6m21-1.5c0.7 0.4 1.5 1.1 2.4 0.8-0.3-0.7-0.5-2.1-1-2.3 0.3 0.9-0.6 1.4-1.4 1.5m-17.9 2.5c0.6 0.3 1.2 0.7 1.8 1.1-0.2-1.6-0.3-3.5-1.1-4.6-0.4 1.2-0.7 2.4-0.7 3.5m1.8 1.4c1.1-1.5 0.8-3.6-0.7-4.7 0.3 1.5 0.9 3.3 0.7 4.7m11.9 1c0.8-2.6-1-4-1.8-5.6-0.2 2.7 1.4 3.9 1.8 5.6m-21.5-4.7c0.6 0.6 1.6 0.9 2.2 1.4 0.1-0.7 0.2-1.3 0.2-2-0.9 0.1-1.7 0.3-2.4 0.6m-26.3 2.8c1 0.6 2 1.1 3.1 1.5 1.9 0.7 3.8 1.2 5.8 1.4 2.7 0.1 5.8 0 7.8 0.6 0.4-0.5 0-1.1-0.2-1.4-2.9-0.4-5.6 0.6-8 0.1-4.7-1.1-8.9-2.7-11.5-5.5 0.4 1.7 1.5 2.5 3 3.3m-1.5-0.6c-0.3-0.2-0.5-0.8-0.9-0.8 0.5 0.7 0.6 1.6 1.2 2.2 0.9 0.8 2.6 1.1 4.1 1.3 1.4 0.3 2.8 0.6 4.2 0.7-3-0.9-6.4-1.7-8.6-3.4m31.5 0.6c0.2-0.5 0.3-1 0.4-1.5-0.4-0.5-0.7-1-1.2-1.4-0.5 0.9-0.2 2.2 0.8 2.9m3.5 2c0-0.8 0.1-1.6 0.3-2.4-0.5-0.4-0.5-1.4-1-1.8-0.4 1.3-0.8 3.7 0.7 4.2m13.6 2.5c1.1-2.7-1.2-4.7-1.9-6.7-0.7 2.8 1.3 4.6 1.9 6.7m-19.6-5.2c0.2 0.3 0.3 0.8 0.6 1.1 0.1-0.5 0.3-0.9 0.4-1.3-0.8-0.2-1.6-0.3-2.4-0.2 0.6 0.1 0.8 0.4 1.4 0.4m4.3 3.4c0-0.5-0.3-0.7-0.3-1.2-0.1-0.2-0.6 0-0.6-0.4 0.1 0 0.3 0 0.3-0.1-0.2-0.3-0.5-0.8-0.4-1.1 0.5 0.7 0.7 1.7 1.2 2.4 0.1-1.2-0.5-2.4-1.4-3.1-0.1 0.5-0.2 1-0.3 1.4 0.8 0.4 0.7 1.7 1.5 2.1m-4.3-3.2c-0.7 0.1-0.8 0.8-1 1.5 0.4 0.3 0.8 0.5 1.1 0.8 0.5-0.6 0.5-1.6-0.1-2.3m-2.4 0.4c0 0.8 0.8 0.7 1.3 1 0.1-0.4 0.3-0.6 0.4-1-0.4-0.5-1.3-0.2-1.7 0m3.3 1.3c0.3 0.5 0.6 0.9 0.8 1.4-0.1-0.7 0.2-1.4-0.3-1.7 0.4 0 0.2-0.2 0.5-0.3 0.1 0.8-0.3 1.7 0.1 2.2 0.1-0.5 0.3-1.1 0.5-1.6-0.5-0.5-0.8-1.1-1.3-1.5-0.1 0.5-0.3 1-0.3 1.5m5.3 1.2c0.4 0.1 1 0.4 1.3 0.3-0.2-0.2-0.3-0.4-0.3-0.7-0.2-0.1-0.5 0.3-0.6 0 0-0.2 0.4-0.2 0.4-0.4-0.4-0.5-0.2-1.2-0.7-1.8-0.1 0.8-0.2 1.7-0.1 2.6m0.8-1.6c0.2 0.1 0.3-0.4 0.4-0.1-0.1 0.2-0.4 0.2-0.3 0.5s0.6 0.2 0.6 0.6c-0.5 0.2 0 0.8 0.2 1 0.3-0.5 0.5-1.1 0.7-1.7-0.4-0.6-1-1-1.7-1.3 0 0.4 0 0.7 0.1 1m-16.2 0.6c0.1 0.8 1.4 1.3 2.4 1.5-0.1-0.3-0.4-0.8-0.1-1.1-0.7-0.3-1.5-0.5-2.3-0.4m-16.9 0.7c1.1 1.7 4 1.9 6.5 1.9 2.2 0.1 4.4 0.3 6.6 0.6 0.3-0.3 0.9-0.3 1.2-0.6-3.4 0.3-5.9-0.4-8.8-1-2.6-0.6-5.4-0.8-7.2-1.4 0.3 0.4 1 0.4 1.7 0.5m28.6 4.4c0.4-1-0.4-2.4 0.1-3.3 0.1 0.1-0.1 0.4 0 0.8 0.2 0.2 0.2 0 0.4 0-0.4 0.2-0.3 0.9-0.2 1.4 0.7-0.7 0.1-2.1 0.5-3.1-0.2-0.2-0.3-0.5-0.7-0.5-0.6 1.5-0.7 3.2-0.1 4.7m2.3-2.8c0.3 0.6 0.7 1.7 1.1 1.9-0.5-1.4 0.6-3.2-0.8-3.8-0.4 0.6 0.1 1.4-0.3 1.9m-11.5-1.6c-0.1 1.1 1 1.4 2 1.3-0.4-0.8-1.1-1.3-2-1.3m7.6 0.6c-0.1-0.2-0.2-0.5-0.4-0.6 0 0.3 0.1 0.5 0.4 0.6m-9.6 0.8c0-1-1-0.9-1.9-1 0.2 0.8 1.3 0.6 1.9 1m14.9-0.6c-0.2 0.7-0.3 1.5-0.3 2.2s0 1.7 0.8 1.8c-0.2-1.7 0.7-2.5 1-3.7-0.5-0.3-1-0.4-1.5-0.5v0.2zm-4.8 2h0.4c-0.1-0.8-0.5-1.5-0.9-2.1 0.2 0.7 0.4 1.4 0.5 2.1m-9.6-1.1c1.1 0.4 1.6 1.4 2.5 1.9-0.2-1.1-1.5-1.5-1.8-2.2 0.4 0.2 0.5 0.6 1.1 0.5 0 0.6 0.7 1.1 1 1.6 0.1-1.9-1.3-2.4-3-2.6 0.1 0.3 0.4 0.6 0.2 0.8m12.4 2c0.5-1 0.2-2.2-0.7-2.9 0 1.1-0.1 2.3 0.7 2.9m-19.9-2c1.2 0.1 2.5-0.2 3.5-0.1 0.5 0.1 0.8 0.5 1.3 0.3-1.2-0.9-3.6-0.8-5.7-0.9h-3c1.2 0.1 2.4 0.6 3.9 0.7m5 0.1c1 0.2 1.1 1.3 1.9 1.7 0-0.5 0.2-1.1 0.5-1.5-0.5-0.4-2.2-1.6-2.4-0.2m5.6 0.1c0.1 0.3 0.3 0.6 0.7 0.8-0.4 0.5-0.3 1.2 0.2 1.7 0-1 0.7-3-0.9-2.5m-3 0.1c-0.8 0.6-0.7 2.6 0.3 2.5-0.1-0.2 0.2-0.2 0.2-0.3-0.2-0.2-0.5-0.2-0.6-0.5 0.1-0.5 0.6 0.2 0.8-0.1-0.2-0.2-0.4-0.6-0.3-0.9 0.3-0.1 0.4 0.2 0.5 0 0.3 0.8 0.6 1.6 0.8 2.4 0.2-0.5 0.9-0.6 1.1-1.1-0.9-0.8-1.8-1.4-2.8-2m-4.7 0.7c0.6 0.3 1.1 0.6 1.5 1.1 0.2-0.5 0.3-1 0.4-1.5-0.8-0.1-1.5-0.1-1.9 0.4m-1.2 0.8c-0.1-0.3 0.1-0.4 0.1-0.7-2.5-0.3-4.9-0.4-7.4-0.4 2.4 0.4 4.7 0.9 7.3 1.1m3.4-0.4c0.3 0 0.6 0 0.7-0.3-0.2-0.1-0.3-0.3-0.5-0.4-0.1 0.2-0.2 0.4-0.2 0.7m15.8 2.6c-0.2-1 0-2.5-0.6-3.2-0.3 1.1-0.2 2.7 0.6 3.2m0.5 1.3c0.3-1.8 0.2-3.3-0.7-4.5 0.4 1.5 0.1 3.5 0.7 4.5m-16.1-3.7c-0.1 0.4 0.2 0.5 0.3 0.8 0.3 0 0.3-0.2 0.5 0 0 0.2-0.4 0.1-0.3 0.4 0.2 0.3 0.2 0.7 0.5 0.8 0-0.6 0.2-1 0.3-1.6-0.2-0.3-0.4-0.5-0.7-0.8-0.1 0.4-0.4 0.3-0.6 0.4m11.9 2.5c0.3-0.4 0.8-0.5 0.9-1-0.1-0.6-0.3-1.2-0.5-1.8h-0.3c0 0.7-0.2 2.1-0.1 2.8m-14.3 0.1c0.2-0.8 0.8-1.2 1.1-1.8-0.4-0.5-1-0.9-1.6-1.1-0.3 1.1-0.1 2.1 0.5 2.9m-1.2-1.4c-0.1-0.4 0.1-0.7-0.2-0.8-0.8-0.1-1.6-0.5-2.4-0.3 1 0.1 1.9 0.5 2.6 1.1m17.6 2.3c0.1-0.6 0.2-1.1 0.5-1.6-0.2-0.6-0.5-1.2-1-1.6-0.7 1.3 0 2.2 0.5 3.2m-12.9-0.2c0.3 0.2 0.8 0 1.2 0.1 0.1-0.6-0.6-0.4-0.8-0.8 0.3-0.1 0.3 0.1 0.6 0.1 0.1-0.4-0.4-0.6 0-0.8 0.1 0.3 0.1 0.5 0.1 0.7 0.3 0.1 0.6-0.3 0.7 0.1-0.2 0.1-0.3 0.1-0.5 0.2 0 0.2 0.1 0.4 0.2 0.6 0.3-0.1 0.7 0.1 0.8-0.1-0.1 0-0.2-0.1-0.3-0.3 0.2-1.1-0.8-1.9-1.5-2.4-0.7 0.5-0.4 1.7-0.5 2.6m-36 1.1c-0.5 1.2-0.4 3-0.5 4.4v0.9c-0.1 0.5 0.1 0.5 0.1 0 0-1.5 0.4-2.9 1.2-4.2 0.5-0.7 1.7-1.7 2.3-1.6-1.3 1-2 2.7-1.7 4.3 0.4-1.1 1.2-1.9 2.3-2.3 0.1 0.6-0.4 0.7-0.7 1.3-0.4 1-0.5 2-0.3 3 0.4-1.5 1.3-3.1 2.7-3.5 1.9-0.4 3.9 0 5.6 1.1 0.7 0.7 0.7 1.6 1.3 2.2 0.5-0.7 1.1-1.4 1.6-2.2-2.1-0.7-2.4-3.4-3.5-4.9-1.9-2.7-8.3-2.6-11-0.6-0.7 0.9-1.3 1.9-1.8 3-0.5 1.9-0.3 4 0.6 5.7-1.1-3.3 0-7.2 2.6-7.8 0 0.6-0.6 0.7-0.8 1.2m34.1-3.4c-0.4 0.8-1.4 1.2-1.2 2.3 0.5 0 0.7 0.1 1.3 0.1 0.2-0.7-0.6-0.5-0.7-0.9 0.2 0 0.4 0.2 0.6 0.2 0.1-0.3-0.2-0.5 0-0.6 0.1 0.2 0.2 0.2 0.2 0.5 0.2 0 0.4-0.3 0.6-0.1-0.1 0.3-0.6 0.4-0.3 0.9 0.4 0 0.7 0 1.1 0.1-0.3-0.8-0.7-2.1-1.6-2.5m4.6 2.5c0.5 0 0.8 0.1 1.3 0.1 0-0.1 0-0.2 0.1-0.3-0.3-0.1-0.7-0.2-0.8-0.4 0.4-0.1 0.5 0.2 0.8 0.2 0-0.3-0.3-0.7-0.1-0.8 0.3 0.5 0.3 1 0.3 1.5 0.2-0.1 0.3 0.2 0.4 0-0.1-0.5 0.3-1.9-0.3-2.4-1 0.1-1.7 1.1-1.7 2.1m-0.4-1c0.1-0.4-0.1-0.5-0.1-0.8-0.1-0.1-0.4-0.1-0.5-0.2 0.1 0.4 0.3 0.7 0.6 1m12.9 1.5c0.7 0 1-0.3 1.7-0.3-0.3-0.7-0.9-1-0.8-2-0.2-0.1-0.4-0.2-0.6-0.2-0.2 0.9-0.3 1.7-0.3 2.5m-2.3 0.4c0.7-0.1 1.4-0.2 2-0.3-0.1-0.9-0.6-1.7-1.3-2.4-0.6 0.6-0.5 2-0.7 2.7m-3.2-0.2c0.5 0.1 1 0.1 1.4 0.1-0.1-0.5 0-1 0.3-1.3 0 0.2 0 0.5-0.1 0.7 0.3 0.1 0.5-0.2 0.6 0.1-0.2 0.1-0.4 0.1-0.6 0.2v0.4c0.4 0.1 0.8 0.2 1.3 0.2 0-0.8-0.2-1.6-0.6-2.4-0.3 0.2-0.3-0.1-0.4-0.3-0.9 0.4-1.1 1.6-1.9 2.3m31.7 36c-0.2-0.6 0.3-1.5 0.1-2.1-1.4-0.3-0.7 2.4-0.1 2.1m0.5 0.2c0.3 0 0.6-0.1 0.8-0.3v-1.9c-0.3 0.1-0.4-0.1-0.7-0.1-0.3 0.8-0.3 1.6-0.1 2.3m-8.2-1.5c0 1 0 2.2 0.8 2.4-0.1-0.9 0.1-1.6 0.1-2.4-0.4-0.2-0.6 0-0.9 0m1.2 1.9c0.7-0.2 0.8-1 0.8-1.9-0.3 0-0.4-0.2-0.8-0.1v2m-62.7-0.1c0.1-0.4 0.2-0.8 0.2-1.2-0.1-0.1-0.4-0.1-0.6-0.1-0.1 0.7-0.1 1.2 0.4 1.3m0.5 0c0.4-0.1 0.5-0.5 0.6-0.9-0.3 0.1-0.2-0.1-0.5-0.1-0.1 0.3-0.2 0.6-0.1 1m-7.2-0.7c0.1 0.7 0.1 1.6 0.6 1.9 0.2-0.5 0.2-1.3 0.3-2-0.2-0.2-0.7 0-0.9 0.1m1.3 1.6c0.3-0.4 0.6-0.8 0.7-1.3-0.2-0.2-0.4-0.2-0.7-0.3 0.2 0.6-0.2 1.1 0 1.6"/>
	<path class="st0" d="m51.2 15.1c2.7 0.1 5.4 0.8 7.9 1.9-0.9 0.2-1.7 0.4-2.5 0.8 0.3 1 1.2 1.4 1.8 2.1-3.1-1.1-6.3-3.3-10.9-3 3.4-0.1 6.8 1.4 9.6 2.6-5.6-0.4-11.4-1.8-17-1.5-2.8 0.1-5.6-0.1-8.3-0.6-0.3-0.3-0.4-0.7-0.5-1.2 5.4 0.7 10.8 0.9 16.2 0.7-5.5 0.1-10.9-0.2-16.3-0.9-0.3-0.7-0.4-1.4-0.4-2.1 2.5 0.8 5.1 1.3 7.7 1.6 3.7 0.3 7.7-0.2 11.6-0.3-2.2 0-5.6 0.1-8.3 0.2-3.7 0.1-7.5-0.5-11-1.6 0.1-0.7-0.3-0.9-0.2-1.6 3.2 1.2 6.6 1.9 10 2.3 1.8 0.2 3.7 0.3 5.6 0.2 4.1-0.3 8.7-1.9 12.4-0.3-0.6 0.1-1.3 0.3-1.9 0.5 0.2 0.5 0.8 0.5 1 0.9 0.3 0.1 1.1 0.6 0.8 0.8-2.3-0.9-4.8-1.5-7.3-1.5-0.3 0.1-0.8-0.1-1 0.1 0.2-0.1 0.8 0.1 1-0.1"/>
	<path class="st0" d="m61.5 17.8c-0.2 0-0.2 0.2-0.2 0.4 0.4 0.2 0.7 0.4 1 0.6-0.1 0.2-0.4 0.2-0.5 0.4 0 0.1 0.1 0.2 0.2 0.3 0.5 0.1 0.5-0.3 0.9-0.2 0.3 0.3 0.6 0.7 0.8 1.1-1.7-0.4-3-1.6-3.6-3.2 0.9 0 1.8 0.1 2.8 0.2 0.3 0.7 0.6 1.5 0.8 2.3-0.6-0.4-0.9-1.8-2.2-1.9"/>
	<path class="st0" d="m57.8 26.4c-0.7 0.2-1.5 0.5-2.2 0.8 0.4 0.6 1.2 0.7 1.8 1.1-4.9-1.4-9.1-4.9-15.4-5.4-2.2-0.1-4.5-0.1-6.7 0.3-0.5-0.5-0.9-1-1.2-1.6 0.9 0 2.3-0.1 2.4-0.1 2.7 0.2 4.9-0.2 7.3 0 1.3 0.2 2.6 0.5 3.9 0.8 3.8 0.9 6.7 2.9 10.1 4.1"/>
	<path class="st0" d="m55.6 29.4c-0.5 0-1-0.2-1.4-0.3 0.3-0.2 1 0.1 1.4 0.3"/>
	<path class="st0" d="m55.6 28.6c-0.1 0.6 0.6 0.4 0.8 0.8-2.9-0.6-5.7-1.5-8.4-2.6-3.1-1.3-6.4-2-9.8-2.2-1.3-0.1-2.6 0.4-2.8-0.9 2.6-0.1 5.2-0.1 7.8 0 5.4 0.5 8.9 3.7 13.7 5 0.4-0.1-0.1 0.2-0.1 0h-1.2z"/>
	<path class="st0" d="m52.8 29.7c-4.6 0.1-9.1-0.6-12.3-2.2 3.7 0.2 9.1 0.6 12.3 2.2"/>
	<path class="st6" d="m83.1 25.5c0.5 0.2 0.7 1.5 1 2.3-0.9 0.3-1.7-0.3-2.4-0.8 0.8-0.2 1.7-0.6 1.4-1.5"/>
	<path class="st0" d="m26.7 26.7c2.5 2.8 6.8 4.4 11.5 5.5 2.4 0.5 5.2-0.5 8-0.1 0.1 0.4 0.6 0.9 0.2 1.4-1.9-0.6-5.1-0.4-7.8-0.6-2-0.2-4-0.7-5.8-1.4-1.1-0.4-2.1-0.9-3.1-1.5-1.5-0.8-2.6-1.6-3-3.3"/>
	<path class="st0" d="m60 30.6c0.2-0.5 0.3-0.9 0.3-1.4 1 0.7 1.5 1.9 1.4 3.1-0.5-0.7-0.7-1.7-1.2-2.4-0.1 0.3 0.3 0.8 0.4 1.1 0 0.1-0.2 0.1-0.3 0.1 0 0.4 0.5 0.2 0.6 0.4 0 0.5 0.3 0.7 0.3 1.2-0.8-0.4-0.7-1.7-1.5-2.1"/>
	<path class="st0" d="m58.1 32.8c0.5 0.6 0.8 1.3 0.9 2.1h-0.4c-0.1-0.7-0.3-1.4-0.5-2.1"/>
	<path class="st10" d="m12.8 38.6c-2.6 0.6-3.7 4.6-2.6 7.8-0.9-1.8-1.1-3.8-0.6-5.7 0.4-1.1 1-2.1 1.8-2.9 2.6-2 9.1-2.1 11 0.6 1 1.5 1.3 4.1 3.5 4.9-0.5 0.8-1.1 1.4-1.6 2.2-0.6-0.6-0.6-1.5-1.3-2.2-1.6-1.1-3.6-1.5-5.6-1.1-1.4 0.4-2.3 1.9-2.7 3.5-0.3-1-0.2-2.1 0.3-3 0.3-0.5 0.8-0.6 0.7-1.3-1.1 0.4-1.9 1.2-2.3 2.3-0.3-1.6 0.3-3.3 1.7-4.3-0.6-0.1-1.8 0.9-2.3 1.6-0.8 1.3-1.2 2.7-1.2 4.2 0.1 0.5-0.1 0.5-0.1 0v-0.9c0.1-1.4 0-3.2 0.5-4.4 0.1-0.6 0.7-0.7 0.8-1.3"/>
	<path class="st1" d="m88.9 9.9c0.9 0.5 1 2 1.2 2.9-0.9-0.7-1.3-1.8-1.2-2.9"/>
	<path class="st1" d="m81.7 25.1c0.2 0.1 0.4 0.3 0.4 0.6 0.1-0.1 0.3-0.1 0.4-0.1 0 0.2 0 0.4-0.2 0.6-0.5 0.1-0.8-0.6-0.6-1.1"/>

</svg>
