<?xml version="1.0" encoding="UTF-8"?>
<svg width="77.07px" height="86.82px" enable-background="new 0 0 101.6 104.8" version="1.1" viewBox="13.18 9.31 76.75 86.59" xml:space="preserve" xmlns="http://www.w3.org/2000/svg">
<style type="text/css">
	.st0{fill:#161619;}
	.st1{fill:#EE7922;}
	.st2{fill:#BDA287;}
	.st3{fill:#0458A6;}
	.st4{fill:#FFFFFF;}
	.st5{fill:#DC1F26;}
	.st6{fill:#878686;}
	.st7{fill:#9FB1B1;}
</style>
	<g transform="translate(0)">
		<path class="st0" d="m58.9 93.5c-0.7 0.6-1.3 1.3-1.9 2h1.7c2.9-3.2 6.5-4.8 9.4-0.3h0.4c-1.2-2.9-4.4-4.3-7.4-3.2-0.8 0.3-1.6 0.8-2.2 1.5"/>
		<path class="st0" d="m42.7 36.9c1.7 0.6 0.2 6.7 0.3 8.5 0.2 1.7-2.3 5.6 0.5 5.6 1.3 0.2 5.4-0.9 5.9 0.4 0.4 1.1 0.1 2.2-0.7 3.1-0.3 3.3 5.6 2.7 6.7 5.8 0.3 0.7 1.4 1.1 0.7 1.8-1.3 2.6-3.7 3.5-6.5 3.8-2.3 0.1-1.6 3.3 0.4 3 0.9 0 0.9 0 1.2 0.9 0.2 2.6-1.2 5.7 1.9 7.1 1.6 1.5 5-0.2 5.1 2.6-0.1 0.6 0.3 1.7-0.4 2-0.6 0.1-1.5 0.8-1.5 1.4 0.1 0.9-0.5 1.2-1 1.5-2.9 2.1-4.6 5.3-6.6 8.2-0.5 1-1.1 2-1.5 3.1h0.8c1.6-4.1 4.3-7.7 7.9-10.4-0.6 1-0.2 2.4 0.8 3 0.4 0.2 0.9 0.3 1.4 0.3 0.2 0 0.4 0.1 0.5 0.2s0.2 0.3 0.3 0.4c0.9 1 2.4 1.1 3.4 0.2 1.4 1.1 2.3 0.3 3.6-0.2 1.3 0.1 2-1.1 2.4-2.2 1.3 0.1 1.2-1.3 1.2-2.3 4.7 1.7 8.4 5.3 10.3 9.9 0 0.1 0 0.1 0.1 0.2 0.6 0 1.2-0.1 1.7-0.1-2.1-5.4-6.7-9.5-12.3-10.9l0.2-0.1c-0.8-0.4-1.5-1.4-2.4-1.1-1.4-0.2 0-5.2 0.3-6.5 0-0.3 0.2-0.6 0.5-0.7 3.5-1.9 6.4-4.8 8.2-8.4 1.1-2.3 1.8-4.7 2.2-7.2 0.5-1.5-0.2-4 1-5 4.7-3.6 1.8-14.6-1.4-18.5 7.5 1.7 18.3-3.9 7.4-9.6-3.9-1.3-7.9-1.9-12-2-0.4 0-0.8-0.1-0.8-0.7-0.5-1.3-0.5-2.9-1.4-4.1-0.8-4.2-4.2-6.7-7.7-8.4-3.6-5-9.8-0.2-13.6 2.3-4 3-5.4 7.9-6.9 12.4-0.1 0.2-0.3 0.5-0.5 0.5-2.4 0.3-4.7 0.8-7 1.4-2.8 1.3-11 4.2-7.4 8.1 4.7 1.4 9.9 0.8 14.7 0.7m6.6 17.5c4-1.1 7.3 2 7.4 6.1-4.4-4.9-8.1-3.1-7.4-6.1m0.2 12.2c3-0.3 6.3-1.7 7.4-4.8 0.5 6.4-11.2 8.3-7.4 4.8m8.6 11.2c12-2.6 6.6-2.8 7.9 6.9 0.1 0.5-0.1 0.6-0.5 0.7-3.8 0-7.2 2.5-6.5-3.3 0.3-1.7 0.8-3.3-0.9-4.3m8.5 5.4c1-0.1 1.8 0.7 1.9 1.7 0 0.4-0.1 0.8-0.3 1.1-0.7-0.6-1.3 0.2-1.2 0.9 0 1-0.8 1.5-1.2 0.4-1.2-0.3-1.3 2-2.6 1-0.5-0.2-0.6-1.2-1.2-0.9-0.3 0.1-0.5 0.4-0.6 0.6-0.1 0.5-0.5 0.8-1 0.8-1.1 0.1-0.9-1-0.9-1.8-0.6 0.1-1.6 0.3-2.1 0.1-0.6-0.5-0.6-1.4-0.1-2 0.1-0.1 0.2-0.2 0.4-0.3 1.1-0.8-0.7-0.9-0.4-1.5 0.3-0.4 0.5-1 1.1-1.1 0.1 1.5-0.6 4 1.5 4 2.4-0.5 8.5 1.3 6.7-3m11.4-27.8c-0.8 8.9-3.9 19.3-14.8 20.9-3.6 0.4-10.1 2.5-11.6-2.2-0.2-1.8 1.4-3.6 0-5.2 8.5-1.8 7.5-16.4-1.9-14.9 0.5-1 1-1.9 0.3-3 1.2-0.5 3.9-0.3 3.8-2.1 0.1-1.5-1.1-4.2-2.9-2.9 1.6 0 2.1 0.8 2.5 2.3 0.5 1.8-1.8 1.6-3 2.2 0.9-2.3-3.3-2-1.9 0-6.1 0.1-5.8 1-4.6-4.6 2-8.5-2.7-8.9 5-9.6 10.3-2 21.4-3.9 18.8 10.8-0.4 1.4 1.2 1.3 2.1 1.3 1.5 0.2 0.8-1.8 1.1-2.8h0.2c0.4 5.4 3.5 3 1.6-0.8h0.7c-0.3-0.4-0.8-0.4-1.7 0 0.2 1.4 1.4 2.5 0.4 3.8-2.7-7 3.9-5.1 2.5 0.6 0.9 2.2-2.7 2.8-2.5 5-0.2 0.7 0.1 1.9-0.6 2.3-0.7-0.1-1.5 0.1-1.8-0.9-0.6 0.8 1 1.5 1.7 1.5 1.8-0.6 0.5-3.2 2-4.1 4.1-1.5 2.4-11.5-2.1-8.5-0.2-1.9 2.2-0.9 3.2-0.4 0.4 0.4 0.7 1.1 1.1 1.5l-0.6-1.4c1.2 0.2 1 1.1 1.2 2l-0.5-0.4c1.1 1.6 0.3 3.3 0.1 5 0.1 0.7 0 1.5-0.3 2.1l0.1-1.2c0 0.8-0.1 1.6-0.2 2.3 0.9 0.4 1.7 1.2 2.8 0.9l-0.2 0.5zm-9.4-12.6v-0.8h0.2l-0.2 1.4h-0.2c0.2-0.8-0.3-1.7-0.2-2.5 0.7 0.1 0.1 1.5 0.4 1.9m1.2-0.6c0-0.4-0.2-0.9 0.4-1.1 0 0.4 0.3 0.9-0.4 1.1m0.1 2.4 0.2 0.3c0 0.5 0.3 1-0.1 1.5-0.5-0.9-0.5-1.3-0.1-1.8m0.2 0.3zm0-0.1 0.1-1.5 0.1 0.1c0.3 0.5 0.3 1.1-0.2 1.4m0.2-4.9c0.5 0.1 0.4 0.5 0.4 0.9l-0.2 0.1c-0.3-0.3-0.2-0.7-0.2-1m-1.7-4.7 0.1-0.2 2.6 0.8c0 0.1 0 0.1-0.1 0.2l-2.6-0.8zm0.5 8.6c0-0.6-0.1-1.3-0.1-2h0.2c0 0.7 0.1 1.3 0.1 2h-0.2zm-0.4 3.8c-0.6-0.9 0.3-1.3 0.4-1.9 0.3 0.7-0.1 1.3-0.4 1.9m-0.3-1.7c-0.1 0.6-0.2 1.2-0.3 2-0.6-0.8 0-1.4 0.3-2m4-5.9c0.5-0.5 0.5-0.5 0.9 0.1l-0.9-0.1zm1.4 2.1v0.3l-1-0.1v-0.3l1 0.1zm-1.3-1.5-0.9 0.4-0.1-0.1c0.3-0.2 0.2-0.9 1-0.3m4.6 12.5 0.2-1.7h0.2c0.2 0.9-0.6 1.5-0.4 2.5l0.7-0.1c-0.2 1-1.8-0.1-0.7-0.7zm0.5-4.1h-0.2c0-0.5-0.1-0.9-0.1-1.5 0.7 0.5 0.2 1 0.3 1.5m-0.2 1.1-0.5 2.1c-0.5-0.6 0.3-1.5 0.4-2.2l0.1 0.1zm-1.2-7.7 0.1-0.3c0.9 0.3 1.6 0.7 1.4 1.8l-1.5-1.5zm-0.9-5.4c0.8-0.2 1 0.6 1.4 0.9l-0.4 0.7c-0.3-0.6-1-1-1-1.6m1.5-0.9-1.8-0.3v-0.2c0.6-0.1 1.2 0 1.8 0.3v0.2zm1.3 17.9 0.4-1c0.4 0.6 0 1.1-0.4 1m0.4-1.9 0.6-1.5c0.3 1 0.1 1.3-0.6 1.5m1.1 1.2 0.8-1.4c0.1 0.4-0.1 0.9-0.8 1.4m0.8-5.2h0.2v1.7h-0.2v-1.7zm-1.3 5.2c-0.3-0.6 0.6-0.8 0.5-1.5-0.1-0.4 0.4-0.9 0.6-1.5 0.2 1.1-0.2 2.2-1.1 3m0.2-9.7 0.9 2.2-0.2 0.1-0.9-2.2 0.2-0.1zm-1.1 7.5h-0.2l0.5-2.5h0.2c0.1 0.8-0.1 1.7-0.5 2.5m0.5-4.6-0.4-0.3c0.5 0.9 0.4 2.1-0.3 2.9v-2.1l-0.3 0.2v-0.6h0.3c-0.1-0.9-0.3-1.7-0.8-2.5l0.2-0.1c0.8 0.7 1.2 1.6 1.3 2.5m-51.2-11.9c1.5-3.1 4.4-4.1 7.4-5.6v0.3c2.2-2.5 7.8 0 9-2.8 1.5-5.3 3.5-11 8.8-13.8 1.8-1.6 4-2.6 6.4-2.8 1-0.5 1.7 0 2.5 0.5l0.1-0.1-0.7-0.4c0.4 0.1 0.9 0.1 1 0.7 1 1 2.5 1.8 3.2 3.2 2.7 3 6.1 5.8 6.8 10 1.1 2.3 6.5 0.9 8.9 1.9-0.1 0.7-0.3 1.4-0.4 2.1h0.2c0.2-0.8 0.1-2.4 1.4-1.8 2.5 1.1 6.9 2 7 5.3 0.5 4.1-10.4 5.5-12.5 3.3v0.5c-4.9-0.5-9.7-1.4-14.6-1.8-4.3-0.2-8.4 2.2-12.8 1.3-3-0.1-5.8 1.7-8.8 1.6-2.4 0-4.7 0-7.1-0.1-2.2-0.1-4.6 0.2-5.8-1.5"/>
		<path class="st0" d="m14.8 95.9c-1.9-9.2 1.2-15 6.8-22.7 1.5 2.2 2.6 4.9 5.3 6-4.1 4.8-3.9 10.8-2.9 16.6h1.3c-0.1-0.8-0.1-1.5-0.1-2.3-0.3-5.1-0.5-10.7 3.3-14.8 1-0.9 2.6-1.4 3.3-2.5-0.2-0.8 1-1.2 1.4-1.8 2.3-1.4-1.2-2.9 2-2.8 2.2 0.2 4.4 0.1 6.5 0.3 1.5 0.5 3.1 0.5 4.6 0.1 1.4 0.2 1-1 1.3-2-0.6-1.4-2.4-0.7-3.5-0.8 1-6 1.8-1.9 6-5.3-1.4 0.7-3 1.7-4.6 1.4 0-1.3 1.5-3.4-0.3-3.8-0.8 0.1-0.4-0.5-0.9-0.9 0.3 0.6 0.1 1-0.3 1.4-0.8 0.8-1.7 3.4-3.1 2.2-0.2-1.1-1.3-3 0.7-2.6 0.4 0 0.7 0 0.8-0.5 0.7-0.6 0.1-1.5-0.4-2.1-1.9-2 11.1-2.5 8.7 4 1.8-3.5-2.5-5.7-5.5-5.4-1.3 0.3-3.2-0.5-3.8 1.2-5.4-2.5-7 4.5-11 6.3-1.9-1.4-4.8-0.7-6.6 0.6-0.4 0.4-0.9 0.8-1.4 1.2-0.7 1.1-1.1 2.4-1.3 3.7 0.2 0.9 0 1.8-0.5 2.6-3 4.7-7.4 9.6-7.4 15.4-0.1 2.5 0.2 4.9 0.8 7.3h0.8m30-24.7c0.2-0.6 0.6-0.7 1.1-0.7 0.7 0.4-0.8 0.9-1.1 0.7m1.6-1.5c-0.7 0.4-1.2 0-1.8-0.2l1.8 0.2zm-1.8-5.1c-1.1-0.4-0.5-2.1 0.5-1.3l-0.5 1.3zm0.6-2.5v0.9c-0.4 0.2-1-0.2-1.2 0.4 0-0.7 0.4-1.1 1.2-1.3m-4.4 2.2 0.4 0.7c-1.1 1-3.2 2.6-3.9 0.4-1.3-2.4 0.4-3.9 2.8-3.7-0.1 0.9 0.2 1.8 0.7 2.6m0.9-4.7c-0.2 1.3-2 1-1.9-0.4 0.4-0.8 2 0 1.9 0.4m-2-0.9c-0.4 1.6 1.5 2.9 2.2 1.1 1.2 1.7-2.3 1.1-3.2 1.3-4.6 1.1-1.9 10.3 5.3 2.2-0.2 0.3-0.1 0.7 0.1 1 0.5 0.5 0.2 0.9 0 1.3-0.8 1.9-2.9 1.9-4.2 3 1.2 0 2.3-0.8 3.5-0.9-0.1 0.8-1.1 1.2-1.8 1.7 0.8 0.6 0.9-0.4 1.5-0.4v1.1c0.8-0.7 1.6-0.3 2.4 0-1.1 0.4-0.5 1.1-1.3 1.2-3.5-0.2-7.2-0.6-10.6 0.1l-3.1-5.9c3.9-0.7 4.6-7.2 9.2-6.8m-17 10.6c1.1-2 2.9-3.4 5-4.2 2.4 0.3 4.5 6 4.5 8.2-1.5 2.3-5.6 5.1-7.6 1.8-0.9-1.4-2.7-2.7-1.9-4.5l-0.4 0.3c-0.3-0.7 0.2-1.2 0.4-1.6"/>
		<path class="st1" d="m40.8 64.3c-1.3-4.4 0.1-1.5 1.5-3.1 0.3-0.3 0.4-0.8 0.2-1.2-3.3-3 4.2-2.2 5.7-1.6 5.3 1.8 1.4 7.8-2.9 7 0-1.3 1.5-3.4-0.3-3.8-0.8 0.1-0.4-0.5-0.9-0.9 0.3 0.6 0.1 1-0.3 1.4-0.8 0.8-1.6 3.4-3 2.2z"/>
		<path class="st2" d="m75.4 51.5c0 0.8-0.1 1.6-0.2 2.3 0.9 0.4 1.7 1.2 2.8 0.9v0.7c-0.8 9-3.9 19.3-14.8 20.9-3.7 0.4-10.1 2.5-11.6-2.2-0.2-1.8 1.4-3.6 0-5.2 8.5-1.8 7.5-16.4-1.9-14.9 0.5-1 1-1.9 0.3-3 1.2-0.5 3.9-0.3 3.8-2.1 0.1-1.5-1.1-4.2-2.9-2.9 1.6 0 2.1 0.8 2.5 2.3 0.5 1.8-1.8 1.6-3 2.2 0.9-2.3-3.3-2-1.9 0-6.1 0.1-5.8 1-4.6-4.6 2-8.5-2.7-8.9 5-9.6 10.3-2 21.4-3.9 18.8 10.8-0.4 1.4 1.2 1.3 2.1 1.3 1.6 0.2 0.8-1.8 1.1-2.8h0.2c0.4 5.4 3.5 3 1.6-0.8h0.7c-0.3-0.4-0.8-0.4-1.7 0 0.2 1.4 1.4 2.5 0.4 3.8-2.7-7 3.9-5.1 2.5 0.6 0.9 2.2-2.7 2.8-2.5 5-0.2 0.7 0.1 1.9-0.6 2.3-0.7-0.1-1.5 0.1-1.8-0.9-0.6 0.8 1 1.5 1.7 1.5 1.8-0.6 0.5-3.2 2-4.1 4.1-1.5 2.4-11.5-2.1-8.5-0.1-1.9 2.2-0.9 3.2-0.4 2.2 2.1 1.7 4.3 0.9 7.4m-13.3 10.2c-0.6 1.2-0.7 2.3-1.2 3.6 3-3.4 3.3-8.6-1.6-10.3 2.2 1.3 3.4 4 2.8 6.7m3.9-22c-4.6-3.2-12.2-4.7-16.7-0.7-0.6-0.4-1.7-0.7-2 0-0.3 1 1.7 1.3 2 2.3 0.7 1.8 2.2 3.1 4 3.6l0.1-0.2c-1.3-0.7-3.1-1.3-3.5-3 5.6 4 12.8 5.1 16.1-2m6.4 10.6 0.1 0.2c0.8-0.3 0.2-1-0.6-1l0.8 0.7-0.3 0.1"/>
		<path class="st3" d="m61.5 10.3-0.7-0.4c0.4 0.1 0.9 0.1 1 0.7 1 1 2.5 1.8 3.2 3.2 2.7 3 6.1 5.8 6.8 10 1.2 2.3 6.5 0.9 8.9 1.9l-0.4 2.1h0.2c0.2-0.8 0.1-2.4 1.4-1.8 2.5 1.1 6.9 2 7 5.3 0.5 4.1-10.4 5.5-12.5 3.3v0.5c-4.9-0.5-9.7-1.4-14.6-1.8-4.3-0.2-8.4 2.2-12.8 1.3-3-0.1-5.8 1.7-8.8 1.6-2.4 0-4.7 0-7.1-0.1-1.9-0.1-4.3 0.2-5.6-1.5 1.5-3.1 4.4-4.1 7.4-5.6v0.3c2.2-2.5 7.8 0 9-2.8 1.5-5.3 3.5-11 8.8-13.8 1.8-1.6 4-2.6 6.4-2.8 1-0.5 1.7 0 2.5 0.5l-0.1-0.1m10.3 16-0.4-1.6c-0.7 1 0.7 1.8 1.4 2.5 0-0.6-0.2-1.4 0.6-1.9-0.9 0-0.8 0.7-0.8 1.2l-0.8-0.2m-14.9-0.8c7.5 0.8 10-8.7 1.8-9.4-4.9-0.5-6.4 6.4-2.5 8.8 0.7 0.3 0.4 0.9 0.3 1.5h0.1l0.3-0.9m8.5 0.4c0-0.8 0.4-1.5 1.2-1.9-1.6-0.4-1.9-1-1.3-2.3-1.2 0.6-0.3 2 0.7 2.3-0.9 0.6-0.8 1.3-0.6 1.9m4.3-1.8-0.1-0.2c-0.9 0.2-1.5 1-1.4 2 0.1 0.3 0.2 0.5 0.4 0.8-0.1-2.1-0.1-2.2 1.1-2.6m-6.3 7.1c-0.8-0.8-2.4-0.7-2.5-1.9-0.3 0.8 1 1.8 2.5 1.9m1.2-11.4c-0.7-0.9-0.7-2.2 0.2-3-0.8 0.5-1.1 1.6-0.6 2.5 0.1 0.2 0.2 0.3 0.4 0.5m-16.2 0.1c-0.5-0.2 0-0.7-0.1-1.1-0.3 1.2-0.3 2.4-0.1 3.6 0-0.7 0.1-1.6 0.2-2.5m19.7 12 0.1-0.1-2.2-1.8c0.2 0.8 1.5 1.2 2.1 1.9m-1.9-5.2c-1.3 0-0.2 2.1-0.3 2.9h0.2c0-1-0.8-2 0.1-2.9m8.5 5.4 1.1 2.3c-0.2-0.8-0.1-1.7-1.1-2.3m12.1 1.5c-0.1-0.9-0.9-1.3-1.4-1.8l-0.1 0.1 1.5 1.7m-16.1-3.4c0.5-0.7-0.2-1.6 0.8-2.1-1.3-0.2-0.6 1.4-0.8 2.1m10.9 0.4c0.2-0.9 0.1-1.8 1-2.3-0.8 0-1.2 1-1 2.3m-18.8-4.4c-1.2-0.1-0.8 1.2-0.7 1.9h0.2c0-0.7-0.5-1.4 0.5-1.9m13.8 1.6c-0.3 0.5-0.1 1.1 0.4 1.3 0.2 0.1 0.4 0.1 0.6 0.1-0.6-0.3-0.7-0.6-1-1.4m6.1 3c-0.1 0.4 0.9 1 1.7 1l-1.7-1m-5.3-5c-0.9 0.1-1 0.4-0.8 1.7 0-0.7 0.3-1.4 0.8-1.7m-8-5.5-1-1.8c-0.1 0.7 0.3 1.4 1 1.8m10.4 8.1c-0.8-0.4-1 0.4-1.1 1l0.2 0.1c0.2-0.5 0.3-1 0.9-1.1m2.9 3.4-0.3 0.1 0.8 1.5 0.2-0.1-0.7-1.5m-24.6-3.7c-0.5-0.7-0.3-1.6 0.3-2.1-0.9 0.4-1 1.2-0.3 2.1m-7.3 0-0.2-2.1c-0.4 0.7-0.3 1.5 0.2 2.1m6.6 3.9c-0.5-0.5-1-0.9-1.7-1.1l-0.1 0.1 1.8 1zm-4.1-9.3c-0.4-0.6-0.4-1.4 0-2-0.8 0.6-0.8 1.2 0 2m24.9 9.2-0.3 0.1 0.5 1.5 0.2-0.1-0.4-1.5m-26.4-2.8-0.2-0.1c-0.2 0.7-0.1 1.7 1 1.6-0.8-0.3-1.1-0.5-0.8-1.5m32.9 2.2 0.9-1.9c-0.8 0.5-0.7 1.3-0.9 1.9m-36.4-6.2 0.2 0.1c-0.1-0.8 0.4-1.2 0.9-1.6h-0.7l-0.4 1.5m-1.7 8.3c-0.2-0.5-1-0.8-1.5-1.3 0.2 0.8 0.9 1 1.5 1.3m33.6-1.3c-0.5 0.6 0.3 0.9 0.5 1.4l0.1-0.1-0.6-1.3zm-5.5-2.9 1-1c-1 0.3-1 0.3-1 1m-8.8-10.1-0.2-0.1c-0.3 0.4-0.3 1 0.1 1.3 0.1 0.1 0.3 0.2 0.4 0.2-0.4-0.4-0.8-0.8-0.3-1.4m-18.5 8.2c0-0.5-0.1-1.1-0.1-1.6-0.4 0.4-0.4 1.1 0.1 1.6-0.1-0.1 0-0.1 0 0m6-3.1v-0.1c-0.4 0.3-1.5 0.3-1.5 0.9l1.5-0.8m19.8 5.9c-0.9-0.9-1-0.9-1.5-0.8l1.5 0.8m-17.3-1c-0.4 0.7 0.4 1.2 1.1 1.2-0.6-0.1-1.1-0.6-1.1-1.2m24 1.2-0.2 0.5 1.3 0.3v-0.1l-1.1-0.7m-37.5-1.5c-0.5 0.6-0.3 0.9 0.2 1.3l0.1-0.1c-0.4-0.8-0.4-0.8-0.3-1.2m18.9-3.1 0.7-1c-0.7 0.1-1 0.5-0.7 1m-13 4.8c-0.4-0.4-0.5-1-0.2-1.5-0.6 0.6-0.5 1 0.2 1.5m23.6 1.8 0.2-0.1-0.9-1.1-0.2 0.2 0.9 1"/>
		<path class="st2" d="m44 63.4c-0.2 0.3-0.2 0.8 0.1 1.1 0.5 0.5 0.2 0.9 0 1.3-0.8 1.9-2.9 1.9-4.2 3 1.2 0 2.3-0.8 3.5-0.9-0.1 0.8-1.1 1.2-1.8 1.7 0.8 0.6 0.9-0.4 1.5-0.4v1.1c0.8-0.7 1.6-0.3 2.4 0-1.1 0.4-0.5 1.1-1.3 1.2-3.5-0.2-7.2-0.6-10.6 0.1l-3.1-5.9c3.9-0.9 4.6-7.3 9.3-6.9-0.4 1.6 1.5 2.9 2.2 1.1 1.2 1.7-2.3 1.1-3.2 1.3-4.7 1.1-2 10.3 5.2 2.2z"/>
		<path class="st4" d="m22.8 70.6-0.4 0.3c-0.4-0.7 0.1-1.2 0.3-1.6 1.1-2 2.9-3.4 5-4.2 2.4 0.3 4.5 6 4.5 8.2-1.5 2.3-5.6 5.1-7.6 1.8-0.8-1.3-2.6-2.7-1.8-4.5m4.5 1.4c-2.3 0-1.5 4 0.2 4.1 2.8-0.5 2.1-3.8-0.2-4.1"/>
		<path class="st2" d="m58.1 77.8c12-2.6 6.6-2.8 7.9 6.9 0.1 0.5-0.1 0.6-0.5 0.7-3.8 0-7.2 2.5-6.5-3.3 0.3-1.7 0.8-3.4-0.9-4.3"/>
		<path class="st4" d="m58.4 82.2c0.1 1.5-0.6 4 1.5 4 2.4-0.5 8.5 1.3 6.7-3 1-0.1 1.8 0.7 1.9 1.7 0 0.4-0.1 0.8-0.3 1.1-0.7-0.6-1.3 0.2-1.2 0.9 0 1-0.8 1.5-1.2 0.4-1.2-0.3-1.3 2-2.6 1-0.5-0.2-0.6-1.2-1.2-0.9-0.3 0.1-0.5 0.4-0.6 0.6-0.1 0.5-0.5 0.8-1 0.8-1.1 0.1-0.9-1-0.9-1.8-0.6 0.1-1.6 0.3-2.1 0.1-0.6-0.5-0.6-1.4-0.1-2 0.1-0.1 0.2-0.2 0.4-0.3 0.3-0.1 0.4-0.4 0.3-0.6 0-0.1-0.1-0.2-0.2-0.2-1.1-0.3-0.1-1.7 0.6-1.8"/>
		<path class="st5" d="m49.3 54.4c4-1.1 7.3 2 7.4 6.1-4.4-4.9-8-3.1-7.4-6.1"/>
		<path class="st5" d="m56.9 61.8c0.5 6.4-11.2 8.3-7.4 4.8 3-0.3 6.3-1.7 7.4-4.8"/>
		<path class="st4" d="m78.7 46.6-0.3-0.3c0.5 0.9 0.4 2.1-0.3 2.9v-2.2l-0.3 0.2v-0.6h0.3c-0.1-0.9-0.3-1.7-0.8-2.5l0.2-0.1c0.7 0.7 1.1 1.6 1.2 2.6"/>
		<path class="st6" d="m39.8 59.2c0.3-0.9 2 0 1.9 0.4-0.2 1.4-2 1-1.9-0.4"/>
		<path class="st4" d="m79.1 53.3c-0.3-0.6 0.6-0.8 0.5-1.5-0.1-0.4 0.4-0.9 0.6-1.5 0.2 1.1-0.2 2.2-1.1 3"/>
		<path class="st4" d="m76.7 37.9-0.4 0.7c-0.3-0.6-1-1-1-1.6 0.8-0.2 1 0.5 1.4 0.9"/>
		<path class="st4" d="m76.3 42.1c0.9 0.3 1.6 0.6 1.4 1.8l-1.5-1.5 0.1-0.3"/>
		<path class="st6" d="m45.1 63.3-0.5 1.3c-1.1-0.4-0.5-2.1 0.5-1.3"/>
		<path class="st4" d="m75.5 45.5c-0.3-0.5-0.5-1.1-0.7-1.6 1.2 0.2 1 1.1 1.2 2l-0.5-0.4z"/>
		<path class="st4" d="m70.1 44.9c0 0.5 0.3 1-0.1 1.5-0.6-0.9-0.6-1.2-0.1-1.8l0.2 0.3z"/>
		<path class="st2" d="m44 63.4c0-0.6 0.4-1.1 1.2-1.3v0.9c-0.4 0.1-1.1-0.3-1.2 0.4"/>
		<path class="st4" d="m78.1 51.1 0.5-2.5h0.2c0 0.9-0.1 1.7-0.5 2.5h-0.2"/>
		<path class="st4" d="m68.3 43.5c0.3-0.6-0.7-2.5 0.1-2.5 0.3 0.6 0 1.2 0.2 1.8v-0.8h0.2l-0.2 1.4-0.3 0.1"/>
		<path class="st6" d="m44.8 71.2c0.2-0.6 0.6-0.7 1.1-0.7 0.7 0.4-0.8 0.9-1.1 0.7"/>
		<path class="st4" d="m68.7 47.6c-0.6-0.9 0.3-1.3 0.4-1.9 0.3 0.7-0.1 1.3-0.4 1.9"/>
		<path class="st4" d="m68.7 35 2.6 0.8-0.1 0.2-2.6-0.8 0.1-0.2"/>
		<path class="st4" d="m78.5 52.1 0.6-1.5c0.3 1 0.1 1.3-0.6 1.5"/>
		<path class="st4" d="m75.1 35.6c0.6-0.1 1.2 0 1.8 0.3v0.3l-1.9-0.4 0.1-0.2"/>
		<path class="st4" d="m77.1 53.1v0.8l0.7-0.1c-0.2 1-1.8-0.1-0.7-0.7z"/>
		<path class="st4" d="m80 45.8-0.9-2.2 0.2-0.1 0.9 2.2-0.2 0.1z"/>
		<path class="st4" d="m76.9 52.2c-0.5-0.6 0.3-1.5 0.4-2.2l0.2 0.1-0.6 2.1"/>
		<path class="st4" d="m68.1 47.8c-0.5-0.7 0-1.3 0.3-2l-0.3 2z"/>
		<path class="st4" d="m80.6 48.1v1.7h-0.2v-1.7h0.2"/>
		<path class="st4" d="m70.2 41c0 0.5 0.3 0.9-0.4 1.1 0-0.3-0.2-0.8 0.4-1.1"/>
		<path class="st4" d="m75.4 51.5 0.2-0.9c0.1 0.7 0 1.5-0.3 2.1 0.1-0.5 0.1-0.9 0.1-1.2"/>
		<path class="st4" d="m70.6 40.8c-0.4-0.2-0.3-0.5-0.2-0.9 0.5 0.1 0.4 0.5 0.4 0.9h-0.2"/>
		<path class="st4" d="m69.2 41.8c0 0.7 0.1 1.3 0.1 2h-0.2c0-0.7-0.1-1.3-0.1-2h0.2"/>
		<path class="st4" d="m70.1 44.9 0.1-1.5c0.5 0.3 0.3 1.2-0.1 1.5"/>
		<path class="st4" d="m77.1 53.1 0.2-1.7h0.2c0.2 0.7-0.2 1.2-0.4 1.7"/>
		<path class="st2" d="m44.6 69.5 1.8 0.2c-0.7 0.4-1.3 0-1.8-0.2"/>
		<path class="st4" d="m77.4 47.5c0.6 0.5 0.2 1 0.3 1.5h-0.2c-0.1-0.5-0.1-0.9-0.1-1.5"/>
		<path class="st4" d="m79.6 53.3 0.8-1.4c0.1 0.4-0.1 0.9-0.8 1.4"/>
		<path class="st4" d="m73.7 42.4-1-0.1v-0.3l1 0.1v0.3"/>
		<path class="st4" d="m78.1 54 0.4-1c0.4 0.6 0 1.1-0.4 1"/>
		<path class="st4" d="m73.3 40.1-0.9-0.1c0.5-0.6 0.5-0.6 0.9 0.1"/>
		<path class="st4" d="m72.5 40.6-0.9 0.4-0.1-0.1c0.3-0.2 0.2-0.9 1-0.3"/>
		<path class="st0" d="m66 39.7c-3.3 7.1-10.5 6.1-16 2.1 0.4 1.7 2.1 2.2 3.5 3l-0.1 0.2c-1.9-0.5-3.4-1.8-4-3.6-0.4-1.1-2.4-1.4-2.2-2.4 0.4-0.7 1.4-0.3 2 0 4.6-3.9 12.2-2.4 16.8 0.7m-11.6-1.1 0.7-1c-2 0.3-3.6 1.5-5.4 2.1 1.4 1.7 3.2 2.9 5.2 3.6l-0.6-0.9c1.2 1.3 3.2 1.4 4.5 0.3 0.2-0.1 0.3-0.3 0.4-0.4l0.1 0.1-1 1.2c7.1-1.2 10-4.6 0.9-5.7-1.8-0.3-3.6-0.9-4.8 0.7"/>
		<path class="st0" d="m62.1 60.9c0.5-2.6-0.9-4.5-2.9-5.9 4.9 1.8 4.6 6.9 1.6 10.3 0.5-1.5 1-2.9 1.3-4.4"/>
		<path class="st0" d="m72.4 50.4 0.3-0.2-0.8-0.7c0.7 0 1.3 0.7 0.6 1l-0.1-0.1"/>
		<path class="st0" d="m56.9 25.5-0.3 0.8h-0.1c0.1-0.6 0.4-1.2-0.3-1.5-3.9-2.3-2.5-9.3 2.5-8.8 8.2 0.8 5.7 10.3-1.8 9.5m1.7-5.2c-0.2 1 1.4 1.9 1.8 2.8 0.7 0.9 0.8 0.9 1.6 0.1 0.6-0.3 1-0.9 1.1-1.6l-4.5-1.3m0.4-0.6 0.1 0.3 4 0.9 0.2-0.2-1.3-2.8-3 1.8m1.7 4.5-2.3-2.5c-0.2 1-0.9 1.9-0.7 2.8l0.7-0.1-0.3 0.3c0.9 0.1 1.8 0 2.6-0.5m-1.6-7.6c-0.9 0-1.8 0.2-2.6 0.6 1.6 3.6 1.7 2.5 2.6-0.6m-1.7 3.5c-2.7-1-3.5-0.7-2.1 2.1 0.7-0.8 1.9-1 2.1-2.1m4.2-2.5v-0.3c-2.3-1.2-2.3-0.3-2.8 1.8l0.2 0.2 2.6-1.7m-6 5.3 1.3 1.2c0.5-1 0.8-2.2 0.7-3.3l-2 2.1m-0.8-3.9c0.8 0.3 0.8 0.1 1.3-0.4 0 0.9 0.2 1 0.9 0.7l-1-2-1.2 1.7"/>
		<path class="st0" d="m65.4 26c-0.1-0.7-0.3-1.4 0.6-1.8-1-0.3-2-1.7-0.7-2.3-0.6 1.2-0.3 1.9 1.3 2.3-0.8 0.2-1.3 1-1.2 1.8"/>
		<path class="st0" d="m69.7 24.1c-1.2 0.4-1.2 0.5-1.1 2.5-0.6-0.7-0.5-1.8 0.2-2.4 0.2-0.2 0.5-0.3 0.8-0.4l0.1 0.3"/>
		<path class="st0" d="m63.4 31.2c-1.5-0.1-2.8-1.1-2.5-1.9 0.1 1.2 1.7 1.1 2.5 1.9"/>
		<path class="st0" d="m64.6 19.8c-0.8-0.6-0.9-1.7-0.3-2.5 0.1-0.2 0.3-0.3 0.5-0.4-0.9 0.7-0.9 2-0.2 2.9"/>
		<path class="st0" d="m48.4 19.9-0.2 2.5c-0.2-1.2-0.2-2.4 0.1-3.6 0 0.4-0.4 0.9 0.1 1.1"/>
		<path class="st0" d="m71.8 26.3 0.7 0.3c0-0.5-0.1-1.2 0.8-1.2-0.8 0.5-0.5 1.3-0.6 1.9l-0.9-1z"/>
		<path class="st0" d="m68 31.9c-0.6-0.6-1.9-1-2.1-1.8l2.2 1.7-0.1 0.1"/>
		<path class="st0" d="m66.2 26.7c-0.8 0.9-0.1 1.9-0.1 2.8h-0.2c0.1-0.8-1-2.9 0.3-2.8"/>
		<path class="st0" d="m74.7 32.1c1 0.5 0.9 1.5 1.1 2.3l-1.1-2.3z"/>
		<path class="st0" d="m86.8 33.6-1.6-1.6 0.1-0.1c0.6 0.4 1.4 0.7 1.5 1.7"/>
		<path class="st0" d="m70.7 30.2c0.2-0.7-0.5-2.4 0.8-2.1-1 0.5-0.3 1.5-0.8 2.1"/>
		<path class="st0" d="m81.6 30.6c-0.2-1.3 0.2-2.3 1-2.3-0.9 0.5-0.7 1.4-1 2.3"/>
		<path class="st0" d="m62.8 26.2c-1 0.5-0.5 1.2-0.5 1.9h-0.2c-0.1-0.7-0.6-2 0.7-1.9"/>
		<path class="st0" d="m76.6 27.8c0.2 0.8 0.3 1.1 1 1.5-0.5 0.1-1-0.3-1.1-0.9 0-0.2 0-0.4 0.1-0.6"/>
		<path class="st0" d="m82.7 30.8 1.7 1c-0.8 0-1.8-0.6-1.7-1"/>
		<path class="st0" d="m77.4 25.8c-0.6 0.4-0.9 1-0.8 1.7-0.2-1.3-0.1-1.6 0.8-1.7"/>
		<path class="st0" d="m69.4 20.3c-0.7-0.3-1.1-1-1-1.8l1 1.8z"/>
		<path class="st0" d="m79.8 28.5c-0.6 0.1-0.8 0.6-0.9 1.1l-0.2-0.1c0.1-0.6 0.4-1.5 1.1-1"/>
		<path class="st0" d="m82.7 31.8 0.7 1.6-0.2 0.1-0.8-1.5 0.3-0.2"/>
		<path class="st0" d="m58.1 28.2c-0.7-0.9-0.6-1.8 0.3-2.1-0.6 0.5-0.8 1.4-0.3 2.1"/>
		<path class="st0" d="m50.8 28.1c-0.5-0.6-0.6-1.4-0.3-2.1l0.3 2.1z"/>
		<path class="st0" d="m57.4 32-1.8-1 0.1-0.2c0.6 0.3 1.2 0.7 1.7 1.2"/>
		<path class="st0" d="m53.3 22.7c-0.8-0.8-0.8-1.4 0-2-0.5 0.6-0.5 1.4 0 2"/>
		<path class="st0" d="m78.2 31.9 0.4 1.5-0.2 0.1-0.5-1.5 0.3-0.1"/>
		<path class="st0" d="m51.8 29.1c-0.2 1 0 1.2 0.8 1.5-1 0.2-1.2-0.8-1-1.6l0.2 0.1"/>
		<path class="st0" d="m84.7 31.3c0.2-0.6 0.1-1.4 0.9-1.9l-0.9 1.9z"/>
		<path class="st0" d="m48.3 25.1 0.4-1.5h0.7c-0.6 0.4-1 0.8-0.9 1.6l-0.2-0.1"/>
		<path class="st0" d="m46.6 33.4c-0.6-0.3-1.2-0.5-1.5-1.3 0.5 0.4 1.3 0.8 1.5 1.3"/>
		<path class="st0" d="m80.2 32.1 0.7 1.3-0.1 0.1c-0.2-0.5-1-0.9-0.6-1.4"/>
		<path class="st0" d="m74.7 29.2c-0.1-0.7-0.1-0.7 1-1l-1 1z"/>
		<path class="st0" d="m65.9 19.1c-0.4 0.6 0 1 0.4 1.4-0.5-0.1-0.9-0.6-0.8-1.1 0-0.2 0.1-0.3 0.2-0.4l0.2 0.1"/>
		<path class="st0" d="m47.4 27.3c-0.5-0.4-0.6-1-0.2-1.5 0 0 0-0.1 0.1-0.1 0 0.5 0 1 0.1 1.6"/>
		<path class="st0" d="m53.4 24.3-1.5 0.8c0-0.6 1.1-0.6 1.5-0.9v0.1"/>
		<path class="st0" d="m73.2 30.2-1.5-0.8c0.5-0.2 0.6-0.1 1.5 0.8"/>
		<path class="st0" d="m71.8 26.3c-0.5-0.3-0.7-1-0.4-1.5 0.2 0.5 0.3 1 0.4 1.5z"/>
		<path class="st0" d="m55.9 29.1c0 0.6 0.5 1.1 1.1 1.2-0.7 0-1.5-0.6-1.1-1.2"/>
		<path class="st0" d="m79.9 30.3 1.1 0.7v0.1l-1.3-0.3 0.2-0.5"/>
		<path class="st0" d="m42.4 28.8c-0.2 0.5-0.2 0.5 0.3 1.2l-0.1 0.1c-0.5-0.5-0.7-0.8-0.2-1.3"/>
		<path class="st0" d="m61.3 25.7c-0.3-0.5 0-0.9 0.7-1l-0.7 1z"/>
		<path class="st0" d="m48.3 30.5c-0.8-0.5-0.9-0.9-0.2-1.5-0.3 0.5-0.2 1.1 0.2 1.5"/>
		<path class="st0" d="m71.9 32.3-0.9-1 0.2-0.1 0.9 1.1h-0.2"/>
		<path class="st0" d="M27.4,72c2.2,0.4,2.9,3.6,0.2,4.1C25.9,76,25,72,27.4,72"/>
		<path class="st7" d="m54.4 38.6c1.2-1.6 3-1 4.7-0.8 9.1 1.1 6.1 4.6-0.9 5.7l1-1.2-0.1-0.1c-1.1 1.4-3.1 1.7-4.4 0.6-0.2-0.1-0.3-0.3-0.4-0.4-0.7-1.1-0.7-2.6 0.1-3.8m2.6 2c-0.6-3.2-2.7-0.3-0.9 1.5 2 0.6 3-1.7 0.9-1.5"/>
		<path class="st7" d="m54.4 38.6c-0.8 1-1.3 3.1-0.1 3.9l0.6 0.9c-2.1-0.7-3.9-1.9-5.2-3.6 1.8-0.6 3.4-1.8 5.4-2.1l-0.7 0.9"/>
		<path class="st1" d="m58.6 20.3 4.5 1.3c-0.1 0.7-0.5 1.2-1.1 1.6-0.8 0.8-0.8 0.8-1.6-0.1-0.4-0.9-2-1.8-1.8-2.8"/>
		<path class="st1" d="m59 19.7 3-1.9 1.3 2.9-0.2 0.3-4-0.9-0.1-0.4z"/>
		<path class="st1" d="m60.7 24.2c-0.8 0.5-1.7 0.6-2.6 0.5l0.3-0.3-0.7 0.1c-0.2-0.9 0.5-1.8 0.7-2.8l2.3 2.5"/>
		<path class="st1" d="m59.1 16.6c-0.9 3.1-0.9 4.2-2.6 0.6 0.8-0.4 1.7-0.6 2.6-0.6"/>
		<path class="st1" d="m57.4 20.1c-0.2 1-1.5 1.3-2.1 2.1-1.4-2.7-0.6-3 2.1-2.1"/>
		<path class="st1" d="m61.6 17.6-2.6 1.7-0.2-0.2c0.5-2 0.5-3 2.8-1.8v0.3"/>
		<path class="st1" d="m55.6 22.9 2-2.1c0.1 1.1-0.2 2.3-0.7 3.3l-1.3-1.2"/>
		<path class="st1" d="m54.8 19 1.2-1.7 1 2c-0.7 0.3-0.9 0.2-0.9-0.7-0.5 0.5-0.5 0.7-1.3 0.4"/>
		<path class="st0" d="m57 40.6c2.1-0.1 1.1 2.1-0.9 1.5-1.8-1.8 0.3-4.7 0.9-1.5"/>
		<path class="st0" d="m54.3 42.5c-1-0.7-0.7-2.3-0.2-3.3-0.1 1.1-0.7 2.4 0.2 3.3"/>
	</g>
</svg>
