<?xml version="1.0" encoding="UTF-8"?>
<svg width="89px" height="89px" enable-background="new 0 0 101.6 104.8" version="1.1" viewBox="8.83 10.95 85.86 86.45" xml:space="preserve" xmlns="http://www.w3.org/2000/svg">
<style type="text/css">
	.st0{fill:#8594C6;}
	.st1{fill:#5F6B8A;}
	.st2{fill:#FAC689;}
	.st3{fill:#1F8197;}
	.st4{fill:#3C342C;}
</style>
<path class="st0" d="m37.4 82.7v0.2c-0.1 0.1-0.1 0.2 0 0.2 0.1 0.4 0.1 0.8 0.1 1.2 0 1.4 0.6 2.1 1.9 2.5 0.5 0.2 0.6 0.9 0.3 1.4-0.2 0.3-0.7 0.6-0.7 1-0.1-0.1-0.3-0.1-0.2-0.3 0.2-0.5 0.1-1 0.1-1.5 0-0.3-0.3-0.4-0.5-0.4-0.7-0.3-1.3-0.7-1.7-1.4-0.3-0.5-0.3-1-0.3-1.5 0-1.7-0.1-3.4 0.1-5.1 0.1-1.1-0.2-2.2-0.6-3.2-0.6-1.4-0.4-2.8-0.3-4.2 0-0.4 0.2-0.6-0.5-0.6-2.4 0.2-4.3 1.2-6.1 2.6s-3.8 2.3-6.1 2.8c-1.9 0.4-3.7 0.8-5.6 0.7-1.7-0.1-3.4-0.2-4.9-1-1.3-0.7-2.7-1.3-3.4-2.7-0.3-0.6-0.2-1.1 0.2-1.5 0.6-0.5 1.2-0.8 2-0.9 2.3-0.2 4.2-1.4 5.7-3.1s2.2-3.8 3.1-5.8c0.8-1.9 0.9-4 1.5-5.9 0.3-1.1 0.4-2.2 0.6-3.3 0.3-1.1 0.8-2 1.4-2.9 1.1-1.5 2.6-1.7 4.3-1.8 2.5-0.2 4.7 0.5 6.7 1.8 1.1 0.7 2.1 1.5 2.8 2.7 0.5 0.9 1.3 1.8 1.5 2.9 0.1 0.6 0.2 1.2 0 1.8-0.3-0.4-0.2-1-0.8-1.3-0.1-0.4-0.3-0.8-0.4-1.3 0-0.1 0-0.1-0.1-0.2-0.4-0.7-0.8-1.3-1.4-1.8-1.1-1.2-2.4-2.1-3.9-2.6-0.5-0.3-1-1-1.5-1-0.8 0-1.6-0.3-2.4-0.3-0.4-0.1-0.7 0.2-1 0.3-0.5 0.1-0.8 0.4-1.2 0.6-1.3 0.5-1.8 1.6-2.1 2.8v0.1c-0.4 0.2-0.3 0.6-0.6 0.9-0.3 0.2-0.5 0.5-0.4 0.9 0 0.3-0.1 0.7-0.3 0.9-0.2 0.3-0.3 0.6-0.2 0.9 0 0.2-0.2 0.4-0.1 0.6-0.5 0.5-0.4 1.2-0.6 1.8-0.2 0.8-0.5 1.7-0.3 2.6v0.2c-0.4 1-0.9 2-1.2 3-0.1 0.2-0.1 0.5-0.2 0.7-0.3 0.1-0.3 0.3-0.3 0.6-0.1 0.6-0.2 1.2-0.5 1.8-0.7 0.5-1.4 1.1-2 1.8-0.9 1-1.8 1.9-3.3 2.1-1.1 0.2-2.2 0.6-3.2 0.9-0.1 0-0.2 0-0.2 0.1-0.1 0-0.2 0-0.3 0.1-0.3 0.5 0.2 0.4 0.4 0.6 0.1 0.4 0.4 0.6 0.7 0.7 0.8 0.1 1.5 0.6 2.2 1.1 0.1 0.1 0.3 0.2 0.5 0.1 0.5-0.1 1.1-0.1 1.5 0.1 1 0.5 2.1 0.3 3.1 0.4 1.1 0.2 2.2-0.2 3.3-0.3 1 0 1.9-0.2 2.8-0.5 0.7-0.2 1.1-0.8 1.8-1.1 0.9-0.5 1.9-1.1 2.6-1.9 0.5-0.6 1.2-1.3 2-1.6s1.7-0.4 2.4-0.8c0.9-0.6 1.7-0.6 2.5 0 0 0 0.1 0.1 0.2 0.1 0.3 0.2 0.6 0.3 0.9 0.5v3.2c0 1.2 0 2.4 0.3 3.4 0.5 1.6 0.2 3.1 0.3 4.7 0 0.1 0.1 0.2 0.1 0.2v0.9c-0.6 0.2-0.6 0.3-0.5 0.3z"/>
<path class="st1" d="m92.5 61.8-0.1 0.1c-0.4-0.1-0.6 0.3-0.8 0.5-0.9 0.9-2 1.6-3.1 2.2-0.6 0.3-1.3 0.2-1.8 0.7-0.3 0.3-0.7 0.5-1.1 0.6-1.9 0.5-3.9 0.5-5.8 0.5-0.9 0-1.8-0.2-2.7-0.1-1.4 0.2-2.9-0.2-4.3 0.3-0.8 0.3-1.6 0.1-2.3 0.5-1.4 0.7-2.9 0.8-4.2 1.7 0.1-0.5 0.8-0.8 0.8-1.4h0.1v-0.1c0-0.1 0-0.3 0.1-0.3 0.8-0.6 1.7-1 2.7-1.4 0.4-0.1 0.7-0.4 1.1-0.4 0.2 0 0.4 0.1 0.4-0.2 0-0.2 0-0.4-0.2-0.5-0.5-0.2-0.3-0.5-0.1-0.8 0.2-0.4 0.5-0.7 0.4-1.2 0-0.2 0.1-0.2 0.2-0.3 0.8-0.5 1.1-1.1 0.9-2.1 0-0.2 0-0.4 0.2-0.3 0.6 0.1 1.1-0.3 1.7-0.3h3.7c0.2 0 0.5 0 0.7 0.1-0.3 0.2-0.5 0.1-0.7 0.1h-3.8c-0.6 0-1.2 0.2-1.4 0.7s-0.2 1.1-0.5 1.6c0.3 0.1 0.7 0 1 0.3-0.4 0.2-0.9 0.3-1.2 0.4-0.6 0.1-0.8 0.6-0.9 1s0.1 0.9 0.5 1.3c0.3 0.2 1.2 0.1 1.1-0.2-0.1-0.5 0.3-0.9 0.2-1.5 0.5 0.7 0.9 0.2 1.3 0.2 1.3 0.1 2.5-0.1 3.8 0.2 1.1 0.3 2.3 0.3 3.5 0.4 0.8 0 1.6 0.3 2.4 0.1l2.1-0.6c0.9-0.2 1.8-0.5 2.7-1 0.2-0.1 0.4-0.1 0.3-0.4-0.1-0.2-0.3 0-0.5 0-0.9 0.4-1.9 0.7-2.9 1-0.2 0.1-0.5 0.2-0.6-0.2 0.3 0.1 0.5 0 0.7-0.1 1-0.5 2.1-0.7 3.1-1.2 0.7-0.3 1.4-0.3 1.9-1-0.9-0.1-1.7 0.7-2.8 0.3-1.2-0.4-2.5-0.4-3.8-0.7-0.3-0.1-0.6 0-0.5-0.4 0.1-0.3 0.4-0.1 0.6-0.1 1.6 0.6 3.2 0.6 4.9 0.6 0.3 0 0.6 0 0.8-0.1 0.4-0.3 0.9-0.2 1.4-0.2 0 0.2-0.4 0.2-0.2 0.5 0.1 0.1 0.2 0.1 0.2 0 0.5-0.4 1-0.7 1.5-1.1 0 0 0-0.1-0.1-0.1-0.3 0-0.5 0.1-0.8 0.1 0.2-0.4 0-0.4-0.3-0.3s-0.5 0.2-0.9 0.2h-3.2c-0.2 0-0.5 0-0.6-0.2-0.2-0.2-0.3-0.2-0.6-0.1-0.2 0.1-0.6 0.5-0.6-0.2-1-0.4-1.2-1.5-2-2.1-0.2-0.2-0.6-0.3-0.7-0.6-0.3-0.8-0.9-1.3-1.4-2 0.6-0.1 0.3-0.4 0.1-0.6l0.1-0.1c0.7 0.1 0.8 0.9 1.4 1.2 0.2 0.1 0.4 0.4 0.5 0.6l0.1 0.1c0.1 0.5 0.5 0.6 0.8 0.8h0.1c0 0.1 0.1 0.2 0.2 0.2 0.2 0.1 0.3 0.2 0.5 0.3 0 0.1 0.1 0.1 0.2 0.1s0.1 0.1 0.2 0.1c0.1 0.2 0.2 0.3 0.5 0.3 1 0.7 2.2 1.1 3.4 1.3 0.7 0.1 1.5-0.2 2.2-0.2s1.2-0.2 1.6-0.8c0.1 0.1 0.2 0.2 0.3 0.2 0 0.8-0.3 1.5-0.7 2.2-0.1 0.2-0.2 0.4-0.3 0.5-0.4 0.2-0.5 0.6-0.6 1l-0.1 0.1v0.3zm-4.6 1.9c-0.5-0.1-0.5-0.1-0.6 0-1.8 0.7-3.5 1.2-5.5 0.8-0.7-0.2-1.4 0.1-2.1-0.2-0.8-0.3-1.6-0.2-2.4-0.4-0.9-0.2-1.9 0-2.8-0.1-0.3 0-0.6 0.2-0.8 0.4-0.4 0.3-0.3 1 0 1 0.7 0 1.3 0.2 2 0.2 0.5 0 0.9 0.4 1.2 0.3 1.1-0.2 2.1 0.1 3.1 0.1 1.4 0 2.9 0.1 4.2-0.5 1.3-0.4 2.6-0.8 3.7-1.6zm1.8-1.7z"/>
<path class="st2" d="m35.1 32.6c0.1 0 0.1 0 0.2 0.1 0.3 0.2 0.8-0.2 0.9 0.3 0.1 0.3 0.1 0.7 0.1 1 0 1.7 0 3.5 0.1 5.2 0.1 1.5 0.6 2.8 1 4.2 0.3 1.2 0.8 2.2 1.3 3.3 1.1 2 2.6 3.4 4.7 4.1 0.4 0.1 0.5 0.3 0.5 0.7 0.1 2-0.1 4-0.1 6 0 0.7-0.5 0.9-1 1.1 0-0.2 0-0.4-0.1-0.7-0.1-1.9 0.4-3.8 0.3-5.7 0-0.9-0.1-1.1-1-1.4-1.6-0.4-3-1.2-4.2-2.4-1.1-1.1-1.7-2.3-2.1-3.8-0.8-2.8-0.8-5.7-0.7-8.6 0.1-1.1 0.2-2.3 0.1-3.4z"/>
<path class="st1" d="m64.7 55.7c-0.2-0.9 0.4-1.6 0.6-2.4 0.1-0.2 0.3-0.4 0.1-0.6-0.3 0.1-0.3 0.5-0.5 0.7-0.1 0.1-0.2 0.4-0.4 0.2-0.2-0.1 0-0.3 0.1-0.5 0.2-0.3 0.3-0.6 0.5-0.9s0.3-0.6-0.3-0.6c0.2-0.6 0.5-1 0.9-1.4s0.6-0.9 1.2-1c0 0.3-0.1 0.6-0.5 0.8-0.3 0.1-0.4 0.4-0.6 0.6-0.1 0.1-0.3 0.2-0.1 0.4 0.1 0.1 0.3 0.1 0.5-0.1 0.9-1 2.1-1.7 3.1-2.5l0.6-0.6c0.3-0.2 0.2-0.4-0.1-0.6 0.6-0.4 1.1-0.6 1.8-0.5h1.7c0.2 0.3 0.5 0.1 0.8 0.1h0.1c0.6 0.3 1.1 0.8 1.9 0.8 0.9 0.3 1.6 0.9 2.4 1.5 1.5 1.2 2.7 2.7 3.8 4.3-0.1 0-0.1 0.1-0.2 0.1-0.3 0-0.4-0.3-0.5-0.5-0.2-0.4-0.5-0.6-0.8-0.8-0.1 0-0.2-0.1-0.3 0s0 0.2 0 0.3c0.2 0.3 0.6 0.5 0.7 0.9-0.2 0-0.3 0-0.4-0.2-0.4-0.5-0.9-0.9-1.3-1.4-0.8-1-1.5-1.8-2.5-2.3-1.4-0.7-3-1-4.5-1.5-0.6-0.2-1.2-0.1-1.8 0.3-0.5 0.3-1 0.5-1.6 0.7-0.8 0.3-1.5 0.9-2.2 1.4-0.6 0.4-0.8 1.3-1.1 2-0.4 0.9-0.6 1.9-0.9 2.8 0 0.2 0 0.5-0.2 0.5z"/>
<path class="st0" d="m66.2 68.7c1.3-0.9 2.8-1 4.2-1.7 0.7-0.4 1.6-0.2 2.3-0.5 1.4-0.5 2.8-0.1 4.3-0.3 0.9-0.1 1.8 0.1 2.7 0.1 2 0 3.9 0 5.8-0.5 0.4-0.1 0.8-0.3 1.1-0.6 0.5-0.5 1.2-0.4 1.8-0.7 1.1-0.6 2.2-1.3 3.1-2.2 0.2-0.2 0.4-0.6 0.8-0.5 0 0.2-0.1 0.3-0.2 0.4-1 1.1-2.2 2.1-3.4 2.9-1.6 1-3.5 1.4-5.3 1.8-0.6 0.1-1.2 0.1-1.8 0.1h-7.6c-1.2 0-2.5 0.1-3.6 0.3-1.7 0.3-3 1.4-4.2 2.6-0.6 0.6-1 1.2-0.9 2.1 0 1-0.1 2-0.2 3 0 0.2 0 0.3-0.2 0.4v-0.2c0-1.6 0.1-3.2 0.1-4.8 0.2-0.1 0.6-0.2 0.5-0.6 0.1-0.3 0.5-0.5 0.5-0.9 0-0.1 0.1-0.1 0.1-0.2-0.1 0.2 0 0.1 0.1 0z"/>
<path class="st0" d="m73.2 46.6c-0.6 0-1.1 0.1-1.7 0-0.7-0.1-1.3 0.1-1.8 0.5-1.1 0.3-1.8 1-2.7 1.7-0.1 0-0.1 0-0.1 0.1l-0.1 0.1c-0.6 0.1-0.8 0.6-1.2 1s-0.7 0.9-0.9 1.4c-0.1 0.1-0.2 0.2-0.2 0.4-0.2 0-0.2 0.2-0.1 0.3-0.5 0.7-0.5 1.6-0.7 2.4-0.3 1.2 0.1 2.4 0 3.6-0.1 0.8-0.7 1.1-1.1 1.6-0.1 0.1-0.3 0-0.3-0.1-0.1-0.3-0.5-0.4-0.6-0.8 0.6-1 0.8-2.2 0.8-3.4 0.1-1.8 0.3-3.6 1.5-5.1 1.8-2.1 3.9-3.7 6.7-4.1 0.8-0.1 1.6-0.1 2.4 0 0 0.2 0.1 0.3 0.1 0.4z"/>
<path class="st1" d="m32 50.3c1.5 0.5 2.8 1.4 3.9 2.6-0.5 0.2-0.2 0.5 0 0.7 0.5 0.5 1 1.1 1.2 1.9 0.1 0.3 0.2 0.7 0.7 0.7 0.6 0.3 0.4 0.9 0.8 1.3 0 0.6 0.1 1.2 0.1 1.8-0.3 0.4-0.2 0.8-0.1 1.2-0.4-0.1-0.4-0.4-0.4-0.7 0-0.2 0-0.3-0.2-0.4s-0.3 0.1-0.4 0.2c-0.1 0.2 0 0.4-0.3 0.4v-1c0-0.5-0.2-0.8-0.8-0.7s-1.2-0.4-1.9-0.1c-0.1 0-0.2 0-0.3-0.1v-0.2c0.7 0.1 1.1-0.9 1.7-0.2 0.3 0.3 1.1 0.1 1-0.1-0.1-0.5 0-1-0.5-1.3-0.7-0.5-0.9-1.3-1.3-2 0.2 0 0.4 0 0.5-0.1s0-0.2-0.1-0.2c-0.4-0.1-0.7-0.5-1.2-0.3-0.2-0.2-0.2-0.4-0.4-0.6-0.9-0.6-1.8-1.3-2.7-1.8-0.6-0.3-1.2-0.5-2-0.6-0.7 0-1.4 0.2-2.1 0.3 0.1-0.6 0.4-0.9 0.9-0.9 0.6 0.1 1.3 0.4 1.9-0.1 0.2-0.1 0.5 0 0.7 0.1 0.2 0.2 0.4 0.4 0.6 0.5 0.2 0 0.5 0.1 0.7-0.3zm6 7c-0.3 0.4-0.6 0.8-0.5 1.4 0 0.1 0.1 0.2 0.2 0.2l0.1-0.1c0.1-0.5 0.5-1 0.2-1.5z"/>
<path class="st3" d="m56.7 89.9c0 0.8 0.1 1.5 0 2.3-0.1 1.2 0.1 2.3 0.7 3.2 0.5 0.8 1.2 1.5 2.4 1.5-0.2 0.2-0.4 0.2-0.8 0.2-0.8-0.1-1.2-0.1-1.8-0.6-0.5-0.5-1.2-1.3-1.6-2.9-0.1-0.9-0.2-2.3-0.1-3.3 0-0.6 0.1-1.2 0.6-1.7 0.2 0.5 0.1 1 0.6 1.3z"/>
<path class="st3" d="m38.9 89c-0.1 0.2 0.1 0.2 0.2 0.3-0.1 1.3-0.2 2.7 0 4v1c0 1 0.9 2.1 1.8 2.4 0.7 0.3 1.3-0.2 1.9-0.4 0.2-0.1 0.4-0.3 0.6-0.3 0 0.1 0.1 0.2 0.1 0.3l-0.3 0.3c-0.4 0.2-0.5 0.2-1.1 0.4-0.4 0.1-0.7 0.1-1.1 0.2-1.7 0.2-2.3-0.8-2.5-2.3 0-0.2 0-0.5-0.1-0.7 0.1-0.2 0-0.4 0-0.6 0.2-0.1 0.2-0.3 0-0.4 0-1.1-0.2-2.2 0.1-3.3-0.1-0.4 0-0.8 0.4-0.9z"/>
<path class="st0" d="m56.7 89.9c-0.5-0.2-0.4-0.8-0.5-1.2 0.1-1.9 0.1-1.8-1.7-1.9-2.8-0.1-5.7 0.3-8.5 0.5-0.5 0-1 0-1.5 0.1-0.3-0.4 0.3-0.3 0.3-0.4 0.2 0 0.4 0 0.6-0.1h1.3c0.4 0.2 0.8 0.1 1.1 0 0.4-0.3 0.8-0.1 1.3-0.1h3c0.4 0 0.8 0.1 1.1-0.1h0.1c0.3 0.2 0.6 0 0.9 0 1-0.1 2-0.2 3-0.2 0.3 0 0.4 0.1 0.4 0.4 0.1 0.8 0.1 1.4-0.5 2-0.3 0.1-0.2 0.6-0.4 1z"/>
<path class="st2" d="m66.6 44.9c0-1 0.2-1.9 0.5-2.8 0.2-0.7 0.2-1.5 0.4-2.2 0.3-1.1 0.4-2.2 0.7-3.3 0.2-0.8 0.3-1.6 0.2-2.4 0-0.2 0-0.5 0.3-0.6 0.1 2.8 0.1 5.5-0.6 8.2-0.3 1-0.7 2-1.2 2.9 0 0.1-0.1 0.2-0.3 0.2z"/>
<path class="st2" d="m59.6 57.7c-0.4-0.2-0.4-0.6-0.3-0.9 0.2-1 0.1-2 0-3-0.1-0.9-0.1-1.9-0.2-2.8 0-0.3 0.1-0.4 0.4-0.4 1.3-0.1 2.5-0.6 3.6-1.3 0.5-0.3 0.9-0.7 1.4-0.9-0.1 0.7-0.7 1-1.1 1.3-0.8 0.6-1.6 1.1-2.6 1.4-1.1 0.3-1.5 1-1.3 2 0.2 1.6 0.2 3.1 0.1 4.6z"/>
<path class="st0" d="m93.9 57.7c-0.4 0.6-0.9 0.8-1.6 0.8s-1.5 0.3-2.2 0.2c-1.2-0.2-2.4-0.6-3.4-1.3h0.4c1.8 0.6 3.6 0.4 5.3-0.2 0.9-0.3 1.3-0.1 1.5 0.5z"/>
<path class="st3" d="m64.7 75.4v0.2c-0.3 0.5-0.1 1.2-0.3 1.7-0.2 0.1-0.2 0.2 0 0.3 0 1.4-0.1 2.7-0.1 4.1-0.2 0.2-0.1 0.4 0 0.6v0.3c-0.1 0.2-0.1 0.4-0.1 0.6 0 0.8 0 1.7-0.4 2.5-0.1 0-0.2 0.1-0.3 0.1-0.1-0.8 0.2-1.5 0.4-2.2 0.1-0.3 0.1-0.6 0-1-0.2-1.1 0.1-2.2 0.1-3.3 0-0.5 0.1-1 0-1.4-0.1-0.8 0.5-1.5 0.5-2.3 0-0.1 0.1-0.1 0.2-0.2z"/>
<path class="st0" d="m42.7 58c0 0.2 0 0.4 0.1 0.7-1.2 0.6-2.1 1.6-2.9 2.7-0.4 0.1-0.5-0.3-0.8-0.4v-0.2s0.1 0 0.1-0.1c0.3 0 0.4-0.2 0.5-0.3 0.9-1 1.8-1.9 3-2.4z"/>
<path class="st1" d="m61.1 89.5c-0.1 0-0.2-0.1-0.3-0.1 0.5-0.9 0.4-1.8 0.4-2.8l0.1-0.1h0.3c0 0.6 0 1.2 0.1 1.7-0.7 0.1-0.4 0.6-0.4 0.9 0 0.2-0.1 0.3-0.2 0.4z"/>
<path class="st0" d="m92.8 61.6c0-0.4 0.1-0.8 0.6-1 0.1-0.1 0.2-0.3 0.3-0.5 0.3-0.7 0.6-1.4 0.7-2.2 0.4 0 0.3 0.3 0.2 0.5-0.5 1.1-0.8 2.3-1.8 3.2z"/>
<path class="st0" d="m38.6 60.4c-0.1-0.4-0.2-0.8 0.1-1.2 0.4 0.4 0.4 1 0.5 1.5 0 0-0.1 0-0.1 0.1-0.2-0.2-0.4-0.2-0.5-0.4z"/>
<path class="st0" d="m63.8 85.6c0.4-0.8 0.4-1.6 0.4-2.5 0-0.2-0.1-0.4 0.1-0.6 0.1 0.8 0 1.7 0 2.5-0.1 0.4-0.1 0.7-0.5 0.6z"/>
<path class="st0" d="m76 47.5c-0.8 0.1-1.3-0.4-1.9-0.8 0.7 0.1 1.4 0.3 1.9 0.8z"/>
<path class="st3" d="m62.6 90.6c-0.4-0.5-0.5-1.2-0.6-1.8 0.5 0.1 0.4 0.6 0.5 0.9 0.2 0.2 0.2 0.5 0.1 0.9z"/>
<path class="st1" d="m61.2 96.1c0 0.1 0.1 0.2 0.2 0.3-0.3 0.3-0.6 0.5-1 0.6 0-0.1 0.1-0.2 0.1-0.2 0.2-0.4 0.4-0.6 0.7-0.7z"/>
<path class="st0" d="m85.1 56.4c-0.3-0.2-0.7-0.4-0.8-0.8 0.4 0.2 0.8 0.3 0.8 0.8z"/>
<path class="st2" d="m38.3 93.2c0.2 0.1 0.2 0.2 0 0.4-0.1-0.2-0.1-0.3 0-0.4z"/>
<path class="st0" d="m74 46.8c-0.3 0-0.6 0.1-0.8-0.1 0.3 0 0.6-0.2 0.8 0.1z"/>
<path class="st0" d="m64.3 82.3c-0.1-0.2-0.1-0.4 0-0.6v0.6z"/>
<path class="st0" d="m86.7 57.3c-0.2 0.1-0.4 0-0.5-0.3 0.3 0.1 0.5 0.1 0.5 0.3z"/>
<path class="st1" d="m82.1 53.3c0.1 0.1 0.2 0.2 0.2 0.3l-0.1 0.1c-0.1 0-0.2-0.1-0.3-0.3 0.1 0 0.2-0.1 0.2-0.1z"/>
<path class="st0" d="m64.4 77.6c-0.1-0.1-0.1-0.2 0-0.3v0.3z"/>
<path class="st0" d="m85.4 56.6c-0.1 0-0.2-0.1-0.2-0.2 0.2-0.1 0.2 0.1 0.2 0.2z"/>
<path class="st0" d="m92.5 61.8c0-0.1 0.1-0.2 0.2-0.1-0.1 0-0.2 0-0.2 0.1z"/>
<path class="st0" d="m86.1 57c-0.1 0-0.2 0-0.2-0.1 0.1-0.1 0.1 0 0.2 0.1z"/>
<path class="st2" d="m38.3 94.1z"/>
<path class="st0" d="m84.3 55.6-0.1-0.1s0.1 0 0.1 0.1z"/>
<path class="st2" d="m67.1 39.3c0 0.2-0.1 0.3-0.1 0.5-0.2 0.1-0.1 0.3-0.1 0.5-0.4 1.4-0.8 2.8-1.1 4.2-0.4 1.8-1.2 3.4-3 4.1-0.9 0.2-1.7 0.7-2.6 1-0.7 0.4-1.4 0.3-2.2 0.4-1.6 0.2-3.3 0.3-4.9 0.3-1.9 0-3.9 0.2-5.8 0-1.4-0.2-2.8-0.3-4.2-0.7-2-0.6-3.5-2-4.4-3.9-1-2-1.6-4.2-1.9-6.5-0.3-2.2-0.2-4.5-0.1-6.8 0-0.6 0.3-1.2 0.2-1.8-0.2-1.1-0.2-2.2-0.1-3.2 0.1-0.5 0.1-1 0.3-1.5 0.2-0.4 0.6-0.6 1.1-0.7 0.8-0.2 1.5-0.2 2.3-0.1 1.4 0.2 2.7 0.2 4.1-0.1 1-0.2 2.1-0.3 3.1-0.6 1.2-0.4 2-1.2 2.8-2 0.8-0.9 1.5-1.8 2.2-2.7 0.3-0.4 0.5-0.3 0.7 0 0.7 1.4 1.8 2.4 3.1 3.2 0.9 0.6 1.9 1.2 2.9 1.7 1.2 0.6 2.4 1.3 3.5 1.9 0.9 0.5 1.8 0.8 2.8 1 0.7 0.2 1 0.6 1.1 1.3s0.1 1.4 0 2.1c-0.1 0.9 0 1.8 0.7 2.5 0.2 0.2 0.2 0.5 0.2 0.8 0 1.1-0.3 2.1-0.5 3.1-0.1 0.5-0.1 0.9-0.1 1.4-0.1 0.2 0 0.4 0 0.6zm-9.8-9.4c0.1 0 0.2 0.1 0.2 0.1 0.6 1 1.7 1.1 2.6 0.2 0.2-0.1 0.4-0.2 0.3-0.4l0.1-0.1c0.3-0.4 0.4-0.8-0.1-1.2 0-0.9-0.5-1.4-1.1-1.7 0.2-0.4 0.5-0.2 0.8-0.1 0.2 0.5 0.7 0.6 1 0.9 0.5 0.4 0.9 0.8 1.1 1.4 0.4-0.4 0.4-0.4 0.1-0.8-0.5-0.5-1-1-1.5-1.4-0.2-0.2-0.4-0.3-0.7-0.2 0-0.2-0.1-0.3-0.3-0.3-0.9-0.1-1.7 0.3-2.5 0.7-0.7 0-1.3 0.3-1.8 0.7-0.4 0.3-0.6 0.6-0.1 1 0.3 0.3 0.7 0.6 1.1 0.8 0.2 0.5 0.6 0.3 0.8 0.4zm-16.4-2.4c-0.6 0.3-0.6 0.9-0.6 1.5-0.9-0.5-1-0.7-0.4-1.3 0.4-0.3 0.8-0.5 1.2-1-0.7 0.1-1.2 0.2-1.5 0.8-0.2 0.2-0.8 0.4-0.5 0.8 0.4 0.6 0.8 1.3 1.6 1.4 0.2 0.3 0.5 0.5 0.9 0.5 0.6 0.3 1.1-0.1 1.7-0.2 0.9-0.1 1.7-0.7 2.3-1.4 0.2-0.2 0.2-0.4 0-0.7-0.5-0.4-1-0.7-1.6-0.9-0.3-0.1-0.6-0.3-0.9-0.3-0.6 0-1.3-0.4-1.7 0.4-0.2 0.2-0.4 0.3-0.5 0.4zm5.1 8.2c-0.1-0.5 0.1-1 0-1.5-0.1-0.2-0.1-0.5-0.4-0.5s-0.3 0.3-0.3 0.5c0 0.9 0 1.7 0.1 2.6 0.1 1.1 0.7 1.9 1.8 2.3 0.8 0.3 1.6 0.4 2.4 0.6 1.5 0.3 3.1 0.4 4.6 0.1 0.6-0.1 1.2-0.3 1.5-1 0.5-1.1 0.8-2.3 0.8-3.6 0-0.2 0-0.6-0.3-0.5-0.2 0-0.6 0.2-0.5 0.5 0.1 0.4 0 0.8-0.1 1.3-0.5 2.1-1.2 2.8-3.3 2.7-0.6 0-1.2-0.1-1.8-0.3-1-0.2-2.1-0.1-3.2-0.5-0.9-0.3-1.3-0.8-1.4-1.7 0.1-0.2 0.1-0.6 0.1-1zm3.9 11.9c0.7-0.1 1.4-0.2 2.1-0.5 0.4-0.2 0.8-0.5 0.9-0.9 0-0.4-0.4-0.7-0.9-0.8-0.3-0.1-0.7-0.3-1-0.4-1.2-0.3-2.3-0.3-3.3 0.5-0.3 0.3-0.5 0.6-0.2 1 0.6 1 1.6 0.8 2.4 1.1z"/>
<path class="st0" d="m64.7 55.7c0.3 0 0.2-0.2 0.3-0.4 0.3-0.9 0.5-1.9 0.9-2.8 0.3-0.7 0.6-1.6 1.1-2 0.7-0.5 1.3-1.1 2.2-1.4 0.5-0.2 1.1-0.4 1.6-0.7 0.5-0.4 1.1-0.5 1.8-0.3 1.5 0.5 3.1 0.8 4.5 1.5 1 0.5 1.7 1.3 2.4 2.1 0.4 0.5 0.9 0.9 1.3 1.4 0.1 0.1 0.2 0.2 0.4 0.2 0.3 0.4 0.6 0.8 1 1.1 0.5 0.7 1.1 1.2 1.4 2 0.1 0.2 0.4 0.4 0.7 0.6 0.8 0.6 1 1.7 2 2.1 0 0.7 0.4 0.3 0.6 0.2s0.4-0.1 0.6 0.1c0.1 0.2 0.4 0.2 0.6 0.2h3.2c0.3 0 0.6-0.1 0.9-0.2s0.5 0 0.3 0.3l-0.6 0.6c-0.5 0-1-0.1-1.4 0.2-0.2 0.2-0.5 0.1-0.8 0.1-1.7 0.1-3.3 0-4.9-0.6-0.2-0.1-0.5-0.2-0.6 0.1s0.3 0.3 0.5 0.4c1.3 0.3 2.6 0.3 3.8 0.7 1.1 0.4 1.8-0.4 2.8-0.3-0.5 0.6-1.3 0.7-1.9 1-1 0.4-2.1 0.7-3.1 1.2-0.2 0.1-0.5 0.2-0.7 0.1h0.1c0.1 0.4 0.3 0.2 0.6 0.2 1-0.2 2-0.5 2.9-1 0.2-0.1 0.4-0.2 0.5 0s-0.2 0.3-0.3 0.4c-0.8 0.5-1.8 0.8-2.7 1l-2.1 0.6c-0.8 0.2-1.6 0-2.4-0.1-1.2-0.1-2.3-0.1-3.5-0.4-1.3-0.3-2.5-0.1-3.8-0.2-0.4 0-0.8 0.4-1.3-0.2 0.1 0.7-0.3 1-0.2 1.5 0.1 0.3-0.9 0.5-1.1 0.2-0.4-0.3-0.6-0.8-0.5-1.3 0.1-0.4 0.3-0.9 0.9-1 0.4-0.1 0.8-0.2 1.2-0.4-0.3-0.3-0.6-0.2-1-0.3 0.3-0.5 0.3-1.1 0.5-1.6s0.8-0.7 1.4-0.7h3.8c0.2 0 0.5 0.1 0.7-0.1-0.3-0.2-0.5-0.1-0.7-0.1h-3.7c-0.6 0-1.1 0.4-1.7 0.3-0.2 0-0.2 0.2-0.2 0.3 0.2 0.9-0.1 1.6-0.9 2.1-0.1 0.1-0.2 0.2-0.2 0.3 0 0.5-0.2 0.8-0.4 1.2-0.2 0.3-0.4 0.6 0.1 0.8 0.1 0.1 0.2 0.3 0.2 0.5s-0.3 0.2-0.4 0.2c-0.4 0-0.8 0.2-1.1 0.4-0.9 0.4-1.8 0.8-2.7 1.4-0.5-0.2-0.6-0.1-0.6 0v0.1c-0.2 0-0.3 0.1-0.4 0.2-0.5-0.6 0-0.8 0.4-1 0.1-0.1 0.3-0.2 0.2-0.3-0.1-0.2-0.3 0-0.4 0-0.7 0.4-0.8 0.7-0.6 1.5 0 0 0 0.1 0.1 0.1-0.4 0.5-0.9 0.9-1.2 1.6h-0.4c0.2-0.9-0.4-1.8-0.3-2.8 0.7-0.1 1.9-1 2.1-1.7 0.1-0.2 0-0.3-0.2-0.4-0.2 0-0.4 0.1-0.3 0.3 0.1 0.5-0.3 0.7-0.5 0.9-0.3 0.3-0.7 0.5-1 0.7-0.4-0.6-0.5-1.3-0.5-2 0-0.3-0.2-0.6-0.2-0.9s0-0.5 0.2-0.7c0.8-0.6 1.2-1.3 0.9-2.3-0.1-0.2 0.1-0.3 0.2-0.4 0.3-0.4 0.6-0.8 0.6-1.3 0-0.1 0-0.2-0.1-0.3-0.1 0-0.2 0-0.2 0.1-0.1 0.1-0.3 0.3-0.3 0.4 0 0.5-0.2 0.8-0.6 1.1-0.3 0.2-0.3 0.5-0.1 0.8 0.3 0.4-0.5 1.7-1 1.8-0.1 0-0.2-0.1-0.3-0.2-0.2-0.3-0.1-0.7-0.4-1.1-0.2-0.2 0-0.3 0.1-0.4 0.4-0.4 0.8-0.8 1.2-1.3 0.6-0.4 0.9-1.9 0.4-2.4h-0.2c-0.2-0.5 0-1-0.1-1.5 0.4 0 0.5-0.1 0.6-0.1-0.1 0-0.1 0 0 0zm17.2 3c0 0.1 0.1 0.1 0.2 0.1 0-0.1-0.1-0.1-0.2-0.1 0-0.2-0.1-0.3-0.3-0.4l-1.8-1.2c-0.4-0.3-0.8-0.8-1.4-1 0.1 0.4 0.3 0.5 0.4 0.6 0.6 0.5 1.3 1 1.9 1.4 0.4 0.2 0.7 0.6 1.2 0.6zm-14.1-1.3c0.2 0 0.3-0.2 0.4-0.3 0.4-0.4 0.3-0.8 0.4-1.3 0.2-0.8 0.9-1.1 1.4-1.7 0.1-0.1 0.5-0.1 0.4-0.4-0.2-0.3-0.5 0-0.7 0.1-0.2 0.2-0.4 0.4-0.6 0.7-0.1 0.1-0.2 0.3-0.4 0.3-0.3 0-0.3 0.2-0.3 0.4 0 0.3 0 0.5-0.3 0.6-0.1 0-0.2 0.2-0.1 0.2 0.3 0.5-0.2 0.9-0.2 1.4-0.2 0-0.5-0.1-0.5 0.3 0 0.1 0.1 0.2 0.2 0.2 0.3-0.1 0.3-0.3 0.3-0.5zm-0.8-4c0.5-0.8 1.4-0.9 1.9-1.4 0.5-0.6 1-0.6 1.6-0.6h0.3c0.1 0 0.3 0 0.3-0.2s-0.2-0.1-0.3-0.1c-0.5 0-1 0-1.4-0.2-0.3-0.1-0.5-0.1-0.5 0.3 0 0.7-0.5 1.1-1.2 1.2-0.9 0-0.9 0-0.7 1zm-0.2 0.3c-0.3 0.2-0.5 0.3-0.7 0.5-0.1 0.1-0.2 0.2-0.1 0.3 0.4 0.5 0.3 0.9-0.2 1.3-0.1 0.1-0.2 0.2-0.1 0.3s0.2 0 0.3 0c0.3-0.2 0.7-0.3 0.5-0.8s0.2-1 0.3-1.6zm1.7 10.6c1.5-0.3 1.4-1.2 1.7-2.5-0.4 0-0.6 0.2-0.5 0.6 0.1 0.6-0.1 1.2-0.8 1.3-0.4 0.1-0.3 0.3-0.4 0.6zm-2.8-1.4 0.3-0.3c0.4-0.2 0.3-0.8 0.7-1 0.2-0.1 0.3-0.2 0.2-0.4s-0.2-0.2-0.3-0.1-0.5-0.1-0.5 0.3c0.1 0.5-0.1 0.7-0.5 0.9-0.1 0.1-0.1 0.2-0.1 0.3 0.1 0.2 0.2 0.3 0.2 0.3zm4.2-12.3c0.4 0.2 0.6-0.1 0.8-0.2 0.3-0.3 0.4-0.8 0.9-0.9 0.1 0 0.1-0.2 0-0.2-0.3-0.1-0.6-0.2-0.7 0.2-0.2 0.3-0.5 0.7-1 1.1zm5.4 6.1v-0.2c-0.8 0-1.7-0.1-2.5 0.2h2.5zm1.4 5.4v-0.1h-2.4v0.1h2.4zm-10.5-4.5c-0.1-0.2-0.2-0.3-0.3-0.2-0.2 0.1-0.3 0.2-0.3 0.4 0 0.1 0.1 0.3 0.2 0.2 0.2 0 0.2-0.3 0.4-0.4zm7.8-3.7c-0.4-0.1-0.7-0.2-1.2 0.1 0.5 0 0.9 0 1.2-0.1zm7.1 9.2c0.6 0.2 1.1 0.1 1.5 0.1-0.4-0.2-0.8-0.4-1.5-0.1zm-13.2 2.1c0-0.2-0.1-0.2-0.3-0.2s-0.3 0.1-0.4 0.3c0 0.1 0 0.2 0.2 0.2 0.3 0 0.4-0.1 0.5-0.3zm0.4-3.3c0.2 0 0.3-0.1 0.3-0.3 0-0.1-0.1-0.2-0.2-0.1-0.2 0-0.3 0.1-0.3 0.3 0 0.1 0.1 0.1 0.2 0.1zm4.7 1.2c0.1 0 0.1 0 0 0 0.1 0.1 0.1 0 0.1 0s0-0.1-0.1 0c0.1-0.1 0-0.1 0 0z"/>
<path class="st2" d="m45.5 61c-0.8-0.4-0.8-1.2-0.9-2-0.2-2.1-0.1-4.3 0.1-6.4v-1.2c0-0.4 0.3-0.7 0.7-0.6 1.4 0.4 2.8 0.2 4.3 0.2 2-0.1 4-0.1 6-0.3 0.9-0.1 1.7 0.2 2.6 0h0.4c0.4 1.8 0.1 3.7 0.2 5.6 0 0.3-0.2 0.6-0.3 1-0.1 0.8 0.1 1.7-0.1 2.5-0.2 1.1-0.1 1.8-1.6 2-0.1-0.1-0.2-0.1-0.2 0.1-0.8 0-1.6 0.1-2.4 0.1-0.8 0.1-1.6-0.1-2.5-0.1-1.7 0-3.4 0-5-0.4h-0.5c-0.3-0.4-0.6-0.3-0.8-0.5z"/>
<polygon class="st3" points="50.9 71.8 50.9 71.8"/>
<path class="st1" d="m35.8 69.6c-0.1 0-0.1 0-0.2-0.1-0.8-0.6-1.7-0.5-2.5 0-0.7 0.5-1.6 0.5-2.4 0.8-0.9 0.3-1.5 1-2 1.6-0.7 0.9-1.7 1.4-2.6 1.9-0.6 0.3-1.1 0.9-1.8 1.1-0.9 0.3-1.8 0.5-2.8 0.5-1.1 0-2.2 0.4-3.3 0.3-1-0.1-2.1 0-3.1-0.4-0.4-0.2-1-0.2-1.5-0.1-0.2 0-0.3 0-0.5-0.1-0.7-0.5-1.3-0.9-2.2-1.1-0.3-0.1-0.6-0.3-0.7-0.7 0.4 0 0.8 0.1 1.2 0.1 0.3 0.3 0.7 0.4 1.1 0.5 0.8 0.3 1.7 0.2 2.6 0.4 1.2 0.3 2.5 0.5 3.7 0.4 1.4-0.1 2.7-0.3 4-0.5 0 0.2-0.1 0.5 0.2 0.5 0.1 0 0.2-0.1 0.2-0.2 0.1-0.3-0.2-0.3-0.4-0.3 0.8-0.8 1.7-1.4 2.8-1.8 0 0.3 0.2 0.5 0.4 0.3 0.5-0.3 0.9-0.7 1.4-1.1 0.1-0.1 0-0.2 0-0.3 0.8-1 1.9-1.5 3-2.1 0.8-0.5 1.7-0.8 2.5-1.3 0.3-0.2 0.3-0.3 0-0.5-0.7-0.5-1.1-1.3-2-1.6-0.2-0.1-0.4-0.3-0.4-0.4-0.2-0.5-0.5-0.2-0.5 0 0 0.5-0.5 0.9 0 1.4 0.2 0.2 0.2 0.4-0.1 0.5-0.6 0.2-1 0.7-1.4 1.1-0.9 1.1-1.7 2.3-2.9 3.2-1.4 1.1-3 1.6-4.6 1.9-0.8 0.1-1.5 0.2-2.3 0.2-0.6 0-1.2 0.2-1.8-0.1 0.1-0.1 0-0.3 0-0.4 0.5-0.5 1.5-0.6 2.1-0.3-0.1 0.1-0.2 0.1-0.3 0.1-0.2 0-0.4 0-0.4 0.2s0.3 0.2 0.5 0.2c0.3-0.1 0.6-0.2 0.9-0.2 1.1 0.1 2.1-0.2 3.2-0.5 1.8-0.5 3-1.6 4.2-2.9 0.8-0.9 1.3-2 2.4-2.7 0.4-0.2 0-0.5-0.1-0.8s-0.3-0.2-0.5-0.1c-0.7 0.3-1.3 0.7-1.8 1.4-0.4 0.5-0.8 1-1.3 1.5-1.5 1.3-3.2 2.2-4.9 3.1-0.2 0.1-0.4 0.2-0.5 0s0.2-0.3 0.3-0.4c2.4-1.1 4.7-2.4 6.4-4.5 0.8-1.1 2.3-1.4 3.1-2.5 0-0.1 0.2-0.1 0.3-0.1 0.1 0.2 0.2 0.3 0.4 0.2 0.4 1.1 0.9 1.2 1.7 0.5 0.1-0.1 0.2-0.2 0.4-0.2 1.4-0.8 2.8-1.1 4.4-1.1v0.4c-0.3 0-0.6 0-0.8 0.2-0.1 0.2-0.4 0.2-0.5 0-0.3-0.4-0.7-0.3-1 0-0.4 0.4-0.8 0.4-1.3 0.5-0.3 0.1-0.6 0.2-0.9 0.4-0.5 0.3-0.5 0.8-0.2 1.2 0.1 0.2 0.3 0.3 0.4 0.5 0.3 0.3 0.5 0.4 0.6-0.1s0.4-0.7 0.9-0.7c0.4 0 0.9 0.1 1.2 0 0.6-0.3 1.3-0.2 1.9-0.2 0 0.3 0 0.6-0.4 0.7-0.3-0.4-0.8-0.5-1.1-0.2-0.5 0.5-1 0.3-1.5 0.2s-1 0.2-1 0.6c0 0.5 0.5 0.4 0.9 0.4 0.5 0 1 0 1.3 0.5 0.1 0.3 0.2 0.8-0.1 1.1zm-11.3 4.8c0.3-0.4 0.6-0.7 0.9-1.1 0.1-0.2-0.1-0.2-0.2-0.2-0.5 0.1-0.7 0.6-1 0.9-0.2 0.2 0 0.3 0.3 0.4zm10.7-6h-1.2c-0.2 0-0.3 0.1-0.3 0.3 0 0.1 0.1 0.2 0.2 0.2 0.4-0.2 0.9 0 1.3-0.5z"/>
<path class="st0" d="m37.5 64c-1.6 0-3.1 0.3-4.4 1.1-0.1 0.1-0.3 0.2-0.4 0.2-0.8 0.7-1.3 0.6-1.7-0.5l0.3-0.6c0.6-0.3 1.1-0.9 1.9-0.5 0.1 0.1 0.2-0.1 0.2-0.2 0.4-0.8 0.8-1 1.6-0.8 0.2 0.1 0.4 0.1 0.5-0.2 0.3-0.5 0.8-0.4 1.2-0.3 0.4 0 0.2 0.5 0.2 0.7s0 0.4 0.3 0.4 0.2-0.2 0.2-0.4c0-0.4 0.1-0.7 0.5-0.7 0.5 0 1 0.1 1.3 0.6-0.4 1.1-0.7 2.2-1.3 3.2-0.6 0-1.3-0.1-1.9 0.2-0.3 0.2-0.8 0-1.2 0-0.5 0-0.8 0.2-0.9 0.7s-0.3 0.4-0.6 0.1c-0.1-0.2-0.3-0.3-0.4-0.5-0.3-0.4-0.3-0.9 0.2-1.2 0.3-0.2 0.5-0.3 0.9-0.4 0.5-0.1 0.9-0.2 1.3-0.5 0.3-0.3 0.7-0.4 1 0 0.2 0.2 0.4 0.2 0.5 0 0.2-0.3 0.5-0.2 0.8-0.2 0.2 0.1 0.4 0.4 0.7 0.2 0 0 0.1-0.2 0-0.2-0.3-0.1-0.5-0.3-0.8-0.2zm-1.1 1.1c-0.1 0.4 0.2 0.5 0.6 0.7-0.2-0.4-0.4-0.6-0.6-0.7z"/>
<path class="st2" d="m47.4 79.2c-0.6-0.4-1.4-0.6-1.9-1.2-0.2-0.2-0.3-0.4-0.3-0.7v-2.1c0-0.4-0.3-0.6-0.2-0.9 0.1-0.9 0.9-1.2 1.5-1.6 0.5-0.3 0.9-0.1 1.3 0.1 0.3 0.1 0.3 0.4 0.1 0.5-0.3 0.4-0.6 0.8-1.2 0.9-0.1 0-0.3 0-0.3 0.2s0.1 0.3 0.3 0.3c0.3 0 0.5-0.1 0.7-0.2 0.6-0.2 1.3-0.3 1.8 0.1 0.4 0.3 0.4 0.7-0.1 0.9-0.6 0.3-1.3 0.2-2 0.2-0.1 0-0.3 0-0.4 0.1 0 0.3 0.3 0.2 0.4 0.2h1.7c0.5 0 0.7 0.2 0.7 0.6s-0.4 0.5-0.7 0.5c-0.7 0-1.4 0-2.1 0.1-0.1 0-0.1 0.1 0 0.2 0.6 0.3 1.2 0.1 1.8 0.2 0.3 0.1 0.7 0 0.8 0.4s0.1 0.9-0.4 1.1c-0.1 0.1-0.3 0.2-0.4 0.2 0-0.1-0.5-0.1-1.1-0.1z"/>
<path class="st3" d="m44.3 91.4c0 1.1-0.3 2.2-0.5 3.3-0.2 0.9-0.8 1.4-1.7 1.6-0.8 0.1-1.5 0-2-0.8-0.1-0.1-0.2-0.2-0.1-0.3 0.3-0.6-0.1-1.1-0.1-1.6 0-0.3 0-0.6 0.2-0.8s0.1-0.5 0.1-0.8c0-0.2-0.1-0.4 0-0.6 0.1-0.7 0.2-0.8 0.8-0.4 0.5 0.3 1 0.4 1.6 0.4 0.5 0 0.9 0 1.2-0.4 0.1-0.1 0.3-0.2 0.5-0.2 0.1 0.2 0 0.4 0 0.6z"/>
<path class="st0" d="m44.1 61.5c0.3 0.5 0.9 0.6 1.5 0.8h0.1c0.1 0.2 0.2 0.2 0.4 0.3 1.4 0.5 2.9 0.5 4.4 0.6 0 0.4 0.1 0.8 0 1.1-0.2 0.6-0.7 0.9-1.3 0.9-0.6 0.1-1.2-0.1-1.8 0.2-1.1 0-2.2-0.3-3.2-0.8-0.6-0.3-1.1-0.7-1-1.5s-0.2-1.6 0.2-2.3c0.2 0.2 0.3 0.6 0.7 0.7z"/>
<path class="st3" d="m61.2 96.1c-0.3 0.2-0.5 0.4-0.7 0.6-0.5-0.3-1.1 0-1.6-0.5-0.2-0.3-0.4-0.5-0.4-0.8 0-0.8-0.1-1.5 0.1-2.3 0.1-0.3 0.1-0.6-0.1-0.9-0.1-0.1-0.5 0-0.4-0.3 0.1-0.2 0.3 0 0.5-0.1 0.6-0.2 1.3-0.1 1.8-0.3 0.4-0.1 0.9-0.4 1.1-0.9 0.1-0.1 0.1-0.3 0.3-0.3s0.1 0.2 0.2 0.4c0.3 1.3 0.3 2.6 0 3.9-0.2 0.4-0.4 1-0.8 1.5z"/>
<path class="st1" d="m39.1 62.9c-0.3-0.5-0.8-0.6-1.3-0.6-0.4 0-0.5 0.3-0.5 0.7 0 0.2 0.1 0.4-0.2 0.4s-0.3-0.2-0.3-0.4 0.2-0.6-0.2-0.7c-0.4 0-0.9-0.2-1.2 0.3-0.1 0.3-0.3 0.2-0.5 0.2-0.8-0.2-1.2 0-1.6 0.8-0.1 0.1-0.1 0.2-0.2 0.2-0.8-0.5-1.3 0.2-1.9 0.5l-0.2-0.2c0.1-0.4 0.5-0.6 0.8-0.6 0.6 0 1-0.3 1.4-0.5 0.8-0.5 1.6-0.7 2.4-1 0.5-0.2 1.1-0.4 1.7 0 0.1 0.1 0.3 0.1 0.4 0s0.1-0.2 0-0.3c-0.1-0.3-0.4-0.7-0.4-1.1 0.4 0.3 0.8 0.8 0.8 1.3 0 0.4 0.4 0.3 0.6 0.4 0.2 0 0.3-0.1 0.2-0.2-0.3-0.4 0-0.7 0.1-1.1 0.3 0.1 0.4 0.5 0.8 0.4-0.1 0.5-0.3 1.1-0.7 1.5z"/>
<path class="st0" d="m61.2 86.7c0 0.9 0 1.9-0.4 2.8-0.4 0.3-0.9 0.4-1.4 0.3 0.2-0.9-0.2-1.8 0.3-2.7 0-0.1 0-0.2-0.1-0.3 0.5-0.2 1.1-0.1 1.6-0.1z"/>
<path class="st1" d="m43.3 89.5c-0.4 0.2-0.9 0.6-1.4 0.2-0.5-0.5-1.3-0.8-1.2-1.7v-0.6h2c0.2 0.2 0.2 0.4 0.2 0.7 0.1 0.5 0 1 0.4 1.4z"/>
<path class="st0" d="m36.1 68.4c-0.3-0.5-0.8-0.5-1.3-0.5-0.4 0-0.9 0-0.9-0.4s0.5-0.7 1-0.6 1 0.3 1.5-0.2c0.2-0.3 0.8-0.1 1.1 0.2 0.2 0.7-0.3 1.1-0.5 1.6-0.4 0.2-0.6-0.1-0.9-0.1z"/>
<path class="st1" d="m59.6 86.8c0 0.1 0.1 0.2 0.1 0.3-0.4 0.9 0 1.8-0.3 2.7-1-0.2-1.1-1.2-1-2.1 0.1-0.3 0.1-0.8 0.4-1 0.3 0 0.5 0.2 0.8 0.1z"/>
<path class="st0" d="m43.3 89.5c-0.4-0.4-0.3-0.9-0.4-1.4 0-0.2 0-0.5-0.2-0.7 0-0.1 0-0.3 0.1-0.4 1.5 0 1.6 0.1 1.2 1.6-0.1 0.4-0.4 0.7-0.7 0.9z"/>
<path class="st2" d="m50.5 63.3c-1.5-0.1-2.9 0-4.4-0.6-0.2-0.1-0.3-0.1-0.4-0.3 0.2 0 0.3-0.1 0.5-0.1 0 0.1 0.1 0.1 0.1 0 0.1 0 0.3 0 0.4 0.1 0.1 0.2 0.2 0.2 0.3 0.1 1.1 0.2 2.2 0.1 3.3 0 0.3 0.2 0.1 0.5 0.2 0.8z"/>
<path class="st0" d="m40.5 89.5c0.1 0 0.1 0 0.2 0.1h0.1c0.4 0.8 1.9 0.8 2.6 0.4 0.2-0.1 0.4-0.4 0.6-0.1 0.2 0.2-0.1 0.5-0.3 0.6-0.5 0.3-1 0.7-1.7 0.4-0.1-0.1-0.3-0.1-0.5-0.1-0.8-0.1-1.3-0.4-1.5-1.2 0.2-0.2 0.4 0 0.5-0.1z"/>
<path class="st1" d="m63.5 62.4c0.1 0.1 0.2 0.2 0.3 0.2 0.5 0 1.3-1.3 1-1.8-0.2-0.3-0.2-0.5 0.1-0.8s0.6-0.6 0.6-1.1c0-0.1 0.2-0.3 0.3-0.4 0-0.1 0.2-0.1 0.2-0.1 0.1 0 0.1 0.2 0.1 0.3-0.1 0.5-0.3 1-0.6 1.3-0.1 0.1-0.3 0.3-0.2 0.4 0.3 1-0.2 1.7-0.9 2.3-0.2 0.2-0.3 0.4-0.2 0.7-0.6-0.2-0.6-0.6-0.7-1z"/>
<path class="st2" d="m54.9 62.8c-1 0.4-1.9 0.6-3 0.5-0.2-0.9-0.2-0.9 0.7-0.9 0.8 0.1 1.6-0.1 2.3 0.4z"/>
<path class="st2" d="m44.1 61.5c-0.4-0.2-0.6-0.6-0.9-0.8 0-0.6-0.1-1.2 0.3-1.7h0.2c0.1 0.3 0.1 0.6 0.2 0.8-0.1 0.1-0.1 0.1 0 0.2 0 0.2 0.1 0.3 0.1 0.5-0.1 0.1-0.1 0.1 0 0.2 0 0.3 0.2 0.5 0.1 0.8z"/>
<path class="st3" d="m36.1 68.4c0.3 0 0.5 0.4 0.8 0.1 0.1 0.6-0.2 1.1-0.3 1.7-0.3-0.1-0.6-0.3-0.9-0.5 0.4-0.4 0.3-0.9 0.4-1.3z"/>
<path class="st1" d="m64.6 57.3c0.1 0 0.2-0.1 0.2 0 0.5 0.5 0.2 2-0.4 2.4 0-0.3 0.1-0.6-0.1-0.9-0.2-0.6 0.2-1 0.3-1.5z"/>
<path class="st1" d="m64.6 66.4c0.3-0.2 0.7-0.4 1-0.7 0.3-0.2 0.6-0.5 0.5-0.9 0-0.2 0.1-0.3 0.3-0.3s0.3 0.2 0.2 0.4c-0.2 0.7-1.3 1.6-2.1 1.7 0.1-0.1 0.1-0.1 0.1-0.2z"/>
<path class="st0" d="m60.1 58.5c0.7 0.3 1.2 0.7 1.2 1.5 0 0.1 0 0.2-0.1 0.3s-0.2-0.1-0.3-0.1c-0.4-0.5-0.5-1.2-0.8-1.7z"/>
<path class="st3" d="m61.1 89.5c0.1-0.1 0.1-0.2 0.2-0.3 0.5 0 0.3 0.3 0.2 0.5-0.2 0.7-1 1.2-1.8 1 0.2-0.1 0.3-0.2 0.5-0.4 0.5-0.1 0.8-0.4 0.9-0.8z"/>
<path class="st0" d="m60.3 90.3c-0.2 0.1-0.3 0.2-0.5 0.4-0.6 0.2-1-0.1-1.4-0.4-0.2-0.1-0.1-0.3-0.2-0.5 0.1-0.1 0.3-0.1 0.4 0 0.5 0.5 1.1 0.5 1.7 0.5z"/>
<path class="st3" d="m42.8 87.1c-0.1 0.1-0.1 0.2-0.1 0.4h-2c0-0.4 0.2-0.3 0.5-0.3 0.5-0.1 1-0.1 1.6-0.1z"/>
<path class="st0" d="m60.1 59.9c-0.1-0.2-0.2-0.4-0.3-0.7 0-0.3 0-0.5-0.3-0.5s-0.2 0.3-0.2 0.5c0 0.4 0 0.7-0.2 1.1-0.1 0.3-0.4 0.5-0.3 0.9-0.5 1-1.4 1.5-2.5 1.6h-1.5c-1 0.4-1.9 0.6-3 0.5-0.1 0.9 0.3 1.4 1.1 1.7 0.5 0 1 0.1 1.5 0.1h1.6c0.7 0.1 1.4-0.1 2.1-0.4 0.9-0.5 1.5-1.1 1.7-2.1 0-0.1 0.1-0.2 0.2-0.3v-0.7c0.7-0.4 0.7-1.1 0.1-1.7z"/>
<path class="st3" d="m59.6 86.8c-0.3 0.1-0.5-0.1-0.7-0.1 0-0.1 0.1-0.1 0.1-0.2 0.8-0.1 1.6-0.3 2.4 0l-0.1 0.1c-0.6 0.1-1.2 0-1.7 0.2z"/>
<path class="st1" d="m53.2 86.6c-0.4 0.2-0.7 0.1-1.1 0.1h-3c1-0.2 2 0 3-0.1h1.1z"/>
<path class="st1" d="m40.5 89.5c-0.2 0-0.3-0.1-0.5 0-0.2-0.1-0.2-0.2-0.2-0.4-0.1-0.2 0-0.4 0.2-0.5s0.3 0.2 0.3 0.3c0.2 0.2 0.3 0.4 0.2 0.6z"/>
<path class="st3" d="m64.8 69.3h0.4c0.1 0.2-0.1 0.4 0.1 0.6 0.2 0.5-0.2 0.5-0.5 0.6 0.2-0.3 0-0.7 0-1.2z"/>
<path class="st0" d="m47.3 65.4c0.6-0.2 1.2-0.1 1.8-0.2-0.5 0.5-1.1 0.4-1.8 0.2z"/>
<path class="st1" d="m45.5 61c0.2 0.2 0.6 0.1 0.7 0.5-0.1 0.1-0.3 0-0.4 0-0.2 0-0.3 0.4-0.5 0.1-0.1-0.4 0.2-0.4 0.2-0.6z"/>
<path class="st2" d="m55.8 76.4c-0.2-0.8-0.1-1.7-0.1-2.5 0-0.3-0.1-0.3-0.3-0.3-0.8-0.1-1.6-0.2-2.1-0.8-0.1-0.1-0.3-0.1-0.4-0.1-0.3-0.4-0.7-0.3-1-0.1s-0.1 0.5 0.1 0.7c0.1 0.2 0.4 0.4 0.6 0.5 0.1 0 0.2 0.1 0.2 0.3-0.1 0.1-0.2 0.1-0.3 0.1h-0.9c-0.6 0-0.7 0.5-0.8 0.9-0.1 0.5 0.3 0.4 0.6 0.6 0.5 0.3 1.1 0.2 1.7 0.3-0.4 0.5-0.8 0.4-1.2 0.3-0.3-0.1-0.5-0.1-0.8-0.1-0.2 0-0.4 0.1-0.5 0.3s0 0.4 0.2 0.5c0.3 0.4 0.8 0.5 1.3 0.5 0.3 0 0.6-0.1 0.9 0 0 0.4-0.3 0.3-0.5 0.4-0.3-0.3-0.6-0.1-0.9-0.1h-0.4c-0.3 0.1-0.7 0.2-0.6 0.7 0 0.5 0.4 0.5 0.7 0.5h0.5c1.2 0.1 2.4-0.1 3.4-1 0.4-0.3 0.7-0.8 0.6-1.6z"/>
<path class="st1" d="m67.1 39.3c-0.1-0.2-0.1-0.4 0.1-0.6 0.1 0.2 0.1 0.4-0.1 0.6z"/>
<path class="st1" d="m66.9 40.2c0-0.2-0.1-0.4 0.1-0.5 0.2 0.2 0.3 0.4-0.1 0.5z"/>
<path class="st3" d="m47.8 86.8c-0.4 0.2-0.7 0.2-1.1 0 0.4 0.1 0.7 0 1.1 0z"/>
<path class="st1" d="m58.6 50.7h-0.4c0.1-0.2 0.3-0.2 0.4 0z"/>
<path class="st1" d="m47.1 62.4c-0.1 0.1-0.2 0.1-0.3-0.1 0.1-0.1 0.2-0.1 0.3 0.1z"/>
<path class="st1" d="m43.7 59h-0.2c0-0.2 0.1-0.2 0.2-0.2 0.2 0.1 0.1 0.2 0 0.2z"/>
<path class="st1" d="m43.9 60c-0.1 0-0.1-0.1 0-0.2 0.1 0.1 0.1 0.1 0 0.2z"/>
<path class="st1" d="m64.3 52.2c0-0.1 0-0.2 0.1-0.3 0.2 0.2 0.1 0.3-0.1 0.3z"/>
<path class="st1" d="m56.6 61.8c0-0.1 0.1-0.1 0.2-0.1-0.1 0.1-0.1 0.2-0.2 0.1z"/>
<path class="st1" d="m44 60.7c-0.1 0-0.1-0.1 0-0.2 0.1 0.1 0.1 0.1 0 0.2z"/>
<path class="st3" d="m45.4 86.8c-0.2 0.2-0.4 0.2-0.7 0.1 0.2-0.1 0.4-0.1 0.7-0.1z"/>
<path class="st1" d="m46.4 62.3c0 0.1-0.1 0.1-0.1 0h0.1z"/>
<path class="st1" d="m47.2 77.5c-0.1-0.1-0.1-0.1 0-0.2 0.1 0.1 0 0.1 0 0.2z"/>
<path class="st1" d="m50.4 62.5v-0.1 0.1z"/>
<path class="st1" d="m40.8 89.6c-0.1 0-0.1 0 0 0-0.1-0.1 0 0 0 0z"/>
<path class="st3" d="m37.4 83.1c-0.1-0.1-0.1-0.1 0-0.2v0.2z"/>
<path class="st3" d="m37.4 82.7c-0.1-0.1-0.1-0.2 0-0.2v0.2z"/>
<path class="st3" d="m37.4 81.6c0-0.1-0.1-0.2-0.1-0.2 0.1 0 0.2 0.1 0.1 0.2z"/>
<polygon class="st1" points="45.7 62.4 45.6 62.4 45.6 62.3 45.6 62.3"/>
<path class="st1" d="m64.6 55.7v0.2s0-0.1-0.1-0.1c0-0.1 0-0.1 0.1-0.1z"/>
<path class="st1" d="m10.4 72.7c1.1-0.3 2.1-0.8 3.2-0.9 1.4-0.2 2.4-1.1 3.3-2.1 0.6-0.7 1.3-1.3 2-1.8 0 0.3-0.2 0.6-0.4 0.8 0 0.1-0.2 0.2-0.1 0.3s0.2 0.1 0.3 0 0.2-0.1 0.2-0.2c-0.1 0.6-0.5 1.3-1 1.5-0.5 0.3-0.9 0.6-1.3 1-0.4 0.3-0.8 0.5-1.3 0.7s-1 0.3-1.5 0.6c-0.2 0.1-0.1 0.2-0.2 0.3-0.9 0.2-2.1 0.3-3.2-0.2z"/>
<path class="st4" d="m32 50.3c-0.2 0.4-0.5 0.3-0.7 0.1-0.2-0.1-0.4-0.3-0.6-0.5s-0.5-0.3-0.7-0.1c-0.6 0.5-1.2 0.2-1.9 0.1-0.5-0.1-0.8 0.3-0.9 0.9-0.4 0.2-0.9 0.3-1 0.8h-0.2c-0.6 0.2-0.9 0.6-1.1 1.1-0.2 0.6-0.6 1.1-1.1 1.4 0.1-0.5 0-0.9-0.1-1.3v-0.1c0.7-0.3 1-1 1.3-1.6 0.2-0.4 0.8-0.7 0.8-1.3 0.4-0.2 0.8-0.5 1.2-0.6 0.5 0.4 0.7 0.1 1-0.3 0.8 0 1.6 0.3 2.4 0.3 0.6 0.1 1.1 0.7 1.6 1.1z"/>
<path class="st1" d="m23.7 52.8c0.1 0.4 0.2 0.8 0.1 1.3 0.5-0.4 0.9-0.8 1.1-1.4s0.5-0.9 1.1-1.1c0 0.1 0.1 0.1 0.1 0.2 0-0.1 0-0.1 0.1-0.2 0.2 0.1 0.5-0.2 0.7-0.1-0.2 0.3-0.4 0.4-0.6 0.5-1 0.6-1.6 1.5-1.9 2.5-0.2 0.7-0.7 1.1-1.1 1.7-0.4 0.2-0.9-0.3-1.2 0.3-0.1-0.3 0-0.6 0.2-0.9 0.2-0.2 0.3-0.6 0.3-0.9 0-0.4 0.1-0.7 0.4-0.9 0.4-0.3 0.3-0.8 0.7-1z"/>
<path class="st4" d="m10.4 72.7c1.1 0.5 2.3 0.4 3.4 0.1 0.6 0.1 1.2 0.7 1.9 0.4 0.1 0 0.1 0 0.2-0.1h1c0 0.1 0.1 0.3 0 0.4h-2.3c-0.2-0.1-0.4-0.1-0.7 0-0.8-0.2-1.6-0.2-2.4-0.2-0.4 0-0.8-0.1-1.2-0.1-0.2-0.1-0.7-0.1-0.4-0.6 0.1 0 0.2 0 0.3-0.1 0.1 0.2 0.2 0.2 0.2 0.2z"/>
<path class="st1" d="m19.5 66.1c0-0.3 0-0.5 0.3-0.6 0.1 0.3 0.2 0.3 0.5 0.2 0.1 0.1 0.1 0.4 0.2 0.3 0.2-0.2 0.6 0 0.8-0.3 0.5-0.9 1.1-1.8 1.4-2.8 0-0.1 0.1-0.2 0.2-0.2s0.2 0.2 0.1 0.3l-0.3 0.6c-0.6 1.5-1.6 2.8-2.8 3.8-0.1-0.3-0.4-0.6-0.1-1 0.3 0 0.1-0.3-0.3-0.3z"/>
<path class="st1" d="m21.3 61.5c-0.3-0.9 0.1-1.7 0.3-2.6 0.2-0.6 0.1-1.3 0.6-1.8 0.2 0.4 0 0.9-0.1 1.3-0.3 0.9-0.2 1 0.7 1-0.2 0.8-0.8 1.4-0.8 2.3 0 0.1-0.1 0.2-0.2 0.2-0.1-0.2 0-0.7-0.5-0.4z"/>
<path class="st4" d="m22.7 59.4c-0.9 0-0.9-0.2-0.7-1 0.1-0.4 0.3-0.8 0.1-1.3-0.1-0.2 0.1-0.4 0.1-0.6 0.3-0.6 0.8-0.1 1.2-0.3v0.3c-0.3 0.1-0.4 0.2-0.2 0.5 0 0.2 0 0.4-0.1 0.5-0.2 0-0.5-0.3-0.5 0.1s-0.1 0.8 0.2 1.2v0.5l-0.1 0.1z"/>
<path class="st1" d="m20 64.8c0.3-1 0.8-2 1.2-3 0.1 0.2 0 0.4 0 0.7-0.1 0.2-0.2 0.5 0.1 0.7 0.3 0.8-0.5 1.5-0.2 2.2 0 0-0.1 0-0.1 0.1-0.1-0.2 0-0.7-0.5-0.5-0.1-0.3-0.3-0.3-0.5-0.2z"/>
<path class="st4" d="m37.8 56.1c-0.5 0.1-0.6-0.4-0.7-0.7-0.3-0.7-0.7-1.3-1.2-1.9-0.2-0.2-0.5-0.4 0-0.7 0.6 0.5 1.1 1.1 1.4 1.8 0 0.1 0.1 0.1 0.1 0.2 0.1 0.4 0.3 0.9 0.4 1.3z"/>
<path class="st4" d="m19.5 66.1c0.4 0 0.5 0.4 0.4 0.6-0.3 0.4-0.1 0.7 0.1 1-0.3 0.4-0.6 0.8-0.9 1.1-0.1 0.1-0.2 0.1-0.2 0.2-0.1 0.1-0.2 0.2-0.3 0-0.1-0.1 0-0.2 0.1-0.3 0.1-0.3 0.4-0.5 0.4-0.8 0.2-0.6 0.3-1.2 0.4-1.8z"/>
<path class="st1" d="m25.8 49.9c0 0.6-0.5 0.8-0.8 1.3s-0.6 1.3-1.3 1.6c0.4-1.3 0.9-2.4 2.1-2.9z"/>
<path class="st4" d="m21.3 63.1c-0.3-0.2-0.2-0.4-0.1-0.7 0.1-0.2 0.1-0.4 0-0.7v-0.2c0.5-0.3 0.4 0.2 0.5 0.4-0.1 0.4 0.1 0.9-0.4 1.2z"/>
<path class="st4" d="m20 64.8c0.2-0.1 0.4-0.1 0.5 0.1-0.1 0.3-0.1 0.6-0.2 0.9-0.2 0.1-0.4 0-0.5-0.2 0.1-0.4 0.2-0.6 0.2-0.8z"/>
<path class="st1" d="m28.1 49c-0.3 0.3-0.5 0.7-1 0.3 0.3 0 0.6-0.4 1-0.3z"/>
<path class="st1" d="m10.2 72.8c-0.1 0.1-0.2 0.1-0.3 0.1 0.1-0.2 0.2-0.2 0.3-0.1z"/>
<path class="st1" d="m37.4 54.8c0-0.1-0.1-0.1-0.1-0.2 0.1 0.1 0.1 0.1 0.1 0.2z"/>
<path class="st0" d="m87.9 63.7c-1.2 0.8-2.4 1.3-3.6 1.8-1.4 0.6-2.8 0.4-4.2 0.5-1 0-2.1-0.3-3.1-0.1-0.3 0.1-0.8-0.3-1.2-0.3-0.7-0.1-1.3-0.3-2-0.2-0.4 0-0.4-0.7 0-1 0.2-0.2 0.5-0.4 0.8-0.4 0.9 0 1.9-0.2 2.8 0.1 0.8 0.2 1.6 0.1 2.4 0.4 0.7 0.2 1.4 0 2.1 0.2 1.9 0.4 3.7-0.1 5.5-0.8 0.1-0.3 0.1-0.3 0.5-0.2z"/>
<path class="st4" d="m65.3 70c-0.2-0.2 0-0.4-0.1-0.6 0.2-0.7 0.8-1.1 1.2-1.6 0.1-0.1 0.2-0.1 0.3-0.3 0.1-0.1 0.2-0.2 0.4-0.2 0 0.6-0.7 0.9-0.8 1.4-0.2 0.1-0.3 0.2-0.3 0.3-0.1 0-0.1 0.1-0.1 0.2-0.1 0.3-0.5 0.5-0.6 0.8z"/>
<path class="st4" d="m82.1 54.3c-0.4-0.3-0.7-0.7-1-1.1-0.1-0.4-0.5-0.6-0.7-0.9-0.1-0.1-0.1-0.2 0-0.3s0.2 0 0.3 0c0.4 0.2 0.6 0.5 0.8 0.8 0.1 0.2 0.2 0.4 0.5 0.5 0 0.2 0.1 0.2 0.3 0.3 0.1 0.3 0.4 0.6-0.2 0.7z"/>
<path class="st4" d="m91.7 60.1 0.6-0.6c0.3 0 0.5-0.1 0.8-0.1 0 0 0 0.1 0.1 0.1-0.5 0.4-1 0.7-1.5 1.1-0.1 0-0.2 0.1-0.2 0-0.2-0.3 0.2-0.3 0.2-0.5z"/>
<path class="st4" d="m67 67.3v-0.1s0.1 0.1 0 0.1c0.1 0 0 0 0 0z"/>
<polygon class="st0" points="89.7 62 89.7 62"/>
<path class="st4" d="m66.8 49.1 0.2-0.2c0.8-0.7 1.6-1.4 2.7-1.7 0.3 0.2 0.4 0.4 0.1 0.6l-0.6 0.6c-1 0.9-2.2 1.6-3.1 2.5-0.1 0.1-0.3 0.2-0.5 0.1-0.2-0.2 0-0.3 0.1-0.4 0.2-0.2 0.4-0.5 0.6-0.6 0.4-0.2 0.5-0.5 0.5-0.9z"/>
<path class="st1" d="m65.8 69.1c0-0.1 0-0.1 0.1-0.2 0 0.1 0 0.2-0.1 0.2z"/>
<path class="st1" d="m67.1 48.9-0.1 0.1c-0.1-0.1 0-0.1 0.1-0.1z"/>
<path class="st0" d="m20.3 65.7c0.1-0.3 0.1-0.6 0.2-0.9 0.5-0.1 0.4 0.3 0.5 0.5 0.1 0 0.1-0.1 0.1-0.1-0.3-0.8 0.6-1.5 0.2-2.2 0.5-0.3 0.3-0.8 0.4-1.2l0.2-0.2c0-0.8 0.6-1.5 0.8-2.3 0.1 0 0.1-0.1 0.1-0.2v-0.5c0.3-0.4 0.1-0.9 0.3-1.3 0-0.2 0-0.4 0.1-0.5 0.3-0.1 0.4-0.2 0.2-0.5v-0.3c0.4-0.5 0.9-0.9 1.1-1.7 0.3-1 0.9-1.9 1.9-2.5 0.2-0.1 0.4-0.3 0.6-0.5-0.3-0.1-0.5 0.2-0.7 0.1 0.2-0.5 0.6-0.6 1-0.8 0.7-0.1 1.4-0.3 2.1-0.3s1.4 0.2 2 0.6c0.9 0.5 1.8 1.2 2.7 1.8 0.2 0.2 0.2 0.4 0.4 0.6 0.2 0.3 0.6 0.4 0.8 0.7 0.4 0.7 0.6 1.5 1.3 2 0.5 0.3 0.4 0.9 0.5 1.3 0.1 0.3-0.7 0.5-1 0.1-0.6-0.6-1 0.4-1.5 0.2 0 0.1-0.1 0.1 0 0.2 0 0.1 0.2 0.2 0.3 0.1 0.6-0.2 1.2 0.3 1.9 0.1 0.6-0.1 0.8 0.2 0.8 0.7v1l-0.1 0.1c-0.2 0.2 0.2 0.3 0.2 0.5 0 0.4 0.2 0.7 0.4 1.1 0.1 0.1 0.1 0.2 0 0.3s-0.3 0.1-0.4 0c-0.6-0.4-1.2-0.1-1.7 0-0.8 0.3-1.7 0.5-2.4 1-0.4 0.2-0.8 0.5-1.4 0.5-0.3 0-0.6 0.2-0.8 0.6-0.4 0-0.4 0.3-0.6 0.5-0.1 0-0.2 0-0.3 0.1-0.8 1.1-2.3 1.4-3.1 2.5-1.7 2.2-3.9 3.5-6.4 4.5-0.2 0.1-0.5 0.1-0.3 0.4 0.1 0.2 0.3 0.1 0.5 0 1.7-0.9 3.5-1.8 4.9-3.1 0.5-0.4 0.9-0.9 1.3-1.5 0.5-0.6 1.1-1 1.8-1.4 0.2-0.1 0.4-0.2 0.5 0.1s0.5 0.5 0.1 0.8c-1.1 0.6-1.6 1.8-2.4 2.7-1.2 1.3-2.5 2.4-4.2 2.9-1.1 0.3-2.1 0.5-3.2 0.5-0.3 0-0.6 0.1-0.9 0.2-0.2 0.1-0.4 0.1-0.5-0.2 0-0.2 0.2-0.2 0.4-0.2 0.1 0 0.3 0.1 0.3-0.1-0.7-0.3-1.6-0.2-2.1 0.3h-1c-0.1 0-0.1 0-0.2 0.1-0.7 0.2-1.2-0.4-1.9-0.4 0-0.1 0-0.2 0.2-0.3l1.5-0.6c0.5-0.2 0.9-0.4 1.3-0.7s0.8-0.7 1.3-1 0.9-0.9 1-1.5c0.3-0.4 0.6-0.8 0.9-1.1 1.3-1 2.3-2.3 2.8-3.8l0.3-0.6c0-0.1 0-0.2-0.1-0.3-0.1 0-0.2 0.1-0.2 0.2-0.3 1-0.9 1.9-1.4 2.8-0.2 0.4-0.6 0.1-0.8 0.3-0.5 0.3-0.5-0.1-0.6-0.2zm3.7 2.5c0.6-0.1 1.1-0.3 1.5-0.7 1-0.8 1.9-1.6 2.7-2.5 0.1-0.1 0.2-0.2 0.1-0.4-0.8 0.7-1.4 1.6-2.4 2.1 0.3-0.7 1.1-1.1 1.2-1.9-0.4 0.3-0.7 0.8-1.1 1.2l-1.2 1.2c-0.1 0.1-0.1 0.2-0.3 0.2-0.4-0.1-0.4-0.1-0.6 0.4-0.4 0.3-0.8 0.6-1.1 0.9-1 0.7-2 1.5-3.2 2 0.7-0.9 1.5-1.9 2.3-2.7 0.7-0.8 1.2-1.6 1.7-2.5 0.1-0.1 0.1-0.3 0-0.3-0.1-0.1-0.2 0.1-0.3 0.2-0.1 0.2-0.2 0.3-0.3 0.5-0.9 1.7-2.4 3-3.6 4.4-0.5 0.6-1.1 1.1-1.8 1.4-0.9 0.4-1.7 0.8-2.6 1.2 0.3 0.2 0.5 0.1 0.7 0.1 1.2-0.3 2.3-0.9 3.4-1.4 1.4-0.7 2.7-1.5 3.8-2.6 0.3-0.4 0.7-0.6 1.1-0.8zm3.8-11.9c0.2-0.2 0.4-0.3 0.5-0.6 1-1.5 2.3-1.3 3.6-1 0.8 0.2 1.5 0.6 2.1 1.2 0.1 0.1 0.3 0.2 0.4 0s0-0.3-0.1-0.4c-0.5-0.3-1-0.7-1.6-1-0.8-0.3-1.6-0.6-2.3-0.5-1.3 0.3-2.3 1-2.6 2.3zm-1.3-2.4c1.4-1.2 1.6-1.3 3.5-1.2 0.5 0 0.8 0.5 1.2 0.7 0.6 0.3 1.3 0.3 1.8 0.9 0.1 0.2 0.3 0 0.3-0.1 0.1-0.2 0-0.3-0.1-0.3-1.1-0.5-2.2-1.2-3.4-1.5-1.2-0.5-2.6 0.1-3.3 1.5zm1.7-3.1v0.2c0.3 0.1 0.6 0.1 0.9 0.1 0.6 0 1.1 0.2 1.6 0.5 1.1 0.5 2 1.1 2.8 2 0.1 0.1 0.3 0.3 0.4 0.1s-0.1-0.3-0.2-0.4c-0.7-0.9-1.7-1.5-2.7-2-0.7-0.4-1.8-0.5-2.8-0.5zm4.8 9.8c0.4 0.3 0.8 0.3 1.2 0.1 0.1 0 0.2-0.1 0.2-0.2s-0.1-0.1-0.2-0.2c-0.5 0-0.9 0.2-1.2 0.3zm3.9-0.4c-0.2-0.3-0.6-0.4-0.8-0.5-0.1 0-0.2 0.1-0.2 0.2 0.1 0.4 0.5 0.4 0.8 0.7 0.1 0 0.2-0.2 0.2-0.4zm-4.3-1.7c-0.1 0-0.3 0-0.3 0.2s0.1 0.3 0.3 0.3 0.4 0 0.4-0.2-0.2-0.2-0.4-0.3zm-1.6 3.5c0.2-0.2 0.6 0.1 0.8-0.3 0-0.1-0.1-0.2-0.2-0.2-0.4 0-0.6 0.1-0.6 0.5zm1.1-5.6c-0.5-0.3-0.8-0.2-1.2-0.1 0.3 0.2 0.7 0.2 1.2 0.1zm-1.3 3.4c0-0.2 0-0.2-0.2-0.2s-0.3 0.1-0.4 0.3c0 0.1 0 0.2 0.1 0.2 0.3 0 0.5-0.1 0.5-0.3zm-3.7-8.4c0.2 0.1 0.4 0.1 0.6-0.1 0.1-0.1 0-0.2-0.1-0.2-0.2-0.1-0.3 0-0.5 0.3z"/>
<path class="st4" d="m37.4 60.6c0-0.2-0.3-0.2-0.2-0.5 0.1 0 0.1 0 0.1-0.1 0.3 0 0.2-0.2 0.3-0.4s0.2-0.3 0.4-0.2 0.2 0.2 0.2 0.4c0 0.3 0 0.6 0.4 0.7 0.1 0.2 0.3 0.2 0.5 0.4v0.2c-0.1 0.4-0.4 0.7-0.1 1.1 0.1 0.1 0 0.3-0.2 0.2s-0.6 0-0.6-0.4c-0.1-0.7-0.4-1.1-0.8-1.4z"/>
<path class="st4" d="m38 57.3c0.3 0.5-0.2 1-0.1 1.5l-0.1 0.1c-0.1 0-0.2-0.1-0.2-0.2-0.2-0.6 0.2-1 0.4-1.4z"/>
<path class="st4" d="m35.2 54.2c-0.2-0.3-0.6-0.3-0.8-0.7 0.5-0.2 0.8 0.2 1.2 0.3 0.1 0 0.1 0.1 0.1 0.2-0.1 0.2-0.3 0.1-0.5 0.2z"/>
<path class="st4" d="m46 35.7v1c0 0.9 0.5 1.4 1.4 1.7 1 0.4 2.1 0.3 3.2 0.5l1.8 0.3c2.1 0.2 2.9-0.6 3.3-2.7 0.1-0.4 0.2-0.8 0.1-1.3-0.1-0.4 0.2-0.5 0.5-0.5s0.3 0.3 0.3 0.5c-0.1 1.2-0.3 2.4-0.8 3.6-0.3 0.6-0.9 0.9-1.5 1-1.5 0.3-3.1 0.2-4.6-0.1-0.8-0.2-1.6-0.3-2.4-0.6-1.1-0.4-1.7-1.2-1.8-2.3-0.1-0.8-0.1-1.7-0.1-2.6 0-0.2 0-0.5 0.3-0.5s0.3 0.3 0.4 0.5c0 0.6-0.3 1.1-0.1 1.5z"/>
<path class="st4" d="m49.9 47.6c-0.8-0.3-1.8 0-2.5-1-0.3-0.5-0.2-0.8 0.2-1 1-0.8 2.1-0.9 3.3-0.5 0.3 0.1 0.7 0.3 1 0.4 0.4 0.1 0.9 0.4 0.9 0.8s-0.5 0.8-0.9 0.9c-0.5 0.2-1.3 0.3-2 0.4zm0-0.4c0.5-0.1 1-0.1 1.5-0.3 0.3-0.1 0.6-0.3 0.7-0.6s0.2-0.6-0.3-0.7c-0.4-0.1-0.8-0.3-1.3-0.4-1-0.2-1.8-0.1-2.6 0.7-0.2 0.2-0.2 0.3 0 0.5 0.6 0.7 1.3 0.7 2 0.8z"/>
<path class="st4" d="m59.3 26.7c0.7 0.4 1.2 0.9 1.1 1.7v0.2c-0.1 0.1-0.1 0.3-0.2 0.4h-0.3c0-0.3 0.1-0.7 0-1-0.1-0.4-0.2-0.9-0.8-0.8-0.6 0-1 0.2-1 0.8-0.4 0.4-0.4 1.1 0.1 1.4 0.1 0 0.2 0 0.4 0.1h0.1c0.1 0.2 0.3 0.2 0.5 0.2s0.3-0.1 0.5 0.1l-0.3 0.3c-0.5 0-1 0.1-1.4-0.1-0.2-0.3-0.5-0.7-0.7-1 0-0.2 0.1-0.5 0.1-0.7 0-0.5 0.6-0.7 0.6-1.2 0.4-0.2 0.8-0.3 1.3-0.4z"/>
<path class="st1" d="m43.9 27.2c0.6 0.2 1.1 0.5 1.6 0.9 0.2 0.2 0.2 0.4 0 0.7-0.6 0.7-1.3 1.2-2.3 1.4-0.6 0.1-1.1 0.5-1.7 0.2l-0.3-0.9c-0.1-0.1-0.3-0.2-0.2-0.5 0.4 0.1 0.3-0.3 0.4-0.5h0.2v0.3c-0.1 0.2 0.2 0.4 0.2 0.6-0.1 0.4-0.1 0.4 0.3 0.4 0.3 0 0.5 0 0.8 0.1s0.6 0 0.7-0.3c0.7-0.1 1.2-0.5 1.4-1.1 0.1-0.2 0.1-0.4-0.1-0.4-0.4-0.2-0.8-0.5-1.3-0.2-0.2-0.5 0.4-0.4 0.3-0.7z"/>
<path class="st4" d="m41.5 28.4c-0.1 0.2 0 0.6-0.4 0.5-0.1-0.6 0.1-1.2 0.2-1.7 0.4-0.8 1.1-0.4 1.7-0.4 0.3 0 0.6 0.2 0.9 0.3 0.1 0.3-0.6 0.2-0.3 0.6v1.1c-0.2 0.1-0.3 0.3-0.5 0.4-0.1-0.2-0.1-0.5-0.1-0.8 0-0.2 0.1-0.4-0.2-0.5 0-0.1-0.1-0.2-0.1-0.2 0-0.4-0.2-0.5-0.5-0.4-0.3 0-0.4 0.2-0.4 0.4s-0.1 0.3-0.1 0.5c-0.1 0.1-0.2 0.1-0.2 0.2z"/>
<path class="st4" d="m56.6 29.5c-0.4-0.2-0.8-0.5-1.1-0.8-0.5-0.4-0.3-0.7 0.1-1 0.5-0.4 1.1-0.7 1.8-0.7v0.3c-0.6 0-1 0.5-1.6 0.8-0.2 0.1-0.2 0.2 0 0.3 0.3 0.3 0.4 0.7 0.8 0.9v0.2z"/>
<path class="st4" d="m40.7 29.7c-0.8-0.1-1.2-0.8-1.6-1.4-0.2-0.3 0.3-0.5 0.5-0.8 0.1 0 0.3 0 0.3 0.2-0.6 0.5-0.5 0.8 0.4 1.3 0 0.2 0.1 0.3 0.2 0.4s0.1 0.2 0.2 0.3z"/>
<path class="st0" d="m57.9 30c0.5 0.3 1 0.1 1.4 0.1h0.8c-0.8 0.9-2 0.8-2.6-0.2 0.2 0.1 0.3 0.1 0.4 0.1z"/>
<path class="st1" d="m57.3 27.2v-0.3c0.8-0.4 1.6-0.8 2.5-0.7 0.2 0 0.2 0.1 0.3 0.3-0.3 0-0.6-0.2-0.8 0.1l-1.5 0.3c-0.1 0.2-0.3 0.3-0.5 0.3z"/>
<path class="st4" d="m60.2 26.6c0.3-0.1 0.5 0 0.7 0.2 0.5 0.4 1.1 0.9 1.5 1.4 0.3 0.4 0.3 0.4-0.1 0.8-0.2-0.6-0.6-1-1.1-1.4-0.4-0.4-0.9-0.6-1-1z"/>
<path class="st0" d="m40.6 29.4c-0.1-0.1-0.3-0.2-0.2-0.4 0-0.6 0-1.1 0.6-1.5 0 0.3-0.1 0.6-0.1 0.9 0 0.2-0.1 0.5 0.3 0.5-0.1 0.2 0.1 0.3 0.2 0.5-0.3 0.3-0.6 0.1-0.8 0z"/>
<path class="st1" d="m39.9 27.7c0-0.2-0.2-0.2-0.3-0.2 0.3-0.6 0.8-0.6 1.5-0.8-0.4 0.5-0.8 0.7-1.2 1z"/>
<path class="st0" d="m60.3 29.1c0.1-0.1 0.1-0.3 0.2-0.4 0.3 0.3 0 0.6 0.1 0.9l-0.1 0.1c-0.2 0.1-0.4 0.1-0.7 0.1 0-0.3 0.5-0.4 0.5-0.7z"/>
<path class="st3" d="m57.9 30h-0.3c-0.1 0-0.2-0.1-0.2-0.1-0.1-0.2-0.3-0.4-0.3-0.7 0.1-0.1 0.1-0.2 0.2-0.3 0.1 0.4 0.4 0.7 0.6 1.1z"/>
<path class="st1" d="m57.1 29.2c0 0.3 0.2 0.4 0.3 0.7-0.3-0.1-0.7 0.1-0.7-0.4v-0.2c0.1 0 0.3-0.1 0.3-0.2-0.1 0 0 0.1 0.1 0.1z"/>
<path class="st3" d="m41.1 28.9c-0.4 0-0.3-0.3-0.3-0.5 0-0.3 0.1-0.6 0.1-0.9 0.1-0.2 0.2-0.2 0.4-0.3-0.1 0.6-0.3 1.1-0.2 1.7z"/>
<path class="st3" d="m40.6 29.4c0.2 0.1 0.5 0.3 0.7 0l0.3 0.9c-0.4 0-0.7-0.2-0.9-0.5-0.1-0.2-0.1-0.3-0.1-0.4z"/>
<path class="st3" d="m59.8 29.8c0.2 0.1 0.4 0 0.7-0.1 0 0.3-0.1 0.3-0.3 0.4h-0.8l0.3-0.3h0.1z"/>
<path class="st1" d="m67 53.4c-0.2-1-0.2-1 0.6-1.1 0.7-0.1 1.2-0.5 1.2-1.2 0-0.4 0.3-0.5 0.5-0.3 0.5 0.2 1 0.2 1.4 0.2 0.1 0 0.3 0 0.3 0.1 0 0.2-0.2 0.2-0.3 0.2h-0.3c-0.6 0-1.1 0-1.6 0.6-0.4 0.7-1.3 0.7-1.8 1.5z"/>
<path class="st1" d="m67.8 57.4c0-0.4 0.5-0.8 0.1-1.3-0.1-0.1 0-0.2 0.1-0.2 0.3-0.1 0.4-0.3 0.3-0.6 0-0.2 0-0.4 0.3-0.4 0.2 0 0.3-0.2 0.4-0.3 0.2-0.2 0.4-0.5 0.6-0.7 0.2-0.1 0.5-0.4 0.7-0.1s-0.3 0.2-0.4 0.4c-0.5 0.5-1.2 0.9-1.4 1.7-0.1 0.4 0 0.9-0.4 1.3 0 0-0.1 0.1-0.3 0.2z"/>
<path class="st1" d="m81.9 58.7c-0.5 0-0.8-0.4-1.1-0.6-0.7-0.4-1.3-0.9-1.9-1.4-0.2-0.1-0.4-0.3-0.4-0.6 0.6 0.2 1 0.7 1.4 1l1.8 1.2c0 0.1 0.2 0.2 0.2 0.4z"/>
<path class="st1" d="m66.8 53.7c0 0.6-0.4 1.1-0.3 1.6 0.2 0.5-0.2 0.6-0.5 0.8-0.1 0.1-0.2 0.2-0.3 0-0.1-0.1 0-0.3 0.1-0.3 0.5-0.4 0.6-0.8 0.2-1.3-0.1-0.1 0-0.2 0.1-0.3 0.2-0.2 0.4-0.3 0.7-0.5z"/>
<path class="st1" d="m68.5 64.3c0.1-0.3 0.1-0.5 0.4-0.6 0.8-0.1 0.9-0.7 0.8-1.3-0.1-0.4 0.1-0.6 0.5-0.6-0.3 1.3-0.2 2.2-1.7 2.5z"/>
<path class="st1" d="m65.7 62.9c0-0.1-0.1-0.1-0.1-0.2s0-0.3 0.1-0.3c0.4-0.2 0.6-0.5 0.5-0.9-0.1-0.3 0.3-0.2 0.5-0.3 0.1-0.1 0.3-0.1 0.3 0.1 0.1 0.2-0.1 0.3-0.2 0.4-0.4 0.2-0.3 0.8-0.7 1-0.1 0-0.2 0.1-0.4 0.2z"/>
<path class="st1" d="m69.9 50.6c0.5-0.3 0.8-0.7 0.9-1.2 0.1-0.3 0.4-0.3 0.7-0.2 0.1 0 0.2 0.2 0 0.2-0.5 0.1-0.6 0.6-0.9 0.9-0.2 0.2-0.3 0.4-0.7 0.3z"/>
<path class="st1" d="m66.7 67.5-0.3 0.3s0-0.1-0.1-0.1c-0.3-0.8-0.2-1.1 0.6-1.5 0.1-0.1 0.3-0.2 0.4 0s-0.1 0.3-0.2 0.3c-0.4 0.2-0.9 0.4-0.4 1z"/>
<path class="st1" d="m75.3 56.7h-2.5c0.8-0.3 1.7-0.2 2.5-0.2v0.2z"/>
<path class="st1" d="m76.7 62.1h-2.4v-0.1h2.4v0.1z"/>
<path class="st1" d="m66.2 57.6c-0.2 0.1-0.2 0.4-0.4 0.5-0.1 0.1-0.2-0.1-0.2-0.2 0-0.2 0.1-0.4 0.3-0.4 0.1-0.1 0.2-0.1 0.3 0.1z"/>
<path class="st1" d="m74 53.9c-0.3 0.1-0.7 0.1-1.2 0.1 0.5-0.3 0.9-0.2 1.2-0.1z"/>
<path class="st1" d="m81.1 63.1c0.7-0.2 1.1 0 1.5 0.1-0.4 0-0.8 0.1-1.5-0.1z"/>
<path class="st1" d="m67.9 65.2c-0.1 0.2-0.2 0.3-0.4 0.3-0.1 0-0.2-0.1-0.2-0.2 0-0.2 0.2-0.3 0.4-0.3 0.1 0 0.2 0 0.2 0.2z"/>
<path class="st1" d="m67.8 57.4c0 0.2 0 0.5-0.3 0.5-0.1 0-0.2-0.1-0.2-0.2 0-0.4 0.3-0.3 0.5-0.3z"/>
<path class="st1" d="m68.3 61.9c-0.1 0-0.2 0-0.2-0.2s0.2-0.2 0.3-0.3c0.1 0 0.2 0 0.2 0.1 0 0.3-0.1 0.4-0.3 0.4z"/>
<path class="st1" d="m73 63.1c0-0.1 0.1-0.1 0 0h0.1-0.1c0.1 0 0.1 0 0 0z"/>
<path class="st1" d="m81.9 58.7c0.1 0 0.2 0 0.3 0.1-0.2 0-0.3 0-0.3-0.1z"/>
<path class="st1" d="m85.4 63.1c0-0.1-0.1-0.1 0 0-0.1-0.1-0.1 0 0 0z"/>

	
		<path class="st3" d="m58.9 96.2c-0.2-0.2-0.4-0.5-0.4-0.8 0-0.8-0.1-1.5 0.1-2.3 0.1-0.3 0.1-0.7-0.1-0.9-0.1-0.2-0.5 0-0.4-0.3 0.1-0.2 0.3 0 0.5-0.1 0.6-0.2 1.2-0.1 1.8-0.3 0.4-0.1 0.9-0.4 1.1-0.9 0.1-0.1 0.1-0.3 0.3-0.3s0.1 0.2 0.2 0.4c0.4 1.3 0.3 2.6 0 3.9-0.1 0.6-0.4 1.1-0.8 1.6 0 0.1 0.1 0.2 0.2 0.2l-2.1 0.1c-0.2-0.2-0.3-0.2-0.4-0.3z"/>
		<path class="st3" d="m58.2 72.5c0.7-0.1 1.1-0.4 2-0.3 0.3 0 0.5 0.1 0.8 0.2 0.5 0.3 1.1 0.3 1.6 0h1.1v0.2c-0.3 2.9-1 4-1.6 4.8-0.4 0.3-0.7 0.5-1.2 0.7-0.6 0.1-1.2 0.3-1.8 0.3-0.5 0-1.1-0.4-1.3-0.8-0.4-0.7-0.5-1.5-0.4-2.3-0.2-0.4-0.6-2.5 0.8-2.8z"/>
		<path class="st3" d="m43.8 73.9c0.3 1.1 0.5 2.3 0.2 3.4-0.1 0.2 0 0.5-0.3 0.6-0.6 0.7-2 1-2.9 0.5-0.5-0.3-1-0.3-1.5-0.5-0.9-0.4-1.5-0.9-1.6-1.9-0.2-1.9-0.2-2.9-0.2-3.7h2.4c0 0.5 0.5 0.3 0.7 0.6 0.6 0.4 1.9 0.2 2.5 0.2 0.5 0.1 0.6 0.5 0.7 0.8z"/>
		<path class="st3" d="m39.1 64.8c0-0.1 0.8-2.3 1.7-3.7 0.5-0.7 1.5-1.1 1.9-1.6-0.5 1.1-0.2 2.2-0.2 3.2 0 0.9 0.4 1.7 1.2 2.2s1.7 0.9 2.8 0.8c0.7-0.1 1.4 0.1 2.1 0 1-0.1 1.8-0.5 2.5-1.2 0.2-0.2 0.5-0.5 0.5 0.1 0 0.3 0.2 0.4 0.4 0.5 0.4 0.1 0.7 0.1 1.1 0.2v-0.3c-0.8-0.3-1.3-0.8-1.1-1.7-0.2-0.9-0.2-0.9 0.7-0.9 0.8 0 1.6-0.2 2.3 0.3h1.5c1.1-0.1 2-0.6 2.5-1.6-0.1-0.3 0.2-0.6 0.3-0.9s0.2-0.7 0.2-1.1c0-0.2-0.1-0.5 0.2-0.5s0.3 0.3 0.3 0.5c0.1 0.2 0.2 0.4 0.2 0.7 0.6 0.6 0.7 1.3 0.1 1.8v0.7c-0.1 0.1-0.2 0.2-0.2 0.3-0.2 1-0.8 1.6-1.7 2.1-0.7 0.3-1.4 0.5-2.1 0.4-0.1 0.3 0 0.4 0.3 0.4 0.7 0.1 1.7-0.1 2.3-0.6 0.3-0.1 0.6-0.2 0.8-0.5 0.1 0 1.9-3 2.3-3 0.2 0 0.4 0 0.6 0.1s1 2.4 1 2.4c0 0.1 0.4 4.7 0.4 5.5 0 0.4-0.1 2.3-0.2 3h-1.1c0-0.6-0.4-0.8-0.9-0.9-1.3-0.4-2.6-0.1-3.9 0.1-0.1 0-0.2 0.1-0.2 0-0.9-0.2-1.4 0.3-1.8 1.1 0 0.2-0.1 0.3-0.3 0.1-0.7-0.6-1.7-0.5-2.5-0.9-0.5-0.2-1.6 0.2-1.9 0.5-0.2 0.3-0.3 0.6 0 0.9 0.3 0.4-0.1 0.6-0.3 0.9s-0.5 0.3-0.8 0.1c-0.1-0.1-0.1-0.8-1-0.6-0.2-0.2 0.7-1.4-0.5-1.7-0.6 0-1.3 0-1.9 0.1-0.4 0.2-0.9 0.2-1.2 0.5s-0.4 0.1-0.5-0.2c-0.8-0.6-1.5-0.5-1.7-0.6-0.7 0-1.3 0.1-2 0-0.4-0.1-0.8 0.1-1.2 0.3h-2.4c0-0.5 0.1-0.9 0.1-1.4 0.1-1.1 0.3-2.1 0.5-3.1 0-1 0.3-1.6 0.8-2.8z"/>
		<path class="st3" d="m38.7 78.6c0.8 0.6 1.7 0.6 2.6 0.8 1 0.3 1.8 0 2.7-0.3 0.2-0.1 0.4-0.2 0.5-0.3 0.7-0.6 1.2 0.2 1.8 0.4l1.2 0.3c0.4 0 0.8 0.2 1.2 0.2 0.2 0 0.4 0 0.6-0.1 0.7-0.3 1.3-0.2 2 0.1h0.5c0.6-0.3 1.4-0.1 2-0.3 0.4-0.1 0.8-0.1 1.1-0.1 0.3-0.2 0.7-0.3 1-0.6 0.4-0.3 0.5 0.2 0.7 0.4 0.5 0.3 1 0.4 1.5 0.6 1.2 0.1 2.8-0.1 3.9-0.8 0.2-0.2 0.4-0.4 0.7-0.3 0.1 0 0.3 0 0.3 0.2 0.1 0.9 0.3 1.8 0 2.7-0.1 0.2-0.2 0.5 0 0.7 0.2 0.3 0.1 0.6 0 0.9-0.1 0.2-0.1 0.4-0.1 0.7 0.1 0.7-0.3 1.2-0.8 1.5-0.2 0.2-0.4 0.4-0.6 0.7s-0.5 0.3-0.7 0-0.3-0.2-0.6-0.2c-1.4-0.1-2.7 0.3-4.1 0.3-0.6 0-1.1 0.3-1.7 0-0.2-0.1-0.5 0.2-0.6 0.4v0.1h-0.5c-0.1-0.2-0.4-0.1-0.5-0.2-0.1-0.2-2.3-0.1-2.9-0.2-0.5-0.1-1 0-1.4 0.1-0.5 0.2-1 0.2-1.6 0.2-1.1-0.1-2.2 0.2-3.4 0.2-0.2 0-0.4 0-0.6-0.1-0.2 0-0.4 0-0.6 0.1-0.5 0.1-2.1-0.1-2.9-0.9-0.3-0.3-0.4-0.9-0.4-1.2-0.1-0.4-0.2-0.8-0.2-1.2 0-1-0.5-1.9-0.3-2.9 0.1-0.5-0.1-1-0.1-1.5-0.1-0.4 0-0.6 0.3-0.4z"/>
		<path class="st4" d="m60.1 58.5c0.3 0.5 0.4 1.2 0.9 1.7 0.1 0.1 0.1 0.2 0.2 0.1 0.1 0 0.1-0.2 0.1-0.3 0-0.8-0.5-1.2-1.2-1.5zm-9.1 17.7c-0.2 0-0.4 0.1-0.5 0.3s0 0.4 0.2 0.5c0.3 0.4 0.8 0.5 1.3 0.5 0.3 0 0.6-0.1 1 0 0 0.4-0.3 0.3-0.5 0.4-0.3-0.3-0.6-0.1-0.9-0.1h-0.4c-0.3 0.1-0.7 0.2-0.6 0.7 0 0.5 0.4 0.5 0.7 0.6h0.5c1.2 0.1 2.4-0.1 3.3-1 0.5-0.5 0.9-1 0.7-1.7-0.2-0.8-0.1-1.7-0.1-2.5 0-0.3-0.1-0.3-0.3-0.3-0.8-0.1-1.5-0.2-2.1-0.8-0.1-0.1-0.3-0.1-0.4-0.1-0.3-0.4-0.7-0.3-1-0.1s-0.1 0.5 0.1 0.7c0.1 0.2 0.4 0.4 0.6 0.5 0.1 0.1 0.2 0.1 0.2 0.3 0 0.1-0.2 0.1-0.3 0.1h-0.9c-0.6 0-0.7 0.5-0.8 0.9-0.1 0.5 0.3 0.4 0.6 0.6 0.5 0.3 1.1 0.2 1.7 0.3-0.4 0.5-0.8 0.4-1.2 0.3s-0.7-0.1-0.9-0.1zm-5.6-25.4c-0.4-0.1-0.7 0.1-0.7 0.5v1.2c-0.2 2.1-0.3 4.3-0.1 6.4 0.1 0.7 0.1 1.5 0.9 1.9 0 0.2-0.3 0.3-0.2 0.5 0.2 0.3 0.3-0.1 0.5-0.1 0.1 0 0.3 0.2 0.4 0h0.5c1.6 0.4 3.3 0.5 5 0.4 0.8 0 1.7 0.2 2.5 0.1s1.6-0.1 2.4-0.2c0.1 0.1 0.1 0 0.2 0 1.5-0.3 1.4-0.9 1.6-2 0.2-0.8 0-1.7 0.1-2.5 0-0.4 0.3-0.6 0.3-1-0.1-1.9 0.2-3.7-0.2-5.6-0.1-0.2-0.3-0.2-0.4 0-0.8 0.3-1.7 0-2.6 0-2 0.2-4 0.1-6 0.3-1.4 0.4-2.8 0.5-4.2 0.1zm-0.3 23.5c0 0.3 0.3 0.5 0.2 0.9v2.1c0 0.3 0.1 0.5 0.3 0.7 0.5 0.6 1.3 0.7 1.9 1.2 0.5-0.1 1.1 0 1.6 0.1 0.1-0.1 0.2-0.2 0.4-0.2 0.5-0.2 0.5-0.7 0.4-1.1s-0.5-0.3-0.8-0.4c-0.6-0.1-1.2 0.1-1.8-0.2 0.1-0.1 0.1-0.1 0-0.2 0.7 0 1.4 0 2.1-0.1 0.3 0 0.7-0.1 0.7-0.5s-0.3-0.7-0.7-0.7h-1.7c-0.2 0-0.4 0.1-0.4-0.2 0.1-0.1 0.2-0.1 0.4-0.1 0.7 0 1.3 0.1 2-0.2 0.5-0.2 0.5-0.6 0.1-0.9-0.6-0.4-1.2-0.3-1.8-0.1-0.2 0.1-0.4 0.2-0.7 0.2-0.2 0-0.3-0.1-0.3-0.3s0.2-0.2 0.3-0.2c0.5-0.1 0.9-0.6 1.2-0.9 0.1-0.2 0.1-0.4-0.2-0.5-0.4-0.2-0.8-0.4-1.3-0.1-1.1 0.5-1.8 0.9-1.9 1.7zm-1.8-13.6c-0.4 0.8-0.1 1.6-0.2 2.3-0.1 0.8 0.4 1.2 1 1.5 1 0.5 2.1 0.8 3.2 0.8 0.6 0.2 1.3 0.3 1.8-0.2 0.7 0 1.2-0.2 1.3-0.9 0.1-0.3 0-0.7 0-1.1 0-0.2 0.1-0.5 0-0.8v-0.1 0.1c-1.1 0-2.2 0.1-3.3 0-0.1-0.2-0.2-0.2-0.3 0-0.1 0-0.3 0-0.4-0.1h-0.2l-0.5 0.1h-0.1c-0.5-0.2-1.1-0.3-1.5-0.8 0.1-0.3-0.1-0.6-0.1-0.9 0.1-0.1 0.1-0.1 0-0.2 0-0.2-0.1-0.3-0.1-0.5 0.1-0.1 0-0.1 0-0.2 0-0.3-0.1-0.6-0.2-0.8 0.1 0 0.1-0.1 0-0.2s-0.2 0-0.2 0.2c-0.3 0.6-0.2 1.2-0.2 1.8zm-2.1 26.4c-0.2 0-0.5 0-0.5 0.3v0.6c0 0.9 0.7 1.3 1.2 1.7 0.4 0.4 0.9 0 1.4-0.2 0.4-0.2 0.6-0.5 0.7-0.9 0.4-1.5 0.3-1.6-1.2-1.6-0.6 0.1-1.1 0.1-1.6 0.1zm-0.7 2.4c0.1-0.2-0.1-0.4-0.2-0.5s-0.1-0.4-0.3-0.3-0.3 0.3-0.2 0.5c0 0.1 0 0.3 0.2 0.3 0.2 0.8 0.7 1.1 1.5 1.2 0.2 0 0.3 0.1 0.5 0.1 0.7 0.3 1.2-0.1 1.7-0.4 0.2-0.1 0.5-0.3 0.3-0.6s-0.4 0-0.6 0.1c-0.8 0.4-2.2 0.4-2.7-0.4 0-0.1 0-0.1-0.1 0 0 0.1 0 0-0.1 0zm0.4 1.6c-0.6-0.4-0.8-0.3-0.8 0.4v0.6c0 0.3 0.1 0.6-0.1 0.8s-0.3 0.5-0.2 0.8c0.1 0.5 0.4 1 0.2 1.6 0 0.1 0.1 0.2 0.1 0.3 0.5 0.8 1.2 0.9 2 0.8 0.9-0.1 1.5-0.7 1.7-1.6 0.2-1.1 0.5-2.2 0.5-3.3 0-0.2 0.1-0.4-0.1-0.5s-0.3 0-0.5 0.2c-0.3 0.4-0.8 0.4-1.2 0.4-0.6-0.1-1.1-0.2-1.6-0.5zm-1.8-26.3c-0.6 1.1-0.8 1.8-1 3-0.2 1-0.4 2-0.5 3.1 0 0.5-0.1 0.9-0.1 1.4-0.1 0.8-0.1 1.8 0.2 3.7 0.1 1 0.7 1.5 1.6 1.9 0.5 0.2 1 0.3 1.5 0.5 0.9 0.5 2.3 0.2 2.9-0.5 0.3-0.1 0.2-0.4 0.3-0.6 0.4-1.2 0.1-2.3-0.2-3.4-0.1-0.3-0.2-0.7-0.7-0.7-0.6 0-1.8 0.2-2.5-0.2-0.2-0.3-0.7-0.1-0.7-0.6 0.3-0.3 0.8-0.4 1.2-0.3 0.7 0.1 1.3-0.1 2 0 0.2 0.1 0.9 0 1.7 0.6 0.1 0.3 0.2 0.5 0.5 0.2 0.4-0.3 0.8-0.3 1.2-0.5 0.6-0.1 1.2-0.1 1.9-0.1 1.2 0.3 0.2 1.5 0.5 1.7 0.9-0.2 0.9 0.5 1 0.6 0.3 0.2 0.6 0.2 0.8-0.1s0.6-0.5 0.3-0.9c-0.3-0.3-0.2-0.6 0-0.9 0.3-0.4 1.4-0.8 1.9-0.5 0.8 0.4 1.8 0.3 2.5 0.9 0.2 0.1 0.3 0.1 0.3-0.1 0.4-0.7 0.9-1.2 1.8-1.1h0.2c1.3-0.1 2.6-0.5 3.9-0.1 0.5 0.2 0.9 0.3 0.9 0.9-0.5 0.4-1.1 0.3-1.6 0-0.2-0.2-0.5-0.2-0.8-0.2-1-0.2-1.3 0.1-2 0.3-1.3 0.3-1 2.3-0.9 2.9-0.1 0.8 0 1.6 0.4 2.3 0.2 0.4 0.8 0.8 1.3 0.8 0.7 0 1.2-0.1 1.8-0.3 0.5-0.2 0.8-0.4 1.2-0.7 0.6-0.8 1.4-1.9 1.6-4.8v-0.2c0.1-0.8 0.2-2.7 0.2-3 0-0.8-0.4-5.5-0.4-5.5 0-0.1-0.8-2.4-1-2.4-0.2-0.1-0.4-0.1-0.6-0.1-0.4 0-2.2 3-2.3 3-0.2 0.2-0.5 0.4-0.8 0.5-0.6 0.5-1.6 0.7-2.3 0.6-0.3 0-0.4-0.1-0.3-0.4 0.8 0.1 1.4-0.1 2.1-0.4 0.9-0.5 1.5-1.1 1.7-2.1 0-0.1 0.1-0.2 0.2-0.3v-0.7c0.5-0.5 0.5-1.2-0.1-1.8-0.1-0.2-0.2-0.4-0.2-0.7 0-0.2 0-0.5-0.3-0.5s-0.2 0.3-0.2 0.5c0 0.4 0 0.7-0.2 1.1-0.1 0.3-0.4 0.5-0.3 0.9-0.5 1-1.4 1.5-2.5 1.6h-1.5c-0.7-0.5-1.5-0.3-2.3-0.3-0.9 0-0.9 0-0.7 0.9-0.1 0.9 0.3 1.4 1.1 1.7v0.3c-0.3-0.1-0.7-0.1-1.1-0.2-0.3 0-0.4-0.2-0.4-0.5 0-0.7-0.3-0.4-0.5-0.1-0.7 0.7-1.5 1.1-2.5 1.2-0.7 0.1-1.4-0.1-2.1 0-1 0.1-1.9-0.4-2.8-0.8-0.8-0.4-1.2-1.2-1.2-2.2 0-1.1-0.3-2.2 0.2-3.2-0.4 0.5-1.4 0.9-1.9 1.6-0.6 1-1.3 3.3-1.4 3.3zm-2.3-32.3c-0.1 2.2-0.2 4.5 0.1 6.8 0.3 2.2 0.8 4.4 1.9 6.5 0.9 1.9 2.4 3.2 4.4 3.9 1.3 0.4 2.8 0.5 4.2 0.7 1.9 0.2 3.9 0 5.8 0 1.6 0 3.3-0.1 4.9-0.3 0.7-0.1 1.5 0 2.2-0.4 0.1 0.2 0.2 0.1 0.4 0.2 1 0.1 1.5-0.7 2.2-1.2 1.9-0.7 2.6-2.2 3-4.1 0.3-1.4 0.7-2.8 1-4.2 0.3-0.1 0.2-0.3 0.1-0.5 0.1-0.2 0.1-0.3 0.1-0.5 0.2-0.2 0.1-0.4 0.1-0.5 0.1-0.5 0.1-0.9 0.1-1.4 0.2-1 0.5-2 0.5-3.1 0-0.3 0-0.6-0.2-0.8-0.8-0.7-0.8-1.6-0.7-2.5 0-0.7 0.1-1.4 0-2.1-0.1-0.6-0.4-1.1-1.1-1.2-1-0.2-1.9-0.5-2.8-1-1.1-0.7-2.3-1.4-3.5-2-1-0.5-2-1-2.9-1.6-1.3-0.8-2.4-1.9-3.1-3.2-0.2-0.3-0.4-0.5-0.7-0.1-0.7 0.9-1.4 1.8-2.2 2.7s-1.6 1.7-2.8 2c-1 0.3-2 0.4-3.1 0.6-1.4 0.3-2.8 0.2-4.1 0.1-0.8-0.3-1.6-0.3-2.3-0.1-0.4 0.1-0.9 0.3-1 0.7-0.2 0.5-0.2 1-0.3 1.5-0.1 1.1-0.1 2.2 0.1 3.2 0 0.7-0.3 1.3-0.3 1.9zm0.2 44.2c-0.4-1-0.4-2.3-0.3-3.4v-3.2c0-0.6 0.3-1.1 0.3-1.6 0.2-0.5 0.8-1 0.5-1.6 0.4-0.1 0.4-0.4 0.4-0.7 0.6-1 0.9-2.1 1.3-3.2 0.4-0.5 0.5-1 0.7-1.6 0.8-1.1 1.7-2.1 2.9-2.7 0.5-0.3 1-0.5 1-1.1 0-2 0.2-4 0.1-6 0-0.4-0.1-0.6-0.5-0.7-2.1-0.7-3.6-2.2-4.7-4.1-0.6-1-1-2.1-1.3-3.3-0.4-1.4-0.9-2.8-1-4.2-0.1-1.7-0.1-3.5-0.1-5.2 0-0.3 0-0.7-0.1-1-0.2-0.4-0.6 0-0.9-0.2h-0.2c-1.3-0.9-1.5-2.4-1.8-3.7-0.2-0.8-0.6-5.2 1.5-10.4 1-2.4 2.8-4.2 5-5.7 0.9-0.6 1.9-1 3-1.2 0.4-0.1 6.3-1 8.4-0.9 3.3-0.1 5.9-0.1 8.4 0.7 1.5 0.5 7.4 2.5 9.7 4.9 1.5 1.5 2.1 2.7 2.6 4.3 0.4 1.1 0.6 2.2 0.7 3.4 0.1 1.1 0.3 4.7-1.1 7.3-0.7 1-1.6 1.9-2.8 2.3-0.3 0.1-0.3 0.3-0.2 0.6 0 0.8-0.1 1.6-0.2 2.4-0.2 1.1-0.4 2.2-0.7 3.3-0.2 0.7-0.2 1.5-0.4 2.2-0.2 0.9-0.5 1.8-0.5 2.8-0.2 0.6-0.4 1.2-0.6 1.7-0.3 0.8-0.9 1.3-1.4 1.8-0.5 0.2-1 0.6-1.4 0.9-1.1 0.7-2.3 1.1-3.6 1.3-0.3 0-0.4 0.1-0.4 0.4 0.1 0.9 0.1 1.9 0.2 2.8 0.1 1 0.2 2 0 3-0.1 0.3-0.1 0.7 0.3 0.9 0.5 0.1 0.9 0.4 1.3 0.7 0.2 0.2 0.3 0.5 0.6 0.5 0.1 0.3 0.5 0.4 0.6 0.8 0 0.1 0.2 0.2 0.3 0.1 0.4-0.5 1-0.8 1.1-1.6 0.2-1.2-0.2-2.4 0-3.6 0.2-0.8 0.2-1.6 0.7-2.3 0.1 0 0.3-0.1 0.1-0.3 0-0.2 0.1-0.3 0.2-0.4 0.5 0 0.5 0.4 0.3 0.6-0.2 0.3-0.3 0.6-0.5 0.9-0.1 0.1-0.2 0.3-0.1 0.5 0.2 0.2 0.3-0.1 0.5-0.2 0.2-0.2 0.2-0.6 0.5-0.7 0.2 0.2 0 0.4-0.1 0.6-0.2 0.8-0.9 1.5-0.6 2.4h-0.1-0.1s0 0.1 0.1 0.1c0.1 0.5-0.1 1 0.1 1.5-0.1 0.5-0.5 0.9-0.3 1.4 0.1 0.3 0.1 0.6 0.1 1-0.3 0.5-0.7 0.9-1.2 1.3-0.1 0.1-0.3 0.2-0.1 0.4 0.3 0.3 0.2 0.7 0.4 1 0.1 0.4 0.1 0.8 0.4 1 0 0.3 0.2 0.6 0.2 0.9 0 0.7 0.1 1.4 0.5 2v0.2c-0.1 1 0.4 1.8 0.2 2.8-0.1 0.4 0.2 0.9 0 1.3-0.1 1.6-0.1 3.2-0.1 4.8-0.1 0.1-0.2 0.1-0.2 0.2 0 0.8-0.6 1.5-0.5 2.3 0.1 0.5 0 0.9 0 1.4 0 1.1-0.3 2.2-0.1 3.3 0.1 0.3 0.1 0.6 0 1-0.2 0.7-0.4 1.4-0.4 2.2-0.5 0.5-1.2 0.7-1.9 0.9h-0.3c-0.8-0.3-1.6-0.2-2.4 0 0 0-0.1 0.1-0.1 0.2-0.4 0.2-0.4 0.7-0.4 1-0.2 0.9 0 1.9 1 2.1 0.5 0.1 1 0 1.4-0.3l0.3 0.1c-0.1 0.4-0.4 0.6-0.8 0.8-0.6 0-1.2 0-1.7-0.5-0.1-0.1-0.3-0.1-0.4 0 0.1 0.2 0 0.4 0.2 0.5 0.4 0.2 0.9 0.5 1.4 0.4 0.7 0.2 1.6-0.2 1.8-1 0-0.2 0.3-0.5-0.2-0.5 0.1-0.3-0.3-0.9 0.4-0.9 0.2 0.1 0.1 0.4 0.3 0.5 0.2 0.6 0.2 1.3 0.6 1.8 0.3 1.8 0.1 3.5-0.8 5.2-0.1 0.2-0.3 0.4-0.5 0.6-0.1-0.1-0.2-0.1-0.2-0.2 0.4-0.5 0.6-1 0.8-1.6 0.3-1.3 0.4-2.6 0-3.9 0-0.1 0-0.3-0.2-0.4-0.2 0-0.2 0.2-0.3 0.3-0.2 0.5-0.8 0.7-1.1 0.9-0.5 0.2-1.2 0.1-1.8 0.3-0.1 0.1-0.4-0.2-0.5 0.1s0.3 0.2 0.4 0.3c0.1 0.3 0.1 0.6 0.1 0.9-0.2 0.8-0.1 1.5-0.1 2.3 0 0.4 0.2 0.6 0.4 0.8 0.1 0.1 0.2 0.2 0.4 0.2 0.4 0.1 0.8 0 1.2 0.2 0 0.1-0.1 0.2-0.1 0.2h-0.6c-1.1 0-1.8-0.7-2.4-1.5-0.6-0.9-0.8-2.1-0.7-3.2 0.1-0.8 0-1.5 0-2.3 0.2-0.4 0.1-0.9 0.3-1.1 0.6-0.6 0.6-1.3 0.6-2 0-0.3-0.1-0.4-0.4-0.4-1 0-2 0.1-3 0.2-0.1-0.1-0.3 0-0.4-0.1v-0.1c0.1-0.3 0.4-0.5 0.6-0.4 0.6 0.3 1.2-0.1 1.7 0 1.4 0 2.7-0.4 4.1-0.3 0.2 0 0.4 0 0.6 0.2 0.2 0.3 0.4 0.3 0.7 0 0.2-0.2 0.4-0.4 0.6-0.7 0.5-0.4 0.9-0.8 0.8-1.5 0-0.2 0-0.5 0.1-0.7 0.1-0.3 0.2-0.6 0-0.9-0.2-0.2-0.1-0.5 0-0.7 0.3-0.9 0.1-1.8 0-2.7 0-0.2-0.2-0.2-0.3-0.2-0.3-0.1-0.5 0.1-0.7 0.3-1.1 0.7-2.7 0.9-3.9 0.8-0.5-0.2-1.1-0.2-1.5-0.6-0.2-0.2-0.3-0.8-0.7-0.4-0.3 0.3-0.7 0.4-1 0.6-0.4 0-0.8 0.1-1.1 0.1-0.7 0.2-1.4 0-2 0.3h-0.5c-0.7-0.2-1.3-0.4-2-0.1-0.2 0.1-0.4 0.1-0.6 0.1-0.4 0-0.8-0.2-1.2-0.2s-0.8-0.1-1.2-0.3c-0.6-0.2-1.1-1.1-1.8-0.4-0.2 0.1-0.4 0.2-0.5 0.3-0.9 0.4-1.7 0.6-2.7 0.3-0.8-0.3-1.8-0.3-2.6-0.8-0.3-0.2-0.3 0.1-0.3 0.3 0 0.5 0.2 1 0.1 1.5-0.1 1 0.3 1.9 0.3 2.9 0 0.4 0.2 0.8 0.2 1.2 0 0.3 0.1 0.9 0.4 1.2 0.8 0.8 2.4 1 2.9 0.9 0.2 0 0.4 0 0.6-0.1 0.2 0 0.4 0.1 0.6 0.1 1.1 0 2.2-0.3 3.4-0.2 0.5 0.1 1 0.1 1.6-0.2 0.4-0.2 0.9-0.2 1.4-0.1s2.8 0.1 2.9 0.2 0.4 0 0.5 0.2v0.1h-0.1-1.1c-1 0.1-2-0.2-3 0.1-0.4 0.1-0.9-0.1-1.2 0.1h-1.1-1.3c-0.2 0-0.4-0.1-0.6 0.1 0 0.2-0.6 0-0.3 0.4v0.2c0 0.4-0.1 0.8 0 1.2-0.2 0.1-0.1 0.2 0 0.4s0.1 0.4 0.2 0.7c0 0.1 0 0.2 0.1 0.2 0 0.2-0.1 3.7-0.5 4.6 0 0-0.3 0.9-0.7 1.4-0.3 0-0.4 0.2-0.6 0.3-0.6 0.3-1.2 0.7-1.9 0.4-0.9-0.3-1.8-1.4-1.8-2.4v-1c-0.2-1.4-0.1-2.7 0-4 0-0.5 0.4-0.7 0.7-1 0.4-0.5 0.2-1.2-0.3-1.4-1.3-0.4-1.9-1.2-1.9-2.5 0-0.4-0.1-0.8-0.1-1.2v-0.2-0.2-0.2-0.9c0-0.1 0-0.2-0.1-0.2-0.7-2.1-0.3-3.7-0.8-5.2z"/>
	
	

<path class="st4" d="m50.9 71.8c-0.1 0-0.1 0.1-0.2 0.1 0 0 0.1 0 0.2-0.1z"/>
<path class="st0" d="m14.6 73.7h2.3c0.6 0.3 1.2 0.1 1.8 0.1 0.8 0 1.5-0.1 2.3-0.2 1.7-0.2 3.3-0.7 4.6-1.9 1.1-0.9 2-2.1 2.9-3.2 0.4-0.5 0.8-1 1.4-1.1 0.3-0.1 0.3-0.3 0.1-0.5-0.5-0.5 0-0.9 0-1.4 0-0.3 0.3-0.5 0.5 0 0.1 0.2 0.3 0.4 0.4 0.4 0.9 0.3 1.3 1.1 2 1.6 0.2 0.2 0.3 0.3 0 0.5-0.8 0.5-1.7 0.8-2.5 1.3-1 0.6-2.2 1.1-3 2.1-0.6 0.4-1.2 0.7-1.8 1.1-1 0.4-2 1-2.8 1.8h-0.1c-1.3 0.2-2.7 0.4-4 0.5s-2.5-0.1-3.7-0.4c-0.8-0.2-1.7-0.1-2.6-0.4-0.4-0.1-0.8-0.2-1.1-0.5 0.8 0 1.6 0 2.4 0.2 0.4 0.1 0.7 0.1 0.9 0z"/>
<path class="st4" d="m25.8 72.5c0.6-0.4 1.2-0.7 1.8-1.1 0.1 0.1 0.2 0.2 0 0.3-0.5 0.4-0.9 0.8-1.4 1.1-0.2 0.2-0.4 0-0.4-0.3z"/>
<path class="st4" d="m24.5 74.4c-0.3-0.2-0.5-0.2-0.3-0.4 0.3-0.3 0.5-0.7 1-0.9 0.1 0 0.4 0 0.2 0.2-0.3 0.4-0.6 0.8-0.9 1.1z"/>
<path class="st4" d="m35.2 68.4c-0.3 0.5-0.8 0.4-1.3 0.5-0.1 0-0.2-0.1-0.2-0.2 0-0.2 0.1-0.3 0.3-0.3 0.4-0.1 0.8 0 1.2 0z"/>
<path class="st4" d="m30.5 64.6c0.2-0.2 0.2-0.5 0.6-0.5l0.2 0.2-0.3 0.6c-0.3 0-0.4-0.1-0.5-0.3z"/>
<path class="st3" d="m37.5 64c0.3-0.1 0.5 0.2 0.7 0.4v0.2c-0.3 0.1-0.5-0.1-0.7-0.2-0.1-0.2 0-0.3 0-0.4z"/>
<path class="st4" d="m23 74.3h0.1c0.2 0.1 0.4 0 0.4 0.3 0 0.1-0.1 0.2-0.2 0.2-0.4 0-0.3-0.3-0.3-0.5z"/>
<path class="st1" d="m36.4 65.1c0.2 0.2 0.4 0.3 0.6 0.7-0.4-0.2-0.7-0.3-0.6-0.7z"/>
<path class="st0" d="m26.2 51.5c0 0.1 0 0.1-0.1 0.2 0-0.1-0.1-0.1-0.1-0.2h0.2z"/>
<path class="st1" d="m14.6 73.7c-0.2 0.2-0.4 0.2-0.7 0 0.2-0.1 0.5-0.1 0.7 0z"/>
<path class="st1" d="m15.7 73.3c0-0.1 0.1-0.1 0.2-0.1-0.1 0-0.1 0-0.2 0.1z"/>
<path class="st1" d="m23.1 57.5c-0.2 0.4 0 0.9-0.3 1.3-0.4-0.3-0.3-0.8-0.2-1.2 0-0.4 0.3-0.1 0.5-0.1z"/>
<path class="st1" d="m23.4 56.5c0.2 0.3 0 0.4-0.2 0.5-0.2-0.3-0.1-0.4 0.2-0.5z"/>
<path class="st1" d="m22.8 59.3c0 0.1 0 0.1-0.1 0.2 0-0.1 0.1-0.2 0.1-0.2z"/>
<path class="st1" d="m22.9 68.8c-1.1 1.1-2.4 1.9-3.8 2.6-1.1 0.6-2.2 1.1-3.4 1.4-0.2 0.1-0.4 0.1-0.7-0.1 0.9-0.4 1.7-0.8 2.6-1.2 0.7-0.3 1.3-0.8 1.8-1.4 1.2-1.5 2.6-2.8 3.6-4.4 0.1-0.2 0.2-0.3 0.3-0.5 0.1-0.1 0.1-0.3 0.3-0.2 0.1 0.1 0.1 0.2 0 0.3-0.5 0.9-1 1.7-1.7 2.5-0.8 0.9-1.6 1.8-2.3 2.7 1.2-0.5 2.2-1.3 3.2-2 0 0.2 0 0.2 0.1 0.3z"/>
<path class="st1" d="m23.9 67.7c0.2-0.5 0.2-0.5 0.6-0.4 0.2 0 0.2-0.1 0.3-0.2l1.2-1.2c0.4-0.4 0.6-0.8 1.1-1.2-0.1 0.8-0.8 1.3-1.2 1.9 1-0.5 1.6-1.4 2.4-2.1 0.2 0.2 0 0.3-0.1 0.4-0.8 0.9-1.8 1.8-2.7 2.5-0.4 0.4-1 0.6-1.5 0.7 0-0.1 0.3-0.3-0.1-0.4z"/>
<path class="st1" d="m27.8 56.3c0.3-1.3 1.3-2 2.5-2.2 0.7-0.1 1.6 0.2 2.3 0.5 0.6 0.2 1.1 0.6 1.6 1 0.2 0.1 0.2 0.3 0.1 0.4-0.1 0.2-0.3 0.1-0.4 0-0.6-0.6-1.3-1-2.1-1.2-1.3-0.3-2.6-0.5-3.6 1-0.1 0.1-0.3 0.3-0.4 0.5z"/>
<path class="st1" d="m26.5 53.9c0.7-1.4 2-1.9 3.3-1.6 1.2 0.3 2.2 1.1 3.4 1.5 0.1 0.1 0.3 0.2 0.1 0.3-0.1 0.1-0.2 0.3-0.3 0.1-0.4-0.6-1.2-0.6-1.8-0.9-0.4-0.2-0.7-0.6-1.2-0.7-1.8-0.1-2.1 0.1-3.5 1.3z"/>
<path class="st1" d="m28.2 50.8c1-0.1 2 0.1 2.9 0.6 1 0.5 2 1.1 2.7 2 0.1 0.1 0.3 0.2 0.2 0.4-0.2 0.2-0.3 0-0.4-0.1-0.8-0.9-1.8-1.5-2.8-2-0.5-0.2-1.1-0.4-1.6-0.5-0.3 0-0.6-0.1-0.9-0.1-0.1-0.2-0.1-0.2-0.1-0.3z"/>
<path class="st4" d="m23.9 67.7c0.4 0.1 0.2 0.3 0.1 0.5-0.4 0.2-0.7 0.4-1.1 0.6 0-0.1-0.1-0.1-0.1-0.2 0.3-0.3 0.7-0.6 1.1-0.9z"/>
<path class="st1" d="m33 60.6c0.4-0.1 0.7-0.3 1.1-0.3 0.1 0 0.2 0 0.2 0.2 0 0.1-0.1 0.2-0.2 0.2-0.4 0.2-0.8 0.2-1.1-0.1z"/>
<path class="st1" d="m36.9 60.2c0 0.2-0.2 0.4-0.2 0.3-0.2-0.3-0.7-0.3-0.8-0.7 0-0.1 0.1-0.2 0.2-0.2 0.3 0.3 0.7 0.3 0.8 0.6z"/>
<path class="st1" d="m32.6 58.5c0.2 0 0.4 0.1 0.4 0.3s-0.2 0.2-0.4 0.2-0.3-0.2-0.3-0.3c0-0.2 0.2-0.2 0.3-0.2z"/>
<path class="st1" d="m31 62c0-0.4 0.2-0.6 0.6-0.5 0.1 0 0.2 0.1 0.2 0.2-0.2 0.4-0.6 0.1-0.8 0.3z"/>
<path class="st1" d="m32.1 56.4c-0.5 0.1-0.8 0.1-1.2-0.1 0.3-0.1 0.7-0.2 1.2 0.1z"/>
<path class="st1" d="m30.8 59.8c-0.1 0.2-0.2 0.3-0.4 0.3-0.1 0-0.2-0.1-0.1-0.2 0.1-0.2 0.2-0.3 0.4-0.3 0.1 0 0.1 0.1 0.1 0.2z"/>
<path class="st1" d="m27.1 51.4c0.1-0.3 0.3-0.3 0.5-0.3 0.1 0 0.1 0.1 0.1 0.2-0.2 0.2-0.3 0.1-0.6 0.1z"/>
<path class="st1" d="m37.3 60c0 0.1-0.1 0.1-0.1 0.1 0-0.1 0.1-0.1 0.1-0.1z"/>
<path class="st2" d="m49.9 47.2c-0.7-0.1-1.4-0.1-1.9-0.7-0.2-0.2-0.2-0.3 0-0.5 0.7-0.8 1.6-0.9 2.6-0.7 0.4 0.1 0.8 0.3 1.3 0.4s0.4 0.4 0.3 0.7-0.4 0.5-0.7 0.6c-0.6 0.1-1.1 0.1-1.6 0.2z"/>
<path class="st0" d="m58.7 29.6c-0.1 0-0.1-0.1 0 0 0-0.3-0.2-0.5-0.4-0.7 0.1-0.3-0.1-0.6-0.1-0.8 0.1 0 0.1 0 0.2-0.1 0.2-0.2 0.3-0.5 0.7-0.4s0.4 0.4 0.6 0.8c0.2 0.5-0.2 0.8-0.2 1.1-0.1 0-0.1 0.1-0.2 0.1-0.3-0.2-0.5-0.1-0.6 0z"/>
<path class="st3" d="m59.4 29.5c0-0.4 0.4-0.7 0.2-1.1-0.1-0.3-0.2-0.6-0.6-0.8-0.4-0.1-0.5 0.2-0.7 0.4 0 0-0.1 0-0.2 0.1 0-0.6 0.4-0.8 1-0.8s0.8 0.4 0.8 0.8c0.1 0.3 0 0.6 0 1-0.1 0.1-0.3 0.2-0.5 0.4z"/>
<path class="st0" d="m57.1 29.2c-0.1 0-0.1-0.1-0.2-0.1-0.2-0.7 0-1.3 0.4-1.8 0.2-0.1 0.3-0.1 0.5-0.2 0.1 0.5-0.6 0.7-0.6 1.2 0 0.2-0.1 0.4-0.1 0.7 0.1 0 0 0.1 0 0.2z"/>
<path class="st1" d="m58.1 28.1c0 0.3 0.2 0.5 0.1 0.8v0.6c-0.5-0.4-0.5-1.1-0.1-1.4z"/>
<path class="st1" d="m59.4 29.5c0.2-0.1 0.4-0.3 0.6-0.4h0.3c0 0.3-0.5 0.4-0.5 0.7h-0.2c-0.1-0.2-0.3-0.1-0.5-0.1v-0.2c0.1 0.1 0.2 0 0.3 0z"/>
<path class="st3" d="m58.2 29.5v-0.6c0.3 0.1 0.4 0.3 0.4 0.6h-0.4z"/>
<path class="st3" d="m59.2 29.6v0.2c-0.2 0-0.4 0-0.5-0.2 0.1-0.1 0.3-0.2 0.5 0z"/>
<path class="st2" d="m43.6 28.9v-1.1c0.5-0.3 0.9 0 1.3 0.2 0.2 0.1 0.2 0.3 0.1 0.4-0.2 0.6-0.7 1.1-1.4 1.1-0.1-0.2 0.3-0.4 0-0.6z"/>
<path class="st3" d="m43.6 28.9c0.3 0.2-0.1 0.4 0 0.6-0.1 0.3-0.4 0.4-0.7 0.3s-0.5-0.1-0.8-0.1-0.3 0-0.3-0.4c0-0.2-0.3-0.3-0.2-0.6 0.4 0.3 0.7 0.1 1-0.2v0.5c-0.1 0.1-0.1 0.3 0.1 0.3 0.1 0.1 0.3 0.1 0.4-0.1 0.2 0 0.4-0.2 0.5-0.3z"/>
<path class="st0" d="m42.7 28.6c-0.3 0.3-0.6 0.5-1 0.2v-0.3c0.1-0.1 0.1-0.3-0.1-0.3 0-0.2 0.1-0.3 0.1-0.5 0.3-0.1 0.6-0.2 0.9 0 0 0.1 0.1 0.2 0.1 0.2v0.7z"/>
<path class="st3" d="m41.6 28.2c0.2 0.1 0.2 0.2 0.1 0.3h-0.2c0-0.2 0.1-0.2 0.1-0.3z"/>
<path class="st1" d="m42.7 28.6v-0.7c0.3 0.1 0.3 0.3 0.3 0.5 0 0.3 0 0.6 0.1 0.9-0.1 0.2-0.2 0.2-0.4 0.1s-0.1-0.2-0.1-0.3c0.1-0.1 0.1-0.3 0.1-0.5z"/>
<path class="st3" d="m42.6 27.7c-0.3-0.2-0.6-0.1-0.9 0-0.1-0.3 0.1-0.4 0.4-0.4 0.3-0.1 0.5 0 0.5 0.4z"/>
<path class="st2" d="m57.3 27.3c-0.4 0.5-0.7 1.1-0.4 1.8-0.1 0.1-0.2 0.2-0.3 0.2-0.4-0.2-0.5-0.7-0.8-0.9-0.1-0.1-0.1-0.2 0-0.3 0.5-0.3 0.9-0.8 1.5-0.8z"/>
</svg>
