<?xml version="1.0" encoding="UTF-8"?>
<svg width="89.55px" height="86.94px" enable-background="new 0 0 101.6 104.8" version="1.1" viewBox="5.28 9.4 89.55 86.8" xml:space="preserve" xmlns="http://www.w3.org/2000/svg">
<style type="text/css">
	.st0{fill-rule:evenodd;clip-rule:evenodd;fill:#463830;}
	.st1{fill-rule:evenodd;clip-rule:evenodd;fill:#969BA7;}
	.st2{fill-rule:evenodd;clip-rule:evenodd;fill:#6AA5D5;}
	.st3{fill-rule:evenodd;clip-rule:evenodd;fill:#FFFFFF;}
	.st4{fill-rule:evenodd;clip-rule:evenodd;fill:#FCBD74;}
	.st5{fill-rule:evenodd;clip-rule:evenodd;fill:#478C96;}
	.st6{fill-rule:evenodd;clip-rule:evenodd;fill:#5F0D13;}
	.st7{fill-rule:evenodd;clip-rule:evenodd;fill:#7FCDEF;}
	.st8{fill-rule:evenodd;clip-rule:evenodd;fill:#1C77B8;}
	.st9{fill-rule:evenodd;clip-rule:evenodd;fill:#D71F27;}
	.st10{fill-rule:evenodd;clip-rule:evenodd;fill:#D42027;}
	.st11{fill-rule:evenodd;clip-rule:evenodd;fill:#937992;}
	.st12{fill-rule:evenodd;clip-rule:evenodd;fill:#A2A2A4;}
	.st13{fill-rule:evenodd;clip-rule:evenodd;fill:#16498C;}
	.st14{fill-rule:evenodd;clip-rule:evenodd;fill:#BABBBC;}
	.st15{fill-rule:evenodd;clip-rule:evenodd;fill:#248DCD;}
	.st16{fill-rule:evenodd;clip-rule:evenodd;fill:#D52027;}
	.st17{fill-rule:evenodd;clip-rule:evenodd;fill:#B4AC61;}
</style>
	<path class="st0" d="m65.7 88.3c-1-0.3-1.6-1.4-1.3-2.5 0.1-0.2 0.2-0.5 0.4-0.7 2 0 2.2 2.3 0.9 3.2"/>
	<path class="st0" d="m33.4 82c-0.4-1.6-1.5-2.4-1.3-4.5 4.7-3.6 7.6 5.8 1.3 4.5"/>
	<path class="st0" d="m75.1 73h-1.3c-1.1-1.1-1.2-2.7-0.4-4 2.4-0.6 2.7 2.6 1.7 4"/>
	<path class="st0" d="m35.2 65.4c1.5 0.2 2 1.3 3.1 1.8 0.8 9.3-9.7 1.7-3.1-1.8"/>
	<path class="st0" d="m25.8 71.7c-1.3-0.6-2-1.9-2.2-3.6 0.8-0.5 1.5-1.1 2.2-1.8 2.1 0.9 2 4.3 0 5.4"/>
	<path class="st0" d="m82.8 60.4c7 1.4-0.7 9.5-1.3 3.1-0.2-1.5 0.4-1.7 1.3-3.1"/>
	<path class="st0" d="m91.3 65.8c-2.8 0.3-2.9-1.6-2.2-2.7 1.2 0.4 2.5 0.8 2.2 2.7"/>
	<path class="st0" d="m75.5 65c-1.4-0.3-2.6-0.7-2.7-2.2 0.8 0 0.3-1.5 1.3-1.3 1.9-0.3 2.3 2.4 1.4 3.5"/>
	<path class="st0" d="m24.9 63.6c-1.1-1.3-1.6-3.7-0.4-4.9 3.8-0.9 4 5.4 0.4 4.9"/>
	<path class="st0" d="m45.3 64c-2.2 0.1-2.4-1.8-2.7-3.6 0.6-0.2 0.7-0.8 1.3-0.9 2.2-0.3 2.2 3.2 1.4 4.5"/>
	<path class="st0" d="m36.5 62.7c-1.5-0.1-2.8-0.9-3.6-2.2 0.1-1.2 0.8-2.2 1.8-2.7 3.1-0.3 3.1 3.1 1.8 4.9"/>
	<path class="st0" d="m18.6 64.4c-1.9 0.5-1.8-3.5-0.4-3.6 1.9 0 1.4 2.9 0.4 3.6"/>
	<path class="st0" d="m89.5 52.4c2.1-0.3 3 0.6 4 1.3 1.3 8.4-8.6 2.1-4-1.3"/>
	<path class="st0" d="m80.1 52.4c11.1-1.1 0.6 11.3 0 0"/>
	<path class="st0" d="m26.7 55.5c-1.6 0.3-1.7-1-3.1-0.9-0.6-2.5 1-2.9 1.8-4 2.5-0.1 1.6 3.1 1.3 4.9"/>
	<path class="st0" d="m32.5 53.7c-0.3-1.4 0.5-1.6 0.4-2.7h3.1c2 2.9-1.6 4.8-3.5 2.7"/>
	<path class="st0" d="m15.4 53.3c0.2-1.7 0.4-3.5 2.2-3.6 0 0.4 0.5 0.3 0.9 0.5 0.7 0.7 0.4 2.3 0.4 3.6-1 0.5-2.5 0.4-3.5-0.5"/>
	<path class="st0" d="m34.6 41.3c4.8 4.8-5.3 7.7-2.7 0.4 1.4 0.3 1.3-0.8 2.7-0.4"/>
	<path class="st0" d="m85 46.5c-2.2-0.4-3.4-1.7-3.1-4.5 3.2-4.2 7.9 3 3.1 4.5"/>
	<path class="st0" d="m28.5 46.1c-2.5 0.2-3.8-0.7-3.6-3.1 1.7-1.9 5 0.6 3.6 3.1"/>
	<path class="st0" d="m89.9 45.6c-0.6-2.5 2.2-3.5 3.6-2.7 0 2.1-1.1 3.1-3.6 2.7"/>
	<path class="st0" d="m90.4 37.6c-0.7-1.8-2-3.8-0.4-5.4 2-0.1 3.1 0.8 4.5 1.3 0.6 3.3-1 4.5-4.1 4.1"/>
	<path class="st0" d="m82.3 31.7c0.7-0.2 1.1-0.7 1.8-0.9 6.8 1.7-2.4 9.1-1.8 0.9"/>
	<path class="st0" d="m25.3 34.4c0.1-1.2 0.8-2.2 1.8-2.7 4.6 0.8 0.9 6.3-1.8 2.7"/>
	<path class="st0" d="m35.9 35.3c-1.5-0.2-1.3-4 0.9-3.1 1.1 1.1-0.1 2.5-0.9 3.1"/>
	<path class="st0" d="m8.8 35.3c-1.8 0.2-2.3-2.4-1.3-3.6 1 0.5 2.3 2.3 1.3 3.6"/>
	<path class="st0" d="m91.7 27.7c-2.7-0.4-1.2-5.6 0.9-5.4 2.9 0.6 2.5 3.1 0.9 4.9-0.8 0.2-1.9-1.3-1.8 0.5"/>
	<path class="st0" d="m28.5 20.9c0 0.4 0.5 0.3 0.9 0.4 3.2 9.4-9.4 1.2-0.9-0.4"/>
	<path class="st0" d="m83.2 20c1.5-0.1 2.9 0.4 4 1.3 1.6 8.2-8.1 2.9-4-1.3"/>
	<path class="st0" d="m37.7 25.4c-2.5-0.4-3.5-3.2-0.4-3.6 0.9 1 1.1 2.5 0.4 3.6"/>
	<path class="st0" d="m91.3 12.4c0.7 0.1 0.8-0.4 1.3-0.4 6.7 2.7-4.1 8.1-1.3 0.4"/>
	<path class="st0" d="m82.3 15.7v-4c0.6 0.1 1.2-0.3 1.3-0.9 6.5 0 3.4 9.3-1.3 4.9"/>
	<path class="st0" d="m25.3 10.6c0.9-0.4 1.8-0.7 2.7-0.9 5.2 3.5-3.2 8.5-2.7 0.9"/>
	<path class="st0" d="m33.4 10.6c1.1-1.1 2.7-1.2 4-0.4 0.6 3.4-4.7 5.4-4 0.4"/>
	<path class="st0" d="m62.1 79.3c1.9-4.3 8.1 0.9 4 3.6-1.9 1-4.8-2-4-3.6"/>
	<path class="st0" d="m81.4 74.4c-2.1-3.4 1.8-7.3 4.5-4.5-0.2 2.7-1 4.9-4.5 4.5"/>
	<path class="st0" d="m45 53.5c-1.1-1.3-1.6-3.7-0.5-4.9 4-0.9 4.2 5.3 0.5 4.9"/>
	<path class="st0" d="m46.8 45.4c-1.6 0.3-1.7-1-3.1-0.9-0.6-2.5 1-2.9 1.8-4 2.6-0.1 1.7 3.1 1.3 4.9"/>
	<path class="st0" d="m46.1 36c-2.5 0.2-3.8-0.7-3.6-3.1 1.8-1.9 5.1 0.5 3.6 3.1"/>
	<path class="st0" d="m47 11.3c0.1 0.2 0.1 0.4 0.2 0.6 0.3 0.9 0.4 1.8 0.3 2.8-0.4 1.5-2.1 1.2-3.2 0.3-0.9-0.7-1.5-1.9-0.8-2.8 0.5-0.5 1.2-0.9 1.9-1.1 0.5-0.2 1.1-0.1 1.6 0.2"/>
	<path class="st0" d="m56.7 59.9c7 1.4-0.7 9.5-1.3 3.1-0.2-1.5 0.5-1.7 1.3-3.1"/>
	<path class="st0" d="m56.1 47.1c-2.2-0.4-3.4-1.7-3.1-4.5 3.3-4.2 8 2.9 3.1 4.5"/>
	<path class="st0" d="m53.4 32.2c0.7-0.2 1.1-0.7 1.8-0.9 6.8 1.7-2.3 9.1-1.8 0.9"/>
	<path class="st0" d="m53.4 14.3c-0.3-0.8-0.4-1.7-0.5-2.5 0-0.5 0.2-1.1 0.5-1.5 0.4-0.4 0.8-0.7 1.3-0.9 6.5 0 3.4 9.3-1.3 4.9"/>
	<path class="st0" d="m65.5 74.5c-1.9 0.5-1.8-3.5-0.4-3.6 1.9 0 1.4 3 0.4 3.6"/>
	<path class="st0" d="m62.4 65.1c0.2-1.7 0.4-3.5 2.2-3.6 0 0.4 0.5 0.3 0.9 0.5 0.7 0.7 0.4 2.3 0.5 3.6-1.2 0.5-2.7 0.4-3.6-0.5"/>
	<path class="st0" d="m66.4 54.9c-0.6 1.3-1.5-0.8-2.7-0.4-2.8-6.8 7.9-3.6 2.7 0.4"/>
	<path class="st0" d="m63.7 45.1c-0.1-1.8 0-3.3 0.9-4 1.5-0.3 2.1 0.3 3.1 0.4-0.4 1.3 0.6 1.2 0.4 2.2-1.1 1.1-2.8 1.6-4.4 1.4"/>
	<path class="st0" d="m67.8 34.4c-0.9-0.4-1.8-0.4-2.7 0-0.7-1.6-1.2-3.2 0-4.5 2.9-0.3 4.4 2.6 2.7 4.5"/>
	<path class="st0" d="m63.8 23.6c0.2-1.7 0.4-3.5 2.2-3.6 0 0.4 0.5 0.3 0.9 0.5 0.7 0.7 0.4 2.3 0.4 3.6-1 0.6-2.5 0.4-3.5-0.5"/>
	<path class="st0" d="m63.9 14.3c-0.1-1.8 0-3.3 0.9-4 1.5-0.3 2.1 0.3 3.1 0.4-0.4 1.3 0.6 1.2 0.4 2.2-1.1 1.2-2.7 1.7-4.4 1.4"/>
	<path class="st0" d="m74.1 11.5c0.6-1.3 1.5 0.8 2.7 0.4 2.9 6.9-7.8 3.6-2.7-0.4"/>
	<path class="st0" d="m76.8 19.2c0.1 1.8 0 3.3-0.9 4-1.5 0.3-2.1-0.3-3.1-0.4 0.4-1.3-0.6-1.2-0.4-2.2 1.2-1.2 2.8-1.7 4.4-1.4"/>
	<path class="st0" d="m72.8 28.6c0.9 0.4 1.8 0.4 2.7 0 0.7 1.6 1.2 3.2 0 4.5-2.9 0.2-4.5-2.6-2.7-4.5"/>
	<path class="st0" d="m76.7 39.3c-0.2 1.7-0.4 3.5-2.2 3.6 0-0.4-0.5-0.3-0.9-0.5-0.7-0.7-0.4-2.3-0.4-3.6 1.1-0.5 2.5-0.4 3.5 0.5"/>
	<path class="st0" d="m73.9 47c0.6-1.3 1.5 0.8 2.7 0.4 2.8 6.9-7.8 3.6-2.7-0.4"/>
	<path class="st0" d="m76.6 53.1c0.1 1.8 0 3.3-0.9 4-1.5 0.3-2.1-0.3-3.1-0.4 0.4-1.3-0.6-1.2-0.4-2.2 1.1-1.2 2.8-1.7 4.4-1.4"/>
	<path class="st0" d="m85.1 89.7c-1.9-0.1-3-0.8-2.7-3.1 1.8-0.4 2.3-0.5 3.6 0.4 0.2 1.4-0.7 1.8-0.9 2.7"/>
	<path class="st0" d="m91.6 89c-1-0.3-1.6-1.4-1.3-2.5 0.1-0.2 0.2-0.5 0.4-0.7 2.1 0 2.2 2.4 0.9 3.2"/>
	<path class="st0" d="m24.7 83c7 1.4-0.7 9.5-1.3 3.1-0.2-1.6 0.4-1.7 1.3-3.1"/>
	<path class="st0" d="m35.7 88.4c-2.8 0.3-2.9-1.6-2.2-2.7 1.3 0.4 2.6 0.7 2.2 2.7"/>
	<path class="st0" d="m17.4 87.6c-1.4-0.3-2.6-0.7-2.7-2.2 0.8-0.1 0.3-1.5 1.3-1.3 1.9-0.3 2.4 2.3 1.4 3.5"/>
	<path class="st0" d="m6.1 86.6c0.2-1.7 0.4-3.5 2.2-3.6 0 0.4 0.5 0.3 0.9 0.4 0.7 0.7 0.4 2.3 0.5 3.6-1.2 0.7-2.6 0.5-3.6-0.4"/>
	<path class="st0" d="m15.6 69.3c-0.2-1.8 0.5-2.8 2.2-2.7 1.1 1.3 0.1 3.4-2.2 2.7"/>
	<path class="st0" d="m10.5 57.9c-1.6 13-10.9-5.9 0 0"/>
	<path class="st0" d="m7.6 66.8c0.5 0.1 0.8-0.1 0.9-0.4 4.4 0.5 3.8 6 0.4 5.8-2-0.2-2.8-4-1.3-5.4"/>
	<path class="st0" d="m8.2 53.2c-0.7-1.8-2-3.8-0.4-5.4 2-0.1 3.1 0.8 4.5 1.3 0.6 3.3-1 4.5-4.1 4.1"/>
	<path class="st0" d="m89.2 80.9c-0.1-1.8 0-3.3 0.9-4 1.5-0.3 2.1 0.3 3.1 0.4-0.4 1.3 0.6 1.2 0.4 2.2-1.1 1.2-2.8 1.7-4.4 1.4"/>
	<path class="st0" d="m90.9 69.4c0.6-1.3 1.5 0.8 2.7 0.4 2.8 6.9-7.9 3.6-2.7-0.4"/>
	<path class="st0" d="m8.8 43.5c-0.6 1.3-1.5-0.8-2.7-0.4-2.8-6.9 7.8-3.6 2.7 0.4"/>
	<path class="st0" d="m8.9 25.2c-1.9-0.1-3-0.8-2.7-3.1 1.8-0.4 2.3-0.5 3.6 0.4 0.2 1.4-0.6 1.8-0.9 2.7"/>
	<path class="st0" d="m19.1 13.9c-1.7 0-3.1-1.3-3.1-3v-0.1c1.2-0.8 2.6-1.1 4-0.9 0.2 1.4-0.1 2.8-0.9 4"/>
	<path class="st0" d="m6.8 15.7c-2.1-3.4 1.8-7.3 4.5-4.5-0.3 2.8-1.1 5-4.5 4.5"/>
	<path class="st0" d="m57.3 72.7c-0.2-1.4 0.6-1.8 1.3-2.2 4.6 0.2 0.6 6-1.3 2.2"/>
	<path class="st0" d="m42.4 87.3c-0.3-1.4 0.5-1.6 0.4-2.7h3.2c1.9 2.9-1.6 4.8-3.6 2.7"/>
	<path class="st0" d="m54.3 88.6c-0.6 1.3-1.5-0.8-2.7-0.4-2.8-6.9 7.8-3.7 2.7 0.4"/>
	<path class="st0" d="m78.6 74.6c1.7 0 3.3 0.6 4.7 1.6 1.3 1.1 2.2 2.4 2.8 4 0.2 1.4 0 2.8-0.6 4-0.1 0.3-0.2 0.7-0.3 0.9-0.4 0.6-0.9 1.2-1.4 1.7-1.6 1.6-3.8 2.5-6 2.6-1.6 0-3.2-0.7-4.2-2-1.4-1.7-2.1-4.3-1.1-7.5 0.5-1.6 1.5-3.6 2.7-4.4 1-0.6 2.2-0.8 3.4-0.9m0.7 13.7 1.2-0.6c1.4-0.7 2.5-1.8 3.3-3.1 0.7-1.2 1.2-2.4 1.5-3.8 0-1-0.4-2-1-2.7s-1.4-1.3-2.2-1.9c-1.2-0.9-2.7-1.1-4.1-0.5-0.9 0.7-1.8 1.5-2.5 2.5-0.6 1.2-0.9 2.5-1.1 3.8-0.2 0.7-0.4 1.3-0.5 2 0 0.7 0.3 1.1 0.2 1.8 1 2 3.1 3 5.2 2.5"/>
	<path class="st0" d="m79.7 75.7c0.1 0.2 0 0.5-0.2 0.6-0.3 0-0.4-0.2-0.4-0.6 0.2-0.1 0.4-0.1 0.6 0"/>
	<path class="st0" d="m81.2 76.1c0.1 0.2-0.1 0.4-0.3 0.5-0.1 0-0.3 0-0.4-0.1 0.1-0.4 0.4-0.7 0.7-0.4"/>
	<path class="st0" d="m82.3 76.7c-0.1 0-0.2 0.1-0.4 0 0.1-0.2-0.1-0.2 0-0.4 0.4 0 0.5 0.1 0.4 0.4"/>
	<path class="st0" d="m80.2 83.9c-0.6-0.1-1.2-0.1-1.8-0.1-0.1-1 0.2-2 1-2.8 0.5-0.6 1.3-0.9 1.5-1.4 0.2-1.1-0.4-2.1-1.5-2.4h-0.1c-1 0-0.9 1.5-1.1 2.5-0.5-0.2-1.1 0-1.6-0.2 0-0.8 0.2-1.6 0.6-2.3 0.7-0.3 1.4-0.6 2.1-0.7 1.1 0.2 2.1 0.8 2.8 1.7 0.4 0.8 0.3 1.8-0.2 2.6-0.5 0.6-1.5 0.9-1.7 1.7v1.4"/>
	<path class="st0" d="m77.8 76.4c0.1 0 0.3 0 0.3 0.1 0 0.2-0.5 0.1-0.3-0.1"/>
	<path class="st0" d="m82.6 77.3c0 0.5-0.3 0.5-0.6 0.4 0-0.5 0.3-0.6 0.6-0.4"/>
	<path class="st0" d="m83.2 77.5c0.3 0 0.5 0.1 0.4 0.5-0.2 0-0.3-0.1-0.5-0.1 0-0.1 0-0.3 0.1-0.4"/>
	<path class="st0" d="m79.1 78.5c-0.2-0.3 0.2-0.8 0.5-0.4-0.1 0.3-0.2 0.5-0.5 0.4"/>
	<path class="st0" d="m80.5 78.4v0.4h-0.3c0-0.3 0.1-0.4 0.3-0.4"/>
	<path class="st0" d="m83.7 79.1c0 0.2-0.1 0.5-0.4 0.5h-0.3c-0.1-0.2 0-0.4 0.1-0.5 0.2-0.1 0.4-0.1 0.6 0"/>
	<path class="st0" d="m84.8 79.5c0 0.3-0.6 0.2-0.7 0 0-0.4 0.7-0.3 0.7 0"/>
	<path class="st0" d="m75.9 78.5h0.4c0 0.2 0.2 0.3 0 0.5-0.4-0.1-0.5-0.2-0.4-0.5"/>
	<path class="st0" d="m79.6 79c0.1 0.2 0 0.7-0.3 0.6-0.2 0.1 0-0.2-0.2-0.1 0-0.4 0.1-0.6 0.5-0.5"/>
	<path class="st0" d="m80.7 79.2c0 0.4-0.3 0.4-0.7 0.3 0-0.2 0-0.4 0.1-0.5 0.2 0.1 0.5 0.1 0.6 0.2"/>
	<path class="st0" d="m84.8 80.8c0 0.4-0.2 0.5-0.6 0.4-0.3-0.4 0.3-0.8 0.6-0.4"/>
	<path class="st0" d="m75.4 79.7c0.5 0 0.4 0.5 0.2 0.7-0.2 0-0.3 0-0.5-0.1 0-0.3 0.1-0.6 0.3-0.6"/>
	<path class="st0" d="m83.8 80.9c-0.1 0.3-0.3 0.4-0.7 0.3-0.5-0.4 0.5-0.9 0.7-0.3"/>
	<path class="st0" d="m79 80.2c0.3 0 0.6 0 0.4 0.3-0.2-0.1-0.4 0.1-0.5-0.1 0 0 0.1 0 0.1-0.2"/>
	<path class="st0" d="m76.8 80.1c0 0.1-0.1 0.3 0 0.4-0.2 0-0.4 0-0.5-0.1v-0.3c0.1-0.1 0.3 0 0.5 0"/>
	<path class="st0" d="m77.8 80.3c0.3 0 0.3 0.1 0.6 0.1 0 0.3-0.2 0.4-0.6 0.4-0.1-0.1 0-0.3 0-0.5"/>
	<path class="st0" d="m82.7 81c-0.4 1.3-1.1-0.6 0 0"/>
	<path class="st0" d="m76.8 81.1c0.1 0.2 0.1 0.7-0.3 0.7-0.3-0.1-0.1-0.8 0.3-0.7"/>
	<path class="st0" d="m78.3 81.4c0 0.2-0.1 0.3-0.2 0.5-0.2 0-0.4-0.1-0.5-0.2 0-0.5 0.5-0.5 0.7-0.3"/>
	<path class="st0" d="m75.8 81.3c0.2 0.3-0.1 0.9-0.4 0.6-0.2 0 0-0.4-0.1-0.5 0.1-0.2 0.3-0.2 0.5-0.1"/>
	<path class="st0" d="m84.4 82.3c0 0.3-0.1 0.5-0.5 0.4-0.1-0.1-0.1-0.3 0.1-0.4 0.2-0.2 0.3-0.1 0.4 0"/>
	<path class="st0" d="m83 82.1c0.2 0 0.4 0.1 0.6 0.2 0 0.2-0.1 0.3-0.2 0.4-0.2 0-0.4 0-0.5-0.2 0-0.2 0.2-0.2 0.1-0.4"/>
	<path class="st0" d="m82.5 82.3c0.1 0.2 0.1 0.5-0.1 0.6-0.6 0.2-0.6-0.8 0.1-0.6"/>
	<path class="st0" d="m81.6 82.4c0.1 0.3 0 0.6-0.3 0.7h-0.2c-0.2-0.1-0.2-0.4-0.2-0.7 0.2 0 0.4-0.1 0.7 0"/>
	<path class="st0" d="m77.6 82.5c0.2 0 0.3 0.1 0.5 0.1 0 0.3-0.1 0.5-0.2 0.5-0.5-0.1-0.2-0.4-0.3-0.6"/>
	<path class="st0" d="m76.9 82.8v0.4c-0.2 0.1-0.4 0.1-0.5-0.1-0.2-0.4 0.2-0.5 0.5-0.3"/>
	<path class="st0" d="m75.7 82.9c0.1 0.2 0 0.4-0.1 0.6-0.2 0-0.4 0-0.6-0.1 0-0.3 0.2-0.5 0.5-0.5 0.1-0.1 0.2-0.1 0.2 0"/>
	<path class="st0" d="m83.3 83.7c0.3 0 0.5 0.1 0.4 0.5-0.3 0.1-0.7-0.2-0.4-0.5"/>
	<path class="st0" d="m82.8 84.4c-0.1 0.2-0.3 0.3-0.5 0.3 0-0.2-0.2-0.2-0.3-0.3 0.1-0.5 0.9-0.4 0.8 0"/>
	<path class="st0" d="m81.4 84.5c-0.1 0.1-0.4 0-0.5 0-0.3-0.7 0.8-0.7 0.5 0"/>
	<path class="st0" d="m78 84c0 0.2 0 0.5-0.2 0.6-0.2 0-0.3-0.1-0.4-0.1 0.1-0.5 0.3-0.7 0.6-0.5"/>
	<path class="st0" d="m76.7 83.8c0.2 0.3 0.1 0.7-0.1 0.9-0.3-0.1-0.4-0.5-0.3-0.8 0.2 0 0.2-0.1 0.4-0.1"/>
	<path class="st0" d="m74.9 83.7c0 0.1 0 0.2 0.1 0.2 0 0.3-0.1 0.4-0.2 0.6h-0.4c0-0.5 0-1 0.5-0.8"/>
	<path class="st0" d="m75.7 84c0 0.3-0.1 0.4-0.2 0.6-0.5 0-0.3-1 0.2-0.6"/>
	<path class="st0" d="m79.9 84.9c0.3 0.5 0.2 1.1-0.3 1.5-0.6 0.1-1.1-0.1-1.4-0.7 0-1.1 1-1.2 1.7-0.8"/>
	<path class="st0" d="m81.2 85.4c0 0.4-0.2 0.5-0.5 0.5-0.3-0.4 0.2-0.9 0.5-0.5"/>
	<path class="st0" d="m81.8 85.4 0.5 0.1c0.1 0.1 0.1 0.3 0.1 0.5h-0.6c-0.2-0.2-0.1-0.5 0-0.6"/>
	<path class="st0" d="m77.4 85.9c-0.3 0-0.4-0.2-0.4-0.3 0-0.7 0.9-0.3 0.4 0.3"/>
	<path class="st0" d="m75.6 85.2c0 0.4-0.2 0.5-0.4 0.7-0.4-0.1-0.2-1.1 0.4-0.7"/>
	<path class="st0" d="m76.7 85.4c0 0.2-0.1 0.4-0.2 0.5h-0.3c-0.2-0.4 0.2-0.9 0.5-0.5"/>
	<path class="st0" d="m74.7 85.4c0 0.1 0.1 0.1 0 0.3l-0.5-0.1c0.1-0.2 0.3-0.2 0.5-0.2"/>
	<path class="st0" d="m80.3 86.8c0.1 0.2 0.1 0.4 0.1 0.6-0.2 0-0.3 0.2-0.7 0.1-0.1-0.2-0.1-0.4-0.1-0.6 0.2-0.2 0.5-0.2 0.7-0.1"/>
	<path class="st0" d="m76.5 86.5c0.2 0.2 0.1 0.6-0.1 0.8-0.3 0-0.3-0.1-0.5-0.2 0.1-0.5 0.2-0.8 0.6-0.6"/>
	<path class="st0" d="m75.2 86.4c0.1 0 0.2 0 0.3 0.1 0 0.2-0.1 0.3-0.1 0.5h-0.3c0.1-0.3 0.1-0.4 0.1-0.6"/>
	<path class="st0" d="m77.3 86.6h0.4c0.2 0.2 0 0.4-0.1 0.6-0.2 0-0.4 0-0.5-0.2-0.1-0.1 0.1-0.2 0.2-0.4"/>
	<path class="st0" d="m78.9 87v0.4c-0.2 0.1-0.4 0-0.6-0.1-0.1-0.5 0.4-0.5 0.6-0.3"/>
	<path class="st0" d="m77.6 87.7c0 0.3-0.2 0.2-0.2 0.5h-0.4c-0.2-0.5 0.2-0.8 0.6-0.5"/>
	<path class="st0" d="m78.7 87.9c0 0.4-0.3 0.3-0.6 0.4-0.1-0.2 0-0.4 0.2-0.4 0.2-0.1 0.3-0.1 0.4 0"/>
	<path class="st1" d="m74.2 85.9c0-0.7-0.2-1.2-0.2-1.8 0.1-0.7 0.2-1.4 0.5-2 0.2-1.3 0.6-2.6 1.1-3.8 0.7-0.9 1.5-1.8 2.5-2.5 1.3-0.6 2.9-0.4 4.1 0.5 0.8 0.5 1.5 1.1 2.2 1.9 0.6 0.8 1 1.7 1 2.7-0.3 1.3-0.8 2.6-1.5 3.8-0.8 1.3-1.9 2.4-3.3 3.1-0.4 0.2-0.8 0.5-1.2 0.6-2.2 0.4-4.3-0.6-5.2-2.5m7.8-9.6c-0.1 0.2 0.1 0.2 0 0.4 0.2 0.1 0.2 0 0.4 0 0-0.3-0.1-0.4-0.4-0.4m-2.9-0.6c-0.1 0.4 0 0.5 0.4 0.6 0.2-0.1 0.3-0.4 0.2-0.6-0.2-0.1-0.4-0.1-0.6 0m1.5 0.8c0.2 0.1 0.4 0.1 0.6-0.1 0.1-0.1 0.1-0.2 0.1-0.4-0.4-0.2-0.7 0.1-0.7 0.5m-0.4 6c0.2-0.8 1.3-1.1 1.7-1.7 0.5-0.8 0.5-1.8 0.2-2.6-0.7-0.9-1.7-1.5-2.8-1.7-0.7 0.1-1.4 0.4-2.1 0.7-0.4 0.7-0.7 1.5-0.6 2.3 0.4 0.2 1.1 0 1.6 0.2 0.2-1 0.1-2.5 1.1-2.5 1.1 0.2 1.8 1.2 1.6 2.3v0.1c-0.2 0.5-1 0.7-1.5 1.4-0.7 0.7-1.1 1.7-1 2.8 0.6 0 1.2 0 1.8 0.1v-1.4m-2.2-6c0-0.1-0.2-0.1-0.3-0.1-0.1 0.2 0.4 0.3 0.3 0.1m4 1.2c0.3 0.1 0.6 0.1 0.6-0.4-0.3-0.2-0.6-0.1-0.6 0.4m1.1 0.2c0.2 0 0.3 0.1 0.5 0.1 0.1-0.4-0.1-0.5-0.4-0.5-0.1 0.1-0.1 0.3-0.1 0.4m-3.6 0.1c-0.2-0.4-0.7 0.1-0.5 0.4 0.4 0.2 0.5 0 0.5-0.4m0.7 0.8h0.3v-0.4c-0.2 0-0.3 0.1-0.3 0.4m2.9 0.2c-0.1 0.2-0.1 0.4-0.1 0.5 0.2 0.1 0.5 0 0.6-0.2 0-0.1 0.1-0.2 0-0.3h-0.5m1 0.5c0.1 0.2 0.7 0.3 0.7 0s-0.7-0.4-0.7 0m-7.9-0.5c0.2-0.2 0-0.3 0-0.5h-0.4c0 0.3 0.1 0.4 0.4 0.5m2.9 0.5c0.2-0.1 0 0.2 0.2 0.1 0.4 0.1 0.4-0.4 0.3-0.6-0.4-0.1-0.5 0.1-0.5 0.5m1-0.4c-0.1 0.1-0.1 0.3-0.1 0.5 0.4 0.1 0.7 0 0.7-0.3-0.1-0.2-0.4-0.2-0.6-0.2m4.1 2.1c0.4 0.1 0.6-0.1 0.6-0.4-0.3-0.4-0.9 0-0.6 0.4m-9-0.9c0.1 0.1 0.3 0.1 0.5 0.1 0.2-0.2 0.3-0.8-0.2-0.7-0.3 0-0.3 0.3-0.3 0.6m7.9 1c0.4 0.1 0.6 0 0.7-0.3-0.2-0.7-1.2-0.2-0.7 0.3m-4.2-0.8c0.1 0.2 0.3 0 0.5 0.1 0.1-0.3-0.2-0.3-0.4-0.3 0 0.1-0.1 0.1-0.1 0.2m-2.6-0.4v0.3c0.1 0.1 0.3 0.1 0.5 0.1v-0.4c-0.2 0-0.4-0.1-0.5 0m1.5 0.7c0.3 0.1 0.6 0 0.6-0.4-0.2 0-0.3-0.1-0.6-0.1 0 0.2-0.1 0.4 0 0.5m4.9 0.2c-1.1-0.6-0.4 1.3 0 0m-6.1 0.8c0.3 0 0.4-0.5 0.3-0.7-0.5-0.1-0.7 0.6-0.3 0.7m1.1-0.2c0.1 0.2 0.3 0.3 0.5 0.2 0.1-0.1 0.2-0.3 0.2-0.5-0.3-0.1-0.8-0.1-0.7 0.3m-2.4-0.3c0 0.2-0.2 0.5 0.1 0.5 0.3 0.3 0.6-0.3 0.4-0.6-0.2 0-0.4 0-0.5 0.1m8.7 1.3c0.3 0.1 0.5 0 0.5-0.4-0.1-0.1-0.3-0.1-0.4 0-0.2 0.1-0.2 0.3-0.1 0.4m-1.1-0.1c0.1 0.1 0.3 0.2 0.5 0.2 0.1-0.1 0.2-0.2 0.2-0.4-0.2-0.1-0.4-0.2-0.6-0.2 0.1 0.2-0.1 0.2-0.1 0.4m-0.4 0.5c0.2-0.2 0.2-0.4 0.1-0.6-0.8-0.3-0.8 0.7-0.1 0.6m-1.6-0.6c0 0.3 0 0.6 0.2 0.7 0.3 0 0.5-0.3 0.5-0.6v-0.2c-0.3 0-0.5 0.1-0.7 0.1m-3.1 0.7c0.2 0 0.2-0.3 0.2-0.5-0.2 0-0.3-0.1-0.5-0.1 0.2 0.2-0.1 0.5 0.3 0.6m-1.5 0.1c0.2 0.1 0.3 0.2 0.5 0.1v-0.4c-0.2-0.3-0.6-0.2-0.5 0.3m-1.3 0.1c0.2 0.1 0.4 0.1 0.6 0.1 0.1-0.1 0.2-0.4 0.1-0.6-0.3-0.1-0.6 0-0.7 0.3v0.2m8.7 0.9c0.1-0.4-0.1-0.5-0.4-0.5-0.3 0.3 0.1 0.6 0.4 0.5m-1.6 0.2 0.3 0.3c0.2 0 0.4-0.1 0.5-0.3 0-0.4-0.8-0.5-0.8 0m-1.2 0.1c0.2 0 0.4 0.1 0.5 0 0.3-0.7-0.8-0.7-0.5 0m-3.4-0.1c0.1 0 0.2 0.1 0.4 0.1 0.1 0 0.1-0.3 0.1-0.5-0.3-0.2-0.5 0-0.5 0.4m-1.2-0.5c-0.1 0.3 0 0.6 0.3 0.8 0.2-0.2 0.3-0.6 0.1-0.9-0.2 0-0.2 0.1-0.4 0.1m-1.9 0.5h0.4c0.1-0.2 0.2-0.3 0.2-0.6-0.1 0-0.1-0.1-0.1-0.2-0.5 0-0.5 0.5-0.5 0.8m1.1 0.2c0-0.2 0.2-0.3 0.2-0.6-0.5-0.4-0.7 0.6-0.2 0.6m2.8 1.1c0.2 0.5 0.8 0.8 1.4 0.7 0.5-0.3 0.6-1 0.3-1.5-0.8-0.4-1.8-0.3-1.7 0.8m2.3 0.2c0.4 0.1 0.5-0.1 0.5-0.5-0.2-0.4-0.7 0.1-0.5 0.5m1.1 0h0.6c0-0.2 0-0.3-0.1-0.5l-0.5-0.1c0 0.2-0.1 0.5 0 0.6m-4.7-0.4c0 0.2 0.1 0.3 0.4 0.3 0.5-0.5-0.4-0.9-0.4-0.3m-1.8 0.5c0.2-0.2 0.4-0.3 0.4-0.7-0.6-0.5-0.7 0.5-0.4 0.7m1-0.1h0.3c0.1-0.1 0.2-0.3 0.2-0.5-0.3-0.4-0.7 0.1-0.5 0.5m-1.9-0.2 0.5 0.1c0.1-0.2-0.1-0.2 0-0.3-0.3-0.1-0.5-0.1-0.5 0.2m5.3 1.2c0 0.2 0 0.4 0.1 0.6 0.3 0.1 0.5-0.1 0.7-0.1 0-0.2 0-0.4-0.1-0.6-0.2-0.1-0.5 0-0.7 0.1m-3.6 0.2c0.2 0 0.2 0.2 0.5 0.2 0.2-0.2 0.3-0.5 0.1-0.8-0.5-0.1-0.6 0.2-0.6 0.6m-0.8-0.2h0.3c0-0.2 0-0.3 0.1-0.5-0.1-0.1-0.2-0.1-0.3-0.1-0.1 0.3-0.1 0.5-0.1 0.6m1.9 0.2c0.1 0.1 0.3 0.2 0.5 0.2 0.1-0.2 0.2-0.4 0.1-0.6h-0.4c-0.1 0.1-0.3 0.2-0.2 0.4m1.2 0.2c0.2 0.1 0.4 0.2 0.6 0.1v-0.4c-0.2-0.2-0.7-0.2-0.6 0.3m-1.3 0.8h0.4c0-0.2 0.2-0.2 0.2-0.5-0.3-0.2-0.8 0.1-0.6 0.5m1.2 0.2c0.3 0 0.6 0.1 0.6-0.4-0.1-0.1-0.4-0.1-0.5 0s-0.2 0.2-0.1 0.4"/>
	<path class="st2" d="m42.3 42.3c2.4-1.3 4.9-2.5 8.3-2.6 1.3 0 2.6 0.4 3.6 1.3 1 1 1.8 3.9 1.9 5.8 0.2 2-0.1 4-0.7 5.9-0.7 1.8-1.3 3.1-3 4-6.5 3.6-12.6-4.3-11.7-10.9 0.2-1.2 1.1-2.2 1.6-3.5m8.7 5.9c0.4-1.2 1.6-2.2 1.5-3.5-0.2-2.9-3.9-4-6.3-2.8-1.7 0.9-2.7 2.8-2.4 4.7 0.8 0.2 1.6 0.2 2.3 0-0.4-0.8-0.5-1.7-0.4-2.5 0.3-0.9 2.6-1.8 3.5-1.2 0.6 0.4 0.4 1.1 0.6 1.9-1 3-4.3 4-3.4 8.4 1.3 0.2 2.3-0.5 4-0.5-0.1-1.6 0.1-3.1 0.6-4.5m-4.4 7.4c0.4 1.6 3.3 0.2 3.4-1-0.9-1.6-3.7-0.5-3.4 1"/>
	<path class="st0" d="m50.5 52.6c-1.7-0.1-2.6 0.7-4 0.5-0.9-4.3 2.4-5.4 3.4-8.4-0.3-0.8-0.1-1.5-0.6-1.9-0.9-0.6-3.2 0.3-3.5 1.2-0.1 0.9 0 1.7 0.4 2.5-0.8 0.2-1.6 0.2-2.3 0-0.3-1.9 0.7-3.8 2.4-4.7 2.4-1.2 6.2-0.2 6.3 2.8 0.1 1.3-1 2.3-1.5 3.5-0.6 1.5-0.8 3-0.6 4.5"/>
	<path class="st0" d="m50.1 54.6c-0.1 1.6-3.8 3.3-4.4 1.3-0.5-1.9 3.1-3.3 4.4-1.3"/>
	<path class="st0" d="m57.6 42.1c1 3.1 1 6.5 0.1 9.7-0.4 1.6-1.2 3-2.4 4.2-1.4 1.4-3.2 2.4-5.2 2.8-1.9 0.2-3.9-0.1-5.8-0.7-0.8-0.5-1.5-1-2.2-1.7-1.8-1.7-4.5-3.8-4.6-7.3 0.2-1.4 0.6-2.7 1.3-3.9 0.9-1.8 2.2-3.3 3.9-4.4 4.3-2.7 11.9-3.3 14.9 1.3m-16.9 3.8c-0.9 6.5 5.2 14.5 11.7 10.9 1.6-0.9 2.3-2.2 3-4 0.7-1.9 0.9-3.9 0.7-5.9s-0.9-4.9-1.9-5.8-2.3-1.3-3.6-1.3c-3.4 0.1-5.8 1.3-8.3 2.6-0.5 1.2-1.4 2.2-1.6 3.5"/>
	<path class="st3" d="m85.9 46.3c-2.4 0.4-4.8 0.6-7.2 0.7 2.3-0.9 4.8-1.1 7.2-0.7"/>
	<path class="st3" d="m87.2 47c-0.5 0.3-1.1 0.4-1.7 0.4 0.2-0.5 1.2-0.2 1.7-0.4"/>
	<path class="st3" d="m88.4 47.7c-0.7 0.3-1.4 0.3-2.1 0.2 0.6-0.3 1.6-0.8 2.1-0.2"/>
	<path class="st3" d="m79.3 47.6c-0.3 0.3-0.4 0.9-1.2 0.7-0.1 0.4 0.4 0.2 0.3 0.6-1.2 0.2-2.4 0.5-3.6 0.7 0.3-1.3 2.4-0.5 3.1-1.2-0.7-0.3-1.5 0.1-2.3 0 0.6-0.9 2.3-0.7 3.7-0.8"/>
	<path class="st3" d="m89.1 48.8c-0.7 0-1.2 0.2-1.9 0.2-0.1-0.1-0.2-0.3-0.3-0.4 0.7-0.1 2.2-0.8 2.2 0.2"/>
	<path class="st3" d="m89.4 49.2c0.1 0.2 0.1 0.4 0.2 0.5-0.5 0.1-2 0.6-2.1-0.2 0.7-0.1 1.3-0.2 1.9-0.3"/>
	<path class="st3" d="m78.5 49.6c-0.9 0.7-2.8 0.4-4.1 0.8 0.9-0.7 2.7-0.4 3.7-0.9 0.2 0 0.3 0.1 0.4 0.1"/>
	<path class="st4" d="m81.9 62.3c2.2 0.1 2.7-3.8-0.3-3.1 0-0.5 0.2-0.8 0.2-1.3 0.6 0.1 1.2-0.4 1.3-1s-0.4-1.2-1-1.3h-0.5c-0.2 0.9 0.9 0.5 0.8 1.3-0.1 0.1-0.2 0.3-0.4 0.3-0.4-0.1-0.3-0.9-0.7-1-1-0.2-1.2 0.4-1.4 1.1h-0.5c-0.2-0.5 0.2-0.8 0.3-1.3 0.2-1.7-0.9-3.7 0-5.1 1.1-0.2 2.2-0.6 3.2-1.2 0.8 0.2 1.3 0.8 2 1.1 0.2 0.8 0.6 1.5 1.3 2 0.6 1.8 0.9 3.6 0.9 5.5l-0.3 0.3c-0.1 3.1-1.6 6.8-4.7 5.8 0-0.1-0.1-0.3-0.2-0.3 0-0.8 0.4-1.3 0-1.8m-1.9-9.7c0.5 0.2 1.1 1.4 2.2 1.6 1.5 0.3 3.4-0.8 2.9-2.1-1.1-0.8-4.6-1.2-5.1 0.5"/>
	<path class="st3" d="m90 50.4c-0.1 0.3 0.2 0.3 0.1 0.6-0.7 0.1-1.8-0.2-2.2 0.2-0.2 0 0-0.5-0.1-0.7 0.8 0.1 1.3-0.1 2.2-0.1"/>
	<path class="st3" d="m78.6 51.6c-0.2 0.9-1.3 0.3-2.1 0.3-0.9 0-1.8 0.1-2.8 0.1 0.9-0.8 3.4-0.5 4.9-0.4"/>
	<path class="st0" d="m85.1 52.1c0.5 1.3-1.4 2.4-2.9 2.1-1.1-0.2-1.7-1.4-2.2-1.6 0.5-1.7 4-1.3 5.1-0.5m-4.1 0.2c0 0.3 0.1 0.4 0.3 0.5 0-0.3 0.2-0.5 0.3-0.7-0.2 0.1-0.4 0.1-0.6 0.2m2.4 1.1c0.4-0.1 0.8-0.4 1-0.8-0.4-0.1-0.5-0.4-1-0.4 0.2 0.4 0.2 0.9 0 1.2"/>
	<path class="st3" d="m90.3 51.8c-1 0.2-1.9 0.3-2.9 0.3 0.4-0.6 2.5-0.9 2.9-0.3"/>
	<path class="st3" d="m81.6 52.1c-0.1 0.3-0.3 0.4-0.3 0.7-0.2-0.1-0.3-0.2-0.3-0.5 0.2-0.1 0.4-0.1 0.6-0.2"/>
	<path class="st3" d="m83.4 52.2c0.5 0 0.6 0.3 1 0.4-0.2 0.4-0.6 0.7-1 0.8 0.2-0.3 0.2-0.8 0-1.2"/>
	<path class="st3" d="m78.5 52.5c-1.3 0.6-3.5 0.5-5.1 0.4 0.2-1 1.6-0.5 2.3-0.5 1 0.1 2 0.1 2.8 0.1"/>
	<path class="st3" d="m90.7 52.7c-0.6 0.4-2.5 1-3.2 0.3 0.5-0.3 2.7-0.8 3.2-0.3"/>
	<path class="st3" d="m78.6 53.4c-1.3 0.7-3.8 0.1-5.4 0.4 1.8-0.4 3.6-0.6 5.4-0.4"/>
	<path class="st3" d="m90.7 53.4c0.3-0.1-0.1 0.5 0.2 0.4-1 0.4-2.1 0.5-3.1 0.3 0.6-0.5 2.1-0.2 2.9-0.7"/>
	<path class="st3" d="m78.7 54.2c-2 0.2-3.9 0.5-5.8 0.8-0.1-0.4 0.2-0.6 0.3-0.8 1.7 0 3.9-0.3 5.5 0"/>
	<path class="st3" d="m91.1 55c-1-0.2-1.9 0.5-3.1 0.4 0.1-0.3-0.1-0.4-0.1-0.6 1 0 2.1-0.1 3.1-0.3-0.1 0.3 0.1 0.3 0.1 0.5"/>
	<path class="st3" d="m78.8 55c-0.3 0.6-0.9 0.2-1.4 0.3-1.5 0.3-3.1 0.4-4.6 0.4 1.9-0.6 4-0.8 6-0.7"/>
	<path class="st3" d="m91.2 55.8c-1.1 0.2-2.1 0.3-3.2 0.3 0.9-0.1 2.4-0.9 3.2-0.3"/>
	<path class="st3" d="m78.6 55.8c-0.6 0.6-1.9 0.4-2.9 0.5-1 0.3-1.9 0.4-2.9 0.4 0.1-0.7 1.2-0.6 1.8-0.7 1.3-0.2 2.7-0.3 4-0.2"/>
	<path class="st3" d="m91.3 56.5v0.3c-0.8 0.6-2.3 0.4-3.3 0.7-0.1-0.4 0-0.5 0-0.7l3.3-0.3"/>
	<path class="st3" d="m78.5 56.9c-1.6 0.6-3.9 0.4-5.6 0.8 1.7-0.9 3.7-1.1 5.6-0.8"/>
	<path class="st3" d="m80.8 58.1c0 0.8-1 0.5-1.5 0.5-1.9 0.1-4.4 0.4-6.2 0.6-0.1-0.3-0.2-0.7-0.2-1 1.8-0.3 3.7-0.6 5.5-0.7 0.4 0.6 1.7 0.6 2.4 0.6"/>
	<path class="st3" d="m91.3 57.7c-0.7 0.5-2.5 0.6-3.4 0.6 0.6-0.6 2.3-0.7 3.4-0.6"/>
	<path class="st3" d="m91.3 58.8c-0.9 0.4-2.3 0.3-3.5 0.4 0.7-0.6 2.6-0.5 3.5-0.6v0.2z"/>
	<path class="st3" d="m80.4 59.2c-0.1 0.3-0.1 0.6-0.1 0.9-1.3 0-2.7-0.1-4.1 0-1.1 0-2.3 0.6-2.9-0.1 1.7-0.9 4.6-0.7 7.1-0.8"/>
	<path class="st3" d="m91.3 59.6c-0.1 1.3-2.7 0.6-3.7 0.9 0.1-1.4 2.9-0.8 3.7-0.9"/>
	<path class="st3" d="m81.6 60.2c0-0.2 0.5-0.1 0.6 0 0 0.2-0.5 0-0.6 0"/>
	<path class="st3" d="m80.3 60.6c0.1 0.9-1 0.5-1.6 0.6-1.3 0.1-3.1 0.6-4.7 0.7-0.1-0.3-0.2-0.7-0.4-1 2.2-0.6 4.5-0.7 6.7-0.3"/>
	<path class="st3" d="m91.1 60.8c-0.1 0.2-0.2 0.5-0.4 0.7-1.1 0-2.3 0.1-3.4 0.3-0.1-0.3 0.1-0.5 0.1-0.7 1.2-0.1 2.4-0.2 3.7-0.3"/>
	<path class="st3" d="m81.2 60.9c0.4 0.3 1 0.4 1.5 0.2-0.1 0.4-1.6 0.7-1.5-0.2"/>
	<path class="st3" d="m80.4 62.1c-2 0.4-4.1 0.6-6.1 0.6 1.3-0.6 2.8-0.9 4.2-1 0.7-0.1 1.6-0.2 1.9 0.4"/>
	<path class="st3" d="m90.5 62.1-0.3 0.6c-1-0.2-2-0.3-3-0.2 1-0.4 2.1-0.5 3.3-0.4"/>
	<path class="st3" d="m80.9 62.6c0.2 0.1 0 0.7 0.1 1-1.1-0.1-2.3-0.1-3.4 0s-2.2 0.6-2.8 0c0.3-0.8 1.6-0.4 2.5-0.5 1.2-0.1 2.4-0.3 3.6-0.5"/>
	<path class="st3" d="m89.7 63.9c-0.4 1.4-3.2 0.5-4.6 0.8 0.9-1 3-1 4.6-0.8"/>
	<path class="st3" d="m81 64.1 0.6 0.9c-1.8 0-3.6 0.1-5.6 0.3-0.2-0.3-0.6-0.4-0.6-0.9 1.9-0.3 3.7-0.4 5.6-0.3"/>
	<path class="st3" d="m89.2 64.9c-0.1 1-1 0.6-1.6 0.6-2.1 0.1-5 0.5-7.5 0.6-1.3 0-2.8 0.3-3.7-0.3 3.8-0.5 8.9-0.5 12.8-0.9"/>
	<path class="st3" d="m88.1 66.1c0.2 0.1 0 0.2 0 0.3-0.4 0.1-1.2-0.1-1.9 0 0.4-0.4 1.5 0 1.9-0.3"/>
	<path class="st3" d="m77.6 66.8c0.9-0.3 1.9-0.3 2.8 0-1.1-0.1-2.1 0.8-2.8 0"/>
	<path class="st3" d="m87.4 66.9c0.2 0.4-0.6 0.7-1 0.8-1.8 0.4-4.9-0.2-6.4 0.5-0.4-0.1-0.7-0.4-1.1-0.5 2.8-0.8 5.7-1.1 8.5-0.8"/>
	<path class="st0" d="m83.1 68.6v0.3c-0.2 0-0.3-0.1-0.4-0.1 0.1-0.2 0.2-0.2 0.4-0.2"/>
	<path class="st3" d="m78.8 50.3c0.1 0.2 0.1 0.4 0 0.6-1.6-0.1-3.1-0.1-4.7 0.1 1.3-0.6 3-0.4 4.7-0.7"/>
	<path class="st3" d="m86.4 63.4c0.5-0.7 3.1-0.5 3.4-0.1-1.1-0.2-2.2-0.2-3.4 0.1"/>
	<path class="st0" d="m89.5 46.8c-0.1 0.7 0.4 0.7 0.8 0.8 0 1.1 1 1.6 1.4 2.5 0.5 1.5 0.9 3 0.9 4.6 0.1 0.5 0.3 0.9 0.3 1.4 0.3 5.5-2.6 9.5-4.5 12.8-0.4 0.3-0.8 0.6-1.1 0.9-2.6 0.9-5 0.4-7.3-0.2-1-0.2-2-0.4-2.9-0.8-0.9-0.6-1.7-1.2-2.4-1.9-0.8-0.6-1.6-1.2-2.3-1.9-0.9-1.4-1.7-2.9-2.2-4.4-0.2-0.6-0.3-1.1-0.4-1.7l-0.6-1.8c-0.1-1.7 0.2-3.4 0.8-5 0.6-2.1 1.8-3.9 3.5-5.2 2.5-2.2 5.8-3.2 9-2.8 1.5 0.1 2.9 0.4 4.3 0.9 1.2 0.5 1.5 1.6 2.7 1.8m-10.8 0.2c2.4-0.1 4.8-0.3 7.2-0.7-2.4-0.4-4.9-0.2-7.2 0.7m6.8 0.4c0.6 0 1.2-0.1 1.7-0.4-0.5 0.1-1.5-0.1-1.7 0.4m0.8 0.5c0.7 0.1 1.4 0.1 2.1-0.2-0.5-0.6-1.5-0.1-2.1 0.2m-10.7 0.5c0.8 0.1 1.6-0.3 2.3 0-0.7 0.7-2.8-0.1-3.1 1.2 1.2-0.2 2.4-0.5 3.6-0.7 0.1-0.4-0.4-0.2-0.3-0.6 0.8 0.2 0.9-0.4 1.2-0.7-1.4 0.1-3.1-0.1-3.7 0.8m11.3 0.2c0.1 0.1 0.2 0.3 0.3 0.4 0.7 0 1.2-0.2 1.9-0.2-0.1-1.1-1.5-0.3-2.2-0.2m0.6 0.9c0.1 0.8 1.6 0.3 2.1 0.2-0.1-0.1-0.1-0.3-0.2-0.5-0.6 0.1-1.2 0.2-1.9 0.3m-9.4 0c-1 0.5-2.9 0.2-3.7 0.9 1.3-0.4 3.2-0.1 4.1-0.8-0.1 0-0.2-0.1-0.4-0.1m3.8 14.6c0.1 0 0.2 0.2 0.2 0.3 3.1 1 4.6-2.7 4.7-5.8l0.3-0.3c0-1.9-0.3-3.7-0.9-5.5-0.7-0.5-1.1-1.2-1.3-2-0.7-0.3-1.2-0.9-2-1.1-1 0.6-2.1 1-3.2 1.2-0.9 1.5 0.2 3.4 0 5.1-0.1 0.5-0.5 0.8-0.3 1.3h0.5c0.2-0.7 0.4-1.3 1.4-1.1 0.4 0.1 0.3 0.9 0.7 1 0.2 0 0.3-0.2 0.4-0.3 0.1-0.8-1-0.4-0.8-1.3 0.6-0.2 1.3 0.2 1.5 0.8s-0.2 1.3-0.8 1.5c-0.2 0-0.3 0.1-0.5 0 0 0.5-0.2 0.8-0.2 1.3 3-0.7 2.5 3.2 0.3 3.1 0.4 0.5-0.1 1 0 1.8m-7.8-13.1c1.6-0.2 3.1-0.2 4.7-0.1 0.1-0.2 0.1-0.4 0-0.6-1.7 0.3-3.5 0.1-4.7 0.7m13.6-0.5c0.1 0.2-0.1 0.7 0.1 0.7 0.4-0.4 1.5-0.1 2.2-0.2 0.1-0.3-0.2-0.3-0.1-0.6-0.8-0.1-1.3 0.2-2.2 0.1m-14 1.5c1 0 1.9-0.1 2.8-0.1 0.8 0 1.9 0.6 2.1-0.3-1.5-0.1-4-0.4-4.9 0.4m13.7 0.1c1 0 1.9-0.1 2.9-0.3-0.4-0.6-2.5-0.4-2.9 0.3m-11.7 0.3c-0.8 0-2.1-0.5-2.3 0.5 1.6 0.1 3.8 0.2 5.1-0.4-0.9-0.1-1.8 0-2.8-0.1m11.7 0.6c0.7 0.7 2.6 0.1 3.2-0.3-0.5-0.5-2.6 0-3.2 0.3m-14.2 0.8c1.6-0.3 4.1 0.3 5.4-0.4-1.8-0.2-3.7 0-5.4 0.4m14.5 0.3c1 0.2 2.1 0.1 3.1-0.3-0.3 0.1 0.1-0.5-0.2-0.4-0.7 0.5-2.2 0.2-2.9 0.7m-14.5 0.1c-0.1 0.2-0.4 0.4-0.3 0.8 1.9-0.3 3.8-0.6 5.8-0.8-1.6-0.3-3.8 0-5.5 0m17.7 0.3c-1 0.2-2.1 0.3-3.1 0.3 0 0.2 0.2 0.3 0.1 0.6 1.2 0.1 2.1-0.6 3.1-0.4 0.1-0.3-0.1-0.2-0.1-0.5m-18.1 1.2c1.5 0 3.1-0.1 4.6-0.4 0.5-0.1 1.1 0.3 1.4-0.3-2-0.1-4.1 0.1-6 0.7m15.1 0.4c1.1 0 2.2-0.1 3.2-0.3-0.7-0.7-2.3 0.2-3.2 0.3m-13.3-0.1c-0.6 0.1-1.7 0-1.8 0.7 1 0 2-0.1 2.9-0.4 1-0.1 2.3 0.1 2.9-0.5-1.3-0.1-2.7 0-4 0.2m13.4 0.7c0 0.2-0.2 0.4-0.1 0.7 1-0.3 2.5-0.1 3.3-0.7v-0.3c-1 0.2-2.1 0.3-3.2 0.3m-15.1 0.9c1.7-0.4 4.1-0.2 5.6-0.8-1.9-0.3-3.9 0-5.6 0.8m5.5-0.2c-1.9 0.1-3.7 0.4-5.5 0.7 0 0.3 0.1 0.7 0.2 1 1.8-0.2 4.3-0.5 6.2-0.6 0.5 0 1.5 0.3 1.5-0.5-0.8 0.1-2 0-2.4-0.6m9.4 0.8c0.9 0 2.7-0.1 3.4-0.6-1 0-2.7 0-3.4 0.6m3.4 0.3c-0.9 0.1-2.8 0-3.5 0.6 1.2-0.1 2.6 0 3.5-0.4v-0.2zm-17.9 1.4c0.6 0.7 1.9 0.1 2.9 0.1 1.5-0.1 2.8 0 4.1 0 0-0.3 0-0.6 0.1-0.9-2.5 0.1-5.4-0.1-7.1 0.8m14.2 0.5c1.1-0.3 3.6 0.4 3.7-0.9-0.8 0.2-3.5-0.4-3.7 0.9m-5.3-0.3c-0.1-0.1-0.6-0.2-0.6 0 0.1 0.1 0.6 0.2 0.6 0m-8.6 0.7c0.2 0.3 0.3 0.7 0.4 1 1.6-0.1 3.4-0.6 4.7-0.7 0.6-0.1 1.7 0.3 1.6-0.6-2.3-0.3-4.5-0.2-6.7 0.3m13.7 0.2c0 0.2-0.2 0.4-0.1 0.7 1.1-0.2 2.3-0.3 3.4-0.3 0.2-0.2 0.3-0.5 0.4-0.7-1.2 0.1-2.4 0.2-3.7 0.3m-4.6 0c-0.5 0.2-1.1 0.1-1.5-0.2-0.2 0.9 1.4 0.7 1.5 0.2m-4.2 0.6c-1.5 0.1-2.9 0.4-4.2 1 2.1 0 4.1-0.2 6.1-0.6-0.3-0.6-1.3-0.5-1.9-0.4m8.6 0.8c1-0.1 2 0 3 0.2l0.3-0.6c-1.1-0.1-2.2 0.1-3.3 0.4m-9.8 0.6c-0.9 0.1-2.2-0.3-2.5 0.5 0.6 0.6 1.8 0.1 2.8 0 1.1-0.1 2.3-0.1 3.4 0-0.1-0.3 0.1-0.9-0.1-1-1.2 0.3-2.4 0.4-3.6 0.5m12.5 0.2c-0.3-0.4-2.9-0.6-3.4 0.1 1.1-0.2 2.3-0.3 3.4-0.1m-4.7 1.4c1.4-0.3 4.2 0.5 4.6-0.8-1.7-0.2-3.7-0.1-4.6 0.8m-9.7-0.3c0 0.5 0.4 0.6 0.6 0.9 2-0.1 3.8-0.2 5.6-0.3l-0.6-0.9c-1.9-0.1-3.8 0-5.6 0.3m1 1.4c0.9 0.6 2.4 0.3 3.7 0.3 2.6-0.1 5.4-0.5 7.5-0.6 0.6 0 1.5 0.4 1.6-0.6-4 0.4-9.1 0.4-12.8 0.9m9.8 0.6c0.7-0.1 1.5 0.1 1.9 0 0-0.1 0.2-0.2 0-0.3-0.5 0.3-1.5-0.1-1.9 0.3m-5.8 0.4c-0.9-0.3-1.9-0.3-2.8 0 0.6 0.8 1.7 0 2.8 0m-1.5 0.9c0.4 0.1 0.7 0.4 1.1 0.5 1.5-0.7 4.6-0.1 6.4-0.5 0.4-0.1 1.2-0.4 1-0.8-2.9-0.3-5.8 0-8.5 0.8m1.8 0.9c1.7 0.6 4.5 0.6 5.6-0.5-2.1 0.2-4.2 0-5.6 0.5"/>
	<path class="st3" d="m86.3 68.1c-1.1 1.1-3.9 1.1-5.6 0.5 1.5-0.6 3.6-0.3 5.6-0.5m-3.6 0.7c0.1 0 0.2 0.1 0.4 0.1v-0.3c-0.2 0-0.4 0-0.4 0.2"/>
	<path class="st5" d="m77 17.5c0.1 0.7 0.1 1.4 0.1 2.1-0.5-0.3-1.1-0.4-1.7-0.5 0.1-0.6 0.1-0.8 0.2-1.5 0.5-0.2 1 0.1 1.4-0.1"/>
	<path class="st5" d="m75.2 17.6c0.3 0.3-0.1 0.9 0 1.4-0.5 0.1-0.9 0.2-1.4 0.1v-1.1c0.4-0.2 1-0.2 1.4-0.4"/>
	<path class="st5" d="m73.4 18c0.5 0.1-0.2 1 0.1 1.2-0.2 0.3-0.8 0.2-1 0.5-0.4-0.1 0-0.9 0-1.4 0.3-0.1 0.7-0.1 0.9-0.3"/>
	<path class="st5" d="m81.3 18.3c1.9 0.4 1.3 2.1 1.2 3.8-0.1 3-0.3 6.1-0.3 9.5 0.1 1.1 0.2 2.1 0.2 3.2-0.2 0.9-1.3 1.8-1.7 2.2-0.3-6.2-0.1-12.4 0.6-18.7"/>
	<path class="st5" d="m72 18.6c0.5 0.5-0.2 2-0.9 1.7-0.1-0.8 0.4-1.2 0.9-1.7"/>
	<path class="st5" d="m70.8 19.6c0.6 0.5-0.2 1.7-1.1 1.9-0.2-1.2 0.7-1.3 1.1-1.9"/>
	<path class="st5" d="m82.9 19.6c1.2 0.6 1 3 1 4.3 0 1.1 0.1 2.4 0.1 3.6 0 1.3-0.2 2.5-0.1 3.6 0.2 1.2-0.3 2.5-1.2 3.3-0.1-5-0.2-9.6 0.2-14.8"/>
	<path class="st5" d="m68.7 23c-0.3-0.7 0-1.5 0.6-2 0.7 0.6-0.2 1.5-0.6 2"/>
	<path class="st0" d="m76.8 22.1c-0.2-0.7-1-0.5-1.3-0.8 1.2-0.5 2.4 0.9 2.2 2-0.1 0.7-1.9 2.3-3.1 2 0.4-0.4 1.2-0.4 1.7-0.7-1.4 0.1-2.8-0.2-3.9-1-0.6 0.7 0.6 1.1 1.1 1.3-0.8 0.1-1.6-0.4-1.7-1.2 0.8-1.5 2.9-2.1 5-1.6m-1.1 2c0.5-0.3 1.3-0.3 1.4-0.9-0.5-0.2-1-1-1.6-0.8 0.5 0.2 0 1.4 0.2 1.7m-2.7-0.7c0.3 0 0.6 0.1 0.9 0.2-0.1-0.3 0.2-0.9-0.2-0.8-0.1 0.3-0.7 0.1-0.7 0.6m1.6 0.4c0.4 0.1 0.7 0 0.6-0.5-0.5 0.3-0.2-0.4-0.6-0.4-0.1 0.3-0.1 0.6 0 0.9"/>
	<path class="st5" d="m84 21c1.3 3.1 1.9 7.1 0.4 10.4-0.5-2.8 0.3-7.3-0.4-10.4"/>
	<path class="st3" d="m13.6 52.9c-0.5-1 1.1-1.1 1.1-0.2 0.4-0.2 0.9 0.1 1.1-0.2v-0.5c-0.2-0.3-0.6-0.2-0.7-0.6 1.6-0.1 1.2 2.1-0.5 1.9 0 0.3 0.3 0.7 0.1 0.9 0.7-0.3 1.5-0.3 2.3-0.2 2.1 0.6 0.8 3-1.9 2.5 0 0.1-0.1 0.2-0.2 0.3 0.5 2.2 4.1 1.1 5.8 1 2-0.6 3.2-2.7 2.6-4.8 0-0.2-0.1-0.3-0.2-0.5-0.9-0.1-0.6 1.2-0.9 1.7-0.3 0.1-0.7 0-0.9-0.2 0.1-0.2 0.2-0.2 0.1-0.6 0.4-0.1 0.1 0.5 0.6 0.4 0.2-0.1 0.2-0.7 0.1-0.9 0.2-0.5 0.7-0.8 1.2-0.8 0.5-0.6 0.2-1.7-0.5-1.8-0.4 0.2-0.9 0.3-0.9 1 0.4-0.1 0.5-0.5 0.9-0.6 0.1 0.3-0.5 0.8-1.1 0.7-0.4-0.9 0.2-1.4 1-1.5 0-0.4-0.8 0-0.9-0.2-0.3-0.7-0.5-1.5-0.8-2.3-1.5-1.6-4.4 0.3-6.3 0.4-0.1 0-0.4-0.1-0.5-0.1-0.9 0.3-1.8 3.1-1.5 4.7 0.2 0.3 0.4 0.6 0.9 0.5m2.8-4.8c0.2-0.1 0.3-0.2 0.5-0.2 1.4-0.2 3.3 0.3 3.8 0.9-1.1 1.2-5.4 2.1-6.6 0.1 0.4-0.6 1.5-0.5 2.3-0.8m1.9 8.7c0.1-0.7 0.8-1.5 0.6-2.5-0.1-0.6-0.6-0.8-0.7-1.3-0.1 0 0-0.1 0.1-0.2 1.3 0.4 1.7 3.8 0 4"/>
	<path class="st6" d="m71.6 22.2c-0.7 0.9-0.8 2.3-1.5 3.2 0.3-1.4 0.5-2.7 1.5-3.2"/>
	<path class="st7" d="m75.5 22.4c0.6-0.2 1.1 0.6 1.6 0.8-0.1 0.6-0.9 0.6-1.4 0.9-0.2-0.3 0.3-1.5-0.2-1.7"/>
	<path class="st6" d="m70 22.7c0.1 0 0.2 0 0.2 0.1-0.9 1.1-1.8 3.9-0.7 5.5-1-0.2-0.9-2-0.6-3.2 0.3-0.9 0.7-1.7 1.1-2.4"/>
	<path class="st7" d="m73.7 22.8c0.4-0.1 0.1 0.6 0.2 0.8-0.3-0.1-0.6-0.2-0.9-0.2 0-0.5 0.6-0.4 0.7-0.6"/>
	<path class="st7" d="m74.6 22.9c0.4 0 0.1 0.7 0.6 0.4 0.1 0.5-0.2 0.6-0.6 0.5-0.1-0.3-0.1-0.7 0-0.9"/>
	<path class="st8" d="m18.4 48.3c-0.1 0.3 0.4 0.9 0.2 1.3 0.6-0.2 1-0.5 1.6-0.7-0.4-0.6-1.1-0.6-1.8-0.6"/>
	<path class="st8" d="m16.3 48.4c-0.5 0.1-1 0.4-1.5 0.6 0.4 0.5 1 0.8 1.7 0.7-0.2-0.3-0.5-0.8-0.2-1.3"/>
	<path class="st5" d="m66.1 25.2c0 1.9 0.2 4.8 0.2 7.3-0.5-2.1-1.1-5.2-0.2-7.3"/>
	<path class="st6" d="m68 27c0.2 1.1 0.4 2.2 1.3 2.6-1.2 0.1-1.7-1.5-1.3-2.6"/>
	<path class="st6" d="m69 28.6c0.5 0.2 0.9 0.5 1.2 0.8-0.4 0.2-1-0.4-1.2-0.8"/>
	<path class="st0" d="m18.3 52.8c-0.1 0-0.2 0.1-0.1 0.2 0.1 0.5 0.6 0.7 0.7 1.3 0.2 1-0.5 1.9-0.6 2.5 1.7-0.2 1.3-3.6 0-4"/>
	<path class="st5" d="m76.8 28.7c0.9 0.8 0.4 2.2 0.4 3.3 0 1 0.2 2 0.1 3-0.1 1.3 0 2.9 0 4.3-0.4 0.2-0.9 0.3-1.4 0.2 0.2-1.1-0.3-1.8-0.1-2.6 0.2-1 1.7-1.7 0.8-3.2 0.3-0.3 0.5-1.4-0.1-1.5 1-0.8-1-3 0.3-3.5"/>
	<path class="st5" d="m77.4 28.9c0.3 0 0.5 0.1 0.8 0.2 0.1 2.9 0.3 6.3 0.2 9.7-0.4 0-0.3 0.5-0.8 0.4-0.2-3.6 0.2-7-0.2-10.3"/>
	<path class="st5" d="m69.6 30.6c-0.5 2 0 5-0.2 7-0.4-0.2-0.6-0.6-1-0.8-0.2-2.1-0.3-4.3-0.2-6.4 0.5 0 1 0.1 1.4 0.2"/>
	<path class="st9" d="m14.9 54.9c0.8 0.4 1.7 0.4 2.5 0.2 0.1-1.3-2.5-1-2.5-0.2"/>
	<path class="st10" d="m76.4 31.4c-0.4 0.9-1.5 1-2.7 1 0.3-1 1.8-1 2.7-1"/>
	<path class="st9" d="m14.8 55.5c0.2 0.9 1.6 0.6 2.1 0.2-0.2-0.5-1.4-0.1-2.1-0.2"/>
	<path class="st10" d="m76.5 32.7c-0.1 0.6-2 0.8-2.2 0.1 0.8 0 1.8-0.8 2.2-0.1"/>
	<path class="st5" d="m71.1 34.9c0.6 0.5 0.9 1.3 1.5 1.7 0 0.8 0 1.7 0.1 2.5-0.7 0-1-0.3-1.5-0.4 0.1-1.3 0-2.5-0.1-3.8"/>
	<path class="st5" d="m72.7 38.8c0.4-0.3 0-1.2 0.1-1.9 0.5 0 0.6 0.4 1.3 0.3 0.1 0.2 0.1 0.4 0.1 0.6 0.2 0 0-0.5 0.2-0.6 0.4 0 0.8 0 1.1-0.2-0.1 0.9-0.1 1.7 0 2.6-0.4 0-1.1 0.2-1.1-0.3-0.5 0.3-0.7 0.1-1.4 0 0-0.2 0-0.5-0.3-0.5m1.6 0.4c0-0.1 0.2-1-0.2-1.2 0.2 0.6-0.1 0.8 0.2 1.2"/>
	<path class="st0" d="m74.1 38c0.4 0.2 0.2 1.1 0.2 1.2-0.3-0.4 0-0.6-0.2-1.2"/>
	<path class="st0" d="m17.7 14.9c2.3-0.3 4.7 0.1 6.7 1.2 4.1 2.6 6.2 8.9 3.5 14.6-0.3 0.7-0.8 1.4-1.2 2.1-1 2-1.6 3.5-3.7 4.6-1.4 0.7-2.9 1.2-4.4 1.3-0.9-0.1-1.7-0.4-2.5-0.7-1.9-0.4-3.6-1.5-4.8-3.1-1.1-1.3-1.8-2.9-2.2-4.5-0.5-1.4-1.2-3.4-0.9-5.4 0.8-3.4 2.6-6.4 5.3-8.6 1.3-0.9 2.7-1.4 4.2-1.5m8.5 17.5c1.2-2.6 2.2-6 1.8-8.9-0.3-2.1-1.4-4.1-3-5.4-1.4-1.3-3.1-2.1-5-2.4-5.1-0.5-6.4 2.3-7.8 5.7-1 2.2-1.8 5.1-1.4 7.3 0.6 3.8 4.3 8 7.4 8.8 1.1 0.3 2.2-0.1 3.9-0.2 2.2-1.1 3-2.5 4.1-4.9"/>
	<path class="st11" d="m22.1 37.4c-1.7 0.1-2.8 0.5-3.9 0.2-3.2-0.8-6.8-5-7.4-8.8-0.4-2.2 0.4-5.1 1.4-7.3 1.5-3.4 2.8-6.2 7.8-5.7 1.9 0.3 3.6 1.1 5 2.4 1.7 1.4 2.7 3.3 3 5.4 0.4 2.9-0.6 6.3-1.8 8.9-1.1 2.3-1.9 3.7-4.1 4.9m-3.2-19.7c-3.6-0.1-6 1.4-5.7 5.2 0 0.7 0.6 1.3 0.7 2 0.1 0.8-0.1 1.7 0 2.5 0.2 2.5 1.1 4.9 2.7 6.8 1.3 1.3 4.7 1.4 5-0.7 0.4-2.3-1.3-3.7-1.1-5.8 0.8-0.3 1.5 0.1 2.1-0.4 0.7-0.6 0.2-3.1-0.2-4.3-0.5-1.4-1.2-2.6-1.5-3.4 0.1-0.6 0.3-0.8 0.2-1.5-0.7-0.4-1.5-0.5-2.2-0.4"/>
	<path class="st12" d="m22.4 26.7c-0.4 0.2-0.8 0.4-1.3 0.4 0.1-0.4 0-0.9-0.3-1.2-0.4 0-0.8 0.2-1.1 0.5 0 0.3 0 0.7 0.1 1-0.7 0.4-1.2-0.1-1.3-0.9 0-0.4 0.6-0.4 0.7-0.7-1.7-0.4-1.6 2.1-0.3 2.4 0.3-0.2 0.7-0.3 1.1-0.2v1.1c-1 0-2.6 1.7-2.3 2.6 0.2 0.9 2.3 1.3 3.2 0.6 1 2-1.8 3.3-3.5 2.1-2.1-1.5-3.1-6.2-2.8-9.4 0-0.3 0.4-0.3 0.4-0.6-0.5-1.9 0-3.7 1.3-4.4 1.4-0.2 2.9-0.4 4.3-0.4 0.7 2.1 2.3 4 1.8 7.1m-6.9-4.1c1 0.1 1.1 1 2.1 1 1.3-0.2 2.5-0.7 3.4-1.6-1.1-2.2-4.9-1.5-5.5 0.6m0.8 7.6c-0.2 1.2 0.8 3.5 1.9 2.7-1.2-0.2-1.1-1.8-1.1-3.3h-0.5c0.1 0.3-0.3 0.4-0.3 0.6"/>
	<path class="st0" d="m21 22c-0.9 0.9-2.1 1.4-3.4 1.6-1 0-1.1-0.9-2.1-1 0.6-2.1 4.4-2.8 5.5-0.6m-2.3 0.4c0.6 0 1.2-0.5 1.3-1.1-0.5-0.1-1.2-0.4-1.6-0.2 0.7-0.1 0.5 1 0.3 1.3m-1.1 0.1c-0.2-0.3-0.3-0.7-0.3-1.1-0.4 0.1-0.8 0.3-1 0.7 0.4 0.1 0.9 0.6 1.3 0.4m0.3 0c0.3 0 0.6-0.5 0.4-0.7h-0.3c-0.1 0.2-0.2 0.4-0.1 0.7"/>
	<path class="st13" d="m18.4 21.1c0.4-0.2 1.1 0.1 1.6 0.2-0.1 0.6-0.7 1.1-1.3 1.1 0.2-0.3 0.4-1.4-0.3-1.3"/>
	<path class="st3" d="m20.7 26.7h-0.4c0-0.1 0-0.2 0.1-0.3 0.1 0 0.2 0 0.3 0.1v0.2"/>
	<path class="st0" d="m16.6 29.6h0.5c0 1.5-0.1 3.1 1.1 3.3-1.1 0.8-2.1-1.5-1.9-2.7 0-0.2 0.4-0.3 0.3-0.6"/>
	<path class="st9" d="m20.3 29.8c0.2 0.1 0.4 0.4 0.3 0.6-0.7 0.3-1.5 0.4-2.1 0.7-0.1-0.7 1.4-0.6 1.8-1.3"/>
	<path class="st9" d="m20.8 31.2c0 0.6-0.6 1.1-1.2 1.1-0.3 0-0.5-0.1-0.7-0.3 0.5-0.3 1.2-1.2 1.9-0.8"/>
	<path class="st5" d="m79.2 17.8c-0.6 0.7-0.6 2.1-0.5 3.2-0.4 0-0.7-1-1.3-1.2v-2.1c1.3-0.2 2.5-0.1 3.7 0.4-0.6 6.1-1.2 11.7-0.6 19.3-0.4 0.5-1 0.8-1.6 1 0-3-0.2-6.5-0.2-9.2 0.3 0 0.7 0.1 0.9-0.1 0.3-0.7-0.4-1.4-0.5-2.4-0.1-1.5 0.7-3.6-0.2-4.9-0.1-1 0-2 0.1-3-0.2-0.4 0.1-0.6 0.2-1"/>
	<path class="st0" d="m76.4 16.5c4-0.2 7.8 1.7 10 5 1 1.4 2.1 2.9 1.8 5.3-0.3 1.8-0.9 3.6-1.6 5.2-1.4 3-2.5 5.5-5.2 7.2-0.8 0.6-1.7 1.1-2.7 1.4-2.2 0.4-6.5-0.8-8-1.6-2.6-1.3-4-3.2-4.9-6.4-0.6-2.1-0.8-4.3-0.6-6.4 0.2-1.2 0.6-2.4 1.3-3.4 0.7-1.6 1.8-3 3.2-4 2.1-1.2 4.4-2 6.7-2.3m2.6 2.2c-0.1 1-0.2 2-0.1 3 0.9 1.3 0.1 3.4 0.2 4.9 0.1 1 0.8 1.7 0.5 2.4-0.2 0.2-0.6 0.1-0.9 0.1 0 2.8 0.2 6.2 0.2 9.2 0.6-0.2 1.2-0.5 1.6-1-0.6-7.5 0-13.1 0.6-19.3-1.2-0.5-2.5-0.6-3.7-0.4v2.1c0.6 0.2 0.9 1.2 1.3 1.2-0.1-1.1-0.1-2.5 0.5-3.2-0.1 0.5-0.4 0.8-0.2 1m-3.4-1.1c-0.1 0.7-0.1 0.9-0.2 1.5 0.6 0.1 1.2 0.2 1.7 0.5 0-0.7 0-1.4-0.1-2.1-0.4 0.2-0.9-0.1-1.4 0.1m-1.8 0.4v1.1c0.5 0.1 0.9 0 1.4-0.1-0.1-0.5 0.3-1.1 0-1.4-0.4 0.2-1 0.2-1.4 0.4m-1.3 0.3c0 0.5-0.4 1.3 0 1.4 0.2-0.3 0.8-0.2 1-0.5-0.3-0.2 0.3-1.1-0.1-1.2-0.2 0.2-0.6 0.2-0.9 0.3m8.2 18.8c0.4-0.4 1.5-1.3 1.7-2.2 0-1.1-0.1-2.1-0.2-3.2 0-3.4 0.2-6.6 0.3-9.5 0.1-1.7 0.7-3.4-1.2-3.8-0.7 6.2-0.9 12.4-0.6 18.7m-9.6-16.8c0.7 0.3 1.4-1.2 0.9-1.7-0.5 0.5-1 0.8-0.9 1.7m-1.4 1.2c0.9-0.2 1.7-1.4 1.1-1.9-0.4 0.6-1.3 0.7-1.1 1.9m13 13c0.9-0.8 1.4-2.1 1.2-3.3-0.1-1.1 0.1-2.3 0.1-3.6 0-1.2-0.1-2.5-0.1-3.6 0-1.3 0.2-3.7-1-4.3-0.4 5.1-0.3 9.7-0.2 14.8m-5.9-14.3c-1.8-0.2-2.9 1.2-4.2 2-1 1.5-1.4 3.2-1.3 5 0.4 1.4 1.6 1.8 2.3 2.9-1 0-1.9 0.2-2.9 0.2-0.1 0.9 0 1.9 0.3 2.8 0.1 0.3 0.3 0.4 0.4 0.7 0 0.1-0.1 0.4 0 0.5 1.1 2.2 4.8 4 5-0.2-0.2-0.1-0.3-0.4-0.4-0.5-1 0-2-0.4-2.8-1.1 0.3-1.3 2.1-1.4 3.2-1.7-0.3-0.5-0.1-1.2-0.3-1.9-0.5 0.1-0.6-0.2-1.1-0.1-0.7-0.8 0-2.3 1-1.9-0.3 0.4-1.2 0.6-0.8 1.4 0.6 0 0.6-0.6 1.3-0.6 0.7 0.8 1.7 1.1 2.7 0.7-1.2-2.4 0.7-7.8-2.4-8.2m-3.7 0.6c0 0.1 0 0.3-0.1 0.4 0.4-0.1-0.1 0.2 0.2 0.2 0.1-0.3 0.6-0.4 0.2-0.6 0.3 0 0.8-0.5 0.6-0.3-0.4 0-0.5 0.3-0.9 0.3m-2.1 0.8c0.5-0.2 0.9-0.5 1.2-0.9-0.5 0.2-0.7 0.7-1.2 0.9m-1.7-0.7c-0.6 0.5-0.9 1.3-0.6 2 0.4-0.4 1.4-1.3 0.6-2m15.1 10.6c1.5-3.3 0.9-7.4-0.4-10.4 0.7 3 0 7.5 0.4 10.4m-16.9-7c0.1-0.6-0.1-1.3 0-1.6-0.5 0.2-0.6 0.9-1 1.3 0.3 4.4-0.7 9.3 1.5 12.1-0.1-2-0.2-3.9-0.1-5.9-2.2-1.1-0.4-3.8-0.2-5.9 0.1 0.2-0.1 0.6 0.1 0.6 0.3-1.1 0.9-2.3 0.6-3.3-1.1 0.2-0.4 1.8-0.9 2.7m2.7-2.2c0.3 0 0.6-0.2 0.7-0.5-0.3 0.1-0.3 0.5-0.7 0.5m-0.1 3.1c0.7-0.9 0.8-2.3 1.5-3.2-1 0.4-1.2 1.8-1.5 3.2m-1.2-0.3c-0.3 1.3-0.4 3 0.6 3.2-1.1-1.7-0.2-4.4 0.7-5.5 0-0.1-0.1-0.1-0.2-0.1-0.4 0.7-0.8 1.5-1.1 2.4m-2.6 7.4c0-2.6-0.2-5.4-0.2-7.3-0.9 2.1-0.3 5.2 0.2 7.3m3.2-5.3c-0.1-0.2 0-1.1-0.2-0.9 0 0.3 0.1 1 0.2 0.9m-0.2 2.4c-0.9-0.4-1.1-1.5-1.3-2.6-0.4 1.1 0.1 2.7 1.3 2.6m-1.4-0.5c-0.3-0.1 0-0.8-0.4-0.8 0.1 0.3 0.2 1 0.4 0.8m2.3 0.3c-0.3-0.3-0.7-0.6-1.2-0.8 0.2 0.4 0.8 1 1.2 0.8m6.4 2.8c0.6 0.1 0.4 1.2 0.1 1.5 0.9 1.5-0.6 2.2-0.8 3.2-0.2 0.8 0.3 1.5 0.1 2.6 0.5 0.1 1 0 1.4-0.2 0-1.4-0.1-3 0-4.3 0.1-1-0.1-2-0.1-3 0-1.1 0.5-2.5-0.4-3.3-1.4 0.5 0.6 2.7-0.3 3.5m1.1 7c0.5 0.1 0.4-0.4 0.8-0.4 0.1-3.4-0.1-6.8-0.2-9.7-0.3-0.1-0.5-0.2-0.8-0.2 0.4 3.3-0.1 6.7 0.2 10.3m-6.8-0.6c0.2-1.1-0.1-2.1 0.2-3.9-0.8-1.5-1.4-2.8-0.9-4.3-0.2 0-0.4 0.1-0.6 0.2 0.1 1.2 0.1 2.4-0.1 3.5 0.6 0.9-0.6 4.3 1.4 4.5m0.3 0.1c0.5 0.1 0.9 0.4 1.5 0.4-0.1-0.8-0.1-1.7-0.1-2.5-0.6-0.4-0.9-1.2-1.5-1.7 0.2 1.3 0.2 2.5 0.1 3.8m1.8 0.6c0.7 0.1 0.9 0.3 1.4 0 0 0.5 0.7 0.3 1.1 0.3-0.1-0.9-0.1-1.7 0-2.6-0.3 0.2-0.7 0.2-1.1 0.2-0.2 0.1 0 0.6-0.2 0.6 0-0.2 0-0.4-0.1-0.6-0.7 0.1-0.8-0.3-1.3-0.3-0.1 0.7 0.3 1.6-0.1 1.9 0.3 0 0.3 0.2 0.3 0.5m-4.8-8.9c-0.1 2.1 0 4.3 0.2 6.4 0.4 0.2 0.6 0.6 1 0.8 0.2-2-0.3-5 0.2-7-0.4-0.1-0.9-0.2-1.4-0.2m5.5 2c1.2 0 2.4-0.1 2.7-1-0.9 0-2.4 0-2.7 1m0.6 0.4c0.2 0.7 2.1 0.5 2.2-0.1-0.4-0.7-1.4 0.1-2.2 0.1"/>
	<path class="st4" d="m79.2 28.5c-1 0.4-2 0.1-2.7-0.7-0.7 0-0.7 0.6-1.3 0.6-0.4-0.8 0.5-1 0.8-1.4-1-0.4-1.7 1.1-1 1.9 0.5-0.1 0.6 0.2 1.1 0.1 0.2 0.7 0 1.4 0.3 1.9-1.1 0.3-2.9 0.4-3.2 1.7 0.8 0.7 1.8 1.1 2.8 1.1 0.2 0.2 0.2 0.4 0.4 0.5-0.2 4.2-3.9 2.4-5 0.2-0.1-0.1 0-0.4 0-0.5-0.1-0.3-0.3-0.4-0.4-0.7-0.3-0.9-0.4-1.9-0.3-2.8 1 0 1.9-0.2 2.9-0.2-0.7-1.1-1.9-1.5-2.3-2.9-0.1-1.8 0.3-3.5 1.3-5 1.3-0.8 2.4-2.2 4.2-2 3.1 0.4 1.2 5.7 2.4 8.2m-7.4-4.8c0.2 0.8 0.9 1.3 1.7 1.2-0.5-0.2-1.7-0.6-1.1-1.3 1.1 0.8 2.5 1.1 3.9 1-0.5 0.3-1.3 0.3-1.7 0.7 1.2 0.3 3-1.3 3.1-2 0.2-1.1-1-2.5-2.2-2 0.3 0.3 1.1 0.1 1.3 0.8-2.1-0.5-4.2 0-5 1.6m0.5 7.3c-1 1-0.3 3.5 1.2 3.4-0.1-0.3 0.2-0.2 0.2-0.4-1.5-0.7-0.6-2.1-1.4-3"/>
	<path class="st6" d="m74 20.5c0.2-0.2-0.3 0.3-0.6 0.3 0.4 0.2-0.1 0.3-0.2 0.6-0.3 0 0.2-0.3-0.2-0.2 0.1-0.1 0.1-0.3 0.1-0.4 0.4 0 0.5-0.3 0.9-0.3"/>
	<path class="st6" d="m72.2 20.7c-0.3 0.4-0.7 0.7-1.2 0.9 0.5-0.2 0.7-0.7 1.2-0.9"/>
	<path class="st5" d="m68.4 21.8c0.3 1-0.3 2.3-0.6 3.3-0.2 0 0-0.4-0.1-0.6-0.2 2.2-2 4.8 0.2 5.9-0.1 2 0 3.9 0.1 5.9-2.2-2.8-1.2-7.7-1.5-12.1 0.4-0.4 0.5-1.1 1-1.3-0.1 0.3 0.1 1.1 0 1.6 0.5-0.9-0.2-2.5 0.9-2.7"/>
	<path class="st6" d="m70.9 21.9c-0.1 0.3-0.4 0.5-0.7 0.5 0.4-0.1 0.4-0.5 0.7-0.5"/>
	<path class="st3" d="m17.9 48.4c-0.1 0 0 0 0 0-0.5-0.1-1.8 0.2-1.3 1.1 0.2-0.7 0.9-0.9 1.5-0.5v0.6c0.2-0.3 0.1-0.9-0.2-1.2"/>
	<path class="st0" d="m14.1 48.9c1.2 2 5.4 1.1 6.6-0.1-0.4-0.7-2.4-1.1-3.8-0.9-0.2 0-0.3 0.2-0.5 0.2-0.8 0.3-1.9 0.2-2.3 0.8m6 0c-0.6 0.2-1 0.5-1.6 0.7 0.3-0.5-0.3-1-0.2-1.3 0.8 0 1.5 0 1.8 0.6m-2 0.6v-0.5c-0.6-0.4-1.3-0.3-1.5 0.5-0.4-0.9 0.9-1.2 1.3-1 0 0-0.1-0.1 0-0.1 0.3 0.3 0.4 0.9 0.2 1.1m-1.7 0.3c-0.6 0.1-1.3-0.2-1.7-0.7 0.5-0.3 1-0.5 1.5-0.6-0.2 0.4 0.1 0.9 0.2 1.3"/>
	<path class="st6" d="m69.3 26.3c0.2-0.2 0.1 0.7 0.2 0.9-0.1 0.1-0.2-0.6-0.2-0.9"/>
	<path class="st6" d="m67.5 28.3c0.4 0 0.1 0.7 0.4 0.8-0.2 0.2-0.3-0.5-0.4-0.8"/>
	<path class="st5" d="m69.5 34.1c0.2-1.2 0.2-2.3 0.1-3.5 0.2-0.1 0.4-0.2 0.6-0.2-0.5 1.5 0.1 2.8 0.9 4.3-0.3 1.8 0 2.8-0.2 3.9-2-0.2-0.8-3.6-1.4-4.5"/>
	<path class="st13" d="m16.3 22.1c0.2-0.4 0.6-0.6 1-0.7 0 0.4 0.1 0.8 0.3 1.1-0.4 0.2-1-0.3-1.3-0.4"/>
	<path class="st0" d="m12.5 53.3c0.5 0.1 1.1 0.1 1.7 0 0.5 0.9-0.1 2.4 0.6 2.9-1.1 3.4 5.1 2.6 6.9 1.7 1.9-1 2.8-3.8 1.7-5.4 0.4-0.8 0.3-1.8-0.4-2.4 0.8-1.2 0.6-2.8-0.4-3.9-1.8-1-3.8-1.3-5.9-1-0.9 0.3-1.7 0.6-2.5 0.9-0.3 0.6-0.7 0.8-0.5 1.6-1 1.3-1.6 2.8-1.6 4.4 0.1 0.6 0.5 0.9 0.4 1.2m0.1-0.7c-0.3-1.6 0.6-4.4 1.5-4.7 0.1 0 0.4 0.1 0.5 0.1 2-0.1 4.9-2 6.3-0.4 0.3 0.7 0.4 1.6 0.8 2.3 0.2 0.2 0.9-0.1 0.9 0.2-0.8 0.1-1.4 0.6-1 1.5 0.6 0.1 1.2-0.4 1.1-0.7-0.4 0.1-0.5 0.5-0.9 0.6-0.1-0.7 0.5-0.8 0.9-1 0.7 0.1 0.9 1.2 0.5 1.8-0.5 0-1 0.3-1.2 0.8 0.1 0.2 0.1 0.8-0.1 0.9-0.4 0.1-0.2-0.5-0.6-0.4 0.1 0.3 0 0.3-0.1 0.6 0.3 0.2 0.6 0.2 0.9 0.2 0.4-0.5 0-1.7 0.9-1.7 0.8 1.9 0 4.2-2 5.1-0.2 0.1-0.3 0.1-0.5 0.2-1.6 0.1-5.3 1.1-5.8-1 0.1-0.1 0.2-0.2 0.2-0.3 2.7 0.5 4-1.8 1.9-2.5-0.8-0.1-1.6 0-2.3 0.2 0.2-0.3 0-0.7-0.1-0.9 1.7 0.2 2.1-2 0.5-1.9 0.1 0.4 0.6 0.3 0.7 0.6v0.5c-0.2 0.3-0.7 0-1.1 0.2 0-0.9-1.6-0.8-1.1 0.2-0.3-0.1-0.5-0.4-0.8-0.5m4.8 2.5c-0.8 0.3-1.7 0.2-2.5-0.2 0-0.8 2.6-1.1 2.5 0.2m-0.4 0.6c-0.5 0.4-2 0.7-2.1-0.2 0.6 0.1 1.8-0.3 2.1 0.2"/>
	<path class="st0" d="m17.7 43.1c-1.1-0.1-2.2-0.1-3.2 0.2-1.9 0.5-3.5 1.7-4.5 3.4-0.3 0.5-0.5 1.3-0.8 2s-0.5 1.3-0.6 2.1c-0.2 2.7 0.6 5.5 2.2 7.7 2.5 2.9 6.6 3.9 10.1 2.5 0.7-0.4 1.4-0.9 2.1-1.5 1.9-1.3 3.1-3.2 3.5-5.5 0.8-4-0.6-7.9-3.6-9.3-1.6-0.9-3.4-1.4-5.2-1.6m0.3 18.1c-2.2 0.1-4.4-0.9-5.8-2.6-0.4-0.3-0.7-0.7-1-1.1-1.1-2.1-1.5-4.6-1.2-7 0.5-2.2 1.2-4.6 2.7-5.7 3.4-2.5 8.9-0.1 11.4 1.4 0.2 0.6 0.9 1 1.2 1.7 0.9 2.2 1.1 4.7 0.6 7-0.2 0.5-0.5 1-0.9 1.5-0.7 1.2-1.6 2.3-2.6 3.2-1.6 0.3-2.8 1.4-4.4 1.6"/>
	<path class="st0" d="m73.7 34c0 0.2-0.3 0.1-0.2 0.4-1.6 0.1-2.2-2.4-1.2-3.4 0.8 0.9-0.1 2.3 1.4 3"/>
	<path class="st14" d="m22.4 59.6c1-0.9 1.9-2 2.6-3.2 0.3-0.5 0.6-1 0.9-1.5 0.5-2.4 0.3-4.8-0.6-7-0.3-0.7-0.9-1.1-1.2-1.7-2.5-1.5-8-3.9-11.4-1.4-1.5 1.1-2.2 3.5-2.7 5.7-0.4 2.4 0.1 4.8 1.2 7 0.3 0.4 0.7 0.8 1 1.1 1.4 1.8 3.5 2.7 5.8 2.6 1.6-0.2 2.8-1.3 4.4-1.6m-10.2-7.4c0-1.6 0.6-3.2 1.6-4.4-0.2-0.7 0.2-1 0.5-1.6 0.8-0.4 1.7-0.7 2.5-1 2-0.3 4.1 0 5.8 1 1 1 1.2 2.7 0.4 3.9 0.7 0.6 0.8 1.6 0.4 2.4 1.1 1.6 0.2 4.4-1.7 5.4-1.8 0.9-8 1.7-6.9-1.7-0.7-0.6-0.1-2-0.6-2.9-0.5 0.1-1.1 0.1-1.7 0 0.1-0.3-0.3-0.6-0.3-1.1"/>
	<path class="st0" d="m17.7 67.9c-0.1 0.4 0.1 0.6 0.1 0.9-0.4 0.2-0.9 0.1-1.2-0.2 0.1-0.5 0.5-0.8 1-0.7h0.1"/>
	<path class="st0" d="m21.5 68c0.1 0.1 0.1 0.4 0.1 0.7-0.4 0.4-0.8 0.1-0.8-0.5 0.2-0.1 0.4-0.2 0.7-0.2"/>
	<path class="st0" d="m24.2 68.4c0 0.1 0 0.2 0.1 0.2-0.1 0.5-0.4 0.8-1 0.7-0.2-0.8 0.2-1.2 0.9-0.9"/>
	<path class="st0" d="m15.4 68.4c0.5 0.3-0.2 1.1-0.7 0.7 0-0.5 0.4-0.5 0.7-0.7"/>
	<path class="st0" d="m25.1 70.4c0.1 0.9-0.5 1-1.1 0.7-0.1-0.7 0.6-1 1.1-0.7"/>
	<path class="st0" d="m13.2 70.7c-0.2 0.3-0.3 0.7-0.8 0.7-0.3-0.5 0.3-1 0.8-0.7"/>
	<path class="st3" d="m19 70.9c-0.4 0.2-0.8 0.1-1.4 0.3 0.3-0.3 0.9-0.2 1.4-0.3"/>
	<path class="st3" d="m19.2 71.2c-0.7 0.4-1.4 0.7-2.2 0.7 0.5-0.4 1.5-0.4 2.2-0.7"/>
	<path class="st3" d="m15.8 71.4c-0.3 0.4-0.7 0.7-1 1.1 0-0.3 0.3-1.1 1-1.1"/>
	<path class="st0" d="m25 73.4c-0.6 0-0.8-0.4-0.8-1 0.7-0.6 1.4 0.5 0.8 1"/>
	<path class="st0" d="m26 72.3h0.4c0.2 0.1 0.3 0.9 0 1-0.4-0.1-0.6-0.5-0.5-0.9 0.1 0 0.1 0 0.1-0.1"/>
	<path class="st0" d="m27.3 72.7c0.1-0.2 0.8-0.1 0.6 0.3-0.2 0.2-0.4 0-0.6-0.1 0.1 0 0.2-0.1 0-0.2"/>
	<path class="st0" d="m12 72.7c0.2 0 0.4 0 0.5 0.1 0 0.4-0.1 0.6-0.5 0.6-0.1-0.2-0.1-0.4 0-0.7"/>
	<path class="st0" d="m10.7 72.8c0.2 0.1 0.4 0.1 0.5 0.3 0 0.3-0.4 0.1-0.4 0.3-0.3 0-0.2-0.4-0.1-0.6"/>
	<path class="st0" d="m22.2 74.5c-0.9 0.2-1.1 0.9-1.7 1.4-0.1-0.3 0.2-0.3 0.1-0.6-1.4 0.8-2.9-0.4-3.9-0.5 0.8-1.7 4.8-2.8 5.5-0.3m-4.5 0c0.4 0 0.6 0.3 1 0.3-0.2-0.2 0-0.9-0.2-1.1-0.3 0.3-0.7 0.4-0.8 0.8m2.5 0.5c0.7 0 0.9-0.5 1.2-0.8-0.4-0.1-0.7-0.4-1.1-0.5 0.1 0.5 0.1 0.9-0.1 1.3m-1-0.5c0.2 0 0.3 0.2 0.5 0.2 0-0.2-0.1-0.5-0.3-0.6 0 0.2-0.2 0.2-0.2 0.4"/>
	<path class="st15" d="m18.5 73.7c0.2 0.2 0 0.9 0.2 1.1-0.4 0-0.6-0.3-1-0.3 0.1-0.4 0.5-0.5 0.8-0.8"/>
	<path class="st15" d="m20.3 73.7c0.4 0.1 0.7 0.4 1.1 0.5-0.3 0.3-0.5 0.8-1.2 0.8 0.2-0.4 0.2-0.8 0.1-1.3"/>
	<path class="st0" d="m12.3 74.5c-0.1 0.2-0.4 0.2-0.7 0.3-0.4-0.7 0.6-0.9 0.7-0.3"/>
	<path class="st3" d="m19.4 74.1c0.2 0.1 0.3 0.4 0.3 0.6-0.2 0-0.3-0.2-0.5-0.2-0.1-0.2 0.2-0.2 0.2-0.4"/>
	<path class="st3" d="m14 74.4c0.4 0.1-0.1 0.9 0.1 1.6 0.1-0.4 0.2-0.8 0.2-1.2 0.2 0.8 0.4 1.6 0.5 2.4-0.4-0.3-0.4-0.7-0.6-1.1-0.3 0.1 0.1 0.4 0 0.7-0.3-0.7-0.4-1.5-0.2-2.4"/>
	<path class="st0" d="m10 74.5h0.4c0.3 0.4 0.2 0.7-0.3 0.8 0-0.1-0.1-0.1-0.2-0.1-0.1-0.3 0.1-0.4 0.1-0.7"/>
	<path class="st0" d="m25.3 75.3c0.5 1-0.7 1.9-1.1 0.9 0.2-0.5 0.4-1.2 1.1-0.9"/>
	<path class="st0" d="m27.9 76.2c-0.1-0.2-0.1-0.4-0.3-0.5 0.3-1.1 1.2 0.3 0.3 0.5"/>
	<path class="st0" d="m26.4 75.4c0.4 0 0.4 0.4 0.4 0.8-0.2 0.1-0.5 0.1-0.7-0.1 0-0.2 0.1-0.5 0.3-0.7"/>
	<path class="st3" d="m14.9 75.7h0.3c-0.1 0.6 0 1.3 0.3 1.8-0.5 0.1-0.5-1.1-0.6-1.8"/>
	<path class="st3" d="m13.5 76c0.2 0.3 0.2 0.7 0.1 1-0.1-0.3-0.2-0.6-0.1-1"/>
	<path class="st0" d="m12 76.9c-0.2 0.1-0.5 0.1-0.7 0 0-0.6 0.7-0.5 0.7 0"/>
	<path class="st0" d="m10.6 77.4c-0.2 0.3-0.6 0.4-0.9 0.2l-0.1-0.1c-0.1-0.8 0.9-0.7 1-0.1"/>
	<path class="st3" d="m14.3 77.4c0.4 0.4 0.7 0.9 0.8 1.5-0.5-0.4-0.8-1-0.8-1.5"/>
	<path class="st0" d="m28.2 77.6c0.2 0.3 0.1 0.7-0.1 1h-0.5c-0.3-0.3-0.2-0.7 0-1 0.3 0 0.3-0.3 0.6 0"/>
	<path class="st3" d="m13.3 77.7c0.5 0.2 0.4 0.8 0.6 1.3-0.3-0.4-0.5-0.9-0.6-1.3"/>
	<path class="st0" d="m24.7 77.7c0.1 0.1 0.1 0.3 0.2 0.3-0.1 0.2-0.4 0.4-0.6 0.3 0-0.2 0-0.4-0.1-0.4 0.1-0.2 0.3-0.3 0.5-0.2"/>
	<path class="st0" d="m26.5 77.7c0.1 0.3 0.1 0.6-0.1 0.8-0.3 0.1-0.3-0.1-0.5-0.1 0-0.6 0.2-0.8 0.6-0.7"/>
	<path class="st0" d="m10 79c0 0.4-0.1 0.7-0.5 0.7 0-0.4 0.1-0.7 0.5-0.7"/>
	<path class="st0" d="m11.9 79c0 0.3 0.3 0.4 0.2 0.8-0.2 0.1-0.3 0.3-0.7 0.2-0.3-0.4-0.3-1.2 0.5-1"/>
	<path class="st0" d="m27 81c-0.2-0.3-0.3-0.7-0.2-1 0.4-1 1.7 0.9 0.2 1"/>
	<path class="st0" d="m19.8 79.9c-0.6 0.7-0.3 2.3-0.2 2.9-0.9-0.5-1-3 0.2-2.9"/>
	<path class="st3" d="m16.9 80.2c-0.6 0.2-1.2 0.3-1.8 0.1 0.6-0.2 1.2-0.3 1.8-0.1"/>
	<path class="st0" d="m23.1 80.1h0.3c0 0.3 0.2 0.7 0 0.9-0.4 0.1-0.3-0.2-0.6-0.2 0.2-0.3 0.3-0.5 0.3-0.7"/>
	<path class="st0" d="m26 80.2c0 0.1 0 0.3 0.1 0.3 0 0.3-0.3 0.4-0.6 0.5 0-0.3-0.3-0.3-0.2-0.7 0.2-0.2 0.5-0.1 0.7-0.1"/>
	<path class="st0" d="m24.5 80.9c-0.3 0.1-0.3 0-0.6-0.1 0-0.6 0.8-0.5 0.6 0.1"/>
	<path class="st16" d="m21.9 81c-0.4 0.3-1.6 0.4-1.7-0.3 0.4-0.3 1.7-0.4 1.7 0.3"/>
	<path class="st16" d="m21.7 81.5c0.2 0 0.2 0.2 0.2 0.4-0.4 0.1-1.1 0.4-1.1-0.2 0.2-0.3 0.8 0 0.9-0.2"/>
	<path class="st0" d="m10.2 82h0.5c0.2 0.2 0.4 0.5 0.2 0.9-0.4 0-0.7-0.3-0.7-0.7v-0.2"/>
	<path class="st0" d="m14.9 82c0.1 0.2 0.1 0.5 0.1 0.7-0.2 0.2-0.5 0.2-0.8 0.2 0-0.6 0.1-1 0.7-0.9"/>
	<path class="st0" d="m13.1 82.2v0.4c-0.2 0.2-0.6 0-0.9 0v-0.4c0.3-0.2 0.6-0.2 0.9 0"/>
	<path class="st0" d="m23.4 82.4c0.2 0.3 0.2 0.7 0.1 1.1-0.8 0.2-1.1-1.4-0.1-1.1"/>
	<path class="st0" d="m24.7 82.7c0.1 0.2 0.1 0.6 0.2 0.8-0.6 0.1-0.6-0.4-0.7-0.7 0.2-0.1 0.4-0.2 0.5-0.1"/>
	<path class="st0" d="m25.9 82.7c0.1 0.1 0.2 0.1 0.3 0.1 0.1 0.3 0 0.5-0.2 0.7-0.4-0.1-0.3-0.6-0.1-0.8"/>
	<path class="st0" d="M27.3,83c-0.2,0-0.3-0.1-0.4-0.1c0-0.2,0.2-0.2,0.4-0.2V83z"/>
	<path class="st0" d="m14.7 84.4c1.7 1.6-1.9 1 0 0"/>
	<path class="st0" d="m23.6 84.6c0.1 0.1 0.1 0.4 0.1 0.7-0.5 0.1-0.6-0.2-0.7-0.6 0.2-0.1 0.4-0.2 0.6-0.1"/>
	<path class="st0" d="m24.8 84.7h0.3v0.7c-0.3-0.3-0.1 0.2-0.4 0.1-0.2-0.3 0.1-0.6 0.1-0.8"/>
	<path class="st0" d="m23.8 85.9c0.2 0.1 0.1 0.5 0.3 0.7-0.2 0.2-0.6 0.3-0.9 0.2 0-0.1 0-0.2-0.1-0.2 0.1-0.4 0.3-0.7 0.7-0.7"/>
	<path class="st0" d="m15.4 87.3c-0.3 0.2-0.7 0.5-1.1 0.3-0.4-1 1.2-1.6 1.1-0.3"/>
	<path class="st0" d="m17.8 86.5c0.3 0.9-0.7 1-1.1 0.6-0.1-0.7 0.5-0.6 1.1-0.6"/>
	<path class="st0" d="m22.2 86.7c0 0.5-0.8 0.3-0.7-0.1 0.3-0.2 0.6-0.1 0.7 0.1"/>
	<path class="st0" d="m19.5 86.9c0.2 0.3 0.1 0.7-0.2 0.9-0.1-0.1-0.2-0.1-0.3-0.1 0-0.5 0-0.9 0.5-0.8"/>
	<path class="st0" d="m21.6 87.6c-0.1 0.1-0.3 0.2 0.1 0.2-0.1 0.1-0.1 0.2-0.1 0.3-0.4-0.1-0.5 0.2-0.7 0 0-0.3 0.1-0.5 0.4-0.5 0.1-0.1 0.2-0.1 0.3 0"/>
	<path class="st17" d="m24.6 87.1c-2.9 1.8-7.4 3-10.6 1.1-1.3-1-2.4-2.2-3.2-3.6-1.2-2.1-1.9-4.4-1.9-6.8 0-1.7 0.4-3.3 1.1-4.8 0.3-0.5 1-1.2 1.6-1.9 1.6-2.1 3.9-3.5 6.5-4 3.8-0.9 6.8 1.1 8.8 3.7 1.5 1.6 2.2 3.8 2.1 6-0.2 3.8-1.8 7.4-4.4 10.3m2.7-4.4c-0.2 0-0.4 0-0.4 0.2 0.1 0 0.2 0.1 0.4 0.1v-0.3zm-8.6-14.4c0.1 0.4 0.5 0.6 1.1 0.6 0.2-0.4 0-0.7-0.1-1.1-0.4-0.1-0.8 0.1-1 0.5m-2.1 0.3c0.3 0.3 0.8 0.4 1.2 0.2 0-0.3-0.2-0.5-0.1-0.9-0.5-0.1-0.9 0.1-1.1 0.6v0.1m4.2-0.4c0 0.6 0.4 0.9 0.8 0.5 0-0.3 0-0.6-0.1-0.7-0.3 0-0.5 0.1-0.7 0.2m2.5 1.1c0.6 0.1 0.9-0.2 1-0.7-0.1 0-0.1-0.1-0.1-0.2-0.7-0.3-1.1 0.1-0.9 0.9m-8.6-0.2c0.5 0.4 1.2-0.4 0.7-0.7-0.3 0.2-0.8 0.2-0.7 0.7m9 9.9c0.1-0.4-0.4-0.7-0.5-1.5-0.2-1 0.5-3.5 0.2-4.8-0.1-0.4-0.5-0.7-0.7-1.2-0.4-1-0.6-1.5-1.4-1.8-2 0.2-4.1-0.4-5.9 0.5-1.7 0.9-2.9 4-3.1 6-0.3 3.2 0.7 4.7 3.5 4.7-0.9 3.8 5.1 7.4 6.3 4.1 0.5-1.2-1-2.2 0.3-3.1 0-0.8-0.2-1.6-0.6-2.2 0.8 0 1.7 0 1.9-0.7m0.3-7.9c0.6 0.3 1.2 0.2 1.1-0.7-0.5-0.3-1.2 0-1.1 0.7m-11.6 0.3c0.5 0 0.6-0.4 0.8-0.7-0.5-0.3-1.1 0.2-0.8 0.7m11.8 1c0 0.6 0.2 1 0.8 1 0.6-0.5-0.1-1.6-0.8-1m2.3 0.9c0.3-0.1 0.2-0.9 0-1h-0.4c-0.2 0.3-0.1 0.8 0.3 0.9 0 0.1 0 0.1 0.1 0.1m0.9-0.4c0.2 0.1 0.4 0.3 0.6 0.1 0.2-0.4-0.5-0.5-0.6-0.3 0.1 0.1 0 0.2 0 0.2m-15.4 0.5c0.4 0 0.5-0.2 0.5-0.6-0.1-0.1-0.3-0.1-0.5-0.1-0.1 0.3-0.1 0.5 0 0.7m-1.2 0c0-0.2 0.4 0 0.4-0.3-0.1-0.2-0.3-0.2-0.5-0.3-0.1 0.2-0.2 0.6 0.1 0.6m0.8 1.4c0.3-0.1 0.6-0.1 0.7-0.3-0.1-0.6-1.1-0.4-0.7 0.3m-1.7 0.4c0.1 0 0.2 0 0.2 0.1 0.5-0.1 0.6-0.4 0.3-0.8h-0.4c0 0.3-0.2 0.4-0.1 0.7m14.3 1c0.4 1 1.6 0.1 1.1-0.9-0.7-0.3-0.9 0.4-1.1 0.9m3.4-0.5c0.2 0.1 0.2 0.4 0.3 0.5 0.9-0.2 0-1.6-0.3-0.5m-1.4 0.4c0.2 0.2 0.5 0.2 0.7 0.1 0-0.4 0-0.8-0.4-0.8-0.3 0.2-0.4 0.5-0.3 0.7m-14.9 0.7c0.2 0.1 0.5 0.1 0.7 0 0-0.4-0.7-0.5-0.7 0m-1.7 0.6c0.2 0.3 0.7 0.3 0.9 0l0.1-0.1c-0.1-0.6-1.1-0.6-1 0.1m18 0.1c-0.2 0.3-0.3 0.7 0 1h0.5c0.2-0.3 0.3-0.7 0.1-1-0.3-0.2-0.3 0.1-0.6 0m-3.4 0.3c0.1 0 0.1 0.2 0.1 0.4 0.2 0.1 0.5-0.1 0.6-0.3-0.1 0-0.1-0.2-0.2-0.3-0.1 0-0.3 0.1-0.5 0.2m1.8 0.5c0.2 0 0.2 0.2 0.5 0.1 0.2-0.2 0.2-0.5 0.1-0.8-0.5 0-0.7 0.2-0.6 0.7m-16.5 1.3c0.4 0 0.5-0.3 0.5-0.7-0.4 0.1-0.5 0.4-0.5 0.7m1.9 0.3c0.4 0.1 0.5-0.1 0.7-0.2 0.1-0.4-0.2-0.5-0.2-0.8-0.8-0.1-0.8 0.7-0.5 1m15.5 0c-0.1 0.3 0 0.7 0.2 1 1.4 0 0.2-1.9-0.2-1m-4.1 0.8c0.3 0 0.2 0.3 0.6 0.2 0.2-0.2 0-0.6 0-0.9h-0.3c0 0.3-0.1 0.5-0.3 0.7m2.5-0.5c-0.1 0.4 0.2 0.4 0.2 0.7 0.3-0.1 0.6-0.2 0.6-0.5-0.1 0-0.1-0.2-0.1-0.3-0.2 0-0.5 0-0.7 0.1m-1.4 0.5c0.3 0.1 0.3 0.2 0.6 0.1 0.2-0.5-0.6-0.6-0.6-0.1m-13 2.1c0.2-0.4 0-0.7-0.2-0.9h-0.5c-0.1 0.4 0.1 0.8 0.5 0.9 0.1 0 0.1 0.1 0.2 0m3.3 0c0.3 0 0.6 0 0.8-0.2 0-0.2 0-0.5-0.1-0.7-0.6 0-0.7 0.4-0.7 0.9m-2-0.7v0.4c0.3 0 0.7 0.2 0.9 0v-0.4c-0.3-0.1-0.6-0.1-0.9 0m11.3 1.3c0.1-0.4 0.1-0.8-0.1-1.1-1-0.3-0.7 1.4 0.1 1.1m0.7-0.7c0.1 0.3 0.1 0.8 0.7 0.7-0.1-0.2-0.1-0.6-0.2-0.8-0.1 0-0.3 0-0.5 0.1m1.9 0.7c0.2-0.2 0.3-0.4 0.2-0.7-0.1 0-0.2 0-0.3-0.1-0.2 0.3-0.3 0.8 0.1 0.8m-13.9 2c0.1 0 0.2 0 0.2 0.1 0.5-0.1 0.7-0.3 0.7-0.9-0.5-0.6-1.3 0.1-0.9 0.8m2.5-1c-1.9 1 1.7 1.6 0 0m8.3 0.3c0.1 0.4 0.2 0.7 0.7 0.6 0-0.3 0-0.6-0.1-0.7-0.2-0.1-0.4-0.1-0.6 0.1m1.7 0.8c0.3 0.1 0.1-0.4 0.4-0.1v-0.7h-0.3c0 0.2-0.3 0.5-0.1 0.8m-1.6 1.1c0.1 0 0.1 0.1 0.1 0.2 0.3 0.1 0.7 0 0.9-0.2-0.2-0.2-0.1-0.6-0.3-0.7-0.4 0-0.6 0.3-0.7 0.7m-8.8 1c0.4 0.2 0.8-0.1 1.1-0.3 0.1-1.3-1.5-0.7-1.1 0.3m2.4-0.5c0.4 0.4 1.4 0.3 1.1-0.6-0.6-0.1-1.1-0.1-1.1 0.6m4.8-0.5c-0.1 0.4 0.7 0.6 0.7 0.1-0.1-0.3-0.4-0.3-0.7-0.1m-2.5 1.1c0.1 0 0.2 0 0.3 0.1 0.3-0.2 0.4-0.6 0.2-0.9-0.5-0.1-0.5 0.3-0.5 0.8m1.9 0.4c0.2 0.2 0.3-0.1 0.7 0 0-0.1 0-0.2 0.1-0.3-0.4 0-0.2-0.1-0.1-0.2-0.2-0.1-0.5 0-0.7 0.2v0.3m-4 0.5c0.1 0 0.2 0.1 0.2 0.2 0.4 0 0.6-0.1 0.7-0.4-0.1-0.5-1-0.7-0.9 0.2"/>
	<path class="st3" d="m17.1 71.3c-0.2 0.4-1.3 0.7-1.7 1.3 0-0.6 1.1-1 1.7-1.3"/>
	<path class="st3" d="m17 79.9c-0.9-0.1-1.6-1.2-2-2.1 0.4-0.1 1 1.2 1.4 1.7 0.2 0.2 0.4 0.3 0.6 0.4"/>
	<path class="st0" d="m19.7 67.8c0.1 0.4 0.3 0.7 0.1 1.1-0.6 0-1-0.2-1.1-0.6 0.2-0.4 0.6-0.6 1-0.5"/>
	<path class="st0" d="m21.8 79.7c0.4 0.7 0.6 1.4 0.6 2.2-1.3 0.9 0.1 1.9-0.3 3.1-1.2 3.3-7.2-0.4-6.3-4.1-2.8 0-3.9-1.5-3.5-4.7 0.2-2.1 1.4-5.2 3.1-6 1.8-0.9 3.9-0.3 5.9-0.5 0.8 0.3 1 0.8 1.4 1.8 0.2 0.5 0.6 0.8 0.7 1.2 0.3 1.3-0.4 3.8-0.2 4.8 0.1 0.8 0.6 1.1 0.5 1.5-0.2 0.7-1.1 0.7-1.9 0.7m-4.2-8.5c0.6-0.2 1-0.1 1.4-0.3-0.5 0.1-1.2 0-1.4 0.3m-0.6 0.7c0.8 0 1.5-0.3 2.2-0.7-0.7 0.3-1.7 0.2-2.2 0.7m-1.6 0.7c0.4-0.6 1.5-0.9 1.7-1.3-0.6 0.3-1.7 0.7-1.7 1.3m-0.6-0.1c0.3-0.4 0.7-0.7 1-1.1-0.7 0-1 0.8-1 1.1m1.6 0.2c-0.8 0.5-0.9 2-0.8 3 0.1 1.4 0.6 2.7 1.5 3.8 0.5 0.3 1.3 0.2 1.6 0.7-0.8 0.2-1.5 0.4-2.3 0.6 0.2 2.9 1.4 4.7 4.2 5 1.3-0.3 1-2.2 0.7-3.4-1-0.1-1.4-0.9-1.5-1.8 0.3-0.5 1.2-0.3 1.6-0.7-0.3-0.6-1.2-0.5-1.3-1.2 0.1-0.5 0.6-1.1 1.2-0.8-0.3 0.3-0.9 0.7-0.4 1.2 0.5-0.1 0.4-0.7 1-0.7 0.3 0.1 0.2 0.7 0.5 0.8 0.4-0.1 0.8-0.2 0.9-0.5-1.4-2.2 0.4-5-0.9-6.9-1.9 0.3-4.5 0-6 0.9m-2.2 4.2c0.1-0.3-0.3-0.6 0-0.7 0.2 0.4 0.2 0.8 0.6 1.1-0.1-0.8-0.3-1.6-0.5-2.4 0 0.4-0.1 0.8-0.2 1.2-0.2-0.7 0.3-1.5-0.1-1.6-0.2 0.7-0.1 1.6 0.2 2.4m1.3 0.7c-0.3-0.6-0.4-1.2-0.3-1.8h-0.3c0.1 0.6 0.1 1.8 0.6 1.8m-1.9-0.5c0.1-0.3 0.1-0.7-0.1-1-0.1 0.3-0.1 0.6 0.1 1m1.5 1.8c-0.2-0.5-0.4-1.2-0.8-1.5 0 0.6 0.3 1.1 0.8 1.5m1.3 0.6c-0.4-0.5-1-1.8-1.4-1.7 0.4 0.9 1.1 2.1 2 2.1-0.2-0.1-0.4-0.2-0.6-0.4m-2.5-0.5c-0.2-0.5-0.1-1.1-0.6-1.3 0.1 0.4 0.3 0.9 0.6 1.3m1.2 1.3c0.6 0.2 1.2 0.1 1.8-0.1-0.6-0.2-1.2-0.1-1.8 0.1m5.1 0.4c0.1 0.7 1.3 0.6 1.7 0.3 0-0.8-1.3-0.6-1.7-0.3m0.6 1c0 0.6 0.7 0.3 1.1 0.2 0-0.2 0-0.4-0.2-0.4-0.1 0.2-0.8-0.1-0.9 0.2"/>
	<path class="st4" d="m22.4 71.8c1.3 1.9-0.5 4.7 0.9 6.9-0.1 0.3-0.5 0.4-0.9 0.5-0.4-0.1-0.2-0.7-0.5-0.8-0.6 0-0.5 0.6-1 0.7-0.5-0.5 0.1-0.9 0.4-1.2-0.6-0.3-1.1 0.3-1.2 0.8 0.1 0.7 1 0.6 1.3 1.2-0.4 0.4-1.3 0.2-1.6 0.7 0.1 1 0.5 1.7 1.5 1.8 0.3 1.3 0.6 3.1-0.7 3.4-2.8-0.3-4-2.1-4.2-5 0.8-0.2 1.6-0.4 2.3-0.6-0.3-0.5-1.1-0.4-1.6-0.7-0.9-1.1-1.4-2.4-1.5-3.8-0.1-1 0-2.5 0.8-3 1.5-0.9 4.1-0.6 6-0.9m-5.7 3c1 0.1 2.5 1.3 3.9 0.5 0.1 0.3-0.2 0.3-0.1 0.6 0.6-0.5 0.8-1.2 1.7-1.4-0.7-2.5-4.7-1.4-5.5 0.3m2.9 8c-0.1-0.6-0.4-2.2 0.2-2.9-1.2-0.1-1.1 2.4-0.2 2.9"/>
	<path class="st0" d="m19.4 66c2.3-0.1 4.6 0.7 6.4 2.1 0.9 0.9 1.6 1.9 2.2 2.9 1.7 2.5 2 5.9 1.1 9.3-0.8 3.1-2.3 6.3-4.7 7.7-1.8 1-3.8 1.6-5.9 1.8-2.5 0.2-5-0.8-6.7-2.6-2-1.8-3.4-4.1-4.1-6.7-0.8-3.8 0.2-8.4 2-10.5 0.2-0.3 0.8-0.6 1.1-0.9 1.2-1.2 1.8-1.3 3.7-2 0.8-0.4 1.6-0.7 2.4-1 0.8-0.1 1.7-0.1 2.5-0.1m9.6 10.8c0.1-2.2-0.6-4.4-2.1-6-2.1-2.6-5-4.6-8.8-3.7-2.6 0.5-4.9 1.9-6.5 4-0.6 0.7-1.3 1.4-1.6 1.9-0.7 1.5-1.1 3.1-1.1 4.8 0 2.4 0.7 4.8 1.9 6.8 0.8 1.4 1.9 2.6 3.2 3.6 3.3 1.9 7.7 0.7 10.6-1.1 2.6-2.9 4.2-6.5 4.4-10.3"/>
	<path class="st0" d="m13.1 84.6c0 0.6-0.2 0.9-0.7 0.9 0-0.1-0.1-0.1-0.2-0.1-0.4-0.7 0.4-1.4 0.9-0.8"/>
	<path class="st0" d="m17.8 88.4c-0.1 0.3-0.3 0.4-0.7 0.4 0-0.1-0.1-0.2-0.2-0.2-0.1-0.8 0.7-0.6 0.9-0.2"/>
	<path class="st0" d="m21.1 18.1c0.1 0.7-0.1 0.9-0.2 1.5 0.4 0.8 1 2 1.5 3.4 0.4 1.2 0.9 3.7 0.2 4.3-0.6 0.5-1.3 0.1-2.1 0.4-0.2 2.1 1.5 3.5 1.1 5.8-0.4 2.1-3.7 2-5 0.7-1.6-2-2.5-4.3-2.7-6.8-0.1-0.8 0.1-1.7 0-2.5-0.1-0.7-0.7-1.3-0.7-2-0.3-3.8 2.1-5.3 5.7-5.2 0.7-0.1 1.5 0 2.2 0.4m-0.5 1.5c-1.4 0-2.9 0.2-4.3 0.4-1.3 0.7-1.8 2.6-1.3 4.4 0 0.3-0.4 0.3-0.4 0.6-0.3 3.3 0.7 7.9 2.8 9.4 1.7 1.2 4.5-0.1 3.5-2.1-0.9 0.7-3 0.3-3.2-0.6s1.3-2.6 2.3-2.6v-1.1c-0.4-0.1-0.8 0-1.1 0.2-1.3-0.3-1.4-2.8 0.3-2.4-0.1 0.4-0.7 0.3-0.7 0.7 0.1 0.8 0.6 1.4 1.3 0.9-0.1-0.3-0.1-0.7-0.1-1 0.3-0.3 0.7-0.5 1.1-0.5 0.3 0.3 0.4 0.8 0.3 1.2 0.5 0 0.9-0.2 1.3-0.4 0.5-3.1-1.1-5-1.8-7.1m-0.3 7.1h0.4c0-0.1 0-0.2-0.1-0.3-0.1 0-0.2 0-0.3 0.1v0.2m-1.8 4.4c0.6-0.3 1.4-0.4 2.1-0.7 0.1-0.2-0.1-0.5-0.3-0.6-0.4 0.6-1.9 0.6-1.8 1.3m0.4 0.9c0.5 0.4 1.2 0.4 1.6-0.1 0.2-0.2 0.3-0.5 0.3-0.7-0.7-0.4-1.4 0.5-1.9 0.8"/>
	<path class="st0" d="m51.3 23.5c-0.8 1.3-2.7 0.9-4.2 0.5 0.6-0.3 0.6-1.1 1.3-1.5 1.1-0.4 2.3 0 2.9 1m-1.3 0.3c0.2 0.1 0.5-0.2 0.8-0.2-0.2-0.3-0.6-0.8-1-0.7 0.2 0.2 0.3 0.6 0.2 0.9m-1.9 0.1h1c-0.1-0.3-0.4-0.6-0.3-0.8-0.3 0.2-0.7 0.3-0.7 0.8"/>
	<path class="st0" d="m56.9 27.3c-1.5 2.6-2.7 5.2-5.7 5.8-2.4 0.4-4.8-0.3-6.5-2-0.1-0.1-0.1-0.2-0.2-0.3-1.3-1.2-2-3.8-1.6-6.1 0.4-2.2 1.1-4.7 2.7-6 2.2-1.7 5.1-2.1 7.7-1.2 2.1 0.9 4.6 3.5 4.2 6.6-0.1 1.1-0.4 2.1-0.6 3.2m-8.4-9c1.2 0.1 2.4 0 3.6-0.4-0.5-0.3-1.7-0.1-2-0.3-0.4 0.4-1.3 0.2-1.6 0.7m2.6 0.3c-1.6 0.2-3.3-0.4-3.8 0.5 2.1 0.3 4.2 0.1 6.2-0.5-0.7-0.5-1.4-0.1-2.4 0m-0.1 0.9c0.8 1.1 2.2-0.1 3.6 0.1-0.4-1-2.5-0.3-3.6-0.1m-6.2 1.6c0.3-0.1 0.3 0.1 0.5 0.1 0.4-0.8 1.4-1 2.1-1.5-1.3-0.5-2 0.7-2.6 1.4m7.2-0.7c0.1 0.3 0.2 0.7 0.3 1 1.1-0.2 2.1-0.4 3.2-0.8-0.3-1.3-2.5-0.5-3.5-0.2m0.3 1.5c0.1 0.1 0.1 0.4 0.2 0.5 1.6-0.1 2.1 0.1 3.6-0.1 0-0.5-0.1-0.9-0.4-1.3-1.1 0.1-2.3 0.4-3.4 0.9m-7.9-0.3c-0.2 0.4-0.3 0.8-0.5 1.2h0.5c0.2-0.4 0.3-0.8 0.5-1.3-0.2 0-0.3 0.1-0.5 0.1m3.2 0.2c-0.5 0.5-0.8 1.2-1 1.9-0.2 0.2-0.5 0.2-0.6 0.5-0.3 2.6 0.7 7 3.4 7 0.6 0 1.2-0.4 1.5-0.9-0.7-0.1-1.3-0.4-1.7-0.9 0.4-0.8 0.6-1.6 1.5-1.8-0.1-0.3-0.2-0.6-0.3-0.8-0.6 0.3-1.3 0.3-1.7-0.2-0.5-0.8 0.3-1.8 1-1.4-0.4 0.2-0.7 0.6-0.7 1.1 1 0.8 1.1-2.1 2.3-0.6 0.4 0 0.8-0.1 1.1-0.3-0.5-1.1-0.3-2.5-0.9-3.6-1.2 0.6-2.5-0.2-3.9 0m4.9 1c0.1 0.3 0.1 0.7 0.2 1 1.1 0 2.2-0.2 3.3-0.5 0-0.2 0.1-0.3 0.1-0.6-1.2-0.1-2.4-0.1-3.6 0.1m-9 1.6c0.5-0.1 1.8 0.2 2-0.4-0.4-0.2-1-0.4-1-1-0.8-0.2-1.1 0.8-1 1.4m9.4-0.3c0.1 0.4 0.2 0.7 0.3 1.1 0.9-0.1 1.8-0.3 2.7-0.3-0.1-0.4 0.3-0.9-0.1-1.1-1 0.1-2 0.2-2.9 0.3m-9.6 1.1c0.7 0.1 1.4 0.1 2.1 0.1-0.1-0.3 0.1-0.4 0-0.5-0.8-0.1-1.8-0.3-2.1 0.4m9.9 0.2c0.1 1.5-2.2 0.2-2.4 1.4 1.5-0.3 3.1-0.6 4.8-0.8 0.1-0.3 0.1-0.6 0.2-0.8-0.9 0-1.7 0.1-2.6 0.2m-9.9 1c0.7 0 1.4 0 2.1-0.2 0.1-1.1-1.5-0.5-2.1-0.7v0.9zm7.6 0.7c0.1 0.4 0.2 0.9 0.6 1.1 1.2-0.3 2.5-0.4 3.7-0.5 0.1-0.4 0.3-0.7 0.3-1.1-1.5 0-3.1 0.2-4.6 0.5m-7.4 0.5c0.5-0.2 1.6 0.2 2.1-0.2-0.2-0.3-0.1-0.5-0.2-0.8-0.7 0.1-2.4-0.1-1.9 1m-0.1 0.4c0.2 0.1 0.2 0.4 0.3 0.6 1-0.1 1.2-0.2 2.2-0.2 0-0.2-0.1-0.3-0.2-0.5-0.8-0.2-1.6-0.1-2.3 0.1m8.2 0.5c0.1 0.3 0.2 0.6 0.1 0.9 1-0.2 1.9-0.1 3-0.2 0.2-0.4 0.3-0.7 0.4-1.1-1.2-0.1-2.4 0.1-3.5 0.4m-1.6 0.6c0.2-0.2 0.6-0.3 1-0.4 0.3-1.2-1.6-0.2-1 0.4m-6.1-0.1c0 0.2 0.1 0.4 0.2 0.5 0.7 0 1.5 0 2.2 0.1-0.1-0.4-0.3-0.7-0.3-0.9-0.7 0-1.4 0.1-2.1 0.3m6.2 0.5c0.1 0.5 1 0.5 1.2 0.2 0-0.2 0-0.4-0.2-0.6-0.2 0.3-0.8 0.2-1 0.4m1.5 0.2c0 0.3-0.4 0.5-0.2 0.8 1-0.5 2.7 0.4 3-0.9-0.9-0.1-1.8 0-2.8 0.1m-7.4 0.2c0.2 0.4 0.6 0.8 1 1.1 0.7-0.2 1.4-0.3 2.1-0.2-0.4-1.2-1.9-1.1-3.1-0.9m7.2 0.8c-0.5 0.2-0.6 0.7-1.1 0.8-0.4 0.1-0.9 0.1-1.4 0.1-0.5-0.1-0.7-0.5-1.4-0.7-0.7-0.1-1.4 0-2 0.4 1.2 1.5 3 0.4 4.8 0.3 0.9-0.1 1.7 0.1 2.5-0.1 0.4-0.3 0.7-0.6 0.9-1-0.9 0.3-1.7-0.1-2.3 0.2m-3.9 1.7c1.6 0.5 3.4 0.3 4.9-0.5-1.7-0.1-3.3 0.1-4.9 0.5"/>
	<path class="st0" d="m49.1 64.4c1.5 0.3 2.9 1 4 2.2 1.2 1.5 1.9 3.3 1.9 5.2 0.1 1.8-0.2 3.6-0.8 5.3-0.9 2.1-2.5 3.7-4.5 4.7-2.3 0.8-4.9 0.5-6.9-0.9-2.1-1.7-3.2-5.4-2.9-8.7 0.4-4.6 4.4-8.1 9.2-7.8-0.1 0-0.1 0 0 0m-8.1 13.2c0.5 1.2 1.3 2.3 2.2 3.2 2 1.2 4.4 1.5 6.6 0.7 3.1-1.5 5-5.8 4.6-9.8-0.3-1.2-0.6-2.4-1-3.6-1.3-1.5-2.4-3.1-5.1-3.2-0.2 0.1 0.6 0.3 0.3 0.6-0.6 0.3-0.6-0.5-0.6-0.6-5.3 1-9 7.3-7 12.7"/>
	<path class="st14" d="m48 64.9c0.1 0.1 0 0.9 0.6 0.6 0.3-0.3-0.4-0.4-0.3-0.6 2.7 0.1 3.8 1.7 5.1 3.2 0.4 1.2 0.8 2.4 1 3.6 0.4 4-1.5 8.3-4.6 9.8-2.2 0.8-4.6 0.5-6.6-0.7-0.9-0.9-1.7-2-2.2-3.2-2-5.4 1.7-11.7 7-12.7m-0.5 16.2c-0.2-0.1-0.3-0.1-0.5 0-0.1 0.4 0.1 0.5 0.4 0.5 0-0.2 0.1-0.2 0.1-0.5m1.3-0.2c-0.1 0.1-0.1 0.3 0 0.4 0 0 0.1 0 0.1 0.1 0.1-0.1 0.2-0.2 0.1-0.4 0 0-0.1-0.1-0.2-0.1m-3.4 0c-0.1 0.1-0.2 0.1-0.2 0.3 0.3 0.6 0.9-0.3 0.2-0.3m3.6-0.3c0.6-0.4-0.3-1.2-0.6-0.6-0.1 0.3 0.3 0.8 0.6 0.6m1.6-0.6c-0.1-0.1-0.2-0.2-0.4-0.2-0.8 0.4 0.5 1.4 0.4 0.2m-3 0c-0.2 0-0.4 0-0.6 0.1 0 0.3 0.2 0.5 0.5 0.5 0.1-0.2 0.2-0.4 0.1-0.6m-2.2-0.2c0 0.1 0 0.2-0.1 0.2 0.1 0.3 0.3 0.5 0.6 0.5 0.2-0.2 0.2-0.5 0-0.6s-0.4-0.2-0.5-0.1m-1.6 0c0 0.3 0.1 0.4 0.2 0.7 1 0.2 0.5-1.3-0.2-0.7m-1.2-0.4c-0.1 0.1-0.1 0.3-0.1 0.4 0.1 0 0.2 0.2 0.4 0.1 0.2-0.2 0.1-0.6-0.3-0.5m4.4 0.2c3.2-0.3 3.9-3 3.9-6.6-0.1-1.7-0.5-3.4-1.1-5-0.3-0.7-2.1-1.2-3-1-1 0.2-1.9 2-2 3.2 0 0.7 0.2 1.7 0.1 2.5-0.1 0.7-0.7 1.3-0.2 1.9 0.5 0.2 0.9-0.1 1.4 0 0.2 0.3 0.2 1.3-0.1 1.4-0.2-0.3-0.8-0.4-0.8 0.1 0.1 0.4 0.7 0.2 0.8 0.1 0.5 0.6 0 1.5 0.1 2.5 0.2 0.3 0.6 0.6 0.9 0.9m5.1-1c-0.4-0.4-1 0.2-0.7 0.7 0.5 0.1 0.6-0.3 0.7-0.7m-2-0.1c-0.1 0.2-0.1 0.5 0.1 0.6h0.2c0.1-0.2 0.1-0.7-0.3-0.6m-4.8-0.3c-0.1 0.2-0.1 0.5 0.1 0.6 0 0 0.1 0.1 0.2 0.1 0.1-0.2 0-0.7-0.3-0.7m-0.6 0c-0.2-0.1-0.3-0.2-0.5-0.3-1 0.5 0.7 1.7 0.5 0.3m-1.9-0.2-0.3 0.3c0 0.2 0.1 0.4 0.3 0.6 0.2-0.1 0.3-0.4 0.2-0.7l-0.2-0.2m8.6-0.4c0.1 1 1.3-0.3 0.2-0.5-0.2 0.3-0.3 0.3-0.2 0.5m1.1 0c-0.1 0.2-0.1 0.5 0.3 0.4 0.1-0.3-0.1-0.4-0.3-0.4m-2-0.2c-0.2 0-0.1 0.2-0.2 0.2 0 0.2 0.2 0.3 0.4 0.3 0.2-0.1 0.1-0.5-0.2-0.5m-7.9-0.5c-0.1 0.2-0.1 0.6 0.1 0.8 0.5 0 0.5-1-0.1-0.8m2.6-0.1c-0.1 0-0.1 0.1-0.2 0.1 0.1 0.3 0.1 0.6 0.4 0.6 0.2-0.2 0.1-0.7-0.2-0.7m-1-0.1c-0.2 0.1-0.3 0.2-0.3 0.4 0.1 0.2 0.3 0.3 0.6 0.3 0.2-0.2 0.2-0.7-0.3-0.7m-2.6 0.2c-0.2 0-0.2 0.6 0.1 0.6 0.2-0.1 0.2-0.6-0.1-0.6m11.6-0.8c-0.2-0.2-0.4-0.2-0.6-0.2-0.7 0.5 0.8 1.5 0.6 0.2m-1.7-0.2c0.1 1.7 1.7-0.2 0 0m-8.8-0.3c-0.1 0.2-0.4 0.2-0.3 0.6 0.2 0 0.2 0.2 0.5 0.1 0.1-0.2 0.2-0.7-0.2-0.7m1.7 0.1h-0.5c0 0.2-0.1 0.2-0.1 0.4 0.3 0.3 0.9 0 0.6-0.4m-2.6 0.4c0-0.2 0-0.5-0.1-0.6-0.1 0-0.1 0-0.1-0.1-0.3 0-0.3 0.3-0.3 0.6 0.1 0.2 0.3 0.2 0.5 0.1m12.3-1.4c-0.4 0-0.4 0.4-0.1 0.4 0-0.2 0.2-0.2 0.1-0.4m-10.3-0.4c-0.4 1.1 1.2 0.7 0.4-0.1-0.2 0-0.2 0.2-0.4 0.1m7.6 0c0 0.4 0.1 0.6 0.5 0.7 0.8-0.2 0-1.3-0.5-0.7m-8.7 0.2c0 0.4 0.2 0.5 0.6 0.5 0.1-0.5-0.4-0.8-0.6-0.5m-1.3 0.3c0.2-0.1 0.3 0.3 0.4 0.1 0.8-0.6-0.8-1.2-0.4-0.1m11.8-0.3c-0.2-0.1-0.4 0-0.5 0.2 0 0.1-0.1 0.2 0 0.3 0.3-0.1 0.5-0.2 0.5-0.5m-12.3-0.2c-0.2 0-0.2 0.2-0.2 0.3 0.2 0.1 0.3-0.1 0.2-0.3m12.5-1.3c-0.2-0.1-0.4-0.2-0.7-0.2-0.2 0.2 0 0.6 0.1 0.8 0.4 0.1 0.7-0.1 0.6-0.6m0.4-0.2c-0.2 0.2 0.1 0.5 0.1 0.7 0.6 0.1 0.4-0.8-0.1-0.7m-2-0.2c-0.1 0-0.2 0.1-0.3 0.1-0.1 1.3 1.3 0.2 0.3-0.1m-8.8 0.1c-0.2 0.1-0.3 0.2-0.3 0.4 0.4 0.6 1-0.2 0.3-0.4m-0.9 0.4c0-0.2-0.1-0.2-0.1-0.3-0.2 0-0.3-0.1-0.5-0.1-0.1 0.1-0.2 0.3-0.1 0.6 0.3 0.1 0.5 0 0.7-0.2m2-0.3c-0.3-0.1-0.4 0.5-0.1 0.5 0.1-0.1 0.3-0.3 0.1-0.5m-3.2-0.1c-0.1 0.2-0.1 0.6 0.2 0.6 0.2-0.2 0-0.5-0.2-0.6m12.3-0.7c0.2-0.3 0.3-0.7-0.1-0.8-0.3 0-0.6 0.8-0.1 0.8-0.1-0.2 0.1 0.1 0.2 0m-9.9-0.9c-0.1 0-0.1 0-0.1-0.1-1.3 0.3 0.6 1.6 0.1 0.1m-1.7 0.1c-0.2 0.2-0.1 0.4 0 0.7 0.1-0.1 0.3-0.1 0.4 0 0.3-0.3 0.1-0.7-0.4-0.7m10.6-0.1c-0.2-0.1-0.4-0.2-0.6-0.2-0.6 0.7 0.9 1.5 0.6 0.2m1.8 0.6c0-0.2-0.1-0.3-0.3-0.3h-0.2c0 0.2 0.1 0.3 0.3 0.3 0.1 0.1 0.2 0 0.2 0m-9.8-0.5c-0.5 0.1-0.3 0.5 0.1 0.6 0.1-0.2 0-0.4-0.1-0.6m8.9-1.5c-0.1 0-0.1 0.1-0.2 0.1-0.5 1.2 1.2 0.3 0.2-0.1m-1.4-0.5c0 0.1-0.1 0.2-0.2 0.1v0.7c0.7 0.7 1.2-0.8 0.2-0.8m-8.6 0.2c-0.1 0-0.3 0.1-0.4 0.1-0.1 1.2 1.2 0.4 0.4-0.1m1.5 0c-0.2-0.1-0.5-0.1-0.6 0.1-0.1 0.8 0.7 0.4 0.6-0.1m-2.6 0.2c0 0.1-0.1 0.4 0.2 0.4 0.1-0.1 0.1-0.3 0-0.4h-0.2m11.1-1.3c-0.3 0-0.4 0.1-0.3 0.4 0.3 0.1 0.4-0.2 0.3-0.4m-1.9-0.4c-1.7-0.9-0.2 2 0 0m0.7 0.7c0.5 0 0.6-0.8-0.1-0.9 0 0.1-0.1 0.1-0.1 0.1-0.2 0.2-0.1 0.8 0.2 0.8m-7.2-0.1c0-0.3-0.1-0.6-0.4-0.6-0.2 0.1-0.3 0.2-0.3 0.4 0.1 0.2 0.4 0.4 0.7 0.2m-1.3-0.6c-0.2 0-0.3 0.1-0.4 0.3 0.1 0.1 0.1 0.2 0.1 0.3h0.3c0.2-0.3 0.1-0.3 0-0.6m1.9-1c-0.2-0.1-0.5-0.4-0.8-0.1v0.3c0.3 0.2 0.8 0.2 0.8-0.2m5.9-0.2c-0.2-0.3-0.6-0.4-0.9-0.3-0.1 0.8 0.8 1 0.9 0.3m0.4 0.2h0.4c0-0.4-0.4-0.4-0.4 0m-2.1-1.1c-0.3 0-0.5 0.1-0.6 0.3 0.1 0.3 0.2 0.5 0.6 0.5 0.2-0.1 0.3-0.4 0-0.8v0m-1.7 0.5c0-0.3-0.3-0.5-0.6-0.6-0.3 0.2-0.3 0.5-0.2 0.8v0.1c0.5 0.1 0.7-0.1 0.8-0.3m1.8-0.9c-0.1-0.1-0.3-0.1-0.4-0.1 0 0.2 0.1 0.3 0.2 0.3 0 0 0.2 0 0.2-0.2"/>
	<path class="st0" d="m47.4 81.6c-0.3 0-0.5-0.1-0.4-0.5 0.3-0.1 0.4-0.1 0.6 0.1-0.1 0.2-0.2 0.2-0.2 0.4"/>
	<path class="st0" d="m49 81.4c-0.2-0.1-0.2-0.2-0.2-0.4 0 0 0-0.1 0.1-0.1s0.3 0.1 0.3 0.3l-0.2 0.2"/>
	<path class="st0" d="m45.2 81.2c0-0.2 0.1-0.3 0.2-0.3 0.7 0 0.1 0.9-0.2 0.3"/>
	<path class="st0" d="m50.2 79.8c0.2 0 0.3 0.1 0.4 0.2 0.1 1.2-1.2 0.2-0.4-0.2"/>
	<path class="st0" d="m47.5 80.6c-0.3 0-0.5-0.2-0.5-0.5 0.1-0.2 0.3-0.3 0.5-0.2s0.3 0.3 0.2 0.5c0 0.1-0.1 0.2-0.2 0.2"/>
	<path class="st0" d="m45.9 80.5c-0.3 0-0.5-0.2-0.6-0.5 0.1 0 0.1-0.1 0.1-0.2 0.2-0.1 0.5-0.1 0.6 0.2 0.1 0.2 0.1 0.4-0.1 0.5"/>
	<path class="st0" d="m44 80.5c-0.1-0.2-0.2-0.4-0.2-0.7 0.7-0.6 1.2 0.9 0.2 0.7"/>
	<path class="st0" d="m43 80c-0.2 0-0.3-0.1-0.4-0.1 0-0.1 0-0.3 0.1-0.4 0.3-0.2 0.4 0.2 0.3 0.5"/>
	<path class="st4" d="m46.6 77.7c2.1 0.1 1.9-2.3-0.1-2.2 0.2-0.3 0-0.8-0.1-1.2-0.4-0.2-1.2 0.1-1.4-0.2 0.2-1.1 0.3-2.3 0.3-3.5s0.5-2.3 1.5-3c1.3 0 2.4 0 2.9 0.9 0.4 0.7 0.6 1.5 0.8 2.3 0.1 1.1 0.2 2.1 0.1 3.2 0 0.3-0.2 0.7-0.3 1-0.1 1.1-0.4 2.2-0.8 3.2-0.5 0.8-3.1 1.9-2.9-0.5m0.2-7.6c-0.3 0.1-0.6 0.4-0.8 0.7 0 0.4 0.8 1.1 1.2 1.2 0.8 0.1 1.7 0 2.3-0.5 0.3-1.3-1.4-1.8-2.7-1.4"/>
	<path class="st0" d="m50.4 79.1h-0.2c-0.2-0.2-0.2-0.4-0.1-0.6 0.4-0.1 0.5 0.4 0.3 0.6"/>
	<path class="st0" d="m45.6 78.9c-0.2 0-0.4-0.3-0.3-0.5 0-0.1 0-0.1 0.1-0.2 0.2 0.1 0.3 0.5 0.2 0.7"/>
	<path class="st0" d="m44.3 77.9c0.2 0 0.3 0.2 0.5 0.3 0.1 1.4-1.5 0.2-0.5-0.3"/>
	<path class="st0" d="m42.8 78.9c-0.2-0.1-0.3-0.3-0.3-0.6l0.3-0.3c0.2 0.1 0.3 0.4 0.2 0.7l-0.2 0.2"/>
	<path class="st0" d="m51.6 77.1c1.1 0.2-0.1 1.5-0.2 0.5-0.1-0.2 0-0.2 0.2-0.5"/>
	<path class="st0" d="m52.9 78c-0.4 0-0.4-0.2-0.3-0.4 0.1 0 0.3 0.1 0.3 0.4"/>
	<path class="st0" d="m50.7 78c-0.2 0-0.4-0.1-0.4-0.3 0.1 0 0-0.2 0.2-0.2 0.3-0.1 0.4 0.3 0.2 0.5"/>
	<path class="st0" d="m42.7 77.6c-0.2-0.2-0.2-0.5-0.1-0.8 0.6 0 0.6 0.9 0.1 0.8"/>
	<path class="st0" d="m45.4 77.5c-0.3 0-0.4-0.3-0.4-0.6 0.1 0 0.1-0.1 0.2-0.1 0.4 0 0.4 0.5 0.2 0.7"/>
	<path class="st0" d="m44.5 77.5c-0.2 0-0.4-0.1-0.6-0.3 0-0.2 0.1-0.3 0.3-0.4 0.5-0.1 0.5 0.4 0.3 0.7"/>
	<path class="st0" d="m41.7 77.5c-0.3 0.1-0.3-0.5-0.1-0.6 0.3 0 0.3 0.5 0.1 0.6"/>
	<path class="st16" d="m46.5 76.9c0.5 0 0.7-0.3 1.3-0.2 0 0.5-1.3 1.2-1.3 0.2"/>
	<path class="st0" d="m52.6 75.9c0.2 0 0.5 0 0.6 0.2 0.2 1.3-1.3 0.3-0.6-0.2"/>
	<path class="st0" d="m51.5 75.9c1.7-0.2 0.1 1.7 0 0"/>
	<path class="st16" d="m46.5 76.3c0-0.2 0-0.4 0.1-0.6 0.5-0.1 0.9 0.2 1.1 0.6-0.4 0.2-0.8 0.2-1.2 0"/>
	<path class="st0" d="m43 76.4c-0.3 0-0.3-0.1-0.5-0.1-0.1-0.4 0.1-0.5 0.3-0.6 0.3-0.1 0.2 0.4 0.2 0.7"/>
	<path class="st0" d="m43.8 76.1c0-0.2 0.1-0.3 0.1-0.4h0.5c0.3 0.4-0.3 0.7-0.6 0.4"/>
	<path class="st0" d="m41.2 76c0-0.3 0.1-0.5 0.3-0.6 0 0.1 0.1 0.1 0.1 0.1 0.1 0.1 0.1 0.4 0.1 0.6-0.1 0.1-0.3 0.1-0.5-0.1"/>
	<path class="st0" d="m54 75.1c-0.3-0.1-0.2-0.5 0.1-0.4 0.1 0.2-0.1 0.2-0.1 0.4"/>
	<path class="st0" d="m44.2 74.2c0.7 0.7-0.8 1.2-0.4 0.1 0.2 0.1 0.2-0.1 0.4-0.1"/>
	<path class="st0" d="m51.9 75c-0.3-0.1-0.5-0.3-0.5-0.7 0.5-0.6 1.3 0.5 0.5 0.7"/>
	<path class="st0" d="m43.2 74.9c-0.4 0-0.6-0.1-0.6-0.5 0.3-0.2 0.9 0.2 0.6 0.5"/>
	<path class="st0" d="m41.8 74.9c-0.1 0.2-0.2-0.1-0.4-0.1-0.4-1 1.2-0.5 0.4 0.1"/>
	<path class="st0" d="m52.7 74.9c0-0.2 0.1-0.4 0.3-0.5h0.3c-0.1 0.4-0.2 0.5-0.6 0.5"/>
	<path class="st0" d="m40.7 74.7c0-0.2 0-0.4 0.2-0.3 0.1 0.1 0.1 0.3-0.2 0.3"/>
	<path class="st0" d="m52.7 73.6c-0.1-0.3-0.3-0.6-0.1-0.8 0.2 0 0.5 0.1 0.7 0.2 0.2 0.5-0.1 0.7-0.6 0.6"/>
	<path class="st0" d="m53.9 73.5c0-0.2-0.2-0.5-0.1-0.7 0.6-0.1 0.8 0.8 0.1 0.7"/>
	<path class="st0" d="m51.5 72.7c0.1 0 0.2-0.1 0.3-0.1 1 0.3-0.4 1.4-0.3 0.1"/>
	<path class="st0" d="m42.7 73.1c0-0.2 0.1-0.3 0.3-0.4 0.7 0.2 0.2 1-0.3 0.4"/>
	<path class="st0" d="m41.4 73.4c0-0.3 0-0.5 0.1-0.6 0.2 0 0.3 0 0.5 0.1 0 0.1 0.2 0.1 0.1 0.2-0.2 0.2-0.4 0.3-0.7 0.3"/>
	<path class="st0" d="m44 73.3c-0.2 0-0.2-0.6 0.1-0.5 0.2 0.2 0 0.4-0.1 0.5"/>
	<path class="st0" d="m41.2 73.3c-0.3 0-0.4-0.4-0.2-0.6 0.1 0.1 0.3 0.4 0.2 0.6"/>
	<path class="st0" d="m53 72.1c-0.4-0.1-0.2-0.9 0.1-0.8 0.4 0.1 0.4 0.5 0.1 0.8-0.1 0-0.3-0.3-0.2 0"/>
	<path class="st0" d="m49.5 71.5c-0.7 0.5-1.5 0.6-2.3 0.5-0.4-0.1-1.2-0.9-1.2-1.2 0.2-0.3 0.5-0.6 0.8-0.7 1.3-0.4 3 0.1 2.7 1.4m-2.1-1.2c-0.3 0.1-0.7 0.3-1 0.6 0.4 0.2 0.5 0.7 1 0.8-0.3-0.5 0.2-1.2 0-1.4m1.4 1.3c0.8-0.3 0.1-1.3-0.6-1.2 0.5 0 0.3 0.8 0.6 1.2"/>
	<path class="st0" d="m43.2 71.1c0 0.1 0.1 0.1 0.1 0.1 0.6 1.4-1.4 0.1-0.1-0.1"/>
	<path class="st0" d="m42.1 71.9c-0.1-0.1-0.3-0.1-0.4 0-0.1-0.2-0.2-0.5 0-0.7 0.4 0 0.6 0.4 0.4 0.7"/>
	<path class="st0" d="m51.6 70.9c0.2 0 0.4 0.1 0.6 0.2 0.3 1.3-1.2 0.5-0.6-0.2"/>
	<path class="st0" d="m53.6 71.4c0.2-0.1 0.3 0 0.4 0.1v0.2c-0.1 0.1-0.3 0.1-0.4-0.1v-0.2"/>
	<path class="st0" d="m44.3 71.8c-0.4-0.1-0.5-0.5-0.1-0.6 0.1 0.2 0.2 0.4 0.1 0.6"/>
	<path class="st13" d="m47.4 71.6c-0.5-0.1-0.7-0.5-1-0.8 0.3-0.2 0.6-0.4 1-0.6 0.2 0.3-0.3 1 0 1.4"/>
	<path class="st13" d="m48.1 70.3c0.7 0 1.5 0.9 0.6 1.2-0.2-0.3 0-1.1-0.6-1.2"/>
	<path class="st0" d="m52.9 69.8c0.1 0 0.1-0.1 0.2-0.1 1 0.4-0.6 1.3-0.2 0.1"/>
	<path class="st0" d="m51.5 70v-0.6c0.1 0 0.2 0 0.2-0.1 1-0.1 0.5 1.4-0.2 0.7"/>
	<path class="st0" d="m42.7 69.5c0.1-0.1 0.3-0.1 0.4-0.1 0.9 0.5-0.4 1.3-0.4 0.1"/>
	<path class="st0" d="m44 69.5c0.2-0.2 0.4-0.2 0.6-0.1 0.1 0.5-0.7 0.9-0.6 0.1"/>
	<path class="st0" d="m42.3 70c-0.3 0-0.3-0.2-0.2-0.4 0.1 0 0.3 0.1 0.3 0.2-0.1 0.1-0.1 0.1-0.1 0.2"/>
	<path class="st0" d="m52.8 68.7c0-0.3 0.1-0.4 0.3-0.4 0.2 0.2 0 0.5-0.3 0.4"/>
	<path class="st0" d="m51.2 67.9c-0.2 2-1.6-0.9 0 0"/>
	<path class="st0" d="m51.7 67.8c0.1 0 0.1 0 0.1-0.1 0.7 0.1 0.6 0.9 0.1 0.9-0.3 0-0.4-0.6-0.2-0.8"/>
	<path class="st0" d="m44 68.2c0.1-0.1 0.1-0.3 0.3-0.3 0.3 0 0.4 0.2 0.4 0.6-0.3 0.2-0.6 0-0.7-0.3"/>
	<path class="st0" d="m43.4 68.5h-0.3c0-0.1 0-0.2-0.1-0.3 0.1-0.1 0.2-0.2 0.4-0.3 0.2 0.3 0.2 0.3 0 0.6"/>
	<path class="st0" d="m44.6 67.1v-0.3c0.3-0.2 0.5 0.1 0.8 0.1-0.1 0.4-0.5 0.4-0.8 0.2"/>
	<path class="st0" d="m50.3 66.4c0.3-0.2 0.7 0 0.9 0.3-0.1 0.7-1 0.5-0.9-0.3"/>
	<path class="st0" d="m52 66.9h-0.3c-0.1-0.4 0.3-0.4 0.3 0"/>
	<path class="st0" d="m49.5 66.7c-0.4 0.1-0.5-0.2-0.6-0.5 0.1-0.2 0.4-0.4 0.6-0.3s0.3 0.5 0 0.8c0.1-0.1 0-0.1 0 0"/>
	<path class="st0" d="m47.1 66.6c-0.2-0.2-0.2-0.6 0.1-0.8h0.1c0.3 0 0.5 0.3 0.6 0.6-0.2 0.1-0.4 0.3-0.8 0.2"/>
	<path class="st0" d="m49.4 65.7c-0.1 0-0.2-0.2-0.2-0.3 0.1 0 0.3 0 0.4 0.1 0 0.1-0.2 0.1-0.2 0.2"/>
	<path class="st0" d="m48.4 80c0.3-0.7 1.2 0.1 0.6 0.6-0.3 0.2-0.7-0.3-0.6-0.6"/>
	<path class="st0" d="m51.4 79.3c-0.3-0.5 0.3-1.1 0.7-0.7-0.1 0.4-0.2 0.8-0.7 0.7"/>
	<path class="st0" d="m46.1 78.7c-0.1-1 0.4-1.9-0.1-2.5-0.1 0-0.7 0.3-0.8-0.1 0-0.5 0.6-0.5 0.8-0.1 0.3-0.2 0.4-1.1 0.1-1.4-0.5-0.1-1 0.2-1.5 0-0.5-0.6 0.1-1.2 0.2-1.9 0.1-0.8-0.1-1.7-0.1-2.5 0.1-1.2 1-3 2-3.2 0.8-0.1 2.7 0.3 3 1 0.6 1.6 1 3.3 1.1 5 0.1 3.6-0.7 6.3-3.9 6.6-0.2-0.3-0.6-0.5-0.8-0.9m3.4-0.5c0.4-1 0.6-2.1 0.8-3.2 0.1-0.4 0.2-0.8 0.3-1 0-1.1 0-2.1-0.1-3.2-0.1-0.8-0.4-1.6-0.8-2.3-0.5-0.9-1.6-0.9-2.9-0.9-0.9 0.7-1.4 1.9-1.5 3 0 1.2-0.1 2.3-0.3 3.5 0.3 0.3 1.1 0 1.4 0.2 0.1 0.5 0.2 0.9 0.1 1.2 2-0.1 2.2 2.3 0.1 2.2-0.2 2.4 2.4 1.3 2.9 0.5m-1.6-1.5c-0.6-0.1-0.9 0.2-1.3 0.2-0.1 1 1.2 0.3 1.3-0.2m-0.2-0.3c-0.2-0.4-0.6-0.7-1.1-0.6-0.1 0.2-0.2 0.4-0.1 0.6 0.4 0.1 0.8 0.1 1.2 0"/>
	<path class="st0" d="m8.5 95c-0.5-0.1-0.6 0.3-1 0.3-4.7-2 3-5.9 1-0.3"/>
	<path class="st0" d="m18.9 92.7v2.9c-0.4-0.1-0.9 0.2-1 0.6-4.5 0.1-2.3-6.6 1-3.5"/>
	<path class="st0" d="m77.8 94.2c-0.6 0.3-1.3 0.5-1.9 0.6-3.7-2.4 2.3-6 1.9-0.6"/>
	<path class="st0" d="m67 94.2c-0.8 0.8-2 0.9-2.9 0.3-0.4-2.4 3.4-3.8 2.9-0.3"/>
	<path class="st0" d="m53.2 94.8c0-0.1-0.1-0.3-0.1-0.4-0.2-0.6-0.3-1.3-0.2-2 0.3-1.1 1.5-0.9 2.3-0.2 0.7 0.5 1.1 1.3 0.6 2-0.4 0.4-0.9 0.6-1.4 0.8-0.3 0-0.8 0-1.2-0.2"/>
	<path class="st0" d="m45.7 91.6c0.2 0.6 0.3 1.2 0.4 1.8 0 0.4-0.1 0.8-0.4 1.1s-0.6 0.5-1 0.6c-4.6 0-2.4-6.6 1-3.5"/>
	<path class="st0" d="m36.1 92.6c0.1 1.3 0 2.4-0.6 2.9-1 0.2-1.5-0.2-2.3-0.3 0.3-0.9-0.5-0.8-0.3-1.6 0.9-0.8 2.1-1.2 3.2-1"/>
	<path class="st0" d="m26.8 95.6c-0.5 0.9-1.1-0.6-1.9-0.3-2-4.9 5.6-2.6 1.9 0.3"/>
	<path class="st0" d="m83.7 91.9c1.2 0 2.2 0.9 2.3 2.2v0.1c-0.8 0.6-1.9 0.8-2.9 0.6-0.2-1 0-2.1 0.6-2.9"/>
	<path class="st0" d="m92.1 91.6c1.5 2.5-1.3 5.2-3.2 3.2 0.2-2 0.8-3.6 3.2-3.2"/>
</svg>
