<?xml version="1.0" encoding="UTF-8"?>
<svg width="92px" height="85.97px" enable-background="new 0 0 101.6 104.8" version="1.1" viewBox="4.8 10.5 91.9 85.9" xml:space="preserve" xmlns="http://www.w3.org/2000/svg">
<style type="text/css">
	.st0{fill-rule:evenodd;clip-rule:evenodd;fill:#F79420;}
	.st1{fill-rule:evenodd;clip-rule:evenodd;fill:#F15A26;}
	.st2{fill-rule:evenodd;clip-rule:evenodd;fill:#0D71BA;}
	.st3{fill-rule:evenodd;clip-rule:evenodd;fill:#EC6D23;}
</style>
	<path class="st0" d="m94.2 14.9c0.3 0.5-0.2 1.9-0.3 2.7 0.5 0.8 1.6 1.4 2.1 2 0 0.7-1.3 0.2-1.9 0.4-0.3 0.9-0.5 1.9-0.7 2.8-0.8-0.1-0.8-1.8-1.4-2.4-1.5 0.1-3 0.1-4.4 0 0.5-0.4 1-0.6 1.5-1s1-0.7 1.5-1c-0.6-0.9-1.2-1.8-1.6-2.7 1.1 0.2 2.2 0.5 3.3 1 0.8-0.4 1.1-1.3 1.9-1.8m-2 2.3c-0.7-0.4-1.5-0.6-2.4-0.7 0.3 0.8 1.1 1.2 1.3 2.3-1.1 0.2-1.6 0.9-2.4 1.4 1.3-0.2 2.5 0.1 3.6-0.2 0.1 0.7 0.4 1.3 0.8 1.8 0.4-0.8 0.1-1.7 0.6-2.4 0.4 0.1 0.8 0.2 1.3 0.2-0.1-0.6-1.2-1-1.6-1.6 0.2-0.7 0.3-1.5 0.3-2.3-0.5 0.5-0.8 1.2-1.5 1.5"/>
	<path class="st0" d="m76.2 27c0.1 0.8 0.4 1.6 0.5 2.5 1-0.1 1.8-0.1 2.8-0.3-0.3 1-1.5 1.1-2.1 1.9 0.3 0.8 1.2 1.5 1.1 2.4-0.8-0.3-1.5-0.7-2.1-1.2-1.2 0.8-1.9 2.2-3.2 3 0.2-1.1 0.7-2.2 1.4-3.2-0.8-0.9-1.8-1.7-2.8-2.4 0.4-0.5 1.8-0.2 2.7-0.4 0.7-0.5 0.5-2.1 1.7-2.3m-0.9 2.6c-0.5 0.5-1.8-0.1-2.6 0.4 0.9 0.6 1.7 1.4 2.5 2.1-0.4 0.7-1.3 1.4-1.3 2.3 0.4-0.5 0.9-0.9 1.4-1.4 0.3-0.4 0.5-1 1.1-1.1 0.4 0.4 0.8 0.7 1.3 0.9-0.1-0.8-0.6-1.1-0.8-1.8 0.4-0.5 1-0.7 1.4-1.1-0.7 0-1.5 0-2.2 0.1 0-0.8 0-1.7-0.5-2.2 0 0.6-0.7 1.2-0.3 1.8"/>
	<path class="st1" d="m72 10.5c0.5 0.8 0.2 2.2 0.5 3.3 1 0.4 2.6 0.3 3.3 1-0.4 0.8-1.6 0.9-2.3 1.5-0.2 1.1 0.6 2.8 0.2 3.8-1.4-0.1-1.4-1.7-2.4-2.2-1.4 0.1-2 1.6-3.3 1.1 0.4-0.9 0.8-1.7 1.4-2.5-1-1.2-1.9-2.4-2.6-3.7 0.1-0.1 0.2-0.2 0.3-0.4 1.2 0.2 2.2 0.6 3.3 0.8 0.5-0.8 0.3-2.5 1.6-2.7"/>
	<path class="st0" d="m28.7 23.9h0.2c0.5 1.2 0.8 2.6 0.8 3.9 1.5-0.2 2.5-1.6 4.3-1.8-0.5 2-1.7 3.4-2.5 5.1 0.4 0.7 1 1.4 1.4 2.3 0.4 0.8 0.7 1.6 1 2.4-1.3-0.2-2.2-1.5-3.7-1.8-0.3-0.4-0.8-0.5-1.1-0.8-1.3 0-3.9 0.3-5.5 0.3 0.8-0.9 1.7-1.6 2.6-2.3-0.8-1.5-2-2.5-2.5-4.3 1.2-0.2 2.8 0.6 4.1 0.8 0.2-1.3 0.6-2.6 0.9-3.8m-0.6 4.3c-1.2 0.6-3.1-0.6-4-0.9 0.8 1.3 1.7 2.6 2.5 3.8-0.8 0.6-1.8 0.9-2.3 1.8 1.5 0 3.3-0.2 4.7-0.4 1.1 0.9 2.4 1.6 3.7 2-0.5-1.2-1.2-2.3-2-3.3 0.8-1.5 2.1-3 2.4-4.7-1.3 0.6-2.5 1.4-3.9 1.9-0.4-1.1-0.1-2.2-0.6-3.2 0.1 1.2-0.6 1.9-0.5 3"/>
	<path class="st0" d="m56.8 18c-1.5 0.7-3 1.2-4.6 1.6 0.1 1.3 1 3-0.1 3.9-1.2-0.7-1.9-2.1-3.1-2.9-1.4 1.1-2.8 2.1-4.4 3-0.3-0.9 0.5-1.7 0.8-2.5 0.4-0.8 0.8-1.7 1.1-2.5-0.9-1.5-2.8-1.5-3.3-3.4 0.9 0.1 1.8 0.3 2.6 0.6 0.9 0 1.8 0.3 2.7 0.7 1-1.4 1.8-3.4 3.4-4 0 1.5 0.4 2.4 0.5 3.6 1.3 1 3.4 0.6 4.4 1.9m-12.4-1.9c0.8 1 2.3 1.2 2.9 2.6-0.5 1.3-1.5 2.2-1.7 3.7 1.5-0.6 2.2-1.8 3.5-2.6 1.1 0.7 1.9 2.6 3 2.7 0.1-1.1-0.7-2.2-0.5-3.3 1.4-0.3 2.7-0.8 3.9-1.4-1.1-0.4-2.3-0.8-3.4-1-0.3-1-0.2-2.1-0.5-3.3-1.1 0.7-1.8 2.5-2.8 3.7-1.4-0.6-2.9-1-4.4-1.1"/>
	<path class="st2" d="m12 13.3c0.6 0.8 0.2 2.6 0.3 3.9 0.9 0.9 2.8 0.6 3.6 1.6 0 1.7-2.4 1-2.9 1.7 0.2 1.3 1.5 2.2 1 3.7-1.7-0.1-2.3-1.3-3.4-1.9-1.4 0.2-2.3 1.5-3.9 1 0-1.6 0.9-2.3 1.6-3.2-0.1-1.6-1.9-1.5-2-3.2 0.8-0.6 1.9 0.2 3 0.1 1.2-0.9 0.5-3.7 2.7-3.7"/>
	<path class="st0" d="m63 28.1c0.5 0.6 0.9 1.4 1.2 2.2 1 0.3 2.5-0.3 3.1 0.1-0.5 0.7-1 1.3-1.7 1.7 0.9 1.1 1.8 2.3 2.5 3.6-1.2-0.3-2.3-0.6-3.4-1-1.2 0.7-1.7 2.3-3 2.9 0-1.3 0.9-2.3 0.9-3.7-1.6-0.3-3.3 0.3-4.6 0 0.7-0.9 1.7-1.6 2.7-2-0.5-0.9-1.4-1.5-1.7-2.6 1.1 0 2.1 0.2 3.1 0.5 0.6-0.4 0.3-1.6 0.9-1.7m-0.5 8.3c0.6-0.8 1.4-1.6 2.2-2.3 0.8 0.3 1.6 0.6 2.4 0.8-0.5-1-1.2-2-2.1-2.7 0.4-0.6 1.2-0.9 1.5-1.6-0.9 0.1-1.7 0.1-2.4 0.2-0.3-0.7-0.6-1.3-1-1.9-0.3 0.5-0.4 1.1-0.8 1.4-0.8-0.3-1.7-0.5-2.5-0.7 0.3 1 1.1 1.5 1.7 2.2-0.7 0.7-1.9 1-2.5 1.7 1.2 0.1 3.1-0.3 4.3-0.2-0.1 1.2-0.9 2.4-0.8 3.1"/>
	<path class="st0" d="m17.9 39.3c0.7 0.5 0.8 1.5 1.4 2.2 1-0.4 2-0.6 3.1-0.8-0.4 0.9-0.9 1.7-1.6 2.3 0.1 0.3 0.4 0.5 0.6 0.7 0.1 1 1.1 1.7 1.2 2.4-1 0.1-1.7-0.9-2.8-1-1 0.8-1.2 2.4-2.5 2.8 0.1-0.9 0-1.8-0.2-2.7-0.9-0.5-2.3-0.6-3.1-1.3 1-0.6 2.2-0.9 3.3-0.9 0.1-1.2 0-3.1 0.6-3.7m1.2 2.8c-0.5-0.5-0.5-1.5-1.2-1.8-0.2 1.1 0 2.6-0.3 3.4-0.9-0.4-2-0.3-2.8 0.3 0.9 0.3 1.8 0.5 2.7 0.7-0.1 0.8 0 1.5 0.3 2.3 0.6-0.8 1.1-1.7 1.6-2.5 0.7 0.3 1.5 0.6 2.2 0.9-0.3-0.9-0.9-1.7-1.6-2.2 0.6-0.6 1.2-1.2 1.5-2-0.8 0.2-1.6 0.5-2.4 0.9"/>
	<path class="st1" d="m39.3 38.3c0.9 1.9 2 3.7 3.3 5.3 2.6-0.6 4.7-2.9 7.7-2.4 0 1.3-1.1 2.2-1.8 3.2-0.7 1.1-1.3 2.2-1.9 3.3 2.3 0.6 4.5 1.7 6.5 3.1 0.5 0.4 1.6 0.8 1.4 1.8-2.8 0.2-5.8 0.1-8.4 0.5 0 3.2-0.3 6.5-0.5 9.2-1 0.2-0.9-0.5-1.1-1.1-0.6-1.2-1.3-2.2-2.1-3.2 0-0.3 0-0.6-0.1-0.9-0.7-0.9-1.2-1.9-1.5-2.9-2.6 0.5-5.2 2.2-8.2 1.4 0.4-1.4 1.8-1.9 2.6-2.9 0.1-1 0.9-1.3 1.3-2-1.1-0.5-2.2-1.1-3.3-1.6-1.1-0.6-2.5-0.8-3.1-1.9 0.5-0.8 1.7-0.5 2.5-0.6 1.5-0.4 3-0.6 4.6-0.6 0.7-2.4 1.1-4.8 1.4-7.3 0.2-0.2 0.3-0.5 0.7-0.4"/>
	<path class="st1" d="m11.9 52.7c0.3 1.2-1 1.7-1.2 2.7 1.1 0.4 2.1 1 3.1 1.7 0 0.2-0.2 0.2-0.1 0.5-1.1 0.1-2.3 0-3.3-0.3-0.3 1.3-0.5 2.7-0.9 4-1.3-0.1-0.8-1.9-1.2-2.9-1.2 0-2.5 0.8-3.5 0.4 0.5-1.3 1.9-1.8 2.4-3-0.1-1.3-0.9-2.6-0.5-3.8 0.7 0.3 1.3 0.7 1.8 1.2 0.2 0.2 0.5 0.8 0.7 0.8 0.3 0 0.9-0.5 1.3-0.7 0.4-0.4 0.9-0.6 1.4-0.6"/>
	<path class="st0" d="m85.3 38.3h0.3c0.7 1.8 1.6 3.5 2.7 5.1 1.4-1.2 3-2.3 4.5-3.3-0.2 1.8-1 3.4-1.4 5.4-0.2 0.4-0.3 0.9-0.4 1.4 0.1 0.5 0.7 0.9 1.1 1.4 0.5 0.7 1 1.7 1.5 2.4 0.3 0.4 0.9 0.6 0.7 1.2-0.5 0.2-0.8-0.4-1.2-0.5-0.6-0.3-1.5-0.6-2.4-1-0.8-0.4-1.6-0.7-2.4-0.9-1.9-0.1-3.1 2-4.8 2.2 0.3-1.7 1.3-3.5 1.7-5.3-2.2-0.4-4.3-1-6.4-1.5 0.6-0.6 1.4-1 2.2-1.4 1.2-0.6 2.2-1.3 3.3-2.1 0.3-1.3 0.8-2.1 1-3.1m-0.8 3.6c-1.6 0.7-3.1 1.6-4.5 2.6 1.9 0.5 4 0.9 6 1.4-0.6 1.6-1.2 3.3-1.6 5 1.3-0.8 2.7-1.5 4.1-2.2 1.5 0.9 3.1 1.7 4.8 2.1-0.7-1.4-1.7-2.7-2.9-3.7 0.8-2.1 1.5-4.2 2-6.3-1.3 1.2-2.8 2.1-4.2 3.3-1-1.5-1.7-3.4-2.7-4.9-0.5 0.8-0.8 1.7-1 2.7"/>
	<path class="st0" d="m22.3 55.1c0.4-0.1 0.4 0.2 0.8 0.1 0.3 1.6 0.7 3.1 1.4 4.6 1.6-1 2.8-2.5 4.8-3.2 0 1.7-1.3 3.4-1.8 5.2 3.1 2.1 7 3.4 10.1 5.6-0.4 0.8-2 0.4-2.9 0.4-2.2 0.1-4.6 0.6-6.4 0.1-0.1 1-0.6 2.3-0.7 3.6s0.6 2.9-0.4 3.5c-0.7-0.4-0.5-1.3-0.7-2-0.4-1.9-1.2-4-1.8-5.9-3.8 0.4-6 3.2-9.2 3.6 1.5-1.7 3-3.4 4.6-5-1.6-1.3-2.7-3.2-4.7-4.1 0-1 1.1-0.5 1.8-0.6 1.5-0.3 3.1-0.5 4.6-0.4 0.1-1.7 0.4-3.6 0.5-5.5m-0.2 6.3c-2 0.2-3.6-0.2-5.3 0.6 1.3 1.4 2.9 2.4 4.1 3.9-1.3 1-2.3 2.2-3.1 3.6 2.2-1.5 4.7-2.5 7.3-3.1 0.4 2 1.1 3.9 1.8 5.7 0.1-1.7 0.3-3.4 0.7-5 2.2 0.9 5.6 0.4 8.2 0-2.9-1.9-6.5-3.1-9.4-5 0.8-1.3 1.4-2.7 1.7-4.2-1.6 0.8-2.4 2.4-4.1 3.1-0.5-1.1-0.7-2.6-1.3-3.6-0.4 1.1-0.1 2.9-0.6 4"/>
	<path class="st1" d="m41.1 72.7 0.2 0.2c0 1-0.3 2.1-0.4 3.1 0.9 0.5 1.8 0.9 2.8 1.2-0.9 0.5-1.9 0.7-2.9 0.7-0.1 0.9-0.1 1.9-0.2 3 0 0.5 0 1.1-0.4 1.4-0.7-0.8-1.3-1.7-1.8-2.7-1.5 0.2-3.1 0.4-4.6 0.4 0.6-0.9 1.9-0.9 2.7-1.6-0.9-1.2-2.6-2.2-3.1-3.4 0.6-0.2 1 0.3 1.5 0.5 1.1 0.3 2.3 0.5 3.5 0.5 0.5-0.7 0.9-1.3 1.5-2 0.5-0.4 0.9-1 1.2-1.3m-2.4 3.9c-1.5-0.3-3-0.6-4.5-1 1 1 2 1.9 3.1 2.8-0.6 0.6-1.6 0.5-2 1.2 1.2 0.1 2.2-0.6 3.4-0.4 0.2 0.8 0.6 1.5 1.3 2 0.2-1.2 0-2.4 0.2-3.6 0.6-0.1 1.9-0.1 2.1-0.5-0.7-0.3-1.4-0.6-2-0.9 0.1-0.8 0.2-1.5 0.2-2.3l-1.8 2.7"/>
	<path class="st1" d="m89.3 81.1c1.1 0.8 1.3 2.5 2.2 3.4 1.1-0.4 2.2-1.2 3.3-1.4-0.3 1.2-0.8 2.3-1.4 3.3 1 0.8 2.2 1.6 3.3 2.2-0.5 0.9-2.1 0.8-3.1 1.2 0.1 1.5 0.6 3.7 0.3 4.8-0.3 0-0.7-0.4-1-0.7-0.6-0.7-1.1-1.6-1.4-2.4-1.9 0.4-3.8 0.9-5.7 1.3 0.6-1.2 1.5-2.4 2.4-3.3-1.4-0.5-2.6-1.3-3.5-2.4 1.2-0.6 3.6 0 5.2-0.5-0.6-1.9-0.7-3.7-0.6-5.5m1 5.2c0.2 0.7-0.5 0.7-1.4 0.7-1.2 0.1-2.7-0.2-3.4 0.3 1 0.8 2.4 1.2 3.4 2-0.9 0.8-1.7 1.8-2.4 2.8 1.9-0.4 3.4-0.8 5.3-1.3 0.2 1.1 0.8 2.1 1.7 2.7 0-1.5-0.4-3-0.5-4.2 1-0.1 1.9-0.3 2.8-0.7-1.2-0.5-1.8-1.5-3.2-1.8 0.5-1 1-2 1.4-3.1-1 0.4-1.9 0.8-2.8 1.4-0.6-0.8-1-1.9-1.6-2.7 0.1 1.4 0.3 2.7 0.7 3.9"/>
	<path class="st0" d="m57 78.1c2.3-0.4 4.8-1.8 6.9-1.6-0.8 1.7-2 3.1-3.3 4.4 1.8 2 3.5 4.1 4.9 6.3-0.6 0.4-1.3-0.3-1.7-0.7-1.6-0.5-3.2-1.2-4.6-2.2-0.7 1.7-1.5 3.2-2.5 4.7-0.3 1-0.5 2.2-1.6 2.3-0.6-1.8 0.2-4.7-0.2-6.4-1.6 0.2-3.3 0.8-4.8 0.7-0.9 0.4-2.8 1.4-3.7 0.7 0.3-0.9 1.2-1.3 1.8-1.8 0.7-0.6 1.3-1.1 2-1.7-0.4-2.5-1.8-5.2-1.5-7.7 1.7 0.2 3.3 0.6 4.8 1.3 0.6-1.2 1-2.7 1.7-3.8 0.3-0.1 0.3 0.2 0.6 0.1 0.6 1.6 1 3.5 1.2 5.4"/>
	<path class="st1" d="m27.8 86.2c0.7 0.7 1.1 1.7 1.8 2.3 1.2-0.4 2.3-1.3 3.4-1.7-0.3 1-0.7 2-1.2 2.9 1 0.5 2.1 0.9 3.2 1.4 0.3 0.1 0.7 0.3 0.9 0.6-1.2 0.4-2.5 0.7-3.7 0.8-0.5 0.6-0.6 1.7-1.1 2.3-0.6-0.5-0.5-1.7-0.7-2.5-1.4 0.1-2.8 0.5-4 0.7 0.3-0.6 0.6-1.2 1-1.7s0.7-1.1 0.8-1.7c0.1-1.3-0.6-2.3-0.4-3.4m0.7 3.3c-0.6 1-1.1 2.1-1.7 3.1 1.3-0.3 2.6-0.5 3.8-0.8 0.2 0.8 0.1 1.8 0.5 2.3 0.2-0.7 0.5-1.2 0.7-1.9 1.2 0 2.3-0.3 3.4-0.7-1.2-0.5-2.6-1.1-3.9-1.5 0.5-0.8 0.9-1.8 1.3-2.7-1 0.5-2 1-2.9 1.6-0.6-0.4-1-1.4-1.5-1.7 0 0.8 0.1 1.6 0.3 2.3"/>
	<path class="st2" d="m14.5 86.4c-0.2 1.1-0.6 2.2-1.1 3.2 1.1 1 2.2 1.9 3.3 2.8-1.1 0-2.1-0.3-3.6-0.4-0.6 1.4-1.2 2.9-1.7 4.4-0.4-1.1-0.8-2.3-1.1-3.5-1.4 0.4-2.8 0.9-4.1 1.5 0.6-1 1.2-2 2-2.9-1-0.3-2-0.6-3-0.8 1.1-0.7 2.3-1.3 3.5-2 0.1-1.6 0.3-3 0.4-4.5 0.8 1.1 1.4 2.3 1.8 3.5 1.3-0.3 2.5-0.7 3.6-1.3"/>
	<path class="st0" d="m68.5 40.7c0.7 0.5 0.8 1.5 1.4 2.2 1-0.4 2-0.6 3.1-0.8-0.4 0.9-0.9 1.7-1.6 2.3 0.1 0.3 0.4 0.5 0.6 0.7 0.1 1 1.1 1.7 1.2 2.4-1 0.1-1.7-0.9-2.8-1-1 0.8-1.2 2.4-2.5 2.8 0.1-0.9 0-1.8-0.2-2.7-0.9-0.5-2.3-0.6-3.1-1.3 1-0.6 2.2-0.9 3.3-0.9 0-1.1 0-3 0.6-3.7m1.2 2.8c-0.5-0.5-0.5-1.5-1.2-1.8-0.2 1.1 0 2.6-0.3 3.4-0.9-0.4-2-0.3-2.8 0.3 0.9 0.3 1.8 0.5 2.7 0.7-0.1 0.8 0 1.5 0.3 2.3 0.6-0.8 1.1-1.7 1.6-2.5 0.7 0.3 1.5 0.6 2.2 0.9-0.3-0.9-0.9-1.6-1.6-2.2 0.6-0.6 1.2-1.2 1.5-2-0.8 0.2-1.7 0.5-2.4 0.9"/>
	<path class="st1" d="m76.1 88.1c0.2 0.4-0.2 1.6-0.2 2.2 0.4 0.6 1.4 1.2 1.7 1.6 0 0.6-1.1 0.2-1.6 0.3-0.3 0.8-0.5 1.5-0.6 2.3-0.6-0.1-0.7-1.4-1.2-1.9-1.2 0.1-2.4 0.1-3.7 0 0.4-0.3 0.9-0.5 1.3-0.8s0.8-0.6 1.3-0.8c-0.5-0.7-1-1.5-1.3-2.2 0.9 0.2 1.8 0.4 2.7 0.8 0.7-0.4 0.9-1.2 1.6-1.5m-1.6 1.8c-0.6-0.3-1.3-0.5-1.9-0.6 0.3 0.7 0.9 1 1 1.9-0.9 0.2-1.3 0.8-1.9 1.2 1-0.2 2 0.1 3-0.1 0.1 0.5 0.3 1 0.7 1.5 0.3-0.7 0.1-1.4 0.5-1.9 0.3 0.1 0.7 0.1 1 0.1-0.1-0.5-1-0.8-1.3-1.3 0.2-0.6 0.3-1.2 0.2-1.9-0.5 0.3-0.8 0.9-1.3 1.1"/>
	<path class="st1" d="m71.4 72.8 0.1-0.2c1.6 0.2 3.2 0.6 4.7 1.3 0.7-1.8-0.1-3.8 0.7-6 1.9 1.8 2.5 3.9 3.8 5.9 1-0.1 2.2-0.3 3.3-0.2 1.1 0 2.1 0.1 3.2 0.2-1 1.3-3 1.7-4.3 3.2-0.6 0.1-1 0.6-1.6 0.8-0.8 1.5-2.1 4.7-3.2 6.5-0.5-1.4-0.7-2.9-0.8-4.4-2.1 0.1-4 0.8-6.2 0.4 0.5-1.5 2.4-2.9 3.4-4.2-0.8-1.1-1.9-2.2-3.1-3.3m9.3 1.8c-1.2-1.8-1.9-4.2-3.5-5.6-0.2 1.9 0 3.7-0.4 5.6-1.4-0.2-2.5-1.2-3.8-1.1 1.2 0.7 1.6 2 2.8 2.5-0.1 1.7-2.6 3.2-3.5 4.1 1.9-0.2 3.8-0.4 5.7-0.7 0.2 1.2-0.2 2.6 0.5 3.7 0.9-1.7 1.8-4 2.6-5.6 1.7-0.8 3.2-1.8 4.5-3.1"/>
	<path class="st0" d="m60.5 67.3c1-1.5 2.1-2.9 3.3-4.2-0.9-1.1-2.7-2.2-2.2-3.7 1.5 0 3 0.8 4.6 0.9 0.6-1.9 1.3-3.7 2.3-5.4 0.8 0.6 0.5 1.9 0.7 2.8 0.1 1 0.3 2 0.5 3 1.7 0.8 3.4-0.3 5.1 1.2-0.9 0.4-1.8 0.7-2.8 1-0.9 0.5-1.9 0.8-2.9 0.9-0.2 1.9 0.3 4.2-0.8 5.8-0.9-1.4-1.8-2-2.6-3.1-1.7-0.2-3.5 1.5-5.2 0.8m12.7-5.6c-1.4-0.5-2.8 0.2-4.2-0.7-0.3-1.5 0.1-2.9-0.6-4.4-1 1.5-1 3-1.7 4.5-1.4-0.1-3.3-1.3-4.4-0.7 0.5 1.1 1.9 1.7 2.4 2.7-1.1 1.1-2 2.3-2.9 3.6 1.3-0.3 2.6-0.6 3.8-1.1 0.8 0.7 1.5 1.8 2.4 2.7 0.7-1.3 0.2-3.4 0.4-5.1 1.7-0.1 3.3-0.7 4.8-1.5"/>
	<path class="st3" d="m93.5 59.1c0.2 0.4-0.2 1.6-0.2 2.2 0.4 0.6 1.4 1.2 1.7 1.6 0 0.6-1.1 0.2-1.6 0.3-0.3 0.8-0.5 1.5-0.6 2.3-0.6-0.1-0.7-1.4-1.2-1.9-1.2 0.1-2.4 0.1-3.7 0 0.4-0.3 0.9-0.5 1.3-0.8s0.8-0.6 1.3-0.8c-0.5-0.7-1-1.5-1.3-2.2 0.9 0.2 1.8 0.4 2.7 0.8 0.6-0.3 0.9-1.1 1.6-1.5m-1.7 1.9c-0.6-0.3-1.3-0.5-1.9-0.6 0.3 0.7 0.9 1 1 1.9-0.9 0.2-1.3 0.8-1.9 1.2 1-0.2 2 0.1 3-0.1 0.1 0.5 0.3 1 0.7 1.5 0.3-0.7 0.1-1.4 0.5-1.9 0.3 0.1 0.7 0.1 1 0.1-0.1-0.5-1-0.8-1.3-1.3 0.2-0.6 0.3-1.2 0.2-1.9-0.4 0.3-0.7 0.8-1.3 1.1"/>
</svg>
