<svg xmlns="http://www.w3.org/2000/svg" enable-background="new 0 0 139.02px 156.94px" max-width='139.02px' height='156.94px' version="1.1" viewBox="33.87 31.36 138.94 156.87">
<style type="text/css">
	.st0{fill:#C9BEA6;}
	.st1{fill:#8BAAD1;}
	.st2{fill:#092B39;}
</style>
<g transform="translate(344.49 141.06)">		
<path class="st0" d="m-210.1-80.8c0.8 7.2 6.3 13.4 13.7 17.6-16.9 3.2-34.3-0.7-51.4 0.4-9.2-0.3-18.2 0.8-27.2 1.4-10.8 1.5-16.9-7.3-20.7-16.1-1.8-5.5-3.6-11.9-2.7-17.6 2.2-4.1 6.6-6.7 11.3-6.6 5.9 0 11.7-0.1 17.6-0.5 24.6 0.5 49.7-5.1 74.1-1-10.5 4.2-15.7 13.8-14.7 22.4"/>
<path class="st1" d="m-178.7-26.6c1.2 20.5 0.3 39.9 0 60.4 0 5.9-9.1 5.5-13.4 6.2-19.4 0.4-37.3 1.8-56.7-0.2-5.5-1.5-11.2-0.7-16.7-0.6-11.4-0.6-20.7 0-32.1-0.6-8.1 0.7-4.1-46-6.1-54.2-0.7-21.9-1.9-43.7 0.4-65.1 0-0.3 0.3-0.6 0.7-0.5 0.3 0 0.5 0.2 0.5 0.5 1.4 5.4 3.6 10.5 6.5 15.2 4.3 6.3 6.1 6.2 11 8 18 5.6 37.2 0.7 55.8 2.3 9.2-0.1 18.4 0.1 27.5-1.3 6.3-0.7 11.2-0.9 17.5-1.1 2.2 0 3.5 0.3 3.8 2.5 2.1 10.1-0.5 18.4 1.3 28.5"/>
<path class="st2" d="m-172.5-34.5c1.8 15.7 0.2 31.3-0.8 47-0.2 4.7-0.1 9.4 0.1 14.1-0.1 4.6 2.3 9.5-0.1 13.8-2.4 5.9-13.6 5.5-19.1 5.5-7.5-1-14.9 1-22.4 0.6-11.9 0.2-23.8-0.4-35.7-0.4-11 0.7-21.9 1.5-32.9 0.8-6.1-0.1-12.6 0.6-18.4-1.9-5.1-1.8-5.4-7.4-6-12.1-0.6-8.8-1.8-18.1-2.1-26.8 0.4-11.1-0.9-21.2-0.7-32.1 0.6-12.2 0.5-24.5 0.8-36.7 0.4-11.6 1.2-23.2 4.3-34.4 0.7-5.5 13.2-9.4 17.9-10.4 16.8-3.7 34.1-0.8 51.2-1.5 12.6-0.4 25.1-1.3 37.6-0.1 6 0.4 12.2-1.2 18 0.6 3.6 0.8 10.6 5.2 4.2 7.6-6.2 1.5-13.2-2.1-19.2 0.6-5.1 3.4-11.5 7.3-11.8 14.1-0.4 4.9 0.3 10.3 3.6 14.2 11.5 16.1 29.7 1.5 29.8 11.3-1.4 8.8 0.2 17.5 1.7 26.2m-6.2 68.3c0.3-20.5 1.3-39.9 0-60.4-1.8-10.1 0.8-18.3-1.2-28.4-0.3-2.2-1.5-2.4-3.8-2.5-6.4 0.1-11.2 0.4-17.5 1.1-9.1 1.4-18.3 1.1-27.5 1.3-18.5-1.6-37.7 3.3-55.8-2.3-4.9-1.8-6.7-1.7-11-8-2.9-4.7-5.1-9.9-6.5-15.3-0.1-0.3-0.4-0.5-0.7-0.5-0.3 0.1-0.5 0.3-0.5 0.5-2.3 21.4-1.2 43.2-0.4 65.1 2 8.2-2 54.9 6.1 54.2 11.4 0.5 20.6 0 32.1 0.6 5.6-0.1 11.2-1 16.7 0.6 19.3 2 37.2 0.7 56.7 0.2 4.1-0.7 13.2-0.3 13.3-6.2m-17.8-97.1c-7.4-4.1-12.8-10.4-13.7-17.6-1-8.6 4.3-18.2 14.7-22.4-24.3-4.1-49.5 1.6-74.1 1-5.8 0.4-11.7 0.5-17.6 0.5-4.7-0.1-9.1 2.4-11.3 6.6-1 5.7 0.9 12.2 2.7 17.6 3.8 8.8 9.9 17.6 20.7 16.1 9-0.6 18-1.7 27.1-1.5 17.2-1 34.7 2.9 51.5-0.3"/>
</g>
</svg>